<?xml version="1.0" encoding="utf-8"?>
<!-- Generator: Adobe Illustrator 12.0.1, SVG Export Plug-In . SVG Version: 6.00 Build 51448)  -->
<!DOCTYPE svg PUBLIC "-//W3C//DTD SVG 1.1//EN" "http://www.w3.org/Graphics/SVG/1.1/DTD/svg11.dtd" [
	<!ENTITY ns_svg "http://www.w3.org/2000/svg">
	<!ENTITY ns_xlink "http://www.w3.org/1999/xlink">
]>
<svg  version="1.1" id="Calque_1" xmlns="&ns_svg;" xmlns:xlink="&ns_xlink;" width="576.143" height="576.188"
	 viewBox="0 0 576.143 576.188" overflow="visible" enable-background="new 0 0 576.143 576.188" xml:space="preserve">
<g>
	<polygon fill-rule="evenodd" clip-rule="evenodd" fill="#113784" points="0,0 576.143,0 576.143,576.188 0,576.188 0,0 	"/>
	<path fill-rule="evenodd" clip-rule="evenodd" fill="#FFFFFF" d="M434.563,429.179l1.629-0.197l1.283-0.197l0.543-0.197
		l0.494-0.148l0.395-0.197l0.395-0.296l0.396-0.396l0.346-0.493l0.296-0.494l0.296-0.543l0.396-1.382l0.197-1.728v-0.889l0.099-0.84
		l0.099-0.987v-0.889v-4.442v-4.443v-4.442v-4.442v-4.443v-4.442v-4.443v-4.442v-0.889l-0.099-0.74l-0.099-0.691v-0.889
		l-0.099-1.136l-0.099-0.889l-0.297-0.789l-0.395-0.643l-0.395-0.395l-0.543-0.395l-0.593-0.297l-0.691-0.197l-3.061-0.296
		l-3.505-0.346l-0.592-0.296l-0.445-0.396l-0.296-0.395l-0.099-0.395v-0.297v-0.197l0.099-0.148l0.197-0.197l0.444-0.395
		l0.691-0.297l5.332,0.297l5.281,0.197l5.233,0.099l5.331,0.099l5.332-0.099l5.281-0.099l5.233-0.197l5.331-0.297l0.74-0.099
		l0.494,0.099l0.395,0.1l0.197,0.197v0.395v0.444l-0.197,0.593l-0.296,0.889l-0.296,1.233v1.284v1.233l0.197,1.284l0.395,2.518
		l0.297,2.468v0.494l-0.198,0.296l-0.197,0.197l-0.296,0.099h-0.297l-0.395-0.197l-0.247-0.395l-0.296-0.494l-0.197-0.247
		l-0.099-0.395l-0.099-0.395l-0.099-0.494v-0.79l-0.1-0.839l-0.296-0.79l-0.197-0.69l-0.395-0.544l-0.297-0.592l-0.444-0.494
		l-0.493-0.395l-0.494-0.395l-0.592-0.346l-0.543-0.297l-0.691-0.197l-0.691-0.197l-0.74-0.197l-1.777-0.197l-1.826-0.099h-2.419
		H458.9h-2.419h-2.616h-0.84h-0.888l-0.494,0.099h-0.444l-0.395,0.197l-0.396,0.197L450.113,377l-0.197,0.297l-0.198,0.296
		l-0.099,0.346l-0.099,0.987l-0.099,0.987v0.444v0.395v18.067h11.403h0.79l0.889-0.099l0.74-0.197l0.691-0.247l0.691-0.296
		l0.543-0.395l0.592-0.396l0.593-0.493l0.493-0.543l0.396-0.691l0.346-0.691l0.395-0.79l0.296-0.74l0.297-0.889l0.197-0.938
		l0.197-0.987v-0.197l0.099-0.198l0.197-0.197l0.099-0.099l0.444-0.197l0.396-0.099l0.493,0.099l0.396,0.197l0.099,0.099
		l0.099,0.197l0.099,0.198v0.197l-0.296,2.616l-0.297,2.518l-0.197,2.616l-0.099,2.518v2.469l0.197,2.616l0.197,2.518l0.494,2.616
		v0.296l-0.099,0.198l-0.099,0.197l-0.099,0.197L470.698,412h-0.395h-0.494l-0.345-0.197l-0.198-0.197l-0.099-0.197l-0.099-0.198
		l-0.099-0.296l-0.493-1.925l-0.593-1.729l-0.296-0.69l-0.346-0.691l-0.297-0.642l-0.395-0.494l-0.493-0.493l-0.494-0.396
		l-0.543-0.395l-0.691-0.296l-0.789-0.148l-0.741-0.197l-0.987-0.099h-0.987h-11.403v2.518v2.468v2.518v2.518v2.518v2.518v2.617
		v2.518v0.789v0.741v0.69l0.197,0.593l0.198,0.444l0.296,0.395l0.395,0.396l0.494,0.197l0.543,0.197l0.593,0.099l1.185,0.099
		l1.036,0.099h1.58h1.629h1.728h1.728h1.087h1.135h1.086l0.938-0.197l1.777-0.296l1.233-0.296l1.086-0.297l0.741-0.296l0.789-0.444
		l0.79-0.691l0.84-0.889l1.185-1.332l0.74-0.79l0.593-0.938l0.69-1.086l0.593-1.233l0.642-1.383l0.593-1.432h0.987h0.938v1.037
		v1.185l-0.099,1.136l-0.099,1.283l-0.444,2.518l-0.593,2.419l-0.395,1.135l-0.493,1.087l-0.396,0.938l-0.444,0.889l-0.592,0.79
		l-0.593,0.642l-0.593,0.395l-0.543,0.297l-2.518,0.592l-2.221,0.396l-2.222,0.246h-2.123h-2.172l-2.123-0.147l-2.023-0.198
		l-2.222-0.296l-2.123-0.296l-2.319-0.197l-2.42-0.297l-2.616-0.099h-2.764h-2.913l-3.209,0.297l-3.455,0.395l-0.494-0.099
		l-0.395-0.197l-0.296-0.396l-0.198-0.493l0.1-0.444l0.197-0.494l0.296-0.493L434.563,429.179L434.563,429.179z M388.061,411.507
		l0.691,1.728l0.642,1.53l0.79,1.48l0.79,1.333l0.74,1.284l0.889,1.233l0.889,1.086l0.839,0.938l0.889,0.987l0.938,0.74l0.889,0.79
		l0.987,0.691l0.938,0.592l0.987,0.543l0.839,0.396l0.987,0.395l0.987,0.296l0.84,0.197l0.987,0.198l0.839,0.099l0.987,0.099
		l0.79-0.099l0.839-0.099l0.889-0.099l0.79-0.198l0.74-0.296l0.691-0.296l0.691-0.297l0.642-0.395l0.592-0.444l0.494-0.493
		l0.493-0.494l0.741-0.889l0.592-0.839l0.396-0.889l0.395-0.839l0.197-0.79l0.099-0.889v-0.839l-0.099-0.79l-0.099-0.889
		l-0.296-0.74l-0.396-0.889l-0.395-0.79l-0.494-0.74l-0.443-0.79l-0.593-0.79l-0.691-0.642l-1.432-1.481l-1.579-1.332l-1.629-1.284
		l-1.729-1.036l-1.728-1.086l-1.679-0.84l-1.629-0.889l-1.432-0.592l-0.79-0.296l-0.69-0.346l-0.543-0.396l-0.691-0.395
		l-1.185-0.987l-1.136-0.839l-1.283-1.086l-1.234-1.037l-1.086-1.086l-0.839-1.136l-0.889-1.185l-0.642-1.136l-0.593-1.283
		l-0.494-1.234l-0.296-1.185l-0.197-1.234l-0.099-1.185l-0.099-1.135l0.099-1.284l0.099-1.233l0.197-1.186l0.296-1.036l0.494-1.383
		l0.493-1.135l0.543-1.185l0.691-0.938l0.691-0.987l0.74-0.839l0.79-0.79l0.889-0.79l0.938-0.543l0.987-0.592l1.037-0.494
		l1.086-0.395l1.136-0.297l1.283-0.197l1.234-0.148l1.382-0.099l1.728,0.099l1.63,0.148l1.579,0.396l1.333,0.395l1.086,0.395
		l1.037,0.297l1.086,0.395l0.839,0.444l1.826,0.889l1.58,0.691h0.296l0.297,0.099h0.246l0.297-0.099l0.296-0.198l0.296-0.197
		l0.197-0.296l0.297-0.395l0.197-0.396l0.296-0.247l0.247-0.197l0.395-0.099l0.297,0.099l0.296,0.099l0.296,0.247l0.099,0.494
		l0.099,1.925l0.198,2.073l0.197,2.024l0.197,2.023l0.247,2.024l0.296,2.122l0.197,2.024l0.297,2.122l-0.099,0.297l-0.198,0.296
		l-0.197,0.099h-0.395h-0.346l-0.396-0.197l-0.395-0.197l-0.395-0.297l-0.099-0.839l-0.198-0.79l-0.197-0.789l-0.296-0.84
		l-0.247-0.691l-0.395-0.789l-0.396-0.741l-0.395-0.69l-0.938-1.383l-1.185-1.333l-1.333-1.233l-1.48-1.185l-1.432-0.987
		l-1.629-0.84l-1.679-0.79l-1.629-0.493l-0.79-0.197l-0.839-0.148l-0.79-0.099h-0.889h-0.74l-0.79,0.099l-0.79,0.099l-0.74,0.148
		l-0.691,0.296l-0.69,0.396l-0.643,0.395l-0.592,0.493l-0.79,0.643l-0.642,0.69l-0.494,0.79l-0.493,0.79l-0.395,0.74l-0.198,0.889
		l-0.197,0.839v0.889l0.197,0.889l0.198,0.839l0.493,0.889l0.493,0.889l0.741,0.84l0.889,0.889l1.086,0.839l1.233,0.79l3.308,1.925
		l3.456,2.123l3.604,2.221l3.555,2.419l1.629,1.284l1.579,1.333l1.53,1.382l1.333,1.53l1.284,1.53l1.036,1.679l0.494,0.74
		l0.395,0.889l0.395,0.938l0.297,0.889l0.197,1.185l0.099,1.136l0.05,1.185l0.099,1.234l-0.099,1.925l-0.247,1.827l-0.197,0.889
		l-0.198,0.889l-0.296,0.839l-0.296,0.79l-0.396,0.79l-0.395,0.642l-0.444,0.789l-0.493,0.691l-0.593,0.543l-0.593,0.691
		l-0.642,0.592l-0.69,0.593l-1.432,0.938l-1.481,0.888l-1.53,0.643l-1.58,0.592l-1.728,0.494l-1.728,0.296l-1.826,0.197h-1.827
		h-2.073l-1.925-0.197l-0.84-0.099l-0.889-0.197l-0.789-0.297l-0.84-0.296l-0.987-0.296l-0.938-0.346l-0.987-0.494l-0.987-0.296
		l-0.84-0.395l-0.69-0.197l-0.691-0.198h-0.543l-0.493,0.198l-0.396,0.197l-0.395,0.493l-0.297,0.494l-0.197,0.346l-0.346,0.296
		l-0.395,0.197l-0.296,0.099l-0.297-0.099l-0.296-0.099l-0.197-0.296l-0.099-0.444l-0.099-2.32l-0.198-2.32l-0.099-2.32l-0.147-2.32
		l-0.197-2.419l-0.396-2.319l-0.395-2.32l-0.593-2.32l0.296-0.593l0.396-0.395l0.296-0.296l0.396-0.1l0.246,0.1l0.396,0.197
		l0.395,0.296L388.061,411.507L388.061,411.507z M488.568,411.507l0.691,1.728l0.691,1.53l0.642,1.48l0.79,1.333l0.79,1.284
		l0.839,1.233l0.889,1.086l0.889,0.938l0.839,0.987l0.987,0.74l0.839,0.79l0.987,0.691l0.987,0.592l0.938,0.543l0.987,0.396
		l0.839,0.395l0.987,0.296l0.987,0.197l0.938,0.198l0.889,0.099l0.938,0.099l0.889-0.099l0.889-0.099l0.74-0.099l0.79-0.198
		l0.79-0.296l0.74-0.296l0.691-0.297l0.69-0.395l0.543-0.444l0.593-0.493l0.494-0.494l0.789-0.889l0.543-0.839l0.396-0.889
		l0.395-0.839l0.197-0.79l0.099-0.889v-0.839l-0.099-0.79l-0.197-0.889l-0.197-0.74l-0.395-0.889l-0.396-0.79l-0.444-0.74
		l-0.592-0.79l-0.593-0.79l-0.691-0.642l-1.432-1.481l-1.53-1.332l-1.678-1.284l-1.729-1.036l-1.728-1.086l-1.629-0.84l-1.58-0.889
		l-1.432-0.592l-0.789-0.296l-0.643-0.346l-0.69-0.396l-0.593-0.395l-1.135-0.987l-1.087-0.839l-1.432-1.086l-1.283-1.037
		l-1.036-1.086l-0.987-1.136l-0.741-1.185l-0.69-1.136l-0.593-1.283l-0.395-1.234l-0.396-1.185l-0.247-1.234v-1.185v-1.135v-1.284
		v-1.233l0.247-1.186l0.396-1.036l0.493-1.383l0.494-1.135l0.592-1.185l0.543-0.938l0.691-0.987l0.79-0.839l0.74-0.79l0.987-0.79
		l0.889-0.543l1.036-0.592l1.087-0.494l1.036-0.395l1.185-0.297l1.234-0.197l1.283-0.148l1.333-0.099l1.629,0.099l1.58,0.148
		l1.432,0.396l1.432,0.395l1.086,0.395l1.037,0.297l1.086,0.395l1.036,0.444l1.876,0.889l1.432,0.691h0.296l0.198,0.099h0.296
		l0.296-0.099l0.197-0.198l0.148-0.197l0.197-0.296l0.297-0.395l0.296-0.396l0.296-0.247l0.396-0.197l0.395-0.099l0.346,0.099
		l0.296,0.099l0.197,0.247l0.099,0.494v1.925l0.198,2.073l0.099,2.024l0.296,2.023l0.197,2.024l0.297,2.122l0.395,2.024l0.247,2.122
		v0.297l-0.148,0.296l-0.296,0.099h-0.396h-0.395l-0.396-0.197l-0.296-0.197l-0.197-0.297l-0.346-0.839l-0.296-0.79l-0.099-0.789
		l-0.099-0.84l-0.297-0.691l-0.395-0.789l-0.395-0.741l-0.494-0.69l-0.938-1.383l-1.186-1.333l-1.332-1.233l-1.432-1.185
		l-1.58-0.987l-1.53-0.84l-1.629-0.79l-1.679-0.493l-0.839-0.197l-0.889-0.148l-0.79-0.099h-0.839h-0.79l-0.84,0.099l-0.789,0.099
		l-0.79,0.148l-0.691,0.296l-0.74,0.396l-0.691,0.395l-0.69,0.493l-0.543,0.643l-0.691,0.69l-0.494,0.79l-0.395,0.79l-0.346,0.74
		l-0.197,0.889l-0.099,0.839v0.889l0.099,0.889l0.247,0.839l0.395,0.889l0.593,0.889l0.69,0.84l0.84,0.889l1.086,0.839l1.233,0.79
		l3.209,1.925l3.555,2.123l1.777,1.086l1.826,1.135l1.728,1.186l1.729,1.233l1.678,1.284l1.629,1.333l1.432,1.382l1.383,1.53
		l1.233,1.53l0.988,1.679l0.493,0.74l0.346,0.889l0.395,0.938l0.297,0.889l0.395,1.185l0.296,1.136l0.099,1.185l0.099,1.234
		l-0.099,0.987v0.938l-0.197,0.987l-0.099,0.84l-0.296,0.889l-0.197,0.889l-0.396,0.839l-0.296,0.79l-0.346,0.79l-0.493,0.642
		l-0.494,0.789l-0.494,0.691l-1.135,1.234l-1.283,1.185l-1.333,0.938l-1.481,0.888l-1.53,0.643l-1.629,0.592l-1.629,0.494
		l-1.876,0.296l-1.826,0.197H505.6h-2.023l-1.827-0.197l-0.889-0.099l-0.889-0.197l-0.74-0.297l-0.79-0.296l-1.086-0.395
		l-1.036-0.346l-1.086-0.494l-1.037-0.197l-0.79-0.395l-0.642-0.197l-0.691-0.198h-0.493l-0.493,0.198l-0.297,0.197l-0.296,0.493
		l-0.148,0.494l-0.296,0.444l-0.395,0.296l-0.297,0.099l-0.395,0.099l-0.296-0.099l-0.297-0.197l-0.197-0.296l-0.05-0.346v-2.32
		l-0.197-2.419l-0.197-2.419l-0.395-2.419l-0.297-2.419l-0.493-2.32l-0.396-2.221l-0.345-2.123v-0.296v-0.297l0.049-0.197
		l0.099-0.197l0.396-0.296l0.395-0.1l0.494,0.1l0.493,0.197l0.444,0.296L488.568,411.507L488.568,411.507z M354.246,429.179
		l1.036-0.197l0.889-0.296l0.79-0.247l0.543-0.493l0.493-0.593l0.494-0.593l0.296-0.642l0.297-0.789l0.099-0.79l0.147-0.74v-0.889
		l0.099-0.889v-1.827v-1.728V384.8l-0.099-2.665l-0.099-2.123l-0.049-0.889l-0.198-0.79l-0.197-0.592l-0.197-0.444l-0.493-0.494
		l-0.593-0.493l-0.642-0.396l-0.889-0.395l-0.889-0.247l-1.037-0.197l-1.185-0.197l-1.135-0.099l-0.593-0.297l-0.395-0.395
		l-0.297-0.395l-0.099-0.494l0.099-0.346l0.297-0.493l0.395-0.396l0.593-0.296l2.962,0.493l2.912,0.198l2.715,0.197h2.716
		l2.715-0.099l2.665-0.197l2.913-0.198l2.912-0.395l0.494,0.296l0.296,0.396l0.197,0.493v0.346l-0.197,0.494l-0.197,0.395
		l-0.197,0.395l-0.396,0.297l-1.086,0.099l-0.839,0.197l-0.691,0.197l-0.493,0.247l-0.642,0.79l-0.691,0.987l-0.395,0.938
		l-0.297,1.679l-0.197,2.222v2.665v33.667v2.913l0.197,2.221l0.197,1.729l0.198,1.036l0.395,0.691l0.593,0.493l0.642,0.494
		l0.889,0.296l0.987,0.247l1.135,0.197l1.234,0.197l1.481,0.197l0.395,0.198l0.395,0.197l0.148,0.395v0.396v0.395l-0.148,0.247
		l-0.395,0.197l-0.395,0.099l-3.11-0.099l-2.913-0.099h-2.665l-2.715-0.099h-2.617h-2.715l-2.813,0.099l-3.061,0.197l-0.396-0.099
		l-0.395-0.197l-0.197-0.247l-0.099-0.395l0.099-0.396l0.197-0.395l0.296-0.197L354.246,429.179L354.246,429.179z M239.965,428.143
		l0.494-0.099l0.592-0.197l0.396-0.1l0.444-0.296l0.395-0.296l0.296-0.396l0.297-0.395l0.296-0.444l0.197-0.592l0.296-0.593
		l0.1-0.79l0.197-0.74l0.147-1.926l0.099-2.418l0.297-3.209v-32.778l-0.297-2.962v-0.79l-0.099-0.79l-0.147-0.592l-0.197-0.543
		l-0.297-0.494l-0.395-0.395l-0.396-0.396l-0.395-0.296l-0.493-0.247l-0.544-0.197l-0.789-0.197l-0.889-0.099l-1.728-0.198
		l-1.729-0.395l-0.296-0.099l-0.197-0.395l-0.099-0.396l-0.099-0.346l0.099-0.395l0.099-0.395l0.197-0.198l0.296-0.099l3.012,0.297
		l2.863,0.197l3.011,0.099h2.913h3.011l2.863-0.099l3.012-0.197l3.011-0.297h0.197h0.198l0.049,0.099l0.197,0.099l0.1,0.396v0.395
		l-0.1,0.444l-0.197,0.396l-0.147,0.296l-0.297,0.197l-1.777,0.494l-1.431,0.296l-0.593,0.099l-0.543,0.099l-0.494,0.099
		l-0.395,0.247l-0.395,0.197l-0.297,0.396l-0.296,0.395l-0.296,0.593l-0.148,0.543l-0.099,0.789l-0.099,0.79l-0.099,1.037v4.097
		v37.172v1.777l0.099,1.037v0.987l0.099,0.395l0.099,0.296l0.148,0.148l0.197,0.099l4.937-0.099l4.442,0.099l2.123,0.099h2.073
		l1.827-0.099l1.826-0.197l1.728-0.247l1.629-0.493l0.79-0.396l0.79-0.395l0.74-0.396l0.691-0.443l0.79-0.593l0.69-0.593
		l0.543-0.789l0.691-0.741l0.593-0.889l0.642-0.889l0.592-1.036l0.494-1.185l0.197-0.247l0.296-0.296l0.297-0.198l0.296-0.099
		l0.247,0.099l0.296,0.1l0.197,0.296l0.099,0.346l0.1,1.876l-0.1,1.728l-0.197,1.53l-0.493,1.58l-0.444,1.332l-0.691,1.234
		l-0.889,1.185l-0.839,1.037l-1.086,0.889l-1.136,0.79l-1.185,0.642l-1.333,0.493l-1.382,0.396l-1.432,0.197l-1.53,0.099
		l-1.58-0.099l-3.555-0.297l-3.505-0.197l-3.455-0.197l-3.604-0.099h-3.653h-3.752l-4.098,0.099h-4.245h-0.395l-0.247-0.197
		l-0.197-0.099l-0.197-0.247l-0.1-0.197l-0.099-0.296v-0.198v-0.296l0.198-0.593l0.296-0.493l0.346-0.346L239.965,428.143
		L239.965,428.143z M190.205,371.965h0.198l0.197,0.099l0.099,0.099l0.099,0.198l0.197,0.395v0.346l-0.099,0.493l-0.099,0.396
		l-0.296,0.395l-0.296,0.099l-1.086,0.297l-0.938,0.395l-0.889,0.444l-0.691,0.593L185.959,377l-0.494,0.741l-0.395,0.987
		l-0.198,1.185l-0.099,1.036l-0.099,1.086v1.037v1.185v22.115v2.123v2.024l0.099,2.122l0.296,2.123l0.197,1.679l0.395,1.629
		l0.395,1.432l0.543,1.382l0.691,1.234l0.691,1.185l0.889,1.037l1.037,0.888l1.086,0.889l1.135,0.642l1.284,0.593l1.432,0.494
		l1.432,0.395l1.678,0.247l1.728,0.197l1.728,0.099l1.333-0.099l1.283-0.099l1.136-0.148l1.283-0.197l1.037-0.197l1.086-0.297
		l1.037-0.395l0.987-0.296l0.987-0.494l0.839-0.395l0.889-0.543l0.79-0.494l0.642-0.592l0.79-0.691l0.592-0.642l0.543-0.691
		l0.691-0.889l0.593-0.839l0.592-0.987l0.346-0.938l0.395-1.876l0.395-1.827l0.198-2.023l0.099-2.024v-27.15v-1.383l-0.099-1.135
		l-0.099-1.185l-0.296-1.234l-0.198-0.79l-0.395-0.74l-0.247-0.691l-0.494-0.493l-0.494-0.494l-0.494-0.395l-0.592-0.247
		l-0.741-0.197l-0.987-0.099l-1.234-0.099h-1.284l-1.432-0.297l-0.197-0.197l-0.197-0.395l-0.099-0.396l-0.099-0.444l0.099-0.395
		l0.099-0.395l0.099-0.198l0.296-0.099l2.518,0.099l2.518,0.198h2.518l2.616,0.099h2.468l2.518-0.099l2.419-0.1l2.419-0.197
		l0.296,0.099l0.197,0.198l0.198,0.395v0.395v0.444l-0.198,0.396l-0.197,0.395l-0.296,0.197l-0.938,0.297l-1.087,0.395l-0.888,0.444
		l-0.84,0.593l-0.691,0.69l-0.592,0.79l-0.198,0.444l-0.148,0.493l-0.099,0.494l-0.099,0.593l-0.099,1.431l-0.197,1.432
		l-0.099,1.679v1.629v24.534l-0.099,2.123l-0.198,2.073l-0.296,1.827l-0.395,1.728l-0.543,1.629l-0.691,1.58l-0.79,1.332
		l-0.839,1.333l-0.889,1.086l-0.987,0.987l-0.444,0.444l-0.592,0.396l-0.592,0.395l-0.592,0.296l-0.839,0.691l-0.79,0.444
		l-0.79,0.494l-0.839,0.493l-1.58,0.691l-1.629,0.642l-2.617,0.592l-2.814,0.396l-2.764,0.296h-3.011h-2.715l-2.518-0.197
		l-1.135-0.197l-1.284-0.197l-1.135-0.297l-1.086-0.395l-1.234-0.296l-1.283-0.444l-1.136-0.396l-1.086-0.493l-1.037-0.593
		l-0.987-0.543l-0.839-0.593l-0.889-0.69l-0.79-0.691l-0.741-0.74l-0.691-0.889l-0.691-0.889l-0.593-0.839l-0.444-0.987
		l-0.493-1.037l-0.395-1.086l-0.494-1.234l-0.395-1.48l-0.346-1.432l-0.296-1.432l-0.296-2.024l-0.099-2.172v-2.122l-0.099-2.024
		v-21.721v-1.185l-0.099-1.037l-0.099-1.185l-0.197-1.333l-0.198-0.789l-0.197-0.691l-0.296-0.642l-0.345-0.494l-0.395-0.493
		l-0.395-0.396l-0.592-0.395l-0.592-0.247l-0.938-0.197l-1.284-0.099l-1.53-0.197l-1.827-0.396l-0.395-0.197l-0.198-0.395
		l-0.099-0.396l-0.099-0.444l0.099-0.395l0.197-0.395l0.198-0.198l0.296-0.099l3.16,0.099l3.11,0.099l3.209,0.1h3.159h3.208
		l3.11-0.1l3.159-0.099L190.205,371.965L190.205,371.965z M87.179,402.324l2.962,0.198l2.913,0.099l2.913,0.099l2.913,0.099
		l2.863-0.099l2.913-0.099l3.011-0.099l2.962-0.198l0.197,0.198l0.099,0.296l0.099,0.247l0.099,0.296l-0.099,0.296l-0.099,0.296
		l-0.099,0.198l-0.197,0.296l-1.333,0.099l-1.037,0.197l-0.592,0.198l-0.494,0.197l-0.395,0.197l-0.395,0.247l-0.296,0.296
		l-0.346,0.296l-0.198,0.396l-0.296,0.395l-0.296,0.938l-0.197,1.087v0.789v0.84v0.889v0.839v10.169l-2.123,1.432l-2.222,1.283
		l-2.32,1.136l-2.221,1.086l-2.32,0.987l-2.221,0.74l-2.32,0.691l-2.32,0.494l-2.221,0.395l-2.222,0.247l-2.221,0.099H77.8
		l-2.123-0.197l-2.024-0.247l-2.073-0.395l-2.024-0.593l-1.826-0.691l-1.827-0.74l-1.728-0.987l-1.679-1.136l-1.629-1.283
		l-1.432-1.333l-1.382-1.579l-1.234-1.63l-1.086-1.826l-0.938-1.925l-0.889-2.024l-0.79-2.222l-0.543-2.419l-0.395-2.518
		l-0.197-2.715l-0.099-2.813v-2.123l0.197-2.023l0.197-2.024l0.395-1.925l0.346-1.876l0.592-1.827l0.592-1.728l0.691-1.629
		l0.74-1.679l0.889-1.432l0.987-1.431l0.938-1.383l1.086-1.333l1.135-1.185l1.284-1.136l1.234-0.987l1.333-0.938l1.382-0.889
		l1.53-0.79l1.481-0.74l1.53-0.593l1.629-0.493l1.629-0.395l1.777-0.396l1.728-0.148l1.728-0.099l1.826-0.099l1.876,0.099
		l1.925,0.198l1.925,0.246l1.925,0.396l1.925,0.493l0.888,0.197l0.79,0.198l0.741,0.197l0.888,0.296l1.037,0.247l0.987,0.197
		l0.79,0.099h0.543h0.494l0.592-0.296l0.494-0.247l0.543-0.395l0.987-0.889l0.79-0.938l0.198-0.296l0.247-0.395l0.296-0.197
		l0.296-0.1l0.395,0.1l0.296,0.099l0.296,0.296l0.198,0.493l0.395,2.419l0.247,2.32l0.197,2.37l0.099,2.419v2.418v2.32l-0.099,2.419
		v2.518l-0.099,0.297l-0.197,0.296l-0.247,0.197l-0.296,0.099l-0.395-0.099l-0.296-0.099l-0.395-0.296l-0.296-0.396l-0.395-0.839
		l-0.148-0.79l-0.198-0.889l-0.296-0.74l-0.592-1.382l-0.79-1.234l-0.741-1.185l-0.987-1.037l-0.938-1.086l-1.185-0.938
		l-1.135-0.889l-1.382-0.889l-1.629-0.84l-1.629-0.789l-1.678-0.691l-1.53-0.346l-1.53-0.395l-1.58-0.198l-1.432-0.099l-1.432,0.099
		l-1.382,0.198l-1.333,0.296l-1.283,0.346l-1.234,0.493l-1.185,0.691l-1.136,0.691l-1.185,0.74l-0.938,0.889l-1.086,1.036
		l-0.839,0.987l-0.987,1.186l-0.79,1.233l-0.741,1.234l-0.691,1.283l-0.691,1.432l-0.543,1.383l-0.494,1.53l-0.494,1.53
		l-0.395,1.579l-0.296,1.53l-0.296,1.63l-0.197,1.678l-0.099,1.728v1.63v1.728l0.099,1.777l0.197,1.728l0.296,1.728l0.296,1.629
		l0.494,1.679l0.494,1.53l0.444,1.53l0.691,1.481l0.691,1.332l0.79,1.383l0.74,1.234l0.889,1.135l0.938,1.086l0.987,1.086
		l1.086,0.84l1.135,0.889l1.185,0.69l1.234,0.543l1.234,0.494l1.382,0.296l1.333,0.296l1.481,0.1l1.432-0.1l1.53-0.197l1.679-0.395
		l1.629-0.494l1.629-0.642l1.728-0.79l1.777-1.086l1.728-1.135l1.827-1.383v-9.28v-1.136l-0.099-0.987l-0.099-0.938l-0.296-0.79
		l-0.198-0.691l-0.345-0.543l-0.395-0.493l-0.494-0.396l-0.296-0.395l-0.494-0.296l-0.642-0.297l-0.691-0.246l-1.728-0.396
		l-2.32-0.296l-0.197-0.296l-0.198-0.198l-0.099-0.296v-0.296v-0.296l0.099-0.247l0.198-0.296L87.179,402.324L87.179,402.324z
		 M130.177,400.597h17.031l-9.034-19.647L130.177,400.597L130.177,400.597z M109.098,428.784l0.691-0.296l0.691-0.346l0.642-0.494
		l0.691-0.592l0.592-0.691l0.642-0.839l0.592-0.889l0.592-1.037l0.889-1.579l0.74-1.629l0.889-1.729l0.938-1.776l20.684-46.256
		l0.296-0.395l0.296-0.296l0.395-0.197l0.296-0.1l0.296,0.1l0.296,0.197l0.247,0.296l0.198,0.395l23.893,51.488l0.79,1.679
		l0.74,1.431l0.593,1.037l0.494,0.79l0.494,0.493l0.444,0.396l0.592,0.296l0.691,0.197l1.53,0.346l1.827,0.395l0.296,0.198
		l0.197,0.197l0.099,0.395l0.099,0.396l-0.099,0.395l-0.099,0.247l-0.197,0.197l-0.296,0.099l-3.061-0.296l-3.011-0.197l-3.11-0.05
		h-3.061h-3.011l-3.011,0.05l-3.061,0.197l-3.011,0.296h-0.198h-0.296l-0.099-0.099l-0.197-0.099l-0.197-0.296v-0.346v-0.396
		l0.296-0.395l0.296-0.296l0.395-0.198l1.431-0.197l1.284-0.197l1.037-0.197l0.889-0.247l0.592-0.296l0.494-0.494l0.148-0.197
		l0.099-0.296l0.099-0.297v-0.395l-0.197-2.123l-0.444-2.418l-0.494-2.617l-0.691-2.566l-0.691-2.715l-0.642-2.617l-0.691-2.518
		l-0.494-2.221h-23.202l-4.542,11.403l-1.925,4.344l-0.296,1.086l-0.197,0.839l-0.099,0.79l-0.099,0.691v0.395l0.099,0.247
		l0.099,0.395l0.099,0.297l0.494,0.493l0.691,0.396l0.839,0.395l1.086,0.247l1.234,0.296l1.481,0.296l0.296,0.1l0.296,0.296
		l0.099,0.197v0.395v0.297l-0.197,0.296l-0.197,0.346l-0.296,0.197h-2.419l-2.32-0.099h-2.419h-2.32h-2.419h-2.419l-2.32,0.099
		h-2.32l-0.395-0.197l-0.296-0.296l-0.099-0.247l-0.099-0.296l0.099-0.297l0.099-0.296l0.296-0.197l0.395-0.297l0.494-0.296
		l0.494-0.099h0.543H109.098L109.098,428.784z M283.456,400.794v-1.776l0.197-1.63l0.197-1.728l0.297-1.579l0.395-1.63l0.493-1.53
		l0.494-1.579l0.444-1.53l0.987-1.729l0.938-1.826l1.284-1.679l1.332-1.629l1.58-1.53l1.728-1.48l1.827-1.333l2.023-1.234
		l1.827-1.086l2.073-0.889l2.023-0.839l2.123-0.691l2.222-0.493l2.319-0.396l2.419-0.247l2.419-0.099l2.419,0.099l2.32,0.247
		l2.222,0.396l2.222,0.493l2.122,0.691l2.123,0.839l2.024,0.889l1.925,1.086l1.926,1.234l1.776,1.432l1.629,1.48l1.432,1.53
		l1.383,1.729l1.135,1.776l1.087,1.926l0.839,2.023l0.593,1.432l0.592,1.58l0.395,1.432l0.346,1.53l0.297,1.58l0.197,1.629
		l0.099,1.629l0.099,1.629l-0.099,1.58l-0.099,1.53l-0.197,1.53l-0.297,1.48l-0.246,1.432l-0.297,1.382l-0.493,1.432l-0.494,1.333
		l-0.592,1.284l-0.543,1.332l-0.691,1.284l-0.79,1.135l-0.839,1.284l-0.889,1.135l-0.987,1.086l-1.037,1.136l-1.185,1.086
		l-1.136,0.938l-1.185,0.987l-1.233,0.789l-1.284,0.84l-1.233,0.69l-1.432,0.691l-1.383,0.543l-1.432,0.494l-1.48,0.493l-1.53,0.396
		l-1.53,0.296l-1.63,0.247l-1.678,0.197l-1.729,0.099h-1.728h-1.728l-1.679-0.099l-1.629-0.197l-1.629-0.247l-1.58-0.296
		l-1.53-0.396l-1.53-0.493l-1.48-0.494l-1.432-0.543l-1.333-0.691l-1.382-0.789l-1.234-0.84l-1.383-0.889l-1.135-0.987l-1.284-0.938
		l-1.036-1.086l-1.086-1.037l-0.938-1.185l-0.889-1.136l-0.789-1.185l-0.741-1.135l-0.69-1.284l-0.691-1.233l-0.543-1.383
		l-0.494-1.333l-0.395-1.333l-0.395-1.48l-0.297-1.432l-0.197-1.48l-0.197-1.531l-0.099-1.53V400.794L283.456,400.794z
		 M294.021,404.645l0.296,1.728l0.296,1.53l0.444,1.679l0.494,1.53l0.493,1.432l0.593,1.481l0.543,1.333l0.69,1.382l0.79,1.333
		l0.84,1.333l0.888,1.185l1.087,1.135l1.036,1.086l1.283,0.889l1.234,0.84l1.432,0.79l1.58,0.789l1.53,0.642l1.53,0.494l1.579,0.296
		l1.63,0.197h1.629l1.678-0.099l1.827-0.197l1.728-0.493l1.728-0.593l1.679-0.642l1.432-0.79l1.432-0.987l1.382-0.938l1.234-1.185
		l1.185-1.234l0.938-1.284l0.889-1.332l0.789-1.333l0.643-1.481l0.592-1.53l0.396-1.53l0.395-1.679l0.296-1.629l0.148-1.53v-1.48
		v-1.53v-1.53l-0.099-1.679l-0.148-1.53l-0.197-1.629l-0.296-1.679l-0.593-2.566l-0.691-2.518l-0.74-2.32l-0.889-2.222l-0.987-2.024
		l-1.036-1.875l-1.186-1.63l-1.233-1.53l-0.987-0.987l-0.938-0.789L325.317,377l-1.036-0.69l-1.086-0.691l-1.037-0.444l-1.086-0.494
		l-1.136-0.493l-1.185-0.296l-1.136-0.297l-1.283-0.197l-1.234-0.099h-1.283h-1.333l-1.382,0.099l-1.432,0.297l-1.333,0.197
		l-1.283,0.395l-1.234,0.395l-1.185,0.494l-1.136,0.543l-1.086,0.593l-0.938,0.789l-0.987,0.643l-0.987,0.888l-0.741,0.889
		l-0.889,0.938l-0.789,0.987l-0.643,1.036l-0.69,1.186l-0.593,1.233l-0.543,1.284l-0.592,1.826l-0.396,1.925l-0.395,2.123
		l-0.099,2.32l-0.1,2.32l0.198,2.518l0.296,2.715L294.021,404.645L294.021,404.645z"/>
	<polygon fill-rule="evenodd" clip-rule="evenodd" fill="#FFFFFF" points="216.517,153.723 216.122,154.068 215.924,154.463 
		215.924,154.957 215.825,155.154 216.665,159.992 217.849,166.656 219.281,174.505 221.058,183.193 221.996,187.636 
		223.082,192.079 224.119,196.423 225.205,200.668 226.34,204.667 227.525,208.518 228.66,211.875 229.845,214.984 230.685,216.712 
		231.672,218.489 232.905,220.316 234.189,222.142 235.522,223.87 237.003,225.598 238.533,227.375 239.965,229.004 
		240.063,229.202 240.162,229.3 240.36,229.399 240.558,229.399 240.854,229.399 241.051,229.399 241.348,229.202 241.742,229.004 
		242.384,228.412 243.964,227.178 245.494,225.894 246.185,225.351 246.432,225.153 246.629,224.857 246.729,224.561 
		246.827,224.364 246.729,223.87 246.629,223.574 246.383,223.129 245.889,221.945 245.396,220.711 245.099,220.217 
		244.605,218.835 244.21,217.699 243.964,216.317 243.667,214.787 243.371,211.973 243.075,209.208 242.779,206.494 242.384,203.68 
		241.989,200.866 241.644,198.151 241.248,195.288 240.854,192.474 240.854,192.276 240.854,192.178 239.866,188.031 
		238.73,183.489 238.04,181.169 237.25,178.75 236.51,176.332 235.522,174.012 234.485,171.593 233.301,169.272 231.968,167.051 
		230.487,164.83 229.746,163.744 228.857,162.806 227.97,161.72 227.13,160.782 226.143,159.893 225.106,159.004 224.02,158.165 
		222.983,157.375 217.849,153.92 217.355,153.624 216.961,153.525 216.665,153.525 216.517,153.723 	"/>
	<polygon fill-rule="evenodd" clip-rule="evenodd" fill="#FFFFFF" points="333.66,243.616 328.428,244.455 328.033,244.653 
		327.539,245.146 327.44,245.442 327.44,245.837 327.539,246.134 327.736,246.38 328.329,247.17 329.464,248.454 330.649,249.787 
		331.241,250.379 332.081,251.218 332.97,252.107 333.857,252.896 334.697,253.637 336.425,254.921 338.202,255.858 339.93,256.747 
		341.46,257.438 343.04,257.883 344.373,258.277 345.805,258.475 347.187,258.475 348.421,258.376 349.605,258.179 351.333,257.784 
		352.123,257.636 353.061,257.142 353.949,256.55 354.789,255.858 355.678,255.118 356.368,254.328 357.109,253.44 357.8,252.601 
		358.393,251.712 360.219,248.701 360.91,247.269 361.305,246.677 361.946,245.442 362.736,244.159 363.132,243.616 
		363.132,243.221 363.033,242.826 363.033,242.53 362.835,242.333 362.539,241.938 362.145,241.74 361.848,241.74 361.749,241.691 
		359.824,241.691 356.171,241.493 354.591,241.592 351.827,241.74 348.322,242.135 344.472,242.53 340.72,242.826 337.313,243.221 
		334.796,243.518 333.66,243.616 	"/>
	<polygon fill-rule="evenodd" clip-rule="evenodd" fill="#FFFFFF" points="253.984,283.701 253.491,284.194 252.85,285.478 
		251.565,287.847 249.838,291.648 245.987,299.003 245.197,300.139 243.272,303.052 240.952,306.705 238.929,309.913 
		237.546,312.135 237.349,312.332 236.312,314.06 235.818,314.652 235.424,315.343 235.127,316.084 234.781,316.874 
		233.992,318.799 233.498,319.589 233.104,320.724 232.905,321.316 232.807,321.81 232.708,322.304 232.807,322.649 
		233.104,322.946 233.498,323.143 233.992,323.242 234.683,323.242 236.016,323.143 237.349,322.847 237.447,322.847 
		237.546,322.847 238.336,322.649 239.323,322.403 240.36,322.008 241.545,321.613 243.371,320.823 244.21,320.428 245.889,319.589 
		247.419,318.602 248.851,317.664 250.233,316.578 251.368,315.492 252.454,314.455 253.393,313.27 254.183,312.135 
		254.281,311.838 254.577,311.049 254.577,310.851 254.577,310.604 254.577,310.308 254.577,309.913 254.577,309.617 
		254.577,309.321 254.676,308.531 254.774,307.791 254.972,307.001 255.17,306.211 255.713,304.779 256.602,303.348 
		257.489,301.867 258.526,300.435 259.612,299.103 260.649,297.622 261.538,296.881 262.13,296.19 262.673,295.4 263.167,294.808 
		263.463,294.265 263.463,294.067 263.463,293.771 263.364,293.475 263.364,292.882 263.167,292.339 262.771,291.451 
		262.13,290.167 261.241,288.834 260.106,287.206 259.119,285.625 258.23,284.293 257.786,283.799 257.391,283.602 257.095,283.503 
		256.996,283.404 255.564,283.404 254.676,283.404 254.183,283.503 253.984,283.701 	"/>
	<polygon fill-rule="evenodd" clip-rule="evenodd" fill="#FFFFFF" points="396.009,191.98 394.33,192.77 390.579,194.399 
		386.729,195.93 385.05,196.719 384.507,197.016 383.224,197.707 381.989,198.349 381.396,198.645 380.212,199.336 377.793,200.866 
		375.374,202.495 374.238,203.186 372.906,204.075 369.796,205.901 366.587,207.728 365.254,208.616 361.65,210.739 
		358.097,212.763 354.591,214.589 351.234,216.317 348.025,217.897 345.162,219.229 342.447,220.415 340.028,221.451 
		335.783,223.376 333.759,224.561 331.686,225.598 329.859,226.684 328.23,227.77 320.184,232.854 320.035,233.052 319.937,233.348 
		320.035,234.237 320.085,234.434 320.184,234.632 320.381,234.78 320.678,234.977 320.875,234.977 330.155,234.977 
		332.278,234.977 337.708,234.533 341.46,234.039 345.705,233.25 348.025,232.756 350.444,232.213 352.962,231.521 355.479,230.732 
		358.097,229.893 360.812,228.807 363.526,227.77 366.192,226.486 368.907,225.153 371.622,223.574 374.338,221.945 
		376.954,220.118 379.57,218.193 382.187,216.07 384.655,213.75 386.975,211.232 389.295,208.518 391.517,205.704 393.688,202.594 
		395.614,199.336 395.812,198.842 396.354,197.707 397.243,195.732 398.23,193.264 398.23,192.869 398.23,192.474 398.132,192.178 
		398.132,191.98 397.934,191.684 397.736,191.585 397.44,191.388 397.243,191.388 396.946,191.388 396.749,191.487 396.256,191.783 
		396.009,191.98 	"/>
	<polygon fill-rule="evenodd" clip-rule="evenodd" fill="#FFFFFF" points="243.174,171.987 242.977,172.185 242.779,172.382 
		242.779,172.629 242.779,172.827 243.174,174.505 243.568,176.529 244.063,178.948 244.507,181.663 245,184.526 245.396,187.636 
		245.79,190.647 245.987,193.708 245.987,194.3 246.086,195.633 246.185,197.854 246.383,200.767 246.629,204.272 247.024,208.32 
		247.518,212.664 248.11,217.403 248.209,217.601 248.308,218.094 248.505,218.489 248.703,218.736 248.949,219.032 
		249.443,219.329 249.937,219.724 251.171,220.415 252.355,220.958 252.85,221.254 253.294,221.353 253.886,221.451 
		254.183,221.353 254.479,221.155 254.774,220.958 255.071,220.612 255.91,219.032 257.934,215.577 259.908,212.072 
		260.847,210.542 261.044,210.048 261.34,208.913 261.34,208.024 261.34,207.086 261.044,205.803 260.649,204.47 260.451,203.68 
		259.908,201.754 259.021,198.842 257.786,195.09 256.107,190.746 254.183,186.007 253.047,183.588 251.862,181.169 
		250.628,178.652 249.246,176.233 248.949,176.233 247.913,174.949 247.222,174.308 246.185,173.419 245.099,172.53 244.21,171.987 
		243.964,171.889 243.667,171.79 243.371,171.889 243.174,171.987 	"/>
	<polygon fill-rule="evenodd" clip-rule="evenodd" fill="#FFFFFF" points="309.076,193.511 307.546,193.905 305.621,194.695 
		303.399,195.732 300.882,197.016 295.353,200.027 289.479,203.482 283.752,206.987 278.618,210.245 274.57,212.862 
		272.053,214.589 271.707,214.984 271.411,215.478 270.127,216.712 268.894,218.094 267.708,219.427 266.573,220.81 
		265.586,222.241 264.746,223.87 264.352,224.66 263.956,225.548 263.66,226.388 263.463,227.276 263.463,227.671 263.463,228.017 
		263.66,228.51 264.056,229.004 264.549,229.3 265.685,229.893 266.771,230.436 267.313,230.732 267.708,230.929 268.597,231.127 
		270.324,231.226 271.855,231.226 273.336,231.127 274.57,230.929 275.558,230.929 276.396,230.831 277.187,230.732 
		277.878,230.732 281.926,231.127 282.616,231.423 283.012,231.324 283.357,231.127 283.653,230.831 283.851,230.534 
		283.949,229.498 284.048,228.313 284.345,227.474 285.035,225.45 285.431,224.167 285.875,222.932 286.368,221.748 286.862,220.81 
		287.06,220.612 287.553,219.822 288.294,218.736 289.38,217.403 290.17,216.613 290.91,215.873 291.897,215.083 292.835,214.194 
		294.021,213.355 295.254,212.565 296.637,211.727 298.068,210.937 298.957,210.245 299.796,209.653 299.993,209.653 
		301.079,208.32 303.399,205.408 305.621,202.495 306.657,201.261 307.25,200.866 308.533,199.928 309.768,199.04 310.36,198.645 
		310.854,198.349 311.891,197.608 312.878,196.818 313.322,196.522 313.618,196.324 313.815,196.127 313.914,195.93 
		314.013,195.633 313.618,194.992 313.322,194.794 311.002,193.708 310.36,193.511 309.669,193.412 309.274,193.412 
		309.076,193.511 	"/>
	<polygon fill-rule="evenodd" clip-rule="evenodd" fill="#FFFFFF" points="280,279.85 279.605,280.047 279.31,280.344 
		279.21,280.64 279.111,280.887 278.568,281.874 277.285,284.293 276.051,286.712 275.459,287.798 275.36,287.946 274.965,288.637 
		274.57,289.624 274.175,290.76 272.053,299.201 271.756,299.349 271.756,299.744 271.51,300.83 271.016,302.064 270.324,303.545 
		268.992,305.964 267.609,308.284 266.178,310.703 264.746,313.023 263.956,314.159 262.327,316.973 260.748,319.688 
		260.007,320.922 258.921,322.847 258.23,324.229 257.688,325.562 257.095,326.994 256.502,328.475 256.107,329.511 
		255.614,330.597 255.614,330.795 255.614,331.091 255.614,331.584 255.91,332.127 256.009,332.226 256.305,332.424 
		256.602,332.522 257.193,332.522 258.329,332.522 259.514,332.424 260.254,332.325 260.649,332.325 260.748,332.325 
		261.143,332.226 261.735,332.029 262.327,331.634 264.895,330.301 267.511,328.672 270.127,326.994 272.843,325.167 
		274.076,324.13 275.459,323.044 276.692,322.008 277.977,320.823 279.21,319.589 280.494,318.305 281.629,316.973 282.814,315.492 
		283.357,314.85 283.851,314.06 284.147,313.27 284.443,312.53 284.542,311.74 284.641,310.95 284.739,310.308 284.739,309.519 
		284.739,308.531 284.739,307.791 284.641,307.001 284.542,306.31 284.542,306.063 284.443,305.865 284.345,305.174 
		284.345,305.076 284.542,304.977 284.838,304.088 285.233,302.953 285.776,301.768 286.467,300.435 287.898,297.029 
		288.195,296.585 288.393,295.696 287.898,294.462 287.751,293.771 287.553,293.179 287.257,292.586 286.862,292.142 
		286.665,291.648 285.578,289.328 285.578,288.637 285.332,287.206 285.035,285.28 284.739,283.404 284.443,282.466 
		284.048,281.973 282.716,280.985 281.234,280.047 280.691,279.85 280,279.85 	"/>
	<polygon fill-rule="evenodd" clip-rule="evenodd" fill="#FFFFFF" points="309.274,234.434 308.336,236.162 307.546,237.791 
		307.053,239.321 306.657,240.704 306.559,241.296 306.559,241.938 306.559,242.431 306.559,243.024 306.657,243.518 
		306.855,243.912 307.053,244.356 307.349,244.751 307.843,245.245 308.435,245.64 309.076,246.035 309.768,246.232 310.558,246.38 
		311.298,246.578 312.088,246.578 312.977,246.578 314.605,246.479 316.234,246.282 317.616,246.035 318.752,245.837 
		318.949,245.739 319.147,245.64 319.345,245.245 319.443,244.751 319.345,244.356 319.246,244.061 319.147,243.912 
		318.949,243.616 318.456,243.418 317.716,243.024 316.827,242.629 315.938,242.333 315.297,241.938 314.704,241.493 
		314.111,240.704 313.421,239.321 312.581,237.692 311.891,236.162 311.002,234.434 310.854,234.138 310.558,233.94 310.36,233.743 
		310.162,233.743 309.57,234.039 309.274,234.434 	"/>
	<polygon fill-rule="evenodd" clip-rule="evenodd" fill="#FFFFFF" points="242.581,253.539 241.891,253.736 241.248,254.032 
		240.656,254.328 240.162,254.822 239.768,255.217 239.422,255.76 239.225,256.253 239.027,256.945 238.929,257.636 
		238.829,258.376 238.73,259.166 238.73,259.857 238.73,260.055 238.73,260.203 238.929,260.598 239.225,260.894 239.472,261.19 
		239.965,261.289 241.248,261.091 242.285,260.894 244.31,260.598 246.383,260.4 248.406,260.301 250.431,260.203 252.553,260.203 
		254.676,260.301 256.799,260.4 258.921,260.598 261.143,260.894 263.266,261.19 265.487,261.684 267.807,262.177 270.028,262.622 
		272.349,263.313 274.669,264.004 276.989,264.744 277.384,264.942 277.878,265.139 280,265.831 282.222,266.719 284.443,267.657 
		286.764,268.644 288.984,269.779 291.305,271.063 293.625,272.396 295.945,273.778 298.562,275.604 301.178,277.53 
		302.511,278.566 303.794,279.751 305.028,280.887 306.213,282.17 307.25,283.404 308.237,284.787 309.175,286.218 309.965,287.699 
		310.656,289.229 311.199,290.858 311.594,292.487 311.891,294.265 311.891,294.709 312.088,295.992 312.187,297.227 
		312.285,297.917 312.285,298.115 312.285,298.411 312.482,298.806 312.878,299.003 313.224,299.003 313.618,298.905 
		314.013,298.806 314.507,298.313 315.494,297.424 316.53,296.782 317.024,296.387 318.061,295.499 319.147,294.462 
		319.641,293.771 320.085,293.179 320.479,292.389 320.875,291.648 320.875,291.549 320.875,291.451 321.072,291.352 
		321.072,291.253 321.565,289.624 321.764,287.946 321.862,286.416 321.862,284.787 321.565,283.207 321.27,281.677 
		320.678,280.047 320.035,278.517 319.246,276.938 318.259,275.407 317.123,273.976 315.84,272.396 314.408,270.866 
		312.878,269.385 311.101,267.953 309.274,266.521 309.274,266.324 309.274,266.225 306.954,264.695 304.535,263.214 
		302.215,261.881 299.697,260.598 297.278,259.363 294.761,258.179 292.193,257.142 289.577,256.155 286.961,255.217 
		284.246,254.427 281.53,253.637 278.717,252.996 275.952,252.403 273.139,251.909 270.226,251.515 267.313,251.12 267.066,251.12 
		264.056,251.021 260.847,250.922 257.786,251.021 254.676,251.12 251.565,251.416 248.505,251.909 247.024,252.304 
		245.494,252.601 244.063,253.094 242.581,253.539 	"/>
	<polygon fill-rule="evenodd" clip-rule="evenodd" fill="#FCD22A" points="233.301,301.126 233.498,301.225 233.695,301.62 
		233.695,301.669 233.695,301.965 233.695,302.163 233.498,302.36 233.301,302.657 233.104,303.052 232.807,303.249 
		232.609,303.545 232.462,303.841 232.264,304.088 231.968,304.286 231.771,304.582 231.475,304.878 231.178,304.977 
		230.882,305.372 230.685,305.668 230.487,305.865 230.289,306.063 230.043,306.31 229.845,306.705 229.647,306.902 229.45,307.1 
		229.253,307.396 228.956,307.593 228.759,307.988 228.562,308.284 228.364,308.531 228.068,308.827 227.821,309.025 
		227.525,309.321 227.426,309.519 227.229,309.716 227.031,309.913 226.834,310.209 226.637,310.407 226.439,310.407 
		226.439,310.604 226.044,310.703 225.748,311.049 225.501,311.049 225.106,311.049 224.81,311.049 224.514,311.049 
		224.316,310.851 224.02,310.802 223.724,310.604 223.378,310.407 223.082,310.012 222.786,309.716 222.391,309.419 
		222.095,309.025 221.798,308.926 221.404,308.63 221.107,308.481 220.861,308.284 220.466,307.889 220.169,307.593 
		219.874,307.297 219.479,307.1 219.182,306.803 218.886,306.507 218.639,306.162 218.442,305.865 218.146,305.569 217.849,305.174 
		217.455,305.076 217.158,304.779 216.763,304.582 216.517,304.286 216.22,303.989 215.825,303.743 215.727,303.348 
		215.431,303.052 215.134,302.755 215.036,302.36 214.542,302.163 214.344,301.965 214.098,301.669 213.703,301.324 
		213.604,301.027 213.505,300.731 213.209,300.336 212.814,300.04 212.617,299.843 212.419,299.547 212.123,299.3 211.925,299.003 
		211.679,298.609 211.382,298.313 211.284,298.016 211.086,297.622 210.889,297.325 210.691,297.029 210.593,296.684 
		210.296,296.387 210,296.091 209.803,295.696 209.605,295.4 209.457,295.104 209.358,294.709 209.161,294.462 208.963,294.166 
		208.766,293.771 208.667,293.475 208.569,293.179 208.371,292.784 208.075,292.487 207.877,292.339 207.68,292.142 
		207.582,291.648 207.482,291.253 207.384,290.858 207.236,290.562 207.038,290.266 206.841,289.92 206.841,289.624 
		206.644,289.328 206.545,288.933 206.347,288.637 206.347,288.341 206.15,287.946 206.051,287.699 205.952,287.403 
		205.854,287.008 205.755,286.712 205.656,286.416 205.558,286.021 205.36,285.527 205.261,285.182 205.163,284.885 
		205.063,284.589 204.965,284.194 204.916,283.898 204.916,283.602 204.916,283.207 204.817,282.96 204.718,282.664 204.62,282.269 
		204.422,281.775 204.422,281.38 204.422,281.084 204.323,280.837 204.225,280.442 204.225,280.146 204.225,279.85 204.225,279.356 
		204.027,278.961 204.027,278.566 204.027,278.32 204.027,278.023 204.027,277.628 203.83,277.333 203.83,277.036 203.928,276.444 
		204.027,276.197 203.928,275.802 203.83,275.506 203.928,275.209 204.027,274.815 204.027,274.42 204.027,273.976 204.027,273.679 
		204.027,273.383 203.928,272.988 203.83,272.692 203.928,272.297 204.027,271.804 204.027,271.557 204.027,271.261 
		204.126,270.866 204.225,270.569 204.225,270.076 204.225,269.681 204.225,269.385 204.225,269.039 204.323,268.743 
		204.422,268.447 204.422,267.854 204.422,267.558 204.422,267.163 204.422,266.917 204.62,266.62 204.718,266.225 204.916,265.731 
		204.916,265.337 204.916,265.041 204.916,264.744 204.916,264.399 204.916,264.103 205.063,263.806 205.063,263.708 
		205.261,263.313 205.261,263.017 205.458,262.72 205.558,262.523 205.755,262.276 205.755,261.98 205.755,261.585 205.755,261.289 
		205.854,261.19 205.755,260.894 206.051,260.499 206.15,260.203 206.15,260.055 206.15,259.857 206.347,259.462 206.347,259.166 
		206.446,258.771 206.644,258.475 206.742,258.376 206.841,258.08 206.939,257.784 207.038,257.636 207.137,257.339 
		207.236,257.043 207.285,256.648 207.482,256.352 207.482,256.155 207.482,255.858 207.779,255.563 207.877,255.315 
		207.877,255.118 208.075,254.822 208.174,254.526 208.371,254.229 208.371,253.834 208.371,253.539 208.47,253.539 208.667,253.44 
		208.766,253.242 208.766,253.094 208.766,252.798 208.963,252.502 209.063,252.304 209.161,252.008 209.358,251.712 
		209.457,251.416 209.605,251.021 209.605,250.774 209.704,250.675 210,250.379 210.099,249.984 210.296,249.885 210.395,249.589 
		210.494,249.194 210.691,248.898 210.691,248.602 210.889,248.355 210.889,248.158 211.185,247.861 211.382,247.565 
		211.58,247.368 211.777,247.072 211.777,246.775 211.925,246.38 212.222,246.232 212.419,246.035 212.518,245.739 212.617,245.344 
		212.814,245.146 213.11,244.949 213.209,244.653 213.308,244.258 213.505,244.159 213.703,244.061 213.703,243.813 
		213.703,243.616 213.801,243.418 213.9,243.221 214.147,243.123 214.344,243.024 214.344,242.728 214.344,242.53 214.542,242.333 
		214.739,242.135 214.838,242.037 215.036,241.938 215.036,241.74 215.036,241.691 215.036,241.592 215.233,241.493 
		215.332,241.197 215.431,241.099 215.529,240.901 215.628,240.901 216.023,240.506 216.319,240.407 216.566,240.21 
		216.961,240.013 217.257,240.013 217.553,240.013 217.948,240.013 218.244,240.21 218.442,240.407 218.639,240.605 218.787,241 
		218.886,241.296 218.639,241.592 218.442,241.938 218.442,242.234 218.442,242.53 218.244,242.925 218.047,243.221 
		218.047,243.715 218.047,244.061 217.652,244.356 217.355,244.751 217.355,245.245 217.355,245.837 217.257,246.134 
		216.961,246.677 216.763,246.973 216.665,247.269 216.665,247.565 216.665,247.861 216.566,248.059 216.517,248.158 
		216.418,248.701 216.319,248.997 216.22,249.491 216.122,249.885 215.924,250.379 215.825,250.774 215.825,251.12 215.628,251.613 
		215.529,251.909 215.431,252.304 215.332,252.798 215.233,253.094 215.233,253.341 215.233,253.637 215.134,253.834 
		215.036,253.934 215.036,254.427 215.036,254.822 214.838,255.217 214.739,255.661 214.542,256.056 214.542,256.352 
		214.443,256.846 214.344,257.241 214.443,257.636 214.344,258.08 214.344,258.475 214.344,258.969 214.246,259.265 
		214.147,259.561 214.147,260.153 214.147,260.4 214.098,260.795 213.9,261.289 213.9,261.585 213.703,261.98 213.801,262.424 
		213.9,262.819 213.801,263.115 213.703,263.708 213.703,264.004 213.703,264.3 213.703,264.744 213.703,265.139 213.703,265.534 
		213.703,265.831 213.801,266.225 213.9,266.719 213.801,267.015 213.703,267.262 213.703,267.854 213.703,268.15 213.801,268.545 
		213.9,268.842 213.9,269.335 213.9,269.681 213.9,269.977 213.9,270.372 213.999,270.668 214.147,271.261 214.098,271.557 
		214.147,271.804 214.147,272.198 214.147,272.495 214.246,272.89 214.344,273.383 214.344,273.679 214.344,273.976 
		214.443,274.321 214.542,274.617 214.542,275.012 214.739,275.309 214.739,275.802 214.739,276.197 214.838,276.444 
		215.036,276.74 215.134,277.135 215.233,277.431 215.332,277.728 215.431,278.122 215.431,278.418 215.628,278.665 215.727,279.06 
		215.825,279.356 215.924,279.652 216.122,280.047 216.122,280.344 216.122,280.739 216.319,281.084 216.319,281.479 
		216.517,281.775 216.665,281.973 216.862,282.269 216.961,282.664 217.158,282.96 217.355,283.207 217.355,283.602 
		217.355,283.898 217.553,284.194 217.849,284.589 217.948,284.885 218.244,285.182 218.343,285.379 218.442,285.625 
		218.639,285.922 218.639,286.218 218.886,286.613 219.083,286.909 219.281,287.206 219.479,287.403 219.479,287.798 
		219.479,288.144 219.874,288.341 220.169,288.637 220.268,288.834 220.367,289.328 220.564,289.427 220.861,289.723 
		220.959,289.92 221.206,290.167 221.404,290.463 221.7,290.76 221.798,290.957 222.095,291.253 222.193,291.549 222.292,291.846 
		222.49,292.142 222.786,292.339 223.082,292.586 223.181,292.685 223.378,292.882 223.625,293.179 223.724,293.376 
		223.823,293.573 224.02,293.672 224.217,293.771 224.415,294.067 224.711,294.265 224.81,294.363 224.909,294.66 225.106,294.906 
		225.304,295.104 225.6,295.104 225.748,295.301 225.847,295.301 225.945,295.4 225.945,295.598 225.945,295.696 226.241,295.894 
		226.439,295.992 226.637,296.289 226.834,296.387 227.031,296.585 227.229,296.881 227.327,296.979 227.525,297.227 
		227.821,297.227 227.92,297.227 228.266,297.522 228.562,297.622 228.562,297.917 228.759,298.115 228.956,298.214 
		229.253,298.313 229.352,298.51 229.45,298.806 229.746,298.806 230.043,299.003 230.24,299.003 230.487,299.201 230.487,299.3 
		230.685,299.349 230.98,299.547 231.178,299.843 231.375,299.941 231.573,300.04 231.672,300.04 231.968,300.238 232.165,300.336 
		232.264,300.435 232.561,300.633 232.609,300.731 232.807,300.83 233.104,300.929 233.202,301.027 233.301,301.126 	"/>
	<polygon fill-rule="evenodd" clip-rule="evenodd" fill="#CC151C" points="282.123,331.634 281.629,331.732 281.234,331.634 
		281.136,331.584 281.037,331.288 281.037,330.894 281.037,330.597 281.037,330.301 281.234,329.906 281.53,329.511 
		281.729,329.313 281.926,329.264 282.123,329.166 282.222,329.166 282.419,328.87 282.616,328.672 283.012,328.475 283.11,328.178 
		283.209,327.783 283.653,327.586 283.851,327.389 284.147,327.191 284.542,326.944 284.641,326.648 284.937,326.352 
		285.035,325.957 285.134,325.661 285.578,325.463 285.776,325.167 286.072,324.871 286.467,324.624 286.665,324.427 
		286.862,324.13 287.158,323.933 287.355,323.538 287.553,323.439 287.751,323.242 287.898,322.946 288.195,322.649 
		288.393,322.551 288.59,322.452 288.787,322.106 289.083,322.008 289.281,321.711 289.479,321.613 289.676,321.316 
		289.873,321.119 290.17,321.021 290.515,321.119 290.713,321.119 291.009,321.119 291.305,321.218 291.602,321.316 
		291.996,321.316 292.292,321.316 292.539,321.316 292.934,321.316 293.23,321.316 293.526,321.316 294.119,321.514 
		294.415,321.613 294.761,321.613 295.057,321.613 295.353,321.613 295.748,321.613 296.044,321.711 296.34,321.81 296.933,321.711 
		297.18,321.613 297.574,321.613 297.87,321.613 298.167,321.613 298.562,321.613 298.957,321.711 299.352,321.81 299.697,321.81 
		299.993,321.81 300.289,321.909 300.685,322.008 300.98,321.909 301.375,321.81 301.819,321.81 302.116,321.81 302.511,321.81 
		302.807,321.81 303.104,321.711 303.498,321.613 303.894,321.711 304.337,321.81 304.634,321.81 304.93,321.81 305.325,321.81 
		305.621,321.81 306.016,321.81 306.46,321.81 306.756,321.81 307.151,321.81 307.447,321.81 307.743,321.81 308.336,321.711 
		308.583,321.613 308.978,321.711 309.274,321.81 309.57,321.81 309.965,321.81 310.261,321.81 310.558,321.613 310.903,321.711 
		311.396,321.81 311.792,321.613 312.088,321.316 312.384,321.514 312.779,321.613 313.075,321.613 313.322,321.613 
		313.815,321.514 314.21,321.316 314.507,321.316 314.901,321.316 315.198,321.316 315.494,321.316 316.037,321.119 
		316.333,321.119 316.729,321.119 317.024,321.119 317.419,321.021 317.863,320.922 318.159,321.021 318.555,321.119 
		318.851,321.021 319.147,320.922 319.542,320.922 319.838,320.724 320.085,320.724 320.479,320.724 320.776,320.724 
		321.072,320.724 321.565,320.625 321.961,320.724 322.355,320.625 322.603,320.428 322.898,320.428 323.294,320.428 
		323.59,320.329 323.886,320.23 324.281,320.23 324.577,320.23 324.824,320.23 325.219,320.23 325.614,320.23 326.107,320.23 
		326.403,320.083 326.7,319.885 327.046,319.885 327.342,319.885 327.638,319.786 328.033,319.688 328.329,319.49 328.625,319.392 
		329.021,319.392 329.316,319.392 329.761,319.392 330.155,319.392 330.452,319.292 330.847,319.194 331.143,319.194 
		331.438,319.194 331.883,318.997 332.278,318.997 332.673,318.897 332.97,318.799 333.266,318.7 333.66,318.503 333.907,318.503 
		334.203,318.503 334.5,318.503 334.697,318.404 334.895,318.305 335.092,318.108 335.388,318.207 335.783,318.305 336.079,318.108 
		336.326,318.108 336.919,318.009 337.215,317.91 337.609,317.91 337.906,317.91 338.202,317.762 338.548,317.466 338.942,317.466 
		339.437,317.269 339.732,317.269 340.028,317.269 340.424,317.269 340.72,317.071 340.868,316.973 341.065,316.874 341.46,316.874 
		341.756,316.874 342.053,316.578 342.447,316.38 342.743,316.38 343.139,316.38 343.386,316.281 343.682,316.183 344.076,315.985 
		344.373,315.985 344.669,315.985 345.063,315.985 345.261,315.689 345.409,315.492 345.705,315.492 346.101,315.492 
		346.396,315.343 346.692,315.146 347.088,315.047 347.384,314.949 347.68,314.949 348.025,314.949 348.322,314.751 
		348.618,314.652 349.013,314.652 349.31,314.455 349.605,314.356 350,314.257 350.247,314.159 350.543,314.06 350.938,313.961 
		351.234,313.764 351.53,313.665 351.926,313.566 352.024,313.468 352.32,313.369 352.666,313.171 352.962,313.171 353.259,313.023 
		353.653,312.727 353.949,312.727 354.246,312.727 354.591,312.53 354.888,312.332 355.184,312.233 355.579,312.135 
		355.875,312.036 356.171,311.838 356.565,311.838 356.862,311.838 357.109,311.542 357.504,311.443 357.603,311.345 
		357.898,311.246 358.195,310.95 358.59,310.802 358.886,310.802 359.231,310.604 359.528,310.506 359.824,310.209 360.219,310.209 
		360.515,310.209 360.812,310.012 361.206,309.913 361.503,309.716 361.749,309.519 362.145,309.519 362.44,309.321 
		362.638,309.222 362.835,309.025 363.23,308.729 363.526,308.63 363.822,308.481 364.168,308.481 364.464,308.284 364.761,308.284 
		365.155,307.988 365.452,307.791 365.748,307.692 366.094,307.593 366.39,307.396 366.686,307.396 366.982,307.001 367.18,306.705 
		367.476,306.705 367.87,306.507 367.97,306.408 368.266,306.31 368.513,306.162 368.611,306.063 369.006,305.964 369.302,305.865 
		369.5,305.767 369.796,305.47 370.092,305.47 370.388,305.47 370.586,305.174 370.832,304.977 371.03,304.878 371.228,304.582 
		371.622,304.483 371.919,304.286 372.018,304.187 372.313,304.088 372.609,303.989 372.807,303.743 373.054,303.743 
		373.351,303.545 373.548,303.348 373.844,303.249 373.942,303.052 374.238,302.854 374.634,302.854 374.93,302.657 
		375.028,302.558 375.374,302.36 375.571,302.163 375.769,301.965 375.868,301.768 375.967,301.768 376.46,301.669 376.855,301.768 
		377.151,301.768 377.546,301.768 377.793,301.768 378.089,301.965 378.287,302.064 378.484,302.163 378.583,302.459 
		378.583,302.657 378.583,302.854 378.583,303.249 378.484,303.644 378.386,303.94 378.287,303.989 378.089,304.088 
		377.892,304.483 377.694,304.779 377.447,304.977 377.349,305.174 376.954,305.569 376.855,305.865 376.559,306.063 
		376.164,306.31 375.967,306.606 375.769,306.705 375.473,306.902 375.127,307.1 374.93,307.494 374.732,307.791 374.437,307.988 
		374.041,307.988 373.844,308.383 373.646,308.63 373.251,308.827 373.005,309.025 372.906,309.222 372.609,309.519 
		372.215,309.716 371.919,309.913 371.919,310.111 371.819,310.209 371.622,310.308 371.425,310.407 371.228,310.703 
		371.03,310.802 370.733,311.049 370.388,311.246 370.092,311.542 369.796,311.641 369.697,311.838 369.599,311.938 369.5,312.036 
		369.302,312.135 369.006,312.431 368.611,312.53 368.413,312.727 368.068,313.023 367.87,313.171 367.574,313.369 367.278,313.468 
		366.982,313.764 366.784,313.862 366.686,313.961 366.587,314.06 366.488,314.257 366.192,314.356 365.945,314.652 
		365.551,314.751 365.254,314.949 364.958,315.146 364.563,315.343 364.267,315.442 363.971,315.492 363.625,315.788 
		363.526,315.985 363.23,316.281 362.835,316.38 362.539,316.578 362.243,316.874 361.848,316.973 361.552,317.071 361.305,317.269 
		360.91,317.466 360.812,317.664 360.515,317.91 360.219,318.009 359.824,318.305 359.528,318.404 359.231,318.503 358.886,318.7 
		358.59,318.997 358.294,318.997 357.898,319.194 357.603,319.392 357.208,319.688 356.961,319.688 356.665,319.885 356.27,319.984 
		355.974,320.083 355.678,320.329 355.282,320.428 354.986,320.724 354.69,320.922 354.542,321.021 354.246,321.119 
		353.949,321.316 353.653,321.613 353.259,321.613 352.962,321.81 352.666,321.909 352.32,322.205 352.024,322.304 351.729,322.452 
		351.333,322.551 351.037,322.649 350.741,322.748 350.346,322.847 350.148,322.946 350,323.242 349.507,323.341 349.111,323.538 
		348.815,323.637 348.421,323.735 348.124,323.735 347.729,323.933 347.482,324.032 347.187,324.13 346.792,324.328 
		346.495,324.624 346.199,324.624 345.805,324.772 345.508,324.871 345.261,324.97 344.866,325.167 344.57,325.167 344.274,325.365 
		343.879,325.463 343.682,325.463 343.484,325.562 343.386,325.759 343.286,325.858 342.843,325.858 342.447,325.858 
		342.053,326.056 341.756,326.352 341.46,326.451 341.065,326.549 340.769,326.648 340.522,326.747 340.127,326.747 
		339.831,326.747 339.535,326.994 339.14,327.191 338.844,327.191 338.548,327.191 338.202,327.29 337.906,327.389 337.609,327.487 
		337.215,327.586 336.919,327.685 336.622,327.783 336.228,327.882 335.98,327.981 335.685,328.178 335.289,328.277 
		334.993,328.277 334.697,328.277 334.302,328.475 334.006,328.475 333.759,328.771 333.364,328.87 333.068,328.87 332.771,328.87 
		332.377,328.968 332.081,329.166 331.784,329.166 331.438,329.166 331.143,329.313 330.847,329.511 330.452,329.413 
		330.155,329.313 329.859,329.413 329.464,329.511 329.218,329.708 328.921,329.906 328.526,330.005 328.23,330.202 
		327.736,330.104 327.342,329.906 327.046,330.202 326.7,330.4 326.403,330.4 326.107,330.4 325.713,330.4 325.416,330.4 
		325.12,330.499 324.726,330.597 324.38,330.795 323.886,330.795 323.59,330.992 323.294,331.091 322.898,331.091 322.603,331.091 
		322.355,331.091 321.961,331.288 321.565,331.189 321.072,331.091 320.776,331.189 320.479,331.288 320.085,331.387 
		319.838,331.486 319.443,331.387 318.949,331.486 318.653,331.486 318.259,331.486 317.962,331.634 317.716,331.634 
		317.32,331.732 317.024,331.93 316.53,331.93 316.136,331.93 315.84,331.93 315.494,331.93 315.198,332.029 314.901,332.127 
		314.507,332.127 314.21,332.127 313.914,332.127 313.52,332.127 313.421,332.226 313.174,332.325 312.878,332.226 312.482,332.325 
		312.187,332.325 311.891,332.325 311.495,332.325 311.199,332.325 310.903,332.424 310.558,332.522 310.261,332.424 
		309.965,332.325 309.57,332.325 309.274,332.325 308.978,332.424 308.583,332.522 308.336,332.522 308.04,332.522 307.645,332.522 
		307.349,332.522 307.053,332.522 306.657,332.522 306.361,332.621 306.016,332.72 305.72,332.819 305.424,333.016 305.028,332.917 
		304.732,332.72 304.437,332.621 304.041,332.522 303.794,332.621 303.498,332.72 303.104,332.72 302.807,332.72 302.511,332.621 
		302.116,332.522 301.819,332.621 301.573,332.72 301.178,332.72 300.882,332.72 300.586,332.72 300.19,332.72 299.796,332.72 
		299.352,332.72 299.056,332.72 298.759,332.72 298.364,332.72 298.068,332.72 297.771,332.72 297.377,332.72 297.081,332.72 
		296.834,332.72 296.438,332.72 296.143,332.72 295.847,332.72 295.451,332.72 295.155,332.72 294.859,332.72 294.514,332.72 
		294.218,332.72 293.822,332.72 293.329,332.72 293.032,332.72 292.638,332.72 292.44,332.72 292.292,332.72 291.996,332.621 
		291.602,332.522 291.305,332.522 291.009,332.522 290.713,332.522 290.515,332.522 290.219,332.522 289.873,332.522 
		289.577,332.522 289.281,332.522 289.083,332.522 288.787,332.522 288.491,332.325 288.195,332.325 287.898,332.325 
		287.751,332.325 287.454,332.325 287.158,332.325 286.764,332.325 286.467,332.325 286.171,332.325 285.776,332.325 
		285.678,332.226 285.431,332.127 285.035,332.127 284.739,332.127 284.443,332.127 284.048,332.127 283.851,332.029 
		283.653,331.93 283.357,332.029 283.012,332.127 282.716,332.029 282.419,331.93 282.222,331.732 282.123,331.634 	"/>
	<polygon fill-rule="evenodd" clip-rule="evenodd" fill="#FFFFFF" points="322.603,221.451 326.7,217.206 341.361,204.667 
		343.484,203.186 345.606,201.952 347.187,200.965 347.729,200.57 348.618,200.175 354.048,197.608 356.862,196.226 
		359.528,194.893 362.046,193.609 364.168,192.671 368.413,190.746 372.412,188.771 376.263,186.846 380.113,184.921 
		384.013,182.798 387.765,180.577 391.517,178.158 393.393,176.924 395.12,175.641 396.848,174.308 398.576,172.827 
		400.057,171.395 401.39,169.963 402.673,168.482 403.71,166.952 405.833,163.842 407.659,160.782 408.449,159.498 408.449,159.399 
		408.449,159.301 409.14,158.165 409.535,157.277 409.881,156.388 410.177,155.45 410.374,154.562 412.398,147.404 412.497,146.762 
		412.497,146.169 412.398,145.874 412.3,145.676 412.151,145.479 411.954,145.281 411.657,145.182 411.361,145.182 411.065,145.281 
		410.769,145.38 410.177,145.774 409.831,146.169 408.942,146.762 407.018,148.193 405.092,149.526 404.203,150.218 402.87,151.205 
		400.896,152.439 398.576,153.821 396.009,155.154 394.627,155.944 391.714,157.672 388.752,159.301 387.37,160.09 385.84,160.88 
		382.236,162.509 378.682,164.139 377.053,164.83 373.942,166.261 370.932,167.644 367.87,169.075 364.563,170.704 358.984,173.222 
		355.776,174.703 351.926,176.628 349.901,177.763 347.828,179.047 345.705,180.281 343.583,181.663 341.559,183.193 
		339.535,184.625 337.609,186.303 335.783,187.933 334.006,189.562 332.574,191.289 331.883,192.178 331.241,193.066 
		330.649,193.905 330.155,194.794 329.119,196.719 326.799,200.866 324.183,205.506 322.257,209.208 320.875,211.727 
		319.641,214.096 318.357,216.416 317.32,218.588 316.432,220.612 315.543,222.34 314.901,223.771 314.408,224.956 314.408,225.252 
		314.408,225.795 314.803,225.993 315.297,226.19 315.938,226.388 316.629,226.684 317.024,226.585 317.518,226.388 
		318.259,225.598 320.035,223.969 321.862,222.241 322.603,221.451 	"/>
</g>
</svg>
