<?xml version="1.0" encoding="UTF-8" standalone="no"?>
<svg
   xmlns:dc="http://purl.org/dc/elements/1.1/"
   xmlns:cc="http://creativecommons.org/ns#"
   xmlns:rdf="http://www.w3.org/1999/02/22-rdf-syntax-ns#"
   xmlns:svg="http://www.w3.org/2000/svg"
   xmlns="http://www.w3.org/2000/svg"
   xmlns:sodipodi="http://sodipodi.sourceforge.net/DTD/sodipodi-0.dtd"
   xmlns:inkscape="http://www.inkscape.org/namespaces/inkscape"
   version="1.1"
   id="Layer_1"
   x="0px"
   y="0px"
   width="476"
   height="356"
   viewBox="0 0 476 356"
   enable-background="new 0 0 1167.87 819.213"
   xml:space="preserve">
<path
   style="fill:#7359a6"
   d="m 323.46044,194.30477 c 0,89.33137 -72.40587,161.69524 -161.72324,161.69524 C 72.41983,356.00001 -3.868e-5,283.63614 -3.868e-5,194.30477 -3.868e-5,104.9734 72.41983,32.581528 161.7372,32.581528 c 89.31737,0 161.72324,72.391872 161.72324,161.723242"
   id="path15" /><path
   style="fill:#683f99"
   d="m 475.99995,144.27024 c 0,79.65766 -66.77803,144.26575 -149.19361,144.26575 -82.40157,0 -149.20761,-64.60809 -149.20761,-144.26575 0,-79.685654 66.80604,-144.26575376 149.20761,-144.26575376 82.41558,0 149.19361,64.58009976 149.19361,144.26575376"
   id="path17" /><path
   style="fill:#5c2d91"
   d="m 237.92296,75.924252 v 41.606778 c -3.12191,-0.90998 -7.12579,-1.45596 -12.75363,-1.45596 -22.37134,0 -40.43081,19.45943 -40.43081,45.93265 0,29.35713 18.39546,43.21673 40.26282,43.21673 11.08767,0 20.2154,-3.07991 25.04526,-6.11782 V 75.924252 h -12.12364 m 0,116.000588 c -2.47793,1.24596 -6.7758,2.14194 -10.76568,2.14194 -20.3694,0 -30.15512,-13.6916 -30.15512,-32.96903 0,-20.34141 13.41161,-33.50102 28.83915,-33.50102 1.21797,0 2.79992,0.112 3.84989,0.182 4.47987,0.19599 8.23176,1.87594 8.23176,1.87594 v 62.27017 z"
   id="path19" /><path
   style="fill:none;stroke:#5c2d91;stroke-width:0.27999175"
   d="m 237.92296,75.924252 v 41.606778 c -3.12191,-0.90998 -7.12579,-1.45596 -12.75363,-1.45596 -22.37134,0 -40.43081,19.45943 -40.43081,45.93265 0,29.35713 18.39546,43.21673 40.26282,43.21673 11.08767,0 20.2154,-3.07991 25.04526,-6.11782 V 75.924252 h -12.12364 z m 0,116.000588 c -2.47793,1.24596 -6.7758,2.14194 -10.76568,2.14194 -20.3694,0 -30.15512,-13.6916 -30.15512,-32.96903 0,-20.34141 13.41161,-33.50102 28.83915,-33.50102 1.21797,0 2.79992,0.112 3.84989,0.182 4.47987,0.19599 8.23176,1.87594 8.23176,1.87594 v 62.27017 z"
   id="path21" /><path
   style="fill:#5c2d91"
   d="m 121.34839,189.55891 c 0,8.45575 3.70989,14.92356 12.20764,15.62354 V 57.458795 c 0,0 -9.29573,1.805947 -12.20764,3.191906 V 189.55891"
   id="path23" /><path
   style="fill:none;stroke:#5c2d91;stroke-width:0.27999175"
   d="m 121.34839,189.55891 c 0,8.45575 3.70989,14.92356 12.20764,15.62354 V 57.458795 c 0,0 -9.29573,1.805947 -12.20764,3.191906 V 189.55891 z"
   id="path25" /><path
   style="fill:#5c2d91"
   d="m 157.66332,189.15292 c 0,8.67974 3.68189,15.32955 12.19364,16.04353 V 53.622908 c 0,0 -9.30972,-0.433987 -12.19364,0.447987 V 189.15292"
   id="path27" /><path
   style="fill:none;stroke:#5c2d91;stroke-width:0.27999175"
   d="m 157.66332,189.15292 c 0,8.67974 3.68189,15.32955 12.19364,16.04353 V 53.622908 c 0,0 -9.30972,-0.433987 -12.19364,0.447987 V 189.15292 z"
   id="path29" /><path
   style="fill:#5c2d91"
   d="m 386.0106,118.23101 c -2.35193,24.12129 -10.62569,46.04464 -20.97138,64.16011 l -23.35131,-57.44031 c -1.34396,-3.80789 -4.22788,-6.7198 -11.45167,-6.7198 h -4.43787 l 30.7711,77.40372 c -11.22767,15.88953 -24.58328,28.75515 -33.57101,35.54495 l 8.41375,7.95177 c 11.92765,-8.59575 30.5611,-27.98518 44.1967,-51.44849 11.32566,-19.54342 19.97741,-42.46075 23.16932,-69.45195 H 386.0106"
   id="path31" /><path
   style="fill:none;stroke:#5c2d91;stroke-width:0.27999175"
   d="m 386.0106,118.23101 c -2.35193,24.12129 -10.62569,46.04464 -20.97138,64.16011 l -23.35131,-57.44031 c -1.34396,-3.80789 -4.22788,-6.7198 -11.45167,-6.7198 h -4.43787 l 30.7711,77.40372 c -11.22767,15.88953 -24.58328,28.75515 -33.57101,35.54495 l 8.41375,7.95177 c 11.92765,-8.59575 30.5611,-27.98518 44.1967,-51.44849 11.32566,-19.54342 19.97741,-42.46075 23.16932,-69.45195 H 386.0106 z"
   id="path33" /><path
   style="fill:#5c2d91"
   d="m 294.3273,116.07507 c -9.93971,0 -18.22746,2.35193 -27.67719,9.72971 l 4.98386,9.54772 c 4.12988,-3.4299 10.41569,-7.90976 20.53739,-7.90976 9.93971,0 16.89751,4.84385 16.89751,19.43142 0,0.71398 0,2.70192 0,3.96189 l -15.90354,0.53198 c -20.70539,0.72798 -31.48507,11.00368 -31.48507,27.73319 0,16.23952 17.65348,26.12323 30.4211,26.12323 0,0 15.44155,0.85397 29.06315,-6.11782 v -54.22041 c 0,-21.79736 -11.91365,-28.81115 -26.83721,-28.81115 m 14.74157,75.84977 c -7.33579,2.85591 -15.02156,1.95994 -16.96751,1.65195 -11.19967,-1.63795 -18.32546,-6.7898 -18.32546,-15.34355 0,-9.37972 5.64184,-14.60157 19.72542,-15.14755 l 5.24985,-0.266 c 4.96985,-0.07 10.3177,-0.62998 10.3177,-0.62998 v 29.73513 z"
   id="path35" /><path
   style="fill:none;stroke:#5c2d91;stroke-width:0.27999175"
   d="m 294.3273,116.07507 c -9.93971,0 -18.22746,2.35193 -27.67719,9.72971 l 4.98386,9.54772 c 4.12988,-3.4299 10.41569,-7.90976 20.53739,-7.90976 9.93971,0 16.89751,4.84385 16.89751,19.43142 0,0.71398 0,2.70192 0,3.96189 l -15.90354,0.53198 c -20.70539,0.72798 -31.48507,11.00368 -31.48507,27.73319 0,16.23952 17.65348,26.12323 30.4211,26.12323 0,0 15.44155,0.85397 29.06315,-6.11782 v -54.22041 c 0,-21.79736 -11.91365,-28.81115 -26.83721,-28.81115 z m 14.74157,75.84977 c -7.33579,2.85591 -15.02156,1.95994 -16.96751,1.65195 -11.19967,-1.63795 -18.32546,-6.7898 -18.32546,-15.34355 0,-9.37972 5.64184,-14.60157 19.72542,-15.14755 l 5.24985,-0.266 c 4.96985,-0.07 10.3177,-0.62998 10.3177,-0.62998 v 29.73513 z"
   id="path37" /><path
   style="fill:#5c2d91"
   d="m 446.75481,120.56894 c -5.13785,-2.51993 -10.55569,-4.57787 -18.82944,-4.49387 -16.15553,0.18199 -25.12926,11.52166 -25.64725,22.51134 -1.41396,29.86112 35.57296,21.97935 35.57296,42.85274 0,7.93776 -8.16176,13.17361 -17.77948,13.17361 -8.62375,0 -15.41355,-3.61189 -19.05344,-6.13182 l -4.64786,10.2617 c 5.13785,3.2479 11.94164,6.48181 23.19731,6.48181 16.08553,0 30.8271,-8.25976 30.8271,-26.09524 0,-27.90117 -35.97894,-22.42734 -35.97894,-41.50877 0,-7.74178 5.92182,-10.75169 13.87359,-10.75169 3.12191,0 5.12385,0.57399 7.65777,1.18997 8.56775,2.60392 10.80768,-5.29185 10.80768,-7.48978"
   id="path39" /><path
   style="fill:none;stroke:#5c2d91;stroke-width:0.27999175"
   d="m 446.75481,120.56894 c -5.13785,-2.51993 -10.55569,-4.57787 -18.82944,-4.49387 -16.15553,0.18199 -25.12926,11.52166 -25.64725,22.51134 -1.41396,29.86112 35.57296,21.97935 35.57296,42.85274 0,7.93776 -8.16176,13.17361 -17.77948,13.17361 -8.62375,0 -15.41355,-3.61189 -19.05344,-6.13182 l -4.64786,10.2617 c 5.13785,3.2479 11.94164,6.48181 23.19731,6.48181 16.08553,0 30.8271,-8.25976 30.8271,-26.09524 0,-27.90117 -35.97894,-22.42734 -35.97894,-41.50877 0,-7.74178 5.92182,-10.75169 13.87359,-10.75169 3.12191,0 5.12385,0.57399 7.65777,1.18997 8.56775,2.60392 10.80768,-5.29185 10.80768,-7.48978 z"
   id="path41" /><path
   style="fill:#5c2d91"
   d="M 70.585884,89.027866 C 44.54665,111.35721 19.627384,150.13607 20.033372,205.22445 h 13.733596 c 0.447986,-13.88759 3.877885,-33.66901 6.943795,-42.44675 h 46.254639 v 29.98711 c 0,8.45575 6.761801,12.45964 13.775598,12.38964 L 100.573,69.176451 c 0,0 -18.031468,9.029734 -29.987116,19.851415 m 16.533513,61.808184 -42.922736,0.028 c 9.911708,-30.19711 27.481191,-50.17453 43.076732,-58.672277 l -0.153996,58.644277 z"
   id="path43" /><path
   style="fill:none;stroke:#5c2d91;stroke-width:0.27999175"
   d="M 70.585884,89.027866 C 44.54665,111.35721 19.627384,150.13607 20.033372,205.22445 h 13.733596 c 0.447986,-13.88759 3.877885,-33.66901 6.943795,-42.44675 h 46.254639 v 29.98711 c 0,8.45575 6.761801,12.45964 13.775598,12.38964 L 100.573,69.176451 c 0,0 -18.031468,9.029734 -29.987116,19.851415 z m 16.533513,61.808184 -42.922736,0.028 c 9.911708,-30.19711 27.481191,-50.17453 43.076732,-58.672277 l -0.153996,58.644277 z"
   id="path45" /><path
   style="fill:#ffffff"
   d="m 234.40906,71.192391 v 41.606779 c -3.1499,-0.90998 -7.13979,-1.41396 -12.76762,-1.41396 -22.38534,0 -40.43081,19.44543 -40.43081,45.90465 0,29.35713 18.38146,43.20273 40.26281,43.20273 11.10168,0 20.21541,-3.03791 25.01727,-6.10382 V 71.192391 h -12.08165 m 0,116.000589 c -2.50592,1.25996 -6.8038,2.16993 -10.77968,2.16993 -20.3974,0 -30.16911,-13.70559 -30.16911,-32.96903 0,-20.3554 13.4256,-33.50101 28.85315,-33.50101 1.20396,0 2.78592,0.112 3.83589,0.16799 4.49386,0.196 8.25975,1.87595 8.25975,1.87595 v 62.25617 z"
   id="path47" /><path
   style="fill:#ffffff"
   d="m 117.80649,184.84105 c 0,8.44175 3.7099,14.93756 12.20765,15.60954 V 52.754934 c 0,0 -9.29573,1.777948 -12.20765,3.177906 v 128.90821"
   id="path49" /><path
   style="fill:#ffffff"
   d="m 154.10743,184.43506 c 0,8.67974 3.70989,15.32955 12.22164,16.01553 V 48.905047 c 0,0 -9.30973,-0.447987 -12.22164,0.461987 V 184.43506"
   id="path51" /><path
   style="fill:#ffffff"
   d="m 382.46871,113.52715 c -2.35194,24.10729 -10.61169,46.03064 -20.95739,64.16011 l -23.35131,-57.46831 c -1.34396,-3.77989 -4.24188,-6.6918 -11.46566,-6.6918 h -4.43787 l 30.78509,77.38972 c -11.22767,15.87553 -24.56928,28.75515 -33.57101,35.54495 l 8.38575,7.95177 c 11.95565,-8.59575 30.5751,-27.97118 44.2247,-51.44849 11.33967,-19.52942 19.99141,-42.46075 23.18332,-69.43795 h -12.79562"
   id="path53" /><path
   style="fill:#ffffff"
   d="m 290.7994,111.38521 c -9.9537,0 -18.24146,2.32393 -27.67718,9.70171 l 4.96985,9.54772 c 4.12988,-3.4159 10.44369,-7.92376 20.5374,-7.92376 9.9397,0 16.9115,4.85785 16.9115,19.45942 0,0.71398 0,2.70192 0,3.96189 l -15.91753,0.53198 c -20.70539,0.71398 -31.47108,10.98968 -31.47108,27.73318 0,16.21153 17.63948,26.09524 30.40711,26.09524 0,0 15.45554,0.88197 29.07714,-6.10382 v -54.22041 c 0,-21.79736 -11.94165,-28.78315 -26.83721,-28.78315 m 14.74157,75.80777 c -7.33578,2.88391 -15.02156,1.98794 -16.9815,1.67995 -11.19967,-1.66595 -18.31146,-6.8038 -18.31146,-15.37155 0,-9.36572 5.61383,-14.58757 19.72542,-15.13355 l 5.24984,-0.252 c 4.96986,-0.098 10.3177,-0.62998 10.3177,-0.62998 v 29.70713 z"
   id="path55" /><path
   style="fill:#ffffff"
   d="m 443.21292,115.86508 c -5.13785,-2.53393 -10.52769,-4.59187 -18.82945,-4.47987 -16.14152,0.16799 -25.14326,11.49366 -25.66124,22.49734 -1.41396,29.86112 35.60095,21.96535 35.60095,42.85274 0,7.93776 -8.16176,13.14561 -17.80748,13.14561 -8.60974,0 -15.41354,-3.5979 -19.03944,-6.10382 l -4.64786,10.2477 c 5.12385,3.2479 11.95565,6.46781 23.19732,6.46781 16.09952,0 30.84109,-8.24576 30.84109,-26.06724 0,-27.92917 -35.99294,-22.42734 -35.99294,-41.50878 0,-7.76977 5.89383,-10.75168 13.87359,-10.75168 3.12191,0 5.13785,0.55998 7.61578,1.17597 8.62374,2.60392 10.84968,-5.29185 10.84968,-7.47578"
   id="path57" /><path
   style="fill:#ffffff"
   d="M 67.057988,84.310005 C 41.018754,106.62535 16.085488,145.41821 16.477476,200.49259 h 13.761595 c 0.461987,-13.8596 3.863887,-33.65501 6.957796,-42.43276 h 46.240639 v 29.97312 c 0,8.46975 6.747801,12.45964 13.761595,12.40364 L 97.031106,64.472589 c 0,0 -18.045469,9.015735 -29.973118,19.837416 m 16.533513,61.822185 -42.936736,0.028 C 50.566473,115.92107 68.149956,95.971662 83.731497,87.459912 l -0.139996,58.672278 z"
   id="path59" />
</svg>