<?xml version="1.0" encoding="UTF-8" standalone="no"?>
<!-- Created with Inkscape (http://www.inkscape.org/) -->
<svg
   xmlns:svg="http://www.w3.org/2000/svg"
   xmlns="http://www.w3.org/2000/svg"
   version="1.0"
   width="751.08197"
   height="436.92801"
   viewBox="0 0 751.082 436.928"
   id="Layer_1"
   xml:space="preserve"><defs
   id="defs36" />
<g
   id="g3">
	<path
   d="M 457.925,40.391 C 445.105,27.887 430.356,17.952 414.168,10.899 C 397.177,3.526 379.23,0 360.314,0 C 341.398,0 323.61,3.526 306.617,10.898 C 290.269,17.951 275.524,27.886 262.702,40.39 C 249.878,53.214 240.102,67.957 232.889,84.307 C 225.995,101.457 222.471,119.409 222.471,138 C 222.471,156.914 225.995,174.867 232.889,191.695 C 240.101,208.365 249.877,223.27 262.702,235.612 C 275.524,248.435 290.268,258.374 306.617,265.426 C 323.61,272.798 341.398,276.324 360.314,276.324 C 379.23,276.324 397.176,272.798 414.168,265.426 C 430.356,258.373 445.105,248.435 457.925,235.612 C 470.748,223.27 480.687,208.365 487.418,191.695 C 494.791,174.867 498.314,156.914 498.314,138 C 498.314,119.409 494.792,101.458 487.418,84.307 C 480.687,67.958 470.748,53.214 457.925,40.391 L 457.925,40.391 z "
   style="fill:#cfc767;fill-rule:evenodd"
   id="path5" />
	<path
   d="M 470.107,91.842 C 464.015,77.575 455.682,65.073 444.46,53.853 C 433.562,42.954 421.22,34.623 406.795,28.529 C 392.05,22.117 376.66,18.913 360.315,18.913 C 343.965,18.913 328.738,22.117 313.993,28.529 C 299.568,34.623 287.067,42.954 276.166,53.853 C 264.947,65.074 256.612,77.575 250.52,91.842 C 244.59,106.587 241.386,121.974 241.386,138 C 241.386,154.352 244.59,169.737 250.52,184.484 C 256.612,198.747 264.947,211.25 276.166,222.471 C 287.067,233.367 299.568,241.703 313.993,247.795 C 328.738,254.207 343.966,257.408 360.315,257.408 C 376.661,257.408 392.05,254.207 406.795,247.795 C 421.22,241.703 433.562,233.368 444.46,222.471 C 455.683,211.25 464.016,198.746 470.107,184.484 C 476.195,169.737 479.401,154.352 479.401,138 C 479.401,121.975 476.195,106.587 470.107,91.842 L 470.107,91.842 z "
   style="fill:#fe000c;fill-rule:evenodd"
   id="path7" />
	<path
   d="M 437.088,66.036 L 431.636,58.984 L 430.356,55.778 L 429.715,53.853 L 423.947,52.893 C 420.575,53.853 415.768,58.342 410.001,66.677 C 401.988,78.218 395.256,86.551 389.164,91.843 C 384.998,95.369 380.186,97.613 375.38,98.255 C 374.095,98.255 373.139,97.933 372.174,97.291 C 370.573,96.331 369.612,93.447 369.612,88.956 L 378.261,79.18 L 380.506,71.167 C 380.506,69.564 378.905,68.921 376.024,69.242 L 368.969,70.525 L 364.16,72.128 L 362.557,70.207 L 358.708,66.679 C 355.824,64.436 353.581,64.754 352.619,67.96 L 351.978,74.372 C 342.68,78.861 338.191,82.387 338.191,84.95 C 338.191,86.875 339.154,88.476 340.757,89.279 L 350.375,92.485 L 349.735,97.614 L 345.888,97.934 C 340.437,97.292 335.626,95.371 331.942,91.845 C 326.495,87.192 319.44,78.861 311.105,66.679 C 306.938,60.589 302.129,55.781 297.001,52.895 L 294.76,51.932 L 291.872,52.254 L 290.269,54.175 L 290.269,56.743 L 288.346,59.629 L 283.537,66.039 L 272.958,80.142 L 263.982,97.292 C 259.815,106.27 257.25,116.848 256.29,128.707 C 255.327,140.248 255.968,151.147 258.213,161.725 C 262.059,178.395 269.113,192.82 279.37,205.162 L 284.181,210.613 L 285.782,212.216 L 287.705,212.054 C 288.346,210.933 287.705,209.971 286.102,208.367 L 282.896,204.199 C 279.049,198.75 275.843,192.82 273.28,186.571 C 267.188,171.023 266.546,162.368 270.715,160.765 C 273.603,159.482 277.127,162.368 281.294,169.098 L 284.182,174.227 C 285.14,177.113 286.423,178.075 287.386,177.433 C 288.347,177.113 288.347,176.152 288.027,175.189 L 286.104,172.303 L 283.539,165.891 L 280.015,153.709 C 278.09,143.453 279.052,137.363 282.578,135.118 C 286.104,132.874 290.593,134.798 295.72,141.208 L 299.888,147.62 L 303.094,155.955 C 303.412,158.199 304.054,159.161 305.017,159.161 C 306.618,158.841 306.618,157.556 305.66,155.315 L 305.017,148.903 L 305.66,142.812 C 306.618,140.568 307.903,138.969 309.504,138.325 C 313.03,137.364 316.236,138.969 319.12,143.134 C 322.648,147.943 324.249,154.355 323.931,162.368 L 321.686,165.574 C 317.199,167.497 314.954,169.741 315.274,172.304 C 315.596,175.51 316.557,178.075 318.48,179.677 C 327.778,175.19 334.668,174.548 339.479,177.434 C 343.323,179.677 347.169,186.892 351.016,198.751 C 354.863,210.614 357.43,222.793 358.393,235.616 L 358.711,239.784 L 359.031,243.953 C 358.711,245.554 359.353,246.194 360.316,246.194 C 361.597,246.194 362.239,245.553 361.917,243.953 L 362.56,235.616 C 363.52,222.476 366.086,210.454 369.614,199.234 C 373.14,187.533 376.986,180.641 380.833,177.755 C 385.32,174.549 392.368,175.192 401.67,179.358 C 404.232,178.077 405.512,175.832 405.837,172.306 C 405.837,169.422 403.591,167.179 399.105,165.576 C 397.82,164.933 397.179,163.651 396.86,162.05 C 396.86,154.035 398.464,147.946 401.671,143.136 C 404.553,138.647 407.759,137.047 411.285,138.005 C 412.889,138.647 414.171,140.25 414.969,142.494 L 416.096,148.906 L 414.969,155.318 C 414.171,157.559 414.49,158.522 415.772,158.844 C 416.575,159.164 417.373,158.201 417.697,155.958 L 421.223,147.301 L 425.232,141.212 C 430.359,134.802 434.53,132.559 438.051,134.802 C 441.577,137.048 442.542,143.457 440.937,153.714 L 437.412,165.896 L 434.53,171.987 L 432.925,174.873 C 432.601,176.156 432.601,176.798 433.245,177.116 C 434.206,177.756 435.486,176.798 436.451,174.23 L 439.657,169.101 C 443.819,162.051 447.349,159.165 450.235,160.446 C 454.402,162.371 453.437,171.027 447.349,186.252 C 445.108,192.824 441.902,198.753 438.051,204.203 L 434.53,208.371 C 432.925,209.654 432.6,210.617 433.245,211.575 L 434.846,212.057 L 436.451,210.456 L 441.258,204.845 C 451.837,192.344 458.889,178.078 462.415,161.728 C 464.66,151.15 465.621,140.251 464.66,128.71 C 463.695,116.851 460.814,106.272 456.643,97.295 L 447.669,80.145 L 437.088,66.036 L 437.088,66.036 z "
   style="fill-rule:evenodd"
   id="path9" />
	<path
   d="M 434.202,69.24 L 427.79,60.907 L 426.829,58.661 L 426.509,57.38 C 426.189,56.418 425.229,56.418 424.264,57.38 L 420.26,61.227 C 415.452,66.356 410.962,74.369 407.436,84.947 L 402.949,97.931 L 399.103,104.341 C 397.818,105.946 396.217,106.906 393.972,107.227 L 384.678,105.304 L 374.419,101.778 C 371.213,101.137 370.249,101.137 371.85,102.098 C 380.831,107.547 383.073,118.125 378.586,133.833 L 373.455,149.541 L 367.367,163.968 C 362.878,175.507 360.635,187.208 360.314,199.71 L 360.314,200.351 L 360.314,199.71 C 360.314,193.621 359.352,186.568 357.751,178.715 C 355.503,168.453 352.62,162.045 349.414,159.159 C 346.528,156.914 343.004,156.273 339.478,157.236 C 335.952,158.196 333.226,160.44 331.623,164.286 C 332.585,156.273 333.708,151.464 335.952,150.183 L 341.079,150.183 L 349.737,154.029 L 345.89,144.091 L 342.04,132.872 C 340.439,124.537 340.439,117.485 342.682,111.715 C 343.965,108.829 346.206,106.266 349.092,104.663 L 354.223,102.74 L 355.826,101.457 L 355.184,96.968 L 354.223,95.367 L 353.903,99.854 L 352.298,100.814 L 349.736,101.136 C 344.927,101.456 340.438,103.059 336.27,105.303 C 333.226,107.226 330.02,107.867 327.134,107.547 C 324.891,107.227 322.969,105.946 321.685,104.341 L 318.161,98.253 L 314.313,85.91 C 310.787,75.331 305.978,66.998 300.528,61.227 L 296.682,57.38 L 294.119,57.38 L 294.119,58.661 L 292.836,60.907 L 287.066,68.28 L 277.768,82.384 C 271.038,95.368 267.832,108.19 267.512,120.692 C 267.19,135.117 269.115,146.015 273.604,154.03 L 273.922,153.708 C 271.038,144.092 270.075,133.514 271.038,121.652 C 271.678,113.319 273.603,104.664 277.128,95.368 L 286.744,75.652 C 285.141,83.344 285.141,92.482 286.103,103.701 C 287.706,117.486 290.912,128.704 296.361,137.362 L 296.681,137.362 C 293.155,127.104 290.911,115.24 290.269,102.099 C 289.949,90.878 290.591,81.424 292.513,73.409 L 295.076,65.717 L 297.641,63.471 L 300.847,66.677 L 304.053,73.089 C 306.939,79.821 308.544,87.19 309.502,94.404 L 313.351,113.32 C 314.952,119.09 317.518,122.618 320.403,123.899 C 323.289,125.182 326.173,124.539 329.696,122.296 C 332.906,120.05 334.988,117.167 336.268,113.639 C 335.31,118.448 334.665,122.296 334.987,125.822 C 335.309,129.348 336.59,133.515 338.513,138.002 L 344.283,148.585 L 338.513,145.697 L 335.625,145.056 C 333.224,144.736 331.3,146.339 330.338,149.865 C 328.735,154.032 328.094,159.481 328.094,166.213 C 327.774,167.496 327.132,168.454 326.171,168.778 C 321.042,169.738 318.798,171.662 319.759,174.546 L 331.62,171.662 C 331.3,169.096 332.582,166.533 334.664,163.969 C 337.229,161.083 340.115,160.441 343.642,161.723 C 348.129,163.646 351.977,169.738 354.859,180.317 C 357.426,188.812 359.027,198.748 359.67,209.969 L 360.312,226.96 L 361.27,209.969 C 361.592,198.748 363.195,188.812 365.759,180.317 C 368.647,169.738 372.491,163.647 376.982,161.723 C 380.504,160.44 383.39,161.083 386.276,163.969 C 388.517,166.532 389.482,169.096 389.162,171.662 L 401.025,174.225 C 402.302,171.981 400.38,170.058 394.929,168.778 C 393.649,168.454 393.008,167.495 393.008,166.213 L 390.763,149.865 C 389.482,146.339 387.557,144.736 385.316,145.056 L 381.79,146.339 L 377.623,148.262 L 381.47,140.567 C 384.352,134.477 385.956,128.067 385.956,121.976 L 384.676,113.321 C 386.597,117.808 388.518,120.694 390.123,122.297 C 391.724,123.9 393.329,124.54 395.254,124.86 C 397.175,125.182 399.101,124.54 400.701,122.937 C 403.266,120.694 405.508,116.848 407.433,111.396 L 411.28,94.406 C 412.884,85.913 414.485,78.54 416.569,73.091 L 420.257,66.679 L 422.981,63.473 L 425.546,65.719 L 428.432,73.411 C 430.033,81.426 430.673,90.88 430.353,102.101 C 430.033,115.243 427.788,127.106 423.945,137.364 L 424.261,137.364 C 429.712,128.707 432.918,117.488 434.524,103.703 C 435.48,92.484 435.48,83.347 433.879,75.654 L 443.496,95.37 C 447.018,104.666 448.948,113.321 449.904,121.654 C 450.869,133.515 449.584,144.094 446.702,153.71 L 447.018,154.032 C 451.509,146.339 453.754,135.118 453.43,120.694 C 453.114,108.833 449.583,96.331 443.176,83.347 L 434.202,69.24 L 434.202,69.24 z "
   style="fill:#cfc767;fill-rule:evenodd"
   id="path11" />
	<path
   d="M 357.751,79.178 L 355.826,82.064 C 355.504,82.705 356.146,83.025 357.109,83.345 L 360.958,83.665 C 362.559,83.665 363.199,83.345 363.52,82.705 L 362.56,80.14 L 357.751,79.178 L 357.751,79.178 z "
   style="fill:#cfc767;fill-rule:evenodd"
   id="path13" />
	<polygon
   points="368.01,78.218 368.649,81.424 370.573,79.178 371.213,76.933 369.288,77.255 368.01,78.218 "
   style="fill:#cfc767;fill-rule:evenodd"
   id="polygon15" />
	<path
   d="M 748.517,421.858 C 746.912,420.256 744.67,419.292 742.425,419.292 C 739.859,419.292 737.613,420.257 736.013,421.858 C 734.408,423.625 733.451,425.708 733.451,428.269 C 733.451,430.515 734.407,432.756 736.013,434.357 C 737.938,435.962 740.179,436.927 742.425,436.927 C 744.67,436.927 746.911,435.962 748.517,434.357 C 750.118,432.756 751.082,430.515 751.082,428.269 C 751.082,425.708 750.117,423.625 748.517,421.858 L 748.517,421.858 z M 742.425,420.573 C 744.346,420.573 745.946,421.218 747.552,422.822 C 749.153,424.427 749.797,426.028 749.797,428.269 C 749.797,430.515 749.152,432.12 747.552,433.401 C 745.947,435.002 744.346,435.642 742.425,435.642 C 740.179,435.642 738.578,435.001 736.973,433.401 C 735.369,431.796 734.728,430.195 734.728,428.269 C 734.728,426.028 735.369,424.427 736.973,422.822 C 738.578,421.218 740.179,420.573 742.425,420.573 L 742.425,420.573 z "
   style="fill-rule:evenodd"
   id="path17" />
	<path
   d="M 746.271,426.028 L 744.67,423.783 L 742.105,423.138 L 738.579,423.138 L 738.579,433.08 L 740.5,433.08 L 740.5,429.233 L 741.785,429.233 L 743.706,429.549 L 744.671,431.794 L 744.671,432.755 L 744.671,433.079 L 746.272,433.079 L 746.272,432.755 L 746.272,432.435 L 746.272,430.834 L 745.631,429.232 L 744.03,428.587 L 745.306,427.947 L 746.271,426.028 L 746.271,426.028 z M 741.784,424.428 L 744.029,424.744 L 744.67,426.348 L 743.705,427.629 L 742.104,427.949 L 740.499,427.949 L 740.499,424.427 L 741.784,424.427 L 741.784,424.428 z "
   style="fill-rule:evenodd"
   id="path19" />
	<path
   d="M 313.03,354.383 C 312.712,336.112 312.712,324.731 313.352,319.117 L 312.391,318.797 L 308.223,321.525 L 301.169,320.723 C 289.63,316.236 277.769,314.631 265.909,315.595 C 258.536,315.915 251.48,317.517 244.91,320.723 C 238.18,323.609 232.088,327.933 226.476,333.222 C 215.099,345.085 209.65,360.471 209.968,379.224 C 210.29,397.495 216.057,411.92 227.921,422.179 C 239.14,432.12 253.085,436.604 270.075,435.963 C 281.934,435.643 292.195,432.437 300.848,426.669 C 307.58,422.503 312.391,417.056 315.595,410.959 L 318.16,405.832 L 316.555,404.867 C 311.106,412.885 304.374,419.292 296.361,423.625 C 288.988,427.31 280.652,428.91 271.678,428.27 C 261.097,427.951 252.124,423.139 245.072,414.486 C 237.697,405.193 233.691,393.009 233.371,378.423 C 232.891,362.397 235.934,349.253 242.506,338.674 C 249.558,327.455 259.497,321.688 271.998,321.526 C 281.934,321.044 290.269,323.929 297.642,330.021 C 305.017,336.429 309.503,344.446 311.106,354.384 L 313.03,354.384 L 313.03,354.383 z "
   style="fill-rule:evenodd"
   id="path21" />
	<path
   d="M 86.391,342.84 C 85.11,335.148 81.266,329.056 74.532,324.731 C 67.64,319.442 57.864,317.197 46.163,317.517 L 0.323,317.841 L 0.323,319.92 L 3.207,320.402 L 7.053,321.686 L 12.184,324.888 C 13.787,326.493 14.425,328.094 14.425,330.339 L 14.425,419.936 C 14.425,423.138 11.862,426.028 7.052,428.91 L 0,430.836 L 0,432.757 L 28.692,432.437 L 58.664,433.082 C 70.365,432.758 79.661,429.876 86.711,425.228 C 94.086,419.619 98.254,412.566 98.572,403.588 C 98.894,394.294 95.688,386.277 88.316,380.19 C 81.584,374.581 73.889,371.691 65.076,371.371 C 71.326,370.41 76.455,367.845 80.621,363.683 C 85.75,358.229 87.676,351.497 86.391,342.84 L 86.391,342.84 z M 57.702,329.056 C 62.513,333.222 65.077,338.994 65.077,346.046 C 65.077,354.063 63.152,360.154 59.307,363.681 C 54.496,367.843 46.803,369.128 35.584,368.167 L 35.584,324.889 C 37.505,323.928 39.751,323.609 42.316,323.288 C 48.406,323.288 53.537,325.209 57.702,329.056 L 57.702,329.056 z M 75.494,401.342 C 75.814,406.153 75.172,409.999 73.569,413.526 C 69.722,422.179 61.87,426.986 49.366,427.31 C 40.071,427.31 35.584,423.784 35.584,416.412 L 35.584,375.54 L 45.522,374.579 C 57.379,375.54 66.037,379.864 71.326,388.201 C 73.569,391.728 75.172,396.219 75.494,401.342 L 75.494,401.342 z "
   style="fill-rule:evenodd"
   id="path23" />
	<path
   d="M 719.986,319.441 L 719.986,317.84 L 671.419,317.84 L 671.419,319.441 L 678.472,321.686 C 682.958,323.927 685.203,327.133 685.203,331.304 L 685.203,419.936 C 685.203,423.624 682.958,426.348 678.472,428.91 L 671.419,431.156 L 671.419,432.757 L 719.986,432.757 L 719.986,431.156 L 713.255,428.91 L 708.764,425.708 C 707.163,424.104 706.202,422.179 706.202,419.937 L 706.202,330.98 C 706.202,327.454 708.443,324.248 713.255,321.686 C 715.82,320.723 718.062,319.92 719.986,319.441 L 719.986,319.441 z "
   style="fill-rule:evenodd"
   id="path25" />
	<path
   d="M 487.734,318.318 L 472.665,317.84 L 434.202,318.318 L 434.202,319.441 L 440.933,321.686 L 445.42,324.888 C 447.021,326.493 447.985,328.094 447.985,330.339 L 447.985,420.256 C 447.985,422.502 447.02,424.103 445.42,425.707 L 440.933,428.589 L 434.202,431.155 L 434.202,432.756 L 481.007,432.756 L 481.007,431.155 L 474.915,428.909 L 470.748,426.027 C 469.464,424.426 468.661,422.821 468.661,420.572 L 468.661,376.5 C 468.661,375.54 469.464,374.899 470.265,374.899 C 473.309,374.899 477.156,377.785 481.966,383.07 L 491.58,397.178 L 500.558,413.204 L 510.176,426.668 C 513.864,430.515 517.706,432.436 521.553,432.756 C 529.894,433.721 538.543,433.721 547.2,433.08 L 547.2,431.155 C 542.713,430.514 538.863,428.909 535.977,426.668 L 529.569,418.972 L 520.912,405.192 L 511.298,389.806 C 505.048,379.864 498.313,374.254 491.264,372.654 C 499.917,372.334 506.97,369.772 512.259,364.961 C 518.351,359.83 521.237,353.418 520.272,345.73 C 519.311,337.713 515.465,331.305 508.891,326.333 C 502.804,321.524 495.752,318.797 487.734,318.318 L 487.734,318.318 z M 476.195,323.288 C 482.287,323.608 487.418,325.533 491.581,329.538 C 495.752,333.546 497.997,338.993 498.313,346.046 C 498.637,352.458 497.997,357.265 496.071,360.791 C 494.146,363.997 490.624,366.242 485.489,367.843 L 476.515,368.808 L 469.143,368.167 L 469.143,324.73 L 476.195,323.288 L 476.195,323.288 z "
   style="fill-rule:evenodd"
   id="path27" />
	<path
   d="M 649.941,334.827 C 638.402,324.248 623.013,318.797 604.101,317.841 L 573.485,318.319 L 548.805,317.841 L 548.805,319.442 L 555.537,321.687 L 560.023,324.731 C 561.625,326.333 562.265,328.095 562.265,330.34 L 562.265,420.257 L 560.023,426.028 L 555.537,428.91 L 548.805,430.836 L 548.805,432.757 L 603.461,433.402 C 623.973,433.722 640.323,427.951 652.183,415.451 C 656.994,410 660.84,403.908 663.726,396.855 C 665.967,390.443 667.252,383.874 667.252,376.821 C 667.253,359.51 661.48,345.405 649.941,334.827 L 649.941,334.827 z M 605.703,324.73 C 616.922,326.813 625.579,332.581 632.311,341.239 C 639.042,350.212 642.249,361.115 642.565,374.255 C 642.893,387.562 640.644,398.78 635.836,407.434 C 630.705,417.368 622.692,423.784 611.474,426.349 L 602.817,427.31 L 594.321,426.986 C 590.8,426.029 588.234,425.227 587.269,424.104 C 585.028,422.179 583.747,418.973 583.426,414.166 L 583.426,324.89 C 589.515,323.126 597.212,323.126 605.703,324.73 L 605.703,324.73 z "
   style="fill-rule:evenodd"
   id="path29" />
	<path
   d="M 164.769,316.235 L 147.298,316.714 L 111.718,418.012 C 110.115,422.823 107.23,426.029 103.381,428.27 L 94.405,431.157 L 94.405,432.758 L 132.875,432.758 L 132.875,431.157 L 125.18,428.27 C 122.935,426.669 121.654,424.745 121.654,421.859 L 123.897,412.245 L 133.835,383.071 L 166.051,383.071 L 175.989,410.96 L 178.552,420.574 C 178.874,423.784 177.912,426.349 175.346,427.951 L 167.976,430.837 L 167.976,432.758 L 217.982,432.758 L 217.982,430.837 L 210.29,428.591 C 206.762,426.987 204.038,424.105 202.275,419.618 L 164.769,316.235 L 164.769,316.235 z M 163.809,374.899 L 136.4,374.899 L 150.185,335.466 L 163.809,374.899 L 163.809,374.899 z "
   style="fill-rule:evenodd"
   id="path31" />
	<path
   d="M 378.586,316.714 L 361.273,316.714 L 325.533,418.012 C 323.93,422.823 321.365,426.029 317.198,428.27 L 308.545,430.836 L 308.545,432.757 L 346.528,432.757 L 346.528,431.156 L 339.155,428.269 C 336.592,426.668 335.311,424.744 335.627,421.858 L 337.554,412.244 L 347.49,383.07 L 380.186,383.07 L 392.69,420.573 C 393.01,423.783 391.725,426.348 389.484,427.95 C 387.883,429.234 385.318,430.195 382.112,430.836 L 382.112,432.757 L 431.635,432.757 L 431.635,430.836 L 424.263,428.59 C 420.899,426.986 418.171,424.104 416.412,419.617 L 378.586,316.714 L 378.586,316.714 z M 377.941,374.899 L 350.376,374.899 L 364.161,335.466 L 377.941,374.899 L 377.941,374.899 z "
   style="fill-rule:evenodd"
   id="path33" />
</g>
</svg>