<?xml version="1.0" encoding="utf-8"?>
<!-- Generator: Adobe Illustrator 13.0.0, SVG Export Plug-In . SVG Version: 6.00 Build 14948)  -->
<!DOCTYPE svg PUBLIC "-//W3C//DTD SVG 1.1//EN" "http://www.w3.org/Graphics/SVG/1.1/DTD/svg11.dtd">
<svg version="1.1" id="Layer_1" xmlns="http://www.w3.org/2000/svg" xmlns:xlink="http://www.w3.org/1999/xlink" x="0px" y="0px"
	 width="170.078px" height="75.991px" viewBox="0 0 170.078 75.991" enable-background="new 0 0 170.078 75.991"
	 xml:space="preserve">
<g>
	<path fill-rule="evenodd" clip-rule="evenodd" fill="#3C4141" d="M106.033,17.038v4.104c0,0.607-0.204,0.646-0.606,0.646h-0.139
		v0.23c0.286,0,0.797-0.031,1.235-0.031c0.394,0,0.905,0.031,1.189,0.031v-0.23h-0.139c-0.352,0-0.606-0.069-0.606-0.661v-4.089
		h1.198c0.489,0,0.525,0.453,0.541,0.738l0.218-0.085c0-0.208,0-0.415,0.015-0.622c0.021-0.208,0.051-0.415,0.081-0.623l-0.176-0.03
		c-0.014,0.23-0.197,0.238-0.394,0.238h-3.768c-0.197,0-0.38,0.007-0.438-0.223h-0.174c0,0.223-0.016,0.438-0.045,0.653
		c-0.021,0.224-0.059,0.438-0.088,0.653h0.22c0.109-0.561,0.131-0.699,0.679-0.699H106.033L106.033,17.038z"/>
	<path fill-rule="evenodd" clip-rule="evenodd" fill="#3C4141" d="M111.9,16.653c-0.22,0-0.438,0.031-0.657,0.031
		c-0.299,0-0.591-0.031-0.891-0.031v0.23h0.095c0.321,0,0.636,0.146,0.636,0.577c0,0.307-0.029,0.807-0.089,1.352l-0.218,2.137
		c-0.066,0.553-0.088,0.814-0.665,0.837h-0.103v0.23c0.285-0.016,0.577-0.031,0.861-0.031c0.329,0,0.664,0.015,0.993,0.031v-0.23
		h-0.087c-0.204-0.008-0.358-0.016-0.469-0.084c-0.094-0.069-0.151-0.192-0.151-0.438l0.248-3.374h0.014l1.767,4.242h0.176
		l1.861-4.327h0.015l0.205,3.243c0.007,0.2,0.007,0.284,0.007,0.377c0,0.337-0.248,0.337-0.628,0.361v0.23
		c0.401-0.016,0.803-0.031,1.204-0.031c0.352,0,0.709,0.015,1.053,0.031v-0.23c-0.438-0.016-0.622-0.046-0.65-0.431l-0.278-3.52
		c-0.015-0.168-0.043-0.399-0.036-0.599c0.015-0.338,0.461-0.354,0.68-0.354h0.064v-0.23c-0.254,0-0.518,0.031-0.772,0.031
		c-0.263,0-0.526-0.031-0.746-0.031l-1.73,4.02L111.9,16.653L111.9,16.653z"/>
	<path fill-rule="evenodd" clip-rule="evenodd" fill="#3C4141" d="M119.59,21.525c0-0.322-0.278-0.614-0.585-0.614
		s-0.577,0.292-0.577,0.614c0,0.331,0.271,0.607,0.577,0.607C119.318,22.133,119.59,21.856,119.59,21.525L119.59,21.525z"/>
	<path fill-rule="evenodd" clip-rule="evenodd" fill="#3C4141" d="M51.778,16.958c0.103-0.007,0.198-0.031,0.416-0.031
		c0.65,0,1.066,0.438,1.066,1.122c0,0.907-0.394,1.199-1.124,1.199h-0.358V16.958L51.778,16.958z M50.844,21.37
		c0,0.284-0.249,0.416-0.519,0.416h-0.131v0.23c0.365,0,0.708-0.03,1.059-0.03c0.416,0,0.839,0.03,1.255,0.03v-0.23h-0.131
		c-0.336,0-0.599-0.023-0.599-0.615v-1.646h0.482c0.475,0.884,0.957,1.714,1.519,2.49c0.226,0,0.46-0.03,0.686-0.03
		c0.241,0,0.475,0.03,0.715,0.03v-0.23c-0.357-0.047-0.504-0.139-0.708-0.461l-1.248-1.967c0.577-0.239,1.015-0.661,1.015-1.353
		c0-1.091-0.818-1.353-1.738-1.353c-0.387,0-0.737,0.03-1.176,0.03c-0.445,0-0.898-0.03-1.131-0.03v0.23h0.131
		c0.227,0,0.519,0.022,0.519,0.584V21.37L50.844,21.37z"/>
	<path fill-rule="evenodd" clip-rule="evenodd" fill="#3C4141" d="M55.919,22.015c0.417,0,1.285-0.03,1.942-0.03
		c0.657,0,1.497,0.03,1.964,0.03c0.066-0.407,0.153-0.814,0.249-1.222l-0.205-0.054c-0.219,0.875-0.605,0.937-1.482,0.937
		c-0.467,0-0.891,0-0.891-0.5v-1.791h0.876c0.504,0,0.526,0.299,0.569,0.761l0.219-0.046c-0.014-0.292-0.022-0.584-0.022-0.876
		c0-0.299,0.008-0.599,0.022-0.899h-0.219c-0.043,0.415-0.138,0.676-0.577,0.676h-0.869v-2.014h1.015
		c0.766,0,0.854,0.399,0.891,0.899l0.219-0.061c-0.022-0.338-0.03-0.846-0.015-1.176c-0.497,0-1.256,0.03-1.87,0.03
		c-0.613,0-1.373-0.03-1.818-0.03v0.23h0.103c0.263,0,0.54,0.038,0.54,0.438v4.027c0,0.4-0.277,0.438-0.54,0.438h-0.103V22.015
		L55.919,22.015z"/>
	<path fill-rule="evenodd" clip-rule="evenodd" fill="#3C4141" d="M65.901,18.134c-0.088-0.446-0.088-1.029-0.088-1.314
		c-0.292-0.008-0.54-0.077-0.825-0.146c-0.285-0.069-0.598-0.138-1.051-0.138c-1.475,0-2.92,0.93-2.92,2.712
		c0,1.853,1.234,2.882,2.87,2.882c0.752,0,1.387-0.138,2.037-0.33v-0.139l-0.168-0.1v-1.167c0-0.27,0.139-0.393,0.395-0.393h0.094
		v-0.23c-0.328,0.015-0.649,0.031-0.978,0.031c-0.365,0-0.73-0.016-1.095-0.031v0.23h0.095c0.27,0,0.555,0.077,0.555,0.393v1.252
		c-0.095,0.092-0.46,0.154-0.811,0.146c-1.395,0-1.971-1.353-1.971-2.621c0-1.284,0.642-2.298,1.949-2.298
		c0.854,0,1.475,0.331,1.694,1.276L65.901,18.134L65.901,18.134z"/>
	<path fill-rule="evenodd" clip-rule="evenodd" fill="#3C4141" d="M68.482,21.523c0-0.323-0.277-0.615-0.583-0.615
		c-0.307,0-0.577,0.292-0.577,0.615c0,0.331,0.27,0.607,0.577,0.607C68.211,22.13,68.482,21.854,68.482,21.523L68.482,21.523z"/>
	<path fill-rule="evenodd" clip-rule="evenodd" fill="#FFFFFF" d="M98.562,0l3.481,6.576c-1.799,3.061-3.275,6.16-3.296,10.424
		c-0.024,4.789,1.239,7.363,4.022,11.602c-5.056,9.948-10.464,8.337-17.078,12.651c-6.615-4.313-12.023-2.703-17.08-12.651
		c2.783-4.238,4.048-6.813,4.024-11.602c-0.022-4.265-1.499-7.364-3.297-10.424L72.821,0h8.538c0,0,2.532,2.22,4.465,2.159
		C87.639,2.102,89.953,0,89.953,0H98.562L98.562,0z"/>
	<path fill-rule="evenodd" clip-rule="evenodd" fill="#EE2D34" d="M99.287,6.532l-2.179-4.119h-7.156c0,0-2.447,1.597-4.196,1.604
		c-1.771,0.007-4.248-1.604-4.248-1.604h-7.233l-2.18,4.119c4.213,7.636,3.979,14.789-0.682,22.182
		c4.053,7.1,8.268,6.316,14.279,9.715c6.01-3.399,10.225-2.615,14.277-9.715C95.31,21.32,95.074,14.168,99.287,6.532L99.287,6.532z"
		/>
	<path fill-rule="evenodd" clip-rule="evenodd" fill="#FFFFFF" d="M87.23,23.902c0.415,0.304,0.439,0.795,0.272,1.09
		c-0.259,0.457-0.62,0.416-0.796,0.427c0.397,0.328,0.537,0.812,0.2,1.289c1.677,1.439,2.898,3.656,1.302,6.477
		c-1.263,2.231-4.89,3.117-8.33,1.172c-3.439-1.946-4.549-5.515-3.287-7.746c1.597-2.821,4.125-2.916,6.223-2.22
		c0.235-0.535,0.722-0.663,1.207-0.492c-0.081-0.156-0.302-0.445-0.043-0.902c0.167-0.296,0.601-0.527,1.075-0.329l2.478-4.383
		l-1.143-0.648l1.187-2.1l-0.86-0.487l-0.607,1.079l-2.578-1.458l0.61-1.078l-0.815-0.461l-1.188,2.101l-1.76-0.996l5.139-9.084
		l1.756,0.996l-1.185,2.102l0.812,0.46l0.61-1.078l2.579,1.457l-0.611,1.08l0.864,0.489l1.189-2.101l1.141,0.645l0.665-1.179
		l2.181,1.233L87.23,23.902L87.23,23.902z"/>
	<polygon fill-rule="evenodd" clip-rule="evenodd" fill="#EE2D34" points="87.84,9.247 88.533,9.638 87.629,11.234 88.078,11.488 
		87.126,13.172 86.678,12.917 85.777,14.514 85.085,14.122 85.988,12.526 85.538,12.272 86.489,10.588 86.938,10.842 87.84,9.247 	
		"/>
	<path fill-rule="evenodd" clip-rule="evenodd" fill="#EE2D34" d="M82.459,29.797c-0.218,0.034-0.539,0.133-1.165-0.221
		c-0.776-0.439-0.813-1.22-0.74-1.478c0.432,0.226,0.957,0.152,1.25-0.367c0.255-0.451,0.081-0.894-0.357-1.142
		c-0.509-0.288-1.535-0.325-2.237,0.916c-0.724,1.279-0.777,3.416,1.791,4.869c2.569,1.454,4.372,0.307,5.096-0.973
		c0.699-1.24,0.142-2.101-0.367-2.389c-0.438-0.248-0.908-0.169-1.163,0.281c-0.294,0.519-0.087,1.007,0.329,1.261
		c-0.183,0.196-0.872,0.567-1.648,0.127C82.623,30.328,82.543,30.002,82.459,29.797L82.459,29.797z"/>
	<polygon fill-rule="evenodd" clip-rule="evenodd" fill="#3C4141" points="92.065,9.608 92.35,9.769 87.852,17.718 87.567,17.557 
		92.065,9.608 	"/>
	<polygon fill-rule="evenodd" clip-rule="evenodd" fill="#3C4141" points="86.19,6.282 86.473,6.443 81.976,14.392 81.692,14.231 
		86.19,6.282 	"/>
	<path fill-rule="evenodd" clip-rule="evenodd" fill="#3C4141" d="M83.649,29.703c-0.233-0.379-0.241-0.792-0.035-1.156
		c0.385-0.68,1.174-0.502,1.659-0.205c-0.795-0.27-1.264,0.226-1.421,0.505C83.694,29.125,83.644,29.385,83.649,29.703
		L83.649,29.703z"/>
	<path fill-rule="evenodd" clip-rule="evenodd" fill="#3C4141" d="M94.413,9.184l0.409,0.231l-8.041,14.211l-1.071-0.607
		c0.194,0.013,0.772,0.185,1.448-1.015L94.413,9.184L94.413,9.184z"/>
	<path fill-rule="evenodd" clip-rule="evenodd" fill="#3C4141" d="M78.117,29.04c-0.411-0.958-0.02-1.943,0.153-2.249
		c0.714-1.263,1.939-1.333,3.001-0.861c-1.302-0.429-2.241,0.412-2.683,1.192C78.286,27.658,78.099,28.103,78.117,29.04
		L78.117,29.04z"/>
	<path fill-rule="evenodd" clip-rule="evenodd" fill="#3C4141" d="M82.163,34.55c2.15,0.68,4.521-0.176,5.561-2.015
		c0.641-1.131,0.742-2.6,0.142-3.461c0.276,0.932,0.04,2.25-0.402,3.031C86.123,34.479,83.341,34.708,82.163,34.55L82.163,34.55z"/>
	<path fill-rule="evenodd" clip-rule="evenodd" fill="#3C4141" d="M85.458,24.497l-0.678-0.384c-0.435-0.246-0.34-0.649-0.308-0.792
		c0.172,0.213,0.771,0.575,1.191,0.813c0.419,0.236,1.037,0.563,1.307,0.602c-0.107,0.101-0.401,0.39-0.835,0.144L85.458,24.497
		L85.458,24.497z"/>
	<path fill-rule="evenodd" clip-rule="evenodd" fill="#3C4141" d="M85.108,25.117l-0.906-0.513
		c-0.434-0.245-0.731,0.043-0.836,0.144c0.271,0.038,1.118,0.494,1.537,0.73c0.419,0.238,1.246,0.729,1.417,0.941
		c0.032-0.143,0.125-0.546-0.308-0.792L85.108,25.117L85.108,25.117z"/>
	<path fill-rule="evenodd" clip-rule="evenodd" fill="#3C4141" d="M101.036,6.556l-3.005-5.676h-8.079c0,0-2.445,1.578-4.195,1.604
		c-1.825,0.028-4.396-1.604-4.396-1.604h-8.01l-3.004,5.676c1.719,2.984,3.148,6.15,3.17,10.44
		c0.024,4.867-1.252,7.597-3.887,11.658c4.728,8.945,9.144,7.291,16.062,11.557c6.917-4.267,11.333-2.612,16.06-11.557
		c-2.635-4.061-3.91-6.791-3.886-11.658C97.887,12.706,99.316,9.54,101.036,6.556L101.036,6.556z M98.562,0l3.481,6.576
		c-1.799,3.061-3.275,6.16-3.296,10.424c-0.024,4.789,1.239,7.363,4.022,11.602c-5.056,9.948-10.464,8.337-17.078,12.651
		c-6.615-4.313-12.023-2.703-17.08-12.651c2.783-4.238,4.048-6.813,4.024-11.602c-0.022-4.265-1.499-7.364-3.297-10.424L72.821,0
		h8.538c0,0,2.572,1.631,4.397,1.604C87.506,1.577,89.952,0,89.952,0H98.562L98.562,0z"/>
	<path fill-rule="evenodd" clip-rule="evenodd" fill="#3C4141" d="M21.724,57.507c2.074,0,2.141-3.174,0-3.174h-5.288v3.174H21.724
		L21.724,57.507z M21.806,68.013c2.432,0,2.507-3.73,0-3.73h-5.37v3.73H21.806L21.806,68.013z M3.5,51.47
		c0-2.15-2.736-4.318-3.5-4.828h28.017c5.861,0,8.712,3.924,8.712,7.906c0,2.596-1.217,4.615-2.515,5.869
		c1.637,1.266,3.364,3.551,3.364,7.02c0,4.727-3.956,8.555-9.561,8.555H0c0.426-0.244,3.5-2.672,3.5-4.85V51.47L3.5,51.47z"/>
	<path fill-rule="evenodd" clip-rule="evenodd" fill="#FFFFFF" d="M21.806,69.397h-6.754v-6.5h6.754
		C26.137,62.897,26.061,69.397,21.806,69.397L21.806,69.397z M21.724,58.892h-6.672V52.95h6.672
		C25.689,52.95,25.621,58.892,21.724,58.892L21.724,58.892z M4.884,51.21v20.191c0,1.275-0.674,2.475-1.436,3.207h24.569
		c4.952,0,8.176-3.316,8.176-7.172c0-3.18-1.763-5.807-4.628-6.893c2.289-1.059,3.78-3.416,3.78-5.996
		c0-3.246-2.259-6.521-7.328-6.521H3.449C4.209,48.757,4.884,49.952,4.884,51.21L4.884,51.21z"/>
	<path fill-rule="evenodd" clip-rule="evenodd" fill="#3C4141" d="M38.906,51.47c0-2.141-2.216-3.885-3.485-4.828h33.013V58.8
		c-0.922-1.439-2.419-3.699-5.134-3.699H52.375v2.316h10.912v7.121H52.375v2.646h10.913c2.589,0,4.172-2.041,5.177-3.689v12.496
		h-33.02c1.291-0.967,3.46-2.699,3.46-4.85V51.47L38.906,51.47z"/>
	<path fill-rule="evenodd" clip-rule="evenodd" fill="#FFFFFF" d="M40.29,51.21v20.191c0,1.277-0.679,2.473-1.438,3.207h28.229
		v-7.57c-0.731,0.861-1.958,1.531-3.36,1.531H50.991v-5.414h10.913v-4.354H50.991v-5.084h12.741c1.374,0,2.601,0.631,3.318,1.506
		v-7.197H38.854C39.612,48.757,40.29,49.952,40.29,51.21L40.29,51.21z"/>
	<path fill-rule="evenodd" clip-rule="evenodd" fill="#3C4141" d="M98.2,46.642v12.166c-0.979-1.525-2.481-3.707-5.135-3.707h-6.807
		c-2.04,0-3.062,0.943-3.062,3.24v5.605c0,2.309,0.99,3.238,3.032,3.238h6.837c2.549,0,4.174-2.125,5.135-3.707v12.514H81.091
		c-7.493,0-11.548-3.838-11.548-10.764v-8.604c0-7.146,4.994-9.982,11.548-9.982H98.2L98.2,46.642z"/>
	<path fill-rule="evenodd" clip-rule="evenodd" fill="#FFFFFF" d="M96.816,48.026H81.091c-6.126,0-10.165,2.516-10.165,8.598v8.604
		c0,6.08,3.351,9.381,10.165,9.381h15.726V67.04c-0.731,0.867-1.951,1.529-3.319,1.529h-7.269c-2.86,0-4.416-1.605-4.416-4.623
		v-5.605c0-3.023,1.606-4.623,4.446-4.623h7.238c1.374,0,2.594,0.637,3.319,1.516V48.026L96.816,48.026z"/>
	<path fill-rule="evenodd" clip-rule="evenodd" fill="#3C4141" d="M100.832,51.491c0-2.197-2.198-3.875-3.528-4.85h20.101
		c-0.321,0.27-3.382,2.504-3.382,4.85v5.908l5.781-6.398c1.879-2.08-2.067-4.359-2.067-4.359h21.03l-12.283,13.484l13.684,15.865
		h-23.153c0.974-0.713,3.809-2.777,2.359-4.461l-5.351-6.219v5.83c0,2.08,2.035,3.781,3.46,4.85H97.333
		c1.315-0.975,3.499-2.67,3.499-4.85V51.491L100.832,51.491z"/>
	<path fill-rule="evenodd" clip-rule="evenodd" fill="#FFFFFF" d="M102.225,51.231v20.17c0,1.279-0.671,2.473-1.437,3.207h13.296
		c-0.76-0.734-1.438-1.93-1.438-3.207v-9.914l7.916,9.506c1.046,1.256,0.564,2.822-0.376,3.615h16.967l-12.512-14.508l10.998-12.074
		h-14.57c0.825,0.854,1.058,2.469-0.03,3.674l-8.393,9.297v-9.766c0-1.275,0.676-2.475,1.437-3.205h-13.292
		C101.556,48.757,102.225,49.956,102.225,51.231L102.225,51.231z"/>
	<path fill-rule="evenodd" clip-rule="evenodd" fill="#3C4141" d="M138.268,45.517c2.166-2.166-0.938-4.604-1.243-4.895h14.756
		l-8.657,10.92h-10.345L138.268,45.517L138.268,45.517z"/>
	<path fill-rule="evenodd" clip-rule="evenodd" fill="#FFFFFF" d="M139.292,46.45l-3.38,3.707h6.542l6.462-8.15h-9.071
		C140.874,43.366,140.574,45.04,139.292,46.45L139.292,46.45z"/>
	<path fill-rule="evenodd" clip-rule="evenodd" fill="#3C4141" d="M168.629,46.642v12.156c-0.756-1.246-2.387-3.711-5.136-3.711
		h-7.233c-1.062,0-1.217,0.498-1.217,0.787c0,0.295,0.139,0.787,1.217,0.787h3.601c6.788,0,10.218,4.439,10.218,9.664
		c0,5.252-4.241,9.666-11.195,9.666h-17.136V62.769c0.369,0.641,2.177,3.729,5.14,3.729h6.773c1.339,0,2.075-0.531,2.075-1.246
		c0-0.732-0.566-1.195-2.077-1.195h-3.708c-5.832,0-8.959-4.635-8.959-8.707s3.127-8.707,8.959-8.707H168.629L168.629,46.642z"/>
	<path fill-rule="evenodd" clip-rule="evenodd" fill="#FFFFFF" d="M167.244,48.026H149.95c-4.946,0-7.574,3.887-7.574,7.322
		s2.628,7.322,7.574,7.322h3.708c1.488,0,3.46,0.484,3.46,2.58c0,2.068-2.122,2.631-3.458,2.631h-7.21
		c-1.46,0-2.416-0.559-3.32-1.588v8.314h15.753c6.306,0,9.811-3.908,9.811-8.283c0-4.502-2.851-8.283-8.833-8.283h-3.601
		c-1.711,0-2.6-0.98-2.6-2.168c0-1.189,0.917-2.172,2.6-2.172h7.665c1.377,0,2.595,0.645,3.319,1.518V48.026L167.244,48.026z"/>
	<path fill-rule="evenodd" clip-rule="evenodd" fill="#3C4141" d="M7.812,70.944V50.919c0-0.229-0.052-0.652-0.109-0.877h20.55
		c2.754,0,4.178,0.898,4.919,1.502c-0.451-0.773-1.692-2.295-4.919-2.295H6.559c0.233,0.398,0.33,1.109,0.33,1.756v19.939
		c0,0.645-0.102,1.246-0.23,1.596C7.001,72.368,7.812,71.71,7.812,70.944L7.812,70.944z"/>
	<path fill-rule="evenodd" clip-rule="evenodd" fill="#3C4141" d="M26.661,55.505c0,2.426-1.53,4.615-4.704,4.615h-8.274
		l0.793,0.793h7.481c3.732,0,5.335-2.393,5.335-4.775c0-1.42-0.903-2.41-1.197-2.674C26.418,54.017,26.661,54.767,26.661,55.505
		L26.661,55.505z"/>
	<path fill-rule="evenodd" clip-rule="evenodd" fill="#3C4141" d="M27.017,65.899c0,2.465-1.698,4.73-4.977,4.73h-8.356l0.793,0.791
		h7.563c3.816,0,5.653-2.631,5.653-4.951c0-1.439-0.787-2.543-1.201-2.912C26.791,64.12,27.017,64.901,27.017,65.899L27.017,65.899z
		"/>
	<polygon fill-rule="evenodd" clip-rule="evenodd" fill="#3C4141" points="60.377,60.823 60.377,60.028 49.626,60.028 
		50.409,60.823 60.377,60.823 	"/>
	<path fill-rule="evenodd" clip-rule="evenodd" fill="#3C4141" d="M65.524,49.249H41.979c0.205,0.352,0.33,1.01,0.33,1.67v20.025
		c0,0.717-0.104,1.238-0.235,1.607c0.336-0.176,1.157-0.84,1.157-1.607V50.919c0-0.219-0.053-0.656-0.111-0.875h22.405V49.249
		L65.524,49.249z"/>
	<path fill-rule="evenodd" clip-rule="evenodd" fill="#3C4141" d="M63.55,70.597c0.919,0,1.563-0.701,1.731-0.979
		c-0.268,0.102-0.733,0.184-1.311,0.184H49.626l0.794,0.795H63.55L63.55,70.597z"/>
	<path fill-rule="evenodd" clip-rule="evenodd" fill="#3C4141" d="M73.878,64.942v-8.607c0-4.172,2.322-6.293,7.47-6.289h13.953
		v-0.797H81.348c-5.571,0-8.392,2.367-8.392,7.086v8.607c0,3.092,0.958,5.125,2.553,6.305
		C74.366,69.708,73.878,67.782,73.878,64.942L73.878,64.942z"/>
	<path fill-rule="evenodd" clip-rule="evenodd" fill="#3C4141" d="M86.485,70.597h6.84c0.806,0,1.529-0.594,1.709-0.967
		c-0.333,0.102-0.678,0.172-1.275,0.172h-7.273c-1.934,0-3.66-0.549-4.787-1.838C82.106,69.081,83.455,70.597,86.485,70.597
		L86.485,70.597z"/>
	<path fill-rule="evenodd" clip-rule="evenodd" fill="#3C4141" d="M105.188,70.944V50.94c0-0.246-0.049-0.654-0.103-0.898h6.079
		c0.039-0.326,0.081-0.482,0.158-0.793h-7.392c0.224,0.391,0.333,1.02,0.333,1.691v20.004c0,0.729-0.115,1.266-0.235,1.613
		C104.494,72.274,105.188,71.655,105.188,70.944L105.188,70.944z"/>
	<path fill-rule="evenodd" clip-rule="evenodd" fill="#3C4141" d="M143.473,44.022h1.621l0.634-0.793h-3.269
		c0.312,0.893-0.16,2.572-1.576,4.123l-0.987,1.082h1.258C143.166,46.104,143.286,45.063,143.473,44.022L143.473,44.022z"/>
	<path fill-rule="evenodd" clip-rule="evenodd" fill="#3C4141" d="M145.345,55.403c0-2.59,1.706-5.361,4.919-5.361h15.523v-0.793
		h-15.523c-3.81,0-5.799,3.189-5.799,5.811c0,1.748,0.864,3.58,2.13,4.598C145.871,58.7,145.345,57.083,145.345,55.403
		L145.345,55.403z"/>
	<path fill-rule="evenodd" clip-rule="evenodd" fill="#3C4141" d="M159.212,64.966c0,3.809-3.909,4.148-5.235,4.148h-7.213
		c-0.54,0-1.231-0.113-1.543-0.229v4.01h0.964v-3.047c0.173,0.021,0.492,0.059,0.665,0.059h7.127c1.405,0,5.9-0.357,5.9-4.467
		c0-1.189-0.674-1.975-1.134-2.422C159.036,63.511,159.212,64.136,159.212,64.966L159.212,64.966z"/>
	<path fill-rule="evenodd" clip-rule="evenodd" fill="#3C4141" d="M122.917,69.011l-6.657-7.996l7.065-7.826
		c0.795-0.881,1.309-1.939,1.38-3.146h6.706l0.725-0.793h-8.351c0.115,0.979-0.186,2.275-1.155,3.352l-7.577,8.393l7.145,8.58
		c0.799,0.957,1.143,2.131,0.973,3.322h0.922C124.314,71.397,123.777,70.024,122.917,69.011L122.917,69.011z"/>
</g>
</svg>
