<?xml version="1.0" encoding="UTF-8" standalone="no"?>
<!-- Created with Inkscape (http://www.inkscape.org/) -->
<svg
   xmlns:svg="http://www.w3.org/2000/svg"
   xmlns="http://www.w3.org/2000/svg"
   version="1.0"
   width="1024"
   height="341"
   viewBox="0 0 177 59"
   id="VARG"
   xml:space="preserve"><defs
   id="defs2312" />
<g
   id="g2257">

<path
   d="M 49.764,53.84 C 52.228,53.84 142.511,53.84 145.067,53.84 C 156.752,53.84 170.901,29.74 170.992,16.139 C 171.037,9.473 167.25,5.002 159.034,5.002 L 67.656,5.002 C 54.146,5.002 40.088,31.657 40.544,43.343 C 40.797,49.828 44.834,53.84 49.764,53.84 z "
   id="path2261" />
<path
   d="M 155.747,6.827 C 155.747,6.827 73.133,6.79 68.295,6.827 C 56.519,6.919 42.39,30.933 42.37,43.434 C 42.358,50.29 47.573,52.014 49.947,52.014 C 49.947,52.014 135.117,52.014 144.155,52.014 C 158.122,52.014 170.127,23.546 169.168,15.682 C 169.164,15.655 169.082,6.645 159.217,6.828 L 155.747,6.828 L 155.747,6.827 z "
   style="fill:#fdb913"
   id="path2263" />
<path
   d="M 91.573,37.956 C 87.039,44.752 81.395,43.844 78.701,43.89 C 76.054,43.935 50.676,43.89 50.676,43.89 L 65.739,14.039 C 65.739,14.039 89.565,14.039 91.756,14.039 C 93.947,14.039 99.419,16.103 99.059,20.064 C 99.059,20.064 98.968,27.183 88.196,29.009 C 88.561,29.284 95.396,32.228 91.573,37.956 z M 72.494,38.983 C 76.328,38.983 79.249,35.629 79.295,33.118 C 79.341,30.607 77.698,30.326 76.283,30.326 C 75.279,30.326 69.078,30.326 69.078,30.326 L 62.862,38.992 L 72.494,38.983 z M 81.395,25.313 C 84.316,25.313 86.461,23.076 86.826,21.341 C 87.191,19.606 84.544,18.9 83.54,18.9 C 82.536,18.9 77.273,18.9 77.273,18.9 L 72.666,25.324 L 81.395,25.313 z "
   id="path2265" />
<polygon
   points="107.092,43.89 93.216,43.89 106.544,21.89 114.851,21.89 107.092,43.89 "
   id="polygon2267" />
<path
   d="M 115.018,13.484 C 112.993,13.153 110.438,14.199 109.424,15.931 C 108.412,17.663 109.597,19.838 111.623,20.169 C 113.648,20.499 116.34,19.591 117.353,17.857 C 118.367,16.126 117.044,13.814 115.018,13.484 z "
   id="path2269" />
<path
   d=""
   id="path2271" />
<path
   d="M 148.9,33.483 C 146.801,36.496 141.689,39.417 137.307,39.417 C 132.925,39.417 131.191,38.139 130.735,33.939 C 130.278,29.74 136.486,18.785 143.698,18.785 C 150.909,18.785 146.892,27.183 146.892,27.183 L 152.734,27.183 L 165.15,14.221 L 152.734,14.221 L 151.182,16.868 C 151.182,16.868 148.626,13.307 141.871,13.307 C 135.116,13.307 119.399,16.475 118.045,32.386 C 117.68,36.676 120.601,44.709 133.198,44.709 C 145.795,44.709 151.547,38.137 152.642,36.676 L 148.9,33.483 z "
   id="path2273" />
<path
   d="M 172.038,8.837 C 170.887,8.837 169.959,7.908 169.959,6.758 C 169.953,5.613 170.887,4.679 172.038,4.679 C 173.182,4.679 174.117,5.614 174.117,6.758 C 174.116,7.908 173.182,8.83 172.038,8.837 z M 172.031,4.92 C 171.018,4.92 170.194,5.745 170.199,6.764 C 170.199,7.776 171.018,8.602 172.037,8.596 C 173.049,8.596 173.874,7.776 173.874,6.758 C 173.875,5.745 173.049,4.92 172.031,4.92 z M 171.26,5.553 L 172.284,5.553 C 172.64,5.553 172.983,5.619 173.013,6.138 C 173.026,6.433 172.935,6.541 172.712,6.709 C 172.947,6.86 172.953,6.897 172.99,7.294 C 173.013,7.595 172.972,7.644 173.098,7.842 L 172.748,7.842 L 172.7,7.554 C 172.652,7.283 172.785,6.861 172.309,6.861 L 171.556,6.861 L 171.556,7.842 L 171.261,7.842 L 171.261,5.553 L 171.26,5.553 z M 171.555,5.812 L 171.555,6.601 L 172.29,6.601 C 172.489,6.601 172.681,6.547 172.711,6.252 C 172.753,5.86 172.47,5.812 172.29,5.812 L 171.555,5.812 L 171.555,5.812 z "
   id="path2275" />
<path
   d="M 23.559,4.638 C 18.878,4.638 15.147,8.499 15.147,13.262 C 15.147,17.438 18.878,21.625 23.559,21.625 C 27.984,21.625 31.843,17.633 31.843,13.262 C 31.843,8.499 28.241,4.638 23.559,4.638 z "
   id="path2277" />
<path
   d="M 21.379,14.218 C 22.583,14.218 24.371,12.79 24.371,11.175 C 24.371,9.494 23.032,8.131 21.379,8.131 C 19.727,8.131 18.387,9.494 18.387,11.175 C 18.387,12.856 19.728,14.218 21.379,14.218 z "
   style="fill:#ffffff"
   id="path2279" />
<path
   d="M 24.881,23.525 C 25.2,23.522 25.426,23.224 25.426,23.224 L 25.09,24.087 C 25.09,24.087 25.103,23.983 24.955,23.943 C 24.813,23.906 24.75,23.971 24.577,23.94 C 24.39,23.907 24,23.684 23.84,23.624 C 23.745,23.588 23.688,23.647 23.639,23.778 C 23.591,23.908 23.551,24.08 23.631,24.471 C 23.711,24.862 23.927,25.294 24.007,25.343 C 24.088,25.392 24.168,25.425 24.328,25.31 C 24.488,25.197 24.905,24.822 24.905,24.822 L 23.142,27.545 L 21.747,25.099 L 21.963,25.198 C 21.963,25.198 22.15,25.334 22.364,25.263 C 22.66,25.165 22.804,24.675 22.853,24.447 C 22.901,24.219 22.946,24.02 22.901,23.811 C 22.942,24.004 22.737,23.377 22.693,23.355 C 22.661,23.338 22.477,23.428 22.364,23.526 C 22.252,23.625 22.06,23.689 21.931,23.706 C 21.802,23.723 21.498,23.592 21.474,23.779 L 20.761,22.858 C 20.761,22.858 21.37,23.331 21.682,23.323 C 22.131,23.311 22.355,22.947 22.355,22.947 C 22.355,22.947 22.475,22.459 22.611,22.459 C 22.747,22.459 23.727,22.374 23.973,22.557 C 24.015,22.588 24.005,23.103 24.197,23.25 C 24.2,23.249 24.5,23.53 24.881,23.525 z "
   id="path2281" />
<path
   d="M 28.031,39.464 C 28.254,39.586 31.268,41.991 31.268,41.991 C 31.268,41.991 33.271,43.099 33.528,43.181 C 33.784,43.262 34.025,43.246 34.025,43.246 C 34.025,43.246 34.041,43.083 33.993,42.935 C 33.945,42.789 32.919,40.979 32.759,40.784 C 32.599,40.588 29.489,37.751 29.489,37.751 C 29.489,37.751 29.249,37.23 29.521,36.756 C 29.793,36.284 29.938,35.925 29.954,35.485 C 29.97,35.029 30.018,34.865 30.018,34.865 L 30.082,31.36 C 30.082,31.36 30.098,28.376 29.793,27.79 C 29.793,27.79 27.662,24.32 26.139,22.931 C 25.674,22.507 25.482,23.044 25.482,23.044 C 25.482,23.044 24.512,25.083 24.432,25.197 C 24.352,25.31 23.174,26.127 23.174,26.127 L 22.148,25.246 C 22.148,25.246 21.587,24.023 21.523,23.86 C 21.455,23.687 20.953,23.066 20.866,22.964 C 20.77,22.849 20.53,22.653 20.049,22.751 C 19.569,22.849 17.565,23.387 17.213,23.501 C 16.861,23.615 16.604,24.023 16.508,24.3 C 16.412,24.577 16.091,25.328 16.091,25.328 C 16.091,25.328 4.905,14.99 4.809,14.893 C 4.713,14.794 4.216,14.387 4.12,14.843 C 4.023,15.3 3.694,17.01 3.767,17.437 C 3.895,18.186 4.389,19.537 5.867,21.562 C 7.438,23.713 10.534,26.549 11.765,27.399 C 12.214,27.709 12.198,27.382 12.198,27.382 L 12.246,26.763 C 12.246,26.763 11.99,26.42 11.781,26.388 C 11.573,26.355 11.653,26.55 11.396,26.355 C 11.14,26.16 6.777,21.669 6.637,21.431 C 6.445,21.105 6.445,20.648 6.829,20.958 C 7.214,21.268 13.24,27.529 15.131,28.882 C 15.131,28.882 14.25,33.464 14.25,33.611 C 14.25,33.758 14.442,34.117 14.811,34.344 C 15.18,34.573 16.67,35.453 16.734,35.519 C 16.798,35.584 17.023,35.632 17.023,36.513 C 17.023,37.394 16.959,40.703 16.959,40.703 C 16.959,40.703 17.055,41.224 17.584,41.29 C 18.113,41.355 18.369,41.339 18.369,42.04 C 18.369,42.741 18.369,43.263 18.369,43.263 C 18.369,43.263 18.449,43.638 19.01,43.703 C 19.571,43.768 19.459,44.307 19.459,44.307 L 19.36,50.34 C 19.36,50.34 19.36,50.731 18.975,50.959 C 18.591,51.187 17.597,52.035 17.276,52.589 C 16.956,53.144 16.779,53.533 16.796,53.698 C 16.828,54.024 17.437,54.285 17.918,54.122 C 18.399,53.959 21.604,52.068 21.828,52.133 C 22.053,52.198 23.014,52.525 23.014,52.525 L 23.495,52.623 C 23.495,52.623 25.001,53.504 25.226,53.569 C 25.45,53.633 26.765,53.731 26.732,52.949 C 26.699,52.142 26.572,52.004 26.412,51.873 C 26.251,51.743 25.354,51.155 25.162,50.927 C 24.97,50.699 24.873,50.406 24.873,49.982 C 24.873,49.558 24.937,47.895 24.937,47.895 L 25.065,44.389 C 25.065,44.389 25.113,43.965 25.658,43.786 C 25.658,43.786 26.107,43.867 26.091,43.198 C 26.085,42.935 26.091,41.992 26.123,41.796 C 26.155,41.601 26.154,41.372 26.892,41.372 C 27.677,41.372 27.694,41.062 27.694,40.721 C 27.694,40.411 27.694,39.677 27.694,39.677 C 27.694,39.677 27.614,39.235 28.031,39.464 z "
   id="path2283" />
<path
   d="M 23.175,27.978 C 23.495,27.978 24.04,27.122 24.264,26.698 C 24.264,26.698 25.066,25.329 25.162,25.14 C 25.258,24.952 25.635,23.95 25.69,23.893 C 25.746,23.836 25.891,23.616 26.075,23.795 C 26.259,23.974 28.607,26.608 29.079,27.928 C 29.25,28.407 29.415,29.103 29.456,30.513 C 29.496,31.923 29.6,34.361 29.512,34.899 C 29.424,35.437 29.221,36.804 28.101,37.32 C 27.848,37.437 27.837,37.32 27.748,37.19 C 27.66,37.059 27.468,36.497 27.468,35.469 C 27.468,34.441 27.572,30.936 27.58,30.79 C 27.588,30.643 27.268,30.178 27.059,30.684 C 26.851,31.189 26.867,35.208 26.867,35.208 C 26.867,35.208 27.003,39.644 26.987,39.749 C 26.971,39.855 26.963,40.711 26.338,40.743 C 25.839,40.769 18.67,40.605 18.301,40.621 C 17.932,40.638 17.636,40.328 17.636,40.084 C 17.636,39.976 17.592,37.99 17.705,35.597 C 17.849,32.546 18.076,29.131 18.076,29.013 C 18.076,28.801 18.076,28.059 17.78,28.792 C 17.484,29.525 16.81,31.809 16.81,32.159 C 16.81,32.379 16.722,32.51 16.882,32.616 C 16.963,32.669 17.387,33.064 17.395,33.43 C 17.407,33.961 17.392,34.165 17.339,34.303 C 17.283,34.449 17.203,34.849 16.506,34.637 C 15.809,34.425 14.943,33.887 14.927,33.552 C 14.911,33.219 15.199,31.865 15.232,31.604 C 15.266,31.328 15.977,28.188 15.977,28.188 C 15.977,28.188 16.747,25.433 16.795,25.27 C 16.843,25.107 17.011,24.161 18.037,23.884 C 19.063,23.607 19.559,23.484 19.8,23.459 C 20.04,23.435 20.457,23.231 20.761,23.794 C 21.065,24.357 21.869,26.212 22.34,26.973 C 22.518,27.26 22.854,27.978 23.175,27.978 z "
   style="fill:#fdb913"
   id="path2285" />
<path
   d="M 20.466,41.412 C 20.666,41.412 21.988,41.339 21.94,42.203 C 21.892,43.067 21.427,43.377 20.321,43.328 C 19.216,43.279 18.933,42.936 18.911,42.366 C 18.872,41.355 20.266,41.412 20.466,41.412 z "
   style="fill:#fdb913"
   id="path2287" />
<path
   d="M 24.152,41.388 C 24.457,41.388 25.572,41.364 25.546,42.415 C 25.518,43.524 24.649,43.377 24.071,43.377 C 23.494,43.377 22.42,43.491 22.388,42.269 C 22.365,41.331 23.848,41.388 24.152,41.388 z "
   style="fill:#fdb913"
   id="path2289" />
<path
   d="M 20.434,43.883 C 20.722,43.869 21.139,43.883 21.315,43.883 C 21.491,43.883 21.812,43.932 21.844,44.487 C 21.876,45.041 21.876,45.498 21.876,45.498 C 21.876,45.498 21.828,46.509 21.812,46.623 C 21.796,46.737 21.796,47.308 21.091,47.308 C 20.386,47.308 20.418,47.308 20.354,47.308 C 20.29,47.308 19.889,47.21 19.889,46.46 C 19.889,45.71 19.921,44.52 19.953,44.34 C 19.985,44.159 20.065,43.898 20.434,43.883 z "
   style="fill:#ffffff"
   id="path2291" />
<path
   d="M 23.688,43.85 C 23.896,43.85 24.04,43.844 24.153,43.883 C 24.583,44.031 24.555,44.111 24.538,44.991 C 24.516,46.099 24.474,46.54 24.458,46.72 C 24.442,46.9 24.186,47.34 23.656,47.356 C 23.127,47.373 23.112,47.356 23.112,47.356 C 23.112,47.356 22.551,47.389 22.519,46.85 C 22.487,46.313 22.535,44.617 22.551,44.242 C 22.567,43.867 22.998,43.851 23.688,43.85 z "
   style="fill:#ffffff"
   id="path2293" />
<path
   d="M 21.3,47.959 C 21.508,47.959 21.813,47.926 21.813,48.432 C 21.813,48.938 21.813,49.574 21.813,49.574 C 21.813,49.574 21.829,50.063 21.364,50.063 C 20.899,50.063 20.611,50.063 20.434,50.063 C 20.257,50.063 20.001,49.916 19.985,49.589 C 19.969,49.264 19.937,49.133 19.953,48.775 C 19.969,48.416 19.953,47.96 20.401,47.96 C 20.851,47.959 21.3,47.959 21.3,47.959 z "
   style="fill:#fdb913"
   id="path2295" />
<path
   d="M 23.591,47.959 C 23.719,47.959 24.248,47.976 24.264,48.432 C 24.28,48.888 24.271,49.419 24.264,49.574 C 24.248,49.9 23.992,50.063 23.591,50.063 C 23.19,50.063 23.206,50.079 23.046,50.063 C 22.886,50.046 22.389,50.095 22.389,49.426 C 22.389,49.083 22.389,48.415 22.389,48.415 C 22.389,48.415 22.453,47.942 22.966,47.959 C 23.479,47.976 23.591,47.959 23.591,47.959 z "
   style="fill:#fdb913"
   id="path2297" />
<path
   d="M 25.178,52.899 C 24.842,52.818 24.409,52.508 24.185,52.393 C 23.96,52.279 22.935,51.969 22.758,51.839 C 22.582,51.708 22.229,51.382 22.454,50.99 C 22.678,50.599 22.887,50.534 23.239,50.566 C 23.592,50.599 23.88,50.631 24.008,50.697 C 24.136,50.762 24.264,50.925 24.344,51.17 C 24.425,51.415 24.569,51.513 24.745,51.513 C 24.921,51.513 25.066,51.659 25.13,51.742 C 25.194,51.823 25.419,51.905 25.61,51.937 C 25.803,51.969 26.251,52.279 26.219,52.556 C 26.187,52.833 26.203,52.867 25.898,52.914 C 25.595,52.965 25.515,52.98 25.178,52.899 z "
   style="fill:#fdb913"
   id="path2299" />
<path
   d="M 20.129,50.682 C 20.45,50.682 21.011,50.666 21.219,50.699 C 21.427,50.731 21.683,50.878 21.667,51.237 C 21.651,51.595 21.507,51.677 21.203,51.808 C 20.898,51.938 20.786,51.954 20.53,52.019 C 20.274,52.084 19.697,52.557 19.552,52.77 C 19.407,52.981 18.558,53.438 18.126,53.503 C 17.694,53.568 17.501,53.682 17.404,53.471 C 17.308,53.258 17.404,52.932 17.725,52.557 C 18.046,52.182 18.398,52.069 18.703,51.987 C 19.008,51.906 19.424,51.579 19.569,51.335 C 19.713,51.089 19.777,50.682 20.129,50.682 z "
   style="fill:#fdb913"
   id="path2301" />
<g
   id="g2303">
<path
   d="M 20.819,46.116 C 20.691,46.116 20.466,46.035 20.466,45.561 C 20.466,45.088 20.77,45.007 20.931,45.007 C 21.091,45.007 21.235,45.202 21.235,45.48 C 21.235,45.757 21.139,46.116 20.819,46.116 z "
   id="path2305" />
</g>
<g
   id="g2307">
<path
   d="M 23.479,46.133 C 23.479,46.133 23.046,46.1 23.046,45.644 C 23.046,45.188 23.286,44.992 23.463,44.992 C 23.64,44.992 23.896,45.09 23.896,45.498 C 23.896,45.904 23.719,46.133 23.479,46.133 z "
   id="path2309" />
</g>
</g>
</svg>