<?xml version="1.0" encoding="UTF-8" standalone="no"?>
<!-- Created with Inkscape (http://www.inkscape.org/) -->

<svg
   xmlns:dc="http://purl.org/dc/elements/1.1/"
   xmlns:cc="http://creativecommons.org/ns#"
   xmlns:rdf="http://www.w3.org/1999/02/22-rdf-syntax-ns#"
   xmlns:svg="http://www.w3.org/2000/svg"
   xmlns="http://www.w3.org/2000/svg"
   xmlns:sodipodi="http://sodipodi.sourceforge.net/DTD/sodipodi-0.dtd"
   xmlns:inkscape="http://www.inkscape.org/namespaces/inkscape"
   version="1.0"
   width="399.45786"
   height="169.22096"
   id="svg2"
   inkscape:version="0.47 r22583"
   sodipodi:docname="Braun_Logo.svg">
  <metadata
     id="metadata13">
    <rdf:RDF>
      <cc:Work
         rdf:about="">
        <dc:format>image/svg+xml</dc:format>
        <dc:type
           rdf:resource="http://purl.org/dc/dcmitype/StillImage" />
      </cc:Work>
    </rdf:RDF>
  </metadata>
  <sodipodi:namedview
     pagecolor="#ffffff"
     bordercolor="#666666"
     borderopacity="1"
     objecttolerance="10"
     gridtolerance="10"
     guidetolerance="10"
     inkscape:pageopacity="0"
     inkscape:pageshadow="2"
     inkscape:window-width="1280"
     inkscape:window-height="722"
     id="namedview11"
     showgrid="false"
     inkscape:zoom="0.52902657"
     inkscape:cx="442.91339"
     inkscape:cy="187.62988"
     inkscape:window-x="-8"
     inkscape:window-y="20"
     inkscape:window-maximized="1"
     inkscape:current-layer="svg2" />
  <defs
     id="defs4">
    <inkscape:perspective
       sodipodi:type="inkscape:persp3d"
       inkscape:vp_x="0 : 223.05118 : 1"
       inkscape:vp_y="0 : 1000 : 0"
       inkscape:vp_z="956.69287 : 223.05118 : 1"
       inkscape:persp3d-origin="478.34644 : 148.70079 : 1"
       id="perspective15" />
  </defs>
  <g
     transform="matrix(0.45094353,0,0,0.45094353,357.14835,54.396579)"
     id="layer1">
    <g
       transform="translate(35.43305,35.421298)"
       id="g2414"
       style="fill:#000000">
      <path
         d="m -755.77392,173.4791 c -12.04864,0 -25.61009,0 -25.61009,0 l 0,-78.863135 c 0,0 13.15304,0 25.61009,0 17.54966,0 25.67707,13.084765 25.67707,36.501805 0,32.15511 -9.75185,42.36133 -25.67707,42.36133 m -25.61009,-193.281256 c 0,0 12.93505,0 24.98369,0 12.89698,0 23.33563,9.490523 23.33563,35.636407 0,26.422971 -12.06309,35.562868 -23.33563,35.562868 -12.45705,0 -24.98369,0 -24.98369,0 l 0,-71.199275 z m 68.34437,89.829696 0,-0.216679 c 10.15369,-7.126756 26.38488,-19.384199 26.38488,-58.777682 0,-50.89846 -26.55691,-73.950437 -62.43232,-73.950437 -12.15239,0 -78.34836,0 -78.34836,0 l 0,279.487818 c 0,0 43.66533,0 77.93864,0 44.17223,0 65.6825,-32.74473 65.6825,-81.53156 0,-45.515639 -17.85563,-58.084311 -29.22534,-65.01146 z"
         id="path7"
         style="fill:#000000" />
      <path
         d="m -599.12054,-19.802156 c 0,0 12.92718,0 24.9837,0 12.89697,0 23.29886,9.490523 23.29886,35.636407 0,26.422971 -12.02632,35.562868 -23.29886,35.562868 -12.45836,0 -24.9837,0 -24.9837,0 l 0,-71.199275 M -505.25012,123.035 c 0,-34.830096 -10.81029,-44.613463 -25.52736,-53.00746 l 0,-0.216679 c 10.155,-7.126756 26.24437,-19.384199 26.24437,-58.777682 0,-50.89846 -26.41509,-73.950437 -62.2905,-73.950437 -12.16027,0 -78.34967,0 -78.34967,0 l 0,279.487818 46.02122,0 0.0302,-121.954595 c 0,0 12.52533,0 24.97582,0 13.0992,0 22.46234,10.883835 22.46234,35.585195 l 0,86.37071 46.40862,0 0.025,-93.53687 z"
         id="path9"
         style="fill:#000000" />
      <path
         d="m -415.47164,-88.181983 c 0,-21.016507 19.2949,-23.730907 29.95549,-23.730907 10.6619,0 29.88195,2.66187 29.88195,23.730907 l -0.0171,139.579102 -59.85188,0 0.0315,-139.579102 m 29.95549,-67.867677 c -19.46562,0 -75.94125,4.41368 -75.94125,60.926083 l 0,311.732217 46.04354,0 0,-121.970351 59.78491,0 -0.0158,121.919141 46.08163,0 0,-311.681007 c 10e-4,-56.617463 -56.54786,-60.926083 -75.95307,-60.926083 z"
         id="path11"
         style="fill:#000000" />
      <path
         d="m -171.64518,-62.976352 0,220.016762 c 0,11.19638 -9.25808,18.67639 -23.01258,18.67639 -13.81621,0 -22.90358,-7.49314 -22.90358,-18.67639 l -0.0355,-220.016762 -46.03041,0.05909 -0.0105,227.307672 c 0,43.27926 44.49397,54.81969 69.02986,54.81969 24.31266,0 68.99966,-11.59953 68.99966,-54.8709 l 0,-227.315556 -46.03698,0"
         id="path13"
         style="fill:#000000" />
      <path
         d="M 12.363544,216.5351 12.346472,-3.3857971 c 0,-11.1963739 -9.2515194,-18.6750689 -22.999448,-18.6750689 -13.816216,0 -22.91803,7.499706 -22.91803,18.6750689 l -0.01445,219.9208971 -46.044859,0.0355 0,-227.306358 c 0,-43.279252 44.501845,-54.819686 69.037742,-54.819686 24.312652,0 68.983901,11.599528 68.983901,54.870901 l 0,227.218373 -46.027788,0"
         id="path15"
         style="fill:#000000" />
    </g>
  </g>
</svg>
