<?xml version="1.0" encoding="utf-8"?>
<!-- Generator: Adobe Illustrator 15.0.0, SVG Export Plug-In . SVG Version: 6.00 Build 0)  -->
<!DOCTYPE svg PUBLIC "-//W3C//DTD SVG 1.1//EN" "http://www.w3.org/Graphics/SVG/1.1/DTD/svg11.dtd" [
	<!ENTITY ns_extend "http://ns.adobe.com/Extensibility/1.0/">
	<!ENTITY ns_ai "http://ns.adobe.com/AdobeIllustrator/10.0/">
	<!ENTITY ns_graphs "http://ns.adobe.com/Graphs/1.0/">
	<!ENTITY ns_vars "http://ns.adobe.com/Variables/1.0/">
	<!ENTITY ns_imrep "http://ns.adobe.com/ImageReplacement/1.0/">
	<!ENTITY ns_sfw "http://ns.adobe.com/SaveForWeb/1.0/">
	<!ENTITY ns_custom "http://ns.adobe.com/GenericCustomNamespace/1.0/">
	<!ENTITY ns_adobe_xpath "http://ns.adobe.com/XPath/1.0/">
]>
<svg version="1.1"
	 id="Layer_1" xmlns:x="&ns_extend;" xmlns:i="&ns_ai;" xmlns:graph="&ns_graphs;" xmlns:svg="http://www.w3.org/2000/svg"
	 xmlns="http://www.w3.org/2000/svg" xmlns:xlink="http://www.w3.org/1999/xlink" x="0px" y="0px" width="130.951px"
	 height="89.525px" viewBox="-5.526 -3.738 130.951 89.525" enable-background="new -5.526 -3.738 130.951 89.525"
	 xml:space="preserve">
<metadata>
	<sfw  xmlns="&ns_sfw;">
		<slices></slices>
		<sliceSourceBounds  y="375.737" x="232.024" width="130.951" height="89.525" bottomLeftOrigin="true"></sliceSourceBounds>
	</sfw>
</metadata>
<rect x="-5.526" y="-3.738" width="130.951" height="89.525"/>
<path fill="#D3D4D6" d="M39.6,61.951L36.6,60c-2.934-0.333-6.15-0.333-9.65,0c0.566,3.834,0.783,6.734,0.65,8.701h6.55
	c0.967-0.268,1.899-0.885,2.8-1.851v5.3l-1-0.9c-0.566-0.399-1.167-0.649-1.8-0.75H27.6c-0.134,2.634-0.45,5.234-0.95,7.801
	c2.333,0.366,5.6,0.434,9.8,0.199c1.033,0.167,2.217-0.366,3.55-1.6c-0.5,1.6-0.717,2.85-0.649,3.75H22.25
	c1.867-3.3,2.867-6.916,3-10.85c0.134-4.134-0.733-8.167-2.6-12.1H38.1L39.6,61.951"/>
<path fill="#D3D4D6" d="M63.6,57.4c1.467,0.334,3.066,0.334,4.8,0c-0.7,3.066-1.101,6.334-1.2,9.801
	c-0.133,3.933,0.134,7.482,0.8,10.649c3.367,0.5,6.717,0.5,10.05,0c1.101-0.2,2.301-0.649,3.601-1.351
	c-1.167,1.434-1.934,2.768-2.3,4L63.75,80.451C65.717,73.451,65.667,65.767,63.6,57.4"/>
<path fill="#D3D4D6" d="M44.3,57.4c1.434,0.334,3.051,0.334,4.851,0c-0.7,3.066-1.117,6.334-1.25,9.801
	c-0.134,3.899,0.133,7.416,0.8,10.549c3.4,0.601,6.783,0.601,10.15,0l3.6-1.25c-1.2,1.467-1.967,2.801-2.3,4l-15.7-0.049
	C46.417,73.417,46.367,65.734,44.3,57.4"/>
<path fill="#D3D4D6" d="M83.55,57.25c2.067,0.467,3.834,0.5,5.301,0.101c-1.167,3.333-1.75,7-1.75,11
	c0.033,4.101,0.649,8.101,1.85,12c-1.733-0.399-3.533-0.399-5.4,0C85.817,73.617,85.817,65.917,83.55,57.25"/>
<path fill="#D3D4D6" d="M114.55,57.35c2.167,0.399,3.934,0.417,5.301,0.05c-1.167,3.334-1.75,7-1.75,11c0,4.1,0.6,8.117,1.8,12.051
	c-1.667-0.467-3.45-0.467-5.351,0c1.268-3.701,1.851-7.617,1.75-11.75C116.2,65.267,115.617,61.484,114.55,57.35"/>
<path fill="#D3D4D6" d="M91.9,57.201l4.45,0.049c0.666-0.033,2.733,1.967,6.199,6c3.733,4.367,6.117,7.934,7.15,10.701
	c0.566-5.701,0.217-11.284-1.05-16.75c1.833,0.332,3.3,0.332,4.399,0c-0.633,2.666-1,5.75-1.1,9.25L112,75.85l-0.649,3
	c-0.267,0.866-0.634,1.399-1.101,1.601L109.8,80.4c-0.199,0.1-0.333,0.066-0.399-0.1c-1.434-4.134-3.434-8.018-6-11.65
	c-2.5-3.5-5.017-6.1-7.55-7.8c1.133,10,0.149,16.767-2.95,20.3c-0.967,0.301-1.583,0.117-1.851-0.55
	c1.667-2.067,2.667-5.417,3-10.05C94.384,65.484,93.667,61.033,91.9,57.201"/>
<path fill="#D3D4D6" d="M14.75,57.15c2.101,0.467,3.667,1.517,4.7,3.15L19.75,63c-2.233-3.066-5.233-4.083-9-3.049
	c-3.967,1.1-6.133,4.299-6.5,9.6C4.084,74.25,5.766,77.367,9.3,78.9c3.534,1.533,7.084,0.767,10.65-2.3l-0.35,2.7
	C15.033,82.5,10.766,82.9,6.8,80.5C3.067,78.201,1.167,74.55,1.1,69.55c-0.067-6.033,2.449-10,7.55-11.9
	C10.717,56.85,12.75,56.683,14.75,57.15"/>
<path fill="#D7B56D" d="M38.45,61.55c-1.3-1.033-2.283-1.7-2.95-2c-2.967-0.334-6.2-0.334-9.7,0c0.601,3.6,0.834,6.533,0.7,8.8H33
	c1.033-0.3,1.967-0.934,2.8-1.899v5.35c-0.899-1-1.833-1.584-2.8-1.75h-6.5c-0.166,2.4-0.467,5-0.899,7.8
	c2.5,0.399,5.733,0.466,9.699,0.2c1.034,0.199,2.217-0.316,3.551-1.551c-0.5,1.701-0.717,2.934-0.65,3.701H21.1
	c1.866-3.334,2.883-6.934,3.05-10.801c0.133-4.166-0.75-8.217-2.65-12.15h15.55L38.45,61.55"/>
<path fill="#D7B56D" d="M62.5,56.951c1.5,0.332,3.084,0.332,4.75,0c-0.7,3.066-1.1,6.332-1.2,9.799
	c-0.133,3.934,0.15,7.484,0.851,10.65c3.434,0.5,6.8,0.5,10.1,0c1.033-0.199,2.2-0.65,3.5-1.35c-1.267,1.833-2.033,3.184-2.3,4.05
	L62.65,80C64.584,72.966,64.533,65.283,62.5,56.951"/>
<path fill="#D7B56D" d="M43.2,56.951c1.5,0.332,3.083,0.332,4.75,0c-0.7,3.133-1.1,6.399-1.2,9.799
	c-0.133,3.934,0.15,7.484,0.851,10.65c3.399,0.5,6.783,0.5,10.149,0l3.55-1.35c-1.232,1.566-2,2.916-2.3,4.05L43.35,80
	C45.283,72.867,45.233,65.183,43.2,56.951"/>
<path fill="#D7B56D" d="M82.4,56.8c2.167,0.5,3.934,0.533,5.3,0.1c-1.167,3.334-1.75,7-1.75,11c0.033,4.1,0.65,8.117,1.85,12.051
	c-1.633-0.434-3.433-0.434-5.399,0C84.7,73.35,84.7,65.633,82.4,56.8"/>
<path fill="#D7B56D" d="M113.4,56.9c2.033,0.467,3.8,0.483,5.3,0.051c-1.167,3.299-1.733,6.966-1.7,11c0,4.1,0.601,8.115,1.8,12.049
	c-1.699-0.434-3.5-0.434-5.399,0C115.7,73.3,115.7,65.6,113.4,56.9"/>
<path fill="#D7B56D" d="M90.75,56.75L95.3,56.8c0.601-0.033,2.634,1.982,6.101,6.05c3.733,4.399,6.116,7.966,7.149,10.7
	c0.534-5.634,0.217-11.234-0.949-16.801c1.633,0.367,3.1,0.367,4.399,0c-0.633,2.701-1.017,5.783-1.149,9.25
	c-0.101,2.101-0.101,5.234,0,9.4c-0.367,2.7-0.95,4.233-1.75,4.6l-0.4-0.049l-0.45-0.101c-1.433-4.101-3.433-7.967-6-11.601
	c-2.5-3.5-5.017-6.116-7.55-7.85c1.134,10.1,0.15,16.883-2.95,20.35c-0.967,0.234-1.583,0.051-1.85-0.549
	c1.667-2.101,2.667-5.451,3-10.051C93.3,65.05,92.584,60.583,90.75,56.75"/>
<path fill="#D7B56D" d="M13.65,56.701c2.1,0.466,3.684,1.516,4.75,3.149l0.2,2.75c-2.267-3.101-5.25-4.134-8.95-3.101
	c-4,1.134-6.184,4.351-6.55,9.65c-0.167,4.666,1.517,7.767,5.05,9.301c3.533,1.533,7.083,0.783,10.649-2.25l-0.35,2.649
	c-4.566,3.2-8.833,3.601-12.8,1.2C1.884,77.75,0,74.117,0,69.15c-0.1-6.033,2.4-10.017,7.5-11.949
	C9.6,56.4,11.65,56.234,13.65,56.701"/>
<polyline fill="#D3D4D6" points="68.7,0.45 56.1,0.45 56.1,32.4 68.7,32.4 68.7,0.45 "/>
<rect x="55.6" fill="#D7B56D" width="12.6" height="31.9"/>
</svg>
