<?xml version="1.0" encoding="utf-8"?>
<!-- Generator: Adobe Illustrator 15.0.0, SVG Export Plug-In . SVG Version: 6.00 Build 0)  -->
<!DOCTYPE svg PUBLIC "-//W3C//DTD SVG 1.1//EN" "http://www.w3.org/Graphics/SVG/1.1/DTD/svg11.dtd" [
	<!ENTITY ns_extend "http://ns.adobe.com/Extensibility/1.0/">
	<!ENTITY ns_ai "http://ns.adobe.com/AdobeIllustrator/10.0/">
	<!ENTITY ns_graphs "http://ns.adobe.com/Graphs/1.0/">
	<!ENTITY ns_vars "http://ns.adobe.com/Variables/1.0/">
	<!ENTITY ns_imrep "http://ns.adobe.com/ImageReplacement/1.0/">
	<!ENTITY ns_sfw "http://ns.adobe.com/SaveForWeb/1.0/">
	<!ENTITY ns_custom "http://ns.adobe.com/GenericCustomNamespace/1.0/">
	<!ENTITY ns_adobe_xpath "http://ns.adobe.com/XPath/1.0/">
]>
<svg version="1.1" id="Layer_1" xmlns:x="&ns_extend;" xmlns:i="&ns_ai;" xmlns:graph="&ns_graphs;"
	 xmlns="http://www.w3.org/2000/svg" xmlns:xlink="http://www.w3.org/1999/xlink" x="0px" y="0px" width="240.75px"
	 height="25.127px" viewBox="0 0 240.75 25.127" enable-background="new 0 0 240.75 25.127" xml:space="preserve">
<metadata>
	<sfw  xmlns="&ns_sfw;">
		<slices></slices>
		<sliceSourceBounds  y="-473.149" x="176.787" width="240.75" height="25.128" bottomLeftOrigin="true"></sliceSourceBounds>
	</sfw>
</metadata>
<path fill="#4C1F2A" d="M52.942,10.76c-0.087,1.177-1.219,1.51-1.57,1.588l-0.121,0.023l-0.108,0.019
	c-0.096,0.019-0.161,0.103-0.165,0.198l0.013,0.568l0.002,7.861c0.001,1.48,0.356,2.623,1.065,3.398l-6.846,0.011
	c0.704-0.769,1.066-1.916,1.066-3.409l-0.003-7.211c0-0.066-0.029-0.126-0.067-0.174c-0.047-0.051-0.127-0.082-0.183-0.078
	l-10.227,0.006c-0.135,0.007-0.243,0.105-0.25,0.252l0.007,7.203c-0.001,1.461,0.343,2.607,1.029,3.4l-6.811,0.004
	c0.339-0.373,0.588-0.827,0.757-1.377c0.177-0.574,0.264-1.246,0.264-2.027v-8.423c-0.001-0.101-0.068-0.185-0.168-0.203
	l-0.113-0.019l-0.108-0.023c-0.354-0.078-1.482-0.409-1.572-1.585c0.784-0.058,1.468-0.472,1.873-1.13
	c0.011-0.02,0.018-0.045,0.017-0.065h0.005C30.746,9.5,30.783,9.36,30.782,9.22l0.002-0.005V4.101
	c-0.001-1.483-0.321-2.601-0.991-3.39l6.757-0.006c-0.67,0.85-1.001,1.988-1.002,3.398v4.705c0.003,0.07,0.025,0.124,0.062,0.167
	c0.058,0.058,0.125,0.086,0.189,0.086h10.225c0.062,0.003,0.132-0.033,0.176-0.076c0.052-0.053,0.073-0.106,0.075-0.183L46.27,4.104
	c0.001-1.463-0.338-2.584-1.036-3.398l6.791-0.004C51.328,1.516,50.99,2.641,50.99,4.1v5.094c-0.005,0.021,0.004,0.027,0,0.03
	c0.001,0.085,0.012,0.17,0.024,0.233c0.007,0.033,0.014,0.064,0.018,0.084l0.003,0.006c0.009,0.048,0.017,0.066,0.026,0.074
	C51.477,10.293,52.16,10.709,52.942,10.76"/>
<path fill="#4C1F2A" d="M84.359,24.435c-0.569-0.465-1.035-1.024-1.437-1.74l-4.451-9.948c-0.008-0.021-0.016-0.052-0.013-0.08
	c-0.007-0.137,0.156-0.229,0.254-0.272c0.291-0.135,0.573-0.336,0.758-0.603c0.11-0.156,0.167-0.345,0.206-0.528
	c0.009-0.045,0.082-0.482,0.046-0.485c-1.083-0.031-2.895-1.732-3.204-2.382l-1.989-4.362c-0.227-0.729-0.342-1.371-0.342-1.929
	c0.002-0.539,0.113-1,0.337-1.382l-7.811,0.006c0.21,0.384,0.315,0.844,0.314,1.376c0.001,0.585-0.125,1.252-0.387,2.006
	l-1.908,4.285c-0.315,0.653-2.131,2.351-3.226,2.382c0.006,0.678,0.327,1.245,0.946,1.582l0.12,0.057l0.111,0.069
	c0.064,0.036,0.1,0.097,0.105,0.181c0.002,0.025-0.003,0.055-0.017,0.082l-4.352,9.729c-0.382,0.891-0.951,1.482-1.542,1.969
	l7.501-0.005c-0.303-0.452-0.456-1.022-0.455-1.729c0-0.515,0.084-1.107,0.254-1.803l0.976-2.177l0.042-0.089l0.047-0.109
	c0.037-0.09,0.129-0.146,0.228-0.144l10.313-0.006c0.098-0.001,0.19,0.056,0.228,0.144l0.045,0.102l0.053,0.11l1.016,2.308
	c0.14,0.606,0.213,1.158,0.213,1.654c0,0.701-0.151,1.276-0.456,1.733H84.359 M73.729,13.773c-0.043,0.069-0.125,0.119-0.211,0.119
	l-0.004-0.001h-5.831c-0.083,0.001-0.162-0.042-0.215-0.121c-0.025-0.042-0.036-0.084-0.036-0.128c0-0.038,0.01-0.073,0.025-0.109
	l0.111-0.234l2.785-6.743c0.04-0.091,0.132-0.144,0.229-0.144h0.001c0.102,0.006,0.179,0.049,0.227,0.148l2.822,6.73h0.002
	l0.107,0.244c0.016,0.032,0.026,0.069,0.024,0.107C73.765,13.691,73.753,13.733,73.729,13.773"/>
<path fill="#4C1F2A" d="M114.54,9.615c-0.005-0.008-0.009-0.012-0.017-0.033c-0.006-0.01-0.007-0.015-0.009-0.023
	c-0.004-0.012-0.006-0.025-0.011-0.055c-0.015-0.063-0.025-0.163-0.023-0.318V4.17c-0.004-1.812,0.522-2.862,1.027-3.453
	l-7.847-0.004c0.214,0.422,0.306,0.873,0.307,1.33c-0.001,0.828-0.315,1.648-0.764,2.285l-4.354,6.396l-0.144,0.218l-0.147,0.214
	c-0.043,0.062-0.119,0.106-0.203,0.104c-0.082,0.003-0.157-0.043-0.207-0.11l-0.145-0.214l-0.137-0.21l-4.354-6.398
	c-0.454-0.637-0.768-1.461-0.768-2.289c0-0.455,0.094-0.907,0.307-1.326l-7.846,0.004c0.504,0.591,1.029,1.639,1.029,3.451
	l0.001,5.018c-0.001,0.155-0.011,0.255-0.023,0.321c-0.004,0.024-0.011,0.04-0.016,0.055c-0.001,0.011-0.006,0.021-0.012,0.033
	c-0.284,0.528-0.939,1.143-1.863,1.174c0.058,0.715,0.525,1.212,1.159,1.481c0.191,0.082,0.389,0.121,0.587,0.172
	c0.102,0.025,0.157,0.113,0.158,0.199l0.009,0.555c0,0-0.004,7.812-0.004,7.814l0.009,0.051c0,1.399-0.335,2.537-1.003,3.386
	l6.754-0.005c-0.664-0.799-0.99-1.918-0.989-3.401l-0.006-11.51c0.002-0.112,0.07-0.214,0.164-0.235
	c0.006-0.003,0.044-0.02,0.075-0.015c0,0,0.016-0.003,0.015-0.001c0.075-0.002,0.164,0.043,0.211,0.115l0.313,0.475l4.72,7.041
	c0.129,0.184,0.182,0.425,0.182,0.693c-0.004,0.59-0.281,1.285-0.634,1.693h4.63c-0.356-0.408-0.633-1.105-0.635-1.695
	c0,0-0.003-0.004,0-0.015c0.002-0.257,0.056-0.495,0.181-0.674l4.722-7.044l0.317-0.48c0.047-0.072,0.133-0.108,0.211-0.108
	l0.018-0.001l0.035,0.004c0.111,0.025,0.2,0.13,0.2,0.247l-0.007,11.51c-0.001,1.483-0.325,2.599-0.99,3.401l6.754,0.005
	c-0.671-0.849-1.001-1.987-1.003-3.386l0.009-0.051l-0.005-7.818l0.01-0.547c0.001-0.094,0.06-0.182,0.16-0.203l0.03,0.123
	l-0.025-0.123l0.087-0.019l0.121-0.032c0.444-0.107,1.449-0.479,1.531-1.603C115.483,10.737,114.834,10.142,114.54,9.615"/>
<path fill="#4C1F2A" d="M13.754,4.814c2.645,0.003,4.76,0.768,5.188,1.676c0.086,0.185,0.121,0.367,0.118,0.535
	c0.003,0.194-0.051,0.37-0.154,0.528c-0.158,0.233-0.48,0.327-0.767,0.332c0,0,0.201,0.936,1.349,1.206
	c0.613,0.148,1.829-0.174,2.122-1.206c0.09-0.318,0.115-0.66,0.063-0.989c-0.067-0.459-0.298-0.866-0.493-1.275
	c-0.426-0.916-0.467-1.99-0.154-2.949c0.172-0.518,0.45-1.004,0.778-1.436c-0.245,0.049-0.505,0.069-0.777,0.071
	c-0.054-0.002-0.108-0.002-0.168-0.006c-1.772-0.076-3.43-0.821-5.178-1.05c-1.641-0.213-3.335-0.176-4.951,0.197
	C9.824,0.656,8.926,0.984,8.107,1.427C7.299,1.865,6.53,2.396,5.875,3.041C4.942,3.967,4.169,5,3.576,6.14
	C3.241,6.787,2.961,7.463,2.744,8.183c-0.252,0.834-0.769,1.551-1.467,2.089c-0.215,0.164-0.451,0.294-0.695,0.407
	C0.532,10.703-0.007,10.91,0,10.942c0.111,0.526,0.334,1.009,0.817,1.281c0.13,0.071,0.278,0.133,0.426,0.166
	c0.206,0.048,0.404,0.048,0.611,0.019c0.14-0.021,0.293-0.033,0.326,0.137c0.017,0.072,0.017,0.146,0.012,0.218
	c0,0.083-0.016,0.165-0.016,0.235c-0.004,0.209,0.021,0.414,0.031,0.617c0.014,0.321,0.058,0.651,0.103,0.975
	c0.017,0.135,0.037,0.267,0.06,0.398c0.061,0.362,0.13,0.721,0.226,1.074c0.275,1.041,0.658,2.064,1.163,3.018
	c0.253,0.479,0.538,0.946,0.851,1.391c2.064,2.904,5.644,4.656,9.597,4.656h0.013c3.243,0,6.254-1.187,8.307-3.303
	c-0.744-0.856-1.99-2.486-2.372-4.178c-1.325,1.775-3.493,2.675-5.965,2.721c-3.816,0.002-7.053-3.064-7.121-7.635
	c0.001-0.007,0-0.016-0.001-0.031c-0.003-0.088,0.064-0.183,0.156-0.197l0.111-0.021l0.121-0.032
	c0.405-0.09,1.459-0.477,1.545-1.509c-0.575-0.046-0.912-0.237-1.126-0.639c-0.13-0.247-0.183-0.513-0.183-0.757
	c0,0-0.001-0.014-0.001-0.03c0.001-0.701,0.357-1.414,0.622-1.834C8.47,7.431,8.642,7.174,8.828,6.951
	C9.982,5.552,11.843,4.812,13.754,4.814"/>
<path fill="#4C1F2A" d="M237.489,9.396c-0.432-0.481-0.954-1.213-1.1-1.614c-0.599-1.599-1.382-2.889-2.4-3.94
	c-1.933-2.074-4.699-3.132-8.228-3.136c-0.009,0-0.014,0-0.017,0L214.53,0.711c0.669,0.834,1.018,1.979,1.018,3.399v5.241
	l-0.016,0.055c0,0,0.004,0.004,0.004,0.008l-0.025,0.078c-0.008,0.017,0,0.008-0.017,0.033l-0.023,0.044
	c-0.41,0.669-1.103,1.077-1.797,1.077l0.005,0.001l-0.021,0.002c0.065,1.169,1.058,1.503,1.506,1.601l0.112,0.024l0.099,0.024
	c0.105,0.019,0.167,0.103,0.174,0.203v0.642l0.005,7.897c0,1.399-0.342,2.541-1.019,3.399l11.169-0.001h0.023
	c4.403-0.003,7.261-1.355,9.288-4.375c1.241-1.859,2.024-4.273,2.146-6.625c0.003-0.055,0.005-0.136,0.005-0.227
	c0-0.277-0.015-0.521-0.015-0.543l0.006-0.103l0.004-0.124c0.005-0.081,0.08-0.178,0.167-0.185l0.124-0.019l0.115-0.021l0.296-0.047
	l0.05-0.004c0.081-0.008,0.173-0.024,0.216-0.041c0.75-0.265,1.182-0.795,1.242-1.498C238.863,10.558,238.238,10.142,237.489,9.396
	 M230.687,17.668c-0.885,1.186-2.031,2.268-6.048,2.268h-4.102c-0.143,0-0.257-0.111-0.257-0.253l-0.005-14.126
	c0.002-0.066,0.027-0.135,0.07-0.184l0.096,0.086l-0.082-0.098c0.047-0.039,0.101-0.06,0.171-0.062l4.092,0.001h0.026
	c4.116-0.001,5.301,1.199,6.144,2.42c0.805,1.173,1.28,2.977,1.28,4.849C232.072,14.467,231.557,16.367,230.687,17.668"/>
<path fill="#4C1F2A" d="M206.014,22.471l-3.572-6.762l-0.07-0.153c-0.013-0.022-0.033-0.073-0.032-0.108
	c0-0.035,0.011-0.065,0.022-0.087c0.023-0.062,0.08-0.125,0.146-0.144l0.168-0.067c0.958-0.373,1.71-1.147,2.283-1.979
	c0.623-0.911,0.889-1.883,1.288-2.889l0.084-0.211c0.225-0.518,0.594-1.352,1.509-2.039c-0.981-0.785-1.413-1.785-1.657-2.373
	c-0.752-2.391-2.61-4.115-5.045-4.68c-0.828-0.195-1.734-0.275-2.583-0.275l-13.719,0.008l0.098,0.098
	c0.77,0.713,1.146,1.881,1.146,3.469l0.007,5.217c0,0.097-0.02,0.162-0.032,0.197c-0.003,0.016-0.01,0.027-0.013,0.045
	c-0.389,0.626-1.053,1.001-1.782,1.002c0,0-0.021-0.003-0.021,0.01c0.005,0.931,0.57,1.6,1.581,1.849l0.104,0.021
	c0.103,0.018,0.161,0.108,0.162,0.2l0.002,0.492v7.587c-0.002,1.562-0.375,2.696-1.145,3.463l-0.062,0.061l7.45,0.002l-0.091-0.086
	c-0.737-0.801-1.114-1.967-1.117-3.44l0.003-4.817c0-0.07,0.021-0.131,0.063-0.17c0.044-0.054,0.114-0.08,0.183-0.078h5.598
	c0.098,0,0.181,0.054,0.228,0.144l2.262,4.954c0.275,0.605,0.487,1.402,0.487,2.137c0.002,0.477-0.089,0.913-0.314,1.232
	l-0.087,0.119h8.134l-0.05-0.031C206.993,23.908,206.455,23.271,206.014,22.471 M197.275,11.134l-6.084,0.002l-0.003,0.002
	c-0.063-0.002-0.124-0.027-0.165-0.067c-0.047-0.033-0.082-0.125-0.082-0.176V5.771c0-0.138,0.111-0.245,0.25-0.245l6.019-0.005
	l0.242-0.002c3.028,0.034,3.731,1.482,3.763,2.704C201.205,11.127,198.548,11.132,197.275,11.134"/>
<path fill="#4C1F2A" d="M176.846,8.479c-0.118-0.185-0.212-0.388-0.236-0.435c0-0.004-0.006-0.015-0.01-0.022
	c-0.473-1.283-0.963-2.298-1.529-3.306C173.371,1.763,169.617,0,165.406,0c-3.562,0-7.056,1.509-9.187,4.14
	c-0.365,0.448-0.688,0.927-0.968,1.43c-0.301,0.552-0.557,1.115-0.766,1.704c-0.112,0.309-0.201,0.626-0.312,0.936
	c-0.253,0.688-0.69,1.311-1.218,1.815c-0.149,0.14-0.318,0.277-0.504,0.368s-0.388,0.15-0.591,0.191
	c-0.038,0.009-0.458,0.078-0.458,0.059c0.04,0.713,0.474,1.374,1.217,1.607c0.282,0.095,0.479,0.092,0.763,0.033
	c0.008,0,0.017-0.003,0.036-0.003c0.051,0.003,0.077,0.015,0.116,0.042c0.129,0.1,0.097,0.299,0.099,0.44
	c-0.002,0.21,0.021,0.419,0.03,0.628c0.123,2.646,0.895,5.203,2.109,6.996c1.944,2.921,5.715,4.667,9.714,4.667h0.015
	c3.97,0,7.61-1.736,9.593-4.753c1.182-1.801,2.12-4.629,2.238-7.606l0.006-0.133l0.01-0.181c-0.005-0.098,0.104-0.195,0.204-0.192
	h0.256c0.141-0.002,0.411-0.058,0.48-0.076c0.751-0.248,1.171-0.761,1.216-1.466C178.564,10.547,177.331,9.211,176.846,8.479
	 M165.47,20.433c-3.91,0-6.873-3.272-6.871-7.949c-0.002-2.298,0.612-4.246,1.773-5.635c1.167-1.405,3.051-2.138,5-2.14h0.084
	c4.179-0.004,6.808,2.811,6.808,7.685C172.266,17.561,169.763,20.352,165.47,20.433"/>
<path fill="#4C1F2A" d="M146.9,16.203c-0.162-0.257-0.294-0.522-0.413-0.795c-0.261-0.582-0.475-1.178-0.854-1.705
	c-0.538-0.746-1.263-1.35-2.085-1.762l-0.214-0.107l-0.209-0.098c-0.083-0.043-0.127-0.107-0.137-0.168
	c-0.017-0.031-0.012-0.06-0.01-0.064c-0.005-0.059,0.021-0.129,0.068-0.178l0.162-0.164l0.166-0.182
	c0.406-0.445,0.764-0.921,1.044-1.459c0.264-0.508,0.373-1.079,0.652-1.58c0.266-0.482,0.634-0.911,1.051-1.263
	c-1.115-0.976-1.501-2.564-2.409-3.69c-0.799-0.988-2.134-1.63-3.335-1.964c-0.835-0.233-1.731-0.308-2.6-0.308l-13.088,0.006
	c0.675,0.832,1.017,1.975,1.017,3.395c0,0,0,4.971-0.002,4.975c-0.001,0.187-0.095,0.379-0.123,0.443
	c-0.002,0.012-0.009,0.023-0.017,0.034c-0.406,0.663-1.059,1.077-1.741,1.077l-0.021,0.005c0.071,1.205,1.149,1.526,1.512,1.599
	l0.089,0.021l0.12,0.023c0.18,0.031,0.194,0.214,0.189,0.36l-0.005,0.485v7.895c0,1.397-0.336,2.529-1.016,3.392l13.497-0.007h0.018
	c2.665-0.006,5.747-0.773,7.298-3.146c0.865-1.319,1.065-2.894,2.341-3.955C147.762,17.387,146.966,16.307,146.9,16.203
	 M130.474,5.379c0-0.137,0.115-0.252,0.254-0.25l4.988-0.006h0.004c0.661,0,1.669,0,2.535,0.297
	c1.097,0.369,1.671,1.117,1.668,2.201c0.003,1.709-1.364,2.586-4.007,2.586h-5.186c-0.142,0-0.256-0.115-0.256-0.254L130.474,5.379z
	 M141.544,17.489V17.5c0.003,1.951-1.583,2.653-4.651,2.648l-6.162,0.006c-0.134-0.001-0.254-0.113-0.249-0.256l-0.008-4.646
	c-0.002-0.064,0.029-0.131,0.073-0.178l0.096,0.081l-0.082-0.095c0.044-0.036,0.102-0.061,0.17-0.061h7.011
	c3.123-0.008,3.806,1.352,3.804,2.487L141.544,17.489z"/>
<path fill="#4C1F2A" d="M239.096,21.5c0.91,0,1.654,0.742,1.654,1.652c0,0.912-0.744,1.655-1.654,1.655s-1.656-0.743-1.656-1.655
	C237.439,22.242,238.186,21.5,239.096,21.5 M239.096,21.787c-0.755,0-1.367,0.612-1.367,1.365c0,0.756,0.612,1.368,1.367,1.368
	c0.756,0,1.366-0.612,1.366-1.368C240.462,22.399,239.852,21.787,239.096,21.787z M239.054,23.275h-0.305v0.832h-0.288v-1.908h0.723
	c0.454,0,0.673,0.17,0.673,0.545c0,0.342-0.212,0.485-0.49,0.523l0.546,0.84h-0.36L239.054,23.275z M239.136,23.041
	c0.296,0,0.433-0.09,0.433-0.303c0-0.215-0.137-0.304-0.433-0.304h-0.387v0.606H239.136z"/>
</svg>
