<?xml version="1.0" encoding="utf-8"?>
<!-- Generator: Adobe Illustrator 13.0.0, SVG Export Plug-In . SVG Version: 6.00 Build 14948)  -->
<!DOCTYPE svg PUBLIC "-//W3C//DTD SVG 1.0//EN" "http://www.w3.org/TR/2001/REC-SVG-20010904/DTD/svg10.dtd">
<svg version="1.0" id="Ebene_1" xmlns="http://www.w3.org/2000/svg" xmlns:xlink="http://www.w3.org/1999/xlink" x="0px" y="0px"
	 width="374.189px" height="374.188px" viewBox="0 0 374.189 374.188" enable-background="new 0 0 374.189 374.188"
	 xml:space="preserve">
<g>
	<path fill-rule="evenodd" clip-rule="evenodd" fill="#CA0039" d="M346.942,187.091c20.447-17.684,28.389-47.174,17.496-73.461
		c-10.891-26.281-37.35-41.523-64.311-39.565c1.957-26.965-13.289-53.428-39.578-64.316c-26.281-10.89-55.771-2.955-73.455,17.491
		C169.413,6.793,139.926-1.142,113.635,9.748C87.349,20.637,72.108,47.1,74.065,74.06c-26.962-1.953-53.426,13.289-64.313,39.575
		c-10.887,26.287-2.956,55.772,17.492,73.456C6.795,204.779-1.14,234.268,9.751,260.557c10.883,26.273,37.331,41.516,64.289,39.57
		c-1.952,26.969,13.29,53.441,39.591,64.34c26.295,10.891,55.79,2.949,73.482-17.508c17.682,20.434,47.164,28.359,73.441,17.477
		c26.283-10.891,41.523-37.352,39.572-64.309c26.961,1.953,53.424-13.289,64.316-39.578
		C375.331,234.264,367.389,204.779,346.942,187.091L346.942,187.091z"/>
	<path fill-rule="evenodd" clip-rule="evenodd" fill="#FFFFFF" d="M335.565,187.091c19.318-16.299,26.879-43.878,16.711-68.423
		c-10.166-24.544-35.018-38.702-60.201-36.563c2.141-25.184-12.02-50.028-36.563-60.195c-24.545-10.165-52.125-2.606-68.418,16.713
		c-16.297-19.324-43.874-26.884-68.42-16.713C94.13,32.077,79.971,56.927,82.111,82.11c-25.184-2.14-50.03,12.019-60.203,36.558
		c-10.165,24.549-2.606,52.134,16.72,68.423c-19.321,16.298-26.885,43.876-16.72,68.427c10.173,24.539,35.024,38.703,60.203,36.563
		c-2.14,25.184,12.02,50.031,36.563,60.199c24.546,10.168,52.128,2.609,68.42-16.715c16.293,19.32,43.873,26.883,68.422,16.715
		c24.539-10.172,38.705-35.02,36.563-60.199c25.186,2.133,50.031-12.027,60.197-36.566
		C362.444,230.967,354.889,203.389,335.565,187.091L335.565,187.091z"/>
	<path fill-rule="evenodd" clip-rule="evenodd" fill="#FFED00" d="M330.629,187.091c16.303-16.565,22.115-41.95,12.684-64.713
		c-9.428-22.762-31.482-36.605-54.729-36.787c-0.182-23.235-14.023-45.291-36.783-54.718c-22.762-9.43-48.143-3.619-64.707,12.684
		c-16.56-16.303-41.943-22.113-64.71-12.684c-22.771,9.432-36.61,31.482-36.786,54.724c-23.241,0.181-45.295,14.02-54.723,36.781
		c-9.43,22.768-3.622,48.152,12.683,64.717c-16.301,16.563-22.112,41.95-12.688,64.708c9.433,22.762,31.491,36.605,54.731,36.789
		c0.181,23.238,14.024,45.297,36.787,54.727c22.762,9.426,48.146,3.617,64.71-12.691c16.56,16.305,41.94,22.117,64.702,12.691
		c22.764-9.43,36.607-31.488,36.787-54.734c23.242-0.184,45.291-14.02,54.725-36.781
		C352.745,229.041,346.932,203.654,330.629,187.091L330.629,187.091z"/>
	<path fill-rule="evenodd" clip-rule="evenodd" fill="#CA0039" d="M236.45,160.383c-1.566,0.847-3.873,0.068-4.256-1.624
		c-0.342-1.518,0.48-3.228,1.129-4.688l10.066-22.758c1.455-3.295,7.1-3.687,7.564-0.75
		C252.061,137.567,242.686,157.012,236.45,160.383L236.45,160.383z M291.836,158.635c-0.943,2.149-3.867,3.171-6.375,2.063
		c-0.746-0.33-1.623-1.185-1.627-2.063c-0.053-7.567,3.828-14.392,7.129-20.942c1.781-3.548,4.033-8.729,8.564-9.192
		c3.479-0.357,4.408,2.689,3.254,5.314L291.836,158.635L291.836,158.635z M307.905,159.695c-1.881,4.519,1.152,6.91,5.627,6.188
		c0.018,3.085-5.77,5.482-9.443,6.317c-3.213,0.73-7.645,1.085-9.439-1.752l-2.248-3.563c-5.75,4.317-16.512,7.913-22.441,2.373
		c-6.125-5.72-3.303-14.149-1.627-19.501c-10.443,8.313-19.213,23.86-34.385,21.254c-2.645-0.459-4.248-2.564-5.941-4.374
		c-6.127,10.061-8.432,25.906-22.695,28.445c-4.684,0.836-9.873,0.313-12.877-3.195c-0.369-2.16,2.738-0.902,4.123-1.496
		c8.076-3.46,11.367-15.909,14.756-23.668c-5.561,3.872-14.367,7.268-21.063,3.414c-2.024-1.165-3.81-3.399-4.168-3.162
		c-4.956,3.306-13.619,6.224-19.655,3.162c-2.091-1.065-2.998-3.313-3.81-5.315c-6.566,3.936-15.457,8.863-23.073,3.873
		c-3.635-2.383-5.005-6.99-3.371-10.811L146.362,134c1.759-4.12-5.939-4.846-7.501-1.374l-16.567,36.758l-16.535-0.01l2.75-6.704
		c-10.085,6.858-19.808,11.476-31.851,6.901c-9.588-3.635-15.137-13.797-15.504-23.505c-0.693-18.245,8.185-34.771,23.503-45.763
		c9.685-6.948,24.114-11.003,35.011-3.816c3.98,2.627,6.339,7.072,6.001,11.628c-0.412,5.515-3.703,10.849-8.813,13.566
		c-3.974,2.12-13.752,1.737-14.631-3.811c4.655-2.655,11.98-7.13,9.751-13.566c-0.664-1.93-2.631-2.684-4.313-2.813
		c-9.789-0.755-17.147,9.374-21.383,16.943c-5.721,10.222-11.933,24.509-4.622,36.07c3.014,4.765,8.876,6.002,14.626,5.003
		c7.187-1.245,15.758-4.707,18.938-11.707l24.288-53.496h16.165l-11.729,27.299c4.622-2.984,11.762-8.294,18.981-4.045
		c6.977,4.107,1.251,12.607-1.061,17.878l-7.502,17.134c-0.659,1.499-1.021,3.357-0.313,4.999c1.99,4.617,8.852,1.15,10.188-1.877
		l16.934-38.396h16.281l-16.396,37.084c-0.487,1.108-0.754,2.755-0.124,3.94c0.802,1.504,2.683,1.885,4.125,1.374
		c2.89-1.021,5.653-8.652,5.749-8.876l14.664-33.522h16.641l-16.545,37.523c-0.596,1.342-0.621,3.075,0.307,4.374
		c0.764,1.078,2.014,1.676,3.252,1.504c2.779-0.392,5.691-1.93,6.936-4.751l17.059-38.65h15.443l-1.051,2.951
		c5.176-2.044,11.865-5.419,16.881-1.318c6.75,5.531,2.57,16.814,0.691,23.628c10.803-6.88,17.695-29.18,37.064-25.437
		c2.363,0.453,4.693,2.559,5.754,4.875l1.953-4.699h16.277C326.135,117.297,313.76,145.623,307.905,159.695L307.905,159.695z
		 M152.862,304.678c-5.096-2.98-5.697-9.742,0.129-12.57c5.936-2.879,13.018-2.262,19.502-1.75c5.396,0.43,10.63,1.629,15.689,3.129
		C181.165,305.607,165.745,312.197,152.862,304.678L152.862,304.678z M239.385,247.225c-1.57,2.414-8.248,3.723-8.248,0v-2.063
		l12.561-28.199c0.773-1.738,2.637-2.418,4.441-2.625c1.438-0.164,2.756,0.777,3.375,1.875c0.752,1.34,0.58,3.449,0.125,4.879
		C248.731,230.178,244.313,239.607,239.385,247.225L239.385,247.225z M313.844,202.646c-5.814,2.688-9.143,8.77-8.566,15.195
		c1.17,12.949,4.779,29.105-6.627,38.883c-6.543,5.609-15.203,8.047-23.627,5.879c-3.951-1.02-8.002-4.457-8.568-8.695
		c-0.375-2.824,0.201-5.621,1.748-7.684c1.605-2.137,3.918-3.613,6.525-3.805c1.014-0.07,2.566,0.07,3.666,0.992
		c-2.197,2.078-4.223,5.637-2.813,8.688c0.787,1.691,2.502,2.598,4.316,2.5c1.752-0.09,3.52-0.828,4.564-2.316
		c4.432-6.313,3.635-14.988,5.744-22.313c1.391-4.813,3.162-9.406,4.885-14.004c0.221-0.598-0.063-1.273-0.635-1.379
		c-1.898-0.348-3.541,1.707-4.559,2.82l-30.572,33.375c-6.57,7.176-14.729,13.895-25.063,11.82
		c-3.363-0.676-6.131-3.129-7.568-6.379l-9.318,20.328c5.592,2.617,16.83,4.938,23.217,5.465c9.641,0.809,19.469,1.066,28.799-0.66
		c3.77-0.695,7.379-2,10.629-4.129c-0.428,3.066-2.799,6.523-3.127,6.945c-17.381,21.992-47.195,18-71.77,12.809
		c-5.441,6.699-11.844,12.273-19.315,15.695c-12.592,5.758-29.357,5.707-41.199-1.496c-5.922-3.613-9.359-9.98-8.877-17.133
		c0.645-9.613,9.397-17.516,17.691-20.387c15.037-5.191,32.395-4.41,47.698-1.164l6.146-13.457
		c-5.879,3.246-14.125,7.145-20.896,3.688c-2.301-1.18-2.941-3.566-4.001-5.563c-5.502,3.246-11.216,7.242-18.256,5.746
		c-4.508-0.957-6.866-3.816-7.702-8.074c-6.504,5.566-15.112,11.047-23.809,7.328c-3.572-1.535-4.871-5.309-4.871-8.879
		c0-3.324,1.018-6.242,2.374-9.316l10.63-24.07c2.435-5.52-6.461-6.211-8.381-1.871l-19.318,43.688l-17.92-0.047l4.015-9.023
		c-10.916,7.922-25.022,17.563-40.606,8.012c-13.475-8.246-14.367-26.59-10.633-40.758c4.895-18.539,22.235-35.771,41.203-40.136
		c8.732-2.009,18.847-1.188,24.758,6.06c3.156,3.885,3.863,9.494,2.56,14.322c-1.073,3.984-4.76,7.73-8.566,9.445
		c-4.995,2.238-15.026,2.555-16.439-4.324c2.749-0.539,5.758-1.988,8.002-4.371c1.948-2.059,3.438-5.133,2.187-8.129
		c-1.002-2.398-3.504-3.84-6.188-3.566c-10.19,1.043-17.233,10.773-22.566,18.633c-5.497,8.102-8.094,17.703-7.817,28.199
		c0.157,5.891,2.941,12.09,8.69,14.441c11.834,4.84,23.686-3.789,32.061-12.668l26.581-59.546l17.524-0.071l-11.336,26.52
		c6.069-3.973,14.229-7.828,21.13-2.934c2.736,1.934,3.199,5.789,2.191,8.875c-3.811,11.633-9.922,22.402-14.444,33.758
		c-0.65,1.641-0.949,3.387,0,4.75c0.927,1.324,2.621,1.727,4.249,1.316c2.622-0.664,5.282-2.617,6.38-5.129l19.473-44.469h17.409
		l-18.125,42.219c-0.472,1.109-0.554,2.871,0.124,3.879c0.754,1.117,2.063,1.992,3.253,1.871c1.871-0.191,3.758-1.121,4.564-2.938
		l19.889-45.031h17.725l-20.051,45.031c-0.529,1.199-0.357,2.398,0.189,3.566c0.574,1.211,1.813,1.656,3.066,1.625
		c2.498-0.055,5.559-0.715,6.682-3.258l20.768-46.824h16.121c0,0-0.395,2.367-0.564,3.254c4.938-3.438,11.975-6.969,18.01-3.375
		c8.543,5.102,3.73,23.039,3.242,25.074c10.4-6.172,21.613-28.289,38.805-26.121C310.02,200.029,312.247,200.689,313.844,202.646
		L313.844,202.646z M213.659,301.459c2.066,0,4.074,0.496,6.002,1.492c1.938,0.992,3.547,2.504,4.852,4.531
		c1.295,2.035,1.943,4.301,1.943,6.777c0,3.523-1.254,6.539-3.758,9.047c-2.512,2.504-5.525,3.762-9.039,3.762
		c-3.535,0-6.553-1.254-9.053-3.742c-2.504-2.5-3.756-5.523-3.756-9.066c0-2.469,0.65-4.719,1.932-6.738
		c1.287-2.023,2.9-3.535,4.822-4.547C209.532,301.963,211.547,301.459,213.659,301.459L213.659,301.459z M213.672,303.971
		c-2.756,0-5.152,0.98-7.205,2.949c-2.049,1.965-3.076,4.418-3.076,7.34c0,2.852,1.004,5.293,3.018,7.297
		c2.012,2.016,4.432,3.016,7.264,3.016c2.828,0,5.252-1.004,7.264-3.035c2.023-2.016,3.031-4.445,3.031-7.277
		c0-2.922-1.025-5.375-3.074-7.34C218.838,304.951,216.434,303.971,213.672,303.971L213.672,303.971z M207.872,321.111v-13.578h2.76
		c2.77,0,4.537,0.035,5.275,0.129c0.746,0.094,1.428,0.473,2.051,1.145c0.619,0.672,0.93,1.535,0.93,2.578
		c0,1.02-0.336,1.863-1.006,2.531c-0.68,0.676-1.563,1.094-2.656,1.258c0.477,0.16,0.883,0.402,1.213,0.727
		c0.324,0.324,0.883,1.148,1.662,2.469l1.609,2.742h-3.414l-1.133-2.199c-0.68-1.332-1.27-2.223-1.766-2.684
		c-0.498-0.457-1.18-0.695-2.045-0.695h-0.721v5.578H207.872L207.872,321.111z M210.631,313.396h1.119
		c1.305,0,2.189-0.035,2.629-0.098c0.445-0.059,0.816-0.25,1.123-0.57c0.305-0.324,0.457-0.727,0.457-1.203
		c0-0.48-0.168-0.887-0.492-1.199c-0.328-0.316-0.719-0.5-1.184-0.559c-0.463-0.059-1.309-0.082-2.533-0.082h-1.119V313.396
		L210.631,313.396z"/>
	<path fill-rule="evenodd" clip-rule="evenodd" fill="#A08140" d="M368.926,111.773c-10.977-26.501-36.684-42.599-63.748-42.771
		c-0.168-27.061-16.264-52.76-42.764-63.743c-26.508-10.973-56.063-4.182-75.32,14.832C167.836,1.078,138.284-5.713,111.78,5.265
		C85.272,16.243,69.175,41.942,69.003,69.003c-27.063,0.176-52.762,16.273-63.74,42.774c-10.979,26.502-4.185,56.055,14.831,75.317
		C1.079,206.354-5.71,235.912,5.263,262.412c10.979,26.504,36.678,42.594,63.745,42.766c0.167,27.066,16.264,52.77,42.771,63.746
		c26.504,10.98,56.062,4.184,75.319-14.828c19.253,19.012,48.808,25.801,75.315,14.824c26.5-10.977,42.592-36.676,42.764-63.742
		c27.064-0.168,52.771-16.262,63.748-42.766c10.979-26.508,4.184-56.059-14.83-75.326
		C373.11,167.827,379.905,138.274,368.926,111.773L368.926,111.773z M359.959,258.697c-10.867,26.23-38.502,40.574-65.396,35.859
		c4.713,26.895-9.631,54.539-35.861,65.402c-26.24,10.863-55.924,1.461-71.607-20.887c-15.681,22.348-45.368,31.75-71.601,20.887
		c-26.233-10.863-40.573-38.504-35.86-65.398c-26.9,4.719-54.539-9.629-65.403-35.855c-10.867-26.242-1.471-55.93,20.887-71.614
		c-22.353-15.682-31.754-45.363-20.887-71.598c10.864-26.234,38.507-40.579,65.403-35.861c-4.723-26.898,9.627-54.536,35.86-65.399
		c26.232-10.872,55.925-1.471,71.605,20.882c15.683-22.353,45.362-31.754,71.599-20.882c26.24,10.863,40.578,38.501,35.861,65.399
		c26.893-4.718,54.537,9.627,65.4,35.856c10.863,26.234,1.461,55.921-20.887,71.603C361.42,202.779,370.823,232.463,359.959,258.697
		L359.959,258.697z"/>
</g>
</svg>
