<?xml version="1.0" encoding="UTF-8" standalone="no"?>
<!-- Created with Inkscape (http://www.inkscape.org/) -->
<svg
   xmlns:svg="http://www.w3.org/2000/svg"
   xmlns="http://www.w3.org/2000/svg"
   version="1.0"
   width="1133.8583"
   height="515.19684"
   id="svg2">
  <defs
     id="defs4" />
  <g
     transform="translate(-61.219988,-116.2261)"
     id="layer1">
    <path
       d="M 1120.7291,151.62788 C 1105.0528,152.01816 1047.9454,161.83108 1040.3121,165.7129 C 1037.6637,167.05976 1033.0354,170.49727 1030.0192,173.29713 L 1024.5417,178.35329 L 1018.7633,175.58444 C 1017.2596,174.60397 1015.6325,173.86001 1013.7071,173.29713 C 1009.8706,171.72148 1005.8444,170.52829 1003.8958,170.52829 C 996.70468,170.52829 884.30709,189.42156 871.41236,192.79946 C 864.02107,194.73567 857.76125,197.771 852.51196,201.88851 C 851.97967,202.30604 851.45806,202.71178 850.94696,203.15255 C 850.93513,203.16241 850.89855,203.14266 850.88677,203.15255 C 850.3496,203.60234 849.87447,204.12302 849.38196,204.59716 C 848.84402,205.1089 848.32966,205.62195 847.81695,206.16216 C 842.30867,211.96609 838.21031,219.39069 835.47752,228.61391 L 833.37079,235.65642 C 832.73521,235.31389 831.59782,234.54553 830.42136,233.73026 L 818.98481,224.34026 C 807.01809,214.54383 800.70802,209.70625 792.86133,207.96793 C 792.72858,207.93777 792.56778,207.87153 792.43998,207.84755 C 791.98504,207.7622 791.51639,207.66678 790.99537,207.60678 C 790.97686,207.60464 790.95378,207.60888 790.93517,207.60678 C 783.90035,206.53466 775.27431,207.65482 760.35745,209.89409 C 722.5152,215.5748 707.13882,219.0456 702.09125,223.01602 C 698.91014,225.51827 695.90877,226.51387 687.5247,226.92853 C 683.19582,226.1519 677.29344,226.15872 665.4341,227.65084 C 665.35925,227.66026 665.26864,227.70149 665.19333,227.71103 C 652.03721,228.70098 635.10566,231.12689 609.81636,235.59623 C 513.68998,252.5844 512.56472,252.93215 505.38261,265.09049 C 503.51489,268.25227 500.94423,270.32283 499.54395,269.78549 C 488.54468,265.56467 472.50907,263.01184 455.90449,262.20125 C 437.36457,261.29619 418.11549,262.57431 404.37983,266.35452 C 384.28698,271.88432 362.64183,282.90452 347.67862,295.24686 L 335.2188,305.53975 L 326.12976,297.53417 C 315.02424,287.74342 305.77274,282.76491 296.45492,282.3055 C 295.93762,282.28 295.40786,282.24265 294.88992,282.24531 C 286.91256,282.28634 278.81835,285.63515 269.42855,292.23724 C 265.38018,295.08369 260.72795,295.87511 243.18468,296.33032 C 235.26576,295.8983 227.82858,296.16018 220.61255,297.05263 C 210.71717,297.71858 205.42073,299.00334 197.13753,301.9884 C 141.61835,321.99621 106.94561,365.45924 98.602639,425.44294 C 95.516524,447.63129 96.076833,466.21578 100.40841,483.40818 C 114.55646,539.56299 153.94124,578.97491 208.21292,591.33308 C 216.15831,593.14232 223.52586,594.90587 224.58524,595.24559 C 225.64463,595.58534 235.61248,595.96015 246.73603,596.02809 C 277.24468,596.21454 302.45353,588.90197 325.58803,573.15499 C 335.81331,566.19492 352.35697,550.0386 358.75402,540.7715 L 359.83748,539.2065 L 362.24517,536.79881 L 366.57902,538.60458 L 376.81173,543.29958 C 385.1019,547.07752 397.5972,551.57974 404.5604,553.29151 C 421.14166,557.36766 458.45786,557.28174 477.8747,553.11094 C 482.60877,552.09406 489.33192,549.79217 496.59453,546.91112 C 496.81526,546.83101 497.03631,546.75152 497.25664,546.67035 C 497.43604,546.59858 497.61839,546.50208 497.79837,546.42958 C 502.81044,544.56011 507.72352,542.41482 512.5455,539.989 C 512.79415,539.87179 513.02034,539.74542 513.26781,539.62785 C 520.52013,536.18232 527.27547,532.62812 532.04783,529.51553 C 536.90218,526.34945 537.35342,526.41303 543.06303,530.47861 C 553.26102,537.74021 563.4875,537.53489 614.81232,528.9738 C 640.8515,524.63038 663.90439,521.0886 666.09622,521.0886 C 668.28801,521.0886 674.88434,518.56196 680.72296,515.49071 L 690.59451,510.31417 C 691.20304,510.35596 691.93326,510.51793 692.70124,510.8559 L 703.77663,518.92167 C 747.87964,551.07445 793.54182,558.31558 836.80175,539.92881 C 849.46451,534.54676 871.99073,520.7933 879.53833,513.86552 C 887.9318,506.16132 897.57177,493.35768 899.82316,486.89934 C 901.71269,481.47898 902.37999,481.1838 924.32145,477.87048 C 983.14435,468.98775 1064.0892,455.30357 1096.9532,448.91796 C 1104.7873,447.39574 1110.7041,446.18025 1112.0012,445.66757 C 1114.9013,444.52135 1118.7921,441.38688 1122.6553,437.5416 C 1126.7057,433.99252 1130.3258,429.57988 1133.9113,423.93813 C 1134.2842,423.3513 1134.6189,422.64015 1134.9345,421.89159 C 1135.6706,420.5364 1136.2416,419.24568 1136.6199,418.09947 C 1139.8216,408.39842 1138.1365,390.95485 1133.0686,381.02097 C 1128.5813,372.22526 1119.3596,363.66598 1112.4828,361.93999 C 1111.6919,361.7415 1111.0257,361.56621 1110.4362,361.33807 C 1108.9363,360.34545 1107.9561,359.1704 1107.0655,356.70326 C 1105.9319,352.98624 1104.8642,346.26802 1102.852,333.22824 L 1099.6016,311.98033 L 1115.673,274.72126 C 1131.2874,238.57876 1132.118,237.16997 1141.6159,230.11872 C 1148.8116,224.77661 1152.5577,220.16955 1155.7611,212.72313 C 1167.5889,185.22857 1151.1652,154.36967 1123.2572,151.68808 C 1122.6071,151.62561 1121.7742,151.60186 1120.7291,151.62788 z M 1119.0438,161.31885 C 1120.1534,161.29819 1121.1332,161.37202 1121.8728,161.43924 C 1123.0927,161.55013 1124.4156,161.71115 1125.7251,161.98097 L 1130.3599,163.96732 C 1137.4554,166.90798 1140.5761,169.68318 1144.2644,176.36694 C 1151.97,190.33115 1150.4266,205.07726 1140.7732,216.45506 C 1140.0813,217.2255 1139.3966,217.98154 1138.6063,218.80256 C 1138.501,218.91189 1138.4123,218.99319 1138.3053,219.10352 C 1138.1401,219.26657 1137.9927,219.42371 1137.8238,219.58506 C 1136.071,221.25933 1134.1283,222.86573 1131.9851,224.34026 C 1123.3187,230.30294 1125.3445,226.27762 1097.856,291.09359 C 1095.6961,296.18657 1093.8255,301.15584 1092.4989,305.11841 C 1092.4633,305.22479 1092.4735,305.31451 1092.4387,305.41937 L 1089.9107,311.37841 L 1090.9339,317.45784 C 1092.6136,330.56138 1098.2108,365.96556 1098.7589,366.03308 C 1102.4297,366.48522 1115.9024,376.08514 1120.1874,381.32194 C 1124.8428,387.01153 1125.9965,390.48512 1126.628,400.40291 C 1127.8848,420.14114 1119.0997,433.00795 1100.986,437.96295 C 1092.7358,440.21982 1015.998,452.99193 942.07819,464.38739 C 928.58505,466.46751 916.52027,468.53337 907.76855,470.16586 C 907.72361,470.17424 907.69291,470.1575 907.64816,470.16586 C 902.16172,471.08385 898.27056,471.80436 897.35527,472.09202 C 897.14709,472.15745 896.91533,472.24337 896.69315,472.39298 C 896.66846,472.4096 896.65779,472.43557 896.63296,472.45317 C 895.61668,472.71519 894.87893,472.91447 894.7068,473.05509 C 893.55402,473.99683 891.64863,478.03846 890.43315,482.02376 C 889.01342,486.67879 885.81486,491.82142 881.3441,497.01165 C 879.63857,498.87238 877.71482,500.83307 875.50544,503.03089 C 874.36887,504.16151 873.15632,505.24849 871.95409,506.34147 C 871.6904,506.5812 871.43829,506.82592 871.17159,507.06378 C 870.59521,507.56048 870.02027,508.01572 869.42601,508.5084 C 858.76665,517.34542 845.31948,525.49096 831.62521,530.77957 C 802.19823,542.14394 776.70643,542.11049 747.95783,530.59899 C 732.49469,524.40725 710.28631,510.85449 698.90105,500.6232 C 695.34679,497.42921 693.04743,495.50124 691.25662,494.78454 L 690.11297,493.70107 L 689.45085,494.48358 C 687.82356,494.63859 686.54322,496.17825 684.69565,498.998 C 682.92484,501.70061 679.16971,505.11322 676.32892,506.58224 C 669.95427,509.8787 580.0613,524.94091 566.71863,524.94091 C 555.25455,524.94091 548.39611,522.18239 544.32707,515.97225 C 543.15895,514.18948 542.17773,513.04985 541.13687,512.4209 L 539.99322,510.91609 L 539.39129,511.33744 L 539.15052,511.09667 L 538.18745,511.99955 C 536.17926,512.58441 533.52135,514.54375 529.27898,518.01879 C 518.59906,526.767 496.97053,537.54873 482.69009,541.25304 C 471.83335,544.06929 455.3863,546.33952 443.50486,546.97131 C 442.76458,546.98306 442.01997,547.0297 441.27774,547.03151 C 437.95347,547.03958 434.77005,546.98478 431.64697,546.85093 C 402.52453,543.13942 395.51117,541.19198 378.01557,532.28438 C 372.43995,529.44565 367.94846,527.27651 364.4121,525.60303 C 362.59236,524.53218 361.22163,523.77975 360.31902,523.67687 C 360.26676,523.65437 360.128,523.57765 360.07825,523.55649 L 358.8744,522.77399 L 358.69382,523.07495 C 358.67913,523.07275 358.58388,523.01475 358.57344,523.01475 L 358.51325,523.01475 L 358.45306,523.07495 C 357.64307,523.41439 354.50476,527.8927 351.22997,533.36784 C 349.93405,535.53448 348.44608,537.65096 346.89612,539.74823 C 344.52081,542.74298 342.18916,545.55921 339.85362,548.17516 C 339.83514,548.19585 339.8119,548.21469 339.79342,548.23535 C 339.35274,548.70198 338.92161,549.1587 338.46919,549.61978 C 323.38834,564.98959 301.89891,577.24788 279.3001,582.66538 C 247.01592,590.40475 213.53645,586.32949 181.5477,570.7473 C 168.23143,564.26076 161.54262,559.3287 148.26133,546.18881 C 134.20065,532.27781 130.28325,526.94105 122.79997,511.45782 C 112.23754,489.60374 108.05284,471.30616 108.05284,446.93161 C 108.05284,404.16038 122.8262,369.21196 153.01653,340.57171 C 179.2205,315.71315 208.75931,304.67656 246.13411,305.72033 C 255.4886,305.98155 260.79793,306.05535 264.3122,305.66014 C 264.53658,305.6349 264.82485,305.62911 265.03451,305.59994 C 266.06458,305.52205 266.87069,305.42156 267.02086,305.1786 C 269.17931,304.59634 270.51038,303.63199 272.13721,302.10879 C 288.75228,286.55208 304.67269,289.10993 323.36091,310.41533 L 333.05188,321.49073 L 333.6538,320.8888 L 333.71399,320.949 L 336.54304,318.24034 L 345.27093,310.23476 C 367.72353,289.44763 387.80202,279.05787 416.05715,273.69799 C 444.80949,268.24376 475.60617,270.19008 494.06645,278.57357 C 498.22242,280.46098 501.12238,281.55226 503.33607,281.76377 C 503.39595,281.77689 503.45788,281.75188 503.51665,281.76377 C 503.88086,281.83744 504.21677,281.91832 504.53992,281.94435 C 505.05986,282.11695 505.57646,282.24531 505.68357,282.24531 C 505.71173,282.24531 505.76636,282.20784 505.80396,282.18512 C 505.85319,282.19702 506.02175,282.24531 506.04473,282.24531 C 506.12738,282.24531 506.28665,282.01211 506.46607,281.70358 C 507.61402,281.30271 508.40712,280.40839 508.99415,278.87454 C 509.00332,278.86153 508.98498,278.82742 508.99415,278.81434 C 509.00434,278.78726 509.04427,278.78158 509.05434,278.75415 C 509.8803,277.56188 510.72671,276.0251 511.64262,274.05915 C 513.79288,269.44364 517.94554,264.48945 521.2132,262.68279 C 524.59703,260.81194 556.52562,254.53654 598.25942,247.51432 C 661.53234,236.86784 671.33615,235.64088 685.77912,236.73988 C 695.58654,237.48615 699.53992,237.66898 702.09125,236.6195 C 702.15782,236.59962 702.20869,236.58067 702.27182,236.55931 C 703.08287,236.28487 703.66234,235.90436 704.0776,235.35546 C 704.69375,234.81132 705.30171,234.1899 706.00375,233.36911 C 709.49866,229.28308 714.39152,228.00461 747.83744,222.47429 C 768.66348,219.03069 787.85032,216.76474 790.45363,217.41813 C 793.05693,218.07153 804.19202,225.80167 815.19269,234.57296 C 836.77841,251.78412 845.73287,258.37421 848.11792,258.77029 C 848.39442,258.95096 848.60832,259.13144 848.65965,259.13144 C 848.80097,259.13144 848.80301,258.88029 848.78003,258.52952 C 848.84381,258.33342 848.86307,257.96217 848.84022,257.50625 C 848.85519,255.56873 848.28819,251.19302 847.33542,246.0697 C 845.23995,234.8019 846.84475,224.7725 851.60907,216.99679 C 851.63225,216.95896 851.64594,216.91412 851.66927,216.8764 C 851.69438,216.8395 851.70419,216.79273 851.72946,216.75602 C 852.08973,216.23251 852.48183,215.73533 852.87311,215.25121 C 855.15002,212.43407 858.4773,209.24451 861.36024,206.94466 C 862.66996,206.08916 864.03522,205.29865 865.51351,204.59716 C 868.97077,202.9566 901.15465,196.64938 937.08223,190.63253 C 986.79235,182.30752 1003.2401,179.67752 1012.1421,182.50657 C 1012.2325,182.53528 1012.294,182.59711 1012.3829,182.62695 C 1015.2967,184.12203 1018.3119,186.33264 1021.7729,189.48888 C 1021.8546,189.57388 1021.9309,189.64332 1022.0137,189.72965 L 1023.7592,191.53542 L 1027.6115,195.6285 L 1031.5842,187.38215 C 1037.3373,175.40404 1044.945,172.35287 1086.0583,165.77309 L 1108.8712,162.10135 C 1112.8891,161.67203 1116.5093,161.36604 1119.0438,161.31885 z M 1113.2051,179.01541 C 1109.3009,179.08438 1103.1537,180.06227 1091.1747,182.08522 C 1077.7269,184.35619 1064.4398,187.05926 1061.6804,188.10445 C 1048.5634,193.07299 1044.3854,204.33921 1051.4477,212.9639 C 1051.62,213.19402 1051.7435,213.46385 1051.9293,213.68621 C 1052.0066,213.77192 1052.0904,213.84186 1052.17,213.92698 C 1053.0475,214.93303 1054.0948,215.83102 1055.2399,216.63563 C 1055.6678,216.93638 1056.1013,217.27113 1056.5641,217.53852 C 1056.5785,217.54765 1056.6099,217.52941 1056.6243,217.53852 C 1056.7262,217.59698 1056.8217,217.66233 1056.9252,217.7191 C 1059.6825,219.41107 1062.7116,220.60833 1064.5697,220.60833 C 1065.4872,220.60833 1066.2749,220.69464 1066.9774,220.8491 C 1068.375,221.45409 1068.8053,222.30776 1068.6627,223.79853 C 1066.813,229.69649 1056.2814,255.66088 1049.7022,270.26703 L 1046.0304,278.393 L 1045.7897,278.93473 C 1044.4085,278.49503 1039.4994,274.33045 1033.2094,268.40107 C 1032.8738,268.08469 1032.5898,267.82466 1032.2464,267.49818 L 1022.1942,257.38586 L 1022.134,257.32567 L 1022.0738,257.26548 L 1002.8123,237.94373 L 999.26094,234.33219 L 999.50171,234.03123 L 1005.3404,228.61391 C 1012.4138,222.00635 1013.5475,214.33985 1008.8315,207.90774 C 1008.3828,207.29576 1007.8823,206.68951 1007.3267,206.10197 C 1006.9159,205.66755 1006.4573,205.25722 1006.0025,204.83793 C 1005.9287,204.76986 1005.8981,204.66479 1005.8219,204.59716 C 1005.7332,204.50151 1005.6107,204.45004 1005.5209,204.35639 C 1003.7014,202.45697 1001.6889,200.92217 999.80267,200.3235 C 999.62733,200.26786 999.19784,200.25536 998.65901,200.26331 C 997.32043,199.73318 996.11957,199.42062 995.22805,199.42062 C 987.93454,199.42062 875.94965,218.5093 871.29198,220.54814 C 868.16378,221.91746 865.44247,225.81043 864.06889,230.23911 C 863.93957,230.5428 863.85301,230.83215 863.76793,231.14199 C 863.67058,231.49644 863.57087,231.85143 863.52716,232.22546 C 863.26971,233.48225 863.10581,234.75777 863.10581,236.01757 C 863.10581,239.7229 865.41836,243.36994 869.00467,246.19008 C 869.02503,246.20969 869.0444,246.23076 869.06486,246.25028 C 869.24262,246.38894 869.42264,246.53704 869.60659,246.67162 C 872.96509,249.64513 877.43123,251.42682 882.36737,251.42682 L 882.72852,251.42682 L 889.04872,252.14913 C 889.64192,252.30813 890.18307,252.49682 890.49334,252.69086 C 890.86942,253.83024 891.27665,255.50584 891.81757,257.80721 C 891.82555,257.84113 891.80958,257.89346 891.81757,257.92759 L 897.05431,288.98685 C 899.98035,306.53191 902.23229,321.47667 902.53181,325.28285 C 902.02408,325.26622 901.14993,324.89613 899.88335,324.19938 C 896.43441,321.828 889.5632,316.76009 881.04314,310.29495 C 862.76702,295.74619 814.24071,257.82732 794.12537,242.39796 C 790.54314,239.65025 787.80904,237.90552 784.49459,236.98065 C 784.43141,236.96303 784.37763,236.93747 784.31401,236.92046 C 782.286,236.07286 781.1338,236.13582 779.31805,236.13796 C 778.56267,236.13885 777.74467,236.14489 776.85016,236.19815 C 771.84219,236.34385 765.13014,237.37095 754.87995,239.14758 C 733.91259,242.78177 727.03286,246.81102 725.14492,256.60336 C 723.49457,265.16351 732.55629,274.54069 742.48032,274.54069 C 743.15384,274.54069 743.83347,274.56002 744.46667,274.60088 C 747.80314,275.25202 749.56536,276.18876 750.66648,278.3328 C 750.67465,278.3487 750.65839,278.37697 750.66648,278.393 C 752.40039,287.03086 757.93805,318.75981 764.14957,355.98095 C 773.5366,412.2308 776.67515,435.45839 775.28516,437.66199 C 772.87198,441.48766 767.8565,443.50107 764.51073,442.47737 C 764.46656,442.46385 764.43391,442.43176 764.39034,442.41718 C 763.5212,441.80031 762.50891,441.00968 761.38072,440.06968 C 754.99061,433.32617 749.53053,427.79577 744.58705,423.09543 C 744.56677,423.07613 744.54714,423.0545 744.52686,423.03524 C 744.07818,422.60284 743.6511,422.19203 743.20263,421.7712 C 742.50322,421.11635 741.835,420.52434 741.15609,419.90524 C 726.42179,406.46894 716.23834,401.2067 699.92432,396.67099 L 687.88585,393.30022 L 698.60009,388.96637 C 704.49985,386.56853 712.72453,382.2467 716.83838,379.39578 C 729.51897,370.60812 737.55376,357.68182 741.15609,343.46094 C 741.20887,343.27647 741.28551,343.10427 741.33667,342.91921 C 741.38519,342.72081 741.41027,342.51618 741.45705,342.31729 C 742.90575,336.8758 743.68417,331.19955 743.68417,325.34304 C 743.68417,322.40927 743.32151,319.26134 742.72109,316.01322 C 740.15079,296.42728 729.8843,277.53195 712.14337,265.7526 C 701.38639,258.61038 685.66153,253.39227 674.76392,253.35297 C 663.25658,253.31147 538.67186,274.82225 534.27494,277.6105 C 518.11465,287.85836 523.12899,305.8509 543.06303,309.0911 L 548.96188,310.05418 C 550.08855,313.92567 552.66052,326.93693 555.70342,343.22017 L 563.10708,387.22079 C 570.25807,429.57889 575.88801,465.94552 575.6271,467.99894 C 575.3553,470.13795 571.90166,473.42594 567.50113,475.70356 C 558.47668,480.37445 554.10312,488.00046 555.884,496.10877 C 557.09413,501.61846 561.01303,505.4798 566.53805,506.94339 L 568.04286,508.08705 L 571.05248,507.60551 C 571.27437,507.6121 571.48944,507.60551 571.71459,507.60551 C 579.83043,507.60551 655.14053,494.71392 661.76237,492.19627 C 664.72223,491.07093 667.97553,487.56685 669.58737,483.70914 C 674.65108,471.59 668.31663,462.76628 653.21505,460.95643 C 652.13561,460.82707 651.28446,460.66847 650.56659,460.17393 C 650.48682,460.11898 650.40254,460.05688 650.32582,459.99335 C 648.18593,458.22146 647.18826,452.95418 644.24639,435.37468 C 642.28733,423.66808 641.1357,413.28498 641.35715,409.85311 C 641.74019,408.89491 642.33578,408.27868 643.16293,407.98715 C 647.56442,407.36814 658.18736,412.29088 665.31371,418.70139 C 669.58787,422.54623 680.99547,437.87868 690.71489,452.71008 C 694.8741,459.05686 698.76503,464.66272 702.51259,469.74451 C 702.93109,470.312 703.3617,470.937 703.77663,471.49009 C 709.59459,479.70852 713.49721,484.1301 718.58395,488.88569 C 730.81683,501.18696 743.27573,508.37497 760.53803,514.46744 C 790.33662,524.98448 825.35916,518.20231 854.73908,496.22915 C 868.30127,486.08604 874.64148,477.97733 874.12102,471.49009 C 874.12373,471.42919 874.1199,471.36934 874.12102,471.30952 C 874.1408,470.24506 873.88264,469.34707 873.39871,468.66105 C 871.53991,463.62768 867.47776,464.5823 854.67888,472.39298 C 844.27142,478.74426 841.14475,479.72899 828.19424,480.33837 C 816.0638,480.90919 811.8628,480.23906 804.1173,476.66664 L 795.14864,472.51336 C 795.1386,472.41994 795.18498,472.30291 795.20883,472.2124 L 806.28423,469.74451 C 828.33865,464.79229 829.2717,464.39687 833.00963,457.46527 C 836.35458,451.26245 836.39169,450.26238 833.61156,443.62103 C 830.65065,436.5478 830.07334,436.20489 815.85481,433.38833 C 812.33239,432.69056 811.29233,429.12315 806.52499,400.28253 C 804.28314,386.72014 802.35063,375.67957 801.16787,369.28346 C 800.49723,364.54818 800.05839,360.94579 800.02422,359.59249 C 800.39907,359.34966 801.0539,359.44306 802.07076,359.83326 C 802.28547,359.91564 802.85002,360.30226 803.75615,360.91672 C 810.09896,365.21797 832.4627,381.83807 857.74869,401.12522 C 886.64694,423.16772 913.10055,443.14047 916.49644,445.54719 C 918.9369,447.27678 920.49177,448.28832 922.45548,448.73738 L 923.77972,449.70046 L 928.77568,448.73738 C 931.14323,448.4464 934.15815,447.94544 938.28607,447.23257 C 946.87594,445.74914 954.76143,443.69862 955.80205,442.65795 C 955.83561,442.6244 955.83651,442.49117 955.86224,442.41718 C 955.86423,442.4115 955.92051,442.42311 955.92244,442.41718 C 955.94491,442.39451 955.97383,442.21783 955.98263,442.11622 C 955.99157,442.04333 955.97627,441.90145 955.98263,441.81526 C 956.35869,436.71649 952.23974,408.40773 943.94416,359.11095 C 936.38479,314.18898 929.7242,273.63493 929.13684,269.00299 L 928.11357,261.0576 C 928.21814,261.01809 928.45563,261.09739 928.77568,261.29837 L 950.14397,283.44916 C 1003.3709,338.5953 999.18716,333.22471 1001.789,349.54037 C 1003.0633,357.53137 1005.2985,370.88791 1006.785,379.2152 C 1008.1245,386.71906 1008.937,391.45821 1009.1325,394.56425 C 1009.1352,394.60732 1009.13,394.64221 1009.1325,394.68464 C 1009.1307,394.72143 1009.1345,394.76858 1009.1325,394.80502 C 1008.998,397.28545 1008.4773,398.93202 1007.5675,400.22234 C 1006.7646,400.84452 1005.6654,401.29112 1004.1967,401.84753 C 1002.5346,402.47725 1000.9934,403.22718 999.62209,404.07465 C 995.7801,405.95538 993.18767,409.02406 991.79708,412.50158 C 991.70925,412.72122 991.63459,412.94097 991.55631,413.16369 C 987.96103,421.4368 991.31535,431.1411 1002.1502,434.95333 C 1002.363,435.0282 1002.8861,435.03207 1003.5948,435.01352 L 1003.655,435.07371 L 1003.8356,435.01352 L 1004.1365,435.01352 C 1017.7512,434.37431 1095.1863,421.53492 1100.1434,418.88197 C 1108.0284,414.66203 1109.3222,405.93477 1105.8014,398.83791 C 1104.9475,396.57291 1103.6254,394.50483 1101.8287,392.87887 C 1100.7088,391.86531 1098.7298,390.8007 1096.5318,389.92944 C 1094.9693,389.22247 1093.2552,388.6635 1091.4155,388.36444 L 1090.8737,388.30425 L 1084.4331,387.22079 C 1084.4311,387.21572 1084.375,387.22587 1084.373,387.22079 C 1084.1781,386.73515 1084.0011,386.1865 1083.771,385.41502 C 1083.7468,385.33369 1083.7355,385.19842 1083.7108,385.11405 L 1077.3906,346.71133 L 1071.4316,310.23476 C 1071.5612,307.00172 1072.4191,303.45644 1074.381,298.0759 L 1090.0912,262.02067 C 1108.2198,220.36473 1109.8078,217.46155 1116.5759,213.80659 C 1118.0102,213.03201 1119.5126,211.93123 1121.0301,210.79698 C 1121.286,210.64475 1121.5069,210.47585 1121.7524,210.31544 C 1123.1724,209.38765 1124.423,208.28768 1125.4843,207.12524 C 1125.5033,207.10446 1125.5257,207.08589 1125.5445,207.06505 C 1125.783,206.82936 1125.9888,206.57295 1126.2066,206.34274 C 1126.7465,205.77223 1127.2691,205.22946 1127.6513,204.71755 C 1133.1449,197.35944 1130.4353,186.56081 1121.8126,181.54349 C 1118.7915,179.78556 1117.1093,178.94643 1113.2051,179.01541 z M 448.68141,290.13051 C 446.02774,290.15863 443.25907,290.28071 440.31467,290.43147 C 408.11374,292.08024 382.86895,302.36235 361.88402,322.33342 C 348.46995,335.09942 340.98121,346.36485 334.25573,364.10692 C 330.78083,373.27386 328.70749,384.75228 328.05591,397.15253 C 328.05273,397.21293 328.05901,397.27266 328.05591,397.3331 C 327.9476,399.11029 327.89313,400.88382 327.87534,402.69022 C 327.86382,403.85934 327.84895,405.04832 327.87534,406.24157 C 327.91459,419.72882 329.50159,433.92748 332.75092,447.23257 C 332.87275,447.73143 332.97994,448.17512 333.05188,448.5568 C 333.06517,448.62726 333.04067,448.67077 333.05188,448.73738 C 333.06006,448.83294 333.10514,449.00935 333.11207,449.09853 C 333.13124,449.34529 333.10279,449.50472 333.11207,449.70046 C 333.00371,451.08369 331.5854,450.79677 327.03264,449.3995 C 324.70824,448.68611 322.42603,448.37598 320.2911,448.31603 C 316.83814,447.68125 314.56262,447.88779 313.12821,449.51988 C 311.37691,450.36585 310.19827,451.61411 309.87782,453.19162 C 309.50137,455.04483 309.93973,461.76301 310.8409,468.11932 C 311.23426,470.89387 311.50873,473.56882 311.68359,476.1851 C 311.70358,476.48425 311.72649,476.79055 311.74378,477.08798 C 311.76982,477.67068 311.78281,478.2701 311.80398,478.83356 C 311.80688,478.91115 311.80116,478.99709 311.80398,479.07433 C 312.36857,494.12051 309.25638,506.35312 302.9557,514.88879 C 302.08053,515.92408 301.15515,516.94923 300.12666,518.01879 C 298.69774,519.50474 297.24492,520.84386 295.79281,522.05168 C 290.75735,525.69758 284.63936,527.85503 277.49433,528.37187 C 263.01251,529.4194 252.03739,524.41081 240.17506,511.21705 C 220.28994,489.10001 208.83703,431.92688 217.0612,395.7681 C 225.55092,358.44167 252.34188,345.58383 276.71183,362.96327 C 276.87185,363.07739 277.03355,363.20769 277.19337,363.32442 C 278.45361,364.3704 279.81452,365.58399 281.16606,366.81558 C 281.18777,366.83536 281.20453,366.85593 281.22626,366.87577 C 283.5173,369.09697 286.18054,371.76637 289.23184,374.94155 C 289.45651,375.22147 289.66692,375.49716 289.89396,375.78424 C 298.96083,387.24887 304.53112,392.17151 310.23897,393.48079 C 310.29953,393.49468 310.35895,393.52791 310.41955,393.54098 C 310.53853,393.58105 310.66585,393.68936 310.7807,393.72156 C 310.81401,393.73603 310.86873,393.70819 310.90109,393.72156 C 311.20723,393.84805 311.46823,393.96233 311.68359,393.96233 C 311.84036,393.96233 312.00391,393.92835 312.16513,393.90214 C 312.18387,393.90214 312.2067,393.90237 312.22532,393.90214 C 312.40983,393.89979 312.58592,393.85006 312.76705,393.84195 C 312.82698,393.83927 312.88807,393.84526 312.94763,393.84195 C 313.1481,393.86061 313.34918,393.90183 313.54955,393.90214 C 332.40496,393.93163 332.27073,358.63109 313.30878,328.59343 C 307.89051,320.01032 298.30338,313.07555 291.9405,313.0638 C 286.52266,313.0538 279.62025,318.26891 277.43414,324.01881 C 276.60787,326.19205 275.72939,327.32135 274.6051,327.69054 C 274.58104,327.69289 274.56921,327.74875 274.5449,327.75073 C 273.80755,327.81064 272.93941,327.68316 271.89644,327.44977 C 271.86992,327.44099 271.80418,327.45875 271.77605,327.44977 C 269.47617,326.71569 262.01174,325.33878 254.38046,324.25958 C 217.01441,318.97534 178.26396,337.72026 153.13692,368.86212 C 149.68108,373.14517 146.46496,377.68229 143.56633,382.4054 C 136.3586,394.14984 130.95035,407.1122 128.0367,420.92851 C 124.45031,437.93494 125.46121,464.21685 130.32401,480.63933 C 132.6165,488.38144 136.1559,496.33369 140.49652,504.05416 C 141.02783,504.99919 141.56592,505.94672 142.12171,506.8832 C 143.65486,509.53012 145.28448,512.10749 147.05749,514.64802 C 147.20611,514.86534 147.32906,515.09365 147.47883,515.31013 C 148.22254,516.3602 148.98079,517.40743 149.76614,518.44014 C 159.134,531.23757 170.38591,542.27488 181.48751,548.71689 C 192.90709,555.34339 215.35457,563.16034 229.15986,565.32998 C 242.67489,567.45399 265.28703,566.07231 280.44375,562.19998 C 296.4071,558.12154 310.1224,550.42661 320.89302,539.92881 C 321.00641,539.81829 321.14144,539.73899 321.25418,539.62785 C 321.64813,539.2541 322.01397,538.86426 322.39783,538.48419 C 322.52496,538.35383 322.63274,538.19404 322.75898,538.06284 C 326.42692,534.3773 329.64996,530.40239 332.26938,526.20495 C 332.45489,525.92404 332.6288,525.64565 332.81111,525.36226 C 339.48414,514.98898 344.00155,502.94974 345.99324,489.66819 L 346.83593,483.94991 L 347.55824,481.06068 L 360.4394,494.66415 C 360.44907,494.67467 360.42971,494.71385 360.4394,494.72434 L 361.46267,495.74761 C 362.28921,496.62199 363.12678,497.47711 363.99075,498.33589 C 378.20066,512.83421 391.08504,520.70117 409.3156,525.96418 C 416.61565,528.07164 428.28036,528.88477 440.37486,528.55245 C 440.7984,528.54082 441.21439,528.50669 441.6389,528.49226 C 442.01845,528.4822 442.40254,528.5059 442.78255,528.49226 C 443.06244,528.48111 443.3452,528.44441 443.62525,528.43207 C 444.96905,528.37449 446.30958,528.29352 447.65814,528.1913 C 448.74412,528.10897 449.82017,528.06176 450.90852,527.95053 C 461.05582,527.12384 470.70906,525.54289 477.57374,523.25552 C 529.39239,505.98912 555.71826,469.1841 555.58304,414.18696 C 555.45256,361.1187 533.67531,320.02783 495.57125,300.96513 C 479.46018,292.9051 467.25706,289.93367 448.68141,290.13051 z M 651.46947,291.87609 C 666.92699,291.87609 679.41722,314.259 677.83373,339.12709 C 676.92853,353.34306 672.90439,360.32765 662.66525,365.43115 C 654.51247,369.49478 638.5118,371.66379 634.73599,369.70481 C 634.48569,369.26717 634.24746,368.76976 634.01369,368.13981 C 633.8944,367.81837 633.74167,367.25539 633.59234,366.69519 C 633.04776,362.42935 630.87552,349.02011 628.11484,333.28843 C 626.6576,324.98443 625.50301,317.98957 624.50329,311.98033 C 623.61237,305.28793 622.92232,299.84565 622.8781,297.59436 C 625.88284,295.15542 641.6366,291.87609 651.46947,291.87609 z M 430.02177,317.27726 C 445.42418,317.35005 458.55586,332.02428 468.96623,360.91672 C 477.72829,385.23448 480.64332,404.19141 480.70374,437.30083 C 480.73537,454.62209 480.6599,462.62722 479.62028,468.2999 C 479.59025,468.46379 479.53148,468.6213 479.49989,468.78144 C 478.8336,471.27094 478.03879,473.60382 477.21258,475.82394 C 477.16291,475.95743 477.14243,476.11289 477.0922,476.24529 C 476.8779,476.74382 476.6701,477.22121 476.43008,477.7501 C 473.88914,483.3492 469.40322,489.19512 465.71584,491.71473 C 458.34969,496.74806 445.06474,497.41048 437.24486,493.15934 C 436.61017,492.81431 435.94902,492.44563 435.3187,492.01569 C 415.77914,478.68777 398.60702,425.25595 398.3004,375.66385 C 398.17266,355.00173 400.98989,340.056 406.90791,330.45939 C 407.14111,330.08123 407.38736,329.73751 407.63021,329.37593 C 407.76828,329.17226 407.91091,328.97301 408.05156,328.774 C 408.44577,328.21621 408.84105,327.66957 409.25541,327.14881 C 409.81008,326.45171 410.4106,325.79197 411.00099,325.16246 C 413.9037,322.18549 417.30487,320.0787 421.23369,318.78207 C 424.23824,317.79049 427.16948,317.26378 430.02177,317.27726 z"
       id="path5470"
       style="fill:#182288;fill-opacity:1" />
  </g>
</svg>
