<?xml version="1.0" standalone="no"?>
<!DOCTYPE svg PUBLIC "-//W3C//DTD SVG 1.1//EN" "http://www.w3.org/Graphics/SVG/1.1/DTD/svg11.dtd">
<svg width="94px" height="70px" version="1.1" xmlns="http://www.w3.org/2000/svg" xmlns:xlink="http://www.w3.org/1999/xlink" xml:space="preserve" style="fill-rule:evenodd;clip-rule:evenodd;stroke-linejoin:round;stroke-miterlimit:1.41421;">
    <g>
        <path d="M45.2942,63.0555L44.6064,63.0611L43.9644,63.0512L43.1187,63.0512L42.2758,62.9841L41.6422,62.9487L40.6979,62.8696L40.1799,62.8236L39.7711,62.7784L38.7154,62.6702L37.9507,62.5655L37.3144,62.4864L36.4306,62.3527L35.8753,62.2665L35.3481,62.1746L34.4481,62.0332L33.477,61.7886L33.0753,61.7087L32.6405,61.6182L31.6785,61.4209L31.0252,61.2555L30.2845,61.0816L29.6692,60.9098L28.9455,60.7232L28.1371,60.4856L27.5768,60.323L27.0307,60.1441L26.2364,59.879L25.3569,59.5538L24.9312,59.4004L24.502,59.2343L23.5957,58.9253L22.6972,58.5478L22.3279,58.3937L21.9262,58.2367L21.022,57.8514L20.2474,57.4357L19.7316,57.2229L19.2721,56.991L18.5004,56.6191L17.6596,56.1759L17.2438,55.9595L16.8421,55.7206L16.0302,55.2504L15.2945,54.8149L14.8159,54.5265L14.329,54.2218L13.6038,53.787L12.9568,53.3112L12.4304,52.9584L11.911,52.5893L11.2407,52.1524L10.6636,51.7077L10.1117,51.2574L9.4528,50.7561L8.95877,50.3843L8.40343,49.9049L7.86077,49.4383L7.28358,48.9307L6.73247,48.4698L6.48863,48.2379L6.11581,47.8872L5.66266,47.4432L5.50057,47.2714L5.34764,47.0975L4.9121,46.6436L4.59356,46.2767L4.36522,46.0144L4.10305,45.6751L3.86837,45.3697L3.68091,45.0791L3.37434,44.6747L3.12063,44.3L2.91837,43.9932L2.72949,43.6899L2.49481,43.306L2.26224,42.8203L2.12975,42.5516L1.99726,42.2865L1.77244,41.8376L1.60894,41.3978L1.46588,41.0804L1.34678,40.7439L1.1727,40.3126L1.04373,39.875L0.938021,39.5434L0.834423,39.1751L0.70334,38.724L0.632865,38.3345L0.546181,37.9181L0.475001,37.5031L0.408755,37.122L0.367174,36.69L0.32207,36.2524L0.289652,35.8289L0.25371,35.4224L0.207901,34.7324L0.173368,33.942L0.129674,33.1148L0.0902079,32.2035L0.0577894,31.3297L0.0267805,30.441L0.00845699,29.5983L0,28.8397L0,28.1391L0.0119807,27.5877L0.0373517,26.9196L0.0648369,26.103L0.102189,25.1981L0.158569,24.2012L0.243138,23.128L0.364355,21.9976L0.534905,20.8445L0.754082,19.6575L0.861204,19.1965L0.990877,18.7094L1.16143,18.2067L1.37567,17.6574L1.6477,17.0876L1.99374,16.498L2.41729,15.8779L2.94233,15.2028L3.61818,14.5177L4.37367,13.7768L5.28139,12.9956L5.97416,12.4788L6.693,11.9888L7.45907,11.4932L8.23077,11.0288L8.97428,10.6032L9.734,10.2207L10.4232,9.86719L11.0427,9.54127L11.6129,9.27262L12.0864,9.04285L12.417,8.88025L13.226,8.54514L13.9731,8.24891L14.6933,7.96612L15.5186,7.6303L16.4679,7.28812L17.1191,7.03573L17.7836,6.80526L18.7372,6.4751L19.6597,6.19513L20.3701,5.98162L21.0438,5.78508L21.991,5.49027L23.0242,5.22021L23.6436,5.04487L24.4083,4.85894L25.3266,4.61008L26.2575,4.41354L27.0137,4.25023L27.7093,4.106L28.7199,3.90169L29.7496,3.72423L30.4085,3.5991L31.0928,3.48598L32.1246,3.2951L33.0852,3.16501L33.8625,3.0519L34.668,2.95857L35.6166,2.82566L36.7372,2.71254L37.3721,2.64043L37.8316,2.60862L39.1326,2.475L40.602,2.39299L40.8621,2.36754L41.2694,2.34916L42.6359,2.26856L43.6649,2.24594L44.4154,2.2219L45.2075,2.212L46.2005,2.18372L47.1942,2.19998L47.9864,2.19998L48.7334,2.212L49.7743,2.2219L51.1789,2.28411L51.5651,2.30037L51.9111,2.31593L53.31,2.37956L54.604,2.49197L54.969,2.52095L55.3299,2.54923L56.6097,2.66659L57.6147,2.80021L58.2496,2.8702L58.8303,2.95292L59.8487,3.083L61.0165,3.27035L61.4457,3.34388L61.8819,3.42023L63.0462,3.61395L64.1871,3.83947L64.6347,3.92502L65.0758,4.02753L66.1978,4.24316L67.1548,4.48282L67.7405,4.62139L68.3085,4.76703L69.3001,5.02084L70.1733,5.2909L70.8336,5.47472L71.4588,5.67338L72.3439,5.92719L73.2277,6.23048L73.8359,6.43551L74.4652,6.64689L75.3461,6.95231L76.3638,7.37508L76.8233,7.54971L77.2476,7.73352L78.2694,8.14428L79.0489,8.48646L79.7149,8.78268L80.3872,9.10507L81.1702,9.45078L81.8531,9.83184L82.548,10.1882L83.2732,10.5572L83.9645,10.9107L84.8701,11.4353L85.7863,12.0207L86.6701,12.6499L87.5651,13.3399L88.3826,14.114L89.1691,14.8959L89.8795,15.7436L90.1057,16.0978L90.1853,16.2067L90.2382,16.2915L90.4884,16.6514L90.9979,17.5839L91.4116,18.585L91.4729,18.8536L91.549,19.094L91.616,19.357L91.6738,19.6101L91.776,20.2301L91.8697,20.7356L91.9395,21.2354L92.0381,21.8548L92.1185,22.6211L92.1593,22.9916L92.1967,23.3571L92.2693,24.1256L92.3073,24.9096L92.3327,25.2716L92.3503,25.6413L92.387,26.4261L92.4025,28.757L92.3503,31.071L92.2341,33.3998L92.072,35.7179L92.0106,36.2298L91.9803,36.4468L91.9423,36.7169L91.8711,37.3044L91.7809,37.7413L91.7485,37.9237L91.6547,38.3472L91.549,38.8244L91.4236,39.2882L91.3961,39.3716L91.3122,39.6502L91.11,40.319L90.969,40.6506L90.9401,40.7382L90.6709,41.4445L90.5377,41.7775L90.3799,42.1055L90.0662,42.7439L89.9915,42.874L89.8555,43.1801L89.697,43.4467L89.322,44.0405L89.198,44.2215L89.0091,44.5043L88.7286,44.8592L88.446,45.2721L88.2825,45.4856L88.0401,45.7931L87.8836,45.9649L87.4601,46.4252L87.0922,46.7801L86.8984,46.9858L86.4805,47.3789L85.8117,48.0152L85.1591,48.5843L84.6164,49.0474L83.8793,49.6907L83.5762,49.9452L83.0307,50.3652L82.2703,50.959L81.7269,51.3585L81.2738,51.7459L80.3922,52.3447L79.8643,52.7329L79.3301,53.0779L78.9023,53.3691L77.6803,54.1659L77.3857,54.3582L76.8015,54.6947L76.4526,54.8969L75.4258,55.4745L74.8437,55.8521L74.2341,56.1476L73.962,56.296L72.7118,56.9302L72.6399,56.9585L72.2079,57.1628L71.6462,57.4152L71.4115,57.5255L70.1,58.1356L69.9753,58.1844L69.5397,58.3739L69.0492,58.5683L68.811,58.6665L67.4713,59.1636L67.3092,59.2244L66.8243,59.4131L66.2281,59.604L66.1485,59.6386L64.7932,60.1159L64.7488,60.1321L64.0307,60.3605L63.4768,60.5075L63.4204,60.5231L62.0602,60.902L61.7332,60.977L61.1765,61.1219L60.7205,61.2216L60.6676,61.247L59.244,61.5588L58.7585,61.6535L58.2933,61.7631L57.9071,61.8303L57.8634,61.843L56.4194,62.1336L55.907,62.2142L55.3263,62.3082L54.7026,62.3916L53.5299,62.5443L52.9795,62.6044L52.346,62.685L51.5313,62.7571L50.5982,62.8363L50.2127,62.8639L49.2873,62.941L48.3416,62.9742L47.6425,63.0032L47.1026,63.0279L46.2203,63.0555Z" style="fill:rgb(237,28,36);fill-rule:nonzero;"/>
        <path d="M45.0915,60.7143L46.8302,60.7143L48.5582,60.5991L50.2707,60.3672L51.929,60.0158L53.5147,59.5054L55.0482,58.925L56.5141,58.2229L57.5804,57.5258L58.5558,56.8408L59.362,56.138L60.0816,55.3766L60.6559,54.6548L61.119,53.9315L61.5002,53.1906L61.8181,52.5077L62.0718,51.8551L62.2423,51.2146L62.353,50.6526L62.4298,50.1577L62.4587,49.725L62.4707,49.3581L62.4671,49.0795L62.4587,48.9141L62.4552,48.854L63.656,48.6377L64.9493,48.3825L66.2897,48.0735L67.6294,47.7214L69.0347,47.305L70.4442,46.8285L71.8417,46.3386L73.2639,45.8076L74.6642,45.2194L76.0216,44.5888L77.3669,43.9405L78.6489,43.2519L79.8899,42.4968L81.0817,41.7439L82.1564,40.9436L83.1811,40.1129L84.0853,39.2751L84.8852,38.3674L85.5836,37.4787L86.139,36.5087L86.5526,35.572L86.8353,34.5942L86.9473,33.9586L87.046,33.2764L87.1327,32.5206L87.213,31.7712L87.2588,31.0374L87.3117,30.3205L87.3356,29.675L87.3525,29.1384L87.3575,28.7234L87.3455,27.8546L87.3032,26.9129L87.2285,25.8814L87.1418,24.9057L87.0424,23.9732L86.8641,23.1284L86.5674,22.35L86.1693,21.6041L85.6724,20.9693L85.0896,20.3945L84.4222,19.8508L83.728,19.3722L82.9923,18.96L82.2213,18.5973L81.4651,18.2785L80.6905,17.9915L79.9513,17.7497L76.6418,16.9218L73.2667,16.2608L69.8395,15.6846L66.4158,15.2279L62.9337,14.8822L59.4353,14.6121L55.9764,14.4106L52.4675,14.2466L45.3438,14.1511L41.1111,14.2466L36.9073,14.4106L32.7288,14.6496L28.5835,14.9875L24.4389,15.4527L23.0498,15.6365L21.6178,15.8451L20.2012,16.0939L18.7572,16.3463L17.3103,16.6171L15.9276,16.9006L14.5914,17.2046L13.3123,17.5241L12.165,17.8571L11.0902,18.1951L10.1783,18.5351L9.39107,18.8688L8.64403,19.264L7.94421,19.7328L7.26836,20.2856L6.66228,20.8858L6.15345,21.5561L5.72848,22.3337L5.39866,23.1659L5.17737,24.0814L5.04135,25.7329L4.94974,27.4339L4.93212,29.072L4.95396,29.7521L4.97158,30.3141L4.99202,30.8111L5.0329,31.229L5.05263,31.6397L5.07377,32.1021L5.21825,33.3655L5.45504,34.5002L5.79543,35.5797L6.21758,36.5589L6.73205,37.507L7.35716,38.3603L8.06332,39.2094L8.83995,39.975L9.71314,40.7018L10.6512,41.4569L12.3707,42.5909L14.1502,43.6612L15.9671,44.5789L17.8156,45.4294L19.7079,46.1597L21.6431,46.8221L23.6101,47.445L25.5947,47.9731L27.606,48.4517L29.6427,48.9L29.6695,50.1174L29.845,51.245L30.1445,52.3677L30.6125,53.3971L31.1643,54.4158L31.8148,55.3208L32.5914,56.2101L33.4442,56.9652L34.3688,57.6397L35.4189,58.2738L36.8939,58.9554L38.407,59.5209L40.0251,60.0243L41.6954,60.3743L43.3994,60.5991Z" style="fill:white;fill-rule:nonzero;"/>
        <path d="M44.8448,59.4795L44.3036,59.442L44.2458,59.442L43.4078,59.3925L41.9603,59.2158L41.6185,59.1501L41.5353,59.1366L41.2442,59.0829L40.5303,58.9549L39.1786,58.588L38.8671,58.489L38.8791,58.489L38.2251,58.2684L38.1722,58.2487L37.8269,58.1228L37.3258,57.893L36.9988,57.705L36.9122,57.659L36.5175,57.5L36.1341,57.2681L35.7831,57.0659L35.6626,56.9909L35.3053,56.7852L34.9833,56.542L34.6309,56.3144L34.4434,56.1843L34.1185,55.9432L33.8183,55.6399L33.5484,55.3939L33.2418,55.1033L33.0339,54.9174L32.8176,54.6473L32.7259,54.5335L32.6745,54.4493L32.4243,54.1899L32.2284,53.8922L32.1248,53.7339L32.0867,53.6554L31.9239,53.3768L31.5131,52.5476L31.1882,51.6808L30.9648,50.7433L30.8492,49.8342L30.8527,48.8677L30.8985,48.5842L30.9077,48.4902L30.9366,48.2979L30.9909,47.9352L31.0634,47.6694L31.1029,47.5082L31.1677,47.2714L31.253,46.973L31.3756,46.7093L31.4877,46.4513L31.6279,46.1861L31.7224,45.9748L31.8521,45.786L32.043,45.4601L32.1417,45.3052L32.2946,45.0359L32.6238,44.6675L32.7443,44.524L32.8006,44.4646L33.005,44.2144L33.0966,44.1175L33.1086,44.1126L33.4934,43.7181L33.5836,43.6361L33.7605,43.4593L34.5851,42.7495L35.4921,42.1613L36.4132,41.6381L37.4161,41.168L38.4069,40.7381L39.4478,40.3938L40.4437,40.1125L41.4888,39.8756L42.2415,39.7554L42.3098,39.7427L42.3711,39.7321L43.1062,39.6169L43.8265,39.5511L44.0259,39.525L44.1365,39.5172L44.6933,39.467L46.3191,39.4175L47.3135,39.4529L47.446,39.4599L47.4756,39.4599L47.9471,39.4741L49.549,39.6452L51.0833,39.9279L51.4695,40.029L51.6019,40.0496L52.3877,40.2581L52.6238,40.3246L53.0255,40.466L53.1623,40.5063L53.4463,40.6116L54.1193,40.8435L54.5633,41.0641L54.7028,41.1348L55.0482,41.2995L55.5084,41.5116L55.9954,41.7576L56.1807,41.8545L56.3816,41.9761L56.8756,42.2589L57.5782,42.7651L58.3076,43.3441L58.9539,43.9295L59.092,44.0857L59.2168,44.2052L59.4021,44.4201L59.5438,44.5912L59.5557,44.5912L59.7263,44.8245L59.8912,44.9921L59.9955,45.1532L60.1618,45.4028L60.3528,45.769L60.4219,45.8885L60.4515,45.955L60.5995,46.2342L60.7581,46.6506L60.8158,46.8048L60.8278,46.8458L60.9244,47.1123L61.1224,48.0646L61.2056,48.9872L61.202,49.1986L61.202,49.2665L61.1865,49.7953L61.1802,49.9607L61.1421,50.165L61.1337,50.2852L61.0505,50.7667L61.0407,50.8777L60.7884,51.8215L60.6608,52.1311L60.6249,52.2238L60.5769,52.3333L60.4346,52.6819L60.2267,53.0128L60.0991,53.2347L59.9849,53.4094L59.7171,53.8138L59.4388,54.1559L59.3274,54.3086L59.1371,54.5363L58.932,54.7922L58.7157,55.0064L58.5099,55.2228L58.29,55.4419L58.0737,55.6675L57.7932,55.9114L57.5648,56.0825L57.4063,56.2019L57.0948,56.455L56.7093,56.706L56.5944,56.7866L56.4767,56.8658L56.0926,57.1168L55.6768,57.3338L55.5204,57.4024L55.4005,57.4554L54.989,57.6774L54.5633,57.9036L54.4393,57.9595L54.3096,58.0104L53.879,58.1949L52.6922,58.588L51.5153,58.9047L50.2784,59.143L49.031,59.3155L47.816,59.4293L46.3227,59.4873Z" style="fill:rgb(237,28,36);fill-rule:nonzero;"/>
        <path d="M48.1821,56.6954L52.7094,56.6954L53.0618,56.6714L53.3275,56.5469L53.4325,56.3561L53.474,56.0973L53.455,55.811L53.3986,55.495L53.3105,55.2687L53.0942,54.9393L52.7961,54.648L52.3197,54.2839L51.8122,53.9332L51.2689,53.5939L50.7904,53.2715L50.3548,53.0106L49.9884,52.7915L49.7022,52.6197L49.5338,52.5122L48.9784,52.1389L48.6296,51.7868L48.3421,51.3683L48.1257,50.9512L47.9918,50.4945L47.9777,49.9939L48.0933,49.721L48.2737,49.5698L48.502,49.5033L48.7409,49.509L49.0024,49.5422L49.2681,49.5825L49.5613,49.5903L49.7776,49.5365L49.9256,49.4305L50.0243,49.2636L50.1399,49.0883L50.3118,48.9087L50.5825,48.7398L50.9694,48.5807L51.3372,48.3481L51.6861,48.0596L51.8919,47.7069L51.9715,47.3527L51.9173,46.9872L51.8087,46.6556L51.7044,46.3261L51.6058,46.0087L51.5564,45.6644L51.5226,45.3052L51.3986,44.9489L51.216,44.6746L50.877,44.2547L50.6579,43.8149L50.4789,43.3646L50.2843,42.881L50.0342,42.5841L49.6973,42.3663L49.2561,42.2044L48.9192,42.0291L48.6113,41.7965L48.3266,41.5229L48.0461,41.2726L47.7494,41.0641L47.4343,40.9524L47.1778,40.9411L46.9001,40.8965L46.6175,40.8435L46.4061,40.7615L46.1623,40.6533L45.8635,40.5854L45.5893,40.5706L45.4068,40.5854L44.9931,40.6243L44.6816,40.5854L44.4448,40.5565L44.1706,40.5494L43.8895,40.5854L43.6083,40.724L43.3722,40.9898L43.0846,41.385L42.6963,41.7039L42.3383,42.022L42.1621,42.3175L42.0846,42.6527L42.0747,43.0323L42.0747,43.3985L42.0353,43.6813L41.9331,44.1253L41.8957,44.495L41.8873,44.8676L41.9077,45.3498L41.8245,45.6156L41.642,45.8751L41.4172,46.1388L41.1896,46.4046L41.0225,46.6938L40.9887,46.7949L41.012,46.9002L41.1106,47.0077L41.5384,47.3456L41.6054,47.5372L41.5927,47.7337L41.5708,47.9119L41.6082,48.0186L41.7259,48.124L41.7548,48.2046L41.7259,48.2647L41.6829,48.3127L41.6575,48.3587L41.6913,48.4308L41.809,48.6436L41.8295,48.8967L41.809,49.159L41.7752,49.4418L41.7787,49.7005L41.8774,49.9077L42.0472,50.059L42.2685,50.1608L42.4919,50.2357L42.6674,50.2994L42.907,50.3778L43.1762,50.4514L43.3278,50.4888L43.6209,50.6422L43.8662,50.8678L43.9987,51.1718L44.0382,51.5627L43.9768,51.9304L43.8352,52.233L43.289,52.7554L42.6244,53.1648L41.9725,53.5062L41.3425,53.8336L40.7435,54.1255L40.2071,54.4493L39.7251,54.8049L39.3368,55.1492L39.0767,55.4808L38.947,55.7884L38.8787,55.9849L38.8674,56.1376L38.8893,56.2599L38.9604,56.4869L39.0866,56.6389L39.2874,56.6954L40.3361,56.6954L40.8865,56.6997L47.361,56.6997Z" style="fill:white;fill-rule:nonzero;"/>
        <path d="M9.91568,36.6555L9.91568,21.9807L14.6488,21.9807C15.918,21.9539 17.7631,22.2452 18.9308,23.7729C19.6412,24.7726 20.0056,26.2912 20.0006,28.7303C20.0056,31.6084 19.9732,34.3289 17.8674,35.8291C16.5121,36.7976 14.9095,36.623 14.6297,36.6555ZM24.0086,26.7797C24.0931,26.9961 24.3475,26.3053 25.0762,25.6415C25.8522,24.9614 27.0798,25.0413 27.4322,25.0201L27.4322,27.5214C26.1094,27.5023 24.1939,28.2368 24.153,30.0446L24.153,36.6555L21.5074,36.6555L21.5074,25.2831L23.9571,25.2831C23.9571,25.2831 23.9486,26.6093 24.0086,26.7797M25.4096,34.326L27.7458,34.326L27.7458,36.6555L25.4096,36.6555ZM12.8524,34.3501L14.159,34.3501L14.4366,34.3395L14.4754,34.3395L14.7362,34.326L14.9518,34.2815L14.9828,34.2744L15.0343,34.2624L15.2246,34.2299L15.3916,34.1641L15.4374,34.1472L15.4649,34.1345L15.6516,34.063L15.7545,33.9839L15.8356,33.9422L15.9617,33.8467L16.0181,33.8064L16.0822,33.74L16.1626,33.653L16.207,33.5809L16.3042,33.4734L16.5234,33.0365L16.694,32.4624L16.8131,31.7866L16.8962,31.0032L16.9463,30.0432L16.9752,28.9848L16.9752,28.0247L16.9343,27.2174L16.8455,26.5047L16.7095,25.8698L16.6312,25.6783L16.6101,25.6083L16.5798,25.5439L16.5121,25.3622L16.2359,24.9593L16.1132,24.8546L16.054,24.8051L15.9836,24.7542L15.8511,24.6468L15.6516,24.5549L15.6122,24.5379L15.591,24.5259L15.3747,24.4177L15.1379,24.364L15.109,24.3548L15.0512,24.3371L14.8228,24.2897L14.579,24.2721L14.4958,24.2608L14.407,24.2608L14.1505,24.2388L12.8524,24.2388ZM35.5298,21.6676C39.6039,21.6676 40.9881,24.9388 40.9881,29.3348C40.9881,33.3158 39.9042,37.0797 35.5298,37.0797C31.0539,37.0797 29.9898,33.9895 30.0067,29.2796C30.0292,24.7832 31.6276,21.6676 35.5298,21.6676M46.7367,24.8242C50.4529,24.8242 51.2654,27.6118 51.5072,29.1813C51.6636,30.4539 51.5565,31.5844 51.5565,31.5844L44.8839,31.5844C44.8889,31.5844 44.7881,32.4745 45.0051,33.3158C45.2581,34.1005 45.7268,35.1956 46.934,35.1956C48.1476,35.1956 48.8615,34.2596 48.8904,33.004L51.4557,33.004C51.4233,35.2946 49.8552,37.014 47.0905,37.0486C44.0178,37.0797 41.9705,35.2946 42.0353,30.9644C42.0966,26.8978 44.1263,24.8242 46.7367,24.8242M57.6603,36.6966C55.5235,36.9751 53.4325,36.8231 53.3529,34.4724L53.3529,27.1657L51.9089,27.1657L51.9089,25.1622L53.3339,25.1622L53.3339,22.962L56.0598,22.962L56.0598,25.1622L57.7808,25.1622L57.7808,27.1657L56.0598,27.1657L56.0598,34.215C56.1162,34.8966 57.1614,34.9305 57.6603,34.8436ZM58.8859,36.6895L58.8859,21.9539L61.466,21.9539L61.466,27.7469C61.4709,28.2156 61.4801,28.6928 61.4575,29.1524C61.4632,29.1524 61.4949,29.3751 61.7197,29.1813C61.9311,29.0095 64.9989,25.1622 64.9989,25.1622L68.0265,25.1622L64.328,29.4754L68.4127,36.6895L65.5556,36.6895L62.4773,31.6593L61.4949,32.7071L61.4949,36.6895ZM72.5143,24.8242C76.1966,24.8242 77.055,27.6118 77.2559,29.1813C77.4144,30.4539 77.3087,31.5844 77.3024,31.5844L70.677,31.5844C70.677,31.5844 70.5819,32.4745 70.7997,33.3158C71.004,34.1005 71.4762,35.1956 72.7236,35.1956C73.9006,35.1956 74.6377,34.2596 74.6716,33.004L77.2291,33.004C77.2065,35.2946 75.6011,37.014 72.8822,37.0486C69.7623,37.0797 67.7199,35.2946 67.7897,30.9644C67.8418,26.8978 69.8772,24.8242 72.5143,24.8242M81.0975,26.8172C81.1841,27.0378 81.3935,26.3428 82.1342,25.6874C82.9291,25.0038 84.1314,25.0823 84.4887,25.0667L84.4887,27.5659C83.1934,27.5482 81.2694,28.2778 81.23,30.0863L81.23,36.6966L78.5787,36.6966L78.5787,25.3226L81.051,25.3226C81.051,25.3226 81.034,26.6475 81.0975,26.8172M44.8755,29.433L48.7248,29.433L48.7248,29.4253L48.7283,29.3673L48.7333,29.2223L48.7283,29.0053L48.7079,28.7303L48.6572,28.4072L48.5803,28.0523L48.4507,27.72L48.2667,27.4125L48.0271,27.1318L47.7086,26.9133L47.3069,26.7642L47.0736,26.743L47.0327,26.7345L46.9629,26.7302L46.7776,26.7083L46.6599,26.7267L46.5471,26.7302L46.421,26.7507L46.311,26.7712L46.2089,26.8123L46.137,26.8328L46.0383,26.8886L45.934,26.9339L45.6352,27.1968L45.4005,27.5023L45.2208,27.8543L45.0545,28.2333L44.9671,28.6087L44.9149,28.9311L44.8889,29.1842L44.8804,29.3581ZM70.6672,29.433L74.4947,29.433L74.4947,29.4253L74.4996,29.3673L74.5031,29.2223L74.4996,29.0053L74.4792,28.7303L74.4284,28.4072L74.3361,28.0523L74.2001,27.72L74.0176,27.4125L73.7758,27.1318L73.6426,27.0463L73.6194,27.0251L73.587,27.0038L73.4559,26.9133L73.057,26.7642L72.8653,26.743L72.8244,26.7345L72.7575,26.7302L72.5637,26.7083L72.4312,26.7267L72.3099,26.7302L72.181,26.7507L72.0598,26.7712L71.9576,26.8123L71.8906,26.8328L71.7891,26.8886L71.6834,26.9339L71.3839,27.1968L71.1436,27.5023L70.9752,27.8543L70.8405,28.2333L70.7609,28.6087L70.7081,28.9311L70.6806,29.1842L70.6735,29.3581ZM35.4516,34.9425L35.5178,34.9425L35.5178,34.9376L35.675,34.9171L35.7173,34.9171L35.7701,34.9114L35.9829,34.8966L36.1105,34.8499L36.1789,34.8365L36.3008,34.7919L36.4185,34.7531L36.5291,34.688L36.5665,34.6661L36.6687,34.6004L36.8174,34.5261L36.9076,34.4215L36.9189,34.413L36.9858,34.3331L37.1218,34.1755L37.1747,34.063L37.2888,33.8573L37.2952,33.8305L37.3382,33.747L37.508,33.1885L37.6208,32.4745L37.7004,31.6254L37.7364,30.6398L37.7448,29.4754L37.7399,28.7154L37.711,27.9364L37.6736,27.2174L37.5982,26.5394L37.4883,25.8783L37.3262,25.312L37.1098,24.8292L36.8174,24.4227L36.6778,24.323L36.5756,24.2261L36.551,24.2007L36.4305,24.1052L36.2888,24.0402L36.2021,23.9942L36.1394,23.9688L36.0083,23.9136L35.8667,23.8889L35.7461,23.8663L35.6369,23.8599L35.4889,23.8422L35.3444,23.8599L35.2267,23.8663L35.1161,23.8889L34.966,23.9136L34.8384,23.9688L34.7757,23.9942L34.6686,24.0402L34.5051,24.1052L34.4149,24.1922L34.3571,24.2261L34.2394,24.3371L34.1527,24.4227L34.0794,24.5337L34.0505,24.5633L33.9208,24.7578L33.868,24.8292L33.6559,25.312L33.4938,25.8783L33.381,26.5394L33.3035,27.2174L33.2535,27.9364L33.2365,28.7154L33.226,29.4754L33.2365,30.6398L33.2704,31.6254L33.3458,32.4745L33.4614,33.1885L33.6312,33.747L33.8546,34.1755L33.9124,34.2469L34.0449,34.413L34.0794,34.4392L34.1457,34.5261L34.3021,34.6216L34.3655,34.6661L34.3909,34.6795L34.51,34.7531L34.6341,34.7919L34.7926,34.8365L34.8659,34.857L34.9956,34.8966L35.2049,34.9114L35.2606,34.9171L35.2986,34.9171L35.4516,34.9376Z" style="fill:rgb(0,84,166);fill-rule:nonzero;"/>
    </g>
</svg>
