<?xml version="1.0" encoding="UTF-8" standalone="no"?>
<svg
   xmlns:dc="http://purl.org/dc/elements/1.1/"
   xmlns:cc="http://creativecommons.org/ns#"
   xmlns:rdf="http://www.w3.org/1999/02/22-rdf-syntax-ns#"
   xmlns:svg="http://www.w3.org/2000/svg"
   xmlns="http://www.w3.org/2000/svg"
   xmlns:sodipodi="http://sodipodi.sourceforge.net/DTD/sodipodi-0.dtd"
   xmlns:inkscape="http://www.inkscape.org/namespaces/inkscape"
   width="838"
   height="279"
   id="svg2"
   version="1.1">
  <g
     inkscape:label="Layer 1"
     inkscape:groupmode="layer"
     id="layer1"
     transform="translate(-1.5800279,-392.86219)">
    <rect
       x="1.5800278"
       y="392.86218"
       width="838.00024"
       height="279"
       id="rect1399"
       style="fill:#ffffff" />
    <path
       d="m 569.32181,556.91915 h 43.82297 l -6.39296,23.49886 h -57.0583 c -7.72664,0 -10.8144,-3.71111 -10.8144,-12.80043 v -85.55845 h 68.09015 v 22.31014 h -37.66196 v 14.23558 h 29.47142 l -0.058,20.07768 h -29.41344 v 18.23662"
       id="path1401"
       style="fill:#231f20" />
    <path
       d="m 226.52262,543.61135 c 0.029,8.69791 -4.45043,16.93193 -14.91692,16.93193 -10.58246,0 -15.26483,-7.69765 -15.32282,-16.93193 v -61.52323 h -30.18175 l -0.029,61.46524 c 0.11597,25.3979 17.43931,39.24208 44.9682,39.24208 28.25371,0 45.83799,-14.88793 45.72202,-42.56178 v -58.16004 c 0,0 -17.19287,-0.029 -19.00494,-0.029 -8.40798,0 -11.29278,5.13177 -11.29278,12.9164 v 5.76961 l 0.058,42.88071"
       id="path1403"
       style="fill:#231f20" />
    <path
       d="m 126.83006,530.63696 c -0.087,-18.65702 -9.91562,-26.28219 -27.180973,-26.28219 H 92.13989 l -0.08698,53.94155 h 7.87161 c 19.744259,-0.13047 26.963529,-10.69843 26.905539,-27.65936 m 30.21075,-0.30443 c 0.11597,30.8341 -21.41136,50.08548 -52.9123,50.08548 H 62.1176 v -84.80464 c 0,-8.13255 3.769095,-13.38029 13.873168,-13.38029 h 32.443212 c 22.19417,0 48.43287,11.06085 48.60683,48.09945 z"
       id="path1405"
       style="fill:#231f20" />
    <path
       d="m 413.04933,546.97454 -11.46674,-38.05336 -10.98837,38.05336 h 22.45511 M 269.44681,494.96103 c 0,-8.13255 4.66788,-12.9164 13.72821,-12.9164 1.81206,0 37.71994,-0.14497 37.71994,-0.14497 20.46909,0 32.82012,9.85764 32.87811,24.1802 0.058,5.91458 -2.85582,12.98888 -7.69766,18.26561 l -10.69843,11.58272 18.09166,35.55996 26.28219,-77.91879 c 0,0 2.01501,-11.33628 15.45329,-11.33628 h 25.8183 l 34.48722,98.17043 h -32.37073 l -4.07352,-13.61223 h -34.12481 l -3.92856,13.61223 h -22.99147 0.029 -32.0518 L 304.4849,535.92819 c 0,0 6.53793,-7.78463 12.32204,-14.40954 3.3342,-3.88507 5.55217,-6.79887 5.55217,-10.16206 -0.029,-4.5809 -3.79809,-7.55269 -9.5967,-7.55269 h -13.3078 v 76.61411 h -29.92082 l -0.087,-85.45698 z"
       id="path1407"
       style="fill:#231f20" />
    <path
       d="m 623.4808,580.41801 h 62.11759 l 6.6539,-23.78879 h -37.74894 l -0.029,-74.39614 c 0,0 -14.85893,-0.18845 -16.69999,-0.18845 -9.74166,0 -14.32256,5.13177 -14.32256,13.22082 l 0.029,85.15256"
       id="path1409"
       style="fill:#231f20" />
    <path
       d="m 698.8482,580.41801 h 62.08859 l 6.62491,-23.78879 h -37.69095 l -0.058,-74.39614 c 0,0 -14.85893,-0.18845 -16.671,-0.18845 -9.74166,0 -14.32256,5.13177 -14.32256,13.22082 l 0.029,85.15256"
       id="path1411"
       style="fill:#231f20" />
    <path
       d="m 502.13044,580.41801 h 24.47012 l -0.058,-23.10745 h -17.35233 c -7.58168,0 -13.07586,-0.26094 -19.22239,-6.50894 -4.1605,-4.21849 -7.36423,-10.30703 -7.42222,-19.93271 -0.029,-6.94384 2.04401,-13.7572 6.56693,-19.03393 4.81284,-5.58116 10.48098,-7.1033 18.59903,-7.1033 h 19.00494 l -0.11598,-22.4986 h -26.02125 c -6.36397,0 -16.00415,0.69584 -26.35467,6.13203 -15.97516,8.66892 -23.13644,24.91952 -23.04946,42.30084 0.087,16.671 6.95833,28.65962 13.3078,35.415 12.9019,13.97464 29.92082,14.33706 37.64746,14.33706"
       id="path1413"
       style="fill:#231f20" />
    <path
       d="m 745.28055,506.00737 c 0,-12.17707 9.79965,-22.07819 22.0782,-22.07819 12.17708,0 22.0782,9.91562 22.0782,22.07819 0,12.20607 -9.91562,22.1072 -22.0782,22.1072 -12.27855,0.0145 -22.0782,-9.90113 -22.0782,-22.1072 m 38.3433,0 c 0,-9.82863 -6.79887,-16.84495 -16.2506,-16.84495 -9.61119,0 -16.2506,7.01632 -16.2506,16.84495 0,9.85764 6.63941,16.84496 16.2506,16.84496 9.45173,0 16.2506,-6.98732 16.2506,-16.84496 z m -5.29123,12.03212 H 772.563 l -5.29123,-10.10408 h -3.94305 v 10.10408 h -5.03029 v -23.86127 h 11.55372 c 6.23351,0 9.27778,1.72508 9.27778,7.27725 0,4.45043 -2.36294,6.20451 -6.55243,6.47994 l 5.75512,10.10408 z m -8.46597,-13.64123 c 2.69635,0.058 4.55191,-0.59436 4.55191,-3.56614 0,-3.17474 -3.43568,-2.97179 -5.72613,-2.97179 h -5.3927 v 6.53793 h 6.56692 z"
       id="path1415"
       style="fill:#231f20" />
  </g>
</svg>
