<?xml version="1.0" encoding="utf-8"?>
<!-- Generator: Adobe Illustrator 13.0.0, SVG Export Plug-In . SVG Version: 6.00 Build 14948)  -->
<!DOCTYPE svg PUBLIC "-//W3C//DTD SVG 1.0//EN" "http://www.w3.org/TR/2001/REC-SVG-20010904/DTD/svg10.dtd">
<svg version="1.0" id="Layer_1" xmlns="http://www.w3.org/2000/svg" xmlns:xlink="http://www.w3.org/1999/xlink" x="0px" y="0px"
	 width="192.756px" height="192.756px" viewBox="0 0 192.756 192.756" enable-background="new 0 0 192.756 192.756"
	 xml:space="preserve">
<g>
	<polygon fill-rule="evenodd" clip-rule="evenodd" fill="#FFFFFF" points="0,0 192.756,0 192.756,192.756 0,192.756 0,0 	"/>
	<polygon fill-rule="evenodd" clip-rule="evenodd" stroke="#000000" stroke-width="0.2208" stroke-miterlimit="2.6131" points="
		115.706,107.973 113.686,107.973 113.686,84.782 115.706,84.782 115.706,107.973 	"/>
	<polygon fill-rule="evenodd" clip-rule="evenodd" stroke="#000000" stroke-width="0.2208" stroke-miterlimit="2.6131" points="
		163.724,84.782 163.724,104.223 145.675,84.782 145.675,84.713 143.587,84.713 143.587,107.973 145.675,107.973 145.675,88.329 
		163.724,107.973 163.724,107.906 163.724,107.973 165.812,107.973 165.812,84.782 163.724,84.782 	"/>
	<polygon fill-rule="evenodd" clip-rule="evenodd" stroke="#000000" stroke-width="0.2208" stroke-miterlimit="2.6131" points="
		139.008,84.782 139.008,84.85 117.592,107.906 120.689,107.906 139.008,87.646 139.008,101.084 129.983,101.084 129.983,103.199 
		139.008,103.199 139.008,107.906 141.028,107.906 141.028,84.782 139.008,84.782 	"/>
	<path fill-rule="evenodd" clip-rule="evenodd" d="M105.065,97.4c0.067,0,0.135,0,0.135,0c3.367,0,6.129-3.069,6.129-6.479
		c0-3.274-2.56-6.002-5.725-6.139v-0.068h-0.337c0,0,0,0-0.067,0h-0.067H90.789h-2.088v23.259h2.088V86.828h14.681
		c2.021,0.273,3.569,1.978,3.569,4.093c0,2.183-1.684,4.297-3.906,4.434h-2.828v2.319h0.067l5.993,10.232h3.301L105.065,97.4
		L105.065,97.4z"/>
	<path fill-rule="evenodd" clip-rule="evenodd" d="M75.366,84.713L64.12,84.782v23.191h2.087h9.159h5.118c0.067,0,0.135,0,0.202,0
		s0.135,0,0.202,0h0.135c3.232-0.203,5.724-2.932,5.724-6.207c0-2.25-1.145-4.16-2.896-5.251c1.751-1.091,2.896-3.342,2.896-5.593
		c0-3.274-2.492-5.934-5.657-6.139v-0.068h-0.337h-0.067c-0.067,0-0.067,0-0.135,0H75.366L75.366,84.713z M75.366,105.859h-9.159
		V86.828h9.159h5.59c2.021,0.273,3.569,1.978,3.569,4.093c0,2.251-1.818,4.366-4.041,4.434v0.273V97.4v0.273
		c2.223,0,4.041,1.842,4.041,4.092c0,2.115-1.616,3.82-3.637,4.094H75.366L75.366,105.859z"/>
	<path fill-rule="evenodd" clip-rule="evenodd" fill="#00AEEF" d="M2.834,84.713v23.193h2.088L23.24,88.192v12.892h-8.89v2.115h8.89
		v4.707h2.021V84.713H2.834L2.834,84.713z M4.922,104.768v-7.913h7.408L4.922,104.768L4.922,104.768z M4.922,94.741v-7.913h16.836
		l-7.408,7.913H4.922L4.922,94.741z"/>
	<path fill-rule="evenodd" clip-rule="evenodd" d="M178.473,84.713c-6.33,0-11.517,5.184-11.517,11.596
		c0,6.411,5.187,11.663,11.517,11.663s11.448-5.252,11.448-11.663C189.921,89.897,184.803,84.713,178.473,84.713L178.473,84.713z
		 M178.473,105.518c-4.983,0-8.957-4.092-8.957-9.071c0-5.048,3.974-9.072,8.957-9.072c4.916,0,8.957,4.024,8.957,9.072
		C187.43,101.426,183.389,105.518,178.473,105.518L178.473,105.518z"/>
	<polygon fill-rule="evenodd" clip-rule="evenodd" stroke="#000000" stroke-width="0.2208" stroke-miterlimit="2.6131" points="
		55.432,86.964 55.432,84.85 32.871,84.85 32.871,85.055 32.871,107.973 34.892,107.973 34.892,97.332 48.184,97.332 
		38.394,107.906 41.491,107.906 59.742,87.646 59.742,101.084 50.785,101.084 50.785,103.199 59.742,103.199 59.876,108.041 
		61.964,108.041 61.83,84.782 59.81,84.782 59.742,84.782 59.742,84.85 50.141,95.218 34.892,95.218 34.892,86.964 55.432,86.964 	
		"/>
</g>
</svg>
