<?xml version="1.0" encoding="utf-8"?>
<!-- Generator: Adobe Illustrator 15.0.0, SVG Export Plug-In . SVG Version: 6.00 Build 0)  -->
<!DOCTYPE svg PUBLIC "-//W3C//DTD SVG 1.1//EN" "http://www.w3.org/Graphics/SVG/1.1/DTD/svg11.dtd" [
	<!ENTITY ns_extend "http://ns.adobe.com/Extensibility/1.0/">
	<!ENTITY ns_ai "http://ns.adobe.com/AdobeIllustrator/10.0/">
	<!ENTITY ns_graphs "http://ns.adobe.com/Graphs/1.0/">
	<!ENTITY ns_vars "http://ns.adobe.com/Variables/1.0/">
	<!ENTITY ns_imrep "http://ns.adobe.com/ImageReplacement/1.0/">
	<!ENTITY ns_sfw "http://ns.adobe.com/SaveForWeb/1.0/">
	<!ENTITY ns_custom "http://ns.adobe.com/GenericCustomNamespace/1.0/">
	<!ENTITY ns_adobe_xpath "http://ns.adobe.com/XPath/1.0/">
]>
<svg version="1.1" id="Layer_1" xmlns:x="&ns_extend;" xmlns:i="&ns_ai;" xmlns:graph="&ns_graphs;"
	 xmlns="http://www.w3.org/2000/svg" xmlns:xlink="http://www.w3.org/1999/xlink" x="0px" y="0px" width="722.88px"
	 height="146.4px" viewBox="0 0 722.88 146.4" enable-background="new 0 0 722.88 146.4" xml:space="preserve">
<metadata>
	<sfw  xmlns="&ns_sfw;">
		<slices></slices>
		<sliceSourceBounds  y="24970" x="8498" width="-32766" height="-32766" bottomLeftOrigin="true"></sliceSourceBounds>
	</sfw>
</metadata>
<g>
	<g>
		<path fill-rule="evenodd" clip-rule="evenodd" fill="#144E9D" d="M722.88,30.96c0,0.32,0,0.64,0,0.96
			c-0.465,9.285-10.102,15.753-19.2,11.52c-11.349-5.28-8.988-23.495,3.359-25.2C716.925,16.875,721.588,23.126,722.88,30.96z
			 M701.04,25.44c-0.52,0.777-1.574,2.938-1.68,5.52c-0.182,4.447,2.515,8.241,5.28,9.6c8.941,4.395,16.096-3.874,14.88-11.28
			c-0.804-4.895-5.965-8.709-12-7.68C704.515,22.112,702.275,23.596,701.04,25.44z"/>
		<path fill-rule="evenodd" clip-rule="evenodd" fill="#144E9D" d="M704.16,24.48c3.852,0.715,9.679-1.424,11.521,1.2
			c1.608,2.291,0.548,7.069-3.12,6.72c1.21,1.75,2.004,3.916,3.36,5.52c-0.727,0.554-2.476,0.084-3.601,0.24
			c-0.848-2.112-1.872-4.048-3.12-5.76c-0.56,0-1.12,0-1.68,0c-0.558,1.443-0.082,3.918-0.24,5.76c-1.04,0-2.08,0-3.12,0
			C704.16,33.6,704.16,29.04,704.16,24.48z M707.28,30.24c1.921-0.16,4.568,0.408,5.76-0.48c0.202-0.598,0.314-1.286,0.24-2.16
			c-1.022-1.217-3.927-0.553-6-0.72C707.28,28,707.28,29.12,707.28,30.24z"/>
	</g>
	<path fill-rule="evenodd" clip-rule="evenodd" fill="#144E9D" d="M434.64,105.12c-22,0-44,0-66,0
		c-0.697,4.289-0.948,9.652,0.72,12.479c2.058,3.488,7.059,4.292,11.04,2.88c3.527-1.25,5.56-4.279,6.96-7.199
		c14.641,0,29.28,0,43.92,0c-7.177,16.631-22.375,27.186-42,31.439c-23.054,4.997-46.051-1.332-56.88-13.68
		c-6.175-7.04-9.056-17.319-8.16-28.08c0.896-10.762,4.421-19.786,9.36-27.36c9.448-14.488,25.933-25.498,47.52-26.879
		C416.87,46.432,442.419,68.668,434.64,105.12z M381.84,73.68c-5.873,0.748-9.553,6.717-10.32,12c7.12,0,14.24,0,21.36,0
		C393.669,77.811,388.727,72.803,381.84,73.68z"/>
	<path fill-rule="evenodd" clip-rule="evenodd" fill="#144E9D" d="M461.28,20.64c15.2,0,30.4,0,45.601,0
		c-1.627,10.373-3.079,20.921-4.801,31.2c4.533,0.204,10.229-0.484,15.36-0.48c-2.001,11.679-3.561,23.799-5.52,35.52
		c-5.12,0-9.676-0.564-14.641-0.72c-0.865,1.946-1.033,4.347-1.439,6.96c-2.598,16.689-5.017,34.073-7.681,51.12
		c-15.279,0-30.56,0-45.84,0c3.062-19.258,5.86-38.78,8.88-58.08c-3.857,0.143-7.28,0.719-11.279,0.72
		c1.971-11.709,3.527-23.832,5.52-35.52c3.658,0.182,7.362,0.318,10.8,0.72C458.142,41.822,459.262,30.783,461.28,20.64z"/>
	<path fill-rule="evenodd" clip-rule="evenodd" fill="#144E9D" d="M537.84,20.64c15.119,0,30.239,0,45.359,0
		c-1.234,10.685-3.094,20.746-4.56,31.2c4.462,0.221,10.063-0.496,15.12-0.48c-1.632,11.969-3.597,23.604-5.28,35.52
		c-5.205,0.006-9.807-0.594-14.88-0.72c-3.24,19.079-6.04,38.601-8.88,58.08c-15.28,0-30.561,0-45.84,0
		c2.779-19.381,5.937-38.383,8.64-57.84c-3.355-0.475-7.181,0.657-11.04,0.479c1.696-11.903,3.682-23.518,5.28-35.52
		c3.694,0.145,7.368,0.312,10.8,0.72C534.853,42.133,535.568,30.608,537.84,20.64z"/>
	<path fill-rule="evenodd" clip-rule="evenodd" fill="#144E9D" d="M698.16,105.12c-22,0-44,0-66,0
		c-2.72,9.883,2.098,18.785,11.761,15.359c3.43-1.216,5.299-3.781,6.96-7.199c14.64,0,29.279,0,43.92,0
		c-7.181,16.738-22.358,27.064-42,31.439c-22.946,5.111-46.153-1.416-56.88-13.68c-6.163-7.046-9.038-17.343-8.16-28.08
		c0.874-10.701,4.433-19.836,9.359-27.36c9.475-14.465,25.926-25.498,47.521-26.879c18.628-1.192,33.674,4.154,42.96,13.44
		C696.774,71.333,702.469,86.607,698.16,105.12z M645.36,73.68c-5.89,0.75-9.496,6.731-10.32,12c7.12,0,14.24,0,21.36,0
		C657.18,77.804,652.258,72.801,645.36,73.68z"/>
	<path fill-rule="evenodd" clip-rule="evenodd" fill="#144E9D" d="M225.6,1.44c15.04,0,30.08,0,45.12,0
		c-6.955,47.845-14.256,95.344-21.6,142.8c-15.12,0-30.24,0-45.36,0c7.291-47.27,14.371-94.75,21.6-142.08
		C225.339,1.819,225.32,1.48,225.6,1.44z"/>
	<path fill-rule="evenodd" clip-rule="evenodd" fill="#144E9D" d="M284.64,1.44c15.04,0,30.08,0,45.12,0
		c-7.011,47.789-14.309,95.292-21.6,142.8c-15.12,0-30.24,0-45.36,0C270.146,96.705,277.041,48.723,284.64,1.44z"/>
	<g>
		<path fill-rule="evenodd" clip-rule="evenodd" fill="#144E9D" d="M183.84,0.48c10.483-1.027,18.371,1.891,22.32,6.72
			c6.303,7.708,3.481,21.958-3.36,28.8c-7.325,7.325-25.47,11.751-36.72,4.08c-3.526-2.404-6.771-7.312-6.96-13.44
			c-0.251-8.151,3.845-15.544,7.92-19.2C170.99,3.896,176.881,1.162,183.84,0.48z"/>
		<path fill-rule="evenodd" clip-rule="evenodd" fill="#144E9D" d="M157.68,50.88c15.04,0,30.08,0,45.12,0
			c-4.689,31.151-9.407,62.273-14.16,93.36c-15.12,0-30.24,0-45.36,0c4.545-30.977,9.443-61.596,13.92-92.64
			C157.406,51.406,157.343,50.942,157.68,50.88z"/>
	</g>
	<path fill-rule="evenodd" clip-rule="evenodd" fill="#144E9D" d="M0,90.96c0-0.48,0-0.96,0-1.44c0.187-0.053,0.279-0.2,0.24-0.479
		c0.473-19.979,7.113-35.788,16.56-48c9.487-12.264,22.261-21.236,38.16-26.64c17.052-5.796,38.032-6.517,55.44-0.96
		c15.809,5.046,29.493,14.824,34.56,30.24C129.078,48.998,113.536,54.656,97.68,60c-0.821-0.203-0.662-1.156-0.96-1.68
		c-1.462-2.57-4.193-5.208-6.72-6.48c-11.065-5.571-23.268,0.807-29.04,6c-6.873,6.184-11.729,15.823-12,27.12
		c-0.307,12.812,5.996,20.94,15.6,23.28c10.151,2.473,20.487-2.086,24.72-7.92c0.566-0.779,2.077-2.29,1.2-2.88
		c-7.04,0-14.08,0-21.12,0c1.267-10.733,3.228-20.773,4.56-31.44c24.72,0.16,50.08-0.32,74.4,0.24
		c-1.729,10.629-3.175,20.348-6.24,29.04c-3.009,8.532-7.556,15.627-13.2,22.08c-10.948,12.517-25.955,21.802-44.4,26.399
		c-20.994,5.233-44.368,1.589-58.8-6.96C10.822,127.999,0.728,113.869,0.24,91.44C0.186,91.254,0.233,90.967,0,90.96z"/>
</g>
</svg>
