<?xml version="1.0" encoding="UTF-8" standalone="no"?>
<!-- Created with Inkscape (http://www.inkscape.org/) -->

<svg
   xmlns:svg="http://www.w3.org/2000/svg"
   xmlns="http://www.w3.org/2000/svg"
   version="1.1"
   width="522.34546"
   height="126.98818"
   id="svg2">
  <defs
     id="defs6" />
  <path
     d="m 267.94583,125.58822 c -9.70576,-2.35544 -17.90117,-8.8373 -21.94314,-17.35513 -0.8729,-1.83949 -2.1509,-6.35695 -2.84001,-10.0388 L 241.90975,91.5 l -3.75447,15.75 -3.75446,15.75 -18.91925,0 c -10.40559,0 -18.92603,-0.3375 -18.93432,-0.75 -0.008,-0.4125 6.40202,-28.0875 14.24512,-61.5 L 225.05255,0 244.37482,0 c 17.9428,0 19.28343,0.12494 18.77811,1.75 -0.29929,0.9625 -1.92516,7.6 -3.61305,14.75 -1.68788,7.15 -5.07333,21.40828 -7.52322,31.68506 -2.44989,10.27678 -4.45012,19.27678 -4.44496,20 0.005,0.72322 1.41547,-1.13721 3.13402,-4.13429 3.99565,-6.96825 11.95103,-14.92057 18.90737,-18.90008 14.89824,-8.52284 35.65889,-7.69313 48.77032,1.94913 4.64924,3.41909 9.69303,10.1161 10.72974,14.24666 0.36629,1.45944 0.96884,2.65352 1.339,2.65352 0.37016,0 1.74628,-4.275 3.05804,-9.5 l 2.38503,-9.5 5.79837,0 c 6.9969,0 6.71846,0.40598 10.28766,-15 1.46536,-6.325 3.1129,-13.1875 3.66122,-15.25 l 0.99694,-3.75 18.96145,0 c 10.4288,0 18.96146,0.22306 18.96146,0.49569 0,0.55344 -6.83658,29.00727 -7.62959,31.75431 -0.42675,1.47828 0.1788,1.75 3.89998,1.75 l 4.40517,0 2.76427,-11.75 c 1.52035,-6.4625 3.3086,-14 3.9739,-16.75 l 1.20962,-5 19.26265,-0.27185 c 18.0264,-0.25441 19.23111,-0.15814 18.77132,1.5 -0.27022,0.97452 -1.90739,7.84685 -3.63814,15.27185 -1.73075,7.425 -3.37342,14.2875 -3.65038,15.25 -0.4502,1.56452 0.35863,1.75 7.6312,1.75 7.98326,0 8.12133,0.0419 7.413,2.25 -0.39698,1.2375 -1.05307,3.70433 -1.45798,5.48184 l -0.73621,3.23185 5.1406,-4.52825 c 17.69953,-15.59117 45.25545,-16.2503 60.50888,-1.44735 8.82646,8.56579 12.05344,22.52264 8.49009,36.72013 L 520.3455,89 l -27.89159,0 -27.89159,0 0,4.04546 c 0,9.86235 11.2025,12.04174 20.5,3.98818 1.90195,-1.64748 2.71088,-1.61232 16.5,0.7172 7.975,1.34729 14.66717,2.60919 14.87149,2.80422 0.20433,0.19503 -0.79097,2.3382 -2.21177,4.76262 -7.18745,12.26444 -25.66842,21.69634 -42.46134,21.67045 -23.08403,-0.0356 -36.93092,-11.83775 -37.98971,-32.37989 -0.38234,-7.4181 0.77503,-14.7686 3.28423,-20.85824 0.6342,-1.53915 0.0756,-1.74899 -4.63591,-1.74165 l -5.35699,0.008 -5.9124,25.49165 -5.9124,25.49165 -18.8376,0 c -15.3052,0 -18.8376,-0.25751 -18.8376,-1.37326 0,-0.7553 2.475,-11.96169 5.5,-24.90309 3.025,-12.9414 5.5,-23.79843 5.5,-24.12673 0,-1.33545 -7.80453,-0.54869 -8.33761,0.84049 -0.61778,1.60992 -11.66239,47.95337 -11.66239,48.93569 0,0.34479 -8.55,0.6269 -19,0.6269 -13.85089,0 -19,-0.31738 -19,-1.17113 0,-0.64412 2.475,-11.61201 5.5,-24.37309 3.025,-12.76109 5.5,-23.70908 5.5,-24.32887 0,-0.68562 -1.95796,-1.12691 -5,-1.12691 l -5,0 0,4.05718 c 0,2.23145 -0.50342,6.05645 -1.11871,8.5 l -1.11872,4.44282 -27.88128,0 -27.88129,0 0,4 c 0,9.28465 11.09167,11.84241 19.75235,4.55493 l 2.84249,-2.39179 14.42976,2.47894 c 7.93637,1.36343 14.60721,2.6564 14.82408,2.87327 0.97208,0.97207 -5.28197,9.69959 -9.59178,13.38531 -12.63075,10.80173 -32.01919,15.53512 -47.87339,11.68756 z m 30.84342,-55.53497 c -0.82749,-7.41443 -10.70426,-8.37808 -17.97693,-1.75397 -4.44983,4.05301 -3.12643,4.79506 8,4.48571 10.21465,-0.284 10.24906,-0.29343 9.97693,-2.73174 z M 489.49616,69.75 c -0.5096,-1.7875 -1.68919,-3.8125 -2.62132,-4.5 -3.38493,-2.49658 -10.76996,-1.03016 -15.06252,2.99093 C 467.48448,72.29506 468.69618,73 479.99251,73 l 10.4302,0 -0.92655,-3.25 z M 36.834471,123.56314 C 11.401266,117.40036 -3.0047539,95.87922 0.52880112,69.32615 4.8458101,36.88577 27.695773,13.24102 59.756439,8.03839 68.471107,6.62423 73.399247,6.74235 82.288404,8.57845 c 14.950255,3.08806 26.615546,11.62271 32.294926,23.62786 1.63758,3.46153 2.97777,6.98271 2.9782,7.82484 5.9e-4,1.14744 -4.50065,2.68402 -17.961791,6.13159 L 81.637166,50.76318 80.045409,48.33385 C 74.178386,39.37964 61.463556,40.27689 51.177218,50.37099 43.960486,57.45286 41.280375,63.40857 40.78761,73.45866 40.443985,80.46701 40.70023,82.07808 42.782325,86 c 2.782886,5.24196 7.385644,8.00656 13.279994,7.97649 6.763857,-0.0345 14.0678,-4.2952 15.816616,-9.22649 C 72.445313,83.15294 71.554197,83 61.682227,83 l -10.817324,0 3.098708,-12.98906 3.098708,-12.98907 28.65638,-0.0109 c 26.783311,-0.0102 28.629781,0.10345 28.249411,1.73906 -4.57709,19.68159 -12.4907,52.65264 -12.66891,52.78345 -5.790941,4.2506 -19.786422,9.7762 -30.22036,11.93139 -8.8785,1.8339 -26.868578,1.88554 -34.244369,0.0983 z M 109.13835,108.75 c 1.82203,-7.8375 5.965,-25.5 9.2066,-39.25 l 5.89383,-25 19.16177,-0.27159 c 10.53897,-0.14938 19.16177,-0.0518 19.16177,0.21686 0,0.26865 -2.65658,11.64087 -5.90351,25.27159 -3.24693,13.63073 -7.40615,31.19564 -9.2427,39.03314 l -3.3392,14.25 -19.12567,0 -19.12567,0 3.31278,-14.25 z m 45.46666,-1.5 c 2.04324,-8.6625 8.4952,-36 14.33769,-60.75 C 174.78518,21.75 179.5647,1.1625 179.56386,0.75 179.56301,0.3375 188.26095,0 198.8926,0 l 19.33028,0 -12.20808,51.75 c -6.71444,28.4625 -13.21854,56.1375 -14.45355,61.5 l -2.24548,9.75 -19.21287,0 -19.21288,0 3.71499,-15.75 z m -25.64446,-82 3.11927,-13.75 19.24125,-0.27159 c 10.58269,-0.14938 19.24125,-0.0709 19.24125,0.17447 0,0.24533 -0.92164,4.44896 -2.0481,9.34139 l -2.0481,8.89534 -19.33998,4.68019 C 136.48914,36.89391 127.34855,39 126.81371,39 c -0.53484,0 0.43124,-6.1875 2.14684,-13.75 z"
     id="path2818"
     style="fill:#000000" />
</svg>
