<?xml version="1.0" encoding="UTF-8" standalone="no"?>
<!-- Created with Inkscape (http://www.inkscape.org/) -->

<svg
   xmlns:dc="http://purl.org/dc/elements/1.1/"
   xmlns:cc="http://creativecommons.org/ns#"
   xmlns:rdf="http://www.w3.org/1999/02/22-rdf-syntax-ns#"
   xmlns:svg="http://www.w3.org/2000/svg"
   xmlns="http://www.w3.org/2000/svg"
   xmlns:sodipodi="http://sodipodi.sourceforge.net/DTD/sodipodi-0.dtd"
   xmlns:inkscape="http://www.inkscape.org/namespaces/inkscape"
   width="109.39"
   height="27.9"
   id="svg2"
   version="1.1"
   inkscape:version="0.47 r22583"
   sodipodi:docname="New document 1">
  <defs
     id="defs4">
    <inkscape:perspective
       sodipodi:type="inkscape:persp3d"
       inkscape:vp_x="0 : 526.18109 : 1"
       inkscape:vp_y="0 : 1000 : 0"
       inkscape:vp_z="744.09448 : 526.18109 : 1"
       inkscape:persp3d-origin="372.04724 : 350.78739 : 1"
       id="perspective10" />
    <clipPath
       id="clipPath3520"
       clipPathUnits="userSpaceOnUse">
      <path
         id="path3522"
         d="M 0,0 612,0 612,792 0,792 0,0 z" />
    </clipPath>
    <clipPath
       id="clipPath3492"
       clipPathUnits="userSpaceOnUse">
      <path
         id="path3494"
         d="M 0,0 612,0 612,792 0,792 0,0 z" />
    </clipPath>
    <clipPath
       id="clipPath3408"
       clipPathUnits="userSpaceOnUse">
      <path
         id="path3410"
         d="M 0,0 612,0 612,792 0,792 0,0 z" />
    </clipPath>
    <clipPath
       id="clipPath2832"
       clipPathUnits="userSpaceOnUse">
      <path
         id="path2834"
         d="M 0,0 612,0 612,792 0,792 0,0 z" />
    </clipPath>
    <inkscape:perspective
       id="perspective2824"
       inkscape:persp3d-origin="0.5 : 0.33333333 : 1"
       inkscape:vp_z="1 : 0.5 : 1"
       inkscape:vp_y="0 : 1000 : 0"
       inkscape:vp_x="0 : 0.5 : 1"
       sodipodi:type="inkscape:persp3d" />
  </defs>
  <sodipodi:namedview
     id="base"
     pagecolor="#ffffff"
     bordercolor="#666666"
     borderopacity="1.0"
     inkscape:pageopacity="0.0"
     inkscape:pageshadow="2"
     inkscape:zoom="6.1290698"
     inkscape:cx="84.285714"
     inkscape:cy="-15.714286"
     inkscape:document-units="px"
     inkscape:current-layer="layer1"
     showgrid="false"
     inkscape:window-width="1680"
     inkscape:window-height="1000"
     inkscape:window-x="-8"
     inkscape:window-y="-8"
     inkscape:window-maximized="1" />
  <metadata
     id="metadata7">
    <rdf:RDF>
      <cc:Work
         rdf:about="">
        <dc:format>image/svg+xml</dc:format>
        <dc:type
           rdf:resource="http://purl.org/dc/dcmitype/StillImage" />
        <dc:title></dc:title>
      </cc:Work>
    </rdf:RDF>
  </metadata>
  <g
     inkscape:label="Layer 1"
     inkscape:groupmode="layer"
     id="layer1"
     transform="translate(-381.48441,-524.52913)">
    <g
       id="g3396"
       transform="matrix(1.25,0,0,-1.25,1253.53,1522.3025)">
      <g
         id="g3398"
         transform="matrix(294.42513,0,0,330.74188,141.57307,421.07806)" />
    </g>
    <g
       id="g3488"
       transform="matrix(1.25,0,0,-1.25,-229.32716,1470.8739)">
      <g
         id="g3490"
         clip-path="url(#clipPath3492)">
        <g
           id="g3496"
           transform="translate(499.3907,746.7229)">
          <path
             d="m 0,0 -1.012,-4.255 3.47,0 C 2.125,-6.54 -3.503,-7.524 -2.643,-1.994 -2.039,1.872 2.799,3.957 3.871,0.964 L 9.852,2.463 C 7.807,11.31 -7.974,9.527 -9.247,-2.315 c -0.615,-5.755 3.696,-8.921 8.701,-8.838 3.562,0.059 6.377,1.357 7.749,2.332 L 9.286,0 0,0 z"
             style="fill:#231f20;fill-opacity:1;fill-rule:nonzero;stroke:none"
             id="path3498" />
        </g>
      </g>
    </g>
    <g
       id="g3500"
       transform="matrix(1.25,0,0,-1.25,408.51397,534.97273)">
      <path
         d="m 0,0 -3.007,-12.749 6.207,0 L 6.206,0 0,0 z"
         style="fill:#231f20;fill-opacity:1;fill-rule:nonzero;stroke:none"
         id="path3502" />
    </g>
    <g
       id="g3504"
       transform="matrix(1.25,0,0,-1.25,428.98297,525.87398)">
      <path
         d="m 0,0 -4.723,-20.028 6.212,0 L 6.208,0 0,0 z"
         style="fill:#231f20;fill-opacity:1;fill-rule:nonzero;stroke:none"
         id="path3506" />
    </g>
    <g
       id="g3508"
       transform="matrix(1.25,0,0,-1.25,419.81697,525.87398)">
      <path
         d="m 0,0 -4.725,-20.028 6.208,0 L 6.209,0 0,0 z"
         style="fill:#231f20;fill-opacity:1;fill-rule:nonzero;stroke:none"
         id="path3510" />
    </g>
    <g
       id="g3512"
       transform="matrix(1.25,0,0,-1.25,417.90722,528.16836)">
      <path
         d="M 0,0 -6.222,0 -7.293,-4.66 -0.67,-3.015 0,0 z"
         style="fill:#231f20;fill-opacity:1;fill-rule:nonzero;stroke:none"
         id="path3514" />
    </g>
    <g
       clip-path="url(#clipPath3520)"
       id="g3518"
       transform="matrix(1.25,0,0,-1.25,-229.32716,1470.8739)">
      <g
         transform="translate(562.5173,746.6459)"
         id="g3524">
        <path
           id="path3526"
           style="fill:#231f20;fill-opacity:1;fill-rule:nonzero;stroke:none"
           d="m 0,0 c 0.232,0.935 0.501,2.009 0.504,2.009 l -2.579,0 1.307,5.505 -6.201,0 -1.319,-5.511 -1.404,-0.004 1.322,5.515 -6.206,0 -1.3,-5.496 -1.984,-0.011 -0.932,-3.373 c -0.692,2.931 -3.45,4.313 -6.048,4.313 -4.403,0 -7.576,-3.458 -8.169,-7.685 -0.312,-2.226 0.432,-6.604 6.194,-6.604 2.806,0 6.399,1.825 7.255,4.353 l -4.851,0.85 c -0.545,-0.705 -1.363,-1.124 -2.152,-1.124 -1.333,0 -1.712,1.136 -1.44,2.16 l 9.019,0.011 c 0.085,0.306 0.277,0.642 0.348,1.753 0.022,0.337 0.013,0.65 -0.004,0.958 l 1.734,0 -1.971,-8.301 6.206,0 1.968,8.301 1.378,0 -1.949,-8.301 6.207,0 1.972,8.301 1.682,0 m 0,0 c -0.003,-0.013 -0.008,-0.024 -0.008,-0.024 -0.302,-0.742 -0.517,-1.532 -0.631,-2.354 l 0,-0.005 c -0.311,-2.226 0.432,-6.604 6.194,-6.604 2.805,0 6.396,1.825 7.255,4.353 L 6.545,-6.166 C 6.001,-6.87 5.186,-7.289 4.396,-7.289 c -1.335,0 -1.714,1.136 -1.442,2.159 l -0.001,0.006 9.02,-0.004 c 0.074,0.308 0.271,0.655 0.34,1.765 C 12.609,0.94 9.237,2.922 6.112,2.922 3.583,2.922 1.463,1.777 0,0 m -23.888,-2.568 -3.43,0.024 c 0.523,1.779 3.704,2.182 3.43,-0.024 M 7.073,-2.585 3.635,-2.579 c 0.529,1.78 3.706,2.196 3.438,-0.006" />
      </g>
    </g>
    <g
       id="g3528"
       transform="matrix(1.25,0,0,-1.25,487.09622,533.65523)">
      <path
         d="m 0,0 -0.432,0 0,1.7 -0.623,0 0,0.366 1.679,0 0,-0.366 L 0,1.7 0,0 z"
         style="fill:#231f20;fill-opacity:1;fill-rule:nonzero;stroke:none"
         id="path3530" />
    </g>
    <g
       id="g3532"
       transform="matrix(1.25,0,0,-1.25,490.67285,533.65523)">
      <path
         d="m 0,0 -0.403,0 0,1.726 -0.005,0 L -0.794,0 l -0.423,0 -0.377,1.726 -0.005,0 0,-1.726 -0.404,0 0,2.066 0.63,0 0.375,-1.628 0.006,0 0.368,1.628 L 0,2.066 0,0 z"
         style="fill:#231f20;fill-opacity:1;fill-rule:nonzero;stroke:none"
         id="path3534" />
    </g>
  </g>
</svg>
