<?xml version="1.0" encoding="UTF-8" standalone="no"?>
<!-- Created with Inkscape (http://www.inkscape.org/) -->
<svg
   xmlns:dc="http://purl.org/dc/elements/1.1/"
   xmlns:cc="http://creativecommons.org/ns#"
   xmlns:rdf="http://www.w3.org/1999/02/22-rdf-syntax-ns#"
   xmlns:svg="http://www.w3.org/2000/svg"
   xmlns="http://www.w3.org/2000/svg"
   xmlns:sodipodi="http://sodipodi.sourceforge.net/DTD/sodipodi-0.dtd"
   xmlns:inkscape="http://www.inkscape.org/namespaces/inkscape"
   id="svg2440"
   sodipodi:version="0.32"
   inkscape:version="0.46"
   width="733"
   height="406"
   version="1.0"
   sodipodi:docname="Imperialtobaccologo.svg"
   inkscape:output_extension="org.inkscape.output.svg.inkscape">
  <metadata
     id="metadata2445">
    <rdf:RDF>
      <cc:Work
         rdf:about="">
        <dc:format>image/svg+xml</dc:format>
        <dc:type
           rdf:resource="http://purl.org/dc/dcmitype/StillImage" />
      </cc:Work>
    </rdf:RDF>
  </metadata>
  <defs
     id="defs2443" />
  <sodipodi:namedview
     inkscape:window-height="968"
     inkscape:window-width="1280"
     inkscape:pageshadow="2"
     inkscape:pageopacity="0.0"
     guidetolerance="10.0"
     gridtolerance="10.0"
     objecttolerance="10.0"
     borderopacity="1.0"
     bordercolor="#666666"
     pagecolor="#ffffff"
     id="base"
     showgrid="false"
     showguides="true"
     inkscape:guide-bbox="true"
     inkscape:zoom="1.0495664"
     inkscape:cx="446.10665"
     inkscape:cy="244.68179"
     inkscape:window-x="-4"
     inkscape:window-y="-4"
     inkscape:current-layer="svg2440" />
  <path
     style="fill:#ab0534;fill-rule:evenodd;stroke:none;stroke-width:1px;stroke-linecap:butt;stroke-linejoin:miter;stroke-opacity:1;fill-opacity:1"
     d="M 185.5625 0.125 C 71.944157 0.125 42.15625 92.53125 42.15625 92.53125 C 42.10306 92.885799 69.062066 65.942217 131.46875 65.875 C 165.3915 65.838461 209.58966 88.874232 250.75 110.03125 L 238.65625 110.03125 C 238.65626 110.03125 214.11052 112.07698 206.53125 119.65625 C 205.40054 120.78696 199.8081 125.87117 196.40625 136.5 C 177.00512 197.11746 130.71875 386.28125 130.71875 386.28125 C 130.71875 386.28126 125.83571 396.72679 121.625 400.9375 C 117.41429 405.14822 116.25 405.84375 116.25 405.84375 L 191.96875 405.84375 C 191.96875 405.84375 213.66252 404.33747 220.09375 397.90625 C 226.52497 391.47501 227.9375 388.375 227.9375 388.375 L 296.5625 132.375 C 313.16722 139.54466 328.08775 144.34553 340.125 144.46875 C 389.19031 144.97101 441.62501 89.687501 441.625 89.6875 C 441.625 89.6875 423.51799 96.812502 408.75 96.8125 C 338.72108 96.8125 299.18085 0.125 185.5625 0.125 z M 199.0625 110 C 199.0512 110.00213 199.01554 110.02741 199 110.03125 L 199.09375 110.03125 C 199.13586 110.01546 199.11711 109.98972 199.0625 110 z M 199 110.03125 L 122.4375 110.03125 C 122.4375 110.03125 97.860523 112.07698 90.28125 119.65625 C 89.150541 120.78696 83.558099 125.87117 80.15625 136.5 C 60.755107 197.11746 14.5 386.28125 14.5 386.28125 C 14.5 386.28126 9.5857077 396.72679 5.375 400.9375 C 1.1642921 405.14822 0 405.84375 0 405.84375 L 75.75 405.84375 C 75.749997 405.84375 97.412522 404.33747 103.84375 397.90625 C 110.27498 391.47501 111.71875 388.375 111.71875 388.375 L 181.1875 129.09375 C 181.1875 129.09374 183.26287 123.70588 190 116.96875 C 195.72075 111.248 198.48977 110.1574 199 110.03125 z "
     id="path2451" />
  <path
     id="path3229"
     style="fill:#ab0534;fill-rule:evenodd;stroke:none;stroke-width:1px;stroke-linecap:butt;stroke-linejoin:miter;stroke-opacity:1;opacity:1;fill-opacity:1"
     d="M 308.98173,183.04303 C 311.35805,185.27988 313.95851,187.23654 315.04515,191.08548 L 315.04515,255.93038 C 314.30988,259.80739 312.4153,262.59328 308.98173,263.93072 L 334.07755,263.93072 C 330.71411,261.46305 328.17664,258.87149 327.97203,255.93 L 327.97203,192.05394 C 329.06091,186.51989 331.7857,185.44743 334.01439,183.02197 L 308.98173,183.04303 zM 341.98646,263.97707 C 343.77207,262.49486 345.08883,260.48519 345.9762,257.99245 L 345.9762,214.01278 C 344.853,211.83056 344.1472,209.29056 341.99368,207.99147 C 347.31353,207.99147 352.50676,208.45174 357.94543,205.97693 L 357.94543,212.94409 C 362.23123,207.00416 368.18313,205.02415 375.57176,205.02415 C 382.96168,205.02415 395.52047,209.61859 395.52047,215.98106 C 399.27347,209.8842 404.72963,204.9646 416.00512,204.9646 C 427.27989,204.9646 438.83996,211.53228 438.83996,224.93957 L 438.83996,259.88844 C 440.31056,261.21209 441.71937,262.55119 442.96645,263.93072 L 421.99713,263.93072 L 426.03941,259.88844 L 426.03941,225.99224 C 423.33006,217.39654 417.86781,215.68308 412.05986,214.83387 C 402.0315,215.5928 399.36929,221.82913 397.9961,229.02395 L 397.9961,257.0099 C 398.62116,261.10341 400.74014,262.70706 403.02357,264.03661 L 381.94344,264.03661 C 383.75164,262.75717 385.2141,261.18517 385.99273,259.03455 L 385.99273,225.98519 C 384.15786,217.54961 378.55759,215.45246 371.99885,214.96873 C 363.15353,215.03951 359.38883,219.4422 358.06453,225.92564 L 358.06453,257.99362 C 358.66829,260.51328 359.50759,262.86669 361.99454,264.05704 L 341.98646,263.97707 zM 443.87377,207.94202 C 449.5982,207.94202 454.95244,208.4494 461.02371,206.03647 L 461.02371,213.00364 C 470.49567,207.0839 467.69933,207.14052 481.50836,205.0837 C 495.31739,203.02688 512.33409,210.24157 512.02206,235.29791 C 511.71003,260.35425 491.84067,266.03608 481.28389,266.03608 C 466.1856,266.03608 465.1184,258.06711 462.92521,254.07767 C 467.23576,255.57789 472.12161,256.38949 478.3364,256.0988 C 494.50724,255.34243 499.05308,242.47601 499.05308,235.88741 C 499.05308,218.80063 482.83761,216.01287 478.67325,216.01287 C 466.72684,216.01287 460.07015,225.93732 461.15671,229.99242 L 461.15671,283.08944 C 461.87664,285.89728 463.4165,288.26098 466.04113,290.03711 L 444.05242,290.03711 C 446.68961,288.56433 447.79573,285.73061 449.05448,283.03255 L 449.05448,215.02828 C 448.2768,209.89763 445.93312,209.33447 443.87377,207.94202 zM 571.86945,263.32264 C 565.88898,265.59373 560.55815,266.06509 553.50211,265.97434 C 529.36766,265.66395 516.51652,255.24418 516.99894,235.48556 C 517.37403,220.12278 525.96179,205.71136 549.51237,205.71136 C 569.34922,205.71136 578.7286,216.3296 578.92928,235.00917 L 530.93327,235.00917 C 530.93327,251.25338 543.34013,255.97021 556.47953,255.97021 C 564.81736,255.97021 572.62375,253.87053 580.00115,250.96814 M 549.03598,215.71549 C 539.94977,215.71549 534.4855,219.11036 532.00514,226.07691 L 564.04218,226.07691 C 562.07005,220.14539 558.12219,215.71549 549.03598,215.71549 zM 585.01973,260.10277 L 585.01973,211.93227 L 581.0119,207.98398 C 586.39694,207.98398 594.76756,207.89284 596.97814,206.03728 L 596.97814,213.11127 C 601.07909,208.98653 606.28038,205.27935 613.06305,205.27935 C 614.77984,205.27935 615.0156,205.33802 618.03168,206.03728 L 618.03168,217.99569 C 615.46467,217.21615 612.4047,216.22719 610.53662,216.22719 C 604.82106,216.22719 597.98871,223.84854 597.98871,227.93296 L 597.98871,259.0922 C 599.16348,260.9387 601.09892,262.4592 603.04156,263.97662 L 592.09372,263.97662 L 581.14588,263.97662 L 585.01973,260.10277 zM 630.03859,260.05769 L 630.03859,211.9714 L 625.99631,208.01334 C 631.66966,208.01334 640.05323,208.11972 643.00757,206.07641 L 643.00757,259.04712 C 643.67593,261.20409 645.28301,262.63898 646.96564,264.01575 L 625.99631,264.01575 L 630.03859,260.05769 zM 644.00132,192.9929 C 644.00132,197.4089 640.4173,200.9929 636.00131,200.9929 C 631.58531,200.9929 628.00131,197.4089 628.00131,192.9929 C 628.00131,188.57691 631.58531,184.99291 636.00131,184.99291 C 640.4173,184.99291 644.00132,188.57691 644.00132,192.9929 zM 678.03495,264.60186 C 676.12294,265.47473 672.76179,265.96767 670.00602,265.96767 C 652.31515,265.96767 650.00516,255.13457 650.00516,247.01949 C 650.00516,235.75471 659.16899,232.7132 667.5217,231.0188 C 676.31492,229.23505 686.04882,227.42301 686.04882,222.00788 C 686.04882,215.03467 677.22947,215.01811 675.01676,215.01811 C 670.39271,215.01811 663.63979,217.62584 658.00551,218.97617 L 666.00585,206.00719 C 669.65327,205.75269 672.71019,205.29138 676.9958,205.29138 C 689.83227,205.29138 697.07407,210.79573 699.0178,218.04982 L 699.0178,248.03006 C 700.0212,253.79117 704.29555,255.72694 709.96564,256.0304 L 704.997,263.94653 C 698.88959,263.94653 692.07238,266.18006 687.05939,255.94619 L 687.05939,233.96629 C 683.55817,236.44684 678.85736,237.53598 674.00619,238.00857 C 666.30487,238.75882 662.97414,244.944 662.97414,247.52477 C 662.97414,252.7579 668.51125,256.0304 675.47994,256.0304 C 679.94706,256.0304 682.5571,255.42222 685.9646,255.01983M 715.78829,260.05769 L 715.78829,187.19927 L 711.74601,183.24121 C 717.41936,183.24121 725.80293,183.34759 728.75727,181.30428 L 728.75727,259.04712 C 729.42563,261.20409 731.03271,262.63898 732.71534,264.01575 L 711.74601,264.01575 L 715.78829,260.05769 zM 315.98842,369.05197 L 315.98842,309.02718 C 311.54601,308.7749 307.12844,308.46059 302.47094,308.46059 C 296.21655,308.46059 293.03713,310.56024 289.07255,312.95738 L 294.07461,298.07028 L 354.93308,298.07028 L 350.52649,312.95738 C 348.46564,309.59152 344.07786,308.46059 340.46282,308.46059 L 328.96997,309.02718 L 328.96997,375.00681 C 329.70512,377.44252 331.95332,379.73865 333.97204,381.91443 L 310.03358,381.91443 C 314.76806,374.16987 314.76049,372.96295 315.98842,369.05197 zM 340.05237,352.55925 C 340.05366,333.62362 355.67919,321.06316 374.07489,321.06316 C 390.82364,321.06316 407.08684,334.46008 407.08684,352.05397 C 407.08684,369.50262 392.89075,383.04478 372.89589,383.04478 C 353.82313,383.04478 340.05237,369.96474 340.05237,352.55925 z M 393.27572,352.05397 C 393.27572,339.81782 382.84102,330.832 373.06432,330.832 C 362.41918,330.832 352.85292,341.50437 352.85292,352.55925 C 352.85292,362.38372 362.49341,373.27594 374.07489,373.27594 C 386.0345,373.27594 393.27572,363.38417 393.27572,352.05397 zM 411.0102,382.0382 C 412.12413,380.41594 413.44843,378.91989 414.0419,376.98535 L 414.0419,303.04533 C 413.27671,301.12815 411.62506,299.4941 409.99963,297.99248 C 415.67045,297.99248 423.3541,298.31447 427.01088,296.13977 L 427.01088,372.10093 C 429.95542,373.04453 433.17204,373.1115 436.52708,373.1115 C 456.80392,373.1115 460.02283,358.27212 460.02283,352.05797 C 460.02283,339.22855 449.37831,331.00443 440.99043,331.00443 C 437.73431,331.00443 432.35579,332.3632 429.03202,334.03614 C 431.7303,326.67954 435.3227,321.06716 444.44321,321.06716 C 459.61404,321.06716 472.99181,330.87277 472.99181,349.53154 C 472.99181,374.87292 456.25038,383.04877 432.06373,383.04877 C 424.91778,383.04877 417.91976,382.51459 411.0102,382.0382 zM 509.21302,381.68319 C 507.30101,382.55606 503.93986,383.049 501.18409,383.049 C 483.49322,383.049 481.18323,372.2159 481.18323,364.10082 C 481.18323,352.83604 490.34706,349.79453 498.69977,348.10013 C 507.49299,346.31638 517.22689,344.50434 517.22689,339.08921 C 517.22689,332.116 508.40754,332.09944 506.19483,332.09944 C 501.57078,332.09944 494.81786,334.70717 489.18358,336.0575 L 497.18392,323.08852 C 500.83134,322.83402 503.88826,322.37271 508.17387,322.37271 C 521.01034,322.37271 528.25214,327.87706 530.19587,335.13115 L 530.19587,365.11139 C 531.19927,370.8725 535.47362,372.80827 541.14371,373.11173 L 536.17507,381.02786 C 530.06766,381.02786 523.25045,383.26139 518.23746,373.02752 L 518.23746,351.04762 C 514.73624,353.52817 510.03543,354.61731 505.18426,355.0899 C 497.48294,355.84015 494.15221,362.02533 494.15221,364.6061 C 494.15221,369.83923 499.68932,373.11173 506.65801,373.11173 C 511.12513,373.11173 513.73517,372.50355 517.14267,372.10116M 664.33962,352.55925 C 664.34091,333.62362 679.96644,321.06316 698.36214,321.06316 C 715.11089,321.06316 731.37409,334.46008 731.37409,352.05397 C 731.37409,369.50262 717.178,383.04478 697.18314,383.04478 C 678.11038,383.04478 664.33962,369.96474 664.33962,352.55925 z M 717.56297,352.05397 C 717.56297,339.81782 707.12827,330.832 697.35157,330.832 C 686.70643,330.832 677.14017,341.50437 677.14017,352.55925 C 677.14017,362.38372 686.78066,373.27594 698.36214,373.27594 C 710.32175,373.27594 717.56297,363.38417 717.56297,352.05397 zM 544.03829,353.00616 C 544.03829,341.7628 550.8225,321.08899 579.49244,321.08899 C 582.12529,321.08899 584.73118,320.59124 587.66393,322.22261 L 594.06149,323.11013 L 594.06149,336.92125 C 589.54911,332.78186 582.98728,331.02626 576.03966,331.02626 C 567.33079,331.02626 557.00727,340.93542 557.00727,351.57451 C 557.00727,353.75322 558.56563,373.13334 583.53472,373.13334 C 590.18221,373.13334 596.25447,371.13643 601.55655,368.08049 C 600.46319,372.30669 599.32285,376.12787 594.22451,380.4337 C 591.9459,382.3581 585.94728,382.90218 579.07137,382.90218 C 559.53019,382.90218 544.03829,373.91555 544.03829,353.00616 zM 603.99877,353.00616 C 603.99877,341.7628 610.78298,321.08899 639.45292,321.08899 C 642.08577,321.08899 644.69166,320.59124 647.62441,322.22261 L 654.02197,323.11013 L 654.02197,336.92125 C 649.50959,332.78186 642.94776,331.02626 636.00014,331.02626 C 627.29127,331.02626 616.96775,340.93542 616.96775,351.57451 C 616.96775,353.75322 618.52611,373.13334 643.4952,373.13334 C 650.14269,373.13334 656.21495,371.13643 661.51703,368.08049 C 660.42367,372.30669 659.28333,376.12787 654.18499,380.4337 C 651.90638,382.3581 645.90776,382.90218 639.03185,382.90218 C 619.49067,382.90218 603.99877,373.91555 603.99877,353.00616 z" />
</svg>
