<?xml version="1.0" encoding="utf-8"?>
<!-- Generator: Adobe Illustrator 15.0.0, SVG Export Plug-In . SVG Version: 6.00 Build 0)  -->
<!DOCTYPE svg PUBLIC "-//W3C//DTD SVG 1.1//EN" "http://www.w3.org/Graphics/SVG/1.1/DTD/svg11.dtd" [
	<!ENTITY ns_extend "http://ns.adobe.com/Extensibility/1.0/">
	<!ENTITY ns_ai "http://ns.adobe.com/AdobeIllustrator/10.0/">
	<!ENTITY ns_graphs "http://ns.adobe.com/Graphs/1.0/">
	<!ENTITY ns_vars "http://ns.adobe.com/Variables/1.0/">
	<!ENTITY ns_imrep "http://ns.adobe.com/ImageReplacement/1.0/">
	<!ENTITY ns_sfw "http://ns.adobe.com/SaveForWeb/1.0/">
	<!ENTITY ns_custom "http://ns.adobe.com/GenericCustomNamespace/1.0/">
	<!ENTITY ns_adobe_xpath "http://ns.adobe.com/XPath/1.0/">
]>
<svg version="1.1" id="Layer_1" xmlns:x="&ns_extend;" xmlns:i="&ns_ai;" xmlns:graph="&ns_graphs;"
	 xmlns="http://www.w3.org/2000/svg" xmlns:xlink="http://www.w3.org/1999/xlink" x="0px" y="0px" width="69.348px"
	 height="40.753px" viewBox="0 0 69.348 40.753" enable-background="new 0 0 69.348 40.753" xml:space="preserve">
<metadata>
	<sfw  xmlns="&ns_sfw;">
		<slices></slices>
		<sliceSourceBounds  y="-441.433" x="262.007" width="69.823" height="40.565" bottomLeftOrigin="true"></sliceSourceBounds>
	</sfw>
</metadata>
<g>
	<path fill="#010202" d="M64.494,24.702c0.23-0.294,0.626-0.342,0.91-0.119c0.281,0.22,0.329,0.615,0.098,0.909
		c-0.234,0.299-0.628,0.345-0.909,0.125C64.308,25.394,64.259,25.001,64.494,24.702 M64.511,25.72
		c0.339,0.267,0.833,0.229,1.115-0.13c0.279-0.355,0.196-0.846-0.142-1.11c-0.343-0.268-0.836-0.231-1.115,0.125
		C64.087,24.964,64.17,25.453,64.511,25.72 M64.83,25.045l0.125,0.097L64.9,25.601l0.122,0.096l0.043-0.476
		c0.115,0.069,0.239,0.077,0.34-0.052c0.11-0.141,0.076-0.269-0.093-0.401l-0.273-0.214l-0.56,0.716l0.107,0.086L64.83,25.045z
		 M64.902,24.953l0.174-0.222l0.146,0.115c0.076,0.06,0.145,0.139,0.074,0.228c-0.086,0.109-0.173,0.052-0.265-0.021L64.902,24.953z
		"/>
	<path fill="#010202" d="M16.205,14.748c0.253,0.773,1.01,2.611,1.905,2.318c0.749-0.244,0.65-1.915,0.533-2.271
		c-0.095-0.293-0.326-0.772-0.518-1.003c-0.165-0.218-0.049-0.274,0.084-0.239c0.699,0.113,1.034,0.77,1.24,1.396
		c0.317,0.973-0.111,2.317-1.221,2.68c-1.787,0.584-4.025-0.712-5.295-4.599C12.292,11.072,12.038,7.769,14,7.126
		c0.423-0.139,1.286-0.253,1.667-0.378c0.216-0.07,0.222-0.43,0.357-0.474c0.055-0.019,0.097,0.053,0.119,0.112l0.651,1.995
		c0.029,0.087-0.014,0.104-0.059,0.117c-0.132,0.044-0.973-1.399-1.927-1.088c-1.001,0.328-0.551,1.631-0.374,2.173L16.205,14.748z"
		/>
	<path fill="#010202" d="M61.257,20.441c0.077-0.109,0.154-0.167,0.209-0.134c0.131,0.079,0.083,0.206,0.031,0.293
		c-0.352,0.589-0.562,1.681,0.663,2.423c0.501,0.27,1.119,0.055,1.627-0.795c0.677-1.102-0.866-5.364,0.461-7.58
		c0.403-0.672,2.001-1.528,3.1-0.862c0.76,0.458,1.106,1.461,1.485,1.689c0.338,0.205,0.276-0.005,0.444,0.098
		c0.071,0.042,0.016,0.176-0.08,0.304l-1.038,1.407c-0.122,0.158-0.231,0.304-0.321,0.247c-0.09-0.054,0.125-0.534,0.193-0.797
		c0.157-0.606-0.053-1.756-0.689-2.14c-0.466-0.282-0.98-0.022-1.227,0.39c-0.952,1.587,0.979,4.922-0.682,7.696
		c-0.543,0.906-1.958,2.086-3.409,1.208C59.679,22.249,61.257,20.441,61.257,20.441"/>
	<path fill="#010202" d="M56.189,12.086c-0.143,0.312-0.062,0.605,0.291,0.768c0.647,0.295,1.107-1.078,1.453-0.92
		c0.109,0.051,0.091,0.242,0.019,0.398l-1.288,2.825c-0.089,0.193-0.197,0.3-0.296,0.255c-0.396-0.181,0.326-1.573-0.249-1.834
		c-0.32-0.146-0.589-0.052-0.73,0.257l-1.786,3.915c-0.147,0.324-0.192,0.513,0.304,0.738c0.456,0.208,1.587-0.296,1.935-0.482
		c0.103,0.047,0.118,0.164,0.051,0.263l-0.971,1.294c0,0-1.015-0.504-1.982-0.908c-0.967-0.404-2.161-0.867-2.161-0.867
		c-0.13-0.06-0.201-0.147-0.16-0.238c0.123-0.268,0.583,0.078,1.134-1.13l3.323-7.386c0.55-1.209-0.14-1.219-0.017-1.487
		c0.04-0.09,0.152-0.094,0.283-0.035c0,0,1.202,0.478,2.337,0.962C58.811,8.956,59.8,9.452,59.8,9.452l-0.505,1.751
		c-0.1,0.407-0.34,0.159-0.291-0.214c0.039-0.398-0.172-1.472-0.992-1.848c-0.383-0.175-0.441-0.043-0.846,0.842L56.189,12.086z"/>
	<path fill="#010202" d="M47.872,6.164c0.154-0.757-0.195-0.736-0.163-0.897c0.02-0.103,0.132-0.099,0.359-0.03l1.144,0.289
		c0.189,0.051,0.274,0.077,0.254,0.186c-0.029,0.15-0.335-0.146-0.538,0.816l-2.3,8.97c-0.162,0.595,0.088,0.633,0.044,0.779
		c-0.044,0.145-0.176,0.138-0.245,0.125l-1.214-0.307c-0.079-0.015-0.126-0.056-0.144-0.146l-1.263-6.636
		c-0.042-0.16-0.158-0.183-0.181-0.014l-0.815,4.716c-0.214,1.438,0.357,1.29,0.318,1.494c-0.019,0.094-0.064,0.12-0.184,0.106
		l-0.66-0.118l-0.745-0.122c-0.096-0.007-0.195-0.034-0.181-0.112c0.043-0.229,0.225-0.003,0.357-0.758l1.545-9.219
		c0.083-0.544-0.511-0.768-0.477-0.952c0.021-0.097,0.13-0.111,0.297-0.079l1.546,0.256c0.157,0.031,0.169,0.101,0.271,0.516
		l1.463,5.43c0.146,0.524,0.336,0.872,0.396,0.611L47.872,6.164z"/>
	<path fill="#010202" d="M29.625,0.202c2.453-0.202,4.767,1.8,5.099,5.833c0.467,5.666-1.381,8.691-3.736,8.885l-1.404,0.115
		l-1.252,0.137c-0.214,0.019-0.298-0.014-0.302-0.067c-0.02-0.25,0.499-0.238,0.446-0.89L27.48,1.703
		c-0.094-1.146-0.528-0.851-0.547-1.101c-0.011-0.134,0.275-0.189,0.766-0.229L29.625,0.202z M32.065,4.318
		c-0.12-1.46-0.614-3.347-1.82-3.246c-0.328,0.026-0.437,0.072-0.419,0.273l1.005,12.403c0.024,0.292,0.209,0.241,0.545,0.212
		c0.93-0.076,1.239-2.928,1.143-4.104L32.065,4.318z"/>
	<path fill="#010202" d="M50.218,15.986c-0.476,1.238,0.214,1.207,0.107,1.481c-0.034,0.093-0.146,0.105-0.28,0.054
		c0,0-0.583-0.214-1.242-0.422c-0.709-0.223-1.561-0.474-1.561-0.474c-0.135-0.052-0.199-0.123-0.164-0.216
		c0.105-0.275,0.557,0.189,1.031-1.05l2.793-7.789c0.424-1.258-0.264-1.197-0.169-1.476c0.031-0.095,0.142-0.11,0.278-0.064
		l1.446,0.453l1.415,0.482c0.138,0.046,0.216,0.126,0.185,0.221c-0.096,0.278-0.61-0.258-1.035,1.001L50.218,15.986z"/>
	<path fill="#010202" d="M58.555,19.771c-0.358,0.626-0.305,0.746,0.061,0.954c0.669,0.381,1.987-0.225,2.146-0.133
		c0.089,0.049,0.04,0.17-0.028,0.23l-1.303,1.246c0,0-1.112-0.691-1.947-1.16c-0.836-0.47-2.055-1.095-2.055-1.095
		c-0.125-0.071-0.187-0.166-0.138-0.252c0.146-0.256,0.713,0.218,1.297-0.807l4.104-7.183c0.658-1.153-0.03-1.207,0.115-1.463
		c0.049-0.087,0.162-0.08,0.287-0.009l1.6,0.858l1.008,0.574c0.124,0.071,0.186,0.166,0.137,0.252
		c-0.147,0.255-0.549-0.307-1.208,0.847L58.555,19.771z"/>
	<path fill="#010202" d="M21.582,16.515c-0.581,0.162-1.371,0.401-1.371,0.401c-0.166,0.039-0.224,0.047-0.247-0.054
		c-0.058-0.243,0.442-0.272,0.298-0.887l-2.176-9.247c-0.153-0.658-0.505-0.442-0.552-0.643c-0.016-0.07,0.011-0.101,0.121-0.125
		c0,0,0.839-0.245,1.357-0.382c0.517-0.138,1.501-0.383,1.501-0.383c0.049-0.011,0.088,0.013,0.099,0.062
		c0.053,0.224-0.467,0.188-0.336,0.747l0.733,3.084c0.015,0.065,0.056,0.143,0.121,0.128c0.053-0.013,0.164-0.181,0.22-0.312
		l1.134-2.989c0.056-0.188,0.127-0.414,0.069-0.662c-0.062-0.267-0.321-0.201-0.356-0.35c-0.02-0.083,0.018-0.087,0.111-0.107
		l0.889-0.176l0.965-0.176c0.052-0.012,0.082-0.006,0.098,0.062c0.039,0.168-0.417,0.026-0.955,1.605l-0.68,1.716
		c-0.352,0.987-0.634,1.612-0.587,1.811c0.147,0.63,1.365,0.24,1.683,0.166c0.109-0.026,0.176,0.004,0.256,0.165l2.066,4.723
		c0.27,0.549,0.83,0.298,0.888,0.543c0.023,0.1,0,0.132-0.098,0.146l-1.073,0.18l-1.422,0.277c-0.262,0.037-0.33-0.033-0.415-0.207
		l-2.041-4.671c-0.066-0.146-0.171-0.32-0.258-0.3c-0.127,0.029-0.201,0.241-0.172,0.363l1.068,4.633
		c0.076,0.326,0.54,0.168,0.583,0.351c0.012,0.053,0.012,0.099-0.057,0.115C23.046,16.124,22.163,16.352,21.582,16.515"/>
	<path fill="#010202" d="M10.121,20.126c0.127,0.481,0.249,0.74,0.719,0.617c0.11-0.027,0.227,0.098,0.13,0.146
		c-0.183,0.093-1.463,0.865-1.828,1.084C9.061,22.015,9,21.852,9.061,21.783c0.261-0.298,0.286-0.62,0.209-1.052l-2.303-8.912
		c-0.163-0.613-0.33-0.776-0.533-0.751c-0.426,0.079-0.36-0.312-0.108-0.438c0.661-0.353,1.458-0.763,1.895-0.981l6.649,8.164
		c0.336,0.415,0.441,0.492,0.753,0.464c0.151-0.018,0.256,0.201,0.101,0.272c-0.853,0.353-2.079,0.93-3.144,1.46
		c-0.176,0.088-0.307-0.115-0.13-0.239c0.34-0.239,0.298-0.792,0.043-1.061l-1.185-1.325l-1.655,0.88L10.121,20.126z M8.617,14.14
		c-0.068,0.034,0.011,0.215,0.05,0.369l0.74,2.833l1.342-0.648l-1.853-2.288C8.85,14.347,8.685,14.106,8.617,14.14"/>
	<path fill="#010202" d="M35.261,13.756c-0.14,0.478-0.172,0.746,0.295,0.884c0.107,0.033,0.143,0.201,0.036,0.192
		c-0.205-0.016-1.704-0.013-2.13-0.014c-0.09-0.007-0.08-0.187,0.029-0.219c0.378-0.121,0.571-0.356,0.729-0.766l2.634-8.819
		c0.177-0.609,0.117-0.856-0.069-0.94c-0.405-0.153-0.156-0.447,0.125-0.425c0.748,0.039,1.643,0.096,2.127,0.135l1.485,10.446
		c0.073,0.528,0.123,0.629,0.405,0.765c0.138,0.064,0.116,0.305-0.054,0.286c-0.59-0.09-1.361-0.183-2.151-0.257
		c-0.434-0.041-0.872-0.07-1.292-0.104c-0.196-0.016-0.204-0.258,0.013-0.272c0.413-0.029,0.661-0.518,0.581-0.879l-0.329-1.746
		l-1.873-0.103L35.261,13.756z M37.068,7.854c-0.076-0.006-0.102,0.188-0.148,0.342l-0.831,2.807l1.483,0.14l-0.402-2.917
		C37.16,8.152,37.143,7.86,37.068,7.854"/>
	<path fill="#010202" d="M0.604,11.398c-0.266-0.425-0.574-0.688-0.977-0.594c-0.175,0.044-0.176-0.16-0.058-0.234
		c0.457-0.285,0.884-0.585,1.341-0.878C1.355,9.407,1.83,9.131,2.303,8.835c0.167-0.104,0.18,0.054,0.139,0.153
		C2.251,9.371,2.295,9.49,2.68,10.105l4.681,7.519c1.015,1.623,1.861,4.438-0.843,6.128c-1.696,1.059-3.884,0.559-4.949-1.147
		c-0.755-1.207-0.717-3.001,0.269-3.616c0.653-0.407,1.392-0.407,1.839,0.309c0.096,0.152,0.117,0.344,0.227,0.52
		c-0.173,0.107-0.255,0.044-0.486,0.188c-0.557,0.349-0.512,1.52-0.028,2.294c0.521,0.835,1.511,1.522,2.641,0.816
		c1.343-0.839,0.268-2.655-0.271-3.519L0.604,11.398z"/>
	<path fill="#010202" d="M64.509,12.199l0.093-0.19c0.46,0.019,0.84-0.063,1.141-0.244c0.3-0.181,0.517-0.409,0.652-0.688
		c0.026-0.053,0.034-0.1,0.026-0.14c-0.011-0.038-0.027-0.062-0.05-0.073c-0.021-0.01-0.056-0.013-0.106-0.009
		c-0.123,0.009-0.256-0.021-0.398-0.091c-0.195-0.095-0.329-0.253-0.399-0.474c-0.071-0.222-0.056-0.435,0.043-0.639
		c0.105-0.217,0.279-0.368,0.523-0.453s0.482-0.072,0.716,0.042c0.281,0.136,0.471,0.363,0.565,0.678
		c0.095,0.315,0.05,0.663-0.135,1.043c-0.227,0.469-0.57,0.817-1.029,1.045C65.693,12.233,65.145,12.297,64.509,12.199"/>
	<path fill="#010202" d="M34.234,40.753c5.87,0,10.628-4.758,10.628-10.628c0-5.869-4.759-10.627-10.628-10.627
		c-5.869,0-10.628,4.758-10.628,10.627C23.606,35.995,28.365,40.753,34.234,40.753"/>
	<path fill="#FFFFFF" d="M28.145,38.087v-1.502c0-0.069,0.072-0.085,0.072-0.085h1.03c0.371,0,0.763-0.046,0.763,0.515
		c0,0.13,0.004,0.35-0.215,0.452c0.13,0.054,0.31,0.384,0.31,0.637c0,0.318,0.103,0.839-0.337,0.839l-1.571-0.729
		C28.196,38.213,28.149,38.162,28.145,38.087 M28.64,37.306h0.485c0.12,0,0.303-0.041,0.303-0.284c0-0.187-0.001-0.203-0.3-0.203
		H28.64V37.306z M28.64,38.046l0.574,0.227c0.418,0.126,0.438-0.161,0.346-0.363c-0.088-0.192-0.46-0.335-0.617-0.323l-0.303-0.012
		V38.046z"/>
	<path fill="#FFFFFF" d="M31.765,38.247c0,0-0.106-0.258-0.28-0.258H31.11l0.038,1.143H30.59v-2.668h1.172
		c0.326,0,0.757,0.264,0.854,0.673c0.104,0.437-0.166,0.697-0.436,0.859c-0.063,0.038,0.509,1.551,0.509,1.551
		c0.069,0.119-0.001,0.1-0.099,0.15c-0.119,0.063-0.259,0.117-0.259,0.117s-0.11,0.066-0.136-0.036
		c-0.032-0.123-0.429-1.537-0.429-1.537L31.765,38.247z M31.098,37.571h0.623c0.197,0,0.292-0.05,0.292-0.343
		c0-0.309-0.3-0.333-0.433-0.333h-0.482V37.571z"/>
	<path fill="#FFFFFF" d="M34.08,25.741c-1.038,0-1.511,0.926-1.511,1.787c0.001,0.861,0.473,1.787,1.511,1.787
		s1.511-0.926,1.511-1.787S35.118,25.741,34.08,25.741 M34.08,28.693c-0.783,0-0.822-0.97-0.822-1.165
		c0-0.194,0.039-1.165,0.822-1.165c0.783,0,0.822,0.971,0.822,1.165C34.902,27.724,34.863,28.693,34.08,28.693"/>
	<rect x="32.678" y="29.797" fill="#FFFFFF" width="2.773" height="0.663"/>
	<path fill="#FFFFFF" d="M27.285,30.319v3.453c0,0-0.025,0.653,0.415,0.791c0.258,0.081,0.414,0.063,0.401,0.265
		c-0.022,0.351-0.012,0.614-0.012,0.614l-1.206,0.004l-1.268-0.004l-0.012-0.477c0,0-0.051-0.189,0.225-0.276
		c0.452-0.144,0.603-0.352,0.654-1.406c0.05-1.055,0.05-4.771,0.05-4.771s0.119-1.957-1.005-2.059c0,0-0.025-0.025,0-0.151
		c0.025-0.125,0-0.653,0-0.653h2.361l2.159,4.722c0,0,0.302,0.553,0.352,0c0.051-0.553,0.038-3.14,0.038-3.14
		s0.01-0.712-0.586-0.885l-0.212-0.019c-0.125,0-0.207-0.063-0.207-0.169c0-0.107,0.013-0.309,0.013-0.309s-0.069-0.176,0.251-0.149
		c0.15,0.011,2.309,0,2.309,0c0.212-0.02,0.199,0.195,0.199,0.195l0.003,0.307c0,0,0.047,0.223-0.301,0.251
		c0,0-0.603,0.201-0.653,1.154c-0.05,0.954-0.057,7.785-0.057,7.785l-0.696,0.05c0,0-0.39-0.05-0.471-0.223
		c-0.157-0.331-2.581-4.862-2.581-4.862C27.36,30.106,27.285,30.319,27.285,30.319"/>
	<path fill="#FFFFFF" d="M37.983,25.95h4.946c0.26-0.02,0.215,0.017,0.051,0.201c-0.277,0.313-3.164,4.043-3.415,6.177
		c-0.251,2.136,1.531,1.935,2.009,1.307c0.477-0.628,0.1,0.15,0.1,0.15c-0.199,0.402-2.071,3.394-4.671,1.381
		c-1.714-1.327,0.101-4.168,0.228-4.369c0.406-0.651,2.608-2.967,3.396-3.486c0.251-0.167-0.106-0.079-0.207-0.004
		c-0.1,0.075-1.055,0.678-1.582,0.678c-0.528,0-1.206,0.025-1.206,0.025s-0.461,0.05-0.603,0.377
		c-0.075,0.176-0.125,0.275-0.125,0.275s-0.021,0.04-0.201,0.051c-0.226,0.013-0.38-0.157-0.38-0.157s-0.002-0.065,0.101-0.332
		c0.125-0.327,0.932-2.524,0.932-2.524s0.056-0.264,0.162-0.27c0.127-0.007,0.408,0.138,0.346,0.326
		C37.816,25.898,37.983,25.95,37.983,25.95"/>
	<path fill="#FFFFFF" d="M35.826,36.688l0.019,2.364c0,0-0.047,0.349,0.094,0.349c0.141,0,0.311-0.066,0.311-0.066
		s0.141-0.02,0.122-0.245c-0.018-0.226-0.009-1.139-0.009-1.139s0.066-0.113,0.197,0.065c0.133,0.18,0.594,1.036,0.594,1.036
		s0.094,0.085,0.188,0.019c0.096-0.065,0.312-0.15,0.312-0.15s0.104-0.038,0.085-0.217s0.009-2.062,0.009-2.062
		s-0.065-0.104-0.196-0.094c-0.133,0.009-0.246,0-0.246,0s-0.094,0.056-0.094,0.207c0,0.15-0.037,1.045-0.037,1.045
		s0,0.273-0.143,0.047c-0.141-0.226-0.677-1.194-0.677-1.194s-0.01-0.104-0.113-0.133c-0.104-0.028-0.321-0.01-0.321-0.01
		S35.826,36.576,35.826,36.688"/>
	<path fill="#FFFFFF" d="M38.341,36.576c0,0,0.848-0.019,1.139,0.019c0.292,0.038,0.395,0.302,0.395,0.302s0.066,0.264,0.048,0.687
		c-0.019,0.425-0.33,0.51-0.33,0.51s-0.818,0.424-1.148,0.564c-0.329,0.142-0.292-0.085-0.292-0.085l0.019-1.799
		C38.162,36.613,38.341,36.576,38.341,36.576 M38.594,37.169l-0.009,0.697c0,0-0.01,0.16,0.15,0.113s0.611-0.292,0.611-0.292
		s0.076-0.123,0.066-0.217c-0.009-0.095-0.028-0.292-0.028-0.292s-0.123-0.16-0.188-0.16h-0.462
		C38.736,37.019,38.594,37.037,38.594,37.169"/>
	<path fill="#FFFFFF" d="M36.978,21.693h-0.982H35.92v2.574h1.044c0.818,0,1.107-0.711,1.107-1.321
		C38.072,22.186,37.643,21.693,36.978,21.693 M36.398,22.125h0.536c0.419,0,0.65,0.299,0.65,0.843c0,0.552-0.228,0.869-0.627,0.869
		h-0.559V22.125z"/>
	<path fill="#FFFFFF" d="M33.974,21.692h-0.076h-0.531l-0.015,2.575h1.776v-0.554H33.96C33.961,23.572,33.974,21.692,33.974,21.692"
		/>
	<path fill="#FFFFFF" d="M31.324,21.693c-0.712,0-1.29,0.578-1.29,1.291c0,0.712,0.578,1.29,1.29,1.29
		c0.713,0,1.291-0.578,1.291-1.29C32.615,22.271,32.037,21.693,31.324,21.693 M31.322,23.751c-0.424,0-0.769-0.344-0.769-0.769
		s0.345-0.769,0.769-0.769c0.425,0,0.769,0.344,0.769,0.769S31.747,23.751,31.322,23.751"/>
	<path fill="#FFFFFF" d="M35.493,39.351c0,0-0.81-2.429-0.886-2.599c-0.075-0.169-0.187-0.188-0.187-0.188h-0.585
		c-0.062,0.014-0.119,0.139-0.119,0.139s-0.829,2.423-0.891,2.648c-0.063,0.228,0.062,0.239,0.062,0.239s0.252,0.013,0.352,0.013
		c0.1,0,0.151-0.163,0.151-0.163s0.15-0.489,0.238-0.716l0.081-0.21h0.888c0.089,0.256,0.315,0.905,0.33,0.951
		c0.019,0.056,0.151,0.132,0.151,0.132s0.264-0.057,0.358-0.095C35.53,39.465,35.493,39.351,35.493,39.351 M34.243,37.41
		c0.062,0.191,0.157,0.486,0.227,0.707h-0.616l0.257-0.707H34.243z"/>
</g>
</svg>
