<?xml version="1.0" standalone="no"?><!DOCTYPE svg PUBLIC "-//W3C//DTD SVG 1.1//EN" "http://www.w3.org/Graphics/SVG/1.1/DTD/svg11.dtd"><svg width="909px" height="283px" version="1.1" xmlns="http://www.w3.org/2000/svg" xmlns:xlink="http://www.w3.org/1999/xlink" xml:space="preserve" style="fill-rule:evenodd;clip-rule:evenodd;stroke-linejoin:round;stroke-miterlimit:1.41421;"><g><g transform="matrix(0.724798,0,0,0.112749,0,19.2332)"><g transform="matrix(1.37969,0,0,8.86929,0,0)"><path d="M121.958,175c-15.9722,6.07639 -34.0278,9.11458 -54.1667,9.11458c-14.9306,0 -25.1736,-5.81597 -30.7292,-17.4479c-3.99306,-8.15972 -5.98958,-20.6597 -5.98958,-37.5c0,-10.7639 0.824653,-26.8229 2.47396,-48.1771c1.64931,-21.3542 2.47396,-37.3264 2.47396,-47.9167c0,-2.25694 -0.173611,-5.55556 -0.520833,-9.89583c-0.347222,-4.34028 -0.520833,-7.63889 -0.520833,-9.89583c0,-1.73611 0.0868056,-3.55903 0.260417,-5.46875c1.90972,-2.25694 4.51389,-3.38542 7.8125,-3.38542c6.07639,0 9.11458,7.11806 9.11458,21.3542c0,12.3264 -1.12847,30.816 -3.38542,55.4688c-2.25694,24.6528 -3.38542,43.1424 -3.38542,55.4688c0,23.4375 7.8125,35.1562 23.4375,35.1562c5.20833,0 12.5434,-1.47569 22.0052,-4.42708c9.46181,-2.95139 16.7969,-4.42708 22.0052,-4.42708c2.77778,0 4.99132,1.25868 6.64062,3.77604c1.64931,2.51736 2.47396,5.25174 2.47396,8.20312Z" style="fill:#bf5105;"/><path d="M150.343,178.125c-2.84217e-14,4.51389 -2.43056,6.77083 -7.29167,6.77083c-7.63889,0 -11.3715,-15.7118 -11.1979,-47.1354l0.78125,-116.927c0,-1.90972 -0.260417,-4.6441 -0.78125,-8.20312c-0.520833,-3.55903 -0.78125,-6.2066 -0.78125,-7.94271c3.29861,-2.43056 6.07639,-3.64583 8.33333,-3.64583c2.43056,0 4.86111,0.868056 7.29167,2.60417c2.43056,1.73611 3.64583,3.81944 3.64583,6.25c-2.84217e-14,1.73611 -0.434028,3.99306 -1.30208,6.77083c-1.04167,3.47222 -1.64931,5.64236 -1.82292,6.51042c-2.08333,11.8056 -3.125,28.2986 -3.125,49.4792c0,34.2014 -0.0868056,50.6944 -0.260417,49.4792c0.520833,21.3542 1.90972,37.4132 4.16667,48.1771c0,0.520833 0.390625,1.69271 1.17188,3.51562c0.78125,1.82292 1.17187,3.25521 1.17188,4.29688Z" style="fill:#bf5105;"/><path d="M242.271,188.281c0,2.43056 -1.90972,3.64583 -5.72917,3.64583c-4.16667,0 -6.68403,-1.73611 -7.55208,-5.20833c-0.173611,-0.520833 -0.260417,-3.90625 -0.260417,-10.1562c0,-1.73611 -0.260417,-3.125 -0.78125,-4.16667c-9.72222,7.11806 -20.2257,10.6771 -31.5104,10.6771c-7.8125,0 -15.3646,-2.17014 -22.6563,-6.51042c-8.33333,-4.86111 -12.5,-10.9375 -12.5,-18.2292c0,-7.11806 4.94792,-14.0625 14.8438,-20.8333c9.02778,-6.25 17.3611,-9.375 25,-9.375l25.7812,0c1.04167,-1.04167 1.5625,-2.86458 1.5625,-5.46875c0,-11.6319 -0.954861,-20.3993 -2.86458,-26.3021c-3.125,-9.89583 -9.28819,-14.8437 -18.4896,-14.8437c-6.59722,0 -12.6736,4.16667 -18.2292,12.5c-5.03472,7.63889 -7.55208,14.9306 -7.55208,21.875l0,2.86458c0,1.38889 -0.694444,2.08333 -2.08333,2.08333c-1.73611,1.42109e-14 -3.64583,-1.04167 -5.72917,-3.125c-2.08333,-2.08333 -3.125,-3.90625 -3.125,-5.46875c0,-4.86111 1.47569,-10.9809 4.42708,-18.3594c2.95139,-7.37847 6.16319,-12.9774 9.63542,-16.7969c4.34028,-4.6875 9.72222,-7.03125 16.1458,-7.03125c9.89583,0 19.0104,3.125 27.3438,9.375c8.85417,6.77083 13.3681,14.9306 13.5417,24.4792l0.78125,84.375ZM228.468,146.875c0,-6.94444 -5.38194,-10.4167 -16.1458,-10.4167c-8.50694,2.84217e-14 -15.9722,1.47569 -22.3958,4.42708c-8.15972,3.81944 -12.2396,9.54861 -12.2396,17.1875c0,4.6875 2.17014,8.33333 6.51042,10.9375c3.64583,2.25694 7.98611,3.38542 13.0208,3.38542c7.46528,0 14.5399,-2.43056 21.224,-7.29167c6.68403,-4.86111 10.026,-10.9375 10.026,-18.2292Z" style="fill:#bf5105;"/><path d="M352.166,190.885c-4.34028,3.47222 -7.8125,5.20833 -10.4167,5.20833c-3.81944,0 -10.4167,-5.46875 -19.7917,-16.4062c-11.8056,-14.0625 -18.0556,-21.441 -18.75,-22.1354c-2.08333,-1.73611 -5.72917,-5.81597 -10.9375,-12.2396c-4.51389,-5.38194 -8.50694,-9.11458 -11.9792,-11.1979l-4.6875,6.25l0,25.7812c0,1.5625 0.564236,3.77604 1.69271,6.64062c1.12847,2.86458 1.69271,5.07812 1.69271,6.64062c0,1.04167 -0.737847,2.03993 -2.21354,2.99479c-1.47569,0.954861 -2.82118,1.43229 -4.03646,1.43229c-6.94444,0 -10.4167,-3.73264 -10.4167,-11.1979l0,-36.4583c0,-2.25694 0.303819,-5.59896 0.911458,-10.026c0.607639,-4.42708 0.911458,-7.7691 0.911458,-10.026l0,-71.875c0,-10.2431 -0.434028,-18.316 -1.30208,-24.2188c0,-0.868056 -0.434028,-2.77778 -1.30208,-5.72917c-0.520833,-2.43056 -0.78125,-4.42708 -0.78125,-5.98958c0,-1.73611 1.34549,-3.47222 4.03646,-5.20833c2.69097,-1.73611 5.07812,-2.60417 7.16146,-2.60417c1.5625,2.84217e-14 3.25521,0.477431 5.07812,1.43229c1.82292,0.954861 2.73438,2.12674 2.73438,3.51562c0,0.173611 -0.434028,2.25694 -1.30208,6.25c-1.21528,4.6875 -1.82292,13.8021 -1.82292,27.3438l-1.04167,75.5208l1.30208,1.30208c5.55556,-3.47222 13.1944,-9.89583 22.9167,-19.2708c6.07639,-6.25 12.1528,-12.5 18.2292,-18.75c9.89583,-10.0694 15.7118,-15.1042 17.4479,-15.1042c2.60417,2.84217e-14 4.6875,1.17188 6.25,3.51562c1.5625,2.34375 2.25694,4.81771 2.08333,7.42188l-0.260417,1.30208c-6.59722,4.34028 -16.3194,12.1528 -29.1667,23.4375c-14.7569,13.0208 -22.1354,21.6146 -22.1354,25.7813c0,1.5625 2.60417,5.46875 7.8125,11.7187c8.15972,9.54861 16.2326,19.0972 24.2188,28.6458c10.9375,11.9792 20.2257,19.7917 27.8646,23.4375l0,2.86458Z" style="fill:#bf5105;"/><path d="M383.677,39.8438c0,5.90278 -2.77778,8.85417 -8.33333,8.85417c-3.29861,0 -6.33681,-1.21528 -9.11458,-3.64583c-2.77778,-2.43056 -4.16667,-5.20833 -4.16667,-8.33333c0,-5.90278 2.95139,-8.85417 8.85417,-8.85417c3.47222,2.84217e-14 6.46701,1.12847 8.98438,3.38542c2.51736,2.25694 3.77604,5.12153 3.77604,8.59375ZM378.729,78.9063c0,3.125 -0.694444,7.8125 -2.08333,14.0625c-1.38889,6.25 -2.08333,10.9375 -2.08333,14.0625l0,57.5521c0,3.81944 0.78125,9.02778 2.34375,15.625c-0.694444,1.38889 -1.64931,2.08333 -2.86458,2.08333c-8.50694,0 -12.7604,-4.07986 -12.7604,-12.2396l0,-95.5729c2.25694,-1.21528 4.42708,-1.82292 6.51042,-1.82292c2.08333,0 4.25347,0.607639 6.51042,1.82292c2.95139,1.21528 4.42708,2.69097 4.42708,4.42708Z" style="fill:#bf5105;"/><path d="M556.854,158.594c0,9.72222 -6.07639,17.1875 -18.2292,22.3958c-9.72222,4.16667 -20.1389,6.25 -31.25,6.25c-10.2431,0 -21.441,-2.08333 -33.5938,-6.25c-15.625,-5.38194 -23.4375,-12.066 -23.4375,-20.0521c0,-4.34028 2.08333,-6.51042 6.25,-6.51042c3.29861,0 7.11806,1.90972 11.4583,5.72917c6.07639,5.72917 9.375,8.76736 9.89583,9.11458c6.59722,4.34028 17.2743,6.51042 32.0312,6.51042c19.7917,0 29.6875,-5.20833 29.6875,-15.625c0,-4.86111 -4.25347,-10.8507 -12.7604,-17.9688c-1.38889,-1.04167 -7.89931,-5.72917 -19.5312,-14.0625c-18.5764,-13.1944 -30.2951,-22.3958 -35.1563,-27.6042c-10.9375,-11.6319 -16.4062,-25.1736 -16.4062,-40.625c0,-14.2361 4.07986,-27.2569 12.2396,-39.0625c9.02778,-13.1944 20.3993,-19.7917 34.1146,-19.7917c11.6319,0 21.6146,4.94792 29.9479,14.8438c7.29167,8.68056 12.066,19.184 14.3229,31.5104c0.173611,4.16667 0.868056,10.5035 2.08333,19.0104c1.38889,6.25 2.08333,9.375 2.08333,9.375c0,13.8889 -3.38542,20.8333 -10.1562,20.8333c-1.73611,1.42109e-14 -3.51562,-0.998264 -5.33854,-2.99479c-1.82292,-1.99653 -2.73438,-3.86285 -2.73438,-5.59896c0,-2.43056 0.520833,-5.98958 1.5625,-10.6771c1.04167,-4.6875 1.5625,-8.24653 1.5625,-10.6771c0,-11.9792 -1.90972,-22.5694 -5.72917,-31.7708c-5.03472,-12.5 -12.6736,-18.75 -22.9167,-18.75c-10.2431,0 -18.7934,4.47049 -25.651,13.4115c-6.85764,8.94097 -10.2865,18.7066 -10.2865,29.2969c0,14.2361 7.46528,27.7778 22.3958,40.625c13.7153,9.89583 27.5174,19.8785 41.4063,29.9479c14.7569,10.7639 22.1354,20.4861 22.1354,29.1667Z" style="fill:#bf5105;"/><path d="M649.562,188.281c0,2.43056 -1.90972,3.64583 -5.72917,3.64583c-4.16667,0 -6.68403,-1.73611 -7.55208,-5.20833c-0.173611,-0.520833 -0.260417,-3.90625 -0.260417,-10.1562c0,-1.73611 -0.260417,-3.125 -0.78125,-4.16667c-9.72222,7.11806 -20.2257,10.6771 -31.5104,10.6771c-7.8125,0 -15.3646,-2.17014 -22.6562,-6.51042c-8.33333,-4.86111 -12.5,-10.9375 -12.5,-18.2292c0,-7.11806 4.94792,-14.0625 14.8438,-20.8333c9.02778,-6.25 17.3611,-9.375 25,-9.375l25.7812,0c1.04167,-1.04167 1.5625,-2.86458 1.5625,-5.46875c0,-11.6319 -0.954861,-20.3993 -2.86458,-26.3021c-3.125,-9.89583 -9.28819,-14.8437 -18.4896,-14.8437c-6.59722,0 -12.6736,4.16667 -18.2292,12.5c-5.03472,7.63889 -7.55208,14.9306 -7.55208,21.875l0,2.86458c0,1.38889 -0.694444,2.08333 -2.08333,2.08333c-1.73611,1.42109e-14 -3.64583,-1.04167 -5.72917,-3.125c-2.08333,-2.08333 -3.125,-3.90625 -3.125,-5.46875c0,-4.86111 1.47569,-10.9809 4.42708,-18.3594c2.95139,-7.37847 6.16319,-12.9774 9.63542,-16.7969c4.34028,-4.6875 9.72222,-7.03125 16.1458,-7.03125c9.89583,0 19.0104,3.125 27.3438,9.375c8.85417,6.77083 13.3681,14.9306 13.5417,24.4792l0.78125,84.375ZM635.76,146.875c0,-6.94444 -5.38194,-10.4167 -16.1458,-10.4167c-8.50694,2.84217e-14 -15.9722,1.47569 -22.3958,4.42708c-8.15972,3.81944 -12.2396,9.54861 -12.2396,17.1875c0,4.6875 2.17014,8.33333 6.51042,10.9375c3.64583,2.25694 7.98611,3.38542 13.0208,3.38542c7.46528,0 14.5399,-2.43056 21.224,-7.29167c6.68403,-4.86111 10.026,-10.9375 10.026,-18.2292Z" style="fill:#bf5105;"/><path d="M687.323,178.125c0,4.51389 -2.43056,6.77083 -7.29167,6.77083c-7.63889,0 -11.3715,-15.7118 -11.1979,-47.1354l0.78125,-116.927c0,-1.90972 -0.260417,-4.6441 -0.78125,-8.20312c-0.520833,-3.55903 -0.78125,-6.2066 -0.78125,-7.94271c3.29861,-2.43056 6.07639,-3.64583 8.33333,-3.64583c2.43056,0 4.86111,0.868056 7.29167,2.60417c2.43056,1.73611 3.64583,3.81944 3.64583,6.25c0,1.73611 -0.434028,3.99306 -1.30208,6.77083c-1.04167,3.47222 -1.64931,5.64236 -1.82292,6.51042c-2.08333,11.8056 -3.125,28.2986 -3.125,49.4792c0,34.2014 -0.0868056,50.6944 -0.260417,49.4792c0.520833,21.3542 1.90972,37.4132 4.16667,48.1771c0,0.520833 0.390625,1.69271 1.17188,3.51562c0.78125,1.82292 1.17188,3.25521 1.17188,4.29688Z" style="fill:#bf5105;"/><path d="M776.646,154.948c0,7.63889 -5.12153,14.4965 -15.3646,20.5729c-9.20139,5.55556 -17.8819,8.33333 -26.0417,8.33333c-23.2639,0 -34.8958,-14.7569 -34.8958,-44.2708c0,-13.0208 2.34375,-26.9965 7.03125,-41.9271c6.25,-19.4444 14.2361,-29.1667 23.9583,-29.1667c8.33333,0 17.4479,4.21007 27.3438,12.6302c9.89583,8.42014 14.8438,16.7969 14.8438,25.1302c0,10.7639 -4.34028,20.1389 -13.0208,28.125c-8.68056,7.98611 -18.4896,11.9792 -29.4271,11.9792c-1.04167,0 -3.25521,-0.868056 -6.64062,-2.60417c-3.38542,-1.73611 -5.68576,-2.60417 -6.90104,-2.60417c-2.25694,0 -3.38542,0.694444 -3.38542,2.08333c0,19.9653 6.59722,29.9479 19.7917,29.9479c6.77083,0 13.0208,-2.25694 18.75,-6.77083c3.47222,-2.60417 7.29167,-6.68403 11.4583,-12.2396c3.29861,-4.34028 5.46875,-6.51042 6.51042,-6.51042c3.99306,0 5.98958,2.43056 5.98958,7.29167ZM758.677,107.031c0,-6.07639 -1.73611,-11.7622 -5.20833,-17.0573c-3.47222,-5.29514 -8.07292,-7.94271 -13.8021,-7.94271c-6.94444,0 -12.5868,4.34028 -16.9271,13.0208c-3.64583,7.29167 -5.46875,14.8438 -5.46875,22.6562c0,5.03472 1.6059,9.24479 4.81771,12.6302c3.21181,3.38542 7.33507,5.07812 12.3698,5.07812c7.11806,0 13.0208,-3.03819 17.7083,-9.11458c4.34028,-5.55556 6.51042,-11.9792 6.51042,-19.2708Z" style="fill:#bf5105;"/><path d="M866.489,116.927c0,17.1875 -2.51736,31.5972 -7.55208,43.2292c-6.77083,16.1458 -17.4479,24.2188 -32.0312,24.2188c-9.54861,0 -17.8819,-4.42708 -25,-13.2812c-1.21528,0.520833 -1.82292,5.90278 -1.82292,16.1458c0,22.5694 1.12847,38.5417 3.38542,47.9167c0.173611,0.868056 0.998264,2.95139 2.47396,6.25c1.47569,3.29861 2.21354,5.29514 2.21354,5.98958c0,2.77778 -1.73611,4.16667 -5.20833,4.16667c-4.16667,-2.84217e-14 -7.07465,-0.607639 -8.72396,-1.82292c-1.64931,-1.21528 -3.0816,-5.20833 -4.29688,-11.9792c-1.04167,-5.72917 -1.5625,-10.2431 -1.5625,-13.5417l0,-66.1458c0,-6.07639 0.347222,-14.2361 1.04167,-24.4792c0.694444,-11.9792 1.12847,-20.1389 1.30208,-24.4792c0.173611,-4.6875 0.173611,-10.7639 0,-18.2292c-0.173611,-9.54861 -0.260417,-15.7118 -0.260417,-18.4896c0,-11.9792 3.125,-17.9687 9.375,-17.9688c3.125,2.84217e-14 4.6875,1.12847 4.6875,3.38542c0,4.34028 -0.347222,10.6771 -1.04167,19.0104c-0.694444,8.33333 -1.04167,14.5833 -1.04167,18.75l1.04167,0c3.99306,-5.38194 7.98611,-10.8507 11.9792,-16.4062c4.6875,-6.07639 10.5035,-9.11458 17.4479,-9.11458c11.6319,0 20.3993,5.20833 26.3021,15.625c4.86111,8.33333 7.29167,18.75 7.29167,31.25ZM853.729,117.969c0,-9.20139 -0.954861,-17.1007 -2.86458,-23.6979c-2.95139,-9.72222 -7.72569,-14.5833 -14.3229,-14.5833c-4.86111,0 -10.7639,4.25347 -17.7083,12.7604c-6.07639,7.46528 -10.3299,15.1042 -12.7604,22.9167c-1.90972,5.90278 -3.47222,14.5833 -4.6875,26.0417c-0.868056,8.33333 -1.30208,12.3264 -1.30208,11.9792c0,0.520833 0.78125,1.38889 2.34375,2.60417c1.04167,0.694444 2.08333,1.47569 3.125,2.34375c2.77778,3.99306 5.59896,8.02951 8.46354,12.1094c2.86458,4.07986 7.16146,6.11979 12.8906,6.11979c9.54861,0 16.7535,-7.8125 21.6146,-23.4375c3.47222,-11.1111 5.20833,-22.8299 5.20833,-35.1563Z" style="fill:#bf5105;"/></g></g></g></svg>