<?xml version="1.0" encoding="UTF-8" standalone="no"?>
<!-- Created with Inkscape (http://www.inkscape.org/) -->
<svg
   xmlns:svg="http://www.w3.org/2000/svg"
   xmlns="http://www.w3.org/2000/svg"
   version="1.0"
   width="1002.8"
   height="458.73251"
   id="Logo_Melitta_Swirl"
   xml:space="preserve"><defs
     id="defs5" /><path
     d="M 835.66307,444.3631 C 737.42698,388.192 623.65494,356.16059 502.2375,356.16059 C 380.58077,356.16059 266.56826,388.192 168.09642,444.5977 L 30.899034,129.81762 C 171.91678,55.960511 332.05976,14.134814 502.47795,14.134814 C 671.93548,14.134814 831.59873,55.721235 971.90097,129.33789 L 835.66307,444.3631"
     id="blau"
     style="fill:#004593;fill-opacity:1;fill-rule:evenodd;stroke:none" /><path
     d="M 259.63836,137.70232 L 271.10882,181.20771 L 227.60813,195.30796 C 227.60813,195.30796 220.67824,198.65325 221.87231,202.23903 C 223.06757,206.06289 225.45808,206.77841 228.56761,207.25816 C 231.43318,207.73906 244.10358,208.21412 250.79302,208.4534 C 257.48832,208.92846 277.56366,210.36417 285.20907,216.3381 C 296.44375,225.18345 301.94381,232.11452 304.33431,251.71481 C 306.72366,271.07465 295.2485,286.13556 283.53876,293.54052 C 272.06361,300.95016 262.50392,303.57994 262.50392,303.57994 L 209.44237,322.22544 L 194.14687,278.245 L 244.10358,261.9947 C 244.10358,261.9947 248.40367,261.03405 249.83821,258.16966 C 251.27276,255.53869 250.07867,253.38982 248.40367,251.95411 C 246.72868,250.75884 241.71307,250.03981 233.34745,249.08385 C 225.21761,248.36952 204.42207,247.17426 190.80274,238.08961 C 177.17754,228.76921 171.20243,212.7535 171.67632,198.17351 C 172.15724,183.59822 178.61208,174.51357 186.26218,167.58367 C 193.66712,160.41332 205.14227,155.39303 214.46267,152.28231 C 223.54732,148.93818 259.63836,137.70232 259.63836,137.70232 M 759.41661,137.46773 C 759.41661,137.46773 755.35228,136.51293 753.20224,136.03201 C 748.90213,135.3118 744.35688,135.3118 739.81631,136.27246 C 725.47679,139.37732 715.67664,151.08706 715.67664,151.08706 L 716.15637,148.93818 L 722.60654,131.72721 L 673.13074,120.73182 L 638.23494,276.81047 L 689.62619,288.7595 L 706.59669,219.44881 L 708.98603,211.0832 C 708.98603,211.0832 711.37653,198.65325 715.91593,192.91862 C 720.69694,187.17812 728.82091,183.8328 734.79602,183.8328 C 741.01158,184.07326 745.55214,185.02806 750.09739,186.22331 C 754.63677,187.41856 759.89753,189.56862 759.89753,189.56862 L 775.43232,141.76783 L 759.41661,137.46773 M 606.68443,102.56723 C 624.37515,104.72197 640.15039,96.356369 641.58493,83.926416 C 643.25523,71.736941 629.86932,59.785569 612.18448,57.635509 C 594.25919,55.485468 578.48394,63.851067 577.0494,76.276328 C 575.61369,88.466985 588.75914,100.41717 606.68443,102.56723 M 873.18865,149.41793 C 878.20896,137.70232 891.59487,132.92248 903.06416,137.94277 C 914.30001,142.72262 920.27512,155.63231 915.25481,167.58367 C 909.99405,179.5327 896.60931,184.07326 885.37932,179.29341 C 873.90417,174.51357 867.92906,161.60741 873.18865,149.41793 z M 886.81385,175.94811 C 896.13426,179.77316 906.64991,175.70882 910.95471,165.66823 C 915.25481,155.86807 910.95471,145.35241 901.62961,141.29278 C 892.06992,137.22726 881.55426,141.52736 877.24948,151.32751 C 872.94937,161.36812 877.24948,171.88261 886.81385,175.94811 z M 884.65912,168.77776 L 881.07452,167.10277 L 891.35441,143.20236 L 900.43436,147.02742 C 905.93441,149.41793 907.844,152.76205 905.93441,157.54307 C 904.01895,161.84317 900.67481,162.5622 896.84977,161.36812 L 899.2391,174.99331 L 895.17946,173.07787 L 893.26401,160.17287 L 889.20437,158.25741 L 884.65912,168.77776 z M 894.69971,157.06802 C 897.80457,158.49786 900.67481,159.45735 902.34982,155.63231 C 903.54507,152.76205 901.15456,151.08706 898.52477,149.89297 L 893.50446,147.74292 L 890.39375,155.15257 L 894.69971,157.06802 M 429.8161,255.05894 C 429.8161,255.05894 425.75177,267.00914 399.22039,274.1795 C 378.19025,279.67955 362.89006,277.52949 345.4445,267.96981 C 327.75497,258.40426 321.30482,230.91927 321.30482,230.91927 L 298.59381,128.38191 L 352.85531,118.10788 L 367.19485,214.42851 C 367.19485,214.42851 368.86515,228.52876 386.07611,226.13942 C 402.80617,223.98936 399.70131,210.60345 399.70131,210.60345 L 390.14046,112.84712 L 444.39609,108.06728 L 451.56644,206.06289 C 451.56644,206.06289 450.61165,219.68926 467.57746,218.96906 C 485.0277,218.25356 484.07173,204.14862 484.07173,204.14862 L 481.44194,107.1113 L 536.89283,107.59222 L 532.11299,212.51891 C 532.11299,212.51891 530.67845,240.71941 514.90789,253.14936 C 499.12795,265.5793 484.55266,270.36032 463.0369,268.44486 C 435.55192,266.29481 429.57681,255.05894 429.57681,255.05894 L 429.8161,255.05894 M 611.46429,273.22471 L 632.98003,114.52213 L 577.52915,108.78162 L 559.12411,266.53409 L 611.46429,273.22471 M 904.25941,108.06728 C 922.66445,116.19242 940.83021,124.79733 958.7555,133.87726 L 830.64275,429.78193 C 733.12688,376.2418 621.26443,345.6461 502.2375,345.6461 C 382.97009,345.6461 270.63376,376.2418 173.11203,430.01769 L 44.284946,134.59747 C 181.71693,64.085661 337.31935,24.410015 502.47795,24.410015 C 607.64393,24.410015 709.22649,40.666189 804.59231,70.780963 L 799.57318,86.791987 C 705.87649,57.155765 605.96893,41.145924 502.47795,41.145924 C 346.16002,41.145924 198.44696,77.471582 66.990085,141.76783 L 181.95739,406.35658 C 278.03872,356.8808 386.79045,328.91605 502.2375,328.91605 C 619.11439,328.91605 719.98143,356.40105 821.32353,406.35658 C 821.32353,406.35658 892.78427,242.15396 920.5144,178.09816 L 934.1349,146.30722 L 936.28964,141.52736 C 923.37996,135.3118 910.47497,129.10212 897.32952,123.36279 L 904.01895,108.30656 L 904.01895,108.06728 L 904.25941,108.06728 M 829.92843,79.146581 C 847.85371,85.360966 865.77901,92.051566 883.46386,99.22192 L 793.35763,322.94096 L 744.12229,303.82041 L 829.92843,79.146581"
     id="weiss"
     style="fill:#ffffff;fill-opacity:1;fill-rule:evenodd;stroke:none" /></svg>