<?xml version="1.0" encoding="UTF-8" standalone="no"?>
<!-- Generator: Adobe Illustrator 15.0.0, SVG Export Plug-In . SVG Version: 6.00 Build 0)  -->

<svg
   xmlns:dc="http://purl.org/dc/elements/1.1/"
   xmlns:cc="http://creativecommons.org/ns#"
   xmlns:rdf="http://www.w3.org/1999/02/22-rdf-syntax-ns#"
   xmlns:svg="http://www.w3.org/2000/svg"
   xmlns="http://www.w3.org/2000/svg"
   xmlns:xlink="http://www.w3.org/1999/xlink"
   xmlns:sodipodi="http://sodipodi.sourceforge.net/DTD/sodipodi-0.dtd"
   xmlns:inkscape="http://www.inkscape.org/namespaces/inkscape"
   version="1.1"
   id="Vrstva_1"
   x="0px"
   y="0px"
   width="426.207px"
   height="84.834px"
   viewBox="0 0 426.207 84.834"
   enable-background="new 0 0 426.207 84.834"
   xml:space="preserve"
   inkscape:version="0.48+devel r9994"
   sodipodi:docname="Mentos_Logo.svg"><metadata
   id="metadata85"><rdf:RDF><cc:Work
       rdf:about=""><dc:format>image/svg+xml</dc:format><dc:type
         rdf:resource="http://purl.org/dc/dcmitype/StillImage" /><dc:title></dc:title></cc:Work></rdf:RDF></metadata><defs
   id="defs83" /><sodipodi:namedview
   pagecolor="#ffffff"
   bordercolor="#666666"
   borderopacity="1"
   objecttolerance="10"
   gridtolerance="10"
   guidetolerance="10"
   inkscape:pageopacity="0"
   inkscape:pageshadow="2"
   inkscape:window-width="1440"
   inkscape:window-height="852"
   id="namedview81"
   showgrid="false"
   inkscape:zoom="1.6889321"
   inkscape:cx="213.1035"
   inkscape:cy="42.417"
   inkscape:window-x="0"
   inkscape:window-y="0"
   inkscape:window-maximized="0"
   inkscape:current-layer="Vrstva_1" />
<g
   id="g3">
	<defs
   id="defs5">
		<rect
   id="SVGID_1_"
   width="426.207"
   height="84.834" />
	</defs>
	<clipPath
   id="SVGID_2_">
		<use
   xlink:href="#SVGID_1_"
   overflow="visible"
   id="use9" />
	</clipPath>
	<path
   clip-path="url(#SVGID_2_)"
   fill="#FFFFFF"
   d="M55.337,14.821c5.319,0.034,11.023,0.975,15.963,3.755   c5.321-2.715,11.272-3.829,19.029-3.829c7.335,0.108,20.029,3.448,25.488,13.498c6.437-8,16.559-13.638,29.186-13.638   c10.576,0,18.782,3.237,24.622,8.524v-6.68h42.781c3.619-0.974,7.828-1.597,12.035-1.772c0.632,0,1.184,0,1.772,0.067   c5.322,0.108,10.054,1.603,13.915,4.241C248.996,13.883,255.572,7.999,261.833,0h20.834v16.592h7.995v5.324   c6.332-4.558,14.195-7.309,22.614-7.309c11.131,0,21.319,4.766,28.169,12.352c5.358-9.148,16.766-13.076,27.553-13.076   c1.804-0.035,3.367,0.034,4.867,0.237c4.691,0.418,9.009,1.358,12.692,2.332h23.551v30.643h-2.198   c3.237,3.827,5.049,8.521,4.49,15.064c-2.091,16.589-14.54,22.781-31.825,22.673c-7.967,0.072-16.587-1.806-16.587-1.806H339.64   v-8.798c-6.89,6.567-16.352,10.502-26.507,10.502c-8.343,0-16.206-2.541-22.57-7.269v1.354c-6.957,4.662-12.631,5.915-18.642,6.017   h-1.223c-0.38,0-0.726-0.069-1.142-0.069c-6.438-0.032-11.793-1.354-15.863-3.967v2.127H169.66V76.21   c-5.842,5.423-13.705,8.553-25.323,8.553c-8.696,0.069-16.692-2.746-22.957-7.828v5.949H0V59.685h3.299V39.651H0V16.553h42.637   c2.265-0.691,5.357-1.353,8.35-1.596C52.412,14.855,53.841,14.747,55.337,14.821"
   id="path11" />
	<path
   clip-path="url(#SVGID_2_)"
   fill="#233688"
   d="M276.053,23.303h7.973v9.567h-7.973v28.314c0,3.788,3.482,4.311,7.899,3.335   v10.817c-2.019,1.328-5.423,2.888-14.507,2.572c-14.192,0-19.891-7.79-19.891-17.041V32.87h-3.197v-9.603   c10.502-6.012,18.783-16.587,18.783-16.587h10.912V23.303z"
   id="path13" />
	<path
   clip-path="url(#SVGID_2_)"
   fill="#233688"
   d="M319.917,49.774c0,8.972-1.495,15.441-6.641,15.441   c-5.148,0-6.612-6.47-6.612-15.441c0-9.149,1.567-15.377,6.612-15.377C318.557,34.397,319.917,40.625,319.917,49.774    M343.67,49.774c0-15.724-13.598-28.347-30.394-28.347c-16.835,0-30.436,12.623-30.436,28.347   c0,15.616,13.601,28.135,30.436,28.135C330.072,77.909,343.67,65.391,343.67,49.774"
   id="path15" />
	<path
   clip-path="url(#SVGID_2_)"
   fill="#233688"
   d="M355.427,56.974c4.278,4.414,12.94,8.032,19.896,9.148   c0.8,0.136,1.669,0.205,2.713,0.277h0.799c1.185-0.072,2.228-0.312,2.753-1.114c0.62-0.977-0.211-2.504-2.65-3.578   c-5.877-2.474-15.822-4.699-20.864-7.343c-7.405-3.617-13.255-7.755-12.77-17.285c1.116-13.947,15.654-16.138,24.216-16.036   c1.561,0,2.778,0.073,3.686,0.243c8.797,0.804,16.553,3.374,20.729,5.011v-3.34h9.669v18.641c0,0-1.672,0-3.306,0.034   c-0.211,0-0.454,0-0.698,0.067h-2.784c-0.724-0.067-1.286-0.067-1.286-0.102c-4.105-4.065-14.151-8.345-20.205-9.315   c-0.801-0.143-1.666-0.252-2.263-0.252c-1.98-0.067-3.164,0.562-3.44,1.711c-0.28,1.63,1.669,2.537,3.304,3.231   c5.326,2.09,13.183,3.652,19.305,6.823c8.9,4.306,14.432,8.797,13.602,17.561c-1.463,11.581-9.604,16.553-25.016,16.868   c-12.725-0.418-19.337-3.616-23.889-5.457v3.335h-10.473V56.974H355.427z"
   id="path17" />
	<path
   clip-path="url(#SVGID_2_)"
   fill="#233688"
   d="M206.356,26.751c5.044-3.687,11.58-5.534,19.617-5.289   c10.506,0.035,17.598,7.722,17.598,17.357v27.613h3.373l-0.032,9.845l-33.046-0.033v-9.812h3.308V43.478   c0-3.726-2.745-5.843-5.427-5.772c-2.779,0.032-5.491,2.364-5.491,7.165v21.529h3.266l-0.069,9.878h-33.077v-9.845h3.305V32.937   h-3.339v-9.805h30.015V26.751z"
   id="path19" />
	<path
   clip-path="url(#SVGID_2_)"
   fill="#233688"
   d="M145.003,21.387L145.003,21.387c17.739,0,31.826,13.498,30.365,31.828H139.78   c-0.101,6.577,2.435,12.243,9.115,12.243c4.768,0,7.79-1.703,10.022-5.494l14.607,0.208c-3.618,8.695-12.491,18.156-29.147,18.156   c-16.665,0.066-29.809-13.282-29.809-28C114.568,35.931,126.392,21.387,145.003,21.387 M146.075,34.397   c-5.357,0-6.153,5.672-6.187,10.154h12.731C152.723,40.206,151.607,34.397,146.075,34.397"
   id="path21" />
	<path
   clip-path="url(#SVGID_2_)"
   fill="#233688"
   d="M84.932,66.433V43.478c0-3.726-2.714-5.876-5.425-5.843   c-2.677,0-5.427,2.334-5.427,7.235v21.562h3.272v9.845H44.206v-9.845h3.232V43.478c0-3.76-2.71-5.876-5.386-5.772   c-2.786,0.032-5.566,2.364-5.566,7.165l0.034,21.562h3.266v9.845H6.779v-9.845h3.233l0.033-33.461H6.779v-9.669h29.707v3.271   c2.567-1.595,7.404-4.38,15.058-5.044c0.729-0.067,1.496-0.067,2.155-0.067c0.662-0.034,1.359-0.034,2.092,0   c5.984,0.067,11.195,1.387,15.3,4.978c5.424-3.551,10.541-5.084,19.403-5.084c8.874,0.072,21.084,5.218,21.084,17.424   l-0.073,27.653h3.272v9.845H81.664v-9.845H84.932z"
   id="path23" />
	<path
   clip-path="url(#SVGID_2_)"
   fill="#6C6FAF"
   d="M47.994,67.096l-0.068-22.955c0-0.142,0.068-1.463-0.346-2.961   c-0.317-0.94-0.804-1.912-1.67-2.638l2.366-2.469c3.057,2.746,3.126,6.917,3.057,8.209v26.011h-3.232v2.157l-3.305,3.239   l0.073-8.661L47.994,67.096z"
   id="path25" />
	<path
   clip-path="url(#SVGID_2_)"
   fill="#6C6FAF"
   d="M85.559,72.417l-3.197,3.272l0.034-8.661h3.128v-22.82   c-0.033-0.278,0.104-3.969-2.297-5.809l2.471-2.365c3.238,2.642,3.238,6.956,3.238,8.248v26.011h-3.377V72.417z"
   id="path27" />
	<polygon
   clip-path="url(#SVGID_2_)"
   fill="#6C6FAF"
   points="32.692,70.293 35.89,70.293 39.266,67.028 35.999,67.028  "
   id="polygon29" />
	<polygon
   clip-path="url(#SVGID_2_)"
   fill="#6C6FAF"
   points="70.186,70.293 73.423,70.293 76.864,67.028 73.557,67.028  "
   id="polygon31" />
	<polygon
   clip-path="url(#SVGID_2_)"
   fill="#6C6FAF"
   points="107.644,70.293 110.807,70.293 114.357,67.028 111.057,67.028  "
   id="polygon33" />
	<polygon
   clip-path="url(#SVGID_2_)"
   fill="#6C6FAF"
   points="7.199,23.823 10.574,27.129 32.659,27.129 35.925,23.721  "
   id="polygon35" />
	<path
   clip-path="url(#SVGID_2_)"
   fill="#6C6FAF"
   d="M54.638,25.635c0.667,0,1.321,0,1.846,0.067c1.388,0,2.402,0.106,2.539,0.175   l3.439-3.197c-2.399-0.486-4.692-0.764-6.917-0.839c-11.55-0.237-19.412,5.321-20.278,6.328c-1.184,1.225-2.02,1.813-2.575,2.474   v3.029c0,0,4.802-5.149,14.642-7.41C49.526,25.776,52.306,25.635,54.638,25.635"
   id="path37" />
	<polygon
   clip-path="url(#SVGID_2_)"
   fill="#6C6FAF"
   points="10.466,32.45 10.466,67.096 7.267,67.096 7.267,75.649 10.608,72.417    10.608,70.293 13.909,70.293 13.909,29.15  "
   id="polygon39" />
	<path
   clip-path="url(#SVGID_2_)"
   fill="#6C6FAF"
   d="M218.182,36.243l-2.4,2.433c2.33,1.777,2.088,5.323,2.154,5.606l-0.066,22.847   h-3.441l0.069,8.697l3.506-3.307V70.4h3.205V44.35C221.311,43.093,221.277,38.919,218.182,36.243"
   id="path41" />
	<polygon
   clip-path="url(#SVGID_2_)"
   fill="#6C6FAF"
   points="202.426,70.293 205.555,70.293 208.931,67.096 205.659,67.096  "
   id="polygon43" />
	<polygon
   clip-path="url(#SVGID_2_)"
   fill="#6C6FAF"
   points="239.573,70.293 242.805,70.293 246.113,67.096 242.875,67.096  "
   id="polygon45" />
	<polygon
   clip-path="url(#SVGID_2_)"
   fill="#6C6FAF"
   points="177.036,23.823 180.337,27.129 202.53,27.129 205.735,23.721  "
   id="polygon47" />
	<path
   clip-path="url(#SVGID_2_)"
   fill="#6C6FAF"
   d="M224.234,25.809c2.398,0.068,4.072,0.312,4.277,0.347l3.024-2.853   c-2.291-0.867-4.661-1.246-7.095-1.214c-7.965,0-16.141,3.648-18.886,5.979c-1.179,1.082-2.752,2.298-3.237,2.887v3.096   c0,0,4.735-4.941,14.612-7.409C219.609,25.952,222.107,25.776,224.234,25.809"
   id="path49" />
	<polygon
   clip-path="url(#SVGID_2_)"
   fill="#6C6FAF"
   points="180.304,32.212 180.304,67.096 177.139,67.096 177.139,75.724    180.445,72.45 180.445,70.119 183.679,70.119 183.645,29.426  "
   id="polygon51" />
	<path
   clip-path="url(#SVGID_2_)"
   fill="#6C6FAF"
   d="M89.523,25.702c3.691,0,6.016,0.56,6.225,0.737l3.03-2.963   c-0.42-0.174-3.652-1.702-9.842-1.702c-1.118,0-2.333,0.1-3.687,0.242c-6.748,0.663-10.888,2.962-13.805,4.836   c-0.455,0.276-3.032,2.397-3.032,2.472c0.21,0.203,2.225,1.732,2.577,2.085c0.555-0.171,4.346-4.104,11.929-5.254   C85.419,25.776,87.683,25.635,89.523,25.702"
   id="path53" />
	<path
   clip-path="url(#SVGID_2_)"
   fill="#6C6FAF"
   d="M144.513,25.217c4.036-0.104,8.277,0.702,12.697,2.715l2.646-2.502   c-1.225-0.905-7.308-3.271-14.751-3.413c-7.405-0.068-16.311,2.09-23.272,10.539c-9.002,10.753-7.686,23.2-2.331,31.86l2.366-2.363   c-4.483-7.547-5.178-18.995,2.717-27.758C129.315,29.109,136.407,25.43,144.513,25.217"
   id="path55" />
	<path
   clip-path="url(#SVGID_2_)"
   fill="#6C6FAF"
   d="M141.351,45.006c0.275,0,0.454,0,0.727,0.034h10.645l0.244-0.034h0.106   c0.206-2.921-0.387-8.101-3.271-9.907l2.433-2.401c5.599,4.904,4.317,15.791,4.317,15.791l-20.665-0.042l3.515-3.44   C139.402,45.006,140.132,44.971,141.351,45.006"
   id="path57" />
	<path
   clip-path="url(#SVGID_2_)"
   fill="#6C6FAF"
   d="M139.402,52.593c0,0-1.325,11.062,6.959,13.11   c0.899,0.209,1.734,0.351,2.64,0.384c5.391,0.17,9.042-3.583,10.225-5.463l13.464,0.107l-5.743,3.302l-5.982-0.243   c0,0-3.308,5.252-10.92,5.604h-1.569c-9.492-0.421-13.04-6.965-12.382-19.865L139.402,52.593z"
   id="path59" />
	<polygon
   clip-path="url(#SVGID_2_)"
   fill="#6C6FAF"
   points="272.125,27.196 280.021,27.196 283.363,23.931 275.257,23.931  "
   id="polygon61" />
	<path
   clip-path="url(#SVGID_2_)"
   fill="#6C6FAF"
   d="M265.451,7.338c0,0-7.654,10.155-18.641,16.349l0.066,8.596l3.266-3.204   l0.041-3.578c6.846-3.626,16.729-14.856,16.729-14.856h5.041l3.303-3.306H265.451z"
   id="path63" />
	<path
   clip-path="url(#SVGID_2_)"
   fill="#6C6FAF"
   d="M250.318,32.314c0,0-0.176,16.87,0.037,28.8   c0.14,11.823,9.98,14.812,9.98,14.812l2.573-2.568c-10.121-2.685-9.427-12.173-9.427-12.173V29.078L250.318,32.314z"
   id="path65" />
	<path
   clip-path="url(#SVGID_2_)"
   fill="#6C6FAF"
   d="M275.329,61.492c0.415,3.793,3.858,4.835,7.925,3.898l-3.371,3.062   c0,0-4.73,0.38-7.271-4.245L275.329,61.492z"
   id="path67" />
	<path
   clip-path="url(#SVGID_2_)"
   fill="#6C6FAF"
   d="M314.039,25.43c4.137,0.07,7.688,1.075,10.402,2.219l2.432-2.399   c-4.942-2.4-9.913-3.159-14.393-3.056c-4.459,0.134-8.53,1.109-11.482,2.297c-2.02,0.939-13.287,5.734-16.771,19.164   c-2.112,8.276,0.42,15.233,3.205,19.683l2.401-2.223c-2.508-4.456-4.142-10.083-2.229-17.251   c2.573-9.604,9.114-13.848,14.678-16.139C306.529,25.919,310.525,25.289,314.039,25.43"
   id="path69" />
	<path
   clip-path="url(#SVGID_2_)"
   fill="#6C6FAF"
   d="M305.968,45.425c-0.658,10.297,0.451,20.662,7.411,20.453   c5.251-0.211,5.915-5.361,6.438-7.721c1.246-5.361,0.416-15.407,0.206-16.696c-0.243-1.114-0.493-4.312-3.097-6.542l2.29-2.222   c2.06,1.598,3.275,4.452,3.619,6.082c0.556,1.778,1.846,10.121,0.285,19.688c-1.224,8.143-5.289,10.746-9.741,10.676   c-5.392-0.065-11.098-2.886-10.787-20.48C302.842,48.312,305.968,45.425,305.968,45.425"
   id="path71" />
	<path
   clip-path="url(#SVGID_2_)"
   fill="#6C6FAF"
   d="M355.081,57.738c0,0,5.811,6.193,19.196,8.904   c1.253,0.386,2.365,0.554,3.34,0.589h0.939c3.269-0.136,3.482-1.772,3.686-2.259c0.699-0.831,2.61-2.777,2.61-2.777   s2.021,3.995-1.459,7.019c-3.342,2.854-11.725,0.351-15.479-0.624c-9.424-2.886-14.016-7.62-14.016-7.62h-3.65l-0.034,11.447   l-3.272,3.165V57.738H355.081z"
   id="path73" />
	<path
   clip-path="url(#SVGID_2_)"
   fill="#6C6FAF"
   d="M369.553,21.841c2.15,0,3.859,0.176,5.562,0.385   c5.215,0.803,11.197,1.672,19.438,5.221l-0.031-3.76h8.485l-2.78,3.442h-3.446l-0.067,4.901c0,0-8.695-5.246-22.363-6.813   c-1.945-0.238-4.034-0.382-5.77-0.347c-6.961,0.108-13.398,1.881-16.56,5.464c-3.932,4.516-5.011,13.839,3.758,18.566l-1.672,2.4   c-1.566-0.831-5.15-3.61-6.61-6.815c-1.146-2.711-2.888-8.311,0.694-14.261C352.126,23.687,361.997,21.774,369.553,21.841"
   id="path75" />
	<path
   clip-path="url(#SVGID_2_)"
   fill="#6C6FAF"
   d="M369.485,35.688l-2.298,2.299c1.426,1.734,7.964,4.238,14.887,6.116   c6.85,2.02,14.605,6.929,14.605,6.929l2.332-2.368c-0.628-0.562-7.829-5.287-14.82-7.307   C379.189,39.969,371.045,37.737,369.485,35.688"
   id="path77" />
	<path
   clip-path="url(#SVGID_2_)"
   fill="#233688"
   d="M422.277,25.249c0,0.837-1.217,0.736-2.088,0.736h-1.043v-1.637h2.021   C421.787,24.384,422.277,24.56,422.277,25.249 M423.181,25.113c0-1.29-1.08-1.669-2.188-1.669h-2.752v6.401h0.906v-2.921h1.184   l1.737,2.921h1.008l-1.636-2.921C422.344,26.853,423.181,26.405,423.181,25.113 M425.233,26.609c0,2.641-2.158,4.73-4.839,4.73   c-2.5,0-4.725-2.09-4.725-4.73c0-2.679,2.225-4.769,4.725-4.769C423.075,21.841,425.233,23.931,425.233,26.609 M426.207,26.609   c0-3.165-2.537-5.74-5.812-5.74c-3.129,0-5.596,2.575-5.596,5.74c0,3.169,2.467,5.673,5.596,5.673   C423.67,32.282,426.207,29.778,426.207,26.609"
   id="path79" />
</g>
</svg>