<?xml version="1.0" encoding="utf-8"?>
<!-- Generator: Adobe Illustrator 15.0.0, SVG Export Plug-In . SVG Version: 6.00 Build 0)  -->
<!DOCTYPE svg PUBLIC "-//W3C//DTD SVG 1.1//EN" "http://www.w3.org/Graphics/SVG/1.1/DTD/svg11.dtd" [
	<!ENTITY ns_extend "http://ns.adobe.com/Extensibility/1.0/">
	<!ENTITY ns_ai "http://ns.adobe.com/AdobeIllustrator/10.0/">
	<!ENTITY ns_graphs "http://ns.adobe.com/Graphs/1.0/">
	<!ENTITY ns_vars "http://ns.adobe.com/Variables/1.0/">
	<!ENTITY ns_imrep "http://ns.adobe.com/ImageReplacement/1.0/">
	<!ENTITY ns_sfw "http://ns.adobe.com/SaveForWeb/1.0/">
	<!ENTITY ns_custom "http://ns.adobe.com/GenericCustomNamespace/1.0/">
	<!ENTITY ns_adobe_xpath "http://ns.adobe.com/XPath/1.0/">
]>
<svg version="1.1" id="Layer_1" xmlns:x="&ns_extend;" xmlns:i="&ns_ai;" xmlns:graph="&ns_graphs;"
	 xmlns="http://www.w3.org/2000/svg" xmlns:xlink="http://www.w3.org/1999/xlink" x="0px" y="0px" width="105.644px"
	 height="30.671px" viewBox="0 0 105.644 30.671" enable-background="new 0 0 105.644 30.671" xml:space="preserve">
<metadata>
	<sfw  xmlns="&ns_sfw;">
		<slices></slices>
		<sliceSourceBounds  y="-437.511" x="245.307" width="105.643" height="30.671" bottomLeftOrigin="true"></sliceSourceBounds>
	</sfw>
</metadata>
<g>
	<path fill="#990F11" d="M85.945,11.008c0.676,0.008,1.215-0.256,1.477-0.735c0.223-0.402,0.199-0.871-0.066-1.17
		c-0.188-0.223-0.484-0.32-0.848-0.285c-1.107,0.097-1.76,0.843-1.67,1.476C84.896,10.733,85.309,10.994,85.945,11.008
		 M50.558,16.221c-2.473,1.371-3.758,3.545-3.009,6.012c1.039,3.386,5.527,5.58,10.022,4.882c3.211-0.495,5.881-1.862,7.495-3.843
		c1.487-1.822,1.954-4.027,1.327-6.051c-0.684-2.21-1.864-3.663-3.005-5.081c-1.078-1.336-2.109-2.604-2.748-4.465
		c-0.556-1.617,0.075-2.886,0.706-3.661c0.92-1.122,3.595-2.976,7.269-1.612c1.313,0.484,2.052,1.455,2.37,2.488
		c0.362,1.211-0.12,2.461-1.04,3.079c-0.454,0.301-0.655,0.668-0.545,0.892c0.114,0.222,0.5,0.249,1.03,0.019
		c1.791-0.774,2.796-2.495,2.283-4.171c-0.816-2.658-4.588-4.383-8.096-3.838c-5.205,0.803-7.841,4.144-6.561,8.333
		c0.566,1.869,1.658,3.281,2.714,4.649c1.035,1.324,2.092,2.695,2.632,4.465c1.335,4.375-2.898,7.16-6.169,7.664
		c-3.755,0.584-7.031-1.088-7.702-3.902c-0.464-1.926,0.032-4.094,1.826-5.309c0.562-0.365,1.184-0.68,1.043-0.977
		C52.265,15.51,51.37,15.786,50.558,16.221 M105.541,21.393c-0.207-0.131-0.785,0.494-1.074,0.762
		c-0.812,0.74-1.566,1.311-3.174,1.311c-0.811,0-1.427-0.226-1.832-0.686c-0.588-0.656-0.592-1.664-0.338-2.377
		c0.039-0.125,0.127-0.369,0.226-0.51c0.228-0.059,0.421-0.108,0.575-0.15c4.396-1.245,5.867-3.957,5.482-5.406
		c-0.219-0.797-0.949-1.258-2.014-1.258c-2.787,0-5.102,2.421-6.446,5.29c-1.632,3.475-3.478,5.678-5.983,5.136
		c-0.81-0.179-1.33-0.921-1.483-1.758c-0.467-2.53,2.362-7.975,4.472-7.724c0.789,0.092,0.953,0.561,0.979,0.763
		c-0.2,0.049-0.552,0.192-0.685,0.261c-0.521,0.312-0.693,0.786-0.5,1.181c0.383,0.799,1.812,0.717,2.44-0.222
		c0.458-0.68,0.351-1.514-0.183-2.126c-0.358-0.415-1.135-0.881-1.883-0.881c-3.139,0-5.365,2.906-6.785,5.891
		c-1.193,2.504-3.066,5.071-4.664,4.883c-1.308-0.143-0.366-1.934,0.11-3.058c0,0,2.468-5.555,3.437-7.643h-2.346
		c-0.391,0.837-2.44,5.121-2.847,5.961c-0.858,1.743-1.834,3.284-3.504,4.088c-0.533,0.256-0.752,0.481-0.593,0.69
		c0.139,0.176,1.55,0.025,2.808-1.115c0,0-0.141,2.156,2.334,2.248c1.017,0.031,2.427-0.026,4.905-3.358
		c0.128,3.96,5.824,4.885,9.475,0.51c0.301,1.274,1.483,2.913,3.84,2.822c2.621-0.106,4.232-1.356,5.037-2.505
		C105.672,21.914,105.721,21.505,105.541,21.393 M100.185,17.477c0.392-0.855,1.95-3.333,3.229-3.343
		c0.393-0.009,0.646,0.155,0.742,0.445c0.438,1.396-1.648,3.387-4.477,4.03C99.867,18.108,100.106,17.645,100.185,17.477
		 M76.692,13.13c-0.955-0.219-2.18,0.205-2.46,0.326c-0.234,0.108-0.66,0.341-1.021,0.585c0.097-0.295,0.723-1.563,0.723-1.563
		h-2.442c0,0-1.716,4.32-3.346,8.057l-3.779,8.438l-0.764,1.698h2.386l1.27-2.79l1.66-3.689c0.082-0.174,0.231-0.562,0.279-0.688
		c0.463,0.682,1.312,1.051,2.088,1.143c3.396,0.412,7.002-3.213,7.78-6.888C79.59,15.285,78.725,13.6,76.692,13.13 M77.074,16.889
		c-0.711,3.01-3.527,7.211-5.664,6.721c-0.345-0.077-0.598-0.311-0.736-0.68c-0.657-1.673,0.973-5.84,3-7.68
		c0.916-0.833,1.851-1.166,2.716-0.96C77.184,14.475,77.424,15.401,77.074,16.889 M46.69,4.749H44.43c0,0-4.293,9.641-4.377,9.881
		c-0.105-0.192-0.27-0.45-0.412-0.63c-0.424-0.516-1.119-0.829-2.255-0.705c-2.762,0.297-4.723,2.994-6.604,5.653
		c-1.688,2.388-3.249,5.115-5.287,4.723c-0.242-0.041-0.46-0.162-0.595-0.336c-0.776-0.99,0.717-4.461,0.737-4.491
		c6.317-5.353,10.273-11.92,8.891-13.834c-0.293-0.406-0.763-0.741-1.434-0.751c-5.125-0.054-8.491,10.408-9.691,13.99
		c-0.255,0.753-0.4,1.164-0.459,1.238c-1.328,1.297-3.493,2.908-3.778,3.072c-0.314,0.176-0.752,0.57-0.377,0.801
		c0.247,0.138,0.842-0.16,1.105-0.281c0.29-0.128,1.647-0.807,2.71-1.661c-0.043,1.864,0.502,3.433,2.631,3.591
		c1.744,0.125,3.045-0.936,3.772-1.558c0,0,0.895-0.824,1.034-0.978c0.144,2.017,1.571,2.758,2.981,2.514
		c1.153-0.207,2.104-0.872,3.089-1.795c0,0,0.39-0.426,0.533-0.601c0.172,0.757,0.731,2.228,2.693,2.29
		c2.676,0.071,4.468-2.725,4.963-4.053c0.104-0.27,0.084-0.51-0.049-0.598c-0.139-0.09-0.408,0.022-0.625,0.397
		c-0.754,1.335-1.984,2.462-2.959,2.828c-0.354,0.128-1.026,0.354-1.268-0.175c-0.278-0.596,0.032-1.857,1.124-4.438L46.69,4.749z
		 M27.484,14.001l0.364-0.841c1.172-2.681,3.372-7.311,5.279-7.442c0.256-0.02,0.369,0.078,0.431,0.157
		c0.984,1.282-4.35,8.293-6.98,10.477C26.792,15.75,27.405,14.182,27.484,14.001 M33.308,23.59c-0.332-0.02-0.577-0.158-0.737-0.41
		c-0.707-1.121,0.616-4.289,2.242-6.435c0.698-0.92,2.061-2.444,3.333-2.31c0.314,0.024,0.696,0.245,0.675,1.075
		C38.752,17.954,35.411,23.715,33.308,23.59"/>
	<path fill="#990F11" d="M19.796,18.909c-4.468,6.896-11.78,10.09-16.332,7.138c-4.556-2.952-4.628-10.927-0.159-17.821
		c4.46-6.881,11.775-10.076,16.328-7.126C24.186,4.041,24.257,12.021,19.796,18.909 M18.814,2.066
		C15.386-0.012,9.471,3.467,5.612,9.843C1.753,16.215,1.4,23.069,4.831,25.151c3.433,2.076,9.341-1.41,13.205-7.787
		C21.899,10.991,22.247,4.139,18.814,2.066"/>
</g>
</svg>
