<?xml version="1.0" encoding="UTF-8" standalone="no"?>
<svg
   xmlns:dc="http://purl.org/dc/elements/1.1/"
   xmlns:cc="http://creativecommons.org/ns#"
   xmlns:rdf="http://www.w3.org/1999/02/22-rdf-syntax-ns#"
   xmlns:svg="http://www.w3.org/2000/svg"
   xmlns="http://www.w3.org/2000/svg"
   xmlns:sodipodi="http://sodipodi.sourceforge.net/DTD/sodipodi-0.dtd"
   xmlns:inkscape="http://www.inkscape.org/namespaces/inkscape"
   version="1.1"
   id="Layer_1"
   x="0px"
   y="0px"
   width="897"
   height="300"
   viewBox="0 0 896.99997 300"
   enable-background="new 0 0 595.632 849.38"
   xml:space="preserve">
<path
   clip-rule="evenodd"
   d="m 150.00491,8.0926877 h 596.99023 c 78.03692,0 141.90245,63.8760163 141.90245,141.9129323 0,78.03691 -63.86553,141.90244 -141.90245,141.90244 H 150.00491 C 71.967998,291.90806 8.1024635,228.04253 8.1024635,150.00562 8.1024635,71.968704 71.967998,8.0926877 150.00491,8.0926877"
   id="path73"
   style="fill:#0095da;fill-rule:evenodd" /><path
   d="m 150.00491,7.4731652e-4 h 596.99023 c 41.2668,0 78.77064,16.86519668348 105.93944,44.05495468348 27.18975,27.189758 44.06543,64.683118 44.06543,105.939428 v 0.0105 c 0,41.26679 -16.87568,78.76015 -44.06543,105.93943 C 825.7553,283.1348 788.26194,300 746.99514,300 H 150.00491 C 108.73811,300 71.244754,283.1348 44.054996,255.94505 16.87572,228.75529 4.1362479e-5,191.26193 4.1362479e-5,150.00562 v -0.0105 C 4.1362479e-5,108.73882 16.87572,71.234979 44.054996,44.055702 71.244754,16.855462 108.73811,7.4731652e-4 150.00491,7.4731652e-4 M 746.99514,16.19511 H 150.00491 c -36.79108,0 -70.238462,15.062329 -94.493319,39.306705 C 31.256733,79.74619 16.204886,113.20406 16.194404,149.99513 v 0.0105 c 0.01048,36.78059 15.062329,70.22797 39.317187,94.49331 24.254857,24.24438 57.702239,39.30671 94.493319,39.30671 h 596.99023 c 36.79108,0 70.23847,-15.06233 94.49332,-39.30671 24.25486,-24.25485 39.31719,-57.71272 39.31719,-94.49331 v -0.0105 C 880.79517,113.20406 865.74332,79.756672 841.48846,55.501815 817.23361,31.246957 783.78622,16.19511 746.99514,16.19511"
   id="path75"
   style="fill:#ffffff" /><path
   clip-rule="evenodd"
   d="m 669.28317,54.128701 h 84.61947 c 10.31408,0 18.72048,0.47168 25.39738,1.362632 6.62449,0.953843 12.98693,3.249354 19.13974,6.970389 6.11088,3.710553 10.94299,8.636993 14.40198,14.684985 3.46947,6.121364 5.178,12.798263 5.178,20.05166 0,9.286863 -2.73575,18.007713 -8.16531,26.246393 -5.4715,8.19676 -14.18186,14.1609 -26.11014,17.81904 v 0.51361 c 19.61143,5.94318 29.39094,18.80433 29.39094,38.68828 0,14.51728 -6.01655,27.69289 -18.15446,39.4849 -12.09598,11.8549 -29.36997,17.74566 -51.84292,17.74566 H 630.09176 m 80.77266,-111.80923 h 19.28649 c 8.32254,0 14.77932,-0.60794 19.30746,-1.76094 4.58054,-1.19492 8.24916,-3.63718 11.02684,-7.34773 2.83008,-3.71056 4.18223,-7.43159 4.18223,-11.18407 0,-4.50717 -1.48841,-8.018568 -4.55958,-10.534197 -3.03972,-2.505148 -9.01434,-3.741999 -17.9553,-3.741999 h -24.15004 l -7.1381,34.568936 z m -15.42919,72.36627 h 30.31333 c 21.36188,0 32.04283,-7.10666 32.04283,-21.28852 0,-4.99981 -1.53034,-8.93048 -4.61199,-11.83393 -3.07116,-2.87201 -9.40216,-4.3185 -18.94059,-4.3185 h -30.76405 l -8.03953,37.44095 z"
   id="path77"
   style="fill:#ffffff;fill-rule:evenodd" /><path
   clip-rule="evenodd"
   d="m 835.00024,127.94145 c 3.63718,0 7.15906,0.93288 10.62853,2.77768 3.44851,1.86575 6.14233,4.52813 8.07098,7.97664 1.90768,3.47995 2.87201,7.09617 2.87201,10.83816 0,3.73152 -0.94336,7.30581 -2.84057,10.74384 -1.90768,3.43802 -4.55958,6.08992 -7.98712,7.98712 -3.42754,1.90769 -7.00183,2.85105 -10.74383,2.85105 -3.742,0 -7.31629,-0.95385 -10.73335,-2.85105 -3.42755,-1.8972 -6.08992,-4.5491 -8.00809,-7.98712 -1.90769,-3.43803 -2.86153,-7.01232 -2.86153,-10.74384 0,-3.74199 0.97481,-7.35821 2.91394,-10.83816 1.92865,-3.44851 4.62247,-6.11089 8.09194,-7.97664 3.41706,-1.8448 6.98087,-2.77768 10.59709,-2.77768 m 0,3.56381 c -3.02924,0 -5.97462,0.78613 -8.85711,2.33744 -2.87201,1.5513 -5.10463,3.77344 -6.72931,6.65593 -1.62468,2.8825 -2.44226,5.90125 -2.44226,9.02482 0,3.11309 0.79662,6.08992 2.40033,8.95145 1.58275,2.84056 3.81537,5.07319 6.6769,6.68738 2.86153,1.58275 5.83836,2.37937 8.95145,2.37937 3.11309,0 6.1004,-0.78614 8.95144,-2.37937 2.87201,-1.60371 5.08367,-3.83633 6.6769,-6.68738 1.58275,-2.85105 2.36889,-5.83836 2.36889,-8.95145 0,-3.12357 -0.79662,-6.14232 -2.4213,-9.02482 -1.60371,-2.87201 -3.85729,-5.09415 -6.7293,-6.65593 -2.8825,-1.54082 -5.82788,-2.33744 -8.84663,-2.33744 m -9.46506,29.94647 h 3.742 v -9.85288 h 2.21166 c 1.31022,0 2.31647,0.27252 2.99779,0.80709 0.99577,0.71277 2.28503,2.54708 3.92019,5.38764 l 2.05443,3.66863 h 4.59102 l -2.84056,-4.53861 c -1.36264,-2.15925 -2.49467,-3.68959 -3.43803,-4.59103 -0.47168,-0.49264 -1.153,-0.90143 -1.97058,-1.23685 2.00203,-0.16771 3.61622,-0.84902 4.83211,-2.11732 1.2054,-1.25781 1.81335,-2.74623 1.81335,-4.4338 0,-1.19492 -0.37735,-2.33743 -1.09011,-3.3961 -0.72324,-1.0901 -1.69805,-1.82383 -2.91393,-2.2431 -1.21589,-0.44023 -3.20743,-0.66035 -5.94318,-0.66035 h -7.96616 v 23.20668 z m 3.742,-13.04983 h 4.5491 c 2.18021,0 3.65814,-0.33542 4.44427,-0.9748 0.8071,-0.64988 1.19493,-1.51986 1.19493,-2.59949 0,-0.66035 -0.19916,-1.28926 -0.58698,-1.83431 -0.36686,-0.54505 -0.89095,-0.95384 -1.57227,-1.21589 -0.67083,-0.26204 -1.92865,-0.37734 -3.76296,-0.37734 h -4.26609 v 7.00183 z"
   id="path79"
   style="fill:#ffffff;fill-rule:evenodd" /><path
   clip-rule="evenodd"
   d="m 189.63655,51.005128 c 27.95493,0 48.50971,7.483996 61.63291,22.472953 13.08127,14.967993 19.62191,33.394979 19.62191,55.270469 0,8.41688 -1.19492,18.08108 -3.58477,28.85636 -2.44226,10.79624 -7.09617,22.00127 -14.06656,33.59413 -6.91798,11.52997 -15.90087,21.36189 -26.96964,29.40142 -11.06877,8.08146 -21.66586,13.4691 -31.87512,16.15243 -10.17781,2.69382 -20.99502,4.06694 -32.40969,4.06694 -26.23591,0 -46.66492,-6.62449 -61.38135,-19.90492 -14.695464,-13.25946 -22.043198,-31.8856 -22.043198,-55.826 0,-12.52574 1.834313,-24.7475 5.461012,-36.63385 3.63718,-11.87587 9.066747,-23.12283 16.288696,-33.667504 7.22195,-10.55516 16.11051,-19.422753 26.67615,-26.550369 10.55516,-7.138097 20.94262,-11.792011 31.16236,-13.982705 10.25119,-2.190694 20.72249,-3.249354 31.48729,-3.249354 M 165.49699,199.00797 c 10.94299,0 20.20889,-4.15078 27.86059,-12.39995 7.60978,-8.2911 13.21754,-18.67855 16.71846,-31.22525 3.50091,-12.56766 5.26185,-21.56104 5.26185,-26.88578 0,-11.76057 -2.99779,-20.63864 -8.98289,-26.67615 -5.94317,-5.985105 -13.59488,-9.014342 -22.82933,-9.014342 -10.38745,0 -19.26553,3.794408 -26.74953,11.320332 -7.48399,7.57833 -13.08127,17.67229 -16.84423,30.21899 -3.75248,12.52574 -5.6392,23.26957 -5.6392,32.10572 0,9.37072 2.77767,17.10628 8.28061,23.30102 5.49246,6.13184 13.13368,9.25541 22.92367,9.25541 m 220.67308,-93.17261 c -6.23666,-2.65189 -12.09598,-4.02501 -17.51506,-4.02501 -7.19051,0 -13.77307,2.01251 -19.78962,6.03751 -5.9851,4.00405 -12.95549,11.86539 -20.91117,23.66788 l -0.5136,-0.50312 5.90124,-26.17303 H 285.64973 L 257.3489,237.68577 h 51.07775 l 10.50275,-49.70464 c 3.3437,-15.43967 8.09195,-26.67615 14.1609,-33.68846 6.11088,-7.00184 14.01415,-10.51324 23.80414,-10.51324 3.07116,0 6.57208,0.42976 10.50275,1.37312 l 18.77288,-39.31719 z m -12.90308,35.42844 c 3.07117,-12.60959 10.08348,-22.31572 21.0684,-29.13937 10.98491,-6.87605 27.99685,-10.30359 51.03582,-10.30359 26.11014,0 43.76147,3.2808 52.91207,9.83191 9.1506,6.58257 13.71018,16.11051 13.71018,28.63625 0,8.33302 -2.29551,22.06416 -6.87605,41.20391 -4.26609,18.09156 -6.40438,30.70115 -6.40438,37.77636 0,6.03751 1.10059,12.19032 3.23888,18.42698 h -49.70464 c -1.153,-5.26185 -1.75046,-10.29311 -1.75046,-15.17763 -13.33284,12.23225 -28.24842,18.30121 -44.70483,18.30121 -16.76038,0 -28.80395,-3.93067 -36.16217,-11.76057 -7.34773,-7.86134 -11.02684,-16.95953 -11.02684,-27.29458 0,-11.76056 3.24936,-20.74345 9.83192,-26.92771 6.54064,-6.15281 14.62209,-10.34552 24.23389,-12.56766 9.58036,-2.22214 22.70356,-4.15079 39.32767,-5.81739 14.7374,-1.57227 24.61124,-3.15502 29.5272,-4.65392 0.98529,-3.93067 1.50938,-6.91798 1.50938,-9.00385 0,-3.3437 -1.67709,-5.99559 -5.05223,-8.00809 -3.42754,-1.99154 -7.91375,-3.02924 -13.46909,-3.02924 -5.85932,0 -10.59709,0.95385 -14.22379,2.8196 -3.63718,1.88673 -6.84461,5.85932 -9.58035,11.84442 l -47.44058,-5.15704 z m 82.61746,36.93783 c -23.45824,3.93067 -37.23131,7.40014 -41.32969,10.42937 -4.05646,2.98731 -6.11089,6.54064 -6.11089,10.63902 0,4.23464 1.44649,7.60978 4.36043,10.04155 2.94538,2.49467 6.69786,3.73152 11.2784,3.73152 6.41486,0 12.7773,-2.60997 19.1083,-7.81942 6.28907,-5.21993 10.51323,-14.25523 12.69345,-27.02204 M 595.95258,54.128701 H 544.87483 L 505.68342,237.69625 h 51.20354 L 595.95258,54.128701 z m 63.40434,71.863139 -5.85932,31.04706 h -50.73186 l 5.81739,-31.04706 h 50.77379 z"
   id="path81"
   style="fill:#ffffff;fill-rule:evenodd" />
</svg>