<?xml version="1.0" encoding="UTF-8" standalone="no"?>
<svg
   xmlns:dc="http://purl.org/dc/elements/1.1/"
   xmlns:cc="http://creativecommons.org/ns#"
   xmlns:rdf="http://www.w3.org/1999/02/22-rdf-syntax-ns#"
   xmlns:svg="http://www.w3.org/2000/svg"
   xmlns="http://www.w3.org/2000/svg"
   xmlns:sodipodi="http://sodipodi.sourceforge.net/DTD/sodipodi-0.dtd"
   xmlns:inkscape="http://www.inkscape.org/namespaces/inkscape"
   version="1.1"
   x="0px"
   y="0px"
   width="610"
   height="380"
   viewBox="0 0 609.99999 379.99998"
   enable-background="new 0 0 841.89 595.275"
   xml:space="preserve"
   id="svg2">
<path
   d="m 327.98895,21.096004 c 5.63843,8.296959 12.00901,19.729762 9.91337,29.755333 -3.32221,3.244239 -7.95466,4.162742 -11.91392,6.168997 -3.28798,-12.332289 -18.83979,-35.713246 -17.35078,-35.304388 l -0.17115,-5.254297 c 7.52678,-3.411585 13.19945,0 19.52248,4.634355 z"
   id="path14-7-5"
   style="fill:#f99d1c" /><path
   d="m 256.66515,85.72595 c 2.49118,4.482221 -2.83348,7.545801 -6.58927,9.183134 l -4.87396,1.068735 -30.0577,-19.744975 -0.0475,-2.939972 c 2.80685,1.778055 4.61153,-3.683523 7.75688,-3.3146 12.21819,-0.616139 25.99385,5.792468 33.81159,15.747678 z"
   id="path16-4-2"
   style="fill:#f99d1c" /><path
   d="m 428.94828,43.503308 c -3.7672,3.105417 -7.78922,-1.506118 -10.09593,-4.849243 L 416.7453,34.010202 430.33079,0.64360944 433.26506,8.470758e-4 C 431.86543,3.0282958 437.59705,3.8745362 437.85757,7.0008715 440.81846,18.846335 437.24714,33.804823 428.94828,43.503308 z"
   id="path18-0-7"
   style="fill:#f99d1c" /><path
   style="fill:#ffd520"
   id="path20-9-6"
   d="m 401.07369,51.629118 c -8.04213,-5.330364 -17.78056,-6.941073 -26.48257,-1.899763 -13.35348,7.781609 -22.22665,24.512447 -25.73331,39.524181 -0.4583,2.004354 -3.4287,12.860954 -1.44907,14.591464 -13.0245,-11.252143 -24.47061,-24.531461 -42.88062,-22.996818 -22.83518,2.004354 -39.69913,22.692558 -34.20332,46.874108 1.50421,6.7376 3.63408,12.21819 7.19779,18.01637 9.13179,14.79494 25.17803,33.98653 40.89719,41.63502 34.22994,16.50644 44.07105,12.63085 48.3574,8.16575 0.1084,-0.15784 -50.69645,-13.18994 -70.09152,-72.95353 -16.37333,-50.293304 55.8918,21.35378 54.4085,21.52683 4.3377,-0.4564 8.88458,-0.55148 11.6515,-4.60583 0,0 -0.44309,-15.06308 -0.1122,-23.08049 0.47732,-10.57515 4.4594,-48.528559 22.53662,-39.276964 10.65502,5.412135 12.71832,18.440434 12.56049,29.686874 -0.21489,25.54505 -6.75852,50.69075 -16.89438,73.75032 -2.92476,6.71858 -6.19182,13.18994 -9.20786,19.90092 -0.0514,0.14833 -2.07662,4.40235 -1.07444,4.54307 11.48415,-0.6922 23.78981,-20.64066 28.86916,-30.61298 8.73814,-17.05793 15.48334,-36.85044 18.41951,-55.99639 2.2782,-15.34073 4.27304,-33.855325 -1.87504,-48.600827 -2.92476,-7.325208 -8.31407,-14.034278 -14.89383,-18.191315 z" /><path
   style="fill:#ffd520"
   id="path22-4-1"
   d="m 564.03677,174.73142 c -2.81066,-2.14888 -6.24506,-3.70824 -8.82942,-4.85685 -6.30212,-3.0883 -13.09866,-4.71612 -19.83816,-6.49608 -10.72729,-2.76692 -21.56867,-4.9101 -32.60783,-6.30592 -6.03398,-0.76447 -12.16875,-1.38631 -18.31683,-1.56507 -18.78083,-0.90709 -46.71437,-0.82912 -61.88204,12.81722 -7.7759,7.01714 -10.60938,13.64824 -5.81909,22.45484 14.26628,-24.77487 73.59059,-14.73028 82.79464,-13.96962 13.75664,1.14861 27.03405,3.67021 40.29435,7.70935 3.66451,1.07634 7.23964,2.19642 11.04677,2.95898 4.13041,0.88808 8.74765,1.34638 12.76206,-0.3442 2.70227,-1.1448 5.821,-3.5447 4.84735,-6.78894 -0.69601,-2.1736 -2.42272,-4.07336 -4.4518,-5.61371 z" /><path
   style="fill:#ffd520"
   id="path24-8-4"
   d="m 111.49403,170.04572 c 5.17443,-3.48765 11.3149,-5.19915 14.68085,-6.18231 24.88137,-6.72618 50.74209,-11.2027 76.53816,-11.64959 21.63333,-0.39555 53.32456,1.85222 70.39579,16.89438 8.83323,7.70174 11.79412,15.28367 5.98074,24.67029 -2.32764,-4.00301 -7.21111,-7.87669 -10.98401,-10.25948 -12.01852,-7.63518 -28.29296,-8.56129 -42.1732,-8.95303 -13.61211,-0.23771 -27.21662,0.77588 -40.8021,1.85222 -14.91475,1.23608 -29.55186,3.5428 -44.25552,6.41241 -13.74713,2.58626 -24.21769,6.32303 -30.55594,3.25755 -9.11277,-4.5678 -6.23935,-10.83188 1.17523,-16.04244 z" /><path
   style="fill:#00a9a1"
   id="path30-8-2"
   d="m 82.506972,175.70698 c 10.588464,19.00142 4.845439,41.74722 -8.329288,57.58047 -19.735467,23.85828 -40.891477,28.13702 -40.891477,29.11828 0,0 -2.658526,74.37407 -7.216814,72.92881 0,0 -16.1527321,-1.10677 -22.9987217,-7.93945 C -1.5674867,322.64473 0.73923144,226.01929 0.13069903,196.34003 -0.47593173,170.77026 1.2260574,168.56433 1.2260574,168.56433 13.794153,148.14236 43.511454,145.49905 63.075771,156.7569 c 7.878593,4.4632 14.981307,10.94407 19.431201,18.95008 z m -25.189439,2.34094 c -8.02312,-8.71532 -21.629524,-4.93481 -24.972649,6.08723 l -0.644664,49.97953 c 0.05705,0.77778 5.895158,-1.22467 13.340171,-8.32549 9.761241,-9.16031 20.385836,-29.44916 15.074489,-43.36364 -0.665582,-1.53464 -1.574577,-3.01604 -2.797347,-4.37763 z" /><path
   style="fill:#00a9a1"
   id="path32-2-3"
   d="m 433.82224,281.08958 c -6.19372,-1.22277 -5.58899,5.10787 -15.65639,13.89736 -13.73762,12.0071 -24.12831,3.57132 -23.82025,-14.97941 -1.11437,-1.86173 44.9116,-19.50917 46.47477,-24.90799 5.47298,-19.49966 -0.60093,-47.47124 -24.3394,-52.61143 -4.89678,-1.12008 -10.27659,-1.61261 -16.3467,-0.078 -30.50079,7.27767 -41.51712,86.62078 -20.48282,112.68499 21.31004,26.01286 59.42889,1.16001 67.45011,-28.14463 -0.002,0 -5.24859,-4.44609 -13.27932,-5.86092 z m -35.16556,-50.88092 c 3.52568,-8.67919 12.67268,-9.67186 18.30161,-3.12443 2.49498,2.95138 4.33389,6.78894 5.10787,10.58656 1.12198,6.78514 -0.30617,9.40563 -0.30617,9.40563 -2.30672,2.70607 -25.56597,12.10219 -26.46545,11.57543 -1.25891,-0.69601 -0.38604,-19.09271 3.36214,-28.44319 z" /><path
   d="m 278.39926,254.39592 c -0.13882,-8.69631 -0.76066,-17.96882 -3.35453,-26.55103 -1.99485,-6.14808 -4.61154,-12.47301 -8.98537,-17.41544 -3.59414,-4.17415 -9.8373,-7.50206 -15.28747,-8.01741 -11.90442,-1.22657 -25.72191,20.90309 -25.72191,20.90309 -1.31595,-0.54007 -4.89868,-21.52303 -17.28802,-21.52303 -9.63003,0 -21.44316,22.27419 -21.44316,22.27419 0,-0.0685 -0.67129,-19.4293 -1.23798,-24.05605 -0.55909,-4.46511 -21.00388,-4.62295 -22.38069,1.96822 -0.19016,19.02044 -6.33063,102.34755 3.67592,115.59454 2.00055,2.71177 20.6863,14.91665 20.48662,7.01143 -0.14072,-5.78296 0.46211,-57.00617 3.85087,-76.33849 1.12008,-6.61779 3.98019,-20.23941 14.30812,-18.03538 10.07311,2.12606 4.69711,58.55223 7.60856,77.57077 0.51725,3.29368 1.28172,9.53114 3.13014,12.42167 1.72671,2.65092 17.29943,8.61644 17.29943,4.48222 0,-5.65935 1.3635,-62.81005 1.80468,-69.75683 0.35181,-8.00981 -0.38223,-18.86831 6.64442,-24.52766 6.08912,-4.9082 11.67051,1.93589 12.43117,8.17905 1.89406,17.07124 0.27574,34.30602 1.06303,51.40198 0.40886,8.31217 1.07634,27.33261 3.78431,29.99114 2.19642,2.38088 19.60996,10.24236 19.60996,4.18556 0.002,-23.40758 0.47542,-42.2911 0.002,-69.76254 z"
   id="path34-4-2"
   style="fill:#00a9a1" /><path
   d="m 358.75407,220.5368 c -14.65042,-26.00335 -49.66766,-21.33667 -68.99617,-1.77235 -2.74981,2.77072 -4.44229,147.16025 2.35046,156.5868 1.9435,2.68705 20.44288,8.60122 20.3497,0.65607 0,-2.25917 0.19397,-33.13649 0.51535,-58.50849 4.53547,2.07091 31.61706,-5.63273 42.9719,-29.99874 9.45507,-20.74335 13.33637,-48.39164 2.80876,-66.96329 z m -33.3742,66.48787 c -6.33064,5.48059 -11.48986,5.62702 -11.48986,5.62702 0,0 0.91851,-64.15643 0.96985,-64.19066 0.19777,-1.03831 4.24451,-4.39665 10.36027,-3.66451 3.7824,0.35371 7.2035,2.53302 9.77455,5.60231 11.55261,14.6371 2.96469,45.92518 -9.61481,56.62584 z"
   id="path36-5-2"
   style="fill:#00a9a1" /><path
   d="m 145.58706,215.37188 c -4.71612,-9.7156 -12.49773,-16.20408 -24.9137,-16.74225 -12.32088,-0.53056 -26.724077,3.16057 -32.672482,15.27226 -0.492531,1.07444 -0.773977,2.07091 -0.954635,2.92096 -0.502039,2.47406 -0.29666,4.87206 0.98316,7.37085 0,0 5.72591,9.04241 8.888377,6.59497 3.99159,-3.05978 7.56672,-6.59497 11.59444,-9.55206 4.47842,-3.3127 15.64309,-10.61699 19.95226,-2.80876 2.03478,3.49716 1.85602,9.81639 1.41294,13.68057 -0.038,1.23038 -0.19778,2.56344 -0.43739,3.70444 -30.114744,2.47217 -61.349572,24.59422 -63.755176,55.74347 -0.981259,12.76397 2.053796,28.54208 15.48715,33.30765 14.311921,4.97285 27.237526,-6.45045 35.530686,-16.86586 4.86446,-5.97503 9.147,-12.42737 13.54365,-18.7447 0,0 -0.71693,28.93191 -0.40315,32.88547 1.06683,8.60883 14.0609,0.20918 16.1185,-0.78348 4.36242,-1.94731 4.63435,-22.8561 4.71613,-24.97265 0.40505,-18.99002 5.8305,-58.33734 -5.09076,-81.01088 z m -35.47744,72.8109 c -1.23418,1.7134 -5.39692,6.23556 -9.40943,8.94543 -4.284449,2.84679 -8.28555,3.38116 -8.386338,-3.85277 0,-5.22577 2.12606,-10.94788 4.101889,-15.73437 3.934539,-9.58438 14.871009,-22.69636 26.568149,-21.35758 0,-0.004 -0.31188,15.10301 -12.87427,31.99929 z"
   id="path38-5-1"
   style="fill:#00a9a1" /><path
   d="m 511.34737,208.82065 c -0.66558,-1.46048 -1.63733,-2.87152 -3.06358,-3.95546 -3.99159,-2.91145 -9.40182,-2.17361 -13.80227,-0.59522 -8.17145,2.76692 -14.72459,9.08995 -19.45212,16.26683 -0.97175,1.39011 -1.74573,2.862 -2.43413,4.31677 0.41456,-6.62159 0.87286,-17.9536 -1.00408,-20.51324 -2.77643,-3.84897 -22.03648,-1.00408 -22.50429,2.07852 -0.14072,1.39582 5.58519,101.51271 5.97693,104.44127 0.94703,6.71098 -0.51155,12.41597 6.69956,14.73219 2.96469,0.83293 13.56457,5.62893 13.92398,-1.70008 0.24151,-4.00491 -0.42407,-33.07184 -0.42407,-33.07184 -0.70171,-16.75556 0.86336,-34.25847 9.51973,-49.00778 5.23908,-9.28202 14.61809,-19.03755 25.59639,-20.81371 0.96795,-0.0685 1.38632,-2.53301 1.54416,-3.40968 0.50204,-2.82397 0.50204,-6.07962 -0.57621,-8.76857 z"
   id="path40-1-6"
   style="fill:#00a9a1" /><path
   d="m 570.06695,275.76682 c -4.72564,-7.63518 -11.33392,-13.28502 -17.20816,-19.83055 -7.16737,-8.13151 -17.32796,-19.56812 -11.42139,-30.44564 3.15296,-5.7221 9.1451,-7.90331 15.12964,-4.79029 8.15623,4.15133 6.55503,13.17092 2.76311,19.03756 -0.3499,0.53246 4.01251,0.78158 4.21029,0.78158 1.92448,0 3.71585,-0.24722 5.40262,-1.41103 10.30702,-6.67865 7.24915,-23.34673 -1.04591,-31.36795 -3.52569,-3.47053 -8.41296,-6.10624 -13.01499,-7.10461 -21.29673,-4.99377 -47.03765,11.64769 -39.17617,35.3196 2.84869,8.50234 7.6599,16.13371 13.62922,22.92456 6.33064,6.94487 17.54665,15.27416 18.82837,25.21416 1.20185,9.17933 -7.99269,15.33691 -15.85417,16.35811 -9.51783,0.91089 -18.18751,-5.80198 -21.3766,-14.58196 -1.63924,-4.64006 -3.423,-5.16872 -6.27739,-1.17713 -5.72972,7.81203 -2.55394,20.37252 3.92883,28.14653 0.57431,0.61233 1.06684,1.18854 1.64114,1.73431 11.9976,12.17065 34.87271,17.26141 50.01566,8.07066 16.88297,-10.1758 20.228,-30.30301 9.8259,-46.87791 z"
   id="path42-7-8"
   style="fill:#00a9a1" /><path
   d="m 593.06757,316.548 c -0.0456,-8.41296 5.04511,-9.81068 6.285,-9.81068 0.23771,0 0.67699,0.35371 1.31595,0.43358 2.66043,0.3423 7.51538,1.27601 7.51538,7.60285 0,7.78541 -3.34693,10.65882 -7.74738,10.65882 -5.52624,0.002 -7.36895,-6.49798 -7.36895,-8.88457 z m 2.31433,-5.61751 c 0,0.43167 0.13691,0.99076 0.20537,1.45477 0,0.25862 0.36512,2.64331 0.43549,3.50476 0.0342,0.88047 0.43548,4.97666 0.43548,5.99215 0,0.99267 1.08014,1.2646 1.62782,1.2646 0.52866,0 1.06493,-0.39935 1.06493,-0.83293 0,-0.43357 -0.5724,-2.78783 -0.70551,-4.6914 -0.13312,-1.4814 -0.40506,-5.84952 -0.40506,-5.84952 0.10459,-0.0361 3.00653,-0.13121 3.84326,-0.13121 0.16355,0 0.47162,0.13121 0.47162,0.4602 0,0.348 -2.08993,3.17007 -3.36595,3.97067 -0.47732,0.47352 -0.54578,0.97366 -0.51345,1.34258 0.0361,0.3442 1.47759,1.41484 3.73297,1.85412 2.49878,0.48112 4.08287,1.19044 4.62294,1.19044 0.46591,0 0.76447,-0.82152 0.76447,-1.22277 0,-0.2358 -0.0589,-1.04591 -0.86526,-1.11437 -0.81391,-0.0533 -2.2934,-0.3442 -3.50476,-0.55909 -0.70552,-0.116 -1.75334,-0.51535 -2.15649,-0.83103 1.17903,-0.98886 2.68895,-2.89813 3.26326,-3.66831 0.30426,-0.42217 0.5762,-1.09155 0.5762,-1.66586 0,-0.55528 -0.85004,-0.93561 -1.38441,-1.0288 -0.63896,-0.13121 -1.85602,-0.21108 -2.72128,-0.21108 -0.87857,0 -2.08993,0 -2.63,0 -0.60853,-0.0685 -1.11628,-0.0361 -1.58599,-0.0361 -0.46401,0 -0.76827,0.116 -1.20565,0.80821 z m -4.41377,5.70689 c 0,3.04837 2.12606,10.61318 9.06143,10.61318 6.9715,0 9.97042,-4.18556 9.97042,-12.94462 0,-6.91635 -6.10053,-8.62024 -9.2649,-9.08425 -0.80631,-0.12551 -1.4795,-0.34991 -1.74383,-0.34991 -1.31785,0 -8.02312,2.36758 -8.02312,11.7656 z"
   id="path44-1-5"
   style="fill:#00a9a1" /></svg>