<?xml version="1.0" encoding="utf-8"?>
<!-- Generator: Adobe Illustrator 15.0.0, SVG Export Plug-In . SVG Version: 6.00 Build 0)  -->
<!DOCTYPE svg PUBLIC "-//W3C//DTD SVG 1.1//EN" "http://www.w3.org/Graphics/SVG/1.1/DTD/svg11.dtd" [
	<!ENTITY ns_extend "http://ns.adobe.com/Extensibility/1.0/">
	<!ENTITY ns_ai "http://ns.adobe.com/AdobeIllustrator/10.0/">
	<!ENTITY ns_graphs "http://ns.adobe.com/Graphs/1.0/">
	<!ENTITY ns_vars "http://ns.adobe.com/Variables/1.0/">
	<!ENTITY ns_imrep "http://ns.adobe.com/ImageReplacement/1.0/">
	<!ENTITY ns_sfw "http://ns.adobe.com/SaveForWeb/1.0/">
	<!ENTITY ns_custom "http://ns.adobe.com/GenericCustomNamespace/1.0/">
	<!ENTITY ns_adobe_xpath "http://ns.adobe.com/XPath/1.0/">
]>
<svg version="1.1"
	 id="Layer_1" xmlns:x="&ns_extend;" xmlns:i="&ns_ai;" xmlns:graph="&ns_graphs;" xmlns:rdf="http://www.w3.org/1999/02/22-rdf-syntax-ns#" xmlns:inkscape="http://www.inkscape.org/namespaces/inkscape" xmlns:svg="http://www.w3.org/2000/svg" xmlns:cc="http://creativecommons.org/ns#" xmlns:dc="http://purl.org/dc/elements/1.1/" xmlns:sodipodi="http://sodipodi.sourceforge.net/DTD/sodipodi-0.dtd"
	 xmlns="http://www.w3.org/2000/svg" xmlns:xlink="http://www.w3.org/1999/xlink" x="0px" y="0px" width="621px" height="417px"
	 viewBox="0 0 621 417" enable-background="new 0 0 621 417" xml:space="preserve">
<metadata>
</metadata>
<path id="path85-2-1" fill="#00215A" d="M411.797,380.239H394.27v36.169h6.413v-12.734h10.272c9.952,0,18.412-4.066,18.386-11.84
	v-0.158C429.343,384.59,422.397,380.238,411.797,380.239L411.797,380.239L411.797,380.239z M422.665,391.961
	c0,4.752-5.079,8.282-12.864,8.282h-9.118v-16.521h9.388c7.575,0,12.595,2.975,12.595,8.131V391.961L422.665,391.961
	L422.665,391.961z"/>
<path id="path87-3-9" fill="#00215A" d="M462.652,401.631c7.381-1.034,12.735-4.598,12.735-10.533v-0.117
	c0-2.852-1.315-5.364-3.607-7.139c-2.952-2.275-7.616-3.621-13.364-3.621h-20.22v36.188h6.668v-14.066h10.732l13.647,14.066h7.862
	L462.652,401.631L462.652,401.631L462.652,401.631z M444.833,398.985v-15.263l11.844-0.022c7.575,0,12.03,2.997,12.03,7.462v0.021
	c0,4.699-5.046,7.784-12.095,7.784L444.833,398.985L444.833,398.985L444.833,398.985z"/>
<path id="path89-2-8" fill="#00215A" d="M507.849,379.578c-14.284,0.036-23.979,8.75-23.979,18.731v0.108
	c0,9.943,9.583,18.582,23.914,18.582c14.287,0,24.023-8.719,24.023-18.69v-0.118C531.806,388.203,522.187,379.578,507.849,379.578
	L507.849,379.578L507.849,379.578z M524.964,398.418c0,8.201-6.325,15.123-17.06,15.123c-10.768,0-17.201-7.02-17.201-15.231v-0.118
	c0-8.18,6.317-15.098,17.06-15.141c10.734,0,17.201,7.069,17.201,15.256V398.418L524.964,398.418z"/>
<polygon id="polygon91-2-6" fill="#00215A" points="556.912,380.221 564.174,380.201 580.82,410.427 596.662,380.201 
	601.973,380.192 581.789,416.631 577.108,416.631 "/>
<path id="path93-1-5" fill="#00215A" d="M547.931,397.58h-2.369c0,0,2.343-0.018,0.075-0.018c-6.424,0-7.16,4.324-7.16,4.324
	s0.736-0.322,6.818-0.322c0,0,0.026,0.025,2.265,0.025c6.422,0,7.193-4.31,7.193-4.31S553.982,397.58,547.931,397.58L547.931,397.58
	L547.931,397.58z"/>
<path id="path95-6-0" fill="#00215A" d="M431.987,270.143h-64.401l1.052,1.994c0.056,0.076,2.623,4.895,2.623,12.053v63.029
	c0,7.174-2.588,12.066-2.605,12.12l-1.067,1.999h65.642v-14.971l-1.914,1.156c-0.906,0.494-5.671,2.939-11.71,2.939
	c0,0-29.527,0-30.839,0c0-1.27,0-28.565,0-29.832c1.312,0,30.839,0,30.839,0c4.264,0,6.295,0.947,6.322,0.955l1.854,0.865v-14.705
	l-1.881,0.972c-0.035,0.016-2.104,1.04-6.295,1.04c0,0-29.527,0-30.839,0c0-1.271,0-27.482,0-28.752c1.312,0,30.839,0,30.839,0
	c6.039,0,10.312,2.428,11.102,2.92l1.976,1.297v-15.08H431.987L431.987,270.143L431.987,270.143z"/>
<path id="path97-8-2" fill="#00215A" d="M453.169,271.295l0.942,1.119c0.664,0.854,3.973,5.422,3.973,11.777v63.03
	c0,6.277-1.968,10.854-2.565,12.106l-1.038,2.02h18.565l-1.124-2.007c-0.036-0.062-2.752-4.988-2.752-12.119c0,0,0-50.013,0-53.965
	c1.54,2.163,4.614,6.482,4.614,6.482c10.034,14.193,20.275,28.665,29.806,40.153l0.615,0.74
	c9.957,12.023,17.159,20.709,26.26,20.709h1.278v-77.15c0-6.002,1.296-10.438,1.848-12.072l0.42-0.969l0.416-0.957h-16.604
	l0.773,1.859c0.031,0.075,2.079,4.983,2.079,12.137c0,0,0,45.117,0,48.921c-7.611-10.269-22.555-29.81-32.146-41.836l-2.292-2.874
	c-8.392-10.572-14.449-18.204-20.197-18.204l-12.349-0.031h-1.489L453.169,271.295L453.169,271.295L453.169,271.295z"/>
<path id="path99-5-8" fill="#00215A" d="M619.781,270.143h-64.417l1.052,1.994c0.047,0.062,2.621,4.912,2.621,12.053v63.029
	c0,7.101-2.572,12.042-2.602,12.092l-1.064,2.027H621v-14.992l-1.914,1.176c-1.312,0.698-5.953,2.939-11.706,2.939
	c0,0-29.515,0-30.83,0c0-1.27,0-28.565,0-29.832c1.315,0,30.83,0,30.83,0c4.236,0,6.304,0.946,6.321,0.959l1.85,0.852v-14.695
	l-1.867,0.96c-0.06,0.026-2.096,1.052-6.304,1.052c0,0-29.515,0-30.831,0c0-1.271,0-27.482,0-28.752c1.316,0,30.831,0,30.831,0
	c6.577,0,11.063,2.883,11.11,2.919l1.976,1.28v-15.062h-0.685V270.143L619.781,270.143z"/>
<path id="path101-7-6" fill="#00215A" d="M44.094,255.658H0.156l1.169,2.027c0.029,0.047,2.715,4.788,2.715,11.893v77.644
	c0,6.45-2.381,11.175-2.854,12.058L0,361.342h25.926l-1.171-2.036c-0.047-0.069-2.851-4.976-2.851-11.997c0,0,0-22.076,0-23.361
	c1.281,0,20.521,0,20.521,0c20.514,0,42.597-10.842,42.597-34.643C85.022,269.178,68.57,255.658,44.094,255.658L44.094,255.658z
	 M41.425,314.115c0,0-18.239,0-19.521,0v-48.227c1.281,0,20.285,0,20.285,0c14.364,0,22.952,8.811,22.952,23.557
	C65.142,304.198,55.612,314.115,41.425,314.115L41.425,314.115z"/>
<path id="path103-6-0" fill="#00215A" d="M150.305,360.515l-0.029,0.718l27.292,0.021l-2.481-2.323
	c-1.34-1.307-5.711-5.926-8.307-12.246l-31.435-76.543h-22.506l1.698,2.176c0.512,0.729,2.979,4.438,1.808,7.596l-26.971,66.773
	c-2.548,6.375-6.569,10.971-7.745,12.229l-2.332,2.314h21.019l-0.141-1.449l-0.038-0.721c0-1.536,0.263-5.699,2.652-11.306
	l2.954-7.651c0,0,0.62-1.614,0.916-2.408h36.868c0.284,0.665,4.239,10.051,4.239,10.051c2.322,5.758,2.589,10.052,2.589,11.626
	v0.013C150.358,359.85,150.305,360.515,150.305,360.515L150.305,360.515L150.305,360.515z M110.754,326.806
	c0.632-1.685,12.244-32.593,13.324-35.467c1.188,2.834,14.156,33.735,14.879,35.467H110.754L110.754,326.806z"/>
<path id="path105-1-2" fill="#00215A" d="M351.053,270.176h-70.968v15.05l1.975-1.278c0.077-0.047,4.445-2.926,11.023-2.926
	c0,0,12.495,0,13.733,0c0,1.344,0,66.202,0,66.202c0,6.258-1.996,10.837-2.614,12.091l-1.081,2.027h25.427l-1.151-2.019
	c-0.456-0.9-2.724-5.636-2.724-12.1c0,0,0-64.861,0-66.202c1.247,0,14.045,0,14.045,0c5.748,0,9.898,2.224,11.041,2.908l1.977,1.355
	v-15.107h-0.683V270.176L351.053,270.176z"/>
<path id="path107-8-4" fill="#00215A" d="M184.507,271.295l0.937,1.1c0.146,0.189,3.985,4.873,3.985,11.797v63.03
	c0,6.277-1.949,10.854-2.548,12.106l-1.062,2.02h18.593l-1.158-2.02c-0.028-0.049-2.728-4.967-2.728-12.106c0,0,0-50.003,0-53.965
	c1.532,2.167,4.604,6.482,4.604,6.482c10.043,14.193,20.275,28.665,29.813,40.153l0.596,0.735
	c9.986,12.028,17.184,20.714,26.267,20.714h1.271v-58.033l-6.884-6.066l-4.155-4.691l-0.02,1.771c0,0,0,35.071,0,38.793
	c-7.454-10.044-22.635-29.884-32.155-41.836l-2.274-2.863c-8.383-10.584-14.471-18.215-20.22-18.215l-12.34-0.031h-1.465
	L184.507,271.295L184.507,271.295L184.507,271.295z M202.082,360.015L202.082,360.015L202.082,360.015z M255.262,298.23
	l-0.031-0.025L255.262,298.23L255.262,298.23z"/>
<linearGradient id="path148-9-8_1_" gradientUnits="userSpaceOnUse" x1="594.3489" y1="403.6748" x2="710.1389" y2="403.6748" gradientTransform="matrix(2.223 0 0 -2.223 -1111.219 1102.3494)">
	<stop  offset="0.0056" style="stop-color:#AD542D"/>
	<stop  offset="0.0245" style="stop-color:#BD6B40"/>
	<stop  offset="0.0514" style="stop-color:#D08656"/>
	<stop  offset="0.0815" style="stop-color:#DF9E6A"/>
	<stop  offset="0.1159" style="stop-color:#ECB37B"/>
	<stop  offset="0.1569" style="stop-color:#F5C288"/>
	<stop  offset="0.2112" style="stop-color:#FCCC91"/>
	<stop  offset="0.3315" style="stop-color:#FED094"/>
	<stop  offset="0.4214" style="stop-color:#F2BA7E"/>
	<stop  offset="0.6013" style="stop-color:#DA8C50"/>
	<stop  offset="0.6067" style="stop-color:#D98B4E"/>
	<stop  offset="0.6772" style="stop-color:#DE9457"/>
	<stop  offset="0.7983" style="stop-color:#EBAF6F"/>
	<stop  offset="0.8371" style="stop-color:#EFB979"/>
	<stop  offset="0.8685" style="stop-color:#EDB575"/>
	<stop  offset="0.9011" style="stop-color:#E4A76B"/>
	<stop  offset="0.9342" style="stop-color:#D6905A"/>
	<stop  offset="0.9674" style="stop-color:#C47445"/>
	<stop  offset="1" style="stop-color:#AD542D"/>
</linearGradient>
<path id="path148-9-8" fill="url(#path148-9-8_1_)" d="M249.818,181.685c3.055-3.034,3.473-3.604,3.473-4.268v-0.351l-0.369-0.474
	c-0.965-0.889-2.574-0.76-7.301,2.839c-14.375,11.439-30.221,30.886-30.221,49.856c0,1.385,0.091,2.766,0.271,4.133
	c1.082,8.527,2.107,11.492,9.229,17.379c3.196,2.701,3.884,1.331,4.14,1.045c0.462-0.701,0.23-1.896-0.823-3.555
	C211.197,221.444,232.559,198.088,249.818,181.685L249.818,181.685L249.818,181.685z M346.521,353.543l-5.784-4.939l-1.12-0.998
	c-3.121-2.773-3.6-3.203-4.473-2.416l-0.27,0.236l-0.146,0.748c0,0.91,0.843,2.03,2.71,3.624c7.129,6.04,19.61,17.343,26.146,27.737
	c4.194,6.693,2.714,10.584,1.362,12.385c-1.358,1.81-2.961,2.085-4.551,2.023c-8.5-0.367-20.18-2.508-33.439-4.951
	c-30.748-5.655-69.022-12.693-85.152,0.858c-5.3,4.466-7.954,10.964-7.89,19.326c0.038,2.153,0.949,2.721,1.701,2.816
	c0.714-0.011,1.193-0.693,2.092-2.919c6.068-16.32,41.345-13.086,72.477-10.25c32.98,3.015,49.652,3.736,60.071-4.314
	c2.445-1.89,3.729-4.242,3.729-6.695c0-0.863-0.159-1.754-0.486-2.637C369.771,373.184,356.328,361.835,346.521,353.543
	L346.521,353.543L346.521,353.543z M217.018,194.311c15.201-28.667,59.233-44.535,105.826-61.34l38.319-14.271
	c20.622-8.932,44.642-21.874,61.564-38.615c-5.685,17.648-19.967,35.709-41.085,49.963l-0.009,0.007
	c-0.478,0.42-1.607,1.621-0.091,3.101c0.556,0.554,2.565-0.551,2.565-0.551c38.405-23.041,52.466-51.192,52.826-69.87l-0.018-0.627
	c2.103-3.724,3.85-7.594,5.088-11.606c4.771-15.278,2.105-31.157-7.898-47.182l-0.528-0.912c0,0-2.45-4.692-3.462-0.96
	c-0.136,0.447,0.147,1.016,0.305,1.572c0.409,1.525,1.203,4.337,1.203,9.459c0,2.87-0.256,6.458-0.94,10.943
	c-0.771,5.526-2.272,10.784-4.404,15.761l-0.976-0.731c-2.696-1.621-10.272-6.611-11.283-5.14c-1.017,1.458,0.329,2.379,0.894,2.801
	c0.86,0.623,2.614,1.9,5.105,6.357c0.852,1.492,1.585,3.017,2.245,4.582c-18.325,30.877-61.773,51.353-104.087,71.274
	c-43.825,20.654-89.174,42.01-104.621,74.727c-2.632,5.186-3.546,11.179-3.565,16.528c-0.021,3.188,0.129,4.023,0.787,5.655
	c0.7,1.27,1.162,1.223,2.069,1.002c0.338-0.264,0.46-0.938,0.16-3.479C212.904,207.44,211.603,206.273,217.018,194.311
	L217.018,194.311L217.018,194.311z M417.364,161.709c-0.46-0.24-0.916-0.194-1.242,0.14c-0.442,0.284-0.474,1.033-0.512,2.396
	c-0.695,21.79-29.672,40.1-86.157,54.422l-7.333,2.132c-41.454,12.073-77.259,22.489-76.728,43.335
	c0.329,8.818,5.704,17.149,17.461,26.979l0.008,0.004c9.145,7.145,19.908,13.815,26.344,17.792c0,0,3.968,2.61,4.915,3.093
	c1.193,0.606,1.667-1.194,1.649-1.952c-0.064-2.729-5.844-6.124-13.829-10.83c-6.664-3.906-14.214-8.345-20.024-13.387
	c-10.358-9.994-14.442-18.095-12.457-24.719c4.234-14.149,36.505-20.216,70.651-26.639c14.771-2.777,30.065-5.65,44.359-9.336
	c32.115-8.394,52.717-25.333,56.543-46.478C422.457,170.569,419.514,162.825,417.364,161.709L417.364,161.709L417.364,161.709z
	 M461.545,74.832c-0.756-1.334-7.352-12.934-9.186-12.104c-0.575,0.26-0.78,0.711-0.78,1.268c0,0.551,0.195,1.22,0.409,1.967
	c0.538,1.918,1.43,5.099,1.43,10.468l-0.01,0.578c0.036,0.485,0.04,0.958,0.04,1.432c0,41.705-55.651,65.853-114.528,91.413
	l-11.266,4.901c-51.91,22.574-94.871,43.739-94.871,74.104l-0.014,0.881c0,5.439,1.869,13.254,3.563,14.683
	c1.127,0.949,1.898-0.407,1.898-0.407c0.453-0.76,0.18-1.82-0.305-3.764c-0.643-2.494-1.604-6.268-1.714-11.854
	c2.757-30.722,54.355-47.751,114.064-67.469l24.13-8.032c47.962-15.83,80.833-38.542,90.134-62.289
	C469.156,98.82,468.154,86.785,461.545,74.832L461.545,74.832L461.545,74.832z"/>
</svg>
