<?xml version="1.0" encoding="UTF-8" standalone="no"?>
<svg
   xmlns:dc="http://purl.org/dc/elements/1.1/"
   xmlns:cc="http://creativecommons.org/ns#"
   xmlns:rdf="http://www.w3.org/1999/02/22-rdf-syntax-ns#"
   xmlns:svg="http://www.w3.org/2000/svg"
   xmlns="http://www.w3.org/2000/svg"
   xmlns:xlink="http://www.w3.org/1999/xlink"
   xmlns:sodipodi="http://sodipodi.sourceforge.net/DTD/sodipodi-0.dtd"
   xmlns:inkscape="http://www.inkscape.org/namespaces/inkscape"
   version="1.1"
   x="0px"
   y="0px"
   width="621"
   height="417"
   viewBox="0 0 621 417"
   enable-background="new 0 0 842 595"
   xml:space="preserve"
   id="svg2"><defs
   id="defs225">
		<linearGradient
   id="SVGID_2_"
   gradientUnits="userSpaceOnUse"
   x1="587.25879"
   y1="129.5313"
   x2="703.04883"
   y2="129.5313">
			<stop
   offset="0.0056"
   style="stop-color:#AD542D"
   id="stop110" />
			<stop
   offset="0.0245"
   style="stop-color:#BD6B40"
   id="stop112" />
			<stop
   offset="0.0514"
   style="stop-color:#D08656"
   id="stop114" />
			<stop
   offset="0.0815"
   style="stop-color:#DF9E6A"
   id="stop116" />
			<stop
   offset="0.1159"
   style="stop-color:#ECB37B"
   id="stop118" />
			<stop
   offset="0.1569"
   style="stop-color:#F5C288"
   id="stop120" />
			<stop
   offset="0.2112"
   style="stop-color:#FCCC91"
   id="stop122" />
			<stop
   offset="0.3315"
   style="stop-color:#FED094"
   id="stop124" />
			<stop
   offset="0.4214"
   style="stop-color:#F2BA7E"
   id="stop126" />
			<stop
   offset="0.6013"
   style="stop-color:#DA8C50"
   id="stop128" />
			<stop
   offset="0.6067"
   style="stop-color:#D98B4E"
   id="stop130" />
			<stop
   offset="0.6772"
   style="stop-color:#DE9457"
   id="stop132" />
			<stop
   offset="0.7983"
   style="stop-color:#EBAF6F"
   id="stop134" />
			<stop
   offset="0.8371"
   style="stop-color:#EFB979"
   id="stop136" />
			<stop
   offset="0.8685"
   style="stop-color:#EDB575"
   id="stop138" />
			<stop
   offset="0.9011"
   style="stop-color:#E4A76B"
   id="stop140" />
			<stop
   offset="0.9342"
   style="stop-color:#D6905A"
   id="stop142" />
			<stop
   offset="0.9674"
   style="stop-color:#C47445"
   id="stop144" />
			<stop
   offset="1"
   style="stop-color:#AD542D"
   id="stop146" />
		</linearGradient>
<linearGradient
   inkscape:collect="always"
   xlink:href="#SVGID_2_-7"
   id="linearGradient3209-1"
   gradientUnits="userSpaceOnUse"
   x1="587.25879"
   y1="129.5313"
   x2="703.04883"
   y2="129.5313" /><linearGradient
   id="SVGID_2_-7"
   gradientUnits="userSpaceOnUse"
   x1="587.25879"
   y1="129.5313"
   x2="703.04883"
   y2="129.5313"><stop
     offset="0.0056"
     style="stop-color:#AD542D"
     id="stop110-4" /><stop
     offset="0.0245"
     style="stop-color:#BD6B40"
     id="stop112-0" /><stop
     offset="0.0514"
     style="stop-color:#D08656"
     id="stop114-9" /><stop
     offset="0.0815"
     style="stop-color:#DF9E6A"
     id="stop116-4" /><stop
     offset="0.1159"
     style="stop-color:#ECB37B"
     id="stop118-8" /><stop
     offset="0.1569"
     style="stop-color:#F5C288"
     id="stop120-8" /><stop
     offset="0.2112"
     style="stop-color:#FCCC91"
     id="stop122-2" /><stop
     offset="0.3315"
     style="stop-color:#FED094"
     id="stop124-4" /><stop
     offset="0.4214"
     style="stop-color:#F2BA7E"
     id="stop126-5" /><stop
     offset="0.6013"
     style="stop-color:#DA8C50"
     id="stop128-5" /><stop
     offset="0.6067"
     style="stop-color:#D98B4E"
     id="stop130-1" /><stop
     offset="0.6772"
     style="stop-color:#DE9457"
     id="stop132-7" /><stop
     offset="0.7983"
     style="stop-color:#EBAF6F"
     id="stop134-1" /><stop
     offset="0.8371"
     style="stop-color:#EFB979"
     id="stop136-1" /><stop
     offset="0.8685"
     style="stop-color:#EDB575"
     id="stop138-5" /><stop
     offset="0.9011"
     style="stop-color:#E4A76B"
     id="stop140-2" /><stop
     offset="0.9342"
     style="stop-color:#D6905A"
     id="stop142-7" /><stop
     offset="0.9674"
     style="stop-color:#C47445"
     id="stop144-6" /><stop
     offset="1"
     style="stop-color:#AD542D"
     id="stop146-1" /></linearGradient><linearGradient
   y2="129.5313"
   x2="703.04883"
   y1="129.5313"
   x1="587.25879"
   gradientUnits="userSpaceOnUse"
   id="linearGradient3258"
   xlink:href="#SVGID_2_-7"
   inkscape:collect="always" /><inkscape:perspective
   id="perspective3347"
   inkscape:persp3d-origin="0.5 : 0.33333333 : 1"
   inkscape:vp_z="1 : 0.5 : 1"
   inkscape:vp_y="0 : 1000 : 0"
   inkscape:vp_x="0 : 0.5 : 1"
   sodipodi:type="inkscape:persp3d" /><linearGradient
   y2="129.5313"
   x2="703.04883"
   y1="129.5313"
   x1="587.25879"
   gradientUnits="userSpaceOnUse"
   id="linearGradient3258-2"
   xlink:href="#SVGID_2_-7-7"
   inkscape:collect="always" /><linearGradient
   id="SVGID_2_-7-7"
   gradientUnits="userSpaceOnUse"
   x1="587.25879"
   y1="129.5313"
   x2="703.04883"
   y2="129.5313"><stop
     offset="0.0056"
     style="stop-color:#AD542D"
     id="stop110-4-9" /><stop
     offset="0.0245"
     style="stop-color:#BD6B40"
     id="stop112-0-5" /><stop
     offset="0.0514"
     style="stop-color:#D08656"
     id="stop114-9-4" /><stop
     offset="0.0815"
     style="stop-color:#DF9E6A"
     id="stop116-4-3" /><stop
     offset="0.1159"
     style="stop-color:#ECB37B"
     id="stop118-8-1" /><stop
     offset="0.1569"
     style="stop-color:#F5C288"
     id="stop120-8-2" /><stop
     offset="0.2112"
     style="stop-color:#FCCC91"
     id="stop122-2-3" /><stop
     offset="0.3315"
     style="stop-color:#FED094"
     id="stop124-4-3" /><stop
     offset="0.4214"
     style="stop-color:#F2BA7E"
     id="stop126-5-4" /><stop
     offset="0.6013"
     style="stop-color:#DA8C50"
     id="stop128-5-1" /><stop
     offset="0.6067"
     style="stop-color:#D98B4E"
     id="stop130-1-1" /><stop
     offset="0.6772"
     style="stop-color:#DE9457"
     id="stop132-7-3" /><stop
     offset="0.7983"
     style="stop-color:#EBAF6F"
     id="stop134-1-8" /><stop
     offset="0.8371"
     style="stop-color:#EFB979"
     id="stop136-1-7" /><stop
     offset="0.8685"
     style="stop-color:#EDB575"
     id="stop138-5-4" /><stop
     offset="0.9011"
     style="stop-color:#E4A76B"
     id="stop140-2-2" /><stop
     offset="0.9342"
     style="stop-color:#D6905A"
     id="stop142-7-7" /><stop
     offset="0.9674"
     style="stop-color:#C47445"
     id="stop144-6-7" /><stop
     offset="1"
     style="stop-color:#AD542D"
     id="stop146-1-9" /></linearGradient><linearGradient
   y2="129.5313"
   x2="703.04883"
   y1="129.5313"
   x1="587.25879"
   gradientUnits="userSpaceOnUse"
   id="linearGradient3386"
   xlink:href="#SVGID_2_-7-7"
   inkscape:collect="always" /><linearGradient
   inkscape:collect="always"
   xlink:href="#SVGID_2_-7-7"
   id="linearGradient3468"
   gradientUnits="userSpaceOnUse"
   x1="587.25879"
   y1="129.5313"
   x2="703.04883"
   y2="129.5313"
   gradientTransform="matrix(2.2229541,0,0,2.2229541,-1095.4607,-82.942383)" /></defs>
<path
   style="fill:#00215a"
   id="path85-2-1"
   d="m 411.79777,380.239 h -17.528 v 36.16969 h 6.41323 v -12.73531 h 10.27227 c 9.95216,0 18.41273,-4.06578 18.38605,-11.83945 v -0.15783 c 0.002,-7.08678 -6.94451,-11.4371 -17.54355,-11.4371 l 0,0 z m 10.86802,11.72164 c 0,4.75267 -5.07945,8.28273 -12.86424,8.28273 H 400.683 v -16.521 h 9.38753 c 7.57583,0 12.59526,2.97431 12.59526,8.13157 v 0.1067 l 0,0 z" /><path
   style="fill:#00215a"
   id="path87-3-9"
   d="m 462.65229,401.63049 c 7.38021,-1.03367 12.7353,-4.59707 12.7353,-10.53236 v -0.11781 c 0,-2.85205 -1.31599,-5.36399 -3.60785,-7.13791 -2.95209,-2.2763 -7.61584,-3.62119 -13.3644,-3.62119 h -20.21999 v 36.18747 h 6.66886 v -14.06686 h 10.73242 l 13.64672,14.06686 h 7.86259 l -14.45365,-14.7782 0,0 z m -17.8192,-2.64532 v -15.2628 l 11.8439,-0.0222 c 7.57582,0 12.03062,2.99654 12.03062,7.46246 v 0.02 c 0,4.69932 -5.0461,7.78478 -12.09509,7.78478 l -11.77943,0.0178 0,0 z" /><path
   style="fill:#00215a"
   id="path89-2-8"
   d="m 507.84939,379.57878 c -14.2847,0.0356 -23.97901,8.74955 -23.97901,18.73062 v 0.10892 c 0,9.94327 9.58316,18.58167 23.91454,18.58167 14.28693,0 24.02347,-8.71842 24.02347,-18.69059 v -0.11782 c -0.002,-9.98773 -9.62095,-18.6128 -23.959,-18.6128 l 0,0 z m 17.11452,18.83954 c 0,8.20048 -6.3243,15.12276 -17.05895,15.12276 -10.76799,0 -17.20121,-7.02009 -17.20121,-15.23168 v -0.11782 c 0,-8.18047 6.31763,-15.0983 17.05895,-15.14054 10.73464,0 17.20121,7.06899 17.20121,15.25613 v 0.11115 l 0,0 z" /><polygon
   style="fill:#00215a"
   id="polygon91-2-6"
   points="743.323,208.355 746.59,208.346 754.078,221.943 761.205,208.346 763.594,208.342 754.514,224.734 752.408,224.734 743.323,208.355 "
   transform="matrix(2.2229541,0,0,2.2229541,-1095.4607,-82.942383)" /><path
   style="fill:#00215a"
   id="path93-1-5"
   d="m 547.93148,397.58027 h -2.36967 c 0,0 2.34299,-0.0178 0.0756,-0.0178 -6.42434,0 -7.16014,4.32365 -7.16014,4.32365 0,0 0.7358,-0.32233 6.8178,-0.32233 0,0 0.0267,0.0267 2.26519,0.0267 6.42212,0 7.19348,-4.31031 7.19348,-4.31031 0,0 -0.77136,0.3001 -6.82224,0.3001 l 0,0 z" /><path
   style="fill:#00215a"
   id="path95-6-0"
   d="m 431.98664,270.14275 h -64.40121 l 1.05146,1.99399 c 0.0556,0.0756 2.62309,4.89495 2.62309,12.05286 v 63.02964 c 0,7.17347 -2.58752,12.0662 -2.60531,12.11955 l -1.06701,1.99843 h 65.64161 v -14.96937 l -1.91397,1.15594 c -0.90696,0.49349 -5.67075,2.93874 -11.71052,2.93874 0,0 -29.5275,0 -30.83904,0 0,-1.2693 0,-28.56496 0,-29.83204 1.31154,0 30.83904,0 30.83904,0 4.26363,0 6.29541,0.94698 6.32208,0.95587 l 1.85395,0.86473 v -14.70484 l -1.88062,0.97143 c -0.0356,0.0156 -2.10514,1.04034 -6.29541,1.04034 0,0 -29.5275,0 -30.83904,0 0,-1.27153 0,-27.48238 0,-28.75169 1.31154,0 30.83904,0 30.83904,0 6.03977,0 10.31229,2.42747 11.10143,2.91874 l 1.97621,1.29821 v -15.08053 h -0.69578 l 0,0 z" /><path
   style="fill:#00215a"
   id="path97-8-2"
   d="m 453.16917,271.29424 0.94253,1.12037 c 0.66466,0.85362 3.97242,5.42179 3.97242,11.77721 v 63.02964 c 0,6.27763 -1.96732,10.85469 -2.56529,12.10621 l -1.03812,2.02067 h 18.56611 l -1.12481,-2.00733 c -0.0356,-0.0622 -2.75202,-4.98831 -2.75202,-12.11955 0,0 0,-50.01202 0,-53.96443 1.54051,2.16294 4.61485,6.48214 4.61485,6.48214 10.03442,14.19356 20.27557,28.66499 29.80537,40.15322 l 0.61576,0.74024 c 9.95661,12.02396 17.15898,20.70904 26.25976,20.70904 h 1.27819 v -77.14985 c 0,-6.00197 1.29599,-10.43899 1.84728,-12.07286 l 0.42014,-0.96921 0.41569,-0.95587 h -16.60324 l 0.77358,1.85839 c 0.0311,0.0756 2.07847,4.98387 2.07847,12.13733 0,0 0,45.11708 0,48.92055 -7.6114,-10.26782 -22.5541,-29.80981 -32.14614,-41.83599 l -2.29187,-2.87428 c -8.39165,-10.57237 -14.4492,-18.20377 -20.19776,-18.20377 l -12.34851,-0.0311 h -1.48938 l 0.96699,1.12926 0,0 z" /><path
   style="fill:#00215a"
   id="path99-5-8"
   d="m 619.7818,270.14275 h -64.41677 l 1.05146,1.99399 c 0.0467,0.0623 2.62086,4.91273 2.62086,12.05286 v 63.02964 c 0,7.10012 -2.57195,12.04174 -2.60085,12.09065 l -1.0648,2.02733 h 65.62828 v -14.9916 l -1.91397,1.17594 c -1.31154,0.69801 -5.95307,2.93875 -11.70607,2.93875 0,0 -29.51416,0 -30.83015,0 0,-1.26931 0,-28.56496 0,-29.83205 1.31599,0 30.83015,0 30.83015,0 4.23695,0 6.3043,0.94698 6.32208,0.96032 l 1.8495,0.85139 v -14.69595 l -1.86728,0.96032 c -0.06,0.0267 -2.09625,1.05146 -6.3043,1.05146 0,0 -29.51416,0 -30.83015,0 0,-1.27153 0,-27.48239 0,-28.75169 1.31599,0 30.83015,0 30.83015,0 6.57772,0 11.06364,2.88317 11.11032,2.91874 l 1.97621,1.28042 v -15.06274 h -0.68467 l 0,0.002 z" /><path
   style="fill:#00215a"
   id="path101-7-6"
   d="M 44.094483,255.65799 H 0.1555725 l 1.1692739,2.02733 c 0.028898,0.0467 2.7142269,4.78824 2.7142269,11.8928 v 77.64334 c 0,6.45102 -2.3807838,11.1748 -2.8542731,12.05731 l -1.1848344905,2.0629 H 25.926279 l -1.171496,-2.03623 c -0.04668,-0.0689 -2.849828,-4.97497 -2.849828,-11.99728 0,0 0,-22.07616 0,-23.36102 1.280422,0 20.52009,0 20.52009,0 20.51342,0 42.596246,-10.84135 42.596246,-34.64252 0,-20.12663 -16.452083,-33.64663 -40.926808,-33.64663 l 0,0 z m -2.669768,58.45702 c 0,0 -18.239338,0 -19.51976,0 v -48.22699 c 1.280422,0 20.284457,0 20.284457,0 14.364729,0 22.952001,8.81179 22.952001,23.55664 0,14.75375 -9.529805,24.67035 -23.716698,24.67035 l 0,0 z" /><path
   style="fill:#00215a"
   id="path103-6-0"
   d="m 150.30501,360.51473 -0.0289,0.71801 27.29121,0.02 -2.48082,-2.32299 c -1.34044,-1.30709 -5.71077,-5.92639 -8.30718,-12.24625 l -31.43479,-76.54298 h -22.50519 l 1.69834,2.17627 c 0.51128,0.72913 2.97875,4.43702 1.80726,7.59584 l -26.971105,66.77309 c -2.547505,6.37544 -6.568829,10.97028 -7.744772,12.22847 l -2.331879,2.3141 h 21.018036 l -0.14005,-1.44937 -0.0378,-0.72023 c 0,-1.53607 0.26231,-5.69966 2.65198,-11.30595 l 2.95431,-7.65141 c 0,0 0.6202,-1.61386 0.91586,-2.40746 h 36.86769 c 0.28454,0.66467 4.23917,10.04998 4.23917,10.04998 2.32299,5.75745 2.58975,10.0522 2.58975,11.62605 v 0.0133 c 0.002,0.46682 -0.0511,1.13148 -0.0511,1.13148 l 0,0 z m -39.5508,-33.70888 c 0.63132,-1.68499 12.24403,-32.59295 13.32438,-35.46723 1.18706,2.83427 14.15578,33.73555 14.87824,35.46723 h -28.20262 l 0,0 z" /><path
   style="fill:#00215a"
   id="path105-1-2"
   d="m 351.05332,270.1761 h -70.96781 v 15.0494 l 1.97399,-1.2782 c 0.0778,-0.0467 4.4459,-2.92541 11.02363,-2.92541 0,0 12.49522,0 13.73341,0 0,1.34267 0,66.2018 0,66.2018 0,6.25761 -1.99622,10.8369 -2.6142,12.09065 l -1.08035,2.02733 h 25.42615 l -1.15149,-2.01844 c -0.45571,-0.9003 -2.72312,-5.63519 -2.72312,-12.09954 0,0 0,-64.86136 0,-66.2018 1.24707,0 14.04462,0 14.04462,0 5.74856,0 9.89882,2.22296 11.04141,2.90763 l 1.97621,1.356 v -15.1072 h -0.68245 l 0,-0.002 z" /><path
   style="fill:#00215a"
   id="path107-8-4"
   d="m 184.50738,271.29424 0.93586,1.10037 c 0.14672,0.18895 3.98576,4.87271 3.98576,11.79721 v 63.02964 c 0,6.27763 -1.94953,10.85469 -2.54751,12.10621 l -1.06257,2.02067 h 18.59279 l -1.15816,-2.02067 c -0.0289,-0.0489 -2.72756,-4.96608 -2.72756,-12.10621 0,0 0,-50.00312 0,-53.96443 1.53161,2.16738 4.60373,6.48214 4.60373,6.48214 10.04331,14.19356 20.27557,28.66499 29.81426,40.15322 l 0.59576,0.73579 c 9.98551,12.02841 17.18343,20.71349 26.26642,20.71349 h 1.27153 v -58.03244 l -6.88449,-6.06644 -4.1547,-4.69266 -0.02,1.7717 c 0,0 0,35.07154 0,38.79277 -7.45356,-10.04331 -22.63411,-29.88317 -32.15503,-41.836 l -2.27408,-2.86316 c -8.38276,-10.58349 -14.47143,-18.21489 -20.21999,-18.21489 l -12.33962,-0.0311 h -1.46492 l 0.94253,1.12481 0,0 z m 17.57467,88.72033 0,0 0,0 z m 53.17974,-61.78479 -0.0311,-0.0245 0.0311,0.0245 0,0 z" /><path
   d="m 249.81777,181.68474 c 3.05434,-3.03433 3.47225,-3.60341 3.47225,-4.26807 v -0.35123 l -0.36901,-0.47349 c -0.96476,-0.88918 -2.57418,-0.76025 -7.30018,2.83872 -14.37584,11.43932 -30.22106,30.88572 -30.22106,49.85641 0,1.3849 0.0911,2.76536 0.2712,4.13247 1.08258,8.52725 2.10736,11.49268 9.22971,17.37906 3.19661,2.70089 3.8835,1.33155 4.13914,1.04479 0.46237,-0.70023 0.23119,-1.89618 -0.82249,-3.55451 -17.02116,-26.84439 4.34142,-50.20097 21.60044,-66.60415 l 0,0 z m 96.70295,171.85881 -5.78413,-4.93941 -1.12037,-0.9981 c -3.12102,-2.77425 -3.59896,-3.20328 -4.47258,-2.41636 l -0.26898,0.23564 -0.14671,0.74913 c 0,0.90919 0.8425,2.02956 2.70978,3.62342 7.12901,6.03976 19.6109,17.34349 26.14639,27.73802 4.19471,6.69331 2.71422,10.58348 1.36267,12.38408 -1.35823,1.80948 -2.96098,2.08513 -4.55039,2.02289 -8.50058,-0.36679 -20.17998,-2.5075 -33.4399,-4.95052 -30.7479,-5.6552 -69.02272,-12.69307 -85.15248,0.85806 -5.29952,4.46591 -7.95373,10.96361 -7.88926,19.32636 0.0378,2.15404 0.9492,2.7209 1.70056,2.81648 0.71356,-0.0111 1.19372,-0.69356 2.0918,-2.91874 6.06866,-16.32092 41.34472,-13.08653 72.47719,-10.25004 32.97975,3.01433 49.6519,3.73679 60.07089,-4.31475 2.44525,-1.88951 3.73012,-4.2414 3.73012,-6.69554 0,-0.86251 -0.16006,-1.75391 -0.48683,-2.63642 -3.72789,-9.9944 -17.1701,-21.34258 -26.97777,-29.6342 l 0,0 z M 217.01808,194.31112 c 15.20056,-28.66721 59.23284,-44.53466 105.82596,-61.34019 l 38.31928,-14.27137 c 20.62234,-8.93183 44.64136,-21.873868 61.56471,-38.614935 -5.68409,17.648032 -19.96657,35.709535 -41.08464,49.963115 l -0.009,0.007 c -0.47793,0.42014 -1.60719,1.62053 -0.0911,3.10102 0.55574,0.55352 2.56529,-0.55129 2.56529,-0.55129 38.40598,-23.04092 52.46616,-51.192412 52.82628,-69.869672 l -0.0178,-0.626873 c 2.10291,-3.723448 3.85015,-7.593611 5.08834,-11.606043 4.77046,-15.278364 2.10514,-31.156925 -7.89816,-47.1822011 l -0.52906,-0.9114112 c 0,0 -2.44969,-4.6926561 -3.46114,-0.9603162 -0.1356,0.4468138 0.14672,1.01589 0.30455,1.5716285 0.40902,1.5249466 1.20261,4.3369835 1.20261,9.45867 0,2.869833 -0.25564,6.457681 -0.94031,10.943603 -0.77136,5.526264 -2.27185,10.78355 -4.40367,15.760744 l -0.97587,-0.731352 c -2.69645,-1.620533 -10.27227,-6.611065 -11.28372,-5.139469 -1.01589,1.458257 0.329,2.37856 0.89363,2.800922 0.86028,0.622427 2.61419,1.900625 5.10612,6.357648 0.8514,1.491603 1.58497,3.016549 2.24519,4.581509 -18.32604,30.876832 -61.77367,51.352463 -104.08761,71.274573 -43.82554,20.65347 -89.1738,42.00939 -104.62111,74.72683 -2.63197,5.18615 -3.54561,11.17924 -3.56562,16.52766 -0.02,3.18772 0.12894,4.02355 0.78693,5.6552 0.70023,1.2693 1.16261,1.22262 2.06957,1.00255 0.33789,-0.26453 0.46015,-0.93809 0.16005,-3.47892 -0.10448,-5.31953 -1.4049,-6.48658 4.01021,-18.4483 l 0,0 z m 200.34596,-32.60184 c -0.46015,-0.24008 -0.91585,-0.1934 -1.24263,0.14004 -0.44237,0.28454 -0.47349,1.03368 -0.51128,2.39635 -0.69578,21.78939 -29.67199,40.09987 -86.15725,54.42236 l -7.33353,2.13181 c -41.45365,12.07287 -77.25877,22.48963 -76.72748,43.33427 0.329,8.81846 5.7041,17.15009 17.4613,26.97999 l 0.007,0.004 c 9.14524,7.14457 19.90878,13.81566 26.34423,17.79252 0,0 3.96797,2.60975 4.91495,3.09213 1.19373,0.60687 1.66722,-1.19372 1.64943,-1.95175 -0.0645,-2.72979 -5.84414,-6.12424 -13.82899,-10.83023 -6.66442,-3.90573 -14.21357,-8.34497 -20.02437,-13.38663 -10.35897,-9.9944 -14.44254,-18.09485 -12.45744,-24.71925 4.23473,-14.14911 36.50535,-20.21555 70.65215,-26.63766 14.77153,-2.77869 30.06546,-5.65075 44.35905,-9.33641 32.11502,-8.39387 52.71736,-25.33278 56.54306,-46.47752 1.44492,-8.09378 -1.49827,-15.83855 -3.64787,-16.95447 l 0,0 z m 44.18122,-86.877496 c -0.75581,-1.333772 -7.35131,-12.933147 -9.18525,-12.103985 -0.57574,0.260086 -0.78026,0.711345 -0.78026,1.267084 0,0.551293 0.19562,1.220402 0.40903,1.967314 0.53795,1.91841 1.42936,5.099457 1.42936,10.467891 l -0.009,0.577968 c 0.0356,0.484604 0.04,0.958094 0.04,1.431583 0,41.704841 -55.65166,65.852791 -114.52882,91.412321 l -11.26593,4.90161 c -51.91043,22.5741 -94.87124,43.73885 -94.87124,74.1044 l -0.0133,0.88029 c 0,5.43957 1.8695,13.25325 3.56339,14.68261 1.12704,0.9492 1.8984,-0.4068 1.8984,-0.4068 0.45349,-0.76025 0.18006,-1.8206 -0.30454,-3.76346 -0.64243,-2.49416 -1.60497,-6.26873 -1.7139,-11.85502 2.75646,-30.72122 54.35567,-47.75127 114.06422,-67.46888 l 24.13017,-8.03153 c 47.96246,-15.82965 80.83328,-38.54158 90.13412,-62.2894 4.61485,-11.786098 3.6123,-23.821172 -2.99654,-35.773996 l 0,0 z"
   id="path148-9-8"
   style="fill:url(#linearGradient3468)" /></svg>