<?xml version="1.0" encoding="utf-8"?>
<!-- Generator: Adobe Illustrator 15.0.0, SVG Export Plug-In . SVG Version: 6.00 Build 0)  -->
<!DOCTYPE svg PUBLIC "-//W3C//DTD SVG 1.1//EN" "http://www.w3.org/Graphics/SVG/1.1/DTD/svg11.dtd">
<svg version="1.1" id="Layer_1" xmlns="http://www.w3.org/2000/svg" xmlns:xlink="http://www.w3.org/1999/xlink" x="0px" y="0px"
	 width="150.315px" height="84.707px" viewBox="0 0 150.315 84.707" enable-background="new 0 0 150.315 84.707"
	 xml:space="preserve">
<g>
	<path fill="#FFFFFF" d="M105.264,6.851l-0.104,0.52v0.208l-2.491-1.557l-2.595-1.247c-1.869-0.83-3.323-1.868-4.256-2.802
		c-0.312-0.312-0.623-0.519-1.038-0.519c-0.312,0-0.624,0.104-0.935,0.416c-0.209,0.208-0.416,0.519-0.52,1.038l-0.103,1.038
		l0.103,1.039l0.52,1.66c-2.938-1.07-5.913-1.901-8.929-2.491l-1.869-0.208V2.076l0,0c-3.688-1.021-6.829-1.546-9.42-1.577
		c-3.497,0.308-6.445,0.764-8.848,1.369v1.661l-6.083,1.159l-6.053,2.774c0.311-0.935,0.612-1.96,0.716-2.479l0.103-1.039
		l-0.103-1.038c0-0.415-0.208-0.83-0.521-1.038l-0.934-0.312c-0.415,0-0.726,0.104-1.038,0.416
		c-1.039,0.934-2.387,1.972-4.256,2.802l-2.596,1.35l-2.49,1.454V7.371c0-0.208-0.105-0.623-0.52-1.039
		c-0.208-0.311-0.624-0.519-1.038-0.519c-0.519,0-0.831,0.208-1.141,0.519L37.27,7.89l-1.558,1.245l-0.414,0.311
		c-1.559,1.039-3.116,2.388-4.361,4.049l-0.519,0.623l-0.312-0.831l-0.312-0.415l-0.727-0.311l-0.312-0.104
		c-0.623,0-1.038,0.312-1.349,0.934c-0.207,0.416-0.519,0.727-1.039,1.246l-1.972,2.284c-1.974,2.283-3.115,4.774-3.634,7.578v0.208
		l-0.103,1.038v0.415v1.143h-2.388h-4.465H8.826H4.673H3.011c-1.246,0-2.181,0.311-2.492,0.83C0.104,28.754,0,29.17,0,29.585
		c0,0.727,0.312,1.35,0.83,2.077l0.208,8.097v2.907v10.068l-0.103,0.52v0.207c0,0.936,0.311,1.869,0.934,2.389l1.454,0.83
		l0.83,0.104h0.105h7.474l0.208,0.104l2.907,0.209c1.245,0.103,2.698,0.622,4.152,1.349l0.726,0.415
		c0.936,0.623,2.492,1.869,4.568,3.945l1.558,1.453l2.179,1.766l-1.039,0.414c-0.726,0.312-1.14,0.831-1.348,1.35l-0.104,0.622
		c0,0.728,0.415,1.454,1.452,1.767l3.532,1.557l1.243,0.623c1.767,0.829,3.842,1.66,6.543,2.49l1.659,0.416l-0.208,0.415
		l-0.415,1.038l0.104,0.208l0.415,0.83l0.415,0.415l1.037,0.52l0.727,0.104l1.35,0.207l0.936,0.209l2.491,0.829l2.698,0.728
		l3.634,0.311l1.868-0.104l3.113-0.519l-0.102,0.103c-0.104,0.209-0.208,0.729-0.312,1.247l0.208,1.038
		c0.416,0.622,1.142,1.038,2.283,1.141l1.558,0.105l2.389,0.311l1.66,0.208l0.934,0.103l1.558-0.311
		c0.518-0.311,0.934-0.83,1.453-1.557l1.452-2.18l1.35-1.453l0.728-0.832l0.416,0.416l0.415,0.416l1.453,1.557l1.349,2.076
		c0.416,0.727,0.936,1.246,1.454,1.557l1.557,0.311l0.936-0.103l1.66-0.208l2.491-0.311l1.454-0.105l1.452-0.414l0.727-0.727
		l0.312-1.038l-0.312-1.247l-0.103-0.103l3.01,0.519l1.973,0.104l3.528-0.311l2.803-0.728l2.492-0.829l2.181-0.416
		c0.727-0.104,1.244-0.312,1.867-0.623l0.623-0.727l0.209-0.727c-0.105-0.623-0.312-1.038-0.623-1.453l1.764-0.416
		c2.699-0.83,4.775-1.661,6.541-2.49l1.246-0.623l3.529-1.557c0.934-0.312,1.452-1.039,1.452-1.767l-0.104-0.622
		c-0.208-0.416-0.623-0.83-1.038-1.038l-1.453-0.726l2.283-1.766l2.076-2.076l0.312-0.104l1.35-1.452l0,0l0.416-0.312
		c0.622-0.624,1.455-1.247,2.282-1.661c0.624-0.416,1.247-0.623,1.871-0.935c1.66-0.52,3.528-0.831,5.709-0.935h7.369
		c0.831,0.104,1.558-0.104,2.284-0.414c0.623-0.416,1.039-1.351,1.039-2.596l-0.104-1.559l-0.105-3.943l-0.101-4.879v-1.038
		l0.101-2.492v-2.699v-1.869l0.105,0.104l1.245,0.831l0.727,0.624l1.038,0.312c0.312,0,0.623,0,1.038-0.312
		c0.519-0.416,0.83-1.247,0.83-2.388l-0.312-3.01l-0.103-0.831l-0.416-1.35l-0.934-1.142c-0.624-0.519-1.661-0.83-3.22-0.83h-1.866
		H139h-5.603h-4.881h-2.491l0.104-1.143l-0.104-0.415l-0.104-1.038v-0.312c-0.519-2.7-1.662-5.191-3.633-7.474l-1.974-2.284
		l-1.038-1.35c-0.415-0.518-0.727-0.83-1.351-0.83h-0.31c-0.519,0.104-0.831,0.416-1.143,0.83l-0.208,0.831l-0.521-0.623
		c-1.348-1.661-2.801-3.01-4.255-4.049l-2.076-1.661l-1.557-1.558c-0.415-0.311-0.728-0.518-1.143-0.518s-0.83,0.207-1.142,0.518
		L105.264,6.851z"/>
	<path fill="#FEE038" d="M63.843,4.566l-4.254,1.039l-4.36,1.661l-1.869,1.038l-0.208,0.312l0.52,1.558l0.829,3.426l1.038,3.425
		l0.417,1.558c0.311,1.038,0.83,1.869,1.66,2.389c0.728,0.415,1.453,0.83,2.283,0.933l1.869,0.52l1.869,0.726l0.727,0.312
		l0.416-0.623l1.141-1.453l1.557-1.453c0.728-0.52,1.246-1.143,1.559-1.87c0.415-0.726,0.415-1.66,0.206-2.595l-0.727-2.387
		l-0.83-3.323l-0.83-3.217l-0.519-1.869l-0.208-0.208H65.92L63.843,4.566z"/>
	<path fill="#FFF1C0" d="M73.29,76.611l0.831,0.934l1.868,1.869l1.869,2.803l1.036,1.143l1.039,0.207l0.831-0.104l1.66-0.207
		l2.491-0.312l1.454-0.104c0.728-0.104,1.143-0.416,1.246-0.727c0.103-0.312,0.103-0.728-0.104-1.039l-0.415-0.52l-0.312-0.311
		l-1.661-1.037l-3.01-1.351h0.623l2.076-0.208c0.414,0.311,1.038,0.624,1.765,0.936l2.697,0.83l2.39,0.415h1.764l4.672-0.519
		l3.425-1.038c0.935-0.416,1.973-0.624,3.012-0.624l1.037-0.414c0.312-0.105,0.519-0.52,0.312-0.831l-0.727-0.831
		c-0.519-0.518-1.349-0.83-2.491-1.142l0.727,0.104l4.569-0.83c2.489-0.727,4.67-1.559,6.331-2.389
		c1.766-0.934,3.426-1.66,4.982-2.283c0.519-0.207,0.727-0.52,0.623-0.727l-0.727-0.727l-1.351-0.52l-3.425-0.312h-0.311
		c1.245-0.312,2.387-0.726,3.217-1.35l3.428-2.698l3.112-3.012c0.934-0.934,1.972-1.66,2.907-2.076
		c0.312-0.207,0.312-0.415-0.104-0.727c-0.205-0.207-0.726-0.415-1.556-0.518l-1.455-0.105l-4.151,0.52
		c-1.662,0.415-3.529,1.143-5.605,2.388c-2.18,1.143-4.359,2.906-6.644,5.294c0.622-1.037,1.037-1.868,1.037-2.49l-0.104-1.35
		l-0.312-0.208l-0.415-0.208c-0.207,0-0.312,0-0.52,0.208l-0.934,0.935l-1.246,0.83l-5.087,2.283
		c-1.867,0.728-3.633,1.766-5.293,3.115c-1.142,0.934-1.974,2.076-2.699,3.424l-2.596,0.105h-2.389l-2.076-0.105l-2.802,0.312
		c-1.66,0.312-2.908,0.727-3.841,1.246l-2.285,1.66l-1.971,1.973L73.29,76.611z M38.722,60.417l-0.312,0.208l-0.102,1.245
		c0.102,0.727,0.413,1.558,1.036,2.595c-2.283-2.388-4.464-4.151-6.645-5.294c-2.076-1.245-3.944-1.973-5.71-2.388l-4.151-0.52
		l-1.453,0.105c-0.623,0.103-1.143,0.311-1.453,0.518c-0.312,0.312-0.312,0.52-0.103,0.727c0.933,0.416,1.971,1.143,3.009,2.076
		l3.012,3.012c1.038,1.037,2.179,1.973,3.425,2.698c0.831,0.624,1.973,1.038,3.219,1.35h-0.312l-3.32,0.312l-1.454,0.52
		l-0.623,0.727c-0.208,0.207,0,0.52,0.623,0.727c1.454,0.623,3.115,1.35,4.774,2.283c1.868,0.83,3.945,1.662,6.437,2.389l4.464,0.83
		l1.246-0.104c-1.35,0.312-2.285,0.624-2.698,1.142l-0.937,0.831c-0.207,0.312-0.103,0.624,0.312,0.831l1.037,0.414
		c1.039,0,2.076,0.208,3.116,0.624l3.321,1.038l4.566,0.519h1.973l2.285-0.415l2.699-0.83c0.726-0.312,1.451-0.625,1.866-0.936
		l1.973,0.208h0.624l-2.906,1.351l-1.767,1.037l-0.31,0.311l-0.416,0.52c-0.104,0.312-0.207,0.728-0.104,1.039
		c0.104,0.311,0.52,0.622,1.245,0.727l1.455,0.104l2.594,0.312l1.661,0.207l0.83,0.104l1.039-0.207l0.934-1.143l1.972-2.906
		l1.868-1.869l0.728-0.83l-0.416-0.416l-1.972-1.973l-2.283-1.66c-0.935-0.52-2.18-0.935-3.736-1.246l-2.907-0.312l-2.077,0.105
		h-2.388l-2.595-0.105c-0.727-1.348-1.557-2.49-2.698-3.424c-1.558-1.35-3.427-2.388-5.294-3.115l-5.088-2.283l-1.35-0.83
		l-0.83-0.935l-0.415-0.208L38.722,60.417z M29.38,16.09c0-1.142-0.104-1.868-0.312-2.18l-0.312-0.208l-0.311,0.208
		c-0.416,0.519-0.935,1.35-1.869,2.18l-2.698,3.426c-0.83,1.455-1.559,3.114-1.974,5.191l-0.104,1.141l0.104,1.765
		c0.208,0.727,0.624,1.141,1.35,1.141c0.521,0,1.039-0.207,1.559-0.414c0.621-0.416,1.141-0.831,1.66-1.35h0.208
		c2.284-0.104,4.256-0.415,6.02-1.038c1.661-0.726,3.22-1.557,4.569-2.491l3.528-2.699l2.804-1.972
		c0.311-0.104,0.414-0.312,0.414-0.519l-0.208-0.52l-0.518-0.311l-1.66-0.416l-1.87,0.208c3.219-1.35,5.813-2.907,7.474-4.567
		c1.869-1.765,3.115-3.323,3.738-4.774c0.727-1.35,1.142-2.493,1.246-3.219V3.426c0-0.416-0.104-0.623-0.312-0.727l-0.207,0.208
		c-0.831,0.727-1.765,1.454-2.907,2.077c-1.039,0.622-2.283,1.141-3.426,1.765l-3.217,1.868c-0.832,0.519-1.662,1.246-2.077,2.077
		c0.208-0.831,0.311-1.453,0.311-1.973V7.681l-0.207-0.519l-0.207-0.104H39.76c-1.038,1.245-2.387,2.283-3.84,3.321
		c-1.455,1.038-2.804,2.388-4.154,3.945l-1.659,2.596l-0.831,2.18l-0.311,1.038C29.275,18.582,29.484,17.232,29.38,16.09z
		 M106.404,7.163l-0.104,0.416c-0.104,0.207-0.104,0.623-0.104,1.142c0,0.52,0.104,1.142,0.312,1.869
		c-0.416-0.831-1.142-1.454-2.075-2.076l-3.219-1.869c-1.142-0.519-2.283-1.142-3.425-1.66c-1.144-0.728-2.077-1.454-2.906-2.18
		l-0.21-0.104c-0.207,0-0.207,0.208-0.31,0.727c0,0.311,0,0.726,0.103,1.245c0,0.623,0.52,1.765,1.143,3.219
		c0.727,1.452,1.973,3.01,3.736,4.671c1.766,1.764,4.257,3.321,7.578,4.671l-1.972-0.311l-1.661,0.415l-0.52,0.415l-0.207,0.416
		c0,0.312,0.207,0.416,0.415,0.623c0.831,0.415,1.869,1.038,2.906,1.868l3.529,2.803c1.247,0.935,2.804,1.765,4.568,2.387
		c1.661,0.727,3.737,1.038,5.917,1.038h0.207l1.662,1.35c0.623,0.208,1.141,0.416,1.557,0.416c0.727,0,1.245-0.311,1.35-1.142
		l0.207-1.662l-0.207-1.141c-0.31-2.077-1.039-3.841-1.972-5.191l-2.7-3.426c-0.83-0.935-1.453-1.661-1.869-2.284l-0.312-0.207
		l-0.311,0.311c-0.208,0.207-0.312,0.934-0.312,2.076c0,1.142,0.104,2.491,0.52,4.049l-0.416-0.935l-0.83-2.18l-1.661-2.699
		c-1.245-1.453-2.7-2.803-4.151-3.841c-1.454-1.039-2.698-2.18-3.842-3.321l-0.104-0.104L106.404,7.163z"/>
	<path fill="#E6CA2A" d="M54.5,50.243l1.246,1.038l-0.83-1.142l-0.206-0.208L54.5,50.243z M66.646,31.558
		c-0.207-0.416-0.311-0.623-0.727-0.623l-0.52-0.208v1.246v1.349v0.208l0.83,0.831l0.312,0.311l0.104-0.311v-1.349V31.558z
		 M63.637,39.966l-0.312-0.207c0.728,0.726,1.454,1.557,2.075,2.388c0.83,1.246,1.246,2.801,1.246,4.463
		c0,1.765-0.416,3.218-1.246,4.256c-0.727,1.142-1.659,1.868-2.803,2.388c-1.143,0.52-2.388,0.83-3.529,0.83l-4.256-0.623
		l0.104,0.623l1.039,0.52l4.255,0.52c1.245,0,2.388-0.312,3.633-0.727c1.04-0.52,2.077-1.35,2.804-2.389
		c0.83-1.142,1.143-2.596,1.246-4.256c-0.104-1.764-0.519-3.322-1.351-4.567C65.713,42.042,64.779,40.9,63.637,39.966z
		 M61.976,32.18c0.83,0,1.661,0.312,2.388,0.623l0.52,0.312c-0.52-0.622-1.04-1.039-1.766-1.453c-0.727-0.312-1.452-0.52-2.388-0.52
		l-1.765,0.52c-0.52,0.312-0.728,0.831-0.728,1.557c0.105,1.038,0.416,2.076,1.352,2.907l2.387,2.387l-1.246-1.246
		c-0.831-0.935-1.245-1.869-1.245-3.011c0-0.623,0.206-1.245,0.623-1.557C60.626,32.284,61.248,32.18,61.976,32.18z M45.885,53.565
		h-1.766h-1.556h-2.077h-0.519v0.519l0.104,0.52l0.415,0.104h1.039h2.282h1.352h1.868l2.387,0.104h1.869
		c0.52,0,0.727-0.208,0.83-0.728l0.311-1.35l0.105-1.557c0-0.312-0.105-0.415-0.105-0.415l-0.206,0.312l-1.038,0.934l-0.208,0.934
		c-0.104,0.52-0.312,0.832-0.728,0.728h-1.972L45.885,53.565z M45.365,41.626h-0.623c-0.623,0-0.83,0.209-0.83,0.52l-0.104,2.906
		l0.104,3.219l0.104,2.491l0.416,0.935l0.728,0.104l-0.105-2.389l-0.103-3.32l0.103-2.804c0-0.415,0.312-0.622,0.831-0.622h0.623
		h1.244H49c0.622,0,1.038-0.312,1.142-0.728l0.415-1.246l-0.208-0.208h-0.207l-1.039,0.104L49,40.797
		c-0.209,0.519-0.52,0.726-1.248,0.83h-1.141H45.365z M49.828,32.907l0.625,0.208c-0.415-0.622-0.936-1.039-1.662-1.35l-2.388-0.311
		l-1.244,0.104l-1.04,0.207l-0.104,1.247l-0.104,1.764v2.699v2.491c0.207-0.207,0.624-0.312,1.142-0.415v-1.039v-2.595l0.105-1.765
		l0.104-1.35l1.141-0.208h1.142L49.828,32.907z M51.905,32.7v-1.35l-0.311-0.519l-0.52-0.104h-0.312l0.104,0.935v1.35v0.415
		l0.728,0.83l0.311,0.312c0,0,0.104-0.208,0.104-0.519L51.905,32.7z M48.896,28.028c1.143-0.207,1.765-0.726,1.868-1.142
		c0.208-0.519,0.104-1.35-0.415-2.491l-0.521,0.312c0.313,0.622,0.313,1.141,0.21,1.557c-0.21,0.415-0.832,0.831-1.869,1.039
		l-5.71,0.726H41.63l-0.417,0.104l-0.311,0.311l0.311,0.208l1.869,0.103C45.263,28.754,47.233,28.443,48.896,28.028z M43.602,60.001
		l-1.143-0.727l-0.311,0.207H41.42c-1.556,0-3.01-0.312-4.67-0.935c-0.934-0.312-1.869-0.83-2.7-1.452
		c1.143,1.141,2.389,2.075,3.842,2.594c1.558,0.52,3.114,0.831,4.672,0.831h0.727c0.207,0,0.312-0.104,0.312-0.312
		C43.704,60.105,43.704,60.001,43.602,60.001z M36.854,51.8l-2.076-4.049c-0.622-1.142-1.35-2.076-2.077-2.906l-0.83-0.727
		c0.729,0.829,1.246,1.557,1.869,2.596l1.973,3.943c0.83,1.661,1.661,3.219,2.906,4.775l2.075,2.388l0.209,0.104l-1.143-1.35
		C38.618,55.018,37.683,53.357,36.854,51.8z M32.079,41.419c-0.936,0.519-1.973,0.832-3.012,0.935
		c0.727,0.104,1.351,0.415,1.973,1.038c0.83-0.208,1.559-0.52,2.181-0.935c0.935-0.52,1.764-1.35,2.387-2.284
		c0.52-0.934,0.831-2.18,0.935-3.529c-0.104-2.076-0.726-3.633-1.867-4.568l-0.313-0.103c0.623,0.83,0.937,2.076,0.937,3.529
		c0,1.35-0.313,2.595-0.833,3.529C33.739,40.07,33.014,40.797,32.079,41.419z M28.445,32.18c0.52-0.104,1.039,0.104,1.557,0.415
		l-0.518-0.622c-0.729-0.623-1.455-0.936-2.181-0.831l-1.351,0.312c-0.206,0.104-0.311,0.519-0.311,1.141v1.973v3.01v2.7v1.141
		v2.908v3.736l0.104,3.218v1.66l-0.104,0.52l-0.312,0.104h-1.453h-2.077H21.49l-0.104,0.519l0.104,0.52l0.519,0.104h1.039h2.076
		h1.349l0.312-0.104l0.104-0.52v-1.66l-0.104-3.322v-3.633v-2.284l-0.52-0.727l-0.312-0.207l-0.206-0.312
		c0-0.103,0.206-0.103,0.621-0.103l0.416-0.104v-0.415v-2.595V35.71v-2.077c0-0.519,0.104-0.934,0.416-1.141L28.445,32.18z
		 M18.063,32.18l-0.415-0.207c0.728,0.83,1.037,2.076,1.037,3.632c0,1.558-0.413,2.803-1.037,3.842
		c-0.726,1.038-1.557,1.869-2.595,2.388c-1.038,0.519-1.868,0.83-2.699,0.83l-1.143,0.519l-0.519,0.208l0.623,0.311h2.181
		c0.829,0,1.764-0.207,2.7-0.83c0.932-0.519,1.866-1.246,2.488-2.388c0.729-1.038,1.039-2.283,1.145-3.841
		C19.725,34.568,19.206,33.011,18.063,32.18z M10.383,32.493l1.245-0.312c0.622,0,1.142,0.104,1.661,0.52l-0.52-0.624
		c-0.83-0.622-1.453-1.039-2.283-0.934L9.24,31.454c-0.207,0.104-0.312,0.519-0.312,1.141v1.973l-0.103,3.01v2.7v1.141v3.218v3.944
		c0.207,2.596,0.311,4.152,0.519,4.567c0.207,0.312,0,0.416-0.312,0.416H7.579h-2.18H4.879v0.519l0.104,0.52l0.416,0.104h1.142
		h2.181h1.453c0.415-0.104,0.519-0.207,0.415-0.414c-0.312-0.52-0.415-2.078-0.518-4.568l-0.105-3.945v-3.218l-0.415-0.207
		l0.415-0.208v-0.831l0.105-2.595V35.71v-1.973C10.072,33.115,10.175,32.7,10.383,32.493z M146.58,33.53
		c-0.416-0.727-1.248-1.246-2.286-1.454l-2.801-0.312v1.247v3.114v3.217l0.104,3.011v3.634l0.104,3.32v1.869v1.35l0.207,0.622
		c0.104,0.416,0,0.624-0.311,0.624h-0.104h-1.143h-1.661h-1.142v0.83c0.104,0.208,0.208,0.208,0.414,0.208h0.105h1.557h1.869
		l1.141,0.103c0.416,0,0.521-0.207,0.416-0.621l-0.104-0.624l-0.103-1.35l-0.105-1.868v-3.322v-3.633l-0.104-3.011v-3.321v-3.011
		v-1.246l2.908,0.208L146.58,33.53z M146.683,30.935l0.104,1.039l0.104,1.557v0.207l0.832,0.935l0.205,0.208l0.104-0.312
		l-0.104-1.453l-0.205-1.557l-0.209-0.52l-0.623-0.103H146.683z M136.405,31.765l-2.803,0.312c-0.416,0.104-0.829,0.208-1.245,0.519
		v0.416l-0.104,1.557c0,0.208,0.104,0.312,0.104,0.312l0.209-0.208c0.518-0.83,1.245-1.35,2.179-1.453l1.765-0.207L136.405,31.765z
		 M130.592,31.142l-0.104-0.104h-0.727h-0.831v2.284v4.88v5.605v4.878v2.492v1.557v0.623c0.105,0.208-0.104,0.416-0.414,0.416h-1.35
		h-0.935l-1.661-0.416l0.727,0.83c0.519,0.416,1.246,0.624,2.076,0.624h0.935h1.35l0.416-0.312v-0.727v-1.559v-2.49v-4.776V39.24
		v-4.775v-2.181c0-0.519,0.206-0.83,0.414-0.934L130.592,31.142z M122.185,34.568l-0.831-2.075
		c-0.415-0.831-0.831-1.351-1.453-1.558l0.312,0.52l0.83,2.076l1.766,4.152l1.868,4.672l1.557,3.737l0.727,1.556v-1.556
		l-1.143-2.699l-1.866-4.671L122.185,34.568z M116.682,36.333v1.453v3.737v4.465v3.736v1.869l0.104,1.037
		c0,0.416,0.208,0.623,0.312,0.727l0.206,0.208l-0.206,0.208h-0.521h-0.832v0.623c0,0.415,0.106,0.415,0.314,0.415h0.104h0.622
		h0.935h0.521l0.205-0.208l-0.205-0.207c-0.106-0.104-0.209-0.312-0.314-0.623l-0.104-1.039v-1.868v-3.841v-4.464v-3.529
		l-0.519-1.35L116.682,36.333z M111.595,52.007l-0.207,0.934c-0.103,0.52-0.415,0.832-0.831,0.728h-1.867l-2.492-0.104h-1.764
		h-1.454h-2.181h-0.415v0.519l0.104,0.52l0.311,0.104h1.143h2.18h1.453h1.766l2.49,0.104h1.765h0.105
		c0.413,0,0.727-0.208,0.83-0.728l0.208-1.35l0.207-1.557l-0.104-0.415l-0.312,0.312L111.595,52.007z M112.219,31.35l-0.312-0.519
		l-0.519-0.104h-0.312l0.104,0.935l0.104,1.35l-0.104,0.415l0.831,0.83l0.207,0.312l0.208-0.519l-0.104-1.349L112.219,31.35z
		 M105.781,41.626h-0.622c-0.622,0-0.934,0.209-0.934,0.52v2.906v3.219l0.104,2.491c0.104,0.415,0.208,0.727,0.415,0.935l0.83,0.104
		l-0.207-2.389v-3.32v-2.804c0-0.415,0.312-0.622,0.934-0.622h0.623h1.143h1.246c0.725,0,1.038-0.312,1.244-0.728l0.312-1.246
		l-0.105-0.208h-0.311l-1.038,0.104v0.208c-0.207,0.519-0.519,0.726-1.245,0.83h-1.246H105.781z M105.367,35.917l0.104-1.765
		c-0.104-0.623,0-1.142,0.208-1.35l1.037-0.208h1.248l2.282,0.312l0.623,0.208c-0.416-0.622-1.039-1.039-1.765-1.35l-2.284-0.311
		l-1.246,0.104l-1.037,0.207c-0.208,0.208-0.208,0.623-0.208,1.247v1.764v2.699l-0.104,2.491c0.312-0.207,0.623-0.312,1.142-0.415
		v-1.039V35.917z M75.574,33.53v-1.972c0.103-0.52-0.104-0.727-0.519-0.623H74.64h-0.207v1.453l-0.104,3.322l-0.104,3.217v2.908
		v3.736l0.104,3.321l0.104,1.973l0.103,1.349l0.209,0.935l0.104,0.416l-0.104,0.208l-1.559-0.104h-2.283h-0.312l-0.103,0.728
		l0.31,0.415h1.352h2.075h1.558l0.207-0.104l-0.207-0.414l-0.105-0.936l-0.103-1.35l-0.104-1.868V46.61l-0.104-3.737l0.104-2.802
		v-3.323L75.574,33.53z M96.024,35.087c-0.52-1.038-1.245-1.765-2.076-2.387l1.038,1.349c1.038,1.557,1.558,3.841,1.558,6.851
		c0,3.012-0.622,5.295-1.66,7.268c-1.039,1.972-2.285,3.321-3.843,4.256c-1.452,0.83-3.01,1.35-4.463,1.35H86.37h-3.841h-2.596v0.52
		c0,0.414,0.209,0.621,0.623,0.621h0.312l2.697-0.103l3.946,0.103h0.206c1.454,0,3.012-0.518,4.466-1.453
		c1.558-0.934,2.802-2.283,3.84-4.256c1.037-1.869,1.558-4.257,1.661-7.267C97.582,39.032,97.062,36.644,96.024,35.087z
		 M85.124,35.294c0-1.349,0-2.18,0.312-2.595c0.104-0.312,0.519-0.52,1.038-0.416c0.726-0.104,1.557,0.209,2.491,0.831l-1.039-1.039
		c-0.934-0.622-1.764-0.934-2.594-0.934c-0.52,0-0.936,0.104-1.039,0.52c-0.208,0.312-0.312,1.141-0.312,2.491l-0.103,2.491v3.218
		v2.699v2.595l0.103,3.115l0.104,2.595c0,0.623,0.104,1.142,0.312,1.349c0.104,0.104,0.207,0.209,0.519,0.104h0.208h0.209
		l-0.105-0.415l-0.104-2.492l-0.104-3.217v-2.596v-2.595v-3.322L85.124,35.294z"/>
	<path fill="#E6CA2A" d="M75.159,77.128c-0.208,0-0.208,0.105,0,0.416c0.83,0.623,1.557,1.246,2.18,2.18l1.349,1.973
		c0.416,0.623,0.832,0.935,1.246,0.935l0.728-0.104l0.934-0.104l0.726-0.104l0.312-0.311l-0.414-0.52l-0.313-0.207l-1.972-1.35
		l-1.557-0.936l-0.312-0.311h0.312l2.492,1.246l1.66,1.141l1.037,0.728l0.936,0.208l1.038-0.105l0.83-0.103l0.415-0.208
		c-0.104-0.208-0.207-0.311-0.52-0.52c-0.311-0.311-1.038-0.727-1.972-1.245s-2.284-1.038-3.737-1.557
		C79.104,77.752,77.235,77.336,75.159,77.128z M88.446,77.234h-0.208L87.2,77.336c-0.31,0-0.52,0.104-0.52,0.208
		c0.21,0.208,0.623,0.414,1.351,0.623l2.076,0.416l1.867,0.207l1.454,0.104l4.049-0.52l3.218-0.934l3.945-0.519l0.415-0.104
		l-0.415-0.415c-0.726-0.415-1.765-0.831-3.115-1.349c-1.452-0.52-3.009-0.729-4.879-0.832l-2.075,0.208
		c-1.038,0.104-2.076,0.415-3.011,0.935c-1.038,0.52-1.765,0.934-1.972,1.246h1.452h1.246l2.699-0.104l2.596-0.209l1.35-0.104h0.311
		c0.521,0,0.415,0.104-0.415,0.312l-2.283,0.311l-4.257,0.311l-3.634,0.105H88.446z M91.352,74.222l1.974-1.244l0.83-0.936
		l0.105-0.311l-0.312-0.104l-4.152,0.415h-2.077l-2.076-0.104l-3.424,0.312c-2.285,0.519-3.842,1.038-4.672,1.765l-1.454,1.039
		c-0.311,0.207-0.311,0.414-0.207,0.518l0.414,0.104l4.881-0.622l4.774-0.936l2.802-0.622l0.312-0.104l0.206,0.104l-0.519,0.312
		l-5.293,1.453l-4.05,0.623l-1.867,0.207l-0.52,0.104c0,0.104,0.208,0.208,0.52,0.208l4.048,0.52l1.038-0.104
		c2.181-0.104,3.945-0.52,5.398-1.038C89.381,75.365,90.522,74.845,91.352,74.222z M116.682,67.787l-4.048-0.311
		c-1.558-0.105-3.321,0.207-5.086,0.83l-1.869,0.621l-1.868,0.936l-2.285,1.557l-0.311,0.312l0.52,0.207h0.415l4.151-0.727
		l3.529-0.83l1.351-0.52l0.311-0.104l0.209-0.104c0.312,0,0.312,0.207-0.105,0.416l-0.519,0.311c-1.246,0.52-3.112,1.037-5.709,1.66
		l-2.076,0.416l-2.697,0.207c-0.625,0-0.937,0.208-1.039,0.415c-0.209,0.208,0.103,0.416,0.726,0.416h0.726l3.531-0.208
		c1.556-0.104,3.218-0.415,4.775-0.934l3.84-1.559l3.322-1.557l2.18-0.934L116.682,67.787z M100.695,64.984l-3.529,1.973
		c-1.453,1.037-2.802,2.389-4.152,3.945l0.729-0.105l1.037-0.104l0.934,0.311l1.142-0.726l6.956-4.982l0.311-0.104h0.104
		c0.104-0.104,0.104,0.104-0.208,0.519l-3.114,2.596l-5.398,3.528l-0.519,0.831l-0.415,0.415l0.415-0.103l2.18-0.52l3.322-1.557
		c1.453-1.039,2.7-2.285,3.737-3.531c0.934-1.141,1.66-2.179,2.179-3.217l0.727-1.453c0.209-0.416,0.105-0.624-0.207-0.624
		l-1.557,1.038c-0.623,0.312-1.246,0.623-2.076,0.83L100.695,64.984z M124.987,57.198l-0.935-0.103c-1.038,0-2.597,0.311-4.672,0.83
		c-1.973,0.622-4.257,1.764-6.747,3.321c-2.597,1.661-5.19,3.945-7.785,7.06l1.037-0.52l2.804-0.83l1.867-2.077l2.389-1.765
		c1.662-1.141,3.115-1.973,4.359-2.49c1.35-0.623,2.076-0.936,2.389-1.039h0.207c0.207,0.104,0.104,0.208-0.207,0.416
		c-0.104,0-0.831,0.312-2.181,1.037l-4.774,2.906l-2.182,1.766c-0.52,0.623-0.727,1.038-0.727,1.038l0.623-0.208l0.935-0.104
		c2.181-0.414,4.049-1.245,5.711-2.388l4.357-3.529c1.352-1.35,2.494-2.181,3.427-2.803l0.415-0.312L124.987,57.198z M65.816,79.933
		l2.388-1.246h0.311l-0.311,0.311l-1.454,0.936l-1.971,1.35l-0.416,0.207l-0.416,0.52l0.416,0.311l0.622,0.104l0.935,0.104
		l0.727,0.104c0.415,0,0.83-0.312,1.246-0.935l1.453-1.973c0.623-0.934,1.245-1.557,2.18-2.18c0.104-0.311,0.104-0.416,0-0.416
		c-2.18,0.208-4.049,0.624-5.502,1.144c-1.454,0.519-2.698,1.038-3.736,1.557l-2.077,1.245l-0.416,0.52l0.416,0.208l0.935,0.103
		l1.038,0.105l0.83-0.208l1.04-0.728L65.816,79.933z M47.13,73.081c-0.103-0.207-0.519-0.415-1.038-0.415l-2.699-0.207l-2.18-0.416
		l-3.321-0.934l-2.284-0.727l-0.623-0.311c-0.31-0.209-0.31-0.416-0.104-0.416l0.312,0.104l0.209,0.104l1.452,0.52l3.528,0.83
		l4.154,0.727h0.312l0.518-0.207c0.104,0,0-0.104-0.206-0.312l-2.389-1.557l-1.868-0.936l-1.869-0.621
		c-1.66-0.623-3.426-0.936-5.087-0.83l-3.944,0.311l-1.973,0.52l2.077,0.934l3.321,1.557l3.842,1.559l4.773,0.934l3.53,0.208h0.728
		C47.027,73.497,47.233,73.289,47.13,73.081z M52.01,74.43l-2.076-0.208c-1.765,0.104-3.426,0.312-4.88,0.832
		c-1.452,0.518-2.49,0.934-3.113,1.349l-0.415,0.415l0.415,0.104l4.048,0.519l3.114,0.934l4.049,0.52l1.453-0.104l1.869-0.207
		l2.076-0.416l1.244-0.623c0.104-0.104-0.104-0.208-0.413-0.208l-1.038-0.103h-0.21h-0.206l-3.633-0.105l-4.256-0.311l-2.286-0.311
		l-0.725-0.209l0.206-0.104h0.519l1.351,0.104l2.492,0.209l2.699,0.104h0.726h0.519h1.454l-1.973-1.246
		C53.982,74.845,52.943,74.535,52.01,74.43z M52.424,72.042l1.038,0.936l1.767,1.244l3.425,1.662l5.399,0.934l1.037,0.104
		l3.945-0.52l0.518-0.208l-0.312-0.104l-1.973-0.207l-4.048-0.623l-5.294-1.453l-0.519-0.312l0.207-0.104l0.312,0.104l2.803,0.622
		l4.671,0.936l4.982,0.622l0.415-0.104c0.104-0.104,0-0.311-0.207-0.518l-1.452-1.039c-0.831-0.727-2.389-1.246-4.672-1.765
		l-3.53-0.312l-1.972,0.104h-2.076l-4.153-0.415l-0.312,0.104V72.042z M43.29,63.945l-2.077-0.83l-1.349-1.038h-0.208
		c-0.207,0-0.312,0.208-0.207,0.624l0.83,1.453l2.18,3.217c0.934,1.246,2.181,2.492,3.737,3.531
		c1.349,0.726,2.388,1.244,3.218,1.557l2.181,0.52l0.519,0.103l-0.415-0.415l-0.623-0.831l-5.294-3.528l-3.218-2.596l-0.209-0.519
		h0.209l0.207,0.104l7.058,4.982l1.144,0.726c0.104-0.102,0.415-0.311,0.934-0.311l0.934,0.104l0.832,0.105
		c-1.351-1.557-2.804-2.908-4.257-3.945c-1.35-0.83-2.49-1.558-3.426-1.973L43.29,63.945z M35.92,64.879l1.972,2.077l2.699,0.83
		l1.141,0.52c-2.698-3.114-5.189-5.398-7.785-7.06c-2.49-1.558-4.774-2.699-6.746-3.321c-2.076-0.52-3.633-0.83-4.672-0.83
		l-0.935,0.103c-0.312,0-0.312,0.208-0.312,0.208l0.416,0.312c0.935,0.622,2.077,1.453,3.427,2.803l4.36,3.529
		c1.659,1.143,3.529,1.974,5.708,2.388l0.935,0.104l0.623,0.208l-0.83-1.038c-0.622-0.519-1.245-1.142-2.181-1.766
		c-1.869-1.349-3.427-2.387-4.672-2.906c-1.35-0.726-2.077-1.037-2.179-1.037c-0.416-0.208-0.416-0.312-0.208-0.416h0.208
		l2.387,1.039c1.247,0.518,2.699,1.35,4.36,2.49C34.465,63.634,35.192,64.154,35.92,64.879z M39.449,12.769l-0.312,0.726l-0.31,0.52
		c0.104,0.103,0.622-0.104,1.244-0.415c0.727-0.312,1.454-0.727,2.181-1.143l4.151-3.217l1.559-1.558l0.311-0.207
		c0.208,0,0.208,0.104,0,0.311l-1.559,1.869c-0.933,0.831-2.178,1.869-3.632,2.907c-0.728,0.519-1.557,1.038-2.389,1.453
		c-0.829,0.415-1.763,0.83-2.49,1.038c-0.728,0.934-1.35,1.661-1.765,2.18l-0.622,0.727c4.048-1.557,7.162-3.114,9.343-4.878
		c2.282-1.766,3.841-3.426,4.879-4.983c0.829-1.557,1.349-2.803,1.452-3.531l-0.104-0.415l-0.52,0.312
		C50.038,5.19,49,5.917,47.545,6.54c-1.349,0.519-2.803,1.35-4.255,2.283C41.836,9.757,40.486,11.107,39.449,12.769z M32.389,20.243
		c-1.765,1.038-2.904,1.869-3.527,2.595l-0.936,1.349v0.312l0.415-0.208l6.437-3.529l3.633-1.349l0.417-0.104
		c0.104,0,0.104,0.104,0,0.208l-0.209,0.104c-2.906,1.351-5.19,2.492-7.162,3.53l-4.049,2.596l-0.417,0.519h0.417h0.726
		c2.491-0.416,4.567-1.038,6.332-2.077l3.115-1.972l1.869-1.661l1.764-1.247l1.351-0.726c0.104-0.104,0.207-0.104,0.104-0.311
		l-0.519-0.208H41.42l-3.84,0.416C35.92,18.686,34.259,19.308,32.389,20.243z M31.662,19.412l-0.206,0.415v0.208h0.206
		c1.247-0.831,2.077-1.35,2.597-1.869c0.519-0.416,1.039-0.934,1.558-1.557c1.037-1.038,1.764-2.077,2.282-3.219
		c0.623-1.141,0.935-2.179,1.143-3.114c0.208-0.935,0.312-1.453,0.208-1.661l-1.246,1.246l-2.387,1.87l-2.389,2.283
		c-0.728,0.83-1.349,1.66-1.868,2.491l-1.247,2.284l-0.623,1.349c-0.103,0.519-0.103,0.727,0.104,0.727
		c0.208,0,0.416-0.208,0.729-0.623l1.037-1.869l0.935-1.453l1.765-2.077l1.349-1.454l0.415-0.311l0.209-0.104
		c0.103,0,0.103,0.208,0,0.311l-0.209,0.208l-0.83,0.831l-1.765,2.284C32.494,17.75,31.975,18.686,31.662,19.412z M28.549,15.363
		l-0.208,0.104l-0.934,1.143l-1.765,2.076l-1.246,1.869l-1.143,2.699c-0.415,0.934-0.518,1.973-0.622,3.218l0.207,0.935
		c0,0.208,0.313,0.416,0.519,0.416l0.521-1.661l0.622-1.661l2.389-4.672l0.312-0.519c0.104,0.104,0,0.208-0.21,0.519l-0.726,1.869
		l-1.349,3.011L24.5,26.056l-0.52,1.454l0.209,0.312c0.207,0,0.519-0.208,0.935-0.519l0.829-1.039
		c1.247-2.181,2.076-4.152,2.284-5.709c0.312-1.661,0.414-3.218,0.414-4.672C28.651,15.467,28.549,15.363,28.549,15.363z
		 M118.135,15.363c-0.103-0.104-0.103,0.104-0.103,0.519c0,1.35,0.103,2.907,0.312,4.568c0.311,1.661,1.037,3.529,2.283,5.813
		l0.934,1.039c0.416,0.311,0.729,0.519,0.935,0.519l0.209-0.416l-0.52-1.454l-0.519-1.349l-1.247-3.01l-0.829-1.766
		c-0.209-0.311-0.209-0.519-0.209-0.519l0.415,0.416l0.937,1.661l1.452,3.01l0.623,1.661l0.519,1.661
		c0.207,0,0.415-0.104,0.519-0.415l0.208-0.832c-0.103-1.245-0.312-2.284-0.623-3.218l-1.141-2.699l-1.351-1.973l-1.661-2.077
		l-0.934-1.038L118.135,15.363z M108.273,19.308l3.633,1.454l6.335,3.425l0.517,0.208v-0.208l-0.935-1.349l-3.633-2.699
		c-1.764-0.934-3.427-1.557-5.189-1.764l-3.737-0.416h-0.727l-0.52,0.208l0.104,0.416l1.35,0.726l1.66,1.247l1.87,1.557l3.112,2.075
		c1.87,0.935,3.947,1.558,6.438,1.973l0.727,0.104l0.416-0.104l-0.416-0.415l-4.153-2.596c-1.867-1.038-4.151-2.284-7.058-3.53
		l-0.208-0.104c-0.207-0.208-0.104-0.208,0-0.208H108.273z M107.131,8.616c-0.104,0.208,0,0.726,0.209,1.661
		c0.208,0.935,0.624,1.973,1.142,3.114c0.52,1.142,1.245,2.181,2.282,3.219l1.663,1.557c0.519,0.52,1.245,1.038,2.491,1.869h0.206
		l0.104-0.208l-0.206-0.415l-1.765-2.803l-1.869-2.284l-0.831-0.831l-0.104-0.208c-0.207-0.103-0.207-0.207-0.103-0.311l0.206,0.104
		l0.52,0.311l1.351,1.454l1.764,2.077l0.934,1.453l1.04,1.869l0.622,0.623c0.312,0,0.312-0.208,0.104-0.727l-0.623-1.349
		l-1.143-2.284l-1.972-2.491l-2.389-2.283l-2.282-1.87L107.131,8.616z M98.309,7.371l0.312,0.311l1.556,1.454
		c1.039,1.039,2.389,2.077,4.153,3.218c0.83,0.519,1.557,0.934,2.18,1.142c0.728,0.416,1.143,0.52,1.35,0.52l-0.415-0.52
		l-0.312-0.726c-1.038-1.765-2.282-3.115-3.84-4.049l-4.256-2.284c-1.453-0.623-2.491-1.246-3.322-1.973l-0.416-0.312l-0.208,0.312
		c0.105,0.831,0.521,2.077,1.455,3.634c1.038,1.557,2.595,3.114,4.877,4.878c2.284,1.869,5.399,3.426,9.343,4.879h0.105
		l-0.832-0.727l-1.556-2.18c-0.83-0.208-1.661-0.623-2.596-1.038c-0.83-0.416-1.557-0.935-2.283-1.349L99.969,9.55l-1.66-1.765
		C98.101,7.578,98.101,7.371,98.309,7.371z"/>
	<path fill="#E7E6E6" d="M83.047,4.983v8.927c0,1.764-0.518,3.114-1.452,3.945l-2.181,1.349l0.935,0.831l1.143,1.557l1.246,1.868
		l0.31,0.519l0.833-0.312l2.179-0.831l2.076-0.519c0.622-0.207,1.351-0.623,1.868-1.038c0.623-0.519,0.935-1.245,1.246-2.284
		l0.622-2.387l0.831-3.323l0.727-3.113l0.52-1.765l-0.104-0.208l-1.767-0.83l-4.462-1.558L83.047,4.983z M85.021,7.681h0.104
		l0.623,0.312c0.312,0.208,0.416,0.519,0.416,0.934c-0.208,0.415-0.521,0.624-0.83,0.727L85.021,9.55
		c-0.207-0.104-0.416-0.208-0.416-0.311c-0.414-0.104-0.519-0.52-0.519-0.935C84.294,7.89,84.502,7.681,85.021,7.681z
		 M84.604,12.665l0.832-1.453l1.142-2.492l0,0l0.103,0.207l-0.103,0.935l-0.104,1.662c-0.104,0.519,0,0.934,0,1.349l0.104,0.727
		l-0.415,0.104l-0.83,0.208l-0.209-0.208v0.104l-0.52-0.623l-0.103-0.208L84.604,12.665z M84.604,16.609
		c-0.311-0.208-0.519-0.52-0.414-0.935c0.207-0.311,0.414-0.622,0.934-0.622h0.209l0.519,0.311c0.312,0.208,0.414,0.519,0.312,0.935
		l-0.208,0.415h0.104h0.207l0.52,0.311c0.415,0.104,0.519,0.416,0.415,0.935c-0.103,0.416-0.415,0.623-0.83,0.623h-0.207
		l-0.521-0.311l-0.31-0.312c-0.209-0.104-0.209-0.312-0.209-0.519l0.416-0.519h-0.207h-0.209L84.604,16.609z M83.464,16.194h0.103
		l0.52,0.311c0.416,0.208,0.519,0.519,0.519,0.935c-0.207,0.519-0.519,0.623-0.933,0.727l-0.208-0.104
		c-0.208,0-0.417-0.104-0.519-0.312c-0.416-0.104-0.416-0.415-0.416-0.83C82.737,16.505,82.945,16.298,83.464,16.194z M86.891,6.54
		h-0.21c-0.518,0-0.726,0.208-0.934,0.623c-0.104,0.416,0.104,0.623,0.416,0.831l0.518,0.311l0.312,0.104H87.2l0.312-0.208
		l0.206-0.52c0.208-0.415,0-0.727-0.31-0.934l0.104,0.831c-0.104,0.312-0.415,0.519-0.832,0.623l-0.206-0.104
		c-0.104,0-0.312,0-0.312-0.104c-0.312-0.208-0.521-0.415-0.416-0.831c0.208-0.415,0.416-0.623,0.934-0.623H86.891l0.519,0.208
		c0.31,0.207,0.518,0.519,0.31,0.934l-0.206,0.52h0.206h0.208l0.52,0.312c0.311,0.208,0.415,0.519,0.311,0.934
		c-0.104,0.416-0.311,0.624-0.83,0.728l-0.208-0.104c-0.206-0.104-0.415-0.208-0.519-0.312c-0.31-0.207-0.52-0.518-0.415-0.934
		L87.2,8.408h-0.207l-0.312-0.104l-0.518-0.311c0,0.104,0.207,0.104,0.312,0.104l0.206,0.104c0.417-0.104,0.729-0.311,0.832-0.623
		l-0.104-0.831L86.891,6.54z M90.314,10.9l0.52,0.312c0.312,0.207,0.415,0.52,0.415,0.934c-0.103,0.208-0.208,0.416-0.415,0.623
		l0.312-0.208h0.205l0.52,0.311c0.313,0.208,0.52,0.519,0.416,0.934c-0.209,0.519-0.416,0.623-0.936,0.727l-0.205-0.104
		l-0.416-0.208c-0.416-0.208-0.519-0.416-0.519-0.935l0.414-0.518h-0.312h-0.207l-0.519-0.312c-0.313-0.207-0.416-0.52-0.416-0.934
		c0.103-0.312,0.416-0.623,0.935-0.623H90.314z M88.653,12.042l0.52,0.311c0.312,0.208,0.416,0.519,0.416,0.934
		c-0.208,0.52-0.416,0.624-0.936,0.728l-0.103-0.104c-0.312,0-0.416-0.104-0.624-0.311c-0.311-0.208-0.414-0.519-0.414-0.831
		c0.206-0.416,0.414-0.623,0.934-0.727H88.653z M89.899,13.08l-0.104,0.311l0.207-0.207l0.209,0.207l-0.209,0.935l-0.207,1.661v1.35
		l0.207,0.726h-0.414l-0.832,0.312l-0.104-0.312l-0.207,0.104l-0.312-0.623l-0.312-0.104l0.208-0.416l0.726-1.453L89.899,13.08z
		 M84.916,17.232l0.208,0.208l-0.104,1.038l-0.104,1.558c-0.103,0.519,0,1.038,0,1.453l0.104,0.623l-0.416,0.104l-0.829,0.208
		l-0.104-0.208l-0.208,0.104l-0.417-0.623l-0.206-0.103l0.206-0.416l0.729-1.453L84.916,17.232z"/>
	<g>
		<path d="M85.124,7.681h-0.104c-0.519,0-0.727,0.209-0.935,0.623c0,0.416,0.104,0.831,0.519,0.935l0.209,0.103h0.207
			c0.416,0,0.622-0.207,0.831-0.622l-0.104-0.727L85.124,7.681z"/>
		<path d="M85.124,7.681h-0.104c-0.519,0-0.727,0.209-0.935,0.623c0,0.416,0.104,0.831,0.519,0.935l0.209,0.103h0.207
			c0.416,0,0.622-0.207,0.831-0.622l-0.104-0.727L85.124,7.681z"/>
		<path d="M85.437,11.211l-0.832,1.453l-0.103,0.311l0.103,0.208l0.52,0.623v-0.104l0.831-0.312h0.311l-0.103-0.622
			c0-0.519,0-1.038,0-1.454l0.207-1.661l0.208-0.831V8.72l0,0L85.437,11.211z"/>
		<path d="M85.437,11.211l-0.832,1.453l-0.103,0.311l0.103,0.208l0.52,0.623v-0.104l0.831-0.312h0.311l-0.103-0.622
			c0-0.519,0-1.038,0-1.454l0.207-1.661l0.208-0.831V8.72l0,0L85.437,11.211z"/>
		<path d="M84.19,15.674c-0.104,0.416,0.104,0.728,0.414,0.935l0.312,0.104h0.208c0.416,0,0.728-0.208,0.831-0.623l-0.104-0.727
			l-0.519-0.311h-0.209C84.604,15.052,84.397,15.363,84.19,15.674z"/>
		<path d="M84.19,15.674c-0.104,0.416,0.104,0.728,0.414,0.935l0.312,0.104h0.208c0.416,0,0.728-0.208,0.831-0.623l-0.104-0.727
			l-0.519-0.311h-0.209C84.604,15.052,84.397,15.363,84.19,15.674z"/>
		<path d="M86.059,16.713h-0.104l-0.415,0.208l-0.416,0.519c0,0.208,0,0.416,0.209,0.519l0.31,0.312l0.209,0.104l0.207,0.104
			c0.52-0.104,0.832-0.312,0.935-0.727l-0.208-0.727l-0.52-0.311H86.059z"/>
		<path d="M86.059,16.713h-0.104l-0.415,0.208l-0.416,0.519c0,0.208,0,0.416,0.209,0.519l0.31,0.312l0.209,0.104l0.207,0.104
			c0.52-0.104,0.832-0.312,0.935-0.727l-0.208-0.727l-0.52-0.311H86.059z"/>
		<path d="M83.566,16.194h-0.103c-0.519,0.104-0.727,0.311-0.935,0.727c0,0.415,0,0.726,0.416,0.83l0.311,0.208h0.208
			c0.416,0,0.622-0.312,0.83-0.727l-0.104-0.623l-0.104-0.104L83.566,16.194z"/>
		<path d="M83.566,16.194h-0.103c-0.519,0.104-0.727,0.311-0.935,0.727c0,0.415,0,0.726,0.416,0.83l0.311,0.208h0.208
			c0.416,0,0.622-0.312,0.83-0.727l-0.104-0.623l-0.104-0.104L83.566,16.194z"/>
		<path d="M87.513,8.201L87.2,8.408l-0.415,0.415C86.681,9.239,86.891,9.55,87.2,9.757l0.312,0.104h0.206
			c0.416,0,0.728-0.208,0.832-0.622l-0.104-0.727l-0.52-0.312h-0.208H87.513z"/>
		<path d="M87.513,8.201L87.2,8.408l-0.415,0.415C86.681,9.239,86.891,9.55,87.2,9.757l0.312,0.104h0.206
			c0.416,0,0.728-0.208,0.832-0.622l-0.104-0.727l-0.52-0.312h-0.208H87.513z"/>
		<path d="M90.834,11.211l-0.52-0.312h-0.207c-0.519,0-0.832,0.312-0.935,0.623c0,0.414,0.103,0.727,0.416,0.934l0.207,0.104h0.312
			c0.415,0,0.727-0.208,0.83-0.624L90.834,11.211z"/>
		<path d="M90.834,11.211l-0.52-0.312h-0.207c-0.519,0-0.832,0.312-0.935,0.623c0,0.414,0.103,0.727,0.416,0.934l0.207,0.104h0.312
			c0.415,0,0.727-0.208,0.83-0.624L90.834,11.211z"/>
		<path d="M87.413,6.796l-0.518-0.312h-0.209c-0.519,0-0.83,0.312-0.935,0.623c0,0.416,0.104,0.727,0.416,0.935l0.208,0.104h0.311
			c0.415,0,0.727-0.208,0.831-0.623L87.413,6.796z"/>
		<path d="M90.834,12.769h-0.208l-0.414,0.518c0,0.52,0.103,0.728,0.519,0.935l0.104,0.104h0.312c0.414,0,0.725-0.311,0.828-0.726
			l-0.104-0.727l-0.52-0.311h-0.205L90.834,12.769z"/>
		<path d="M90.834,12.769h-0.208l-0.414,0.518c0,0.52,0.103,0.728,0.519,0.935l0.104,0.104h0.312c0.414,0,0.725-0.311,0.828-0.726
			l-0.104-0.727l-0.52-0.311h-0.205L90.834,12.769z"/>
		<path d="M89.173,12.353l-0.52-0.311h-0.207c-0.52,0.104-0.728,0.311-0.934,0.727c0,0.312,0.104,0.622,0.414,0.831l0.312,0.207
			h0.208c0.415,0,0.727-0.312,0.829-0.726L89.173,12.353z"/>
		<path d="M89.173,12.353l-0.52-0.311h-0.207c-0.52,0.104-0.728,0.311-0.934,0.727c0,0.312,0.104,0.622,0.414,0.831l0.312,0.207
			h0.208c0.415,0,0.727-0.312,0.829-0.726L89.173,12.353z"/>
		<path d="M89.796,13.391l0.104-0.311l-1.143,2.491l-0.726,1.453l-0.208,0.416l0.312,0.104l0.312,0.623l0.207-0.104l0.622-0.207
			l0.417-0.104l-0.104-0.623c0-0.519-0.104-0.934,0-1.454l0.207-1.66V13.391z"/>
		<path d="M89.796,13.391l0.104-0.311l-1.143,2.491l-0.726,1.453l-0.208,0.416l0.312,0.104l0.312,0.623l0.207-0.104l0.622-0.207
			l0.417-0.104l-0.104-0.623c0-0.519-0.104-0.934,0-1.454l0.207-1.66V13.391z"/>
		<path d="M84.813,18.166l0.103-0.934l-1.141,2.492l-0.729,1.453l-0.206,0.416l0.206,0.103l0.417,0.623l0.208-0.104l0.622-0.208
			l0.311-0.104V21.28c0-0.519-0.103-0.934,0-1.454L84.813,18.166z"/>
		<path d="M84.813,18.166l0.103-0.934l-1.141,2.492l-0.729,1.453l-0.206,0.416l0.206,0.103l0.417,0.623l0.208-0.104l0.622-0.208
			l0.311-0.104V21.28c0-0.519-0.103-0.934,0-1.454L84.813,18.166z"/>
	</g>
	<path fill="#D03839" d="M62.703,29.481l-1.974-0.104L57.511,30c-1.037,0.416-1.973,1.038-2.595,1.973
		c-0.727,1.038-1.037,2.18-1.037,3.737c0,1.454,0.415,2.699,1.244,3.737l2.908,3.114c1.037,0.935,2.076,1.973,2.905,3.011
		c0.831,1.038,1.246,2.18,1.246,3.529c0,1.038-0.312,1.765-0.935,2.283c-0.727,0.416-1.659,0.729-2.803,0.729
		c-1.037,0.102-1.972-0.209-2.699-0.832L54.5,50.243l-0.829-1.142l-0.209-0.312l-0.103,0.415v1.038l0.103,1.558l0.312,1.141
		l0.936,0.52l4.358,0.623c1.142,0,2.387-0.311,3.529-0.83c1.144-0.52,2.076-1.246,2.803-2.388c0.83-1.038,1.246-2.491,1.246-4.256
		c0-1.662-0.416-3.218-1.246-4.463c-0.621-0.831-1.348-1.662-2.075-2.388l-0.832-0.832l-0.311-0.207l-0.207-0.208l-2.387-2.387
		c-0.936-0.831-1.246-1.869-1.352-2.907c0-0.726,0.208-1.245,0.728-1.557l1.765-0.52c0.936,0,1.661,0.208,2.388,0.52
		c0.726,0.415,1.246,0.831,1.766,1.453l0.207,0.207l0.311,0.312v-0.312v-1.349v-1.246V30.52c-0.103-0.52-0.311-0.623-0.621-0.726
		L62.703,29.481z M38.722,31.973l0.105,3.944l0.104,5.086v5.294l-0.104,4.464v2.179l0.104,0.52l0.414,0.104h0.623h0.519h2.077h1.556
		h1.766l2.388,0.104h1.869c0.519,0.104,0.726-0.208,0.83-0.728l0.208-0.934l0.104-0.414l0.104-1.454l-0.104-0.519l-0.208,0.311
		c-0.415,0.52-0.831,0.935-1.558,1.246l-2.076,0.52L45.678,51.8h-0.312h-0.206l-0.728-0.104l-0.416-0.935l-0.104-2.491l-0.104-3.219
		l0.104-2.906c0-0.311,0.207-0.52,0.83-0.52h0.623h1.246h1.141c0.729-0.104,1.039-0.311,1.248-0.83l0.103-0.208l0.207-1.038
		c0.104-0.104,0-0.208-0.104-0.208L49,39.447l-1.248,0.104h-1.66h-0.829h-0.209c-0.518,0.103-0.935,0.208-1.142,0.415v-2.491v-2.699
		l0.104-1.764l0.104-1.247l1.04-0.207l1.244-0.104l2.388,0.311c0.727,0.312,1.247,0.728,1.662,1.35l0.311,0.312l0.104-0.415v-1.35
		l-0.104-0.935v-0.519c-0.104-0.415-0.415-0.623-0.83-0.623l-2.804,0.208l-4.359,0.103l-4.049-0.208l-0.413,0.105l0.102,0.31
		C38.515,30.208,38.618,30.935,38.722,31.973z M46.403,25.432l-2.802,1.143l-3.22,0.935l-0.207,0.312l0.312,0.104l1.144,0.104h0.829
		l5.71-0.726c1.037-0.208,1.659-0.624,1.869-1.039c0.104-0.416,0.104-0.935-0.21-1.557l-0.311-0.935
		C48.272,24.395,47.233,24.914,46.403,25.432z M20.452,31.973l0.208,3.944v5.086v5.294l-0.105,4.359l-0.312,2.283
		c0,0.312,0,0.52,0.105,0.52l0.414,0.104h0.728h0.311h2.077h1.453l0.312-0.104l0.104-0.52v-1.66l-0.104-3.218v-3.736v-2.908v-1.141
		v-2.7v-3.01v-1.973c0-0.622,0.104-1.038,0.311-1.141l1.351-0.312c0.726-0.104,1.452,0.208,2.181,0.831l0.518,0.622
		c0.416,0.727,0.622,1.973,0.622,3.53c0,1.349-0.312,2.595-0.83,3.322c-0.519,0.831-1.143,1.35-1.765,1.765l-1.245,0.519
		l-0.416,0.104c-0.415,0-0.621,0-0.621,0.103l0.206,0.312l0.312,0.207l0.52,0.727l0.206,0.415l1.351,2.906l1.661,4.463
		c0.521,1.559,1.454,3.115,2.597,4.674l1.451,1.453c0.831,0.622,1.767,1.141,2.7,1.452c1.66,0.623,3.114,0.935,4.67,0.935h0.729
		l0.311-0.207c0.104-0.209,0.104-0.312,0-0.312l-1.557-1.038l-0.209-0.104l-2.075-2.388c-1.245-1.557-2.076-3.114-2.906-4.775
		l-1.973-3.943c-0.623-1.039-1.141-1.767-1.869-2.596l-0.311-0.416c-0.209-0.104-0.416-0.311-0.52-0.311
		c-0.622-0.623-1.246-0.935-1.973-1.038c1.039-0.104,2.076-0.416,3.012-0.935c0.935-0.622,1.66-1.349,2.386-2.387
		c0.52-0.935,0.833-2.18,0.833-3.529c0-1.454-0.313-2.7-0.937-3.529l-0.829-0.936c-1.144-0.934-2.596-1.349-4.36-1.349h-0.416
		l-2.595,0.208h-1.245l-4.464-0.208c-0.416,0-0.52,0.208-0.312,0.415C20.243,30.208,20.349,30.935,20.452,31.973z M9.24,31.454
		l1.246-0.312c0.83-0.104,1.453,0.312,2.283,0.934l0.52,0.624c0.416,0.727,0.727,1.868,0.727,3.426c0,1.453-0.311,2.595-0.83,3.426
		c-0.52,0.83-1.038,1.453-1.765,1.868c-0.52,0.417-1.038,0.624-1.349,0.624l-0.521,0.312l0.415,0.207h0.208l2.18,0.104
		c0.831,0,1.661-0.312,2.699-0.83c1.038-0.52,1.869-1.351,2.595-2.388c0.624-1.039,1.037-2.284,1.037-3.842
		c0-1.557-0.31-2.803-1.037-3.632l-0.726-0.936c-1.246-0.83-2.699-1.349-4.464-1.244h-0.415l-2.388,0.103H7.787l-4.154-0.208
		c-0.415,0-0.519,0.208-0.311,0.415c0.208,0.104,0.311,0.831,0.311,1.87l0.209,4.049l0.104,4.981l-0.104,5.294l-0.105,4.464v2.179
		l0.105,0.52l0.311,0.104h0.727h0.521h2.18h1.454c0.312,0,0.519-0.104,0.312-0.416c-0.208-0.415-0.312-1.972-0.519-4.567v-3.944
		v-3.218v-1.141v-2.7l0.103-3.01v-1.973C8.929,31.973,9.033,31.558,9.24,31.454z M136.302,29.688h-2.699l-1.349-0.104l-0.623,0.104
		c-0.104,0.105-0.207,0.208-0.312,0.52l-0.104,1.661l-0.104,1.661c0,0.104,0.104,0.207,0.104,0.207l0.208-0.207l0.934-0.935
		c0.416-0.312,0.829-0.415,1.245-0.519l2.803-0.312l0.104,1.247v3.633v5.398v4.982v3.737v1.868v0.83
		c0,0.208,0.104,0.312,0.414,0.312h0.624h1.142h1.661h1.143h0.104c0.311,0,0.414-0.208,0.311-0.624l-0.207-0.622v-1.35v-1.869
		l-0.104-3.32v-3.634l-0.104-3.011v-3.217v-3.114v-1.247l2.801,0.312c1.038,0.208,1.87,0.727,2.286,1.454l0.207,0.207l0.104-0.207
		l-0.104-1.557l-0.104-1.039l-0.103-0.519l-0.21-0.727l-0.518-0.104l-1.453,0.104h-2.492h-2.803H136.302z M113.672,30l-0.208,0.208
		l0.208,0.208c0.312,0.104,0.727,0.622,1.142,1.558v2.076l-0.104,5.191v6.332l-0.103,5.294v2.388c0,0.415,0.103,0.52,0.206,0.52
		h0.208h0.623h0.934h0.521l0.206-0.208l-0.206-0.208c-0.104-0.104-0.312-0.311-0.312-0.727l-0.104-1.037v-1.869v-3.736v-4.465
		v-3.737v-1.453l0.623,1.35l0.519,1.35l0.935,2.18l1.765,4.256l1.558,3.736l0.935,2.18c0.207,0.729,0.622,1.35,1.141,1.662
		l0.416,0.311l1.661,0.416h0.935h1.35c0.311,0,0.52-0.208,0.414-0.416v-0.623v-1.557v-2.492v-4.878v-5.605v-4.88v-2.18
		c0.105-0.519,0.21-0.727,0.416-0.83c0.207-0.208,0.207-0.312,0-0.416h-0.622h-1.246c-0.415,0.104-0.624,0.207-0.727,0.519
		l-0.104,0.935v1.868l0.104,4.153l0.103,4.775l0.104,3.945v1.556l-0.727-1.556l-1.557-3.737l-1.868-4.672l-1.766-4.152l-0.83-2.076
		l-0.312-0.52c-0.415-0.727-1.038-1.141-1.659-1.141l-2.285,0.103L113.672,30z M104.537,31.765l1.037-0.207l1.246-0.104l2.284,0.311
		c0.726,0.312,1.349,0.728,1.765,1.35l0.207,0.312h0.104l0.104-0.415l-0.104-1.35l-0.104-0.935v-0.519
		c-0.104-0.415-0.312-0.623-0.726-0.623l-2.907,0.208l-4.359,0.103l-3.945-0.208l-0.519,0.105c0,0.103,0,0.103,0.103,0.31
		l0.312,1.87l0.104,3.944l0.104,5.086v5.294l-0.104,4.464v2.179l0.207,0.52l0.312,0.104h0.727h0.415h2.181h1.454h1.764l2.492,0.104
		h1.764c0.52,0.104,0.832-0.208,0.935-0.728l0.207-0.934v-0.414l0.208-1.454l-0.208-0.519l-0.207,0.311
		c-0.312,0.52-0.831,0.935-1.453,1.246l-2.076,0.52L105.99,51.8h-0.209h-0.207l-0.83-0.104c-0.207-0.208-0.311-0.52-0.415-0.935
		l-0.104-2.491v-3.219v-2.906c0-0.311,0.312-0.52,0.934-0.52h0.622h1.143h1.246c0.727-0.104,1.038-0.311,1.245-0.83v-0.208
		l0.312-1.038l-0.206-0.208l-0.208,0.104l-1.246,0.104h-1.662h-0.726h-0.312c-0.519,0.103-0.83,0.208-1.142,0.415l0.104-2.491
		v-2.699v-1.764C104.329,32.388,104.329,31.973,104.537,31.765z M74.433,32.388v-1.453V30.52c0.103-0.52-0.208-0.831-0.52-0.726
		l-0.415,0.103h-0.312l-2.178-0.103l-1.662-0.105c-0.415,0-0.521,0.208-0.415,0.415l0.208,0.312l0.103,0.622l0.209,3.219v3.945
		l0.103,2.595v2.699l-0.103,4.151v3.842l-0.104,1.765l0.312,0.415h0.934h0.312h2.283l1.454,0.104l0.208-0.208l-0.104-0.416
		l-0.209-0.935l-0.103-1.349l-0.104-1.973l-0.104-3.321v-3.736v-2.908l0.104-3.217L74.433,32.388z M84.294,31.662
		c0.104-0.416,0.52-0.52,1.039-0.52c0.83,0,1.66,0.312,2.594,0.934l1.039,1.039l1.142,2.18c0.623,1.558,0.934,3.633,1.039,6.437
		c-0.105,2.803-0.416,5.086-1.039,6.644c-0.622,1.557-1.351,2.594-2.389,3.114c-0.726,0.624-1.556,0.83-2.386,0.83h-0.209h-0.208
		c-0.312,0.104-0.414,0-0.519-0.104c-0.207-0.207-0.312-0.726-0.312-1.349l-0.104-2.595l-0.103-3.115v-2.595v-2.699v-3.218
		l0.103-2.491C83.982,32.803,84.086,31.973,84.294,31.662z M85.54,29.793l-3.321,0.103l-3.426-0.208h-0.209
		c-0.312,0-0.312,0.208,0,0.727l0.104,1.661l0.207,3.322v3.945v3.218v3.944v4.152v2.389c-0.102,0.519,0.105,0.83,0.52,0.727h0.312
		h0.208h2.596h3.841h0.208c1.453,0,3.011-0.52,4.463-1.35c1.558-0.935,2.804-2.284,3.843-4.256c1.038-1.973,1.66-4.256,1.66-7.268
		c0-3.01-0.52-5.294-1.558-6.851L93.948,32.7c-0.726-0.935-1.764-1.662-2.802-2.076c-1.558-0.624-3.012-0.935-4.466-0.935
		L85.54,29.793z"/>
	<g>
		<path fill="#E6CA2A" d="M95.194,8.408c-0.311-0.104-0.623,0.208-0.728,0.727l-0.416,1.454l-0.726,3.218l-0.935,3.426l-0.52,2.076
			c-0.311,1.35-1.037,2.388-2.179,2.907c-1.142,0.519-2.389,0.934-3.634,1.246c-1.35,0.208-2.492,0.726-3.218,1.35l4.463-1.142
			c1.453-0.208,2.596-0.519,3.53-1.245c1.037-0.623,1.765-1.766,2.283-3.634l2.492-10.381H95.194z"/>
		<polygon fill="#E6CA2A" points="79,19.827 78.377,20.138 80.453,22.215 82.841,24.81 81.284,22.215 		"/>
		<path fill="#E6CA2A" d="M76.3,3.737l0.52,0.104c0.52,0,1.039-0.208,1.453-0.416l0.209-0.416V2.906h-0.104l-0.83,0.104
			l-0.415-0.104l-1.039-0.208l-1.142-0.104l0,0l-0.935,0.208c-0.311,0.104-0.311,0.311-0.311,0.623c0,0.416,0.207,0.623,0.519,0.83
			l0.311,0.104L76.3,4.566h0.105h0.311h0.416h0.104l1.868,0.104c0.622,0.104,0.936,0.312,1.039,0.52l0,0l-0.52,0.519l-1.661,0.312
			c-0.727,0-1.557-0.312-2.18-0.727c-0.727-0.311-1.558-0.52-2.284-0.623L72.46,4.983c-0.622,0.104-1.35,0.519-1.869,1.141
			l-0.103,0.104l-1.453-0.934l-0.831-0.415l-0.208-0.935l-0.104-0.103l-0.416,0.103c-0.312,0.104-0.415,0.416-0.312,0.935
			l0.416,1.453l0.935,3.322l0.936,3.633l0.519,1.973c0.311,1.142,0.104,1.972-0.208,2.802c-0.311,0.727-0.936,1.454-1.661,2.076
			l-2.076,1.973c-0.623,0.519-1.141,1.245-1.454,2.075c1.144-1.453,2.285-2.491,3.427-3.321c1.039-0.727,1.867-1.453,2.387-2.284
			l0.105-0.208c0.31-0.416,0.414-0.831,0.52-1.453v-0.208l0.726,0.208l0.104-0.104c0-0.519,0.103-0.935,0.312-1.246l0.934-0.624
			c0.311-0.311,0.519-0.519,0.623-0.934V13.91v0.104v0.83l-0.208,0.208l-0.104,0.103H73.29l-0.416,0.416l0.312,0.103h0.208
			l1.351-0.622c0.415-0.312,0.933-0.52,1.556-0.623l1.039,0.208v0.311l0.312,0.416h0.104l1.038,0.311l0.311,0.104v0.311
			c-0.209,0.208-0.311,0.312-0.727,0.312h-0.415h-0.104l-0.415,0.208c-0.104,0.312-0.104,0.415,0.104,0.727h0.104l0.727-0.104
			l1.037,0.208c0-0.727,0.417-1.038,0.935-1.246l-0.206-0.623v-0.208c-0.312,0-0.623-0.208-0.729-0.311l-0.311-0.416
			c-0.209-0.312-0.209-0.623,0-0.727l0.622-0.311c0.208-0.104,0.417-0.312,0.52-0.727v-0.104c-0.206-0.519-1.036-0.832-2.698-0.832
			h-0.312l-0.624,0.105c-1.141,0-1.867-0.105-2.282-0.311l-0.208-0.52c0.104-0.312,0.312-0.416,0.623-0.416l0.933,0.104l0.105,0.312
			l0.207,0.207c0.104,0.104,0.311,0.312,0.727,0.312c0.416-0.105,0.831-0.312,1.143-0.52L78.17,10.9v-0.208l0,0l-0.831,0.103h-0.52
			l-0.934-0.103l-0.935-0.208h-0.104l-0.727,0.208l-0.415,0.622l0.311,0.519l0.519,0.312l1.66,0.208h0.313h0.311l0,0
			c1.765,0,2.595,0.208,2.804,0.519v0.104l-0.414,0.415l-1.559,0.312c-0.623-0.104-1.351-0.312-1.974-0.623l-2.075-0.624
			c-0.623,0.104-1.245,0.312-1.868,0.624l-0.936,0.83l-0.207-0.104l-0.103-0.52l0.206,0.104c0.208-0.104,0.416-0.104,0.519-0.311
			l0.521-0.519c0.416-0.104,0.623-0.312,0.623-0.624v-0.311l-0.312-0.312l0.312-0.415l0.104-0.208l-0.104-0.208l-0.104-0.104h-0.103
			c-0.209,0.312-0.416,0.415-0.624,0.415l-0.728-0.207l-0.726,0.207l-0.415-0.207L69.45,9.446l-0.104-0.311l0.312-0.104l1.868,0.415
			l0.104-0.207c-0.104-0.52,0-0.935,0.311-1.142l1.038-0.831c0.415-0.207,0.52-0.519,0.623-0.934l0.104-0.104v0.104
			c0,0.623,0,0.934-0.312,1.142l-0.726,0.623h0.104h0.312h0.415c0.415-0.104,0.727-0.312,1.246-0.623
			c0.519-0.415,1.038-0.623,1.765-0.623l1.038,0.208l0.104,0.207l0.415,0.519c0.207,0.105,0.622,0.312,1.144,0.312l0.205,0.104
			v0.208c0,0.312-0.205,0.415-0.727,0.519l-0.415-0.104H78.17c-0.208,0-0.312,0.104-0.415,0.312
			c-0.104,0.207-0.104,0.519,0.104,0.727l0.207-0.104h0.622l1.144,0.104l0.312-0.727c0.206-0.312,0.414-0.415,0.727-0.519
			l-0.208-0.519V7.785l-0.622-0.207c-0.313-0.208-0.52-0.416-0.625-0.519c-0.104-0.416-0.104-0.727,0-0.832h0.312l0.52-0.311
			l0.208-0.104l0.312-0.727l-0.104-0.104c-0.208-0.52-1.142-0.831-2.803-0.831l-0.415,0.104h-0.624l-2.075-0.207l-0.209-0.104
			l-0.414-0.519l0.104-0.208l0.208-0.208l0.312-0.104l1.038,0.208l0.207,0.312L76.3,3.737z"/>
		<polygon fill="#E6CA2A" points="82.529,1.869 81.491,1.453 78.377,0.519 73.706,0 69.035,0.519 65.92,1.35 65.193,1.661 
			64.779,1.869 66.023,1.661 69.346,1.141 73.706,0.934 78.17,1.245 81.387,1.661 82.737,1.972 		"/>
		<path fill="#E6CA2A" d="M82.529,2.18c-0.209,0.104-0.311,0.311-0.415,0.726v11.626c-0.104,1.454-0.623,2.595-1.661,3.426
			c-1.039,0.623-2.181,1.246-3.53,1.868c-1.246,0.52-2.388,1.247-3.217,2.285c1.453-1.038,2.905-1.765,4.359-2.285l1.349-0.623
			l2.181-1.349c0.935-0.831,1.452-2.181,1.452-3.945V4.983V3.944V2.076l0,0L82.529,2.18z"/>
		<path fill="#E6CA2A" d="M85.54,4.048l-0.624,0.104h-0.83l-0.52,0.104l1.038,0.208l2.181,0.311l2.284,0.52
			c1.972,0.727,3.529,1.246,4.566,1.765l1.559,1.038l-1.144-1.246l-0.206-0.208c-0.831-0.622-2.076-1.142-3.945-1.869L85.54,4.048z"
			/>
		<path fill="#E6CA2A" d="M65.816,3.529h-1.037h-0.416l-2.596,0.104l-3.114,0.622c-1.558,0.519-2.907,1.039-3.943,1.766
			l-1.767,1.038L52.32,7.578l-0.726,0.623l2.076-1.038l5.5-2.18l3.842-0.935l2.907-0.312h1.244l-0.31-0.104h-0.415L65.816,3.529z"/>
		<path fill="#E6CA2A" d="M68.825,3.01l0.21,0.416c-0.21,0.104-0.416,0.416-0.312,0.726l0.103,0.415l0.521,0.208l0.312,0.416
			l0.104,0.104l0.103,0.104c0.105,0.104,0.312,0.208,0.52,0.208c0.208,0,0.415-0.104,0.52-0.208l0.623-0.623
			c0.415-0.104,0.624-0.311,0.624-0.623l-0.312-0.623l0.312-0.416V3.01c0.103-0.104,0-0.311,0-0.415V2.491L71.94,2.595
			c-0.311,0.312-0.415,0.312-0.623,0.312l-0.829-0.208l-0.831,0.208c-0.207,0-0.416-0.208-0.622-0.415h-0.104L68.825,3.01z"/>
		<path fill="#E6CA2A" d="M52.634,9.135c-0.313-0.519-0.624-0.727-0.936-0.727l-0.415,0.104l3.011,10.069
			c0.416,1.35,0.935,2.284,1.557,3.011c0.727,0.519,1.454,0.934,2.282,1.141l2.908,0.52l3.528,0.934
			c-0.828-0.726-1.972-1.038-3.218-1.245c-1.244-0.208-2.387-0.519-3.528-1.039c-1.143-0.415-1.973-1.349-2.491-2.907l-0.52-1.869
			l-0.934-3.322l-0.936-3.218L52.634,9.135z"/>
		<polygon fill="#E6CA2A" points="71.838,20.657 73.706,22.111 72.149,20.45 70.176,19.101 69.863,19.516 		"/>
		<path fill="#E6CA2A" d="M57.719,8.72l-0.104,0.415c-0.207-0.312-0.311-0.519-0.207-0.831l-0.209-0.207l0.52-0.312l0.624-0.104
			l-0.312,0.312l0.206,0.104l0.208-0.207l0.311-0.312L58.55,7.474l-0.417-0.208l0.521-0.623c0.103,0.104,0.208,0.208,0.103,0.416
			h0.209c0.206-0.519,0.52-0.832,0.829-0.727c0.416,0,0.728-0.104,0.936-0.311l0.202-0.008l0.109,0.527l0.207,0.103
			c0.417,0,0.833,0.208,1.143,0.52l0.415,0.416l0.415,1.142l0.311,1.142l0.625,0.831c-0.52,0-0.936-0.208-1.247-0.416l-0.416-0.311
			l0.832,1.349l0.416,0.417l-1.038-0.312l-0.416-0.207l0.206,0.52l0.416,0.415l0.832,0.519l0.828,0.208l0.831,0.623
			c0.52-0.104,0.83-0.415,0.83-1.142l-0.518-0.83L65.4,11.211l-0.727-0.727l-0.311-0.311c-0.416-0.416-0.622-0.832-0.727-1.247
			c-0.105-0.519-0.105-0.83,0.104-1.142l0.622-0.415h0.311l0.831,0.415l0.104,0.416l0.312,0.934l0.311,0.311l0.312,0.104
			l0.208,0.104l-0.311,0.104l-0.623,0.104L65.4,9.757l-0.415-0.312l-0.206-1.245c0-0.104-0.105-0.311-0.21-0.311l-0.311-0.105
			l-0.312,0.623V8.72l0.832,1.246l1.349,1.038l0.312,0.311c0,0,0.519,0.581,0.519,1.039c0,0.416-0.104,0.831-0.312,1.142
			c-0.311,0.312-0.727,0.52-1.038,0.623l-0.104,0.831l-0.207,0.416c0.103,0.311,0.207,0.519,0.519,0.727l0.414,0.104l1.144,0.208
			l0.103,0.311v0.208l-0.208,1.868c0,0.208-0.104,0.312-0.207,0.415l-1.142,0.312l-0.83,0.311l-0.207-0.103l0.207-0.727v-0.311
			l0.83-0.104h0.416l0.104-0.623v-0.519v-0.208l-0.52-0.104l-2.283,0.312h-0.624h-0.726l-0.312-0.208l-0.311-0.311l-0.104-0.416
			l-0.105-0.311l0.105-0.623l-0.312,0.415l-0.207,0.623c0.104,0.727,0.207,1.141,0.727,1.349l0.83,0.208
			c0.105,0,0.208,0.104,0.208,0.312l-0.519,1.869l-2.283,0.727l-0.313,0.103c-0.206-0.103-0.206-0.415,0-0.519l0.208-0.415
			l1.143-0.208h0.207c0.104-0.104,0.207-0.416,0.312-0.831l-0.105-0.415v-0.312l-1.245-0.104c-0.312-0.104-0.621-0.208-1.039-0.416
			l-0.518-0.727c-0.208-0.311-0.208-0.727-0.104-1.142l0.415-0.519l0.934-0.727l0.831-0.312l0.831-0.208l-1.143-0.104
			c-0.52-0.104-0.934-0.312-1.35-0.831l-0.831,0.208h-0.206l-0.727-0.312l-0.52-0.207l-0.208-0.208l-0.416-0.104h-0.206
			l-0.209,0.104l-0.208-0.416l-0.206-0.311l-0.312-0.208l0.312-0.311l0.31-0.312l0.313,0.104l0.622,0.624
			c0.312,0.208,0.728,0.415,1.038,0.519h0.208l0.622-0.104l-0.103-0.207c-0.21,0-0.312-0.104-0.728-0.312l-0.207-0.206l-0.623-0.728
			l-0.312-0.519l-0.623-0.519l-0.312-0.104l-0.31,0.104l-0.312,0.104L54.71,9.342L54.5,9.135h-0.206l0.622-0.415l0.312-0.104
			c0.518,0.104,0.933,0.311,1.349,0.624v0.207l0.312,0.312l0.416,0.623l0.206,0.415l0.312,0.208l0.622,0.208l0.208-0.312
			l0.415-0.624l-0.207-0.311c-0.225,0.162-0.398,0.231-0.519,0.208l-0.312-0.312V9.446l0.102,0.208h0.21
			c0.311-0.104,0.519-0.312,0.413-0.727c-0.103-0.311-0.311-0.311-0.725-0.311L57.719,8.72z"/>
	</g>
	<g>
		<path fill="#D03839" d="M70.279,8.097h-0.207l-0.209-0.519l-0.311-0.416L69.45,6.748L69.346,6.54l0,0l-0.831-0.416l0.521,2.077
			l0.518,0.104L70.279,8.097z"/>
		<polygon fill="#D03839" points="70.279,8.097 70.072,8.097 69.863,7.578 69.553,7.163 69.45,6.748 69.346,6.54 69.346,6.54 
			68.515,6.124 69.035,8.201 69.553,8.304 		"/>
		<path fill="#D03839" d="M71.525,11.418h-0.104l-0.312,0.104l-0.103,0.623l0.205-0.312C71.422,11.833,71.525,11.731,71.525,11.418z
			"/>
		<path fill="#D03839" d="M70.383,11.523l-0.414-0.208h-0.105c0,0.417,0.105,0.519,0.209,0.519l0.311,0.208
			C70.488,11.833,70.488,11.731,70.383,11.523z"/>
		<path fill="#D03839" d="M71.008,12.561l0.103-0.104l-0.208-0.104l-0.104-0.104h-0.207l-0.312,0.207v0.104h0.104l0,0H71.008z"/>
		<path fill="#D03839" d="M77.132,2.906l-1.039-0.208l-1.142-0.104l-0.935,0.208c-0.311,0.104-0.311,0.311-0.311,0.623
			c0,0.416,0.207,0.623,0.519,0.83l0.623,0.416l1.764,0.312h0.104h2.698l0.729,0.208l-0.52,0.519l-1.661,0.312
			c-0.727,0-1.557-0.312-2.18-0.727c-0.727-0.311-1.558-0.52-2.284-0.623L72.46,4.983l0.103-0.52
			c-0.103-0.312-0.206-0.519-0.413-0.519l0.413-0.519v-0.52H72.46h-0.104L72.149,3.01c0.103-0.104,0-0.311,0-0.415V2.491
			L71.94,2.595c-0.311,0.312-0.415,0.312-0.623,0.312l-0.829-0.208l-0.831,0.208c-0.207,0-0.416-0.208-0.622-0.415h-0.104
			L68.825,3.01l0.21,0.416c-0.21,0.104-0.416,0.416-0.312,0.726l0.103,0.415l0.21,0.417l0.622,0.208l0.104,0.104l0.312,0.519
			c0.207,0.208,0.311,0.311,0.519,0.311l-0.103,0.104l-1.453-0.934l-0.831-0.415l-0.208-0.935l-0.104-0.208l-1.038-0.104h-0.415
			l-0.623-0.104V2.595l0.104-0.104l2.492-0.519l5.294-0.312l5.397,0.312l2.283,0.519l0.104,0.104v1.869V7.89v3.736v2.699
			c0,1.038-0.311,1.973-0.83,2.596c-0.416,0.519-1.038,1.038-1.868,1.453l-2.388,1.142c-0.935,0.52-1.661,0.831-1.973,1.246
			l-0.622,0.519l-0.728-0.726l-2.285-1.765l-0.415-0.208l0.105-0.208c0.31-0.416,0.414-0.831,0.52-1.453l0.933,0.311l0.104-0.104
			c0-0.519,0.104-0.934,0.312-1.246l0.934-0.727l-0.416,0.416l0.312,0.103h0.208l-0.311,0.208l0.311,0.104
			c0.52-0.104,1.039-0.312,1.558-0.623c0.416-0.311,0.935-0.519,1.66-0.519l0.728,0.104l0.312,0.416l0.312,0.416
			c0.208,0.104,0.622,0.208,1.038,0.311h0.104c-0.209,0.208-0.311,0.312-0.727,0.312h-0.415h-0.104l-0.415,0.208
			c-0.104,0.312-0.104,0.415,0.104,0.727h0.104l0.104,0.311l0.622-0.104l1.246,0.207c0.103-0.311,0.208-0.623,0.311-0.83
			l0.728-0.416c-0.208-0.207-0.208-0.519-0.208-0.831l-0.311-0.103v-0.208c-0.312,0-0.623-0.208-0.729-0.311l-0.104-0.104
			c-0.102-0.415-0.102-0.623,0-0.623l0.623-0.415c0.312-0.104,0.415-0.416,0.52-0.727l-0.208-0.415
			c-0.206-0.519-1.036-0.832-2.698-0.832h-0.312l-0.624,0.105c-1.141,0-1.867-0.105-2.282-0.311v-0.208
			c0.104-0.312,0.311-0.416,0.727-0.416l0.727,0.104l0.207,0.207c0.104,0.312,0.416,0.519,0.83,0.519
			c0.624,0,1.143-0.206,1.558-0.726v-0.208l-0.519,0.208L78.17,10.9v-0.208l-0.831,0.103h-0.52l-0.934-0.103l-0.935-0.208h-0.104
			l-0.727,0.208l-0.415,0.622l0.311,0.519l0.728,0.623l1.556,0.208h0.416l2.907,0.311l-0.414,0.415l-1.559,0.312
			c-0.623-0.104-1.351-0.312-1.974-0.623l-2.075-0.624c-0.623,0.104-1.245,0.312-1.868,0.624l0.207-0.104
			c0.416-0.207,0.622-0.415,0.622-0.726c0-0.312-0.103-0.519-0.206-0.624l0.312-0.415l-0.105-0.416l-0.103-0.103l-0.104-0.208
			l-0.104-0.104h-0.103c-0.209,0.312-0.416,0.415-0.624,0.415l-0.728-0.207l-0.726,0.207l-0.415-0.207L69.45,9.446h0.413
			l1.975,0.416l0.103-0.104c0-0.623,0.104-1.038,0.416-1.349l0.415-0.311h0.312h0.415l-0.415,0.311h0.311
			c0.623,0,1.142-0.208,1.662-0.623c0.519-0.311,1.14-0.519,1.764-0.623l0.831,0.104l0.415,0.519l0.312,0.312l1.037,0.311
			c0,0.312-0.205,0.415-0.727,0.519l-0.415-0.104H78.17c-0.208,0-0.312,0.104-0.415,0.312c-0.104,0.207-0.104,0.519,0.104,0.727
			l0.207-0.104l0.104,0.416h0.623l1.452,0.207l0.312-0.935l0.728-0.415c-0.104-0.311-0.104-0.519-0.104-0.83l-0.52-0.104V7.785
			l-0.622-0.207l-0.105-0.208c-0.208-0.312-0.208-0.623-0.103-0.728c0.103-0.103,0.414-0.207,0.726-0.416
			c0.312-0.104,0.414-0.415,0.52-0.726l-0.415-0.519c-0.208-0.52-1.142-0.831-2.803-0.831l-0.415,0.104h-0.624l-2.075-0.207
			l-0.209-0.104V3.737c0-0.311,0.209-0.415,0.624-0.415l0.83,0.104L76.3,3.737c0.209,0.312,0.52,0.519,0.936,0.415l0.935-0.208
			l0.725-0.519V3.217h-0.102l-0.521,0.208l0.209-0.416V2.906h-0.104l-0.83,0.104L77.132,2.906z"/>
		<path fill="#D03839" d="M80.245,5.917l-0.52,0.311l0.208-0.207l0.52-0.208L80.245,5.917z"/>
		<polygon fill="#D03839" points="80.245,5.917 79.726,6.228 79.934,6.021 80.453,5.813 		"/>
		<path fill="#D03839" d="M69.553,3.529L69.553,3.529c-0.103,0.415,0,0.519,0.311,0.519l0.209,0.207c0-0.207,0-0.311,0-0.519
			C69.969,3.529,69.761,3.529,69.553,3.529z"/>
		<path fill="#D03839" d="M71.317,3.529h-0.104l-0.415,0.208V4.36l0.21-0.312C71.213,4.048,71.317,3.944,71.317,3.529z"/>
		<path fill="#D03839" d="M70.488,4.463h-0.209l-0.311,0.311h0.104h0.726l0,0h0.104l-0.312-0.311H70.488z"/>
		<g>
			<path fill="#D03839" d="M71.525,11.418h-0.104l-0.312,0.104l-0.103,0.623l0.205-0.312C71.422,11.833,71.525,11.731,71.525,11.418
				z"/>
			<path fill="#D03839" d="M70.383,11.523l-0.414-0.208h-0.105c0,0.417,0.105,0.519,0.209,0.519l0.311,0.208
				C70.488,11.833,70.488,11.731,70.383,11.523z"/>
			<polygon fill="#D03839" points="71.008,12.561 71.11,12.457 70.902,12.353 70.798,12.25 70.591,12.25 70.279,12.457 
				70.279,12.561 70.383,12.561 70.383,12.561 			"/>
			<path fill="#D03839" d="M69.553,3.529L69.553,3.529c-0.103,0.415,0,0.519,0.311,0.519l0.209,0.207c0-0.207,0-0.311,0-0.519
				C69.969,3.529,69.761,3.529,69.553,3.529z"/>
			<path fill="#D03839" d="M71.317,3.529h-0.104l-0.415,0.208V4.36l0.21-0.312C71.213,4.048,71.317,3.944,71.317,3.529z"/>
			<polygon fill="#D03839" points="70.488,4.463 70.279,4.463 69.969,4.774 70.072,4.774 70.798,4.774 70.798,4.774 70.902,4.774 
				70.591,4.463 			"/>
		</g>
	</g>
	<g>
		<path fill="#FFFFFF" d="M70.591,7.993l-0.728-0.312V7.578l0.209,0.519h0.207L70.591,7.993z"/>
		<polygon fill="#FFFFFF" points="70.591,7.993 69.863,7.681 69.863,7.578 70.072,8.097 70.279,8.097 		"/>
		<path fill="#FFFFFF" d="M68.412,5.709l0.103,0.415l0.831,0.416l0,0l-0.415-0.519L68.412,5.709z"/>
		<polygon fill="#FFFFFF" points="68.412,5.709 68.515,6.124 69.346,6.54 69.346,6.54 68.931,6.021 		"/>
		<path fill="#FFFFFF" d="M71.11,12.457l-0.103,0.104h0.103V12.457L71.11,12.457z"/>
		<polygon fill="#FFFFFF" points="71.11,12.457 71.008,12.561 71.11,12.561 71.11,12.457 		"/>
		<path fill="#FFFFFF" d="M76.819,3.841L76.3,3.737c0.209,0.312,0.52,0.519,0.936,0.415l0.935-0.208l0.725-0.519V3.217h-0.102
			l-0.521,0.208C77.858,3.633,77.339,3.841,76.819,3.841z"/>
		<path fill="#FFFFFF" d="M76.819,3.841L76.3,3.737c0.209,0.312,0.52,0.519,0.936,0.415l0.935-0.208l0.725-0.519V3.217h-0.102
			l-0.521,0.208C77.858,3.633,77.339,3.841,76.819,3.841z"/>
		<path fill="#FFFFFF" d="M75.159,3.322l0.83,0.104l-0.207-0.312l-1.038-0.208L74.433,3.01l-0.208,0.208l-0.104,0.208l0.414,0.519
			V3.737C74.535,3.426,74.744,3.322,75.159,3.322z"/>
		<path fill="#FFFFFF" d="M75.159,3.322l0.83,0.104l-0.207-0.312l-1.038-0.208L74.433,3.01l-0.208,0.208l-0.104,0.208l0.414,0.519
			V3.737C74.535,3.426,74.744,3.322,75.159,3.322z"/>
		<path fill="#FFFFFF" d="M80.661,4.983l0.104,0.104l-0.312,0.727l-0.52,0.208l-0.208,0.207h-0.312
			c-0.104,0.104-0.104,0.416,0,0.832c0.105,0.104,0.312,0.312,0.625,0.519l-0.105-0.208c-0.208-0.312-0.208-0.623-0.103-0.728
			c0.103-0.103,0.414-0.207,0.726-0.416c0.312-0.104,0.414-0.415,0.52-0.726L80.661,4.983z"/>
		<path fill="#FFFFFF" d="M80.661,4.983l0.104,0.104l-0.312,0.727l-0.52,0.208l-0.208,0.207h-0.312
			c-0.104,0.104-0.104,0.416,0,0.832c0.105,0.104,0.312,0.312,0.625,0.519l-0.105-0.208c-0.208-0.312-0.208-0.623-0.103-0.728
			c0.103-0.103,0.414-0.207,0.726-0.416c0.312-0.104,0.414-0.415,0.52-0.726L80.661,4.983z"/>
		<path fill="#FFFFFF" d="M80.661,8.097l0.208,0.519c-0.312,0.104-0.521,0.208-0.727,0.519l-0.312,0.727l-1.144-0.104h-0.622
			l0.104,0.416h0.623l1.452,0.207l0.312-0.935l0.728-0.415c-0.104-0.311-0.104-0.519-0.104-0.83L80.661,8.097z"/>
		<path fill="#FFFFFF" d="M80.661,8.097l0.208,0.519c-0.312,0.104-0.521,0.208-0.727,0.519l-0.312,0.727l-1.144-0.104h-0.622
			l0.104,0.416h0.623l1.452,0.207l0.312-0.935l0.728-0.415c-0.104-0.311-0.104-0.519-0.104-0.83L80.661,8.097z"/>
		<path fill="#FFFFFF" d="M80.143,5.19L80.143,5.19c-0.104-0.208-0.417-0.416-1.039-0.52l-1.868-0.104h-0.104h-0.416h-0.311H76.3
			L74.535,4.36l-0.311-0.104l0.623,0.416l1.764,0.312h0.104h2.698L80.143,5.19z"/>
		<path fill="#FFFFFF" d="M80.143,5.19L80.143,5.19c-0.104-0.208-0.417-0.416-1.039-0.52l-1.868-0.104h-0.104h-0.416h-0.311H76.3
			L74.535,4.36l-0.311-0.104l0.623,0.416l1.764,0.312h0.104h2.698L80.143,5.19z"/>
		<path fill="#FFFFFF" d="M77.547,7.059l-1.038-0.208c-0.727,0-1.246,0.208-1.765,0.623c-0.52,0.311-0.831,0.519-1.246,0.623
			l-0.415,0.311h0.311c0.623,0,1.142-0.208,1.662-0.623c0.519-0.311,1.14-0.519,1.764-0.623l0.831,0.104L77.547,7.059z"/>
		<path fill="#FFFFFF" d="M77.547,7.059l-1.038-0.208c-0.727,0-1.246,0.208-1.765,0.623c-0.52,0.311-0.831,0.519-1.246,0.623
			l-0.415,0.311h0.311c0.623,0,1.142-0.208,1.662-0.623c0.519-0.311,1.14-0.519,1.764-0.623l0.831,0.104L77.547,7.059z"/>
		<path fill="#FFFFFF" d="M60.626,18.686l0.829,0.104v-0.312l-1.245-0.104c-0.312-0.104-0.621-0.208-1.039-0.416l0.313,0.312
			C59.898,18.478,60.21,18.686,60.626,18.686z M63.013,18.478h-0.207l-0.519,1.869l-2.283,0.727
			c-0.105,0.207-0.105,0.312,0.104,0.519l2.596-0.831l0.414-1.972L63.013,18.478z M66.439,17.439v-0.208l-0.52-0.104l-2.283,0.312
			h-0.624h-0.726l-0.312-0.208c0.207,0.312,0.312,0.415,0.622,0.519l0.728,0.104l0.728-0.104l2.178-0.311H66.439z M67.685,16.713
			h-0.208v0.208l-0.208,1.868c0,0.208-0.104,0.312-0.207,0.415l-1.142,0.312l-0.727,0.208l0.104,0.312l0.103,0.208l0.936-0.416
			l1.141-0.311l0.104-0.312c-0.104-0.415,0-1.142,0.312-1.972C67.893,16.921,67.893,16.713,67.685,16.713z M65.4,13.495
			 M66.439,11.418l0.519,0.935c0,0.416-0.104,0.831-0.312,1.142c-0.311,0.312-0.727,0.52-1.038,0.52l-0.104,0.934l-0.207,0.416
			c0.103,0.311,0.207,0.519,0.519,0.727l-0.208-0.416l0.312-0.311v-0.831c0.416-0.208,0.83-0.416,1.038-0.727
			c0.311-0.312,0.416-0.623,0.311-1.038C67.164,12.25,66.854,11.731,66.439,11.418z M65.4,9.757c0.104,0.312,0.416,0.416,0.83,0.416
			h0.624l0.207-0.208l-0.622-0.208l-0.623,0.104L65.4,9.757z M65.505,7.785l0.104,0.416l0.312,0.934l0.311,0.311l-0.311-0.83
			C65.92,8.201,65.816,7.993,65.505,7.785z M61.561,16.505l-0.105-0.311l0.105-0.52l-0.312,0.312l-0.207,0.623
			c0.104,0.727,0.207,1.141,0.624,1.349l-0.21-0.935L61.561,16.505z M62.598,11.626l0.415,0.208l1.246,0.208l-0.518-0.311
			l-1.038-0.312l-0.416-0.207l0.206,0.52l0.312,0.311L62.598,11.626z M58.477,12.589l-0.031-0.339c-0.312,0-0.414-0.104-0.83-0.312
			l-0.207-0.206l0.623,0.519L58.477,12.589z M56.889,13.287l0.207,0.104l0.52,0.312l0.83,0.208h0.208l0.728-0.104
			c0.31,0.416,0.829,0.623,1.245,0.727l0.935-0.208l-1.143-0.104c-0.52-0.104-0.934-0.312-1.35-0.831l-0.831,0.208h-0.206
			l-0.727-0.312l-0.52-0.207l-0.208-0.208l-0.416-0.104h-0.206l0.103,0.518l0.312-0.207h0.207L56.889,13.287z M58.343,10.173
			l0.614,0.388l0.111-0.285l-0.207-0.311l-0.416,0.208H58.343z M58.653,8.927h-0.311c-0.21,0.104-0.312,0.208-0.312,0.519
			l-0.419-0.333L57.68,8.61c0.311-0.104,1.225-0.376,1.076,0.317H58.653z M57.305,10.173l-0.416-0.52l-0.312-0.208l0.312,0.312
			l0.416,0.623l0.206,0.415l0.208,0.208l-0.104-0.208L57.305,10.173z M58.325,7.843l-0.088,0.254l0.208-0.207l0.208-0.209
			L58.325,7.843z M55.851,9.965l-0.312-0.104l-0.31,0.104l0.104,0.415l0.623-0.104h0.206l0.312,0.208L55.851,9.965z M54.71,9.446
			 M63.843,10.276l-0.206-1.142c-0.105-0.727-0.416-1.245-0.831-1.557l0.415,1.142l0.311,1.142l0.625,0.831
			c-0.52,0-0.936-0.208-1.247-0.416l-0.416-0.311l0.728,1.246l-0.415-0.831l0.52,0.312c0.206,0.208,0.622,0.311,1.244,0.311
			L63.843,10.276z M61.248,6.54V6.332L60.937,6.54l0.312,0.103V6.54z"/>
		<path fill="#FFFFFF" d="M60.626,18.686l0.829,0.104v-0.312l-1.245-0.104c-0.312-0.104-0.621-0.208-1.039-0.416l0.313,0.312
			C59.898,18.478,60.21,18.686,60.626,18.686z"/>
		<path fill="#FFFFFF" d="M63.013,18.478h-0.207l-0.519,1.869l-2.283,0.727c-0.105,0.207-0.105,0.312,0.104,0.519l2.596-0.831
			l0.414-1.972L63.013,18.478z"/>
		<path fill="#FFFFFF" d="M66.439,17.439v-0.208l-0.52-0.104l-2.283,0.312h-0.624h-0.726l-0.312-0.208
			c0.207,0.312,0.312,0.415,0.622,0.519l0.728,0.104l0.728-0.104l2.178-0.311H66.439z"/>
		<path fill="#FFFFFF" d="M67.685,16.713h-0.208v0.208l-0.208,1.868c0,0.208-0.104,0.312-0.207,0.415l-1.142,0.312l-0.727,0.208
			l0.104,0.312l0.103,0.208l0.936-0.416l1.141-0.311l0.104-0.312c-0.104-0.415,0-1.142,0.312-1.972
			C67.893,16.921,67.893,16.713,67.685,16.713z"/>
		<path fill="#FFFFFF" d="M65.4,13.495"/>
		<path fill="#FFFFFF" d="M66.439,11.418l0.519,0.935c0,0.416-0.104,0.831-0.312,1.142c-0.311,0.312-0.727,0.52-1.038,0.52
			l-0.104,0.934l-0.207,0.416c0.103,0.311,0.207,0.519,0.519,0.727l-0.208-0.416l0.312-0.311v-0.831
			c0.416-0.208,0.83-0.416,1.038-0.727c0.311-0.312,0.416-0.623,0.311-1.038C67.164,12.25,66.854,11.731,66.439,11.418z"/>
		<path fill="#FFFFFF" d="M65.4,9.757c0.104,0.312,0.416,0.416,0.83,0.416h0.624l0.207-0.208l-0.622-0.208l-0.623,0.104L65.4,9.757z
			"/>
		<path fill="#FFFFFF" d="M65.505,7.785l0.104,0.416l0.312,0.934l0.311,0.311l-0.311-0.83C65.92,8.201,65.816,7.993,65.505,7.785z"
			/>
		<path fill="#FFFFFF" d="M61.561,16.505l-0.105-0.311l0.105-0.52l-0.312,0.312l-0.207,0.623c0.104,0.727,0.207,1.141,0.624,1.349
			l-0.21-0.935L61.561,16.505z"/>
		<polygon fill="#FFFFFF" points="62.598,11.626 63.013,11.833 64.259,12.042 63.741,11.731 62.703,11.418 62.287,11.211 
			62.493,11.731 62.806,12.042 		"/>
		<path fill="#FFFFFF" d="M58.477,12.589l-0.031-0.339c-0.312,0-0.414-0.104-0.83-0.312l-0.207-0.206l0.623,0.519L58.477,12.589z"/>
		<path fill="#FFFFFF" d="M56.889,13.287l0.207,0.104l0.52,0.312l0.83,0.208h0.208l0.728-0.104c0.31,0.416,0.829,0.623,1.245,0.727
			l0.935-0.208l-1.143-0.104c-0.52-0.104-0.934-0.312-1.35-0.831l-0.831,0.208h-0.206l-0.727-0.312l-0.52-0.207l-0.208-0.208
			l-0.416-0.104h-0.206l0.103,0.518l0.312-0.207h0.207L56.889,13.287z"/>
		<polygon fill="#FFFFFF" points="58.343,10.173 58.957,10.562 59.068,10.276 58.861,9.965 58.445,10.173 		"/>
		<path fill="#FFFFFF" d="M58.653,8.927h-0.311c-0.21,0.104-0.312,0.208-0.312,0.519l-0.419-0.333L57.68,8.61
			c0.311-0.104,1.225-0.376,1.076,0.317H58.653z"/>
		<polygon fill="#FFFFFF" points="57.305,10.173 56.889,9.654 56.577,9.446 56.889,9.757 57.305,10.38 57.511,10.795 57.719,11.003 
			57.615,10.795 		"/>
		<polygon fill="#FFFFFF" points="58.325,7.843 58.237,8.097 58.445,7.89 58.653,7.681 		"/>
		<polygon fill="#FFFFFF" points="55.851,9.965 55.538,9.861 55.229,9.965 55.332,10.38 55.955,10.276 56.161,10.276 56.474,10.484 
					"/>
		<path fill="#FFFFFF" d="M54.71,9.446"/>
		<path fill="#FFFFFF" d="M63.843,10.276l-0.206-1.142c-0.105-0.727-0.416-1.245-0.831-1.557l0.415,1.142l0.311,1.142l0.625,0.831
			c-0.52,0-0.936-0.208-1.247-0.416l-0.416-0.311l0.728,1.246l-0.415-0.831l0.52,0.312c0.206,0.208,0.622,0.311,1.244,0.311
			L63.843,10.276z"/>
		<polygon fill="#FFFFFF" points="61.248,6.54 61.248,6.332 60.937,6.54 61.248,6.643 		"/>
		<path fill="#FFFFFF" d="M79.414,8.408V8.201l-0.205-0.104c-0.521,0-0.937-0.207-1.144-0.312l0.312,0.312L79.414,8.408z"/>
		<path fill="#FFFFFF" d="M79.414,8.408V8.201l-0.205-0.104c-0.521,0-0.937-0.207-1.144-0.312l0.312,0.312L79.414,8.408z"/>
		<path fill="#FFFFFF" d="M78.377,11.003l-0.519,0.208c-0.312,0.207-0.727,0.415-1.143,0.52c-0.416,0-0.623-0.208-0.727-0.312
			c0.104,0.312,0.416,0.519,0.83,0.519c0.624,0,1.143-0.206,1.558-0.726V11.003L78.377,11.003z"/>
		<path fill="#FFFFFF" d="M78.377,11.003l-0.519,0.208c-0.312,0.207-0.727,0.415-1.143,0.52c-0.416,0-0.623-0.208-0.727-0.312
			c0.104,0.312,0.416,0.519,0.83,0.519c0.624,0,1.143-0.206,1.558-0.726V11.003L78.377,11.003z"/>
		<path fill="#FFFFFF" d="M79.623,12.976v-0.104c-0.209-0.311-1.039-0.519-2.804-0.519l0,0h-0.311h-0.313l-1.66-0.208l-0.519-0.312
			l0.728,0.623l1.556,0.208h0.416L79.623,12.976z"/>
		<path fill="#FFFFFF" d="M79.623,12.976v-0.104c-0.209-0.311-1.039-0.519-2.804-0.519l0,0h-0.311h-0.313l-1.66-0.208l-0.519-0.312
			l0.728,0.623l1.556,0.208h0.416L79.623,12.976z"/>
		<path fill="#FFFFFF" d="M80.245,12.769v0.104c-0.103,0.415-0.312,0.623-0.52,0.727l-0.622,0.311c-0.209,0.104-0.209,0.415,0,0.727
			l0.311,0.416l-0.104-0.104c-0.102-0.415-0.102-0.623,0-0.623l0.623-0.415c0.312-0.104,0.415-0.416,0.52-0.727L80.245,12.769z"/>
		<path fill="#FFFFFF" d="M80.245,12.769v0.104c-0.103,0.415-0.312,0.623-0.52,0.727l-0.622,0.311c-0.209,0.104-0.209,0.415,0,0.727
			l0.311,0.416l-0.104-0.104c-0.102-0.415-0.102-0.623,0-0.623l0.623-0.415c0.312-0.104,0.415-0.416,0.52-0.727L80.245,12.769z"/>
		<path fill="#FFFFFF" d="M75.782,11.211L75.677,10.9l-0.933-0.104c-0.312,0-0.52,0.104-0.623,0.416l0.208,0.52v-0.208
			c0.104-0.312,0.311-0.416,0.727-0.416L75.782,11.211z"/>
		<path fill="#FFFFFF" d="M75.782,11.211L75.677,10.9l-0.933-0.104c-0.312,0-0.52,0.104-0.623,0.416l0.208,0.52v-0.208
			c0.104-0.312,0.311-0.416,0.727-0.416L75.782,11.211z"/>
		<path fill="#FFFFFF" d="M77.339,14.948v-0.311L76.3,14.429c-0.623,0.104-1.141,0.311-1.556,0.623l-1.351,0.622l-0.311,0.208
			l0.311,0.104c0.52-0.104,1.039-0.312,1.558-0.623c0.416-0.311,0.935-0.519,1.66-0.519L77.339,14.948z"/>
		<path fill="#FFFFFF" d="M77.339,14.948v-0.311L76.3,14.429c-0.623,0.104-1.141,0.311-1.556,0.623l-1.351,0.622l-0.311,0.208
			l0.311,0.104c0.52-0.104,1.039-0.312,1.558-0.623c0.416-0.311,0.935-0.519,1.66-0.519L77.339,14.948z"/>
		<path fill="#FFFFFF" d="M78.793,15.674l-1.038-0.311H77.65l0.312,0.416c0.208,0.104,0.622,0.208,1.038,0.311h0.104v-0.311
			L78.793,15.674z"/>
		<path fill="#FFFFFF" d="M78.793,15.674l-1.038-0.311H77.65l0.312,0.416c0.208,0.104,0.622,0.208,1.038,0.311h0.104v-0.311
			L78.793,15.674z"/>
		<path fill="#FFFFFF" d="M80.143,15.571l0.206,0.623c-0.518,0.208-0.935,0.519-0.935,1.246l-1.037-0.208l-0.727,0.104l0.104,0.311
			l0.622-0.104l1.246,0.207c0.103-0.311,0.208-0.623,0.311-0.83l0.728-0.416c-0.208-0.207-0.208-0.519-0.208-0.831L80.143,15.571z"
			/>
		<path fill="#FFFFFF" d="M80.143,15.571l0.206,0.623c-0.518,0.208-0.935,0.519-0.935,1.246l-1.037-0.208l-0.727,0.104l0.104,0.311
			l0.622-0.104l1.246,0.207c0.103-0.311,0.208-0.623,0.311-0.83l0.728-0.416c-0.208-0.207-0.208-0.519-0.208-0.831L80.143,15.571z"
			/>
		<path fill="#FFFFFF" d="M84.813,9.342l-0.209-0.103c0,0.103,0.209,0.207,0.416,0.311l0.312,0.104
			c0.31-0.104,0.622-0.312,0.83-0.727c0-0.415-0.104-0.726-0.416-0.934l0.104,0.727c-0.209,0.415-0.415,0.622-0.831,0.622H84.813z"
			/>
		<path fill="#FFFFFF" d="M84.813,9.342l-0.209-0.103c0,0.103,0.209,0.207,0.416,0.311l0.312,0.104
			c0.31-0.104,0.622-0.312,0.83-0.727c0-0.415-0.104-0.726-0.416-0.934l0.104,0.727c-0.209,0.415-0.415,0.622-0.831,0.622H84.813z"
			/>
		<path fill="#FFFFFF" d="M85.124,13.703l0.209,0.208l0.83-0.208l0.415-0.104l-0.104-0.727c0-0.416-0.104-0.83,0-1.349l0.104-1.662
			l0.103-0.935L86.578,8.72v0.104L86.37,9.654l-0.207,1.661c0,0.417,0,0.935,0,1.454l0.103,0.622h-0.311L85.124,13.703z"/>
		<path fill="#FFFFFF" d="M85.124,13.703l0.209,0.208l0.83-0.208l0.415-0.104l-0.104-0.727c0-0.416-0.104-0.83,0-1.349l0.104-1.662
			l0.103-0.935L86.578,8.72v0.104L86.37,9.654l-0.207,1.661c0,0.417,0,0.935,0,1.454l0.103,0.622h-0.311L85.124,13.703z"/>
		<path fill="#FFFFFF" d="M85.852,15.363l0.104,0.727c-0.104,0.415-0.415,0.623-0.831,0.623h-0.208l-0.312-0.104l0.52,0.312h0.209
			h0.207l0.415-0.208l0.208-0.415C86.266,15.882,86.163,15.571,85.852,15.363z"/>
		<path fill="#FFFFFF" d="M85.852,15.363l0.104,0.727c-0.104,0.415-0.415,0.623-0.831,0.623h-0.208l-0.312-0.104l0.52,0.312h0.209
			h0.207l0.415-0.208l0.208-0.415C86.266,15.882,86.163,15.571,85.852,15.363z"/>
		<path fill="#FFFFFF" d="M86.059,18.478l-0.207-0.104l-0.209-0.104l0.521,0.311h0.207c0.415,0,0.728-0.208,0.83-0.623
			c0.104-0.519,0-0.831-0.415-0.935l0.208,0.727C86.891,18.166,86.578,18.374,86.059,18.478z"/>
		<path fill="#FFFFFF" d="M86.059,18.478l-0.207-0.104l-0.209-0.104l0.521,0.311h0.207c0.415,0,0.728-0.208,0.83-0.623
			c0.104-0.519,0-0.831-0.415-0.935l0.208,0.727C86.891,18.166,86.578,18.374,86.059,18.478z"/>
		<path fill="#FFFFFF" d="M84.086,16.505l0.104,0.104l0.104,0.623c-0.208,0.415-0.414,0.727-0.83,0.727h-0.208l-0.311-0.208
			c0.102,0.208,0.311,0.312,0.519,0.312l0.208,0.104c0.414-0.104,0.726-0.208,0.933-0.727
			C84.604,17.024,84.502,16.713,84.086,16.505z"/>
		<path fill="#FFFFFF" d="M84.086,16.505l0.104,0.104l0.104,0.623c-0.208,0.415-0.414,0.727-0.83,0.727h-0.208l-0.311-0.208
			c0.102,0.208,0.311,0.312,0.519,0.312l0.208,0.104c0.414-0.104,0.726-0.208,0.933-0.727
			C84.604,17.024,84.502,16.713,84.086,16.505z"/>
		<path fill="#FFFFFF" d="M87.719,9.861h-0.206L87.2,9.757c0.104,0.104,0.312,0.208,0.519,0.312l0.208,0.104
			c0.52-0.104,0.727-0.312,0.83-0.728c0.104-0.415,0-0.726-0.311-0.934l0.104,0.727C88.446,9.654,88.135,9.861,87.719,9.861z"/>
		<path fill="#FFFFFF" d="M87.719,9.861h-0.206L87.2,9.757c0.104,0.104,0.312,0.208,0.519,0.312l0.208,0.104
			c0.52-0.104,0.727-0.312,0.83-0.728c0.104-0.415,0-0.726-0.311-0.934l0.104,0.727C88.446,9.654,88.135,9.861,87.719,9.861z"/>
		<path fill="#FFFFFF" d="M90.107,12.561h-0.312l-0.207-0.104l0.519,0.312h0.207h0.312h0.208c0.207-0.208,0.312-0.416,0.415-0.623
			c0-0.415-0.103-0.727-0.415-0.934l0.104,0.726C90.834,12.353,90.522,12.561,90.107,12.561z"/>
		<path fill="#FFFFFF" d="M90.107,12.561h-0.312l-0.207-0.104l0.519,0.312h0.207h0.312h0.208c0.207-0.208,0.312-0.416,0.415-0.623
			c0-0.415-0.103-0.727-0.415-0.934l0.104,0.726C90.834,12.353,90.522,12.561,90.107,12.561z"/>
		<path fill="#FFFFFF" d="M86.687,8.145h-0.311l-0.208-0.104l0.519,0.312h0.209h0.311h0.207c0.208-0.208,0.312-0.417,0.415-0.624
			c0-0.414-0.103-0.727-0.415-0.933l0.104,0.726C87.413,7.937,87.102,8.145,86.687,8.145z"/>
		<path fill="#FFFFFF" d="M91.352,14.533c0.52-0.104,0.727-0.208,0.936-0.727c0.104-0.416-0.103-0.726-0.416-0.934l0.104,0.727
			c-0.104,0.415-0.414,0.726-0.828,0.726h-0.312l-0.104-0.104l0.416,0.208L91.352,14.533z"/>
		<path fill="#FFFFFF" d="M91.352,14.533c0.52-0.104,0.727-0.208,0.936-0.727c0.104-0.416-0.103-0.726-0.416-0.934l0.104,0.727
			c-0.104,0.415-0.414,0.726-0.828,0.726h-0.312l-0.104-0.104l0.416,0.208L91.352,14.533z"/>
		<path fill="#FFFFFF" d="M89.173,12.353l0.103,0.727c-0.103,0.415-0.414,0.726-0.829,0.726h-0.208l-0.312-0.207
			c0.208,0.207,0.312,0.311,0.624,0.311l0.103,0.104c0.52-0.104,0.728-0.208,0.936-0.728C89.589,12.872,89.485,12.561,89.173,12.353
			z"/>
		<path fill="#FFFFFF" d="M89.173,12.353l0.103,0.727c-0.103,0.415-0.414,0.726-0.829,0.726h-0.208l-0.312-0.207
			c0.208,0.207,0.312,0.311,0.624,0.311l0.103,0.104c0.52-0.104,0.728-0.208,0.936-0.728C89.589,12.872,89.485,12.561,89.173,12.353
			z"/>
		<path fill="#FFFFFF" d="M90.003,13.184l-0.207,0.207v0.624l-0.207,1.66c-0.104,0.52,0,0.935,0,1.454l0.104,0.623l-0.417,0.104
			l-0.622,0.207l0.104,0.312l0.832-0.312h0.414l-0.207-0.726v-1.35l0.207-1.661l0.209-0.935L90.003,13.184z"/>
		<path fill="#FFFFFF" d="M90.003,13.184l-0.207,0.207v0.624l-0.207,1.66c-0.104,0.52,0,0.935,0,1.454l0.104,0.623l-0.417,0.104
			l-0.622,0.207l0.104,0.312l0.832-0.312h0.414l-0.207-0.726v-1.35l0.207-1.661l0.209-0.935L90.003,13.184z"/>
		<path fill="#FFFFFF" d="M84.916,17.232l-0.103,0.934l-0.209,1.661c-0.103,0.52,0,0.935,0,1.454v0.623l-0.311,0.104l-0.622,0.208
			l0.104,0.208l0.829-0.208l0.416-0.104l-0.104-0.623c0-0.415-0.103-0.934,0-1.453l0.104-1.558l0.104-1.038L84.916,17.232z"/>
		<path fill="#FFFFFF" d="M84.916,17.232l-0.103,0.934l-0.209,1.661c-0.103,0.52,0,0.935,0,1.454v0.623l-0.311,0.104l-0.622,0.208
			l0.104,0.208l0.829-0.208l0.416-0.104l-0.104-0.623c0-0.415-0.103-0.934,0-1.453l0.104-1.558l0.104-1.038L84.916,17.232z"/>
		<path fill="#FFFFFF" d="M69.969,4.671v0.104l0.311-0.311L69.969,4.671z"/>
		<polygon fill="#FFFFFF" points="69.969,4.671 69.969,4.774 70.279,4.463 		"/>
		<path fill="#FFFFFF" d="M70.902,4.774V4.671l-0.312-0.208L70.902,4.774z"/>
		<polygon fill="#FFFFFF" points="70.902,4.774 70.902,4.671 70.591,4.463 		"/>
		<path fill="#FFFFFF" d="M72.46,2.906h-0.104L72.149,3.01v0.104l-0.312,0.416l0.312,0.623c0,0.312-0.209,0.519-0.624,0.623
			l-0.623,0.623c-0.104,0.104-0.312,0.208-0.52,0.208c-0.207,0-0.414-0.104-0.52-0.208l-0.103-0.104l0.312,0.519
			c0.207,0.208,0.311,0.311,0.519,0.311l0,0c0.52-0.623,1.247-1.038,1.869-1.141l0.103-0.52c-0.103-0.312-0.206-0.519-0.413-0.519
			l0.413-0.519v-0.52H72.46z"/>
		<path fill="#FFFFFF" d="M72.46,2.906h-0.104L72.149,3.01v0.104l-0.312,0.416l0.312,0.623c0,0.312-0.209,0.519-0.624,0.623
			l-0.623,0.623c-0.104,0.104-0.312,0.208-0.52,0.208c-0.207,0-0.414-0.104-0.52-0.208l-0.103-0.104l0.312,0.519
			c0.207,0.208,0.311,0.311,0.519,0.311l0,0c0.52-0.623,1.247-1.038,1.869-1.141l0.103-0.52c-0.103-0.312-0.206-0.519-0.413-0.519
			l0.413-0.519v-0.52H72.46z"/>
		<path fill="#FFFFFF" d="M73.706,6.332V6.228l-0.104,0.104c-0.104,0.416-0.208,0.727-0.623,0.934L71.94,8.097
			C71.63,8.304,71.525,8.72,71.63,9.239l-0.104,0.207l-1.868-0.415l-0.312,0.104l0.104,0.311h0.413l1.975,0.416l0.103-0.104
			c0-0.623,0.104-1.038,0.416-1.349l0.415-0.311h-0.104l0.726-0.623C73.706,7.266,73.706,6.955,73.706,6.332z"/>
		<path fill="#FFFFFF" d="M73.706,6.332V6.228l-0.104,0.104c-0.104,0.416-0.208,0.727-0.623,0.934L71.94,8.097
			C71.63,8.304,71.525,8.72,71.63,9.239l-0.104,0.207l-1.868-0.415l-0.312,0.104l0.104,0.311h0.413l1.975,0.416l0.103-0.104
			c0-0.623,0.104-1.038,0.416-1.349l0.415-0.311h-0.104l0.726-0.623C73.706,7.266,73.706,6.955,73.706,6.332z"/>
		<path fill="#FFFFFF" d="M69.035,4.983l0.622,0.208l-0.312-0.416l-0.521-0.208L69.035,4.983z"/>
		<polygon fill="#FFFFFF" points="69.035,4.983 69.657,5.19 69.346,4.774 68.825,4.566 		"/>
		<path fill="#FFFFFF" d="M72.668,11.211l-0.105-0.416l-0.103-0.103l0,0L72.356,10.9l-0.312,0.415l0.312,0.312L72.668,11.211z"/>
		<polygon fill="#FFFFFF" points="72.668,11.211 72.562,10.795 72.46,10.692 72.46,10.692 72.356,10.9 72.045,11.314 72.356,11.626 
					"/>
		<path fill="#FFFFFF" d="M70.694,13.391l-0.206-0.104l0.103,0.52l0.207,0.104l0.936-0.83l0.207-0.104
			c0.416-0.207,0.622-0.415,0.622-0.726c0-0.312-0.103-0.519-0.206-0.624v0.311c0,0.312-0.207,0.52-0.623,0.624l-0.521,0.519
			C71.11,13.287,70.902,13.287,70.694,13.391z"/>
		<path fill="#FFFFFF" d="M70.694,13.391l-0.206-0.104l0.103,0.52l0.207,0.104l0.936-0.83l0.207-0.104
			c0.416-0.207,0.622-0.415,0.622-0.726c0-0.312-0.103-0.519-0.206-0.624v0.311c0,0.312-0.207,0.52-0.623,0.624l-0.521,0.519
			C71.11,13.287,70.902,13.287,70.694,13.391z"/>
		<path fill="#FFFFFF" d="M73.498,15.052l0.208-0.208v-0.83V13.91v0.104c-0.104,0.415-0.312,0.623-0.623,0.934l-0.934,0.624
			c-0.209,0.311-0.312,0.727-0.312,1.246l-0.104,0.104l-0.726-0.208v0.208l0.933,0.311l0.104-0.104c0-0.519,0.104-0.934,0.312-1.246
			l0.934-0.727h0.104L73.498,15.052z"/>
		<path fill="#FFFFFF" d="M73.498,15.052l0.208-0.208v-0.83V13.91v0.104c-0.104,0.415-0.312,0.623-0.623,0.934l-0.934,0.624
			c-0.209,0.311-0.312,0.727-0.312,1.246l-0.104,0.104l-0.726-0.208v0.208l0.933,0.311l0.104-0.104c0-0.519,0.104-0.934,0.312-1.246
			l0.934-0.727h0.104L73.498,15.052z"/>
	</g>
</g>
</svg>
