<?xml version="1.0" encoding="UTF-8" standalone="no"?>
<svg
   xmlns:dc="http://purl.org/dc/elements/1.1/"
   xmlns:cc="http://creativecommons.org/ns#"
   xmlns:rdf="http://www.w3.org/1999/02/22-rdf-syntax-ns#"
   xmlns:svg="http://www.w3.org/2000/svg"
   xmlns="http://www.w3.org/2000/svg"
   xmlns:sodipodi="http://sodipodi.sourceforge.net/DTD/sodipodi-0.dtd"
   xmlns:inkscape="http://www.inkscape.org/namespaces/inkscape"
   width="400"
   height="400"
   id="svg2"
   version="1.1">
  <g
     inkscape:label="Layer 1"
     inkscape:groupmode="layer"
     id="layer1"
     transform="translate(-104.45439,-163.42334)">
    <rect
       x="104.45439"
       y="163.42334"
       width="400"
       height="400"
       id="rect247"
       style="fill:#bb8e39" />
    <rect
       x="118.95468"
       y="177.94086"
       width="371.00015"
       height="371.00015"
       id="rect249"
       style="fill:#ffffff" />
    <path
       d="m 275.52452,259.278 c -0.49392,10.1958 -7.51455,20.25049 -14.39407,22.80826 -2.04622,0.75851 -3.12225,0.98782 -3.47504,0 -0.37044,-0.84671 4.60398,-9.1727 3.63379,-14.88799 -0.56447,-3.51032 -2.9282,-3.68672 -1.4641,-4.49815 0.95255,-0.52919 1.5523,-0.58211 3.12224,-1.19951 1.56995,-0.63503 6.26213,-2.57541 10.8132,-3.96895 1.41118,-0.3528 1.83454,0.38808 1.76398,1.74634"
       id="path251"
       style="fill:#034ea2" />
    <path
       d="m 206.30596,312.5149 c -3.91603,-13.63556 -7.23231,-16.22861 -11.04251,-17.90439 -0.59975,0.0706 -1.04075,-0.0706 -1.04075,-0.0706 v 49.16211 c 0.56448,6.7384 3.42212,7.77915 5.99753,9.56077 2.94585,2.06385 2.2579,4.93914 -1.90509,4.72746 -17.97496,-0.93491 -23.54913,2.59305 -34.3976,7.90263 -5.02735,2.45193 -7.70859,3.43976 -11.16599,3.82784 -2.92821,0.33515 -3.88076,-2.50485 -1.51703,-3.82784 9.93121,-5.59181 17.26936,-8.36126 18.96278,-20.76204 2.55777,-18.73346 2.99877,-44.39936 2.92821,-49.6913 0,-3.75728 0.0529,-25.9305 6.33268,-38.43711 6.80897,-13.47681 22.61422,-18.60999 22.61422,-18.60999 0,0 -1.11131,-0.15875 -2.24025,-0.44099 -9.13742,-2.04622 -21.02664,1.60522 -25.10143,3.51032 -9.13741,4.21591 -20.14465,12.22438 -18.73346,23.31981 2.16969,9.08449 4.51579,3.1046 7.84971,4.39231 2.25789,0.88199 4.49814,3.1928 2.68125,7.65567 -0.86435,2.22261 -4.74511,5.32721 -8.52003,5.57417 -2.20497,0.14112 -4.44522,-0.49391 -6.77368,-2.43429 -1.85218,-1.97566 -5.2743,-6.13865 -3.24572,-15.94637 3.66908,-17.5516 24.58987,-30.69325 46.78074,-33.4627 21.09719,-2.64596 40.97724,3.8984 43.88781,20.35633 5.04498,28.24131 -22.96702,37.34344 -30.79909,39.83065 -2.87528,0.89963 0,1.41119 0.33516,1.74634 11.58935,5.6271 18.45123,15.45247 23.14341,24.02541 8.13195,14.87034 17.83383,45.38719 41.38296,47.64508 18.13371,1.74634 32.29847,-2.46957 48.6682,-10.07232 12.0127,-5.85641 23.849,-12.2773 23.849,-12.2773 l -2.62833,-0.37043 c -17.88675,-2.11678 -27.8356,2.96348 -35.33251,5.57417 -6.42089,2.24025 -6.8266,-0.91727 -2.02858,-3.21044 4.48051,-2.15206 18.31011,-10.8132 46.86894,-6.89716 27.13,-13.63556 72.12912,-37.11413 95.64297,-28.92927 31.24007,10.84848 9.03157,51.22597 -46.18099,44.31117 -13.90015,-1.60522 -38.71935,-6.87952 -46.44558,-8.59058 -0.54683,-0.10584 0.0529,-0.14112 0.0529,-0.14112 0,0 -1.07602,0.61739 -1.32298,0.72323 -8.74934,4.32175 -49.97354,34.99736 -83.91251,34.99736 -48.10372,0 -60.29282,-55.10672 -63.64438,-66.76663 m 13.03581,-58.38772 c -1.30534,-11.99506 -11.06015,-13.8296 -11.06015,-13.8296 -14.41171,6.24449 -14.23531,21.34415 -14.04128,45.70471 0,0 0.63504,0.21168 1.25243,0.0529 4.19827,-0.70559 7.70859,-2.82237 11.21891,-4.9215 8.41418,-6.31505 14.74687,-15.78762 12.63009,-27.00653 z m 211.14835,84.45934 c 14.48227,-13.81196 1.14658,-35.52655 -68.12489,0.44099 17.25172,2.62833 55.54771,11.55407 68.12489,-0.44099 z"
       id="path253"
       style="fill:#034ea2" />
    <path
       d="m 266.24599,338.83348 c -14.12948,1.32298 -13.42389,-11.78339 -13.42389,-11.78339 0,0 0,-16.89892 0,-28.01199 0,-1.19951 -0.0353,-1.78162 -0.68795,-2.0815 -1.05839,-0.47627 -4.67455,-0.0882 -5.43306,-0.98783 -0.37043,-0.42335 -0.65267,-1.21714 1.42883,-2.29317 2.25789,-1.18187 18.69818,-6.40324 21.02663,-7.19704 1.83454,-0.63503 1.58758,0.95255 1.58758,4.18064 0,2.20497 0,22.59657 0,32.38666 0,1.05839 -0.28223,3.84547 2.2579,3.1046 2.54013,-0.75851 5.71529,-3.43976 6.562,-2.29317 1.30535,1.7287 -5.73293,14.27059 -13.31804,14.97619"
       id="path255"
       style="fill:#034ea2" />
    <path
       d="m 307.45255,313.00882 c 0,1.05838 -0.28224,3.84547 2.25789,3.1046 2.54013,-0.75851 5.71529,-3.42212 6.562,-2.29317 1.28771,1.7287 -5.75057,14.27059 -13.33568,14.97618 -14.11184,1.32299 -13.40624,-11.78338 -13.40624,-11.78338 l 0.0353,-29.40554 c 0,-0.51155 -0.0529,-1.12895 -0.40572,-1.32298 -1.42882,-0.79379 -5.32722,0.49391 -6.31505,-0.82907 -1.2877,-1.69342 6.50909,-3.8984 14.04128,-14.3588 3.51032,-4.86858 5.5389,-9.73716 7.47927,-18.32774 0.56448,-2.45194 3.05169,-2.68125 3.05169,-0.15876 0,3.81019 0,9.87828 0,19.75657 0,0.63503 0,0.65267 0,1.39354 0,1.56994 2.22261,0.98783 7.07356,0.31752 0.61739,-0.0882 0.79379,1.6405 0.42335,2.99876 -0.49391,1.97566 -6.26213,3.4574 -6.6502,3.68672 -0.51156,0.37044 -0.86435,0.37044 -0.82907,2.02858 l 0.0176,30.21697"
       id="path257"
       style="fill:#034ea2" />
    <path
       d="m 345.7309,301.9663 c 0,1.04075 -0.28223,3.82784 2.24026,3.08697 2.55777,-0.74087 5.73293,-3.42212 6.57964,-2.27553 1.28771,1.71106 -5.73293,14.27059 -13.33569,14.97618 -14.12947,1.32299 -13.42388,-11.80102 -13.42388,-11.80102 l 0.0529,-29.40554 c 0,-0.49391 -0.0529,-1.11131 -0.42335,-1.30534 -1.41119,-0.81144 -5.30958,0.47627 -6.29741,-0.82908 -1.30535,-1.71106 6.50908,-3.89839 14.04128,-14.37643 3.51031,-4.86858 5.55653,-9.73717 7.47927,-18.31011 0.56447,-2.45193 3.05168,-2.68124 3.05168,-0.15875 0,3.79255 0,9.87828 0,19.73893 0,0.63503 0,0.67031 0,1.39354 0,1.56994 2.22262,0.98783 7.07356,0.33516 0.61739,-0.0882 0.79379,1.62286 0.42336,2.99876 -0.49392,1.95802 -6.26213,3.43976 -6.65021,3.68672 -0.52919,0.37043 -0.86435,0.37043 -0.82907,2.01094 l 0.0176,30.2346"
       id="path259"
       style="fill:#034ea2" />
    <path
       d="m 413.46772,282.22737 c 0,0 -0.91727,13.12401 13.22984,11.81867 7.56747,-0.72324 14.58811,-13.26513 13.35333,-14.99383 -0.88199,-1.12895 -4.0748,1.53466 -6.59729,2.29317 -2.54013,0.74088 -2.24025,-2.04621 -2.24025,-3.1046 l -0.10584,-26.00106 c 0,0 0.72323,0.49392 7.81443,4.39231 7.93791,4.33939 20.3916,-12.64773 18.20427,-13.7414 -1.11131,-0.54683 -3.08697,2.27553 -4.63927,2.71653 -4.79802,1.3759 -10.00176,-4.14535 -13.61792,-6.54436 -0.65267,-0.441 -7.83207,8.76697 -7.83207,8.76697 0,0 -2.29317,-7.00299 -11.32475,-7.02063 -1.00547,0 -12.40077,8.69641 -11.95978,10.08996 0.3528,1.14658 5.69766,-1.49938 5.69766,1.74634 v 29.58193"
       id="path261"
       style="fill:#034ea2" />
    <path
       d="m 374.81892,285.72005 c 0,0 0.0529,-0.0706 0.56448,1.09367 0.89963,2.13442 5.3625,8.96102 13.60028,6.72076 4.79802,-1.30534 8.76698,-7.003 10.6368,-5.15082 2.24025,2.22262 -8.5553,18.13371 -20.6562,18.59235 -9.0845,0.35279 -33.1099,-17.67508 -12.91233,-45.06968 6.77368,-9.19033 19.58017,-15.92873 28.34715,-12.41842 9.98412,4.00424 12.34785,15.24079 7.60275,18.41595 l -27.18293,17.81619 m -2.7518,-7.67331 c 1.16422,3.96896 0.67031,2.76945 0.67031,2.76945 0,0 9.22561,-5.4507 12.91233,-8.60822 9.11977,-7.81443 3.81019,-29.98765 -9.80773,-9.26089 -2.02857,3.1046 -4.95678,11.13071 -3.77491,15.09966 z"
       id="path263"
       style="fill:#034ea2" />
    <path
       d="m 187.34318,409.11042 c -3.40448,-2.84001 -7.77915,-4.72747 -12.31257,-4.72747 -3.42212,0 -7.95555,1.97566 -7.95555,5.96225 0,4.163 5.0097,5.78586 8.23778,6.82661 l 4.74511,1.41118 c 9.9312,2.94585 17.62215,7.95555 17.62215,19.52725 0,7.0912 -1.69342,14.39408 -7.39107,19.22738 -5.57418,4.7451 -13.07109,6.72076 -20.26813,6.72076 -8.99629,0 -17.81619,-3.03404 -25.11906,-8.14958 l 7.97318,-14.95855 c 4.63927,4.07479 10.14289,7.39107 16.47557,7.39107 4.35703,0 9.03158,-2.18733 9.03158,-7.19703 0,-5.22138 -7.30288,-7.02064 -11.28947,-8.14959 -11.65991,-3.31628 -19.33322,-6.35032 -19.33322,-20.17992 0,-14.49992 10.31928,-23.97249 24.62516,-23.97249 7.19703,0 16.01693,2.27554 22.3849,5.87406 l -7.42636,14.39407"
       id="path265"
       style="fill:#034ea2" />
    <path
       d="m 207.34671,390.72975 h 28.41771 c 15.34662,0 25.94814,7.10884 25.94814,23.49621 0,16.86364 -9.0845,24.25472 -25.29547,24.25472 h -10.53095 v 23.69024 h -18.55707 v -71.44117 m 18.57471,32.79238 h 3.13988 c 6.7384,0 13.37096,0 13.37096,-8.7317 0,-8.99629 -6.17393,-9.08449 -13.37096,-9.08449 h -3.13988 v 17.81619 z"
       id="path267"
       style="fill:#034ea2" />
    <path
       d="m 346.03078,425.12735 c 0,23.10813 -16.58141,39.40731 -39.4955,39.40731 -22.93174,0 -39.51314,-16.29918 -39.51314,-39.40731 0,-21.60875 18.94514,-36.76133 39.51314,-36.76133 20.55036,0 39.4955,15.15258 39.4955,36.76133 m -59.67543,0.0882 c 0,12.31258 9.0845,21.32651 20.17993,21.32651 11.07779,0 20.17992,-9.01393 20.17992,-21.32651 0,-9.843 -9.10213,-18.85694 -20.17992,-18.85694 -11.09543,0 -20.17993,9.01394 -20.17993,18.85694 z"
       id="path269"
       style="fill:#034ea2" />
    <path
       d="M 414.24387,462.17092 H 391.1181 l -17.53396,-27.4828 h -0.19404 v 27.4828 h -18.55706 v -71.44117 h 27.74739 c 14.12948,0 24.8192,6.7384 24.8192,21.97919 0,9.86064 -5.50362,18.38066 -15.62886,20.17992 l 22.4731,29.28206 m -40.83613,-39.42494 h 1.8169 c 6.06809,0 12.87705,-1.12895 12.87705,-8.89046 0,-7.77915 -6.8266,-8.90809 -12.87705,-8.90809 h -1.8169 v 17.79855 z"
       id="path271"
       style="fill:#034ea2" />
    <polyline
       points="611.909,164.661 610.856,164.661 610.856,161.503 609.986,161.503 609.986,160.611   612.779,160.611 612.779,161.503 611.909,161.503 611.909,164.661 "
       id="polyline273"
       transform="matrix(17.639795,0,0,17.639795,-10346.066,-2442.4154)"
       style="fill:#034ea2" />
  </g>
</svg>
