<?xml version="1.0" encoding="utf-8"?>
<!-- Generator: Adobe Illustrator 15.0.0, SVG Export Plug-In . SVG Version: 6.00 Build 0)  -->
<!DOCTYPE svg PUBLIC "-//W3C//DTD SVG 1.1//EN" "http://www.w3.org/Graphics/SVG/1.1/DTD/svg11.dtd">
<svg version="1.1"
	 id="svg2403" inkscape:version="0.46" xmlns:inkscape="http://www.inkscape.org/namespaces/inkscape" xmlns:dc="http://purl.org/dc/elements/1.1/" xmlns:sodipodi="http://sodipodi.sourceforge.net/DTD/sodipodi-0.dtd" xmlns:svg="http://www.w3.org/2000/svg" xmlns:rdf="http://www.w3.org/1999/02/22-rdf-syntax-ns#" xmlns:cc="http://creativecommons.org/ns#" sodipodi:docname="Schwartauer_Werke_Logo.svg" sodipodi:version="0.32" inkscape:output_extension="org.inkscape.output.svg.inkscape"
	 xmlns="http://www.w3.org/2000/svg" xmlns:xlink="http://www.w3.org/1999/xlink" x="0px" y="0px" width="219.685px"
	 height="174.753px" viewBox="10.63 33.401 219.685 174.753" enable-background="new 10.63 33.401 219.685 174.753"
	 xml:space="preserve">
<defs>
	
	
		<inkscape:perspective  id="perspective2410" sodipodi:type="inkscape:persp3d" inkscape:persp3d-origin="372.04724 : 350.78739 : 1" inkscape:vp_x="0 : 526.18109 : 1" inkscape:vp_y="0 : 1000 : 0" inkscape:vp_z="744.09448 : 526.18109 : 1">
		</inkscape:perspective>
</defs>
<sodipodi:namedview  borderopacity="1.0" inkscape:window-width="640" inkscape:current-layer="g2412" inkscape:window-height="667" inkscape:zoom="1.9150259" inkscape:cx="120.625" inkscape:window-y="58" gridtolerance="10.0" guidetolerance="10.0" inkscape:pageopacity="0.0" inkscape:pageshadow="2" inkscape:cy="120.625" inkscape:window-x="44" showgrid="false" id="base" bordercolor="#666666" objecttolerance="10.0" pagecolor="#ffffff">
	</sodipodi:namedview>
<g id="g2412" transform="matrix(1.25,0,0,-1.25,0,241.25)" inkscape:label="Schwartauer_Werke_Logo" inkscape:groupmode="layer">
	<path id="path2416" fill="#FFFFFF" d="M8.504,26.477h175.748v139.802H8.504V26.477z"/>
	<path id="path2418" fill="#201C1D" d="M12.605,30.588H180.15v131.58H12.605V30.588z"/>
	<path id="path2420" fill="#FFFFFF" d="M151.555,125.556c5.62-10.73,8.334-23.679,6.953-36.878h16.327V65.832l-23.722-0.065
		c-2.158-3.602-7.544-10.346-7.544-10.346c-15.67-18.078-41.07-25.262-64.198-18.302c-14.55,3.96-28.677,15.098-36.716,28.657
		c-8.136-0.026-16.319,0.027-24.454,0v22.81l16.646,0.002c-3.218,25.234,8.257,48.709,29.878,61.727
		c17.29,11.122,43.393,11.252,61.093,1.159C136.244,145.836,146.228,135.871,151.555,125.556"/>
	<path id="path2422" fill="#ED1C24" d="M149.13,121.382c4.531-9.702,6.92-21.213,5.28-32.793H138.87v20.419l-1.014,1.413
		l-2.65,18.18l-2.886-18.163l-0.919-1.417l0.003-1.134h-6.68v1.078l-1.033,1.474l-2.678,18.601l-2.616-18.64l-0.884-1.409
		l0.176-20.381h-4.905v18.829l-3.964,18.704l-3.965-18.729V88.631H99.86v12.058c0,0,1.351,2.341,1.35,2.341
		c0.387,1.847-0.17,3.993-0.082,5.732l-1.691-1.059c0,0-2.875,19.206-2.889,19.202c0.013,0.004-2.91-19.181-2.91-19.181
		l-1.517,1.087c0.05-1.688-0.385-3.909-0.026-5.75c-0.002-0.031,1.324-2.388,1.324-2.388v-11.99h-5.323v21.746
		c-0.018-0.002-3.586,19.03-3.586,19.03l-3.824-21.576h-6.579l-3.839,21.431l-3.615-18.893V88.618h-4.217v16.699l-1.114,1.811
		c0.009-0.022-2.697,17.945-2.697,17.945l-2.79-17.962l-1.079-1.665V88.663H38.944c-3.092,23.398,6.958,44.896,26.747,57.648
		c16.656,11.031,42.9,11.165,59.764,0.694C135.744,141.152,144.233,131.567,149.13,121.382"/>
	<path id="path2424" fill="#ED1C24" d="M146.023,65.757c-4.017-7.76-11.606-14.284-18.969-18.956
		C110.598,36.199,85.277,35.949,68.568,46c-7.905,4.154-16.054,11.904-20.883,19.757H146.023"/>
	<path id="path2426" fill="#ED1C24" d="M74.102,105.597h6.58v1.359h-6.58V105.597z"/>
	<path id="path2428" fill="#ED1C24" d="M77.453,101.669l3.31-3.592v6.597h-6.632v-6.597L77.453,101.669"/>
	<path id="path2430" fill="#ED1C24" d="M124.803,105.703h6.58v1.359h-6.58V105.703z"/>
	<path id="path2432" fill="#ED1C24" d="M128.098,101.776l3.312-3.592v6.598h-6.632v-6.598L128.098,101.776"/>
	<path id="path2434" fill="#231F20" d="M26.777,74.186c0.087-1.918,2.232-2.698,3.949-2.698c1.218,0,2.751,0.73,2.751,1.941
		c0,1.438-2.326,1.657-4.565,2.321c-2.326,0.322-4.98,1.766-4.98,4.759c0,3.564,3.686,4.958,6.598,4.958
		c3.088,0,5.977-1.794,5.998-5.474h-3.221c0.065,1.485-1.863,2.403-3.103,2.403c-0.869,0-2.722-0.104-2.722-1.613
		c0-1.843,2.975-1.815,5.236-2.479c2.238-0.664,4.31-1.427,4.31-4.374c0-4.134-3.621-5.459-6.541-5.459
		c-4.143,0-6.649,1.473-6.737,5.715H26.777"/>
	<path id="path2436" fill="#231F20" d="M50.505,79.525c-0.217,1.612-1.871,2.956-3.567,2.956c-2.609,0-4.101-2.394-4.101-5.514
		c0-3.067,1.492-5.405,4.101-5.405c1.891,0,3.073,1.038,3.677,2.684h3.276c-0.498-3.789-2.933-5.609-6.866-5.609
		c-4.695,0-7.738,3.695-7.738,8.33c0,4.636,3.043,8.331,7.738,8.331c3.347,0,6.813-1.922,6.921-5.773H50.505"/>
	<path id="path2438" fill="#231F20" d="M56.929,84.859h3.496v-5.978h5.871v5.978h3.496V68.902h-3.496v6.83h-5.871v-6.83h-3.496
		V84.859"/>
	<path id="path2440" fill="#231F20" d="M88.684,68.893h-3.047l-2.523,9.586l-2.324-9.586l-3.263,0.015l-4.849,15.952h3.432
		l3.051-9.595l1.98,9.595h3.864l2.113-9.666l2.495,9.666h3.499L88.684,68.893"/>
	<path id="path2442" fill="#231F20" d="M98.898,84.859h3.883l5.663-15.972h-3.642l-1.191,3.43h-5.379l-1.225-3.43l-3.192,0.014
		L98.898,84.859z M99.064,75.367h3.521l-1.778,5.116h-0.045L99.064,75.367"/>
	<path id="path2444" fill="#231F20" d="M111.098,84.859h7.914c2.737,0,4.145-0.697,4.573-3.839c0.225-1.66-0.277-2.895-1.584-4.3
		v-0.045c1.005-0.937,1.234-2.827,1.364-4.305c0.045-0.651,0.111-2.934,0.655-3.499h-3.548c-0.347,0.521-0.414,2.043-0.456,2.479
		c-0.109,1.563-0.269,3.912-1.808,3.912h-3.684v-6.391h-3.425V84.859z M114.598,78.543h3.392c1.216,0,2.142,0.654,2.142,1.827
		c0,1.152-1.187,1.673-2.316,1.673h-3.219V78.543"/>
	<path id="path2446" fill="#231F20" d="M138.739,81.895h-4.63V68.902h-3.591v12.994h-5.083v2.964h13.303V81.895"/>
	<path id="path2448" fill="#231F20" d="M144.227,84.874h3.883l5.664-15.973h-3.645l-1.188,3.428h-5.379l-1.226-3.428l-3.192,0.016
		L144.227,84.874z M144.394,75.381h3.52l-1.778,5.115h-0.045L144.394,75.381"/>
	<path id="path2450" fill="#231F20" d="M168.498,75.665c0-4.545-1.984-6.805-6.491-6.805c-4.508,0-6.49,2.26-6.49,6.805v9.198h3.718
		v-9.441c0-2.02,0.874-3.051,2.772-3.051c1.898,0,2.772,1.03,2.772,3.051v9.441h3.719V75.665"/>
</g>
</svg>
