<?xml version="1.0" encoding="UTF-8" standalone="no"?>
<!-- Created with Inkscape (http://www.inkscape.org/) -->
<svg
   xmlns:dc="http://purl.org/dc/elements/1.1/"
   xmlns:cc="http://creativecommons.org/ns#"
   xmlns:rdf="http://www.w3.org/1999/02/22-rdf-syntax-ns#"
   xmlns:svg="http://www.w3.org/2000/svg"
   xmlns="http://www.w3.org/2000/svg"
   xmlns:sodipodi="http://sodipodi.sourceforge.net/DTD/sodipodi-0.dtd"
   xmlns:inkscape="http://www.inkscape.org/namespaces/inkscape"
   id="svg2403"
   sodipodi:version="0.32"
   inkscape:version="0.46"
   width="241.25"
   height="241.25"
   xml:space="preserve"
   sodipodi:docname="Schwartauer_Werke_Logo.svg"
   inkscape:output_extension="org.inkscape.output.svg.inkscape"><metadata
     id="metadata2408"><rdf:RDF><cc:Work
         rdf:about=""><dc:format>image/svg+xml</dc:format><dc:type
           rdf:resource="http://purl.org/dc/dcmitype/StillImage" /></cc:Work></rdf:RDF></metadata><defs
     id="defs2406"><inkscape:perspective
       sodipodi:type="inkscape:persp3d"
       inkscape:vp_x="0 : 526.18109 : 1"
       inkscape:vp_y="0 : 1000 : 0"
       inkscape:vp_z="744.09448 : 526.18109 : 1"
       inkscape:persp3d-origin="372.04724 : 350.78739 : 1"
       id="perspective2410" /></defs><sodipodi:namedview
     inkscape:window-height="667"
     inkscape:window-width="640"
     inkscape:pageshadow="2"
     inkscape:pageopacity="0.0"
     guidetolerance="10.0"
     gridtolerance="10.0"
     objecttolerance="10.0"
     borderopacity="1.0"
     bordercolor="#666666"
     pagecolor="#ffffff"
     id="base"
     showgrid="false"
     inkscape:zoom="1.9150259"
     inkscape:cx="120.625"
     inkscape:cy="120.625"
     inkscape:window-x="44"
     inkscape:window-y="58"
     inkscape:current-layer="g2412" /><g
     id="g2412"
     inkscape:groupmode="layer"
     inkscape:label="Schwartauer_Werke_Logo"
     transform="matrix(1.25,0,0,-1.25,0,241.25)"><path
       d="M 0,0.059998 L 192.756,0.059998 L 192.756,192.756 L 0,192.756 L 0,0.059998 z"
       style="fill:#ffffff;fill-opacity:1;fill-rule:nonzero;stroke:none"
       id="path2414" /><path
       d="M 8.5039,26.477 L 184.2519,26.477 L 184.2519,166.279 L 8.5039,166.279 L 8.5039,26.477 z"
       style="fill:#ffffff;fill-opacity:1;fill-rule:nonzero;stroke:none"
       id="path2416" /><path
       d="M 12.605,30.588 L 180.15,30.588 L 180.15,162.168 L 12.605,162.168 L 12.605,30.588 z"
       style="fill:#201c1d;fill-opacity:1;fill-rule:nonzero;stroke:none"
       id="path2418" /><path
       d="M 151.555,125.556 C 157.175,114.826 159.889,101.877 158.508,88.678 L 174.834,88.678 L 174.834,65.832 L 151.112,65.767 C 148.955,62.166 143.569,55.421 143.569,55.421 C 127.899,37.343 102.499,30.159 79.371,37.119 C 64.821,41.079 50.694,52.217 42.655,65.776 C 34.519,65.75 26.336,65.803 18.201,65.776 L 18.201,88.586 L 34.847,88.587 C 31.629,113.821 43.104,137.297 64.725,150.314 C 82.015,161.436 108.118,161.566 125.818,151.473 C 136.244,145.836 146.228,135.871 151.555,125.556"
       style="fill:#ffffff;fill-opacity:1;fill-rule:evenodd;stroke:none"
       id="path2420" /><path
       d="M 149.13,121.382 C 153.661,111.68 156.05,100.169 154.409,88.589 L 138.87,88.589 L 138.87,109.008 L 137.856,110.421 L 135.206,128.601 L 132.32,110.438 L 131.402,109.021 L 131.405,107.887 L 124.725,107.887 L 124.725,108.965 L 123.692,110.439 L 121.014,129.04 L 118.398,110.4 L 117.515,108.991 L 117.691,88.61 L 112.785,88.61 L 112.785,107.439 L 108.821,126.143 L 104.856,107.414 L 104.856,88.631 L 99.86,88.631 L 99.86,100.689 C 99.86,100.689 101.211,103.03 101.21,103.03 C 101.597,104.877 101.041,107.023 101.128,108.762 L 99.438,107.703 C 99.438,107.703 96.562,126.909 96.549,126.905 C 96.562,126.909 93.639,107.724 93.639,107.724 L 92.122,108.811 C 92.172,107.123 91.737,104.902 92.096,103.061 C 92.094,103.03 93.42,100.673 93.42,100.673 L 93.42,88.683 L 88.097,88.683 L 88.097,110.429 C 88.079,110.427 84.511,129.459 84.511,129.459 L 80.687,107.883 L 74.108,107.883 L 70.269,129.314 L 66.654,110.421 L 66.654,88.618 L 62.437,88.618 L 62.437,105.317 L 61.323,107.128 C 61.332,107.106 58.626,125.073 58.626,125.073 L 55.836,107.111 L 54.757,105.446 L 54.757,88.662 L 38.944,88.662 C 35.852,112.061 45.902,133.559 65.691,146.31 C 82.347,157.341 108.591,157.475 125.455,147.004 C 135.744,141.152 144.233,131.567 149.13,121.382"
       style="fill:#ed1c24;fill-opacity:1;fill-rule:evenodd;stroke:none"
       id="path2422" /><path
       d="M 146.023,65.757 C 142.006,57.997 134.417,51.473 127.055,46.801 C 110.598,36.199 85.277,35.949 68.568,46 C 60.663,50.154 52.514,57.904 47.685,65.757 L 146.023,65.757"
       style="fill:#ed1c24;fill-opacity:1;fill-rule:evenodd;stroke:none"
       id="path2424" /><path
       d="M 74.102,105.597 L 80.6826,105.597 L 80.6826,106.9554 L 74.102,106.9554 L 74.102,105.597 z"
       style="fill:#ed1c24;fill-opacity:1;fill-rule:nonzero;stroke:none"
       id="path2426" /><path
       d="M 77.453,101.669 L 80.763,98.077 L 80.763,104.674 L 74.131,104.674 L 74.131,98.077 L 77.453,101.669"
       style="fill:#ed1c24;fill-opacity:1;fill-rule:evenodd;stroke:none"
       id="path2428" /><path
       d="M 124.803,105.703 L 131.3833,105.703 L 131.3833,107.0625 L 124.803,107.0625 L 124.803,105.703 z"
       style="fill:#ed1c24;fill-opacity:1;fill-rule:nonzero;stroke:none"
       id="path2430" /><path
       d="M 128.099,101.776 L 131.41,98.184 L 131.41,104.782 L 124.778,104.782 L 124.778,98.184 L 128.099,101.776"
       style="fill:#ed1c24;fill-opacity:1;fill-rule:evenodd;stroke:none"
       id="path2432" /><path
       d="M 26.777,74.186 C 26.864,72.268 29.009,71.487 30.726,71.487 C 31.944,71.487 33.477,72.217 33.477,73.429 C 33.477,74.867 31.151,75.086 28.912,75.75 C 26.586,76.072 23.932,77.516 23.932,80.509 C 23.932,84.073 27.618,85.467 30.53,85.467 C 33.618,85.467 36.507,83.673 36.528,79.993 L 33.307,79.993 C 33.372,81.478 31.444,82.396 30.204,82.396 C 29.335,82.396 27.482,82.292 27.482,80.783 C 27.482,78.94 30.457,78.968 32.718,78.304 C 34.956,77.64 37.028,76.877 37.028,73.93 C 37.028,69.796 33.407,68.471 30.487,68.471 C 26.344,68.471 23.838,69.944 23.75,74.186 L 26.777,74.186"
       style="fill:#231f20;fill-opacity:1;fill-rule:evenodd;stroke:none"
       id="path2434" /><path
       d="M 50.505,79.525 C 50.288,81.137 48.634,82.481 46.938,82.481 C 44.329,82.481 42.837,80.088 42.837,76.967 C 42.837,73.9 44.329,71.562 46.938,71.562 C 48.829,71.562 50.011,72.6 50.615,74.246 L 53.891,74.246 C 53.393,70.457 50.958,68.638 47.025,68.638 C 42.33,68.638 39.287,72.332 39.287,76.967 C 39.287,81.603 42.33,85.298 47.025,85.298 C 50.372,85.298 53.838,83.377 53.946,79.525 L 50.505,79.525"
       style="fill:#231f20;fill-opacity:1;fill-rule:evenodd;stroke:none"
       id="path2436" /><path
       d="M 56.929,84.859 L 60.425,84.859 L 60.425,78.881 L 66.296,78.881 L 66.296,84.859 L 69.792,84.859 L 69.792,68.902 L 66.296,68.902 L 66.296,75.731 L 60.425,75.731 L 60.425,68.902 L 56.929,68.902 L 56.929,84.859"
       style="fill:#231f20;fill-opacity:1;fill-rule:evenodd;stroke:none"
       id="path2438" /><path
       d="M 88.684,68.893 L 85.637,68.893 L 83.114,78.479 L 80.79,68.893 L 77.527,68.908 L 72.678,84.859 L 76.11,84.859 L 79.161,75.264 L 81.141,84.859 L 85.005,84.859 L 87.118,75.194 L 89.613,84.859 L 93.112,84.859 L 88.684,68.893"
       style="fill:#231f20;fill-opacity:1;fill-rule:evenodd;stroke:none"
       id="path2440" /><path
       d="M 98.898,84.859 L 102.781,84.859 L 108.444,68.888 L 104.801,68.888 L 103.611,72.317 L 98.232,72.317 L 97.007,68.888 L 93.815,68.902 L 98.898,84.859 z M 99.064,75.367 L 102.585,75.367 L 100.807,80.483 L 100.763,80.483 L 99.064,75.367"
       style="fill:#231f20;fill-opacity:1;fill-rule:evenodd;stroke:none"
       id="path2442" /><path
       d="M 111.099,84.859 L 119.013,84.859 C 121.75,84.859 123.157,84.162 123.586,81.02 C 123.811,79.36 123.309,78.126 122.001,76.72 L 122.001,76.676 C 123.007,75.739 123.236,73.849 123.366,72.371 C 123.411,71.72 123.476,69.437 124.02,68.872 L 120.472,68.872 C 120.125,69.393 120.058,70.915 120.016,71.351 C 119.907,72.914 119.747,75.263 118.208,75.263 L 114.523,75.263 L 114.523,68.872 L 111.099,68.872 L 111.099,84.859 z M 114.599,78.543 L 117.991,78.543 C 119.207,78.543 120.133,79.197 120.133,80.37 C 120.133,81.522 118.946,82.044 117.817,82.044 L 114.599,82.044 L 114.599,78.543"
       style="fill:#231f20;fill-opacity:1;fill-rule:evenodd;stroke:none"
       id="path2444" /><path
       d="M 138.739,81.895 L 134.109,81.895 L 134.109,68.902 L 130.519,68.902 L 130.519,81.895 L 125.436,81.895 L 125.436,84.859 L 138.739,84.859 L 138.739,81.895"
       style="fill:#231f20;fill-opacity:1;fill-rule:evenodd;stroke:none"
       id="path2446" /><path
       d="M 144.226,84.874 L 148.109,84.874 L 153.773,68.902 L 150.128,68.902 L 148.94,72.33 L 143.561,72.33 L 142.335,68.902 L 139.143,68.917 L 144.226,84.874 z M 144.394,75.381 L 147.914,75.381 L 146.136,80.496 L 146.091,80.496 L 144.394,75.381"
       style="fill:#231f20;fill-opacity:1;fill-rule:evenodd;stroke:none"
       id="path2448" /><path
       d="M 168.498,75.665 C 168.498,71.12 166.514,68.86 162.008,68.86 C 157.5,68.86 155.518,71.12 155.518,75.665 L 155.518,84.862 L 159.236,84.862 L 159.236,75.422 C 159.236,73.402 160.11,72.371 162.008,72.371 C 163.906,72.371 164.78,73.402 164.78,75.422 L 164.78,84.862 L 168.498,84.862 L 168.498,75.665"
       style="fill:#231f20;fill-opacity:1;fill-rule:evenodd;stroke:none"
       id="path2450" /></g></svg>