<?xml version="1.0" encoding="utf-8"?>
<!-- Generator: Adobe Illustrator 15.0.0, SVG Export Plug-In . SVG Version: 6.00 Build 0)  -->
<!DOCTYPE svg PUBLIC "-//W3C//DTD SVG 1.1//EN" "http://www.w3.org/Graphics/SVG/1.1/DTD/svg11.dtd" [
	<!ENTITY ns_extend "http://ns.adobe.com/Extensibility/1.0/">
	<!ENTITY ns_ai "http://ns.adobe.com/AdobeIllustrator/10.0/">
	<!ENTITY ns_graphs "http://ns.adobe.com/Graphs/1.0/">
	<!ENTITY ns_vars "http://ns.adobe.com/Variables/1.0/">
	<!ENTITY ns_imrep "http://ns.adobe.com/ImageReplacement/1.0/">
	<!ENTITY ns_sfw "http://ns.adobe.com/SaveForWeb/1.0/">
	<!ENTITY ns_custom "http://ns.adobe.com/GenericCustomNamespace/1.0/">
	<!ENTITY ns_adobe_xpath "http://ns.adobe.com/XPath/1.0/">
]>
<svg version="1.1" id="Layer_1" xmlns:x="&ns_extend;" xmlns:i="&ns_ai;" xmlns:graph="&ns_graphs;"
	 xmlns="http://www.w3.org/2000/svg" xmlns:xlink="http://www.w3.org/1999/xlink" x="0px" y="0px" width="54.215px"
	 height="27.778px" viewBox="0 0 54.215 27.778" enable-background="new 0 0 54.215 27.778" xml:space="preserve">
<metadata>
	<sfw  xmlns="&ns_sfw;">
		<slices></slices>
		<sliceSourceBounds  y="-435.604" x="270.094" width="54.215" height="27.778" bottomLeftOrigin="true"></sliceSourceBounds>
	</sfw>
</metadata>
<path fill="#FAEA27" d="M27.108,0.77C13.119,0.77,1.78,5.844,1.78,13.889c0,8.19,11.339,13.12,25.328,13.12
	c13.988,0,25.328-4.93,25.328-13.12C52.437,5.844,41.097,0.77,27.108,0.77"/>
<path fill="#E62532" d="M30.253,5.941c0,1.17-1.407,2.119-3.145,2.119s-3.146-0.949-3.146-2.119s1.409-2.118,3.146-2.118
	S30.253,4.771,30.253,5.941"/>
<path fill="#009839" d="M38.989,6.274c1.277-0.129,3.091-1.017,3.313-2.386c-0.444-0.222-0.948-0.556-2.555-0.556
	c-1.851,0-3.517,1.296-4.22,3.441C36.223,6.604,37.254,6.45,38.989,6.274"/>
<path fill="#E62532" d="M39.428,6.758c-4.471,0-8.096,3.341-8.096,7.735c0,4.394,3.625,7.734,8.096,7.734
	c4.472,0,8.097-3.341,8.097-7.734C47.524,10.099,43.899,6.758,39.428,6.758z M39.428,20.228c-1.589,0-2.878-2.413-2.878-5.663
	c0-3.249,1.289-5.662,2.878-5.662c1.59,0,2.878,2.413,2.878,5.662C42.306,17.814,41.018,20.228,39.428,20.228z"/>
<path fill="#E62532" d="M16.73,11.535c-1.823-0.776-3.387-1.077-3.387-2.212c0-0.94,1.281-1.66,2.506-1.66
	c1.224,0,2.766,0.586,2.766,1.79c0,0.303-0.185,1.032-0.228,1.204c1.594,0.553,3.547-0.456,3.547-1.627
	c0-0.88-1.334-2.246-2.93-2.669c-1.384-0.367-2.928-0.536-4.229-0.455c-4.122,0.256-6.736,2.114-6.736,4.425
	c0,2.799,2.604,3.743,5.239,4.784c3.053,1.206,4.32,1.562,4.32,3.09c0,0.834-0.729,1.911-2.921,1.911
	c-1.639,0-2.825-1.223-2.825-1.971c0-0.688,0.58-1.144,1.311-1.534c-0.561-0.384-0.816-0.838-2.618-0.838
	c-1.529,0-3.155,0.933-3.155,2.474c0,1.877,2.398,4.051,7.432,4.051s8.342-1.746,8.342-5.2C23.163,14.235,20.86,13.292,16.73,11.535
	"/>
<g>
	<path fill="#E62532" d="M29.906,20.864c0,0.571-1.253,1.221-2.798,1.221c-1.546,0-2.799-0.649-2.799-1.221V8.726
		c0,0,1.172,0.325,2.799,0.325c1.626,0,2.798-0.325,2.798-0.325V20.864"/>
	<path fill="#1D4899" d="M27.108,0.77C13.119,0.77,1.78,5.844,1.78,13.889c0,8.19,11.339,13.12,25.328,13.12
		c13.988,0,25.328-4.93,25.328-13.12C52.437,5.844,41.097,0.77,27.108,0.77 M54.215,13.889c0,8.695-12.136,13.89-27.106,13.89
		S0,22.584,0,13.889C0,5.122,12.138,0,27.108,0S54.215,5.122,54.215,13.889z"/>
</g>
</svg>
