<?xml version="1.0" encoding="UTF-8" standalone="no"?>
<!-- Created with Inkscape (http://www.inkscape.org/) -->
<svg
   xmlns:dc="http://purl.org/dc/elements/1.1/"
   xmlns:cc="http://creativecommons.org/ns#"
   xmlns:rdf="http://www.w3.org/1999/02/22-rdf-syntax-ns#"
   xmlns:svg="http://www.w3.org/2000/svg"
   xmlns="http://www.w3.org/2000/svg"
   xmlns:sodipodi="http://sodipodi.sourceforge.net/DTD/sodipodi-0.dtd"
   xmlns:inkscape="http://www.inkscape.org/namespaces/inkscape"
   width="1773.0004"
   height="300"
   id="svg2"
   sodipodi:version="0.32"
   inkscape:version="0.46"
   version="1.0"
   sodipodi:docbase="C:\Documents and Settings\Flanker\Desktop"
   sodipodi:docname="Sony_logo.svg"
   inkscape:output_extension="org.inkscape.output.svg.inkscape">
  <defs
     id="defs4" />
  <sodipodi:namedview
     id="base"
     pagecolor="#ffffff"
     bordercolor="#666666"
     borderopacity="1.0"
     inkscape:pageopacity="0.0"
     inkscape:pageshadow="2"
     inkscape:zoom="0.41155254"
     inkscape:cx="844.24556"
     inkscape:cy="218.40785"
     inkscape:document-units="px"
     inkscape:current-layer="layer1"
     inkscape:showpageshadow="false"
     inkscape:window-width="1440"
     inkscape:window-height="881"
     inkscape:window-x="0"
     inkscape:window-y="0"
     showgrid="false" />
  <metadata
     id="metadata7">
    <rdf:RDF>
      <cc:Work
         rdf:about="">
        <dc:format>image/svg+xml</dc:format>
        <dc:type
           rdf:resource="http://purl.org/dc/dcmitype/StillImage" />
      </cc:Work>
    </rdf:RDF>
  </metadata>
  <g
     inkscape:label="Livello 1"
     inkscape:groupmode="layer"
     id="layer1"
     transform="translate(677.75822,-316.64792)">
    <g
       id="g2389">
      <path
         id="path2387"
         d="M -366.54898,330.09481 L -332.49443,330.09481 L -332.49443,420.18025 L -366.54898,420.18025 C -383.50689,364.33139 -467.89767,355.97477 -520.80132,355.97477 C -567.08457,355.97477 -601.65498,368.14411 -601.65498,391.64448 C -601.65498,418.80791 -536.54847,419.56799 -483.9064,426.69844 C -416.1409,435.87739 -317.27622,434.30533 -317.27622,522.89158 C -317.27622,592.80277 -410.13057,616.51839 -468.28482,616.64661 C -572.36677,616.87609 -604.68395,586.89179 -628.49769,586.89179 C -635.09615,586.89179 -638.50877,593.27732 -638.5087,606.04833 L -672.55103,606.04833 L -672.55103,504.96655 L -638.5087,504.96655 C -625.72496,565.90022 -532.02635,579.1786 -492.5589,579.1786 C -464.56603,579.1786 -392.57272,573.69069 -392.57272,540.41855 C -392.57272,508.88842 -438.76664,510.53444 -494.91362,502.516 C -556.43136,493.73055 -677.75822,491.80652 -677.75822,409.99245 C -677.75822,346.87021 -607.02606,316.64792 -527.65841,316.64792 C -435.46954,316.64792 -389.89428,346.58535 -376.21791,346.58535 C -369.77864,346.58535 -366.54898,340.66132 -366.54898,330.09481 L -366.54898,330.09481 z"
         style="font-size:400.5378418px;font-style:normal;font-weight:normal;opacity:1;fill:#000000;fill-opacity:1;stroke:none;stroke-width:1px;stroke-linecap:butt;stroke-linejoin:miter;stroke-opacity:1;font-family:Bitstream Vera Sans"
         sodipodi:nodetypes="ccccssssssccccsssssscc" />
      <path
         style="font-size:400.5378418px;font-style:normal;font-weight:normal;fill:#000000;fill-opacity:1;stroke:none;stroke-width:1px;stroke-linecap:butt;stroke-linejoin:miter;stroke-opacity:1;font-family:Bitstream Vera Sans"
         d="M 578.50818,600.02404 L 523.62498,600.02404 L 304.53193,412.57751 L 304.53193,551.96145 C 304.53181,561.30835 309.20524,565.98178 318.55222,565.98174 L 358.60848,565.98174 L 358.60848,600.02404 L 194.78985,600.02404 L 194.78985,565.98174 L 234.84607,565.98174 C 244.19287,565.98178 248.8663,561.30835 248.86637,551.96145 L 248.86637,381.33439 C 248.8663,371.98775 244.19287,367.31433 234.84607,367.3141 L 194.78985,367.3141 L 194.78985,333.2718 L 332.16914,333.2718 L 522.83048,496.28366 L 522.83048,381.33439 C 522.83008,371.98775 518.15668,367.31433 508.81018,367.3141 L 468.75388,367.3141 L 468.75388,333.2718 L 632.57248,333.2718 L 632.57248,367.3141 L 592.52848,367.3141 C 583.18128,367.31433 578.50778,371.98775 578.50818,381.33439 L 578.50818,600.02404 z"
         id="path2405" />
      <path
         style="font-size:400.5378418px;font-style:normal;font-weight:normal;fill:#000000;fill-opacity:1;stroke:none;stroke-width:1px;stroke-linecap:butt;stroke-linejoin:miter;stroke-opacity:1;font-family:Bitstream Vera Sans"
         d="M 934.22268,333.2718 L 1095.2421,333.2718 L 1095.2421,367.3141 L 1063.5956,367.3141 C 1050.2472,367.31433 1039.0343,371.98775 1029.9567,381.33439 L 922.20698,496.28366 L 922.20698,551.96145 C 922.20678,561.30835 926.88018,565.98178 936.22728,565.98174 L 976.28358,565.98174 L 976.28358,600.02404 L 782.01628,600.02404 L 782.01628,565.98174 L 822.07258,565.98174 C 831.41928,565.98178 836.09268,561.30835 836.09288,551.96145 L 836.09288,499.88958 L 725.54398,381.33439 C 716.46598,371.98775 705.25308,367.31433 691.90508,367.3141 L 660.25858,367.3141 L 660.25858,333.2718 L 858.11948,333.2718 L 858.11948,367.3141 L 838.50088,367.3141 C 833.69278,367.31433 830.62068,368.98283 829.28438,372.3196 C 827.94778,375.65682 828.48158,378.66175 830.88568,381.33439 L 896.17108,451.02025 L 961.45648,381.33439 C 963.86008,378.66175 964.39588,375.65682 963.06388,372.3196 C 961.73118,368.98283 958.66108,367.31433 953.85348,367.3141 L 934.22268,367.3141 L 934.22268,333.2718 z"
         id="text2388" />
      <path
         sodipodi:nodetypes="czzzzczzzz"
         style="fill:#000000;fill-opacity:1;stroke:none;stroke-width:1.72916806;stroke-linecap:round;stroke-linejoin:round;stroke-miterlimit:4;stroke-opacity:1"
         d="M -47.10521,316.64795 C -171.93933,316.64794 -254.60521,380.90677 -254.60521,466.64795 C -254.60521,552.38913 -171.93933,616.6479 -47.10521,616.6479 C 77.72891,616.6479 160.39479,552.38915 160.39479,466.64795 C 160.39479,380.90675 77.72891,316.64796 -47.10521,316.64795 z M -47.10521,356.64795 C 24.48641,356.64796 71.89479,403.77107 71.89479,466.64795 C 71.89479,529.52482 24.48641,576.64795 -47.10521,576.6479 C -118.69683,576.64785 -166.10521,529.52481 -166.10521,466.64795 C -166.10521,403.77108 -118.69683,356.64794 -47.10521,356.64795 z"
         id="path2401" />
    </g>
  </g>
</svg>
