<?xml version="1.0" encoding="utf-8"?>
<!-- Generator: Adobe Illustrator 15.0.0, SVG Export Plug-In . SVG Version: 6.00 Build 0)  -->
<!DOCTYPE svg PUBLIC "-//W3C//DTD SVG 1.1//EN" "http://www.w3.org/Graphics/SVG/1.1/DTD/svg11.dtd" [
	<!ENTITY ns_extend "http://ns.adobe.com/Extensibility/1.0/">
	<!ENTITY ns_ai "http://ns.adobe.com/AdobeIllustrator/10.0/">
	<!ENTITY ns_graphs "http://ns.adobe.com/Graphs/1.0/">
	<!ENTITY ns_vars "http://ns.adobe.com/Variables/1.0/">
	<!ENTITY ns_imrep "http://ns.adobe.com/ImageReplacement/1.0/">
	<!ENTITY ns_sfw "http://ns.adobe.com/SaveForWeb/1.0/">
	<!ENTITY ns_custom "http://ns.adobe.com/GenericCustomNamespace/1.0/">
	<!ENTITY ns_adobe_xpath "http://ns.adobe.com/XPath/1.0/">
]>
<svg version="1.1" id="Layer_1" xmlns:x="&ns_extend;" xmlns:i="&ns_ai;" xmlns:graph="&ns_graphs;"
	 xmlns="http://www.w3.org/2000/svg" xmlns:xlink="http://www.w3.org/1999/xlink" x="0px" y="0px" width="115.818px"
	 height="39.401px" viewBox="0 0 115.818 39.401" enable-background="new 0 0 115.818 39.401" xml:space="preserve">
<metadata>
	<sfw  xmlns="&ns_sfw;">
		<slices></slices>
		<sliceSourceBounds  y="24970" x="8498" width="-32766" height="-32766" bottomLeftOrigin="true"></sliceSourceBounds>
	</sfw>
</metadata>
<path fill="#010202" d="M7.043,31.154h1.033v1.051c0.398-0.844,1.244-1.226,2.146-1.226c1.057,0,1.959,0.447,2.61,1.226
	c0.069,0.104,0.13,0.202,0.196,0.315c0.053-0.113,0.098-0.202,0.165-0.315c0.562-0.778,1.605-1.226,2.546-1.226
	c0.877,0,1.708,0.425,2.506,1.226c0.641,0.638,0.758,1.468,0.758,2.407v4.589h-1.098v-4.485c0-0.586-0.05-1.23-0.401-1.729
	c-0.436-0.625-1.079-0.965-1.814-0.965c-0.696,0-1.399,0.355-1.788,0.914c-0.347,0.505-0.336,1.193-0.336,1.779v4.485h-1.088V34.6
	c0-0.604-0.029-1.072-0.391-1.612c-0.409-0.581-1.083-0.961-1.803-0.961c-0.688,0-1.359,0.291-1.773,0.856
	c-0.363,0.524-0.379,1.099-0.379,1.717v4.601h-1.09V31.154z"/>
<path fill="#010202" d="M28.952,39.201H27.9V37.69c-0.619,1.133-1.845,1.711-3.109,1.711c-1.202,0-2.519-0.534-3.546-1.711
	c-0.304-0.325-0.803-1.34-0.803-2.559c0-1.08,0.546-2.174,0.843-2.449c1.219-1.301,2.352-1.703,3.477-1.703
	c1.264,0,2.545,0.559,3.139,1.703v-1.528h1.052V39.201z M21.534,35.217c0,1.771,1.534,3.14,3.257,3.14
	c1.673,0,3.109-1.443,3.109-3.126c0-1.781-1.352-3.209-3.139-3.209C22.99,32.022,21.534,33.441,21.534,35.217"/>
<polygon fill="#010202" points="31.121,28.33 32.211,28.33 32.211,35.962 35.916,31.154 37.3,31.154 34.193,35.19 37.52,39.201 
	36.113,39.201 33.495,36.029 32.211,37.674 32.211,39.201 31.121,39.201 "/>
<path fill="#010202" d="M38.865,35.571c0.07,1.527,1.551,2.785,3.047,2.785c1.187,0,2.391-0.666,2.875-1.764h1.132
	c-0.563,1.616-2.207,2.809-3.915,2.809c-2.346,0-4.216-1.858-4.216-4.211c0-2.348,1.855-4.211,4.194-4.211
	c1.262,0,2.426,0.574,3.236,1.56c0.745,0.928,0.912,1.872,0.939,3.032H38.865z M45.063,34.586c-0.276-1.427-1.581-2.564-3.069-2.564
	c-1.521,0-2.859,1.072-3.129,2.564H45.063z"/>
<path fill="#010202" d="M54.531,28.329h1.092v4.328c0.525-1.118,1.854-1.678,3.042-1.678c2.338,0,4.358,1.788,4.358,4.17
	c0,1.155-0.514,2.187-0.963,2.67c-1.117,1.274-2.111,1.582-3.286,1.582c-1.169,0-2.581-0.533-3.217-1.582V39.2h-1.026V28.329z
	 M56.396,32.989c-0.631,0.645-0.857,1.375-0.857,2.256c0,1.797,1.464,3.111,3.236,3.111c1.743,0,3.164-1.437,3.164-3.18
	c0-1.825-1.448-3.154-3.244-3.154C57.827,32.022,57.002,32.377,56.396,32.989"/>
<path fill="#010202" d="M65.389,35.571c0.058,1.527,1.549,2.785,3.042,2.785c1.189,0,2.392-0.666,2.885-1.764h1.135
	c-0.563,1.616-2.216,2.809-3.917,2.809c-2.363,0-4.227-1.858-4.227-4.211c0-2.348,1.851-4.211,4.187-4.211
	c1.279,0,2.426,0.574,3.246,1.56c0.751,0.928,0.91,1.872,0.945,3.032H65.389z M71.588,34.586c-0.272-1.427-1.584-2.564-3.072-2.564
	c-1.516,0-2.857,1.072-3.127,2.564H71.588z"/>
<rect x="74.487" y="28.329" fill="#010202" width="1.084" height="10.871"/>
<path fill="#010202" d="M77.653,28.329h1.087v1.855h-1.087V28.329z M77.653,31.155h1.087v8.047h-1.087V31.155z"/>
<path fill="#010202" d="M81.631,35.571c0.062,1.527,1.548,2.785,3.036,2.785c1.192,0,2.396-0.666,2.885-1.764h1.132
	c-0.561,1.616-2.205,2.809-3.906,2.809c-2.364,0-4.234-1.858-4.234-4.211c0-2.348,1.85-4.211,4.196-4.211
	c1.265,0,2.434,0.574,3.238,1.56c0.746,0.928,0.913,1.872,0.938,3.032H81.631z M87.831,34.586c-0.279-1.427-1.591-2.564-3.076-2.564
	c-1.519,0-2.858,1.072-3.124,2.564H87.831z"/>
<polygon fill="#010202" points="89.252,31.154 90.43,31.154 93.209,37.82 95.994,31.154 97.171,31.154 93.766,39.201 92.636,39.201 
	"/>
<path fill="#010202" d="M98.597,35.571c0.061,1.527,1.554,2.785,3.032,2.785c1.188,0,2.406-0.666,2.88-1.764h1.131
	c-0.56,1.616-2.204,2.809-3.908,2.809c-2.356,0-4.222-1.858-4.222-4.211c0-2.348,1.851-4.211,4.191-4.211
	c1.265,0,2.434,0.574,3.234,1.56c0.763,0.928,0.925,1.872,0.947,3.032H98.597z M104.785,34.586c-0.276-1.427-1.58-2.564-3.068-2.564
	c-1.517,0-2.857,1.072-3.12,2.564H104.785z"/>
<path fill="#010202" d="M51.586,37.746c0,0.869-0.69,1.569-1.561,1.569c-0.86,0-1.561-0.7-1.561-1.569
	c0-0.856,0.7-1.563,1.561-1.563C50.896,36.182,51.586,36.889,51.586,37.746"/>
<path fill="#010202" d="M41.259,20.397c-4.184,0-8.07-1.26-10.684-3.599c-1.95-1.761-2.913-4.157-2.913-6.613
	c0-2.43,0.996-4.855,2.913-6.609C32.994,1.384,37.26,0,41.259,0c4.458,0,8.006,1.124,10.716,3.587
	c1.936,1.763,2.868,4.155,2.868,6.598c0,2.358-0.987,4.878-2.868,6.613C49.453,19.155,45.478,20.397,41.259,20.397v-2.691
	c2.247,0,4.301-0.78,5.739-2.203c1.437-1.435,2.104-3.179,2.104-5.318c0-2.067-0.72-3.971-2.104-5.333
	c-1.418-1.394-3.537-2.199-5.739-2.199c-2.199,0-4.309,0.791-5.742,2.199c-1.366,1.362-2.087,3.284-2.087,5.333
	c0,2.039,0.73,3.951,2.087,5.318c1.434,1.418,3.543,2.203,5.742,2.203V20.397z M10.606,0.001c-2.244,0-4.8,0.437-6.951,1.399
	C1.65,2.292,0,3.735,0,6.135c0,2.149,1.371,3.408,1.328,3.368c0.594,0.54,1.529,1.459,3.985,1.989
	c1.089,0.241,3.428,0.599,5.769,0.861c2.31,0.239,4.598,0.475,5.528,0.705c0.738,0.188,1.967,0.446,1.967,1.829
	c0,1.394-1.302,1.811-1.533,1.899c-0.231,0.095-1.788,0.809-4.61,0.809c-2.079,0-4.572-0.623-5.484-0.935
	c-1.043-0.379-2.14-0.884-3.167-2.142c-0.26-0.306-0.646-1.166-0.646-2.008H0.568v7.132h2.835v-0.965
	c0-0.094,0.147-0.559,0.61-0.335c0.589,0.277,2.324,0.954,4.148,1.333c1.484,0.31,2.444,0.53,4.289,0.53
	c3.02,0,4.643-0.487,5.754-0.805c1.078-0.311,2.382-0.855,3.427-1.694c0.578-0.45,1.825-1.624,1.825-3.751
	c0-2.046-1.086-3.313-1.477-3.694c-0.523-0.528-1.159-0.933-1.83-1.247c-0.591-0.271-1.503-0.605-2.251-0.78
	c-1.466-0.369-4.765-0.809-6.333-0.968c-1.65-0.18-4.529-0.415-5.665-0.769C5.55,6.392,4.834,6.046,4.834,5.231
	c0-0.582,0.337-1.084,0.973-1.492c1.008-0.632,3.077-1.021,5.203-1.021c2.539-0.007,4.678,0.556,6.034,1.168
	c0.466,0.225,1.007,0.509,1.443,0.863c0.486,0.396,1.16,1.217,1.409,2.364h2.294V0.906H19.64v0.721c0,0.237-0.239,0.531-0.706,0.291
	C17.795,1.313,14.57,0.02,10.606,0.001 M57.638,1.152v2.26h1.979c1.429,0,1.531,0.801,1.531,1.488v10.603
	c0,0.638,0.042,1.5-0.876,1.5h-2.453v2.267h10.465v-2.267H65.73c-1.015,0-1.069-0.454-1.087-1.457V6.472L78.99,19.27h3.647
	L82.445,4.816c0.022-1.05,0.083-1.409,1.167-1.409h2.289V1.152H75.253v2.255h2.346c1.062,0,1.252,0.425,1.262,1.409l0.13,7.562
	L66.541,1.152H57.638z M95.85,17.003v2.267h12.419v-2.273h-2.349l-0.615-0.036c-0.247-0.066-0.419-0.239-0.484-0.423l-0.05-0.498
	v-3.575l0.087-0.339c0.17-0.197,6.598-7.533,6.892-7.857c0.622-0.71,0.958-0.862,1.786-0.862h2.283V1.152h-10.229v2.255h1.53
	c0.457,0,0.581,0.459,0.384,0.704l-4.348,5.082l-0.122-0.014l-4.234-5.068c-0.309-0.376-0.06-0.704,0.272-0.704h1.507V1.152H88.091
	v2.255h2.222c0.97,0,1.596,0.609,1.959,1.011c0.295,0.313,6.652,7.525,6.8,7.73c0.157,0.198,0.157,0.23,0.157,0.317v3.575
	l-0.038,0.498c-0.095,0.184-0.249,0.357-0.493,0.423l-0.621,0.042H95.85z"/>
</svg>
