<?xml version="1.0" encoding="utf-8"?>
<!-- Generator: Adobe Illustrator 15.0.0, SVG Export Plug-In . SVG Version: 6.00 Build 0)  -->
<!DOCTYPE svg PUBLIC "-//W3C//DTD SVG 1.1//EN" "http://www.w3.org/Graphics/SVG/1.1/DTD/svg11.dtd" [
	<!ENTITY ns_extend "http://ns.adobe.com/Extensibility/1.0/">
	<!ENTITY ns_ai "http://ns.adobe.com/AdobeIllustrator/10.0/">
	<!ENTITY ns_graphs "http://ns.adobe.com/Graphs/1.0/">
	<!ENTITY ns_vars "http://ns.adobe.com/Variables/1.0/">
	<!ENTITY ns_imrep "http://ns.adobe.com/ImageReplacement/1.0/">
	<!ENTITY ns_sfw "http://ns.adobe.com/SaveForWeb/1.0/">
	<!ENTITY ns_custom "http://ns.adobe.com/GenericCustomNamespace/1.0/">
	<!ENTITY ns_adobe_xpath "http://ns.adobe.com/XPath/1.0/">
]>
<svg version="1.1" id="Layer_1" xmlns:x="&ns_extend;" xmlns:i="&ns_ai;" xmlns:graph="&ns_graphs;"
	 xmlns="http://www.w3.org/2000/svg" xmlns:xlink="http://www.w3.org/1999/xlink" x="0px" y="0px" width="136.072px"
	 height="79.372px" viewBox="0 0 136.072 79.372" enable-background="new 0 0 136.072 79.372" xml:space="preserve">
<metadata>
	<sfw  xmlns="&ns_sfw;">
		<slices></slices>
		<sliceSourceBounds  y="-460.517" x="229.251" width="136.072" height="79.372" bottomLeftOrigin="true"></sliceSourceBounds>
	</sfw>
</metadata>
<path d="M66.107,8.101c-0.158-0.014-0.515,0.011-0.544,0.004C65.389,8.119,65.4,8.246,65.404,8.28
	c0.024,0.068,0.166,0.131,0.211,0.15c0.435,0.189,1.073,0.848,1.085,1.367c-0.012,1.393-0.465,20.569-0.566,24.273
	c-0.018,0.893,0.047,1.583-0.545,2.37c-0.229,0.297-0.528,0.419-0.73,0.496c-0.035,0.018-0.116,0.041-0.153,0.061
	c-0.141,0.047-0.125,0.206,0.043,0.227c0.036,0,0.07,0.003,0.114,0.007c2.263-0.013,4.301,0.046,7.232,0.064
	c0.333,0.006,0.408-0.131,0.277-0.211c-1.127-0.551-1.082-1.51-1.094-2.477l0.344-13.489l4.562,0.149
	c-0.268,4.677-0.416,8.886-0.577,13.482c-0.077,0.805-0.087,2.005-1.354,2.335c-0.164,0.05-0.188,0.233,0.034,0.286
	c3.74,0.189,7.068,0.397,7.186,0.408c0.477,0.044,0.334-0.28,0.184-0.304c-0.214-0.036-0.232-0.076-0.421-0.16
	c-0.373-0.274-0.512-0.678-0.531-1.097l1.036-23.654c0.061-0.962,0.023-2.195,0.581-2.966c0.236-0.279,0.632-0.549,1.072-0.543
	c0.2-0.063,0.223-0.285,0.019-0.33c-0.286-0.067-4.108-0.289-7.941-0.465c-0.186,0-0.197,0.138-0.17,0.195
	c0.031,0.055,0.107,0.085,0.176,0.11c0.203,0.093,0.434,0.097,0.639,0.238c0.737,0.503,0.543,1.163,0.562,1.911
	c-0.16,3.105-0.473,10.08-0.473,10.08c-1.068-0.046-3.492-0.142-4.562-0.162l0.271-9.546c0.028-1.081,0.51-1.773,0.772-2.087
	c0.21-0.259,0.547-0.405,0.871-0.489c0.302-0.091,0.209-0.328-0.083-0.312c-0.081-0.048-3.939-0.104-7.651-0.092"/>
<path d="M95.058,39.338l1.043-6.336c0.046-0.161-0.148-0.307-0.294-0.161c-0.546,0.867-1.201,2.13-1.767,2.964
	c-0.772,0.976-1.646,2.544-3.641,2.383c-0.361-0.029-0.613-0.038-1.041-0.111l1.911-15.389c0.478,0.019,0.883,0.15,1.254,0.533
	c0.98,0.851,1.888,3.166,2.373,4.757c0.101,0.254,0.324,0.261,0.364,0.059l1.426-9.122c0.04-0.161-0.223-0.223-0.307-0.143
	c-0.056,0.056-0.04,0.073-0.071,0.124c-0.146,0.217-0.267,0.508-0.427,0.733c-0.861,1.172-2.305,2.898-4.536,2.626l1.469-12.081
	c1.19,0.124,2.293,0.256,3.115,1.711c0.793,1.584,1.396,2.986,1.934,4.738c0.013,0.122,0.289,0.2,0.335-0.017l0.96-6.104
	c-0.694-0.085-7.006-1.046-13.102-1.528c-0.298-0.034-0.359,0.161-0.142,0.26c0.03,0.017,0.074,0.037,0.104,0.049
	c0.161,0.061,0.337,0.126,0.435,0.211c0.698,0.526,0.675,1.2,0.675,1.884l-2.656,23.68c-0.151,0.771,0.078,2.188-1.122,2.44
	c-0.205,0.038-0.15,0.045-0.367,0.051c-0.075,0-0.197-0.013-0.24,0.018c-0.116,0.093-0.169,0.337,0.26,0.332
	C89.024,38.472,91.626,38.825,95.058,39.338"/>
<path d="M22.866,69.489c0.525,1.882,0.561,3.48,0.354,5.221c-0.266,2.174-0.634,2.818-1.172,3.426
	c-0.619,0.688-1.538,1.006-2.589,0.785c-1.107-0.278-1.531-0.865-1.761-1.776c-0.561-2.658-0.407-5.435-0.605-8.158
	c-0.139-5.717-0.154-11.647,0.559-17.438c0.143-1.205,0.581-2.541,2.191-2.789c0.713-0.032,1.276,0.237,1.697,0.746
	c1.63,2.223,2.261,4.633,3.104,7.006c0.061,0.125,0.239,0.074,0.264,0.009c-0.151-2.854-0.499-5.628-0.659-8.478
	c-0.045-0.231-0.279-0.142-0.422,0.155c-0.974,1.244-2.559,0.222-3.891,0.115c-1.536-0.14-2.88,0.454-3.964,1.39
	c-3.593,3.079-4.444,9.825-4.246,15.713c0.146,4.229,1.414,10.135,3.377,12.039c1.45,1.409,2.832,2.018,4.789,1.904
	c1.303-0.016,2.571-0.535,3.488-1.471c0.765-0.807,2.162-3.375,1.517-6.281C24.665,70.548,24.025,69.593,22.866,69.489"/>
<path d="M37.578,51.231c-0.962-0.881-1.952-1.211-3.166-1.258c-2.018-0.154-3.648,0.682-4.658,2.046
	c-2.867,4.148-3.041,8.341-3.122,12.791c0.138,3.866,0.268,8.288,2.894,11.941c1.077,1.458,3.207,2.536,5.291,2.217
	c2.749-0.387,4.354-2.926,5.147-4.761c1.566-3.68,1.695-8.854,1.231-13.514C40.843,57.043,39.64,52.95,37.578,51.231 M35.553,76.757
	c-0.144,0.703-0.38,1.576-1.24,1.866c-0.382,0.122-0.952,0.106-1.22-0.109c-0.886-0.473-0.916-2.032-0.996-2.646
	c-0.559-4.137-0.536-10.644-0.428-14.366c0.068-2.318,0.18-7.99,0.798-10.197c0.174-0.698,0.617-0.901,1.189-1.004
	c0.614-0.078,1.266,0.067,1.513,0.603c0.706,1.088,0.812,5.532,1.002,8.153c0.109,1.486,0.07,4.497,0.07,4.497
	C36.19,68.034,36.457,72.436,35.553,76.757"/>
<path d="M87.086,51.458c-0.967-0.883-1.958-1.209-3.175-1.256c-2.011-0.152-3.646,0.683-4.656,2.041
	c-2.867,4.152-3.037,8.35-3.122,12.797c0.137,3.863,0.261,8.29,2.898,11.943c1.078,1.448,3.203,2.526,5.29,2.207
	c2.754-0.379,4.35-2.914,5.146-4.752c1.569-3.676,1.694-8.857,1.232-13.512C90.343,57.271,89.141,53.171,87.086,51.458
	 M85.058,76.987c-0.144,0.705-0.385,1.569-1.238,1.873c-0.384,0.108-0.957,0.102-1.221-0.121c-0.886-0.463-0.918-2.028-1.003-2.648
	c-0.551-4.132-0.525-10.629-0.42-14.359c0.067-2.322,0.173-7.988,0.799-10.197c0.167-0.694,0.615-0.901,1.189-1.002
	c0.614-0.086,1.263,0.072,1.51,0.6c0.704,1.085,0.81,5.525,1,8.152c0.111,1.49,0.067,4.498,0.067,4.498
	C85.697,68.267,85.957,72.666,85.058,76.987"/>
<path d="M61.188,78.499c-0.361-0.113-0.742-0.401-0.897-0.742c-0.548-1.021-0.319-2.248-0.373-3.586l-0.025-21.969
	c-0.038-0.494,0.143-0.858,0.5-1.117c0.037-0.058,0.28-0.168,0.28-0.168c0.359-0.075,0.253-0.342-0.012-0.332l-6.091-0.008
	c-0.438,2.601-2.147,11.78-2.136,11.756l-3.69-11.75l-6.414,0.002c-0.186-0.008-0.344,0.221-0.006,0.332
	c0.21,0.074,0.52,0.16,0.654,0.25c1.113,0.623,1.439,1.94,1.532,2.653c0.196,3.074,0.223,16.024-0.071,21.007
	c-0.059,0.965-0.888,2.942-2.318,3.688c-0.268,0.087-0.303,0.24-0.1,0.288l6.28,0.003l0.143-0.008
	c0.165-0.012,0.162-0.223,0.017-0.239c-0.723-0.317-2.717-1.601-2.773-7.942l-0.408-14.228c0.24,0.7,4.376,14.081,5.011,16.254
	c0.016,0.052,0.025,0.091,0.069,0.103c0.079,0.039,0.147-0.004,0.153-0.092l0.248-0.845l4.021-18.252
	c0.123,3.151,0.194,6.114,0.204,9.144l0.17,8.738c-0.002,1.635,0.141,3.061,0.017,4.866c-0.118,0.858-0.472,1.914-1.683,2.165
	c-0.238,0.081-0.232,0.264-0.003,0.336h7.666c0.156,0,0.193-0.1,0.201-0.169c0.004-0.027-0.025-0.074-0.057-0.091
	C61.265,78.52,61.229,78.511,61.188,78.499"/>
<path d="M98.837,63.181c0.442,0,0.835-0.061,1.387,0.057c1.229,0.326,1.317,2.225,1.361,2.639c0.051,0.46,0.026,3.965,0.069,6.126
	c0.032,1.552-0.261,3.711,0.397,5.117c0.521,1.122,1.857,1.712,3.506,1.679c0.772-0.015,1.443,0.008,1.963,0.014
	c0.341,0,0.297-0.174,0.187-0.211c-0.204-0.076-0.445-0.228-0.486-0.248c-0.751-0.556-0.89-1.418-0.933-2.242
	c-0.356-3.617,0.419-7.965-0.693-10.454c-0.711-1.435-2.59-2.599-4.482-2.691c0.821-0.093,1.514-0.323,2.215-0.649
	c2.988-1.476,3.587-4.906,2.924-7.695c-0.429-1.572-1.847-3.133-3.866-3.604c-2.334-0.627-6.781-0.438-10.512-0.432
	c-0.198-0.007-0.271,0.245,0.016,0.282c0.202,0.036,0.505,0.036,0.687,0.106c0.933,0.227,1.549,1.117,1.586,2.352L94.159,75.54
	c-0.037,0.961,0.181,1.889-0.651,2.67c-0.265,0.216-0.587,0.277-0.787,0.35c-0.035,0.015-0.073,0.028-0.107,0.047
	c-0.08,0.031-0.108,0.183,0.092,0.191l7.093,0.005c0.214-0.018,0.185-0.221-0.012-0.229c-1.154-0.173-0.918-1.034-0.962-1.901
	L98.837,63.181z M100.269,62.543c-0.441,0.181-0.957,0.218-1.432,0.196l0.006-11.729h0.037c0.854-0.015,1.904,0.314,2.235,1.252
	c0.9,2.404,0.893,5.121,0.614,7.629C101.569,60.813,101.437,61.978,100.269,62.543"/>
<path d="M118.756,78.803c0.188-0.013,0.188-0.092,0.118-0.202c-0.906-0.298-1.269-1.061-1.347-1.844l0.04-25.512l-0.012-0.229
	c1.765,0.683,3.498,4.442,4.013,6.369c0.042,0.161,0.236,0.121,0.236,0.002l-0.005-6.796l-13.822-0.005
	c0.033,0.628-0.023,5.298,0.033,6.767c0.006,0.057,0.044,0.115,0.093,0.141c0.021,0.013,0.064,0.015,0.095,0.015
	c0.084-0.015,0.14-0.075,0.14-0.131c0.158-2.218,2.501-5.325,4.2-6.334c-0.031,0.741-0.015,20.708-0.003,24.894
	c0.069,0.863-0.276,2.221-1.376,2.574c-0.008,0.004-0.108,0.04-0.127,0.062c-0.037,0.03-0.08,0.209,0.193,0.211L118.756,78.803z"/>
<path d="M35.057,35.102c0.716-4.055-0.378-9.283-1.931-13.846c-1.217-3.587-3.384-7.41-5.85-8.658
	c-1.176-0.657-2.254-0.757-3.476-0.519c-2.066,0.326-3.505,1.547-4.2,3.147c-1.9,4.836-1.096,9.095-0.13,13.582
	c1.048,3.847,2.213,8.253,5.704,11.303c1.434,1.203,3.818,1.789,5.837,0.975C33.683,40.058,34.697,37.134,35.057,35.102
	 M31.231,38.702c0.016,0.739-0.018,1.669-0.808,2.168c-0.353,0.205-0.933,0.328-1.251,0.164c-0.999-0.258-1.395-1.819-1.627-2.423
	c-1.52-4.011-3.025-10.552-3.794-14.309c-0.478-2.356-1.696-8.064-1.593-10.43c0.014-0.74,0.407-1.052,0.967-1.288
	c0.59-0.223,1.28-0.223,1.657,0.255c0.96,0.917,2.106,5.365,2.909,7.948c0.468,1.474,1.126,4.493,1.126,4.493
	C29.82,29.792,31.122,34.148,31.231,38.702"/>
<path d="M111.181,41.134c-0.047-0.413,0-0.854,0.068-1.268c0.426-3.718,2.153-7.936,1.562-10.689c-0.4-1.597-2.039-3.399-3.929-3.9
	c0.854,0.083,1.599,0.007,2.37-0.181c3.338-0.831,4.688-4.154,4.624-7.109c-0.087-1.679-1.195-3.633-3.129-4.54
	c-2.224-1.147-7.438-1.931-11.212-2.573c-0.196-0.031-0.315,0.199-0.026,0.302c0.194,0.07,0.498,0.12,0.671,0.229
	c0.902,0.416,1.379,1.398,1.18,2.653l-4.308,22.494c-0.229,0.972-0.209,2.014-1.204,2.647c-0.295,0.127-0.648,0.152-0.858,0.196
	c-0.044,0.006-0.081,0.015-0.124,0.028c-0.092,0.012-0.138,0.164,0.067,0.213c3.552,0.617,7.193,1.32,7.193,1.32
	c0.222,0.023,0.233-0.187,0.033-0.235c-1.131-0.404-0.732-1.224-0.609-2.11l2.638-13.66c0.446,0.092,1.214,0.169,1.748,0.409
	c1.164,0.589,0.838,2.742,0.786,3.17c-0.042,0.47-0.836,4.013-1.254,6.195c-0.3,1.566-1.065,3.684-0.716,5.239
	c0.284,1.234,1.506,2.132,3.181,2.453c0.536,0.105,2.753,0.521,2.99,0.629l5.214,1.446c0.353,0.069,0.396-0.235,0.166-0.335
	c-1.02-0.451-1.562-1.125-1.733-2.1c-0.505-2.607,0.751-5.803,2.09-11.921l2.487-9.157c0.03,7.615,0.177,23.556,0.305,24.546
	l3.153,1.057l6.417-20.252c0.973-3.028,1.144-4.158,2.473-5.455c0.663-0.721,1.695-0.796,2.481-0.913
	c0.133-0.038,0.133-0.195-0.041-0.242c0,0-3.699-1.392-7.118-2.401c-0.031-0.008-0.124-0.002-0.158,0
	c-0.137,0.029-0.229,0.196,0.086,0.367c0.36,0.182,0.779,0.396,1.2,0.771c1.019,0.968,0.743,3.398,0.387,5.128
	c-1.329,5.352-3.185,10.049-4.11,14.083l0.04-21.156c0,0-3.672-1.056-7.442-2.051c-0.353-0.109-0.439,0.188-0.214,0.317
	c0.438,0.166,1.118,0.357,1.485,0.678c1.475,1.136,0.452,3.492,0.26,4.484l-2.919,10.424c-0.868,3.142-1.665,5.357-2.651,8.184
	c-0.364,1.055-0.934,2.271-1.933,3.015C112.21,42.034,111.3,42.089,111.181,41.134 M108.127,24.671
	c-0.479,0.086-1.379-0.057-1.862-0.173l2.278-11.879l0.05,0.015c1.174,0.192,2.486,0.843,2.621,1.853
	c0.387,2.626-0.211,5.365-1.036,7.832C109.815,23.205,109.426,24.354,108.127,24.671"/>
<path d="M7.553,24.787c-2.179-1.325-3.946-3.397-4.224-5.726c-0.051-0.542-0.094-1.291,0.142-1.929
	c0.093-0.192,0.367-1.135,1.209-1.568c0.842-0.49,2-0.546,2.848-0.167c2.775,1.678,4.413,4.528,5.804,7.118l0.068,0.117
	c0.105,0.164,0.404,0.082,0.291-0.196l-2.399-9.278c-0.04-0.116-0.221-0.091-0.256,0.065c-0.151,0.23-0.254,0.761-0.437,1.01
	c-0.351,0.44-0.748,0.662-1.47,0.624c-2.164-0.257-4.041-0.335-6.157,1.065c-2.363,1.45-3.267,4.228-2.889,6.444
	c0.155,0.799,0.418,1.648,0.836,2.434c1.683,2.825,4.943,4.64,7.904,6.461c3.69,2.093,7.241,5.59,7.582,9.404
	c0.088,1.473-0.269,3.651-2.286,4.534c-1.301,0.409-2.328,0.067-2.925-0.113c-3.43-1.547-5.146-4.924-7.11-7.685
	c-0.38-0.155-0.421,0.185-0.327,0.333c1.148,3.34,2.285,6.704,3.493,10.042c0.026,0.179,0.306,0.16,0.359-0.04
	c0.087-0.834,0.579-1.627,1.555-1.861c0.95-0.272,4.409,0.662,6.72-1.044c2.397-1.534,3.086-4.451,3.137-6.787
	C19.153,31.037,12.719,27.789,7.553,24.787"/>
<path d="M63.044,50.589c-0.387,0-0.268,0.25-0.039,0.271c0.827,0.062,1.229,1.054,1.259,1.42l0.04,23.246
	c-0.032,1.055,0.047,2.475-1.489,3.004c-0.13,0.029-0.217,0.275,0.191,0.275h7.771c0.158-0.021,0.23-0.262-0.039-0.287
	c-0.953-0.117-1.398-0.613-1.456-1.455l0.024-14.521c0.243-0.024,0.461,0.096,0.584,0.274c1.003,1.604,1.9,3.235,2.693,4.85
	c0.1,0.072,0.204-0.007,0.19-0.102l-0.01-9.672c0.01-0.183-0.198-0.183-0.242-0.009c-0.62,1.3-1.14,2.593-2.144,3.797
	c-0.286,0.261-0.649,0.427-1.053,0.392L69.313,50.95c0.976-0.033,1.845,0.313,2.464,1.287c0.834,1.453,1.574,2.562,2.616,4.903
	c0.061,0.198,0.445,0.198,0.463-0.024l-0.004-6.527H63.044z"/>
<path d="M42.831,9.416c0.27-0.034,0.285,0.171,0.075,0.297c-0.205,0.12-0.379,0.183-0.484,0.27c-0.774,0.468-1.078,1.263-1.04,2.228
	l3.011,22.779c0.156,0.945,0.229,2.071,1.369,2.497c1.076,0.325,2.575-0.006,3.233-0.57c1.418-1.375,0.563-3.582,0.453-5.582
	c-0.573-5.094-1.245-9.599-1.946-14.645c-0.111-0.785-0.583-5.042-3.028-6.748c-0.112-0.095-0.354-0.226-0.589-0.302
	c-0.138-0.029-0.252-0.061-0.255-0.141c-0.006-0.077,0.032-0.155,0.229-0.197c0,0,5.346-0.508,6.395-0.586
	c0.116-0.015,0.342-0.04,0.354,0.023c0.076,0.115-0.101,0.211-0.144,0.235c-1.13,1.02-2.009,3.687-1.706,6.572l0.973,9.338
	c0.341,3.051,0.812,6.123,1.104,9.691c0.148,2.088-1.134,3.343-2.98,3.883c-1.992,0.519-5.191,0.807-6.726-0.06
	c-2.465-1.574-2.062-4.204-2.454-6.489c-0.211-1.221-1.966-15.914-2.504-19.012c-0.26-1.223-1.205-1.707-1.92-1.832
	c-0.316-0.043-0.649-0.153-0.693-0.228c-0.068-0.105-0.002-0.211,0.18-0.229c0,0,2.915-0.452,4.423-0.638
	C39.666,9.784,42.831,9.416,42.831,9.416"/>
<path d="M64.468,8.129l0.088,6.952c0.003,0.117-0.199,0.171-0.245,0.012c-0.616-1.967-2.319-5.788-4.16-6.405l1.063,26.507
	c0.117,0.806,0.521,1.586,1.471,1.84c0.071,0.123,0.077,0.203-0.111,0.222c-2.629,0.071-5.303,0.23-7.773,0.348
	c-0.293,0.018-0.242-0.17-0.215-0.211c0.015-0.025,0.124-0.06,0.137-0.07c1.115-0.4,1.427-1.865,1.318-2.756
	c-0.194-4.305-1.061-24.87-1.067-25.638c-1.699,1.109-3.78,4.416-3.847,6.697c0,0.064-0.059,0.123-0.137,0.144
	c-0.035,0.004-0.086,0.004-0.102-0.008c-0.053-0.026-0.089-0.081-0.098-0.136c-0.127-1.512-0.469-6.257-0.536-6.911
	C57.036,8.163,64.233,8.124,64.468,8.129"/>
<path fill-rule="evenodd" clip-rule="evenodd" d="M123.478,51.174c0.131,0.012,0.131,0.04,0.134,0.123v0.8
	c0.001,0.084,0,0.105-0.13,0.113l0.01,0.088h0.569v-0.09c-0.129,0-0.129-0.027-0.129-0.111v-0.325h0.06
	c0.106,0.181,0.213,0.526,0.305,0.526l0.315-0.006v-0.049c-0.059-0.076-0.117-0.156-0.179-0.25l-0.187-0.266
	c0.157-0.051,0.242-0.191,0.238-0.318c0.004-0.221-0.147-0.32-0.344-0.32l-0.663,0.007V51.174z M123.928,51.174l0.077,0.003
	c0.099,0.005,0.141,0.055,0.141,0.24c0.006,0.111-0.017,0.268-0.147,0.268h-0.066L123.928,51.174z M124.011,52.847
	c0.637-0.004,1.097-0.486,1.097-1.124c-0.003-0.646-0.469-1.138-1.109-1.132c-0.642,0.004-1.102,0.494-1.091,1.145
	C122.907,52.372,123.369,52.853,124.011,52.847 M124.011,52.643c-0.487,0.008-0.817-0.399-0.823-0.915
	c-0.007-0.52,0.331-0.936,0.814-0.936c0.492,0.007,0.821,0.402,0.821,0.931C124.823,52.237,124.494,52.643,124.011,52.643"/>
<path d="M58.754,46.313c-0.096-0.087-0.35-0.204-0.35-0.204c-0.799-0.385-1.696-0.815-2.607-0.478
	c-0.161,0.072-0.36,0.261-0.423,0.439l0.035,0.318l0.027-0.02h3.359c0.005-0.014-0.021-0.024-0.033-0.039h0.035
	C58.779,46.327,58.767,46.319,58.754,46.313 M58.781,46.37c0,0-0.792-0.015-1.604-0.039h1.531L58.781,46.37z"/>
<path d="M81.231,45.534c-0.908-0.328-1.809,0.108-2.605,0.502l-0.405,0.186c0,0.005,0.024,0.002,0.036,0.005
	c0.007,0.003,0.014,0.007,0.02,0.007c0.007,0.006,0.007,0.006,0.007,0c-0.007,0.012-0.031,0.02-0.055,0.02l0.373,0.006
	c0.851,0.034,2.985,0.027,2.985,0.027h0.041l-0.007-0.017l0.031-0.284C81.585,45.786,81.393,45.603,81.231,45.534"/>
<path d="M82.083,44.905c0,0,0.017-0.006,0.021-0.006l-0.012-0.008C82.093,44.892,82.086,44.899,82.083,44.905"/>
<path d="M96.036,44.88c-0.081-0.258-0.311-0.381-0.659-0.381c-0.272,0.041-0.487,0.211-0.562,0.455
	c-0.117,0.356,0.062,0.537,0.186,0.666l0.106,0.153l-0.093,0.125c-0.184,0.111-0.451,0.149-0.994,0.14c-0.008-0.002-9.131,0-9.796,0
	c0.026-0.028,0.065-0.054,0.101-0.094c0.252-0.189,0.592-0.58,0.56-0.906c0.021-0.349-0.247-0.649-0.52-0.787
	c-0.439-0.19-1.026-0.024-1.437,0.086c0.016-0.029,0.036-0.067,0.045-0.11c0.161-0.265,0.349-0.824-0.021-1.14
	c-0.991-0.848-2.78,0.148-3.376,0.517c0.047-0.092,0.082-0.208,0.111-0.328c0.055-0.159,0.1-0.319,0.1-0.319
	c0.012-0.073,0.021-0.149,0.023-0.223c-0.002-0.488-0.225-1.076-0.767-1.431c-0.592-0.298-1.177-0.087-1.532,0.217l-0.017,0.019
	l0.017,0.032c0.277,0.45,0.348,0.972,0.217,1.523c-0.188,0.75-0.766,1.479-1.509,1.911c-1.411,0.927-3.095,1.08-4.623,0.418
	c-0.775-0.313-1.584-1.219-1.536-2.063c0.03-0.612,0.132-1.255,0.65-1.776c0.581-0.478,1.268-0.894,2.367-0.603
	c0.711,0.242,1.169,0.763,1.239,1.375c0.086,0.595-0.094,1.308-0.688,1.562c-0.299,0.158-0.824,0.199-1.168,0
	c-0.183-0.101-0.431-0.305-0.375-0.467c0.047-0.097,0.137-0.082,0.305-0.035l0.371,0.013c0.285-0.093,0.405-0.341,0.334-0.675
	c-0.019-0.224-0.268-0.404-0.59-0.435c-0.371,0.021-0.673,0.224-0.793,0.532c-0.141,0.342-0.005,0.759,0.082,0.878
	c0.216,0.368,0.596,0.597,1.064,0.646c0.854,0.047,1.438-0.328,1.696-1.07c0.281-0.768,0.036-1.655-0.598-2.206
	c-0.694-0.588-1.785-0.718-2.604-0.315c-0.94,0.416-1.455,1.102-1.61,2.146c-0.055,0.375-0.013,0.843,0.121,1.209
	c0.58,1.357,2.104,2.115,4.069,2.003c1.534-0.138,3.461-1.054,4.058-2.763c0.152-0.451,0.263-1.115-0.093-1.748
	c0.263-0.245,0.733-0.127,0.783-0.114c0.484,0.146,0.752,0.661,0.795,1.118c0.038,0.63-0.311,1.35-0.651,1.811
	c0.018-0.017,0.052-0.031,0.08-0.05c-0.018,0.021-0.031,0.05-0.049,0.067c0.188-0.149,0.402-0.31,0.628-0.459
	c0.945-0.588,2.084-1.074,2.922-0.869c0.229,0.033,0.396,0.207,0.423,0.42c0.003,0.027,0.003,0.05,0.003,0.07
	c-0.003,0.521-0.426,0.949-0.742,1.269c0.084-0.058,0.172-0.14,0.26-0.214c-0.065,0.068-0.131,0.13-0.189,0.191
	c-0.021,0.014-0.052,0.022-0.059,0.028c0.01,0.006,0.02,0.006,0.029,0.009c-0.016,0.008-0.022,0.024-0.029,0.038
	c0.02-0.026,0.049-0.026,0.082-0.038c0.142-0.015,0.444-0.132,0.444-0.132l0.112-0.034l0.305-0.09
	c0.38-0.111,0.811-0.244,1.212-0.09c0.186,0.096,0.287,0.27,0.291,0.471c0,0.077-0.018,0.16-0.059,0.241
	c-0.188,0.377-0.535,0.658-0.833,0.907l-0.167,0.139h0.047h0.011c-0.015,0.014-0.026,0.016-0.033,0.026h0.854
	c2.486,0.03,9.619,0.006,9.619,0.006c1.254,0.024,1.563-0.249,1.922-0.701C96.084,45.441,96.136,45.154,96.036,44.88 M84.929,46.079
	h-0.745c0.003-0.008,0.018-0.017,0.023-0.024C84.304,46.068,84.564,46.071,84.929,46.079 M83.122,44.325
	c-0.074,0.02-0.154,0.036-0.219,0.055c0.005-0.01,0.005-0.019,0.017-0.023C82.983,44.345,83.053,44.337,83.122,44.325 M79.903,43.46
	c-0.133,0.072-0.257,0.141-0.356,0.205c0.012-0.01,0.018-0.026,0.024-0.037C79.649,43.581,79.764,43.525,79.903,43.46
	 M78.833,44.439c0.088-0.089,0.156-0.201,0.232-0.3c-0.039,0.082-0.095,0.156-0.145,0.232
	C78.891,44.395,78.859,44.415,78.833,44.439"/>
<path d="M67.146,44.146c0.133-0.354,0.178-0.836,0.113-1.208c-0.158-1.038-0.681-1.728-1.627-2.137
	c-0.822-0.396-1.912-0.254-2.598,0.341c-0.636,0.555-0.871,1.441-0.582,2.212c0.264,0.728,0.867,1.103,1.71,1.053
	c0.456-0.05,0.839-0.28,1.06-0.657c0.08-0.11,0.22-0.529,0.071-0.875c-0.127-0.311-0.421-0.5-0.793-0.527
	c-0.33,0.027-0.57,0.21-0.597,0.451c-0.015,0.053-0.015,0.113-0.018,0.158c0,0.248,0.128,0.432,0.365,0.51
	c-0.005-0.006,0.373-0.02,0.373-0.02c0.153-0.051,0.253-0.068,0.303,0.034c0.05,0.151-0.195,0.372-0.371,0.472
	c-0.348,0.2-0.867,0.156-1.167,0c-0.599-0.246-0.782-0.959-0.704-1.548c0.061-0.618,0.52-1.139,1.232-1.394
	c1.091-0.29,1.782,0.119,2.372,0.601c0.527,0.515,0.628,1.147,0.664,1.757c0.048,0.846-0.747,1.76-1.524,2.086
	c-1.525,0.67-3.209,0.529-4.632-0.385c-0.738-0.429-1.32-1.156-1.513-1.91c-0.143-0.537-0.075-1.066,0.205-1.52l0.011-0.028
	l-0.021-0.022c-0.358-0.299-0.938-0.51-1.521-0.207c-0.722,0.476-0.811,1.264-0.742,1.664c0.027,0.17,0.085,0.48,0.191,0.676
	c-0.106-0.066-0.223-0.133-0.354-0.207c-0.755-0.447-2.175-1.036-2.999-0.317c-0.415,0.361-0.116,1.041,0.015,1.283
	c-0.069-0.019-0.139-0.036-0.205-0.054c-0.356-0.129-0.833-0.219-1.205-0.057c-0.267,0.142-0.521,0.426-0.521,0.752
	c-0.002,0.018-0.002,0.032-0.002,0.045c0,0.021,0.006,0.031,0,0.039c0,0.402,0.521,0.906,0.663,1.029l-0.676-0.002
	c-2.131-0.043-8.443-0.059-8.443-0.059c-0.475,0.006-0.786-0.016-1-0.137c-0.005-0.002-0.09-0.121-0.09-0.121l0.104-0.158
	c0.092-0.101,0.221-0.237,0.217-0.451c0.006-0.062-0.009-0.141-0.038-0.221c-0.078-0.241-0.287-0.408-0.562-0.442
	c-0.344-0.004-0.577,0.133-0.658,0.382c-0.073,0.207-0.117,0.618,0.104,0.887c0.381,0.463,0.729,0.619,1.948,0.592l9.813,0.004
	c0-0.016,0-0.027-0.017-0.047h0.017c-0.006,0.004-0.015-0.006-0.015-0.006c-0.03-0.066-0.147-0.17-0.147-0.17
	c-0.301-0.248-0.64-0.518-0.831-0.883c-0.12-0.281-0.025-0.582,0.242-0.725c0.398-0.153,0.829-0.021,1.214,0.089l0.305,0.092
	c-0.008-0.006,0.102,0.026,0.102,0.026l0.516,0.197c0-0.008-0.01-0.02-0.024-0.033h0.005c-0.01-0.012-0.022-0.023-0.022-0.026
	c0.022,0.008,0.042,0.015,0.056,0.021c-0.062-0.061-0.136-0.14-0.217-0.22c-0.26-0.325-0.527-0.679-0.527-1.096
	c0-0.017,0.003-0.041,0.006-0.065c0.026-0.213,0.188-0.386,0.418-0.412c1.04-0.277,2.514,0.504,3.542,1.322
	c-0.014-0.023-0.033-0.048-0.041-0.074c0.02,0.013,0.041,0.027,0.065,0.051c-0.081-0.105-0.148-0.225-0.216-0.342
	c-0.233-0.453-0.447-0.996-0.416-1.487c0.044-0.458,0.298-0.981,0.779-1.122c0.054-0.02,0.517-0.139,0.788,0.146
	c-0.347,0.582-0.242,1.26-0.087,1.705c0.618,1.704,2.552,2.612,4.082,2.73C64.041,46.227,66.33,46.124,67.146,44.146 M57.407,43.632
	c0.019,0.043,0.037,0.09,0.061,0.117c-0.012,0-0.021-0.006-0.036-0.016C57.426,43.706,57.413,43.663,57.407,43.632 M54.062,44.384
	c0.011,0.037,0.031,0.072,0.056,0.115c-0.012-0.009-0.024-0.009-0.024-0.009C54.081,44.456,54.069,44.419,54.062,44.384
	 M52.78,46.175c0.024,0.021,0.049,0.043,0.062,0.059l-0.016,0.002C52.811,46.222,52.799,46.195,52.78,46.175 M53.495,46.503
	c-0.009-0.021-0.301-0.028-0.774-0.037l0.734-0.004C53.48,46.485,53.492,46.493,53.495,46.503 M54.861,45.038
	c-0.007-0.012-0.033-0.029-0.057-0.041c0.012,0.008,0.026,0.012,0.027,0.008C54.844,45.021,54.851,45.026,54.861,45.038
	 M58.133,44.568c-0.199-0.18-0.422-0.347-0.65-0.507c0.214,0.137,0.41,0.275,0.594,0.419C58.095,44.512,58.109,44.54,58.133,44.568"
	/>
<path d="M64.093,46.946V47.3c0.041,0.035,8.733,0.026,8.733,0.026c0.036-0.037,0.048-0.341,0.048-0.341
	c-0.044-0.034-8.737-0.039-8.737-0.039H64.093z"/>
<path d="M68.669,39.636l-0.005-0.042l-0.355-0.007c-0.03,0.044-0.043,6.338-0.043,6.338l0.365,0.035
	C68.672,45.925,68.669,39.636,68.669,39.636"/>
<path d="M26.773,5.228c0.367-0.046,1.237,0.22,1.47,0.436c-2.416,0.058-7.967,1.06-10.901,1.935l-0.044-0.243
	c3.02-0.541,8.42-2.157,10.604-3.184C27.792,4.464,27.122,5.096,26.773,5.228"/>
<path d="M28.447,4.763c-0.006-0.256,0.192-0.472,0.454-0.486c0.258-0.012,0.475,0.192,0.487,0.453
	c0.006,0.262-0.192,0.483-0.46,0.49C28.676,5.228,28.455,5.021,28.447,4.763"/>
<path d="M109.302,5.245c-0.374-0.046-1.242,0.226-1.479,0.439c2.421,0.057,7.966,1.059,10.904,1.942l0.045-0.253
	c-3.019-0.537-8.422-2.15-10.604-3.185C108.276,4.489,108.946,5.114,109.302,5.245"/>
<path d="M107.616,4.787c0.017-0.265-0.192-0.479-0.447-0.492c-0.265-0.004-0.482,0.198-0.491,0.454
	c-0.012,0.262,0.193,0.479,0.456,0.488C107.394,5.24,107.608,5.045,107.616,4.787"/>
<path d="M34.529,4.429l0.082-0.019l0.146,1.032l-0.078,0.016c-0.052-0.119-0.081-0.136-0.198-0.128l-2.788,0.391l-0.012-0.075
	c0.114-0.052,0.137-0.081,0.117-0.198l-0.355-2.582c-0.021-0.117-0.043-0.137-0.17-0.15l-0.012-0.08l2.798-0.391
	c0.11-0.017,0.137-0.055,0.144-0.179l0.087-0.013l0.142,1.031l-0.079,0.017c-0.046-0.124-0.085-0.149-0.197-0.134l-1.779,0.252
	l0.068,0.438l1.065-0.156c0.109-0.007,0.135-0.035,0.148-0.166l0.084-0.014l0.139,0.97l-0.089,0.008
	c-0.046-0.118-0.078-0.14-0.189-0.124l-1.065,0.146l0.077,0.533l1.771-0.249C34.493,4.588,34.522,4.55,34.529,4.429"/>
<path d="M37.66,3.058c-0.021-0.132-0.491-0.23-0.98-0.167c-0.396,0.049-0.619,0.21-0.6,0.356c0.021,0.202,0.315,0.151,0.866,0.112
	c0.811-0.053,1.23,0.107,1.289,0.627c0.062,0.496-0.395,0.948-1.233,1.054c-0.879,0.11-1.316-0.068-1.376-0.063
	c-0.024,0.01-0.055,0.036-0.09,0.093l-0.077-0.017l0.262-0.837L35.8,4.243c0,0.016-0.01,0.029-0.006,0.048
	c0.022,0.173,0.533,0.329,1.152,0.25c0.404-0.046,0.623-0.202,0.601-0.381c-0.036-0.29-0.352-0.248-0.842-0.208
	c-0.806,0.072-1.238-0.114-1.29-0.581c-0.061-0.46,0.369-0.866,1.172-0.958c0.598-0.071,1.036,0.087,1.208,0.067
	c0.044-0.01,0.074-0.026,0.1-0.079l0.068,0.027L37.733,3.15l-0.074-0.025C37.665,3.098,37.659,3.069,37.66,3.058"/>
<path d="M39.021,2.98l-0.082,0.009l-0.104-0.936l0.083-0.013c0.045,0.118,0.08,0.144,0.191,0.13l2.218-0.238
	c0.111-0.02,0.139-0.046,0.16-0.169l0.08-0.007l0.107,0.932l-0.087,0.009c-0.04-0.124-0.081-0.144-0.192-0.133l-0.726,0.078
	l0.18,1.663c0.015,0.105,0.046,0.139,0.169,0.158l0.01,0.078l-1.069,0.117L39.95,4.577c0.127-0.042,0.146-0.076,0.135-0.188
	l-0.18-1.665L39.18,2.808C39.06,2.815,39.038,2.853,39.021,2.98"/>
<path d="M43.126,3.449c0.256-0.032,0.484,0.167,0.504,0.415c0.032,0.253-0.158,0.475-0.414,0.498
	c-0.262,0.027-0.478-0.146-0.502-0.415C42.687,3.701,42.877,3.472,43.126,3.449"/>
<path d="M47.555,3.836l0.003,0.076l-1.047,0.087l-0.006-0.08c0.118-0.049,0.143-0.078,0.137-0.186l-0.199-2.601
	c-0.005-0.113-0.037-0.144-0.164-0.168l-0.005-0.08l1.365-0.107l0.005,0.088c-0.081,0.03-0.116,0.07-0.109,0.111
	c0.003,0.037,0.046,0.071,0.104,0.127l1.419,1.332l-0.118-1.5c-0.006-0.11-0.038-0.139-0.164-0.158l-0.005-0.083l1.066-0.082
	l0.005,0.09c-0.128,0.031-0.15,0.066-0.141,0.175l0.2,2.606c0.008,0.11,0.043,0.139,0.166,0.162l0.011,0.084l-1.127,0.083
	l-0.006-0.083c0.073-0.034,0.112-0.067,0.105-0.111c-0.004-0.04-0.044-0.078-0.105-0.14l-1.692-1.591l0.138,1.784
	C47.4,3.783,47.428,3.812,47.555,3.836"/>
<path d="M51.762,2.06l0.821-0.05c0.11-0.005,0.145-0.033,0.165-0.16l0.086-0.007l0.055,0.854h-0.095
	c-0.032-0.116-0.07-0.144-0.181-0.138l-0.818,0.053l0.018,0.372l1.432-0.085c0.112-0.008,0.142-0.033,0.167-0.158l0.08-0.006
	l0.057,0.933l-0.081,0.003c-0.044-0.126-0.07-0.142-0.186-0.136l-2.348,0.142l-0.007-0.084c0.124-0.037,0.148-0.078,0.148-0.177
	l-0.13-2.05c-0.005-0.11-0.035-0.142-0.167-0.167V1.12l2.351-0.151c0.109,0,0.141-0.027,0.161-0.15l0.084-0.008l0.058,0.939
	l-0.089,0.005c-0.038-0.125-0.067-0.154-0.18-0.141l-1.428,0.083L51.762,2.06z"/>
<path d="M54.093,0.995l-0.006-0.081l1.01-0.043l0.002,0.082c-0.073,0.016-0.107,0.05-0.104,0.128
	c-0.004,0.032,0.015,0.069,0.036,0.118l0.48,1.242l0.351-1.282c0.011-0.027,0.015-0.065,0.015-0.112
	c-0.004-0.071-0.04-0.112-0.117-0.129V0.84l1.25-0.049v0.086C56.923,0.895,56.898,0.93,56.907,1
	c0.001,0.032,0.007,0.069,0.021,0.119l0.431,1.243l0.381-1.287c0.021-0.081,0.03-0.123,0.03-0.123c0-0.058-0.044-0.096-0.121-0.12
	v-0.08l0.923-0.035v0.078c-0.131,0.128-0.18,0.28-0.229,0.439L57.793,2.99c-0.019,0.06-0.019,0.112-0.023,0.131
	c-0.004,0.042,0.04,0.08,0.12,0.112v0.085l-1.096,0.044l0.003-0.096c0.071-0.019,0.11-0.052,0.102-0.13
	c-0.002-0.054-0.012-0.086-0.03-0.112L56.36,1.541L55.97,3.069c-0.019,0.074-0.027,0.112-0.027,0.123
	c0.005,0.054,0.042,0.094,0.121,0.12l0.003,0.079l-1.144,0.057l-0.006-0.1c0.081-0.02,0.111-0.05,0.105-0.125
	c0-0.05-0.009-0.082-0.024-0.116l-0.75-1.949C54.211,1.069,54.187,1.024,54.093,0.995"/>
<path d="M60.92,1.642c-0.013-0.894,0.705-1.621,1.808-1.641c1.104-0.029,1.853,0.671,1.869,1.57
	c0.017,0.899-0.711,1.635-1.801,1.653C61.7,3.247,60.944,2.543,60.92,1.642 M62.783,2.5c0.568-0.007,0.917-0.384,0.905-0.905
	c-0.006-0.519-0.382-0.882-0.945-0.873c-0.561,0.011-0.92,0.378-0.913,0.914C61.85,2.164,62.199,2.512,62.783,2.5"/>
<path d="M68.187,1.366c0.005,0.384-0.219,0.669-0.659,0.786l0.33,0.519c0.122,0.195,0.204,0.318,0.366,0.352v0.085l-1.114,0.013
	V3.033c0.054-0.014,0.092-0.049,0.092-0.093c-0.003-0.049-0.038-0.103-0.076-0.173l-0.369-0.588h-0.509v0.687
	c0,0.112,0.035,0.145,0.153,0.173l0.005,0.082l-1.081,0.004l0.003-0.081c0.126-0.025,0.145-0.06,0.145-0.172l-0.01-2.047
	c0-0.116-0.028-0.147-0.151-0.178l-0.003-0.08l1.846-0.019C67.832,0.548,68.187,0.871,68.187,1.366 M66.241,1.624l0.575-0.005
	c0.385-0.003,0.584-0.066,0.58-0.261c0-0.208-0.19-0.243-0.602-0.246l-0.56,0.003L66.241,1.624z"/>
<path d="M70.001,0.654c-0.124,0.033-0.153,0.063-0.162,0.176L69.833,2.5l1.425,0.005c0.117,0.007,0.144-0.018,0.174-0.143h0.082
	l-0.007,0.931l-0.079,0.005c-0.026-0.129-0.053-0.148-0.177-0.151l-2.347-0.019V3.044c0.124-0.03,0.148-0.055,0.153-0.166
	l0.014-2.054c0-0.107-0.027-0.146-0.148-0.177v-0.08l1.08,0.009L70.001,0.654z"/>
<path d="M73.325,1.59l0.832,0.024c0.107,0,0.143-0.019,0.17-0.146h0.09l-0.016,0.851h-0.098c-0.017-0.123-0.049-0.155-0.166-0.157
	L73.314,2.14L73.31,2.519l1.431,0.027c0.11,0,0.145-0.015,0.173-0.139h0.088l-0.026,0.929l-0.081,0.007
	c-0.024-0.129-0.055-0.158-0.166-0.162l-2.355-0.045V3.05c0.126-0.026,0.156-0.054,0.162-0.167l0.036-2.05
	c0.013-0.105-0.022-0.146-0.151-0.173l0.01-0.083l2.355,0.049c0.109,0,0.136-0.029,0.172-0.148l0.082,0.001l-0.02,0.938h-0.085
	c-0.028-0.121-0.059-0.156-0.166-0.153l-1.436-0.035L73.325,1.59z"/>
<path d="M77.963,0.812c-0.058,0.007-0.091,0.021-0.091,0.083c0,0.058,0.014,0.124,0.045,0.199l0.726,1.97
	c0.027,0.078,0.048,0.129,0.142,0.175l-0.005,0.082l-1.004-0.034l0.001-0.078c0.07-0.02,0.111-0.052,0.109-0.127
	c0.007-0.023-0.006-0.07-0.021-0.117l-0.077-0.224l-1.184-0.043l-0.091,0.221c-0.009,0.039-0.025,0.071-0.021,0.1
	c-0.006,0.083,0.037,0.117,0.118,0.144l-0.006,0.085L75.656,3.22V3.131c0.141-0.061,0.203-0.204,0.295-0.421l0.69-1.659
	c0.033-0.098,0.049-0.15,0.049-0.18c0.007-0.063-0.014-0.093-0.08-0.099l0.001-0.086l1.361,0.042L77.963,0.812z M77.618,2.311
	l-0.397-1.082l-0.44,1.052L77.618,2.311z"/>
<path d="M80.754,0.929c-0.08,0.015-0.12,0.055-0.118,0.105c-0.006,0.047,0.02,0.118,0.031,0.138l0.992,1.151l0.054-1.173
	c0-0.116-0.023-0.143-0.143-0.181l0.001-0.083l0.91,0.038v0.094c-0.129,0.021-0.155,0.044-0.16,0.161l-0.1,2.045
	c-0.006,0.111,0.02,0.147,0.142,0.181l-0.005,0.084l-1.081-0.053l0.004-0.08c0.083-0.027,0.123-0.063,0.127-0.113
	c0.003-0.051-0.021-0.118-0.029-0.129l-1.232-1.428l-0.062,1.439c-0.003,0.113,0.024,0.14,0.143,0.173v0.086l-0.91-0.041
	l0.002-0.084c0.128-0.027,0.152-0.053,0.159-0.17l0.099-2.042c0.007-0.112-0.019-0.152-0.14-0.182l0.003-0.088l1.32,0.069
	L80.754,0.929z"/>
<path d="M85.562,1.881c0.007-0.126-0.444-0.315-0.935-0.348c-0.402-0.021-0.646,0.094-0.657,0.243
	c-0.017,0.201,0.281,0.206,0.835,0.277c0.805,0.091,1.181,0.323,1.153,0.85c-0.035,0.502-0.568,0.861-1.411,0.804
	c-0.888-0.054-1.277-0.309-1.335-0.309c-0.036,0-0.07,0.019-0.116,0.062l-0.075-0.03l0.415-0.767l0.075,0.041
	c-0.006,0.006-0.01,0.026-0.013,0.045c-0.013,0.177,0.465,0.42,1.085,0.465c0.407,0.019,0.653-0.089,0.656-0.28
	c0.024-0.278-0.292-0.298-0.783-0.348c-0.809-0.081-1.195-0.347-1.164-0.804c0.03-0.472,0.528-0.781,1.335-0.731
	c0.596,0.038,0.996,0.271,1.169,0.288c0.048,0,0.078-0.017,0.113-0.057l0.066,0.035l-0.366,0.66l-0.067-0.029
	C85.548,1.918,85.557,1.894,85.562,1.881"/>
<path d="M87.285,3.906c0.004-0.117-0.098-0.106-0.213-0.143c-0.186-0.051-0.297-0.224-0.285-0.42
	c0.025-0.246,0.24-0.422,0.517-0.403c0.308,0.018,0.484,0.26,0.46,0.591c-0.035,0.436-0.412,0.804-1.093,0.963l0.011-0.18
	C87.075,4.191,87.264,4.054,87.285,3.906"/>
<path d="M91.478,4.072c0.12-0.023,0.16-0.047,0.167-0.16l0.171-1.833L91.514,2.15c-0.104,0.021-0.147,0.048-0.191,0.167
	l-0.081-0.006l0.092-0.945h0.076c0.018,0.106,0.031,0.137,0.1,0.146c0.023,0,0.043,0.007,0.08,0l0.285-0.083l0.011-0.119
	c0.015-0.111-0.019-0.142-0.142-0.185l0.01-0.083L92.93,1.15l-0.007,0.079c-0.128,0.02-0.158,0.048-0.164,0.166l-0.242,2.592
	c-0.009,0.111,0.017,0.148,0.131,0.188L92.645,4.26l-1.181-0.112L91.478,4.072z"/>
<path d="M94.579,2.121c0.064-0.526,0.584-0.816,1.467-0.717c0.876,0.094,1.336,0.483,1.275,1.016
	c-0.033,0.29-0.194,0.48-0.512,0.591c0.394,0.182,0.572,0.455,0.538,0.801c-0.067,0.585-0.639,0.919-1.651,0.813
	c-1.009-0.105-1.494-0.568-1.432-1.147c0.037-0.342,0.27-0.572,0.693-0.662C94.673,2.636,94.55,2.413,94.579,2.121 M95.764,4.002
	c0.458,0.053,0.718-0.065,0.747-0.306c0.021-0.224-0.205-0.409-0.668-0.463c-0.452-0.052-0.707,0.085-0.738,0.305
	C95.079,3.783,95.298,3.952,95.764,4.002 M96.488,2.363c0.024-0.192-0.167-0.353-0.504-0.386c-0.343-0.041-0.555,0.074-0.58,0.268
	c-0.02,0.209,0.149,0.349,0.508,0.391C96.265,2.672,96.47,2.571,96.488,2.363"/>
<path d="M98.508,4.814c0.144-0.017,0.235-0.065,0.322-0.183l1.478-1.968l-1.82-0.228c-0.11-0.007-0.135,0.019-0.184,0.136
	l-0.09-0.012l0.126-0.988l0.084,0.015c0.016,0.122,0.04,0.16,0.152,0.173l2.47,0.307c0.113,0.016,0.15-0.006,0.191-0.13l0.084,0.006
	l-0.093,0.755l-1.462,2.074c-0.02,0.033-0.044,0.051-0.044,0.077c-0.007,0.069,0.044,0.118,0.136,0.135l-0.007,0.081l-1.359-0.17
	L98.508,4.814z"/>
<path d="M103.306,5.431c0.13-0.014,0.157-0.032,0.172-0.149l0.041-0.299l-1.573-0.225c-0.11-0.009-0.148,0.01-0.195,0.136
	l-0.078-0.019l0.102-0.734l1.54-1.452c0.052-0.047,0.092-0.076,0.103-0.146c0.006-0.05-0.03-0.068-0.103-0.097l0.012-0.078
	l1.492,0.203l-0.009,0.09c-0.138,0.006-0.168,0.036-0.184,0.147l-0.235,1.699l0.275,0.034c0.116,0.02,0.155-0.006,0.201-0.124
	l0.081,0.012l-0.13,0.889l-0.083-0.012c-0.011-0.124-0.043-0.161-0.149-0.173l-0.28-0.037l-0.042,0.296
	c-0.017,0.119,0.013,0.143,0.136,0.189l-0.023,0.083l-1.079-0.147L103.306,5.431z M103.804,2.996l-1.319,1.248l1.121,0.158
	L103.804,2.996z"/>
</svg>
