<?xml version="1.0" encoding="utf-8"?>
<!-- Generator: Adobe Illustrator 15.0.0, SVG Export Plug-In . SVG Version: 6.00 Build 0)  -->
<!DOCTYPE svg PUBLIC "-//W3C//DTD SVG 1.1//EN" "http://www.w3.org/Graphics/SVG/1.1/DTD/svg11.dtd" [
	<!ENTITY ns_extend "http://ns.adobe.com/Extensibility/1.0/">
	<!ENTITY ns_ai "http://ns.adobe.com/AdobeIllustrator/10.0/">
	<!ENTITY ns_graphs "http://ns.adobe.com/Graphs/1.0/">
	<!ENTITY ns_vars "http://ns.adobe.com/Variables/1.0/">
	<!ENTITY ns_imrep "http://ns.adobe.com/ImageReplacement/1.0/">
	<!ENTITY ns_sfw "http://ns.adobe.com/SaveForWeb/1.0/">
	<!ENTITY ns_custom "http://ns.adobe.com/GenericCustomNamespace/1.0/">
	<!ENTITY ns_adobe_xpath "http://ns.adobe.com/XPath/1.0/">
]>
<svg version="1.1" id="Layer_1" xmlns:x="&ns_extend;" xmlns:i="&ns_ai;" xmlns:graph="&ns_graphs;"
	 xmlns="http://www.w3.org/2000/svg" xmlns:xlink="http://www.w3.org/1999/xlink" x="0px" y="0px" width="223.32px"
	 height="339.125px" viewBox="0 0 223.32 339.125" enable-background="new 0 0 223.32 339.125" xml:space="preserve">
<metadata>
	<sfw  xmlns="&ns_sfw;">
		<slices></slices>
		<sliceSourceBounds  y="304.512" x="110.376" width="223.321" height="339.125" bottomLeftOrigin="true"></sliceSourceBounds>
	</sfw>
</metadata>
<g>
	<g>
		<path fill="#0092D4" d="M222.635,0c-2.262,0.57-4.502,1.148-6.723,1.735C-66.807,76.586-10.609,299.548,46.451,339.125
			c-34.916-71.628,18.223-174.719,170.237-172.53c2.192,0.032,4.398,0.08,6.632,0.155L222.635,0z"/>
	</g>
	<g>
		<g>
			<path fill="#004996" d="M124.683,141.553c-1.537,1.017-8.571,4.581-9.943,5.182l-1.131,18.689
				c-1.394,1.847-3.447,4.057-6.205,5.58c-2.604,1.437-4.817,1.882-6.607,1.4c-2.385-2.375-3.44-7.459-2.986-14.947
				c0.814-13.415,6.067-27.969,15.282-33.05c4.357-2.401,11.851-1.404,11.851-1.404l3.096-9.205c-0.848-0.246-2.297-1.35-2.297-1.35
				c-4.346-1.274-9.134-0.17-14.379,2.723c-14.103,7.774-25.89,25.119-27.224,47.117c-0.689,11.353,2.265,17.395,7.184,19.389
				c4.2,3.375,10.625,2.528,17.636-1.344c5.373-2.963,10.912-7.723,16.539-12.96l1.483-24.47
				C126.533,143.199,124.683,141.553,124.683,141.553z"/>
			<path fill="#004996" d="M65.689,145.534l1.714,1.032l9.003-9.181c6.905-31.649,15.276-74.857,23.218-108.915c0,0,0,0-1.719-1.031
				l-10.887,7.084L75.996,95.592c-1.781-14.21-5.989-47.649-5.944-45.598c0,0,0,0-1.719-1.032L56.56,59.124l-10.771,68.554
				l-4.977-49.638l-1.717-1.033L24.961,94.908l9.677,90.799l1.719,1.032l10.168-16.536c0.025-0.431,9.848-57.943,12.959-76.15
				L65.689,145.534z"/>
			<path fill="#004996" d="M109.636,85.335l-2.988-17.615l-5.453,25.02L109.636,85.335z M124.72,99.594l-11.076,7.712l-2.299-1.352
				l-2.587-13.725l-9.766,8.38l-5.067,20.462l-7.574,7.315l-2.297-1.351l19.144-83.938l8.704-5.497l2.297,1.35L124.72,99.594z"/>
			<polygon fill="#004996" points="192.383,4.129 181.458,7.051 179.892,32.916 170.158,37.023 171.663,12.061 169.361,10.71 
				158.521,14.804 154.492,82.817 156.789,84.167 167.778,78.092 169.537,47.328 179.276,43.044 177.559,71.374 179.858,72.725 
				190.857,68.518 194.682,5.48 			"/>
			<path fill="#004996" d="M136.682,42.853c0.395-5.254,2.951-8.443,6.119-10.235c1.967-1.115,4.499-0.611,6.459,0.253
				c0.148,0.117,0.409,0.188,0.409,0.188c1.003,0.488,1.828,1.053,2.285,1.502l0.63-8.306c-0.632-0.315-2.298-1.348-2.298-1.348
				c-1.927-0.964-4.898-2.914-11.308,0.343c-6.688,4.382-12.252,12.217-12.823,19.785c-1.215,16.149,17.614,18.009,16.767,29.256
				c-0.459,6.137-3.319,11.036-7.183,12.699c-2.245,0.964-4.206,1.584-5.801,0.841c-0.373-0.249-0.701-0.474-0.973-0.617
				l-0.006,0.104c-0.96-0.559-1.739-1.156-2.291-1.455l-0.629,8.24c0.542,0.172,2.298,1.348,2.298,1.348
				c1.727,0.553,6.185,2.11,10.458-0.475c11.867-7.188,14.375-17.182,15.003-25.542C154.928,54.361,136.146,50,136.682,42.853z"/>
			<path fill="#004996" d="M170.116,90.609c-3.672-2.688-8.305-3.811-16.068,0.472c-15.199,8.379-24.91,27.485-25.977,45.065
				c-0.718,11.875,1.93,18.986,7.015,21.267c3.624,3.59,9.252,3.486,16.253-0.374c14.952-8.247,24.997-27.958,25.981-45.153
				C177.826,102.883,176.099,94.366,170.116,90.609z M145.057,148.067c-2.449-2.598-3.227-8.314-2.853-14.449
				c1.062-17.53,6.046-28.221,13.562-32.366c1.847-1.017,3.399-1.292,4.698-0.994c3.215,2.267,3.421,8.828,3.042,15.062
				c-0.788,12.991-5.249,27.099-13.575,31.688C148,148.074,146.389,148.364,145.057,148.067z"/>
			<path fill="#004996" d="M84.82,196.978l-15.613-20.318l-0.537-0.767c3.533-4.865,7.403-10.821,7.784-17.074
				c0.232-3.874-1.083-4.676-3.224-5.828c-2.104-1.753-4.745-1.585-7.566-0.052c-4.895,2.654-10.275,9.886-10.729,17.39
				c-0.327,5.393,1.494,8.922,2.912,10.771c-16.071,23.12-11.072,31.355-5.605,33.479c2.771,2.32,6.652,2.269,7.906,1.443
				c3.809-2.51,7.634-5.113,10.457-10.814l-1.469-2.779c-2.385-1.071-2.298-1.348-2.298-1.348c-2.758,3.416-5.214,4.677-7.073,4.456
				c-2.161-2.82-1.796-9.537,2.952-16.172l10.059,13.355c0.217-0.14,2.299,1.347,2.299,1.347
				C76.841,202.953,83.072,197.776,84.82,196.978z"/>
		</g>
		<g>
			<path fill="#FFFFFF" d="M119.971,164.788c-5.628,5.24-11.167,10.001-16.537,12.962c-12.878,7.1-23.782,4.064-22.526-16.699
				c1.335-21.997,13.124-39.34,27.224-47.117c5.248-2.894,10.034-3.995,14.38-2.72l-3.097,9.204c0,0-7.495-0.998-11.852,1.405
				c-9.212,5.08-14.466,19.633-15.28,33.048c-0.843,13.893,3.509,19.52,11.894,14.898c2.758-1.52,4.812-3.734,6.204-5.584
				l1.133-18.685c1.368-0.6,8.407-4.165,9.942-5.183L119.971,164.788z"/>
			<path fill="#FFFFFF" d="M21.329,89.719l14.063-16.69l6.18,59.682l11.551-75.76l11.775-10.161
				c0.151-1.665,6.93,52.766,6.93,52.766l11.96-66.269l10.891-7.084c-7.942,34.052-16.313,77.264-23.218,108.916l-9.003,9.178
				L55.47,86.318c0,0-13.861,81.105-13.892,81.621L31.406,184.47L21.329,89.719z"/>
			<path fill="#FFFFFF" d="M93.466,98.023L88.4,118.486l-7.576,7.315L99.97,41.863l8.701-5.497l10.521,60.646l-11.073,7.708
				l-3.128-16.584L93.466,98.023z M104.4,84.069l-3.279-18.936l-6.007,27.312L104.4,84.069z"/>
			<polygon fill="#FFFFFF" points="155.244,14.375 166.082,10.382 164.489,36.816 176.664,31.68 178.193,6.422 189.126,3.4 
				185.331,65.931 174.33,70.14 176.193,39.384 164.008,44.743 162.25,75.508 151.262,81.583 			"/>
			<path fill="#FFFFFF" d="M135.749,24.014c-6.686,4.38-12.257,12.217-12.825,19.789c-1.213,16.146,17.615,18.006,16.77,29.252
				c-0.459,6.14-3.319,11.037-7.187,12.699c-4.243,1.823-7.536-1.337-9.082-2.179l-0.613,9.292c1.725,0.552,6.18,2.109,10.455-0.479
				c11.869-7.186,14.375-17.178,15.004-25.542c1.132-15.072-17.653-19.431-17.116-26.578c0.396-5.257,2.951-8.444,6.119-10.237
				c3.168-1.795,7.782,0.597,9.154,1.943l0.632-8.305C145.13,22.707,142.156,20.754,135.749,24.014z"/>
			<path fill="#FFFFFF" d="M145.811,154.453c-13.486,7.438-21.883,0.968-20.665-19.086c1.065-17.579,10.777-36.686,25.973-45.063
				c17.394-9.592,21.444,5.338,20.674,18.998C170.81,126.493,160.765,146.208,145.811,154.453z M136.677,131.031
				c-0.618,10.174,1.916,19.213,10.025,14.742c8.326-4.59,12.788-18.698,13.576-31.69c0.612-10.092-1.927-19.888-10.039-15.417
				C142.724,102.813,137.738,113.502,136.677,131.031z"/>
			<path fill="#FFFFFF" d="M64.681,159.77c0.144-2.392-0.835-4.114-2.648-3.132c-1.941,1.059-3.208,3.406-3.376,6.166
				c-0.165,2.76,1.275,5.121,2.177,6.765C62.488,167.009,64.505,162.652,64.681,159.77z M57.82,185.918
				c-9.56,12.338-3.604,25.559,5.788,13.921l1.466,2.784c-2.823,5.7-6.646,8.303-10.452,10.811
				c-3.148,2.079-22.831-0.733-0.004-33.568c-1.418-1.85-3.238-5.383-2.913-10.776c0.457-7.501,5.837-14.732,10.727-17.388
				c4.066-2.209,8.91-2.346,8.494,4.53c-0.381,6.254-4.247,12.207-7.782,17.078l0.538,0.767l15.614,20.315
				c-1.75,0.799-7.981,5.978-9.751,7.087L57.82,185.918z"/>
		</g>
	</g>
</g>
</svg>
