<?xml version="1.0" encoding="utf-8"?>
<!-- Generator: Adobe Illustrator 13.0.0, SVG Export Plug-In . SVG Version: 6.00 Build 14948)  -->
<!DOCTYPE svg PUBLIC "-//W3C//DTD SVG 1.0//EN" "http://www.w3.org/TR/2001/REC-SVG-20010904/DTD/svg10.dtd">
<svg version="1.0" id="Layer_1" xmlns="http://www.w3.org/2000/svg" xmlns:xlink="http://www.w3.org/1999/xlink" x="0px" y="0px"
	 width="192.756px" height="192.756px" viewBox="0 0 192.756 192.756" enable-background="new 0 0 192.756 192.756"
	 xml:space="preserve">
<g>
	<polygon fill-rule="evenodd" clip-rule="evenodd" fill="#FFFFFF" points="0,0 192.756,0 192.756,192.756 0,192.756 0,0 	"/>
	<path fill-rule="evenodd" clip-rule="evenodd" fill="#AB9773" d="M178.271,77.917l-0.167-0.033
		c-0.166-0.033-0.199,0.134-0.199,0.134l-0.032,0.167l-0.334-0.066l0,0l-0.199,0.134c-0.232,0.301-0.598,0.402-0.997,0.67
		l-0.167-0.033l-0.134-0.2c-0.166-0.033-0.166-0.033-0.366,0.101c-0.199,0.134-0.565,0.235-0.898,0.169
		c-0.766,0.369-1.497,0.571-2.229,0.773l-0.565,0.235l-0.167-0.033c-0.167-0.033-0.366,0.101-0.565,0.235
		c-0.366,0.101-0.532,0.068-0.899,0.17c-0.798,0.535-2.062,0.806-2.863,0.475c-0.765,0.369-1.497,0.571-2.396,0.741
		c-0.565,0.235-0.932,0.336-1.497,0.571l-0.167-0.033l0,0c-0.467-0.265-0.866,0.002-1.265,0.271
		c-0.366,0.101-0.566,0.235-0.932,0.336l0,0l-0.167-0.033c-0.134-0.2-0.333-0.066-0.699,0.036c-0.232,0.301-0.432,0.434-0.766,0.368
		l-0.167-0.033l0,0c-0.166-0.032-0.333-0.065-0.565,0.235l-0.565,0.235l-0.166-0.033l0.032-0.167
		c-0.199,0.134-0.199,0.134-0.199,0.134l-0.366,0.102c-0.366,0.101-0.731,0.202-0.965,0.502c-0.365,0.101-0.598,0.402-1.131,0.47
		c-0.199,0.134-0.565,0.235-0.898,0.169c-0.533,0.068-0.866,0.003-1.298,0.437l0,0l-0.167-0.033
		c-0.366,0.101-0.765,0.369-1.298,0.438c-0.398,0.268-0.965,0.502-1.497,0.571c-0.83,0.702-1.962,1.172-3.027,1.309
		c-0.398,0.268-0.965,0.503-1.331,0.604c-0.565,0.235-1.098,0.304-1.529,0.738l-0.167-0.033l-0.166-0.033
		c-0.167-0.033-0.2,0.134-0.566,0.235c-0.199,0.134-0.565,0.235-0.898,0.169c-0.631,0.568-1.396,0.938-2.129,1.139
		c-0.898,0.17-1.631,0.372-2.262,0.94l0,0l-0.033,0.167c-0.366,0.101-0.866,0.003-1.232,0.104c-0.499-0.098-1.032-0.03-1.432,0.238
		l-0.032,0.167l-0.167-0.033c-0.167-0.032-0.333-0.065-0.532,0.068c-0.232,0.301-0.766,0.369-1.2-0.062
		c-0.932,0.336-1.664,0.538-2.628,1.041l0,0l-0.166-0.033c-0.167-0.032-0.366,0.102-0.566,0.235
		c-0.032,0.167-0.232,0.301-0.598,0.402c0.166,0.033,0.166,0.033,0.166,0.033l-0.032,0.167c-0.266,0.467-0.631,0.568-0.997,0.669
		c-0.099,0.5-0.632,0.568-0.965,0.503c-0.334-0.066-0.366,0.101-0.398,0.268l-0.033,0.167l-0.167-0.033
		c-0.333-0.065-0.467-0.265-0.601-0.464c-0.167-0.033,0.032-0.167-0.134-0.199c-0.033,0.167-0.2,0.133-0.2,0.133
		c-0.166-0.032-0.166-0.032-0.333-0.065c-0.366,0.101-0.732,0.202-1.099,0.304c-0.866,0.002-1.565,0.038-1.896,0.838l-0.2,0.134
		l-0.167-0.033c-0.5-0.099-0.898,0.169-1.431,0.238c-0.399,0.268-0.932,0.336-1.465,0.404l-0.199,0.134
		c-0.033,0.167-0.232,0.301-0.565,0.235c0.166,0.033,0.134,0.2,0.101,0.366c-0.032,0.166-0.065,0.334-0.265,0.467l-0.167-0.033
		l-0.166-0.031c0.032-0.168,0.032-0.168-0.366,0.1c-0.033,0.168-0.399,0.27-0.732,0.203c-0.167-0.033-0.2,0.133-0.232,0.301
		c-0.232,0.301-0.465,0.602-0.798,0.535c-0.432,0.436-0.765,0.369-1.131,0.471c-0.334-0.066-0.533,0.068-0.899,0.168l-0.032,0.168
		l-0.167-0.033c-0.5-0.098-1.265,0.27-1.863,0.672l-0.199,0.135l-0.167-0.033c-0.334-0.066-0.533,0.068-0.765,0.369l-0.167-0.033
		l0,0c-0.866,0.002-1.497,0.57-2.263,0.939c-0.598,0.402-1.396,0.938-2.262,0.939c-0.399,0.268-0.798,0.537-1.164,0.637
		c-0.366,0.102-0.732,0.203-0.965,0.504l-0.032,0.166l-0.167-0.033c-1.631,0.373-2.929,0.809-4.061,1.279
		c-0.398,0.268-0.798,0.535-1.196,0.803c-0.565,0.236-0.932,0.336-1.196,0.805l-0.2,0.133l-0.134-0.199
		c-0.033,0.166-0.232,0.301-0.232,0.301l-0.265,0.467l-0.167-0.033c-0.699,0.037-1.631,0.373-2.396,0.742l-1.33,0.604
		c-0.399,0.268-0.566,0.234-0.932,0.336c-0.399,0.268-0.932,0.336-1.929,1.006l0,0l0,0c-1.298,0.436-2.828,1.174-3.992,1.811
		c-2.096,0.973-3.858,2.012-5.587,2.883l-2.328,1.273l-1.03,0.836c-0.566,0.234-0.998,0.67-1.563,0.904
		c0.033-0.166-1.164,0.637-1.164,0.637c-0.598,0.402-1.363,0.77-2.128,1.139l-0.167-0.031l-0.167-0.033l0.033-0.166
		c-0.033,0.166-0.232,0.299-0.232,0.299c-0.199,0.135-0.432,0.436-0.765,0.369c-0.2,0.135-0.399,0.268-0.399,0.268
		c-0.199,0.135-0.399,0.268-0.431,0.436l0,0l0,0l-0.033,0.166c-0.265,0.467-0.797,0.535-1.297,0.438
		c-0.367,0.102-0.732,0.201-0.798,0.535l-0.167-0.033l-0.033,0.166c-0.732,0.203-1.498,0.572-2.128,1.141l0,0l-0.167-0.033
		c-0.167-0.033-0.333-0.064-0.599,0.402c0,0,0,0-0.033,0.166l0.199-0.135l0.167,0.033l-0.033,0.168
		c0.3,0.232,0.667,0.131,1.065-0.137c0.366-0.102,0.932-0.336,1.432-0.238c0.297-0.635,0.83-0.703,1.331-0.604
		c0.532-0.068,0.898-0.17,0.997-0.67l0.2-0.135l0.167,0.033c0.333,0.066,0.399-0.268,0.664-0.734l0.331-0.801l0.134,0.199
		c0.5,0.098,0.833,0.164,1.2,0.062c0,0,0.366-0.1,0.533-0.068c0.465-0.602,0.997-0.668,1.53-0.736
		c0.167,0.031,0.333,0.064,0.699-0.037l0.033-0.166l0.435,0.432l-0.033,0.166l-0.033,0.168c-0.033,0.166-0.066,0.334-0.066,0.334
		c0.399-0.27,1.131-0.471,1.631-0.373c0.265-0.467,0.664-0.734,0.896-1.035c0.399-0.268,0.798-0.535,1.128-1.336l0.065-0.334
		l0.301,0.232c0.601,0.465,1.134,0.396,2.098-0.105l0,0l0.167,0.031c0.398-0.268,0.667,0.133,0.967,0.365c0,0,0,0,0.167,0.031
		l0.065-0.332l0.167,0.033c0.467,0.264,0.833,0.164,1.565-0.039l0.033-0.168c0.631-0.566,0.863-0.867,1.227-1.836l0.065-0.332
		l0.134,0.199l0.5,0.098l0.134,0.199l0.033-0.166l0,0c0.167,0.033,0.167,0.033,0.2-0.135l0.032-0.166l0.099-0.5l0.2-0.133
		l0.565-0.236c0.232-0.301,0.631-0.568,1.131-0.469l0.166,0.031l0,0c0.435,0.432,0.634,0.299,0.867-0.002
		c0.366-0.102,0.598-0.402,0.964-0.502l0,0l0.167,0.031c0.434,0.432,0.568,0.633,0.669,0.998c0,0-0.033,0.166,0.134,0.199
		c0.167,0.033,0.7-0.035,0.7-0.035l-0.033,0.166c0.199-0.133,0.532-0.068,0.667,0.131c0.265-0.467,0.298-0.633,0.631-0.568
		l0.199-0.133l0,0c0.399-0.268,0.765-0.369,1.131-0.471c0.565-0.234,0.931-0.336,1.163-0.637l0.033-0.166l0.167,0.033
		c0.533-0.068,1.131-0.471,1.697-0.705c0.398-0.268,0.798-0.535,1.362-0.771c0.498-0.768,1.164-0.637,1.864-0.672
		c0.333,0.066,0.666,0.131,1.032,0.031l0,0c0.132-0.668,0.664-0.736,1.197-0.805c0.199-0.133,0.365-0.1,0.565-0.234l0.232-0.301
		c0,0,0.568,0.631,0.702,0.83c0.333,0.066,0.699-0.035,1.065-0.137c0,0,0.866-0.002,1.065-0.135
		c0.232-0.301,0.598-0.402,0.965-0.504c0.366-0.102,0.532-0.068,0.798-0.535l0,0l0.166,0.033c0.399-0.27,0.599-0.402,0.831-0.703
		c0.065-0.334,0.265-0.467,0.664-0.734c0.199-0.135,0.398-0.268,0.731-0.203c0.167,0.033,0.301,0.232,0.435,0.432
		c0.167,0.033,0.366-0.102,0.366-0.102c0.333,0.066,0.5,0.1,0.565-0.234l0.033-0.166l0.166,0.033c0.5,0.098,1.066-0.137,1.465-0.404
		s0.765-0.369,1.132-0.471l0.166,0.033l0,0c0.167,0.033,1.167,0.229,1.334,0.262c0.032-0.166,0.032-0.166,0.065-0.334
		c0.098-0.5,0.663-0.734,1.029-0.836c0.366-0.1,0.732-0.201,0.799-0.535l0.231-0.301c0,0,0.268,0.398,0.435,0.432
		c0.366-0.102,0.366-0.102,0.631-0.568l0.399-0.268l0.134,0.199c0.166,0.033,0.166,0.033,0.565-0.234
		c0.199-0.135,0.432-0.434,0.932-0.336c0.232-0.301,0.565-0.234,0.932-0.336c0.167,0.033,0.333,0.064,0.565-0.234l0.033-0.168
		l0.166,0.033c0.167,0.033,0.167,0.033,0.366-0.102c0.033-0.166,0.266-0.467,0.798-0.535l0,0l0,0
		c0.468,0.266,0.866-0.004,1.266-0.271l0.732-0.201l0,0c1.032,0.029,2.131-0.273,3.262-0.744l0.732-0.201
		c0.333,0.064,1.199,0.062,1.699,0.16l0.5,0.1c0.366-0.102,0.532-0.068,0.732-0.203c0.532-0.068,0.699-0.035,0.732-0.201
		c0,0,0,0,0.032-0.168l0,0c0.033-0.166,0.099-0.5,0.099-0.5l0,0l0.033-0.166c0.797-0.535,1.696-0.705,2.628-1.041l1.696-0.705
		l0.533-0.068c1.696-0.705,3.193-1.275,4.991-1.615c0.7-0.035,1.099-0.302,1.863-0.671c0.599-0.402,1.197-0.804,2.096-0.973l0,0
		l0.167,0.033c0.134,0.199,0.333,0.065,0.699-0.036c0.199-0.134,0.566-0.235,1.065-0.136c0.2-0.134,0.399-0.268,0.433-0.434l0,0
		l0.032-0.167l-0.102-0.366l0.334,0.065c0.166,0.033,0.301,0.233,0.467,0.265l-0.032,0.167l0.166,0.033
		c0.033-0.167,0.232-0.301,0.599-0.402c-0.167-0.033-0.167-0.033-0.167-0.033l0.033-0.167l0,0l0.065-0.333l0.199-0.134
		c0.932-0.336,2.497-0.375,3.433,0.156l0.166,0.032c0.167,0.033,0.167,0.033,0.334,0.066l0,0l0.231-0.301
		c0.033-0.167,1.266-0.271,1.266-0.271c0.731-0.202,1.631-0.372,2.262-0.94l0.199-0.134l0.167,0.033l0,0l0.333,0.066
		c0.334,0.065,0.7-0.036,1.066-0.137c0.232-0.301,0.598-0.401,1.098-0.303c0.232-0.301,0.565-0.235,0.732-0.202
		s0.167,0.033,0.199-0.134l0.033-0.167l0.167,0.033c0.532-0.068,0.731-0.202,1.131-0.47c0.532-0.068,0.932-0.336,1.464-0.405
		c0.232-0.3,0.599-0.401,0.965-0.502c0.333,0.066,0.532-0.068,0.765-0.369l0.066-0.333l0.3,0.232c0,0,0.167,0.033,0.366-0.101
		s0.565-0.235,0.899-0.169c0.83-0.703,1.896-0.839,2.961-0.976c0.732-0.202,1.433-0.238,1.998-0.473l0.199-0.134l0.134,0.199
		c0,0,0.167,0.033,0.366-0.101c0.199-0.134,0.398-0.268,0.699-0.036c0.765-0.369,1.363-0.771,2.262-0.94
		c0.266-0.467,0.798-0.536,1.331-0.604c0.334,0.065,0.699-0.036,0.732-0.202l0.167,0.033l0,0c0.199-0.134,0.398-0.268,0.431-0.435
		c0.033-0.167,0.033-0.167,0.066-0.333l0.032-0.167c0.065-0.334,0.099-0.5,0.331-0.801l0,0c0.032-0.167,0.065-0.333-0.102-0.366
		l0.033-0.167l0,0c0.032-0.167,0.032-0.167,0.065-0.333c0.065-0.333,0.065-0.333-0.17-0.898l-0.134-0.2
		c-0.567-0.631-0.604-1.331-0.806-2.062c-0.003-0.866-0.071-1.399-0.64-2.03l0,0l0.033-0.167c-0.134-0.2-0.467-0.265-0.968-0.363
		c-0.166-0.033-0.666-0.131-0.8-0.331C178.771,78.016,178.438,77.95,178.271,77.917L178.271,77.917z M75.105,120.984
		c0,0,0,0-0.166-0.033l0,0L75.105,120.984l0.167,0.033l0.167,0.033C75.272,121.018,75.105,120.984,75.105,120.984L75.105,120.984z
		 M63.956,123.984l-0.167-0.033l-0.066,0.334c0,0-0.033,0.166-0.199,0.135c0.167,0.031,0.167,0.031,0.167,0.031
		c0.167,0.033,0.333,0.066,0.399-0.268c0,0,0.033-0.166,0.199-0.133C64.122,124.018,64.122,124.018,63.956,123.984L63.956,123.984z
		 M63.092,124.854L63.092,124.854L63.092,124.854c0,0-0.167-0.033-0.333-0.064l-0.167-0.033c-0.2,0.133-0.366,0.1-0.399,0.268
		l-0.033,0.166c0,0,0.167,0.033,0.333,0.066c0.167,0.031,0.5,0.098,0.7-0.037c0,0,0.033-0.166,0.265-0.467
		C63.259,124.887,63.259,124.887,63.092,124.854L63.092,124.854z M61.827,125.123L61.827,125.123L61.827,125.123L61.827,125.123z
		 M172.246,90.062c0.068,0.533-0.565,0.235-0.765,0.369C171.547,90.098,171.88,90.163,172.246,90.062L172.246,90.062z
		 M170.916,90.666c0.101,0.366-0.232,0.301-0.399,0.268c-0.199,0.134-0.366,0.101-0.5-0.098
		C170.082,90.502,170.582,90.6,170.916,90.666L170.916,90.666z M105.812,108.328l0.134,0.199c-0.467-0.264-0.898,0.17-1.265,0.271
		C104.914,108.498,105.346,108.062,105.812,108.328L105.812,108.328z M107.349,109.322L107.349,109.322L107.349,109.322
		c0.166,0.033,0.5,0.1,0.732-0.201c-0.167-0.033-0.167-0.033-0.167-0.033l-0.167-0.033
		C107.548,109.189,107.349,109.322,107.349,109.322L107.349,109.322z M112.513,109.473c0.101,0.367-0.366,0.102-0.432,0.436
		l-0.301-0.232C111.979,109.541,112.244,109.074,112.513,109.473L112.513,109.473z M104.324,111.498l0.333,0.064l0,0l0,0l0,0
		c0.033-0.166,0.033-0.166,0.033-0.166S104.49,111.531,104.324,111.498L104.324,111.498z M102.993,112.102
		c-0.53,0.934-1.232,0.104-1.763,1.039c-0.3-0.232,0.1-0.5-0.035-0.701C101.827,111.873,102.261,112.305,102.993,112.102
		L102.993,112.102z M100.564,113.008c0.101,0.367-0.266,0.469-0.432,0.436c-0.199,0.133-0.333-0.066-0.333-0.066
		c-0.102-0.365,0.231-0.299,0.431-0.434C100.397,112.977,100.597,112.842,100.564,113.008L100.564,113.008z M94.403,113.527
		l-0.7,0.037c0.099-0.502,0.432-0.436,0.631-0.568C94.668,113.061,94.603,113.395,94.403,113.527L94.403,113.527z M98.868,113.713
		L98.868,113.713l-0.033,0.168c0.167,0.033,0.167,0.033,0.167,0.033l0.032-0.168L98.868,113.713L98.868,113.713z M97.671,114.518
		c0.134,0.199-0.5-0.1-0.7,0.035l0,0C97.004,114.387,97.403,114.117,97.671,114.518L97.671,114.518z M89.18,115.443
		c-0.033,0.166-0.232,0.301-0.566,0.234c0,0-0.167-0.033-0.3-0.232C88.412,114.945,88.944,114.877,89.18,115.443L89.18,115.443z
		 M85.649,115.787c-0.232,0.301-0.697,0.902-1.164,0.637C84.884,116.156,85.048,115.322,85.649,115.787L85.649,115.787z
		 M83.357,117.76c-0.033,0.168-0.065,0.334-0.232,0.301c-0.134-0.199-0.333-0.064-0.333-0.064
		C82.857,117.662,83.057,117.527,83.357,117.76L83.357,117.76z M77.396,118.146c-0.131,0.666-0.998,0.668-1.363,0.77
		C76.13,118.416,76.729,118.016,77.396,118.146L77.396,118.146z M82.693,118.496c-0.232,0.301-0.631,0.568-0.998,0.668
		c0.066-0.332-0.301-0.232-0.601-0.463C81.36,118.232,82.16,118.564,82.693,118.496L82.693,118.496z M71.868,118.963
		c0.101,0.367-0.265,0.467-0.432,0.434c0,0-0.2,0.135-0.333-0.064C71.136,119.164,71.636,119.264,71.868,118.963L71.868,118.963z
		 M73.573,120.855c0.068,0.533-0.599,0.402-0.998,0.67c0,0-0.134-0.199-0.301-0.232c-0.199,0.135-0.098,0.5-0.265,0.467
		c-0.166-0.033-0.199,0.135-0.333-0.064c0.298-0.635,0.998-0.67,1.596-1.072L73.573,120.855L73.573,120.855z M70.545,122.164
		l0.134,0.201l0,0l0,0l0.033-0.168L70.545,122.164L70.545,122.164L70.545,122.164z"/>
	<path fill-rule="evenodd" clip-rule="evenodd" fill="#C9333C" d="M180.809,90.534l-0.699,0.036
		c-0.199,0.134-0.532,0.068-0.898,0.169c-0.167-0.033-0.334-0.065-0.532,0.068l-0.033,0.167l-0.167-0.033
		c-0.5-0.098-0.866,0.003-1.432,0.238l-1.131,0.47l-0.134-0.2c-0.167-0.032-0.167-0.032-0.366,0.101
		c-0.199,0.134-0.566,0.235-0.866,0.003c-0.766,0.369-1.53,0.738-2.429,0.907l-0.565,0.235l-0.167-0.033
		c-0.167-0.033-0.334-0.066-0.533,0.068c-0.366,0.101-0.565,0.235-0.932,0.336c-0.965,0.503-2.062,0.806-3.029,0.443
		c-0.766,0.369-1.498,0.571-2.396,0.74c-0.565,0.235-1.099,0.304-1.497,0.571l-0.167-0.033l0,0
		c-0.467-0.265-0.866,0.003-1.432,0.238c-0.199,0.134-0.565,0.235-0.932,0.335l0,0l-0.167-0.032c-0.134-0.2-0.333-0.066-0.699,0.035
		c-0.199,0.134-0.432,0.435-0.765,0.369l-0.167-0.033l0,0c-0.134-0.199-0.333-0.065-0.732,0.202l-0.398,0.268l-0.134-0.199
		l-0.167-0.033l-0.032,0.167l-0.367,0.101c-0.499-0.098-0.731,0.202-1.131,0.47c-0.199,0.134-0.599,0.402-0.964,0.503
		c-0.366,0.102-0.7,0.035-1.065,0.137c-0.533,0.068-0.866,0.003-1.299,0.438l0,0l-0.166-0.033c-0.366,0.102-0.898,0.17-1.298,0.438
		c-0.565,0.234-1.131,0.471-1.664,0.539c-0.83,0.701-1.962,1.172-3.027,1.309c-0.398,0.268-0.964,0.502-1.497,0.57
		c-0.565,0.234-1.099,0.303-1.53,0.738l0,0l-0.166-0.033c-0.167-0.033-0.334-0.066-0.732,0.201c-0.2,0.135-0.565,0.236-0.899,0.17
		c-0.631,0.568-1.562,0.904-2.295,1.107c-0.732,0.201-1.631,0.371-2.096,0.973l-0.167-0.033l0,0
		c-0.398,0.268-0.898,0.17-1.265,0.271c-0.667-0.133-1.199-0.064-1.432,0.236l-0.199,0.135l0,0
		c-0.167-0.033-0.333-0.066-0.533,0.068c-0.398,0.268-0.765,0.369-1.199-0.062c-1.065,0.137-1.83,0.504-2.795,1.008l-0.166-0.033
		l0,0c-0.167-0.033-0.367,0.102-0.566,0.234c-0.199,0.135-0.398,0.268-0.598,0.402l0.166,0.033l-0.199,0.133
		c-0.265,0.469-0.464,0.602-0.83,0.703c-0.266,0.467-0.798,0.535-0.965,0.502c-0.333-0.064-0.5-0.098-0.533,0.068l-0.065,0.334
		l-0.166-0.033c-0.334-0.064-0.468-0.264-0.602-0.465c-0.166-0.031-0.134-0.199-0.134-0.199c-0.032,0.168-0.199,0.135-0.199,0.135
		c-0.167-0.033-0.167-0.033-0.333-0.066c-0.366,0.102-0.732,0.203-1.266,0.271c-0.699,0.035-1.398,0.07-1.896,0.838l-0.032,0.168
		l-0.167-0.033c-0.667-0.131-1.065,0.137-1.598,0.205c-0.399,0.268-0.933,0.336-1.632,0.371c0.167,0.033-0.032,0.166-0.032,0.166
		c-0.2,0.135-0.399,0.268-0.566,0.236c0,0-0.032,0.166,0.102,0.365c-0.032,0.166-0.065,0.334-0.432,0.434l0,0l-0.167-0.031
		c-0.134-0.199-0.134-0.199-0.366,0.1c-0.199,0.135-0.565,0.236-0.898,0.17c-0.167-0.033-0.199,0.135-0.232,0.301
		c-0.232,0.301-0.464,0.602-0.798,0.535c-0.432,0.436-0.932,0.336-1.265,0.271c-0.334-0.066-0.667-0.131-0.866,0.002l0,0
		l-0.167-0.033c-0.667-0.131-1.298,0.438-1.863,0.674l-0.398,0.268l-0.135-0.199c-0.166-0.033-0.565,0.234-0.765,0.367l-0.032,0.168
		l-0.167-0.033c-0.7,0.035-1.465,0.404-2.263,0.939c-0.765,0.369-1.363,0.771-2.262,0.939c-0.399,0.27-0.766,0.369-1.132,0.471
		c-0.565,0.234-0.932,0.336-1.163,0.637l0,0l-0.199,0.133c-1.632,0.373-3.097,0.777-4.227,1.246
		c-0.399,0.27-0.798,0.537-1.164,0.637c-0.565,0.236-0.964,0.504-1.363,0.771l-0.033,0.166l-0.333-0.064l0.033-0.168
		c-0.033,0.168-0.233,0.301-0.233,0.301l-0.398,0.268l0,0c-0.866,0.004-1.798,0.34-2.729,0.676l-1.131,0.469
		c-0.399,0.268-0.964,0.504-1.331,0.605c-0.565,0.234-1.099,0.303-1.53,0.736l-0.033,0.168l-0.167-0.033
		c-1.265,0.27-2.661,1.207-3.625,1.711c-2.828,1.174-5.522,2.549-8.017,3.789l-1.164,0.637l-0.998,0.67
		c-0.399,0.268-0.997,0.668-1.562,0.904l-1.164,0.637c-0.765,0.369-1.53,0.736-2.295,1.105L67.942,131l0,0
		c-0.134-0.199-0.134-0.199-0.366,0.102c-0.199,0.135-0.431,0.436-0.765,0.369c-0.2,0.135-0.399,0.268-0.399,0.268
		c-0.366,0.102-0.399,0.268-0.432,0.436l0,0l-0.032,0.166c-0.265,0.467-0.964,0.502-1.298,0.438
		c-0.533,0.068-0.732,0.201-0.964,0.502l-0.033,0.168l-0.167-0.033c-0.732,0.201-1.498,0.57-2.128,1.139l0,0l-0.167-0.033
		c-0.167-0.031-0.366,0.102-0.598,0.402c0,0,0,0-0.033,0.166c0,0,0.033-0.166,0.2-0.133l0,0l0.134,0.199
		c0.3,0.232,0.666,0.131,1.065-0.137c0.533-0.068,0.932-0.336,1.598-0.205c0.298-0.635,0.831-0.703,1.363-0.77
		c0.5,0.098,0.867-0.004,0.965-0.504l0.199-0.135l0.167,0.033c0.333,0.066,0.399-0.268,0.664-0.734l0.331-0.801l0.134,0.199
		c0.5,0.1,0.833,0.164,1.199,0.062c0,0,0.533-0.068,0.7-0.035c0.297-0.633,0.997-0.67,1.363-0.77
		c0.333,0.064,0.532-0.068,0.699-0.035l0.199-0.135l0.435,0.432l0,0c-0.032,0.166-0.032,0.166-0.065,0.334
		c0,0-0.033,0.166-0.065,0.332c0.565-0.234,1.131-0.469,1.631-0.371c0.432-0.434,0.998-0.67,1.53-0.738
		c0.565-0.234,0.932-0.336,1.229-0.969l0.232-0.301l0.134,0.199c0.467,0.266,0.667,0.131,1.098-0.303l0.631-0.568l0,0l0.533-0.068
		c0.7-0.035,1.065-0.137,1.331-0.604l0.033-0.168l0.333,0.066c0.334,0.064,0.435,0.432,0.569,0.631
		c-0.033,0.166-0.033,0.166,0.134,0.199c-0.033,0.166,0,0,0.167,0.033c0.199-0.135,0.598-0.402,0.765-0.369
		c0.565-0.234,0.932-0.336,1.063-1.002l0.033-0.168l0.167,0.033l0.467,0.266c0.167,0.033,0.167,0.033,0.167,0.033l0.167,0.031l0,0
		c0.199-0.133,0.199-0.133,0.265-0.467l0.098-0.5l0.167,0.033l0.432-0.436c0.399-0.268,0.798-0.535,1.265-0.27l0.167,0.033l0,0
		c0.468,0.264,0.833,0.164,1.432-0.238c0.233-0.301,0.599-0.402,0.965-0.502l0,0l0.167,0.031c0.301,0.232,0.435,0.432,0.369,0.766
		c0,0-0.033,0.166-0.065,0.334l-0.033,0.166l-0.033,0.166c0.2-0.133,0.7-0.035,0.866-0.002l0,0c0.2-0.135,0.367-0.102,0.399-0.268
		l0,0l0.033-0.168c0.033-0.166,0.099-0.498,0.265-0.467c0.366-0.102,0.5,0.1,0.634,0.299c0.167,0.033,0.167,0.033,0.167,0.033l0,0
		c0.399-0.27,0.765-0.369,1.298-0.438c0.366-0.102,0.732-0.203,0.997-0.67l0.033-0.166l0.167,0.031
		c0.699-0.035,1.098-0.303,1.697-0.703c0.565-0.236,0.964-0.504,1.497-0.572c0.498-0.768,1.364-0.77,2.063-0.807
		c0.333,0.066,0.667,0.131,1.033,0.031c0.098-0.5,0.664-0.736,1.029-0.836c0.366-0.102,0.533-0.068,0.732-0.203l0.199-0.133
		c0,0,0.569,0.631,0.735,0.664c0.333,0.064,0.699-0.037,1.232-0.105c0,0,0.699-0.035,0.899-0.168
		c0.199-0.135,0.598-0.402,0.931-0.336c0.366-0.102,0.732-0.203,0.965-0.504l0.033-0.166l0.166,0.033
		c0.732-0.203,1.863-0.674,2.795-1.01c0.033-0.166,0.399-0.268,0.566-0.234c0.333,0.066,0.467,0.266,0.601,0.465
		c0.167,0.033,0.199-0.135,0.199-0.135c0.5,0.1,0.667,0.131,0.732-0.201l0.033-0.168l0.166,0.033
		c0.533-0.068,1.066-0.137,1.465-0.404s0.765-0.369,1.131-0.469l0.167,0.031l0.167,0.033l0,0c0,0,0.166,0.033,0.199-0.133
		l-0.167-0.033c0.132-0.666,0.697-0.902,1.096-1.17c0.366-0.102,0.732-0.201,0.965-0.502l0.065-0.334l0.435,0.432
		c0.333,0.066,0.5,0.1,0.667,0.131c0.333,0.066,0.499,0.1,0.731-0.201l0.199-0.135l0.167,0.033c0.134,0.199,0.134,0.199,0.533-0.068
		c0.232-0.301,0.598-0.402,0.932-0.336c0.398-0.268,0.765-0.369,0.932-0.336c0.333,0.064,0.5,0.098,0.732-0.203l0.032-0.166
		l0.167,0.033c0.166,0.033,0.166,0.033,0.398-0.268c0.033-0.168,0.266-0.467,0.599-0.402l0.167,0.033l0,0
		c0.467,0.266,0.865-0.004,1.265-0.271l0.766-0.367l0,0c1.199,0.062,2.297-0.242,3.396-0.545l0.732-0.203l0.732-0.201
		c0.366-0.102,0.699-0.035,1.231-0.104c0.199-0.135,0.366-0.102,0.732-0.203c0.533-0.068,0.533-0.068,0.599-0.4l0.033-0.168
		c0,0,0.833,0.164,0.999,0.197c0.798-0.535,1.697-0.705,2.629-1.041l1.83-0.506c0.033-0.166,0.566-0.234,0.566-0.234
		c1.663-0.539,3.193-1.275,5.125-1.416c0.565-0.234,1.132-0.469,1.729-0.871c0.766-0.369,1.363-0.77,2.263-0.939l0,0l0.166,0.031
		c0.134,0.201,0.334,0.066,0.7-0.035c0.199-0.133,0.565-0.234,1.065-0.137c0.167,0.033,0.366-0.1,0.565-0.234
		c0.033-0.166,0.033-0.166,0.033-0.166s-0.167-0.033-0.135-0.199l-0.134-0.201l0.366-0.1c0.333,0.064,0.301,0.232,0.467,0.264
		l0.135,0.199l0,0c0.199-0.133,0.398-0.268,0.598-0.4l-0.166-0.033l0.032-0.166l0,0l0.066-0.334l0.366-0.102l-0.167-0.033
		l0.731-0.201c0.766-0.369,1.331-0.604,2.132-0.273l0.167,0.033c0.166,0.033,0.333,0.064,0.333,0.064l0.398-0.268
		c0.033-0.166,1.099-0.303,1.099-0.303c0.899-0.17,1.798-0.338,2.429-0.906l0.2-0.135l0.166,0.033l0.033-0.166l0.301,0.23
		c0.333,0.066,0.699-0.035,1.098-0.303c0.366-0.102,0.732-0.201,1.232-0.104c0.232-0.301,0.565-0.236,0.732-0.203
		s0.167,0.033,0.199-0.133l0.033-0.166l0.199-0.135c0.5,0.098,0.699-0.035,1.265-0.27c0.399-0.27,0.766-0.369,1.465-0.406
		c0.231-0.299,0.598-0.4,0.797-0.535c0.366-0.102,0.7-0.035,0.933-0.336l0.065-0.334l0.134,0.201
		c0.167,0.031,0.167,0.031,0.532-0.068c0.199-0.135,0.566-0.236,0.899-0.17c0.83-0.703,2.062-0.807,3.128-0.943
		c0.732-0.201,1.432-0.238,1.998-0.473l0.199-0.133l0.134,0.199c0,0,0.167,0.031,0.366-0.102c0.199-0.135,0.398-0.268,0.699-0.035
		c0.798-0.537,1.363-0.771,2.262-0.939c0.266-0.469,0.965-0.504,1.498-0.572c0.333,0.066,0.532-0.068,0.732-0.201l0.166,0.031l0,0
		c0.366-0.1,0.432-0.434,0.497-0.768c0.066-0.332,0.132-0.666,0.363-0.967l0,0c0.033-0.166,0.033-0.166,0.033-0.166
		c0.033-0.167,0.033-0.167,0.065-0.334l-0.166-0.033l0,0l0.33-0.801c0.266-0.467,0.363-0.967,0.429-1.3l0.033-0.167
		c-0.268-0.399-0.235-0.565-0.17-0.899c-0.101-0.366-0.068-0.533-0.002-0.866c0.065-0.333,0.098-0.5,0.163-0.833
		c0.033-0.167-0.067-0.533-0.201-0.732l0,0l0.032-0.167l0,0c0.033-0.167-0.134-0.2-0.301-0.232c-0.333-0.065-0.666-0.131-0.8-0.331
		C181.676,90.532,181.143,90.6,180.809,90.534L180.809,90.534z M70.978,132.291c-0.033,0.166-0.033,0.166-0.033,0.166
		s0.167,0.033,0.333,0.066c0,0,0.167,0.031,0.199-0.135c-0.167-0.033-0.366,0.102-0.366,0.102S70.945,132.457,70.978,132.291
		L70.978,132.291L70.978,132.291z M59.262,135.525c-0.033,0.168-0.066,0.334-0.066,0.334l0.167,0.033
		c0.167,0.031,0.167,0.031,0.399-0.268l0.033-0.168c0,0,0,0-0.167-0.033l-0.167-0.031L59.262,135.525L59.262,135.525z
		 M58.765,136.293c-0.167-0.031-0.167-0.031-0.333-0.064c-0.167-0.033-0.167-0.033-0.167-0.033
		c-0.366,0.102-0.366,0.102-0.565,0.234l-0.033,0.168c0.167,0.031,0.167,0.031,0.333,0.064c0.5,0.098,0.833,0.164,0.965-0.502
		L58.765,136.293L58.765,136.293z M57.333,136.531L57.333,136.531L57.333,136.531L57.333,136.531z M171.854,102.621
		c0.068,0.533-0.366,0.102-0.766,0.369C171.153,102.658,171.653,102.756,171.854,102.621L171.854,102.621z M170.522,103.227
		c0.134,0.199-0.232,0.299-0.398,0.268c-0.167-0.033-0.334-0.066-0.634-0.299C169.689,103.062,170.189,103.16,170.522,103.227
		L170.522,103.227z M103.42,120.494l0.134,0.199c-0.5-0.098-0.899,0.17-1.266,0.271C102.488,120.83,102.952,120.23,103.42,120.494
		L103.42,120.494z M100.125,121.404l0.166,0.033c0.2-0.135,0.599-0.402,0.631-0.568l0,0
		C100.69,121.17,100.491,121.303,100.125,121.404L100.125,121.404z M98.627,121.975c-1.065,0.139-1.997,0.475-2.527,1.408
		l0.167,0.033c0.167,0.033,0.398-0.268,0.398-0.268c0.399-0.268,0.599-0.402,0.664-0.736l0,0l0.2-0.133l0.367-0.102
		c0.166,0.033,0.565-0.234,0.999,0.197c0.167,0.033,0.366-0.102,0.599-0.402l0.433-0.434
		C99.559,121.639,98.993,121.875,98.627,121.975L98.627,121.975z M105.988,121.52c-0.432,0.434-0.932,0.336-1.266,0.27
		c-0.268-0.398,0.298-0.633,0.664-0.734C105.521,121.254,106.22,121.219,105.988,121.52L105.988,121.52z M110.286,121.672
		c0.101,0.367-0.366,0.102-0.433,0.436l-0.134-0.199C109.753,121.74,110.018,121.273,110.286,121.672L110.286,121.672z
		 M93.704,124.123L93.704,124.123c0,0,0.167,0.033,0.2-0.133c0.5,0.098,0.699-0.037,0.932-0.336l0,0
		C94.469,123.754,94.07,124.021,93.704,124.123L93.704,124.123z M92.341,124.895c0.167,0.031,0.333,0.064,0.5,0.098
		c0.065-0.334,0.098-0.5,0.298-0.635C92.772,124.459,92.573,124.594,92.341,124.895L92.341,124.895z M101.931,123.664
		L101.931,123.664l0.301,0.232c0,0,0,0,0.032-0.166l0,0l0,0l-0.166-0.033C102.098,123.697,102.098,123.697,101.931,123.664
		L101.931,123.664z M100.4,124.402c-0.33,0.801-1.199-0.062-1.729,0.871c-0.301-0.232,0.099-0.5,0.132-0.666
		C99.267,124.006,99.868,124.471,100.4,124.402L100.4,124.402z M97.972,125.309c0.134,0.199-0.232,0.301-0.432,0.436
		c-0.167-0.033-0.333-0.066-0.467-0.266c-0.101-0.365,0.399-0.268,0.599-0.402C97.838,125.109,98.005,125.143,97.972,125.309
		L97.972,125.309z M91.644,125.795l-0.667-0.131c0.065-0.334,0.399-0.268,0.631-0.568C91.909,125.328,91.876,125.494,91.644,125.795
		L91.644,125.795z M96.108,125.98l0.167,0.033l0.167,0.033l0,0c0,0,0.033-0.166-0.134-0.199c0,0,0,0-0.167-0.033L96.108,125.98
		L96.108,125.98z M94.945,126.617c0.134,0.201-0.5-0.098-0.566,0.236l-0.134-0.201C94.412,126.686,94.811,126.418,94.945,126.617
		L94.945,126.617z M86.287,127.512c-0.066,0.332-0.399,0.268-0.566,0.234c0,0-0.167-0.033-0.333-0.064
		C85.486,127.182,86.019,127.113,86.287,127.512L86.287,127.512z M82.557,127.99c-0.199,0.133-0.53,0.934-1.131,0.469
		C81.825,128.191,81.956,127.525,82.557,127.99L82.557,127.99z M79.765,129.863L79.765,129.863L79.765,129.863L79.765,129.863z
		 M79.931,129.896L79.931,129.896c0.167,0.033,0.167,0.033,0.167,0.033L79.931,129.896L79.931,129.896z M74.169,130.148
		c-0.131,0.666-0.997,0.67-1.563,0.904C72.871,130.586,73.502,130.018,74.169,130.148L74.169,130.148z M78.535,130.834
		c0.167,0.033,0.167,0.033,0.167,0.033c0.167,0.033,0.167,0.033,0.366-0.102C78.901,130.732,78.702,130.867,78.535,130.834
		L78.535,130.834z M68.442,131.1c0.101,0.365-0.232,0.301-0.432,0.434c-0.167-0.031-0.366,0.102-0.333-0.064
		C67.743,131.135,68.21,131.4,68.442,131.1L68.442,131.1z M69.415,133.195c-0.167-0.033-0.2,0.133-0.2,0.133l0,0
		c0.2-0.133,0.366-0.1,0.366-0.1c0.2-0.135,0.2-0.135,0.399-0.268c-0.167-0.033-0.167-0.033-0.167-0.033
		C69.614,133.061,69.415,133.195,69.415,133.195L69.415,133.195z M66.953,134.27c0,0,0.134,0.199,0.301,0.232l0.032-0.168l0,0
		c0,0-0.167-0.033-0.301-0.232L66.953,134.27L66.953,134.27z"/>
	<path fill-rule="evenodd" clip-rule="evenodd" fill="#AB9773" d="M165.109,66.5c-1.546,6.101-6.991,11.782-13.147,14.033
		c-0.065,0.333,0.039,1.566-0.026,1.899c0.532-0.068,4.863-0.082,4.863-0.082L156.75,109c0.038,1.564,0.754,6.727,9.248,6.666
		c2.932,0.057,5.229-0.184,7.027-0.521c-0.101-0.367-0.006-1.732-0.106-2.1c-1.432,0.238-3.331,0.211-4.366-0.686
		c-0.734-0.664-1.104-1.428-1.073-2.461l0.045-27.516c0,0,5.864,0.114,6.396,0.046c-0.101-0.366-0.106-2.098-0.008-2.599
		c-0.533,0.069-6.396-0.046-6.396-0.046s0.093-12.792,0.024-13.325C167.208,66.393,165.476,66.398,165.109,66.5L165.109,66.5z
		 M65.936,65.515c0.068,0.533-0.03,1.033,0.071,1.399c-0.033,0.167-0.065,0.333-0.098,0.5c1.565-0.039,2.833,0.557,3.503,1.555
		c0.836,1.03,1.074,2.461,1.112,4.027c0.104,1.232-0.159,2.565-0.62,4.033l-5.404,18.672c-0.461,1.467-0.426,2.167-0.426,2.167
		l-0.533,0.068c0,0-0.202-0.732-0.606-2.196l-8.806-24.757c-0.068-0.533-0.17-0.899-0.104-1.232c-0.035-0.7,0.197-1,0.462-1.467
		c0.464-0.601,1.229-0.97,2.262-0.94c0.065-0.333,0.128-1.533,0.027-1.899c-0.5-0.099-18.522-0.008-19.022-0.106
		c0.101,0.366,0.006,1.732-0.027,1.899c2.033,0.227,3.536,1.388,4.342,3.451l2.555,7.254l-5.907,17.708
		c-0.495,1.634-0.593,2.134-0.593,2.134l-0.533,0.068c0,0-0.068-0.533-0.607-2.197l-8.973-24.789
		c-0.268-0.399-0.202-0.732-0.303-1.099c0.098-0.5,0.197-1,0.461-1.467c0.465-0.601,1.396-0.938,2.629-1.042
		c-0.102-0.366-0.039-1.565-0.14-1.931c-0.366,0.101-19.388-0.005-19.888-0.104c0.036,0.699,0.104,1.232,0.039,1.565
		c-0.033,0.167,0.101,0.366,0.068,0.533c1.565-0.039,3.5,0.688,4.541,3.317c0,0,15.389,41.458,16.364,44.419
		c0.366-0.1,3.298-0.043,3.631,0.023c0.098-0.5,9.83-30.613,9.83-30.613c0.596-1.268,0.593-2.133,0.593-2.133l0.5,0.098
		c0,0,0.036,0.699,0.64,2.03c0,0,10.184,28.316,10.957,30.546c0.333,0.064,3.265,0.123,3.631,0.021
		c0.066-0.334,11.901-39.379,11.901-39.379c1.749-5.369,4.538-8.11,8.035-8.287c0.066-0.333-0.038-1.565,0.027-1.899
		C80.993,65.534,66.468,65.447,65.936,65.515L65.936,65.515z M93.895,79.151c7.962,0.008,17.205,4.942,17.281,18.634
		c-0.532,0.068-23.385,0.074-23.385,0.074l0,0c-0.167-0.033-0.199,0.133-0.096,1.365c-0.131,0.666-0.095,1.367-0.125,2.398
		c-0.003,9.695,4.768,11.846,8.565,11.898c2.765,0.025,10.221-1.797,11.762-9.631c0.366-0.102,2.599-0.008,2.965-0.109
		c-0.979,6.732-7.558,12.018-14.986,11.941c-9.694-0.004-19.836-4.768-19.779-18.26C75.99,84.804,86.465,79.075,93.895,79.151
		L93.895,79.151z M87.67,91.43l0.017,5.197l12.125-0.038l0.033-0.167c-0.039-1.566-0.009-2.599-0.044-3.298
		c0.062-1.199-0.006-1.732-0.006-1.732l0,0c0.123-3.265-0.435-10.991-5.964-11.041C89.668,80.397,87.747,84,87.67,91.43L87.67,91.43
		z M117.846,89.402c-0.044,7.262,5.994,10.008,11.729,11.655l3.101,0.957c4.935,1.316,9.402,2.369,9.38,6
		c0.009,2.598-2.814,5.506-7.312,5.486c-6.729-0.111-12.841-5.123-13.854-9.65c-0.366,0.102-1.899-0.027-2.266,0.074
		c0.102,0.365,0.366,10.459,0.435,10.992c0.334,0.064,1.899,0.027,2.266-0.074c0.098-0.5,0.628-1.434,1.86-1.539
		c1.199,0.062,2.333,0.459,3.634,0.889c1.968,0.561,4.401,1.385,8.032,1.406c6.563,0.08,13.678-4.406,13.722-11.668
		c-0.058-7.629-5.661-9.944-11.896-11.689l-3.268-0.989c-5.101-1.35-9.369-2.535-9.413-5.833c0.027-1.899,2.52-4.005,7.184-3.954
		c6.929-0.022,10.972,4.062,11.95,7.89c0.167,0.033,1.732-0.006,2.066,0.06c-0.069-0.533-0.463-9.093-0.531-9.625
		c-0.333-0.065-1.731,0.005-2.065-0.06c0.102,0.366-0.131,0.667-0.363,0.967c-0.232,0.3-0.765,0.369-1.298,0.437
		c-1.032-0.03-1.833-0.361-2.833-0.557c-1.602-0.661-3.568-1.222-6.866-1.178C120.345,79.333,117.87,86.637,117.846,89.402
		L117.846,89.402z"/>
	<path fill-rule="evenodd" clip-rule="evenodd" fill="#AB9773" d="M179.569,64.854c-1.258,0-2.387,0.454-3.243,1.323
		c-0.907,0.921-1.414,2.114-1.414,3.347s0.48,2.374,1.363,3.269c0.894,0.908,2.049,1.403,3.294,1.403c1.22,0,2.4-0.495,3.321-1.39
		c0.882-0.856,1.361-1.998,1.361-3.282c0-1.246-0.492-2.413-1.349-3.282C182.008,65.333,180.841,64.854,179.569,64.854
		L179.569,64.854z M183.63,69.562c0,1.077-0.415,2.075-1.181,2.814c-0.804,0.779-1.803,1.194-2.906,1.194
		c-1.037,0-2.062-0.428-2.827-1.207c-0.766-0.778-1.193-1.776-1.193-2.84s0.44-2.102,1.232-2.906
		c0.739-0.753,1.738-1.154,2.827-1.154c1.116,0,2.115,0.415,2.893,1.206C183.228,67.422,183.63,68.434,183.63,69.562L183.63,69.562z
		 M179.699,66.787h-1.997v5.292h0.999v-2.257h0.985l1.076,2.257h1.115l-1.18-2.413c0.765-0.155,1.206-0.674,1.206-1.427
		C181.904,67.279,181.178,66.787,179.699,66.787L179.699,66.787z M179.518,67.435c0.934,0,1.361,0.26,1.361,0.908
		c0,0.623-0.428,0.843-1.336,0.843h-0.842v-1.751H179.518L179.518,67.435z"/>
	<path fill-rule="evenodd" clip-rule="evenodd" d="M162.877,66.407c-1.546,6.101-7.024,11.948-13.18,14.2
		c-0.033,0.167,0.071,1.398,0.006,1.732c0.499,0.099,4.83,0.085,4.83,0.085l-0.049,26.649c0.038,1.566,0.787,6.561,9.249,6.668
		c2.932,0.057,5.229-0.184,6.86-0.555c0.065-0.334,0.027-1.9,0.093-2.232c-1.432,0.238-3.33,0.211-4.365-0.686
		c-0.769-0.498-1.104-1.43-1.074-2.463l0.013-27.349c0,0,5.896-0.052,6.396,0.047c-0.068-0.533-0.074-2.265-0.009-2.599
		c-0.5-0.099-6.396-0.046-6.396-0.046s0.125-12.959,0.024-13.325C164.943,66.467,163.211,66.472,162.877,66.407L162.877,66.407z
		 M63.703,65.422c0.036,0.7-0.062,1.199,0.039,1.565c-0.033,0.167-0.065,0.333-0.065,0.333c1.533,0.129,2.8,0.725,3.47,1.722
		c0.836,1.03,1.107,2.295,1.112,4.027c0.104,1.232-0.159,2.565-0.62,4.033l-5.371,18.505c-0.495,1.634-0.459,2.333-0.459,2.333
		l-0.5-0.098c0,0-0.202-0.732-0.606-2.198L51.895,70.89c-0.101-0.366-0.169-0.898-0.104-1.232c-0.068-0.533,0.03-1.033,0.429-1.301
		c0.464-0.601,1.229-0.97,2.295-1.106c0.033-0.167,0.128-1.533,0.027-1.899c-0.533,0.068-18.522-0.008-19.055,0.061
		c0.101,0.366,0.038,1.565-0.027,1.899c2.066,0.06,3.568,1.221,4.342,3.45l2.587,7.088l-5.907,17.707
		c-0.527,1.801-0.625,2.301-0.625,2.301l-0.533,0.068c0,0-0.068-0.533-0.574-2.364l-9.006-24.623
		c-0.268-0.399-0.203-0.732-0.303-1.098c0.131-0.667,0.229-1.167,0.461-1.467c0.498-0.768,1.429-1.104,2.462-1.074
		c0.065-0.333,0.128-1.533,0.027-1.899c-0.334-0.065-19.355-0.171-19.888-0.103c0.036,0.699,0.104,1.232,0.039,1.565
		c-0.033,0.167,0.134,0.199,0.101,0.366c1.533,0.128,3.5,0.688,4.508,3.483c0,0,15.388,41.459,16.397,44.254
		c0.333,0.064,3.297-0.045,3.631,0.021c0.065-0.334,9.797-30.445,9.797-30.445c0.596-1.268,0.593-2.134,0.593-2.134l0.533-0.068
		c0,0,0.003,0.866,0.606,2.196c0,0,10.184,28.316,10.957,30.547c0.366-0.102,3.298-0.045,3.631,0.021
		c0.065-0.334,11.933-39.547,11.933-39.547c1.716-5.202,4.505-7.942,8.002-8.121c0.066-0.333-0.038-1.565,0.027-1.898
		C78.76,65.441,64.203,65.521,63.703,65.422L63.703,65.422z M91.662,79.059c7.962,0.008,17.205,4.942,17.249,18.799
		c-0.5-0.098-23.352-0.092-23.352-0.092l-0.033,0.168c-0.167-0.033-0.167-0.033-0.095,1.365c-0.099,0.5-0.096,1.365-0.125,2.398
		c-0.002,9.693,4.768,11.844,8.598,11.732c2.765,0.025,10.188-1.631,11.762-9.631c0.333,0.064,2.599-0.01,2.932,0.057
		c-0.978,6.732-7.524,11.85-14.985,11.939c-9.662-0.168-19.804-4.934-19.746-18.426C73.758,84.711,84.2,79.149,91.662,79.059
		L91.662,79.059z M85.406,91.503l0.017,5.197l12.125-0.039l0.066-0.333c-0.071-1.398-0.042-2.432-0.044-3.297
		c0.063-1.2-0.038-1.565-0.006-1.732l0,0c0.123-3.265-0.601-11.024-5.997-10.874C87.436,80.304,85.348,83.875,85.406,91.503
		L85.406,91.503z M115.58,89.476c-0.011,7.096,6.027,9.841,11.729,11.655l3.134,0.789c4.935,1.318,9.369,2.535,9.38,6
		c-0.19,2.732-2.813,5.506-7.312,5.486c-6.762,0.057-12.874-4.955-13.888-9.482c-0.333-0.066-1.898-0.027-2.232-0.094
		c0.068,0.533,0.334,10.627,0.435,10.992c0.334,0.066,1.899,0.027,2.232,0.094c0.132-0.668,0.661-1.602,1.861-1.539
		c1.231-0.104,2.365,0.293,3.666,0.721c1.935,0.727,4.369,1.553,8,1.574c6.596-0.088,13.71-4.574,13.721-11.67
		c-0.057-7.628-5.661-9.942-11.863-11.854l-3.301-0.822c-5.067-1.517-9.535-2.568-9.412-5.833c0.06-2.065,2.519-4.005,7.216-4.12
		c6.896,0.145,10.939,4.229,11.918,8.057c0.167,0.033,1.732-0.006,2.065,0.06c-0.068-0.533-0.429-9.259-0.53-9.625
		c-0.333-0.066-1.732,0.005-2.065-0.061c-0.033,0.167-0.099,0.5-0.33,0.801c-0.232,0.3-0.799,0.535-1.331,0.604
		c-1.033-0.03-1.834-0.36-2.801-0.724c-1.634-0.495-3.602-1.055-6.866-1.178C118.113,79.241,115.604,86.711,115.58,89.476
		L115.58,89.476z"/>
</g>
</svg>
