<?xml version="1.0" encoding="utf-8"?>
<!-- Generator: Adobe Illustrator 15.0.0, SVG Export Plug-In . SVG Version: 6.00 Build 0)  -->
<!DOCTYPE svg PUBLIC "-//W3C//DTD SVG 1.1//EN" "http://www.w3.org/Graphics/SVG/1.1/DTD/svg11.dtd" [
	<!ENTITY ns_extend "http://ns.adobe.com/Extensibility/1.0/">
	<!ENTITY ns_ai "http://ns.adobe.com/AdobeIllustrator/10.0/">
	<!ENTITY ns_graphs "http://ns.adobe.com/Graphs/1.0/">
	<!ENTITY ns_vars "http://ns.adobe.com/Variables/1.0/">
	<!ENTITY ns_imrep "http://ns.adobe.com/ImageReplacement/1.0/">
	<!ENTITY ns_sfw "http://ns.adobe.com/SaveForWeb/1.0/">
	<!ENTITY ns_custom "http://ns.adobe.com/GenericCustomNamespace/1.0/">
	<!ENTITY ns_adobe_xpath "http://ns.adobe.com/XPath/1.0/">
]>
<svg version="1.1" id="Layer_1" xmlns:x="&ns_extend;" xmlns:i="&ns_ai;" xmlns:graph="&ns_graphs;"
	 xmlns="http://www.w3.org/2000/svg" xmlns:xlink="http://www.w3.org/1999/xlink" x="0px" y="0px" width="102.129px"
	 height="51.24px" viewBox="0 0 102.129 51.24" enable-background="new 0 0 102.129 51.24" xml:space="preserve">
<metadata>
	<sfw  xmlns="&ns_sfw;">
		<slices></slices>
		<sliceSourceBounds  y="-447.001" x="249.218" width="94.783" height="51.24" bottomLeftOrigin="true"></sliceSourceBounds>
	</sfw>
</metadata>
<g>
	<path d="M55.237,15.62c0.15,0.734,0.299,1.158,1.616,1.286c0.905,0.089,4.069,1.289,6.166,3.597l0.91,1.002l-0.665-1.181
		c-1.868-3.318-6.315-5.104-7.473-5.215c-0.174-0.019-0.696-0.118-0.696-0.118S55.211,15.506,55.237,15.62"/>
	<path d="M38.339,24.336c0-0.234,0.365-1.48,0.386-1.703c0.602-4.94,7.689-5.695,8.003-5.726c1.317-0.128,1.466-0.552,1.617-1.287
		c0.024-0.113,0.047-0.23,0.08-0.357c0.166-0.649,0.079-5.462,0.079-6.008c0-1.205-0.298-6.507-0.298-6.507
		C48.201,2.102,48.2,2.02,48.897,1.906c0.779-0.126,3.899-0.146,5.139-0.031l0.161,0.015l0.015-0.634
		c0.006-0.736-0.039-0.997-0.948-1.145c-0.9-0.147-4.606-0.147-5.506,0c-0.91,0.147-0.954,0.408-0.948,1.145
		c0,0,0.046,1.206,0.102,2.117c0.087,1.423,0.196,3.192,0.196,4.388c0,0.548,0.087,5.322-0.07,5.933
		c-0.034,0.134-0.06,0.26-0.082,0.371c-0.132,0.64-0.192,0.931-1.347,1.044c-1.664,0.163-6.722,2.716-7.188,7.498
		C38.393,22.835,38.339,24.336,38.339,24.336"/>
	<path d="M64.765,46.806l-0.037-6.013c0,0-0.379,2.057-0.524,2.839c-0.366,1.97-0.72,4.701-2.151,5.888
		c-0.774,0.455-21.493,0.643-22.135,0c-1.432-1.187-1.786-3.918-2.152-5.888c-0.145-0.782-0.524-2.839-0.524-2.839l-0.037,6.013
		l-0.002,0.013l0.001,0.015c0.162,2.461,2.171,4.26,3.88,4.344c0.211,0.042,0.398,0.064,0.567,0.064h18.667
		c0.171,0,0.356-0.022,0.568-0.064c1.709-0.084,3.718-1.883,3.879-4.344l0.001-0.015L64.765,46.806z"/>
	<path d="M7.736,31.856l-1.043-2.418c-0.202-0.464-0.281-0.543-0.832-0.543v-0.229c0.411,0.009,0.814,0.018,1.217,0.018
		c0.298,0,0.622-0.018,0.911-0.018v0.229c-0.157,0-0.482,0.008-0.482,0.219c0,0.07,0.062,0.245,0.096,0.333l0.57,1.462l0.552-1.199
		c0.105-0.228,0.158-0.395,0.158-0.535c0-0.279-0.21-0.279-0.587-0.279v-0.229c0.324,0.009,0.683,0.018,1.007,0.018
		c0.237,0,0.518-0.018,0.762-0.018v0.229c-0.455,0-0.631,0.219-0.797,0.561l-0.894,1.875l1.053,2.425l1.462-4.002
		c0.149-0.395,0.158-0.509,0.158-0.569c0-0.157-0.088-0.281-0.657-0.289v-0.229c0.324,0.009,0.657,0.018,0.981,0.018
		c0.219,0,0.474-0.018,0.701-0.018v0.229c-0.412,0-0.508,0.245-0.648,0.604l-2.094,5.415H9.103l-1.183-2.646l-1.236,2.646H6.438
		l-2.172-5.328c-0.202-0.48-0.307-0.69-0.92-0.69v-0.229c0.386,0.009,0.815,0.018,1.2,0.018c0.333,0,0.701-0.018,1.034-0.018v0.229
		c-0.403,0-0.543,0.079-0.543,0.201c0,0.088,0,0.158,0.096,0.402l1.718,4.257L7.736,31.856z"/>
	<path fill="none" stroke="#000000" stroke-width="0.128" d="M7.736,31.856l-1.043-2.418c-0.202-0.464-0.281-0.543-0.832-0.543
		v-0.229c0.411,0.009,0.814,0.018,1.217,0.018c0.298,0,0.622-0.018,0.911-0.018v0.229c-0.157,0-0.482,0.008-0.482,0.219
		c0,0.07,0.062,0.245,0.096,0.333l0.57,1.462l0.552-1.199c0.105-0.228,0.158-0.395,0.158-0.535c0-0.279-0.21-0.279-0.587-0.279
		v-0.229c0.324,0.009,0.683,0.018,1.007,0.018c0.237,0,0.518-0.018,0.762-0.018v0.229c-0.455,0-0.631,0.219-0.797,0.561
		l-0.894,1.875l1.053,2.425l1.462-4.002c0.149-0.395,0.158-0.509,0.158-0.569c0-0.157-0.088-0.281-0.657-0.289v-0.229
		c0.324,0.009,0.657,0.018,0.981,0.018c0.219,0,0.474-0.018,0.701-0.018v0.229c-0.412,0-0.508,0.245-0.648,0.604l-2.094,5.415H9.103
		l-1.183-2.646l-1.236,2.646H6.438l-2.172-5.328c-0.202-0.48-0.307-0.69-0.92-0.69v-0.229c0.386,0.009,0.815,0.018,1.2,0.018
		c0.333,0,0.701-0.018,1.034-0.018v0.229c-0.403,0-0.543,0.079-0.543,0.201c0,0.088,0,0.158,0.096,0.402l1.718,4.257L7.736,31.856z"
		/>
	<path d="M15.036,30.384c1.42,0,2.349,0.964,2.349,2.226c0,1.086-0.903,2.279-2.41,2.279c-1.445,0-2.401-0.93-2.401-2.271
		C12.574,31.244,13.749,30.384,15.036,30.384 M15.071,34.607c1.105,0,1.455-0.964,1.455-1.911c0-1.225-0.692-2.031-1.622-2.031
		c-1.05,0-1.471,0.92-1.471,1.865C13.433,33.705,14.152,34.607,15.071,34.607"/>
	<path fill="none" stroke="#000000" stroke-width="0.128" d="M15.036,30.384c1.42,0,2.349,0.964,2.349,2.226
		c0,1.086-0.903,2.279-2.41,2.279c-1.445,0-2.401-0.93-2.401-2.271C12.574,31.244,13.749,30.384,15.036,30.384z M15.071,34.607
		c1.105,0,1.455-0.964,1.455-1.911c0-1.225-0.692-2.031-1.622-2.031c-1.05,0-1.471,0.92-1.471,1.865
		C13.433,33.705,14.152,34.607,15.071,34.607z"/>
	<path d="M21.472,30.384c1.419,0,2.347,0.964,2.347,2.226c0,1.086-0.901,2.279-2.408,2.279c-1.446,0-2.401-0.93-2.401-2.271
		C19.01,31.244,20.184,30.384,21.472,30.384 M21.507,34.607c1.104,0,1.454-0.964,1.454-1.911c0-1.225-0.692-2.031-1.621-2.031
		c-1.051,0-1.472,0.92-1.472,1.865C19.868,33.705,20.587,34.607,21.507,34.607"/>
	<path fill="none" stroke="#000000" stroke-width="0.128" d="M21.472,30.384c1.419,0,2.347,0.964,2.347,2.226
		c0,1.086-0.901,2.279-2.408,2.279c-1.446,0-2.401-0.93-2.401-2.271C19.01,31.244,20.184,30.384,21.472,30.384z M21.507,34.607
		c1.104,0,1.454-0.964,1.454-1.911c0-1.225-0.692-2.031-1.621-2.031c-1.051,0-1.472,0.92-1.472,1.865
		C19.868,33.705,20.587,34.607,21.507,34.607z"/>
	<path d="M26.006,31.103c0-0.333-0.236-0.387-0.648-0.387v-0.228c0.324,0.011,0.683,0.019,1.051,0.019
		c0.447,0,0.894-0.019,1.331-0.019c1.763,0,2.515,1.097,2.515,2.104c0,1.656-1.279,2.191-2.558,2.191
		c-0.386,0-0.824-0.02-1.165-0.02c-0.395,0-0.78,0.011-1.174,0.02v-0.229c0.412,0,0.648-0.052,0.648-0.384V31.103z M26.76,33.95
		c0,0.509,0.281,0.552,0.7,0.552c0.842,0,1.936-0.271,1.936-1.805c0-1.077-0.498-1.928-1.673-1.928
		c-0.254,0-0.692,0.019-0.963,0.026V33.95z"/>
	<path fill="none" stroke="#000000" stroke-width="0.128" d="M26.006,31.103c0-0.333-0.236-0.387-0.648-0.387v-0.228
		c0.324,0.011,0.683,0.019,1.051,0.019c0.447,0,0.894-0.019,1.331-0.019c1.763,0,2.515,1.097,2.515,2.104
		c0,1.656-1.279,2.191-2.558,2.191c-0.386,0-0.824-0.02-1.165-0.02c-0.395,0-0.78,0.011-1.174,0.02v-0.229
		c0.412,0,0.648-0.052,0.648-0.384V31.103z M26.76,33.95c0,0.509,0.281,0.552,0.7,0.552c0.842,0,1.936-0.271,1.936-1.805
		c0-1.077-0.498-1.928-1.673-1.928c-0.254,0-0.692,0.019-0.963,0.026V33.95z"/>
	<path d="M32.441,31.103c0-0.333-0.236-0.386-0.648-0.386v-0.229c0.569,0.012,1.131,0.021,1.7,0.021
		c0.822,0,1.339-0.009,1.848-0.021l0.035,0.966h-0.176c-0.113-0.604-0.288-0.684-1.068-0.684h-0.938v1.655h0.824
		c0.438,0,0.631-0.007,0.631-0.543h0.228c-0.009,0.228-0.018,0.465-0.018,0.701c0,0.237,0.009,0.483,0.018,0.727h-0.228
		c0-0.551-0.114-0.604-0.631-0.604h-0.824v1.289c0,0.465,0.194,0.56,0.604,0.56h0.185v0.229c-0.341-0.009-0.71-0.019-1.183-0.019
		c-0.333,0-0.674,0.01-1.007,0.019v-0.229c0.412,0,0.648-0.052,0.648-0.385V31.103z"/>
	<path fill="none" stroke="#000000" stroke-width="0.128" d="M32.441,31.103c0-0.333-0.236-0.386-0.648-0.386v-0.229
		c0.569,0.012,1.131,0.021,1.7,0.021c0.822,0,1.339-0.009,1.848-0.021l0.035,0.966h-0.176c-0.113-0.604-0.288-0.684-1.068-0.684
		h-0.938v1.655h0.824c0.438,0,0.631-0.007,0.631-0.543h0.228c-0.009,0.228-0.018,0.465-0.018,0.701c0,0.237,0.009,0.483,0.018,0.727
		h-0.228c0-0.551-0.114-0.604-0.631-0.604h-0.824v1.289c0,0.465,0.194,0.56,0.604,0.56h0.185v0.229
		c-0.341-0.009-0.71-0.019-1.183-0.019c-0.333,0-0.674,0.01-1.007,0.019v-0.229c0.412,0,0.648-0.052,0.648-0.385V31.103z"/>
	<path d="M39.314,30.384c1.419,0,2.348,0.964,2.348,2.226c0,1.086-0.902,2.279-2.409,2.279c-1.445,0-2.4-0.93-2.4-2.271
		C36.854,31.244,38.026,30.384,39.314,30.384 M39.35,34.607c1.104,0,1.454-0.964,1.454-1.911c0-1.225-0.691-2.031-1.621-2.031
		c-1.051,0-1.471,0.92-1.471,1.865C37.711,33.705,38.43,34.607,39.35,34.607"/>
	<path fill="none" stroke="#000000" stroke-width="0.128" d="M39.314,30.384c1.419,0,2.348,0.964,2.348,2.226
		c0,1.086-0.902,2.279-2.409,2.279c-1.445,0-2.4-0.93-2.4-2.271C36.854,31.244,38.026,30.384,39.314,30.384z M39.35,34.607
		c1.104,0,1.454-0.964,1.454-1.911c0-1.225-0.691-2.031-1.621-2.031c-1.051,0-1.471,0.92-1.471,1.865
		C37.711,33.705,38.43,34.607,39.35,34.607z"/>
	<path d="M43.744,31.103c0-0.333-0.237-0.386-0.648-0.386v-0.229c0.332,0.011,0.675,0.02,1.008,0.02c0.421,0,1.007-0.02,1.305-0.02
		c0.727,0,1.322,0.361,1.322,1.062c0,0.498-0.333,0.832-0.937,1.033c0.937,1.63,1.166,1.84,1.725,1.972v0.229
		c-0.165-0.009-0.357-0.019-0.525-0.019c-0.192,0-0.375,0.01-0.568,0.019c-0.342-0.387-0.886-1.289-1.341-2.034
		c-0.088,0.009-0.201,0.018-0.29,0.018c-0.096,0-0.209-0.009-0.297-0.018v1.421c0,0.359,0.262,0.385,0.648,0.385v0.229
		c-0.324-0.009-0.692-0.019-1.042-0.019c-0.333,0-0.676,0.01-1.008,0.019v-0.229c0.411,0,0.648-0.053,0.648-0.385V31.103z
		 M44.822,32.487c0.736,0,1.156-0.281,1.156-0.938c0-0.552-0.385-0.833-1.051-0.833c-0.079,0-0.341,0.019-0.429,0.028v1.742H44.822z
		"/>
	<path fill="none" stroke="#000000" stroke-width="0.128" d="M43.744,31.103c0-0.333-0.237-0.386-0.648-0.386v-0.229
		c0.332,0.011,0.675,0.02,1.008,0.02c0.421,0,1.007-0.02,1.305-0.02c0.727,0,1.322,0.361,1.322,1.062
		c0,0.498-0.333,0.832-0.937,1.033c0.937,1.63,1.166,1.84,1.725,1.972v0.229c-0.165-0.009-0.357-0.019-0.525-0.019
		c-0.192,0-0.375,0.01-0.568,0.019c-0.342-0.387-0.886-1.289-1.341-2.034c-0.088,0.009-0.201,0.018-0.29,0.018
		c-0.096,0-0.209-0.009-0.297-0.018v1.421c0,0.359,0.262,0.385,0.648,0.385v0.229c-0.324-0.009-0.692-0.019-1.042-0.019
		c-0.333,0-0.676,0.01-1.008,0.019v-0.229c0.411,0,0.648-0.053,0.648-0.385V31.103z M44.822,32.487c0.736,0,1.156-0.281,1.156-0.938
		c0-0.552-0.385-0.833-1.051-0.833c-0.079,0-0.341,0.019-0.429,0.028v1.742H44.822z"/>
	<path d="M49.311,31.103c0-0.333-0.236-0.387-0.648-0.387v-0.228c0.325,0.011,0.684,0.019,1.051,0.019
		c0.447,0,0.893-0.019,1.331-0.019c1.762,0,2.515,1.097,2.515,2.104c0,1.656-1.278,2.191-2.557,2.191
		c-0.386,0-0.825-0.02-1.166-0.02c-0.394,0-0.779,0.011-1.174,0.02v-0.229c0.412,0,0.648-0.052,0.648-0.384V31.103z M50.063,33.95
		c0,0.509,0.282,0.552,0.702,0.552c0.841,0,1.936-0.271,1.936-1.805c0-1.077-0.499-1.928-1.674-1.928
		c-0.254,0-0.691,0.019-0.964,0.026V33.95z"/>
	<path fill="none" stroke="#000000" stroke-width="0.128" d="M49.311,31.103c0-0.333-0.236-0.387-0.648-0.387v-0.228
		c0.325,0.011,0.684,0.019,1.051,0.019c0.447,0,0.893-0.019,1.331-0.019c1.762,0,2.515,1.097,2.515,2.104
		c0,1.656-1.278,2.191-2.557,2.191c-0.386,0-0.825-0.02-1.166-0.02c-0.394,0-0.779,0.011-1.174,0.02v-0.229
		c0.412,0,0.648-0.052,0.648-0.384V31.103z M50.063,33.95c0,0.509,0.282,0.552,0.702,0.552c0.841,0,1.936-0.271,1.936-1.805
		c0-1.077-0.499-1.928-1.674-1.928c-0.254,0-0.691,0.019-0.964,0.026V33.95z"/>
	<path d="M59.581,31.568v2.032c0,0.612,0.333,0.622,0.795,0.631v0.229c-0.419,0-0.795-0.019-1.182-0.019
		c-0.42,0-0.832,0.009-1.271,0.019v-0.229c0.438,0.025,0.798-0.088,0.798-0.587v-4.442c0-0.612-0.333-0.622-0.798-0.631v-0.229
		c0.483,0.01,0.903,0.019,1.332,0.019c0.306,0,0.613-0.019,1.174-0.019c1.655,0,2.024,0.93,2.024,1.553
		c0,0.744-0.562,1.295-1.245,1.498c0.797,1.165,1.219,1.865,1.595,2.285c0.28,0.315,0.543,0.553,0.99,0.553v0.229
		c-0.219,0-0.438-0.019-0.657-0.019c-0.245,0-0.499,0.009-0.744,0.019c-0.798-0.877-1.385-1.901-2.017-2.892H59.581z M60.105,28.624
		c-0.22,0-0.368,0.026-0.524,0.052v2.567c0.13,0.027,0.314,0.045,0.463,0.045c1.078,0,1.499-0.711,1.499-1.342
		C61.542,29.186,61.139,28.624,60.105,28.624"/>
	<path fill="none" stroke="#000000" stroke-width="0.128" d="M59.581,31.568v2.032c0,0.612,0.333,0.622,0.795,0.631v0.229
		c-0.419,0-0.795-0.019-1.182-0.019c-0.42,0-0.832,0.009-1.271,0.019v-0.229c0.438,0.025,0.798-0.088,0.798-0.587v-4.442
		c0-0.612-0.333-0.622-0.798-0.631v-0.229c0.483,0.01,0.903,0.019,1.332,0.019c0.306,0,0.613-0.019,1.174-0.019
		c1.655,0,2.024,0.93,2.024,1.553c0,0.744-0.562,1.295-1.245,1.498c0.797,1.165,1.219,1.865,1.595,2.285
		c0.28,0.315,0.543,0.553,0.99,0.553v0.229c-0.219,0-0.438-0.019-0.657-0.019c-0.245,0-0.499,0.009-0.744,0.019
		c-0.798-0.877-1.385-1.901-2.017-2.892H59.581z M60.105,28.624c-0.22,0-0.368,0.026-0.524,0.052v2.567
		c0.13,0.027,0.314,0.045,0.463,0.045c1.078,0,1.499-0.711,1.499-1.342C61.542,29.186,61.139,28.624,60.105,28.624z"/>
	<path d="M68.788,34.46c-0.631-0.009-1.253-0.02-1.884-0.02c-0.562,0-1.13,0.011-1.691,0.02V34.23c0.412,0,0.648-0.052,0.648-0.385
		v-3.066c0-0.333-0.236-0.386-0.648-0.386v-0.228c0.395,0.009,0.789,0.017,1.183,0.017c0.719,0,1.445-0.008,2.155-0.017l0.054,0.929
		h-0.186c-0.104-0.597-0.253-0.648-1.156-0.648h-0.647v1.654h0.728c0.438,0,0.629-0.006,0.629-0.611H68.2
		c-0.008,0.228-0.019,0.464-0.019,0.699c0,0.237,0.011,0.482,0.019,0.729h-0.229c0-0.481-0.112-0.534-0.629-0.534h-0.728v1.278
		c0,0.378,0.209,0.518,0.937,0.518c0.884,0,0.947-0.114,1.288-0.691h0.219L68.788,34.46z"/>
	<path fill="none" stroke="#000000" stroke-width="0.128" d="M68.788,34.46c-0.631-0.009-1.253-0.02-1.884-0.02
		c-0.562,0-1.13,0.011-1.691,0.02V34.23c0.412,0,0.648-0.052,0.648-0.385v-3.066c0-0.333-0.236-0.386-0.648-0.386v-0.228
		c0.395,0.009,0.789,0.017,1.183,0.017c0.719,0,1.445-0.008,2.155-0.017l0.054,0.929h-0.186c-0.104-0.597-0.253-0.648-1.156-0.648
		h-0.647v1.654h0.728c0.438,0,0.629-0.006,0.629-0.611H68.2c-0.008,0.228-0.019,0.464-0.019,0.699c0,0.237,0.011,0.482,0.019,0.729
		h-0.229c0-0.481-0.112-0.534-0.629-0.534h-0.728v1.278c0,0.378,0.209,0.518,0.937,0.518c0.884,0,0.947-0.114,1.288-0.691h0.219
		L68.788,34.46z"/>
	<path d="M70.783,33.398h0.202c0.175,0.612,0.448,0.938,1.087,0.938c0.674,0,0.832-0.458,0.832-0.729
		c0-0.359-0.202-0.586-0.789-0.894c-0.964-0.499-1.217-0.833-1.217-1.516c0-0.596,0.517-1.139,1.278-1.139
		c0.334,0,0.746,0.079,1.034,0.088l0.078,0.858h-0.184c-0.096-0.351-0.289-0.717-0.866-0.717c-0.457,0-0.763,0.297-0.763,0.699
		c0,0.421,0.13,0.588,0.972,0.998c0.93,0.455,1.104,0.824,1.104,1.376c0,0.701-0.648,1.2-1.55,1.2c-0.404,0-0.754-0.078-1.088-0.235
		L70.783,33.398z"/>
	<path fill="none" stroke="#000000" stroke-width="0.128" d="M70.783,33.398h0.202c0.175,0.612,0.448,0.938,1.087,0.938
		c0.674,0,0.832-0.458,0.832-0.729c0-0.359-0.202-0.586-0.789-0.894c-0.964-0.499-1.217-0.833-1.217-1.516
		c0-0.596,0.517-1.139,1.278-1.139c0.334,0,0.746,0.079,1.034,0.088l0.078,0.858h-0.184c-0.096-0.351-0.289-0.717-0.866-0.717
		c-0.457,0-0.763,0.297-0.763,0.699c0,0.421,0.13,0.588,0.972,0.998c0.93,0.455,1.104,0.824,1.104,1.376c0,0.701-0.648,1.2-1.55,1.2
		c-0.404,0-0.754-0.078-1.088-0.235L70.783,33.398z"/>
	<path d="M78.965,34.46c-0.633-0.009-1.254-0.02-1.885-0.02c-0.562,0-1.13,0.011-1.69,0.02V34.23c0.412,0,0.646-0.052,0.646-0.385
		v-3.066c0-0.333-0.234-0.386-0.646-0.386v-0.228c0.394,0.009,0.788,0.017,1.183,0.017c0.718,0,1.445-0.008,2.154-0.017l0.053,0.929
		h-0.184c-0.105-0.597-0.254-0.648-1.157-0.648h-0.647v1.654h0.728c0.438,0,0.63-0.006,0.63-0.611h0.228
		c-0.009,0.228-0.018,0.464-0.018,0.699c0,0.237,0.009,0.482,0.018,0.729h-0.228c0-0.481-0.114-0.534-0.63-0.534h-0.728v1.278
		c0,0.378,0.209,0.518,0.938,0.518c0.884,0,0.947-0.114,1.288-0.691h0.218L78.965,34.46z"/>
	<path fill="none" stroke="#000000" stroke-width="0.128" d="M78.965,34.46c-0.633-0.009-1.254-0.02-1.885-0.02
		c-0.562,0-1.13,0.011-1.69,0.02V34.23c0.412,0,0.646-0.052,0.646-0.385v-3.066c0-0.333-0.234-0.386-0.646-0.386v-0.228
		c0.394,0.009,0.788,0.017,1.183,0.017c0.718,0,1.445-0.008,2.154-0.017l0.053,0.929h-0.184c-0.105-0.597-0.254-0.648-1.157-0.648
		h-0.647v1.654h0.728c0.438,0,0.63-0.006,0.63-0.611h0.228c-0.009,0.228-0.018,0.464-0.018,0.699c0,0.237,0.009,0.482,0.018,0.729
		h-0.228c0-0.481-0.114-0.534-0.63-0.534h-0.728v1.278c0,0.378,0.209,0.518,0.938,0.518c0.884,0,0.947-0.114,1.288-0.691h0.218
		L78.965,34.46z"/>
	<path d="M81.373,30.779c0-0.333-0.237-0.386-0.649-0.386v-0.229c0.334,0.01,0.676,0.019,1.009,0.019
		c0.42,0,1.008-0.019,1.304-0.019c0.728,0,1.324,0.36,1.324,1.061c0,0.5-0.331,0.833-0.938,1.034
		c0.938,1.631,1.166,1.841,1.728,1.972v0.229c-0.167-0.01-0.359-0.019-0.525-0.019c-0.194,0-0.378,0.009-0.571,0.019
		c-0.341-0.387-0.884-1.289-1.34-2.034c-0.087,0.01-0.202,0.018-0.29,0.018c-0.096,0-0.209-0.008-0.297-0.018v1.42
		c0,0.358,0.262,0.386,0.648,0.386v0.229c-0.323-0.01-0.691-0.019-1.042-0.019c-0.333,0-0.675,0.009-1.009,0.019v-0.229
		c0.412,0,0.649-0.052,0.649-0.386V30.779z M82.451,32.164c0.735,0,1.156-0.282,1.156-0.938c0-0.552-0.386-0.832-1.053-0.832
		c-0.078,0-0.341,0.018-0.429,0.026v1.744H82.451z"/>
	<path fill="none" stroke="#000000" stroke-width="0.128" d="M81.373,30.779c0-0.333-0.237-0.386-0.649-0.386v-0.229
		c0.334,0.01,0.676,0.019,1.009,0.019c0.42,0,1.008-0.019,1.304-0.019c0.728,0,1.324,0.36,1.324,1.061
		c0,0.5-0.331,0.833-0.938,1.034c0.938,1.631,1.166,1.841,1.728,1.972v0.229c-0.167-0.01-0.359-0.019-0.525-0.019
		c-0.194,0-0.378,0.009-0.571,0.019c-0.341-0.387-0.884-1.289-1.34-2.034c-0.087,0.01-0.202,0.018-0.29,0.018
		c-0.096,0-0.209-0.008-0.297-0.018v1.42c0,0.358,0.262,0.386,0.648,0.386v0.229c-0.323-0.01-0.691-0.019-1.042-0.019
		c-0.333,0-0.675,0.009-1.009,0.019v-0.229c0.412,0,0.649-0.052,0.649-0.386V30.779z M82.451,32.164
		c0.735,0,1.156-0.282,1.156-0.938c0-0.552-0.386-0.832-1.053-0.832c-0.078,0-0.341,0.018-0.429,0.026v1.744H82.451z"/>
	<path d="M86.943,30.806c-0.132-0.324-0.184-0.412-0.596-0.412v-0.229c0.297,0.01,0.613,0.019,0.92,0.019
		c0.323,0,0.648-0.009,0.974-0.019v0.229H88.03c-0.201,0-0.314,0.053-0.314,0.211c0,0.07,0.033,0.157,0.061,0.227l1.131,2.795
		l1.033-2.619c0.062-0.14,0.096-0.271,0.096-0.385c0-0.229-0.272-0.229-0.578-0.229v-0.229c0.279,0.01,0.578,0.019,0.858,0.019
		c0.21,0,0.447-0.009,0.657-0.019v0.229c-0.28,0-0.377,0-0.604,0.543l-1.552,3.628h-0.307L86.943,30.806z"/>
	<path fill="none" stroke="#000000" stroke-width="0.128" d="M86.943,30.806c-0.132-0.324-0.184-0.412-0.596-0.412v-0.229
		c0.297,0.01,0.613,0.019,0.92,0.019c0.323,0,0.648-0.009,0.974-0.019v0.229H88.03c-0.201,0-0.314,0.053-0.314,0.211
		c0,0.07,0.033,0.157,0.061,0.227l1.131,2.795l1.033-2.619c0.062-0.14,0.096-0.271,0.096-0.385c0-0.229-0.272-0.229-0.578-0.229
		v-0.229c0.279,0.01,0.578,0.019,0.858,0.019c0.21,0,0.447-0.009,0.657-0.019v0.229c-0.28,0-0.377,0-0.604,0.543l-1.552,3.628
		h-0.307L86.943,30.806z"/>
	<path d="M95.949,34.46c-0.632-0.009-1.253-0.02-1.885-0.02c-0.561,0-1.128,0.011-1.689,0.02V34.23c0.411,0,0.647-0.052,0.647-0.385
		v-3.066c0-0.333-0.236-0.386-0.647-0.386v-0.228c0.394,0.009,0.788,0.017,1.182,0.017c0.719,0,1.446-0.008,2.155-0.017l0.052,0.929
		h-0.183c-0.106-0.597-0.256-0.648-1.156-0.648h-0.648v1.654h0.727c0.438,0,0.631-0.006,0.631-0.611h0.229
		c-0.01,0.228-0.019,0.464-0.019,0.699c0,0.237,0.009,0.482,0.019,0.729h-0.229c0-0.481-0.113-0.534-0.631-0.534h-0.727v1.278
		c0,0.378,0.211,0.518,0.938,0.518c0.884,0,0.945-0.114,1.287-0.691h0.219L95.949,34.46z"/>
	<path fill="none" stroke="#000000" stroke-width="0.128" d="M95.949,34.46c-0.632-0.009-1.253-0.02-1.885-0.02
		c-0.561,0-1.128,0.011-1.689,0.02V34.23c0.411,0,0.647-0.052,0.647-0.385v-3.066c0-0.333-0.236-0.386-0.647-0.386v-0.228
		c0.394,0.009,0.788,0.017,1.182,0.017c0.719,0,1.446-0.008,2.155-0.017l0.052,0.929h-0.183c-0.106-0.597-0.256-0.648-1.156-0.648
		h-0.648v1.654h0.727c0.438,0,0.631-0.006,0.631-0.611h0.229c-0.01,0.228-0.019,0.464-0.019,0.699c0,0.237,0.009,0.482,0.019,0.729
		h-0.229c0-0.481-0.113-0.534-0.631-0.534h-0.727v1.278c0,0.378,0.211,0.518,0.938,0.518c0.884,0,0.945-0.114,1.287-0.691h0.219
		L95.949,34.46z"/>
	<path d="M98.066,30.548c0,0.43-0.346,0.789-0.771,0.789s-0.771-0.359-0.771-0.789s0.347-0.788,0.771-0.788
		S98.066,30.118,98.066,30.548 M96.64,30.548c0,0.376,0.301,0.699,0.655,0.699s0.655-0.323,0.655-0.699
		c0-0.377-0.301-0.699-0.655-0.699S96.64,30.171,96.64,30.548 M97.54,30.745c0.062,0.084,0.135,0.166,0.181,0.194v0.021h-0.135
		c-0.08,0-0.13-0.146-0.288-0.372h-0.119v0.234c0,0.076,0.013,0.102,0.11,0.102v0.036h-0.359v-0.036
		c0.099,0,0.112-0.025,0.112-0.102v-0.571c0-0.075-0.014-0.101-0.112-0.101v-0.036h0.395c0.138,0,0.269,0.067,0.269,0.21
		c0,0.12-0.082,0.204-0.186,0.24L97.54,30.745z M97.178,30.543h0.106c0.112,0,0.171-0.079,0.171-0.21s-0.084-0.175-0.178-0.175h-0.1
		V30.543z"/>
</g>
</svg>
