<?xml version="1.0" encoding="utf-8"?>
<!-- Generator: Adobe Illustrator 15.0.0, SVG Export Plug-In . SVG Version: 6.00 Build 0)  -->
<!DOCTYPE svg PUBLIC "-//W3C//DTD SVG 1.1//EN" "http://www.w3.org/Graphics/SVG/1.1/DTD/svg11.dtd" [
	<!ENTITY ns_extend "http://ns.adobe.com/Extensibility/1.0/">
	<!ENTITY ns_ai "http://ns.adobe.com/AdobeIllustrator/10.0/">
	<!ENTITY ns_graphs "http://ns.adobe.com/Graphs/1.0/">
	<!ENTITY ns_vars "http://ns.adobe.com/Variables/1.0/">
	<!ENTITY ns_imrep "http://ns.adobe.com/ImageReplacement/1.0/">
	<!ENTITY ns_sfw "http://ns.adobe.com/SaveForWeb/1.0/">
	<!ENTITY ns_custom "http://ns.adobe.com/GenericCustomNamespace/1.0/">
	<!ENTITY ns_adobe_xpath "http://ns.adobe.com/XPath/1.0/">
]>
<svg version="1.1" id="Layer_1" xmlns:x="&ns_extend;" xmlns:i="&ns_ai;" xmlns:graph="&ns_graphs;"
	 xmlns="http://www.w3.org/2000/svg" xmlns:xlink="http://www.w3.org/1999/xlink" x="0px" y="0px" width="60.484px"
	 height="60.483px" viewBox="0 0 60.484 60.483" enable-background="new 0 0 60.484 60.483" xml:space="preserve">
<metadata>
	<sfw  xmlns="&ns_sfw;">
		<slices></slices>
		<sliceSourceBounds  y="-451.578" x="266.953" width="60.596" height="60.594" bottomLeftOrigin="true"></sliceSourceBounds>
	</sfw>
</metadata>
<g>
	<g>
		
			<rect x="8.875" y="8.873" transform="matrix(0.7071 0.7071 -0.7071 0.7071 30.2958 -12.5501)" fill="#FFFFFF" width="42.846" height="42.848"/>
		
			<rect x="10.405" y="10.403" transform="matrix(0.7071 0.7071 -0.7071 0.7071 30.2957 -12.5501)" fill="none" stroke="#010202" stroke-width="0.229" stroke-miterlimit="3.864" width="39.786" height="39.787"/>
		<path fill="#FFFFFF" d="M10.7,20.936l2.312-2.311l1.864,0.001l0.457,0.457l-3.219,3.219C11.634,21.801,11.157,21.342,10.7,20.936"
			/>
	</g>
	<g>
		<path fill-rule="evenodd" clip-rule="evenodd" fill="#010202" d="M29.508,30.606c0-5.493,4.452-9.946,9.945-9.946
			c5.492,0,9.943,4.453,9.943,9.946s-4.451,9.946-9.943,9.946C33.96,40.553,29.508,36.1,29.508,30.606 M39.463,36.553
			c1.959,0,3.547-1.588,3.547-3.547v-4.969c0-1.96-1.588-3.548-3.547-3.548c-1.958,0-3.546,1.588-3.546,3.548l0.004,5.032
			C35.955,34.999,37.527,36.553,39.463,36.553"/>
		<path fill="#E20719" d="M29.205,30.304c0-5.493,4.452-9.946,9.945-9.946c5.491,0,9.943,4.453,9.943,9.946
			s-4.452,9.946-9.943,9.946C33.657,40.25,29.205,35.797,29.205,30.304 M39.16,36.25c1.959,0,3.547-1.588,3.547-3.548v-4.969
			c0-1.959-1.588-3.547-3.547-3.547c-1.958,0-3.546,1.588-3.546,3.547l0.004,5.033C35.652,34.695,37.224,36.25,39.16,36.25"/>
		<path fill="#FEEB17" d="M29.822,30.304c0-5.152,4.176-9.329,9.328-9.329c5.15,0,9.327,4.177,9.327,9.329s-4.177,9.33-9.327,9.33
			C33.998,39.634,29.822,35.456,29.822,30.304 M39.16,36.25c1.959,0,3.547-1.588,3.547-3.548v-4.969
			c0-1.959-1.588-3.547-3.547-3.547c-1.958,0-3.546,1.588-3.546,3.547l0.004,5.033C35.652,34.695,37.224,36.25,39.16,36.25
			 M39.16,36.865c-2.274,0-4.118-1.826-4.159-4.091l-0.003-5.041c0-2.299,1.863-4.163,4.162-4.163s4.163,1.864,4.163,4.163v4.969
			C43.323,35.002,41.459,36.865,39.16,36.865 M39.16,36.25c1.959,0,3.547-1.588,3.547-3.548v-4.969c0-1.959-1.588-3.547-3.547-3.547
			c-1.958,0-3.546,1.588-3.546,3.547l0.004,5.033C35.652,34.695,37.224,36.25,39.16,36.25"/>
		<path fill="#E20719" d="M39.16,36.865c-2.274,0-4.118-1.826-4.159-4.091l-0.003-5.041c0-2.299,1.863-4.163,4.162-4.163
			s4.163,1.864,4.163,4.163v4.969C43.323,35.002,41.459,36.865,39.16,36.865 M39.16,36.25c1.959,0,3.547-1.588,3.547-3.548v-4.969
			c0-1.959-1.588-3.547-3.547-3.547c-1.958,0-3.546,1.588-3.546,3.547l0.004,5.033C35.652,34.695,37.224,36.25,39.16,36.25"/>
	</g>
	<g>
		<path fill="#010202" d="M17.382,19.877c0.051,0,0.222,0.305,0.252,0.348l4.07,5.816c0.526-0.958,1.933-3.451,4.318-5.427
			c3.121-2.583,7.919-4.643,14.577-2.579c0.401,0.124,0.309,0.63-0.111,0.603C30.665,18,25.424,26.393,25.359,32.212
			c-0.052,4.661-0.022,6.111-0.008,6.518l1.83,1.218c0.315,0.21,0.208,0.565-0.171,0.565h-9.712c-0.375,0-0.484-0.344-0.178-0.561
			l1.712-1.212v-6.353c-0.073-1.139-0.577-2.641-1.004-3.659c-0.937-2.231-2.61-5.242-6.086-8.315
			c-0.267-0.235-0.281-0.539,0.075-0.539L17.382,19.877"/>
		<path fill="#E20719" d="M17.078,19.573c0.052,0,0.223,0.09,0.253,0.132l4.069,5.815c0.527-0.958,1.933-3.233,4.319-5.209
			c3.121-2.583,7.919-4.643,14.577-2.579c0.401,0.124,0.308,0.629-0.112,0.603c-9.823-0.64-15.063,7.756-15.128,13.572
			c-0.052,4.662-0.022,6.113-0.008,6.52l1.83,1.218c0.314,0.21,0.208,0.565-0.171,0.565l-9.712-0.001
			c-0.375,0-0.484-0.344-0.178-0.56l1.712-1.212v-6.353c-0.073-1.14-0.577-2.642-1.005-3.659c-0.936-2.232-2.739-5.242-6.216-8.316
			c-0.266-0.234-0.15-0.539,0.205-0.539L17.078,19.573"/>
		<path fill="#FEEB17" d="M16.918,20.189l-4.605-0.002C15.33,23,18.118,26.85,18.982,30.98c0.146,0.688,0.163,1.088,0.163,1.088
			v6.529c0,0.051-0.088,0.222-0.13,0.251l-1.051,0.744l7.723,0.001l-1.109-0.74c-0.037-0.023-0.132-0.185-0.137-0.229
			c0,0-0.067-0.748-0.002-6.724c0.062-5.565,4.642-13.391,13.297-14.157c-6.302-1.091-11.524,1.715-14.95,6.711
			c-0.72,1.049-1.067,1.789-1.067,1.789c-0.122,0.26-0.368,0.281-0.532,0.047L16.918,20.189"/>
	</g>
</g>
</svg>
