<?xml version="1.0" standalone="no"?><!DOCTYPE svg PUBLIC "-//W3C//DTD SVG 1.1//EN" "http://www.w3.org/Graphics/SVG/1.1/DTD/svg11.dtd"><svg width="96px" height="72px" version="1.1" xmlns="http://www.w3.org/2000/svg" xmlns:xlink="http://www.w3.org/1999/xlink" xml:space="preserve" style="fill-rule:evenodd;clip-rule:evenodd;stroke-linejoin:round;stroke-miterlimit:1.41421;"><g><g transform="matrix(0.32,0,0,0.32,-2.46519e-32,0.791818)"><g transform="matrix(0.282431,1.60137e-32,1.6165e-32,0.282431,37.0276,50.6506)"><path d="M630.154,9.289l-57.764,235.097l-57.982,-235.097l-169.97,0l0,86.838c-20.385,-75.984 -92.396,-95.046 -159.116,-96.104c-81.276,-1.061 -166.526,34.151 -169.661,141.64l112.478,0c0,-32.442 24.886,-51.007 52.949,-50.567c34.417,-0.266 50.303,14.429 51.097,37.331c-1.189,19.854 -12.931,33.695 -50.832,33.695l-37.831,0l0,78.029l34.351,0c19.466,0 46.634,10.589 47.708,38.381c1.31,33.102 -21.724,47.663 -50.051,47.93c-50.568,-1.855 -58.776,-40.734 -58.776,-74.132l-116.754,0c0.527,22.505 -5.031,169.174 177.912,168.114c87.632,0.797 148.789,-36.007 166.791,-86.837l0,77.839l115.166,0l0,-253.633l62.218,253.632l100.606,0l62.479,-253.368l0,253.63l114.828,0l0,-402.418ZM344.756,243.856c-14.297,-29.653 -34.471,-42.645 -45.856,-46.728c23.831,-10.59 36.326,-24.965 45.856,-53.611Z" style="fill:#fd000d;fill-rule:nonzero;"/></g></g></g></svg>