<?xml version="1.0" standalone="no"?><!DOCTYPE svg PUBLIC "-//W3C//DTD SVG 1.1//EN" "http://www.w3.org/Graphics/SVG/1.1/DTD/svg11.dtd"><svg width="98px" height="72px" version="1.1" xmlns="http://www.w3.org/2000/svg" xmlns:xlink="http://www.w3.org/1999/xlink" xml:space="preserve" style="fill-rule:evenodd;clip-rule:evenodd;stroke-linejoin:round;stroke-miterlimit:1.41421;"><g><g transform="matrix(0.125153,0,3.01729e-33,0.125153,2,8.65869)"><path d="M457.925,40.391c-12.82,-12.504 -27.569,-22.439 -43.757,-29.492c-16.991,-7.373 -34.938,-10.899 -53.854,-10.899c-18.916,0 -36.704,3.526 -53.697,10.898c-16.348,7.053 -31.093,16.988 -43.915,29.492c-12.824,12.824 -22.6,27.567 -29.813,43.917c-6.894,17.15 -10.418,35.102 -10.418,53.693c0,18.914 3.524,36.867 10.418,53.695c7.212,16.67 16.988,31.575 29.813,43.917c12.822,12.823 27.566,22.762 43.915,29.814c16.993,7.372 34.781,10.898 53.697,10.898c18.916,0 36.862,-3.526 53.854,-10.898c16.188,-7.053 30.937,-16.991 43.757,-29.814c12.823,-12.342 22.762,-27.247 29.493,-43.917c7.373,-16.828 10.896,-34.781 10.896,-53.695c0,-18.591 -3.522,-36.542 -10.896,-53.693c-6.731,-16.349 -16.67,-31.093 -29.493,-43.916Z" style="fill:#cfc767;"/><path d="M470.107,91.842c-6.092,-14.267 -14.425,-26.769 -25.647,-37.989c-10.898,-10.899 -23.24,-19.23 -37.665,-25.324c-14.745,-6.412 -30.135,-9.616 -46.48,-9.616c-16.35,0 -31.577,3.204 -46.322,9.616c-14.425,6.094 -26.926,14.425 -37.827,25.324c-11.219,11.221 -19.554,23.722 -25.646,37.989c-5.93,14.745 -9.134,30.132 -9.134,46.158c0,16.352 3.204,31.737 9.134,46.484c6.092,14.263 14.427,26.766 25.646,37.987c10.901,10.896 23.402,19.232 37.827,25.324c14.745,6.412 29.973,9.613 46.322,9.613c16.346,0 31.735,-3.201 46.48,-9.613c14.425,-6.092 26.767,-14.427 37.665,-25.324c11.223,-11.221 19.556,-23.725 25.647,-37.987c6.088,-14.747 9.294,-30.132 9.294,-46.484c0,-16.025 -3.206,-31.413 -9.294,-46.158Z" style="fill:#fe000c;"/><path d="M437.088,66.036l-5.452,-7.052l-1.28,-3.206l-0.641,-1.925l-5.768,-0.96c-3.372,0.96 -8.179,5.449 -13.946,13.784c-8.013,11.541 -14.745,19.874 -20.837,25.166c-4.166,3.526 -8.978,5.77 -13.784,6.412c-1.285,0 -2.241,-0.322 -3.206,-0.964c-1.601,-0.96 -2.562,-3.844 -2.562,-8.335l8.649,-9.776l2.245,-8.013c0,-1.603 -1.601,-2.246 -4.482,-1.925l-7.055,1.283l-4.809,1.603l-1.603,-1.921l-3.849,-3.528c-2.884,-2.243 -5.127,-1.925 -6.089,1.281l-0.641,6.412c-9.298,4.489 -13.787,8.015 -13.787,10.578c0,1.925 0.963,3.526 2.566,4.329l9.618,3.206l-0.64,5.129l-3.847,0.32c-5.451,-0.642 -10.262,-2.563 -13.946,-6.089c-5.447,-4.653 -12.502,-12.984 -20.837,-25.166c-4.167,-6.09 -8.976,-10.898 -14.104,-13.784l-2.241,-0.963l-2.888,0.322l-1.603,1.921l0,2.568l-1.923,2.886l-4.809,6.41l-10.579,14.103l-8.976,17.15c-4.167,8.978 -6.732,19.556 -7.692,31.415c-0.963,11.541 -0.322,22.44 1.923,33.018c3.846,16.67 10.9,31.095 21.157,43.437l4.811,5.451l1.601,1.603l1.923,-0.162c0.641,-1.121 0,-2.083 -1.603,-3.687l-3.206,-4.168c-3.847,-5.449 -7.053,-11.379 -9.616,-17.628c-6.092,-15.548 -6.734,-24.203 -2.565,-25.806c2.888,-1.283 6.412,1.603 10.579,8.333l2.888,5.129c0.958,2.886 2.241,3.848 3.204,3.206c0.961,-0.32 0.961,-1.281 0.641,-2.244l-1.923,-2.886l-2.565,-6.412l-3.524,-12.182c-1.925,-10.256 -0.963,-16.346 2.563,-18.591c3.526,-2.244 8.015,-0.32 13.142,6.09l4.168,6.412l3.206,8.335c0.318,2.244 0.96,3.206 1.923,3.206c1.601,-0.32 1.601,-1.605 0.643,-3.846l-0.643,-6.412l0.643,-6.091c0.958,-2.244 2.243,-3.843 3.844,-4.487c3.526,-0.961 6.732,0.644 9.616,4.809c3.528,4.809 5.129,11.221 4.811,19.234l-2.245,3.206c-4.487,1.923 -6.732,4.167 -6.412,6.73c0.322,3.206 1.283,5.771 3.206,7.373c9.298,-4.487 16.188,-5.129 20.999,-2.243c3.844,2.243 7.69,9.458 11.537,21.317c3.847,11.863 6.414,24.042 7.377,36.865l0.318,4.168l0.32,4.169c-0.32,1.601 0.322,2.241 1.285,2.241c1.281,0 1.923,-0.641 1.601,-2.241l0.643,-8.337c0.96,-13.14 3.526,-25.162 7.054,-36.382c3.526,-11.701 7.372,-18.593 11.219,-21.479c4.487,-3.206 11.535,-2.563 20.837,1.603c2.562,-1.281 3.842,-3.526 4.167,-7.052c0,-2.884 -2.246,-5.127 -6.732,-6.73c-1.285,-0.643 -1.926,-1.925 -2.245,-3.526c0,-8.015 1.604,-14.104 4.811,-18.914c2.882,-4.489 6.088,-6.089 9.614,-5.131c1.604,0.642 2.886,2.245 3.684,4.489l1.127,6.412l-1.127,6.412c-0.798,2.241 -0.479,3.204 0.803,3.526c0.803,0.32 1.601,-0.643 1.925,-2.886l3.526,-8.657l4.009,-6.089c5.127,-6.41 9.298,-8.653 12.819,-6.41c3.526,2.246 4.491,8.655 2.886,18.912l-3.525,12.182l-2.882,6.091l-1.605,2.886c-0.324,1.283 -0.324,1.925 0.32,2.243c0.961,0.64 2.241,-0.318 3.206,-2.886l3.206,-5.129c4.162,-7.05 7.692,-9.936 10.578,-8.655c4.167,1.925 3.202,10.581 -2.886,25.806c-2.241,6.572 -5.447,12.501 -9.298,17.951l-3.521,4.168c-1.605,1.283 -1.93,2.246 -1.285,3.204l1.601,0.482l1.605,-1.601l4.807,-5.611c10.579,-12.501 17.631,-26.767 21.157,-43.117c2.245,-10.578 3.206,-21.477 2.245,-33.018c-0.965,-11.859 -3.846,-22.438 -8.017,-31.415l-8.974,-17.15Z" style="fill:#000;"/><path d="M434.202,69.24l-6.412,-8.333l-0.961,-2.246l-0.32,-1.281c-0.32,-0.962 -1.28,-0.962 -2.245,0l-4.004,3.847c-4.808,5.129 -9.298,13.142 -12.824,23.72l-4.487,12.984l-3.846,6.41c-1.285,1.605 -2.886,2.565 -5.131,2.886l-9.294,-1.923l-10.259,-3.526c-3.206,-0.641 -4.17,-0.641 -2.569,0.32c8.981,5.449 11.223,16.027 6.736,31.735l-5.131,15.708l-6.088,14.427c-4.489,11.539 -6.732,23.24 -7.053,35.742l0,0c0,-6.089 -0.962,-13.142 -2.563,-20.995c-2.248,-10.262 -5.131,-16.67 -8.337,-19.556c-2.886,-2.245 -6.41,-2.886 -9.936,-1.923c-3.526,0.96 -6.252,3.204 -7.855,7.05c0.962,-8.013 2.085,-12.822 4.329,-14.103l5.127,0l8.658,3.846l-3.847,-9.938l-3.85,-11.219c-1.601,-8.335 -1.601,-15.387 0.642,-21.157c1.283,-2.886 3.524,-5.449 6.41,-7.052l5.131,-1.923l1.603,-1.283l-0.642,-4.489l-0.961,-1.601l-0.32,4.487l-1.605,0.96l-2.562,0.322c-4.809,0.32 -9.298,1.923 -13.466,4.167c-3.044,1.923 -6.25,2.564 -9.136,2.244c-2.243,-0.32 -4.165,-1.601 -5.449,-3.206l-3.524,-6.088l-3.848,-12.343c-3.526,-10.579 -8.335,-18.912 -13.785,-24.683l-3.846,-3.847l-2.563,0l0,1.281l-1.283,2.246l-5.77,7.373l-9.298,14.104c-6.73,12.984 -9.936,25.806 -10.256,38.308c-0.322,14.425 1.603,25.323 6.092,33.338l0.318,-0.322c-2.884,-9.616 -3.847,-20.194 -2.884,-32.056c0.64,-8.333 2.565,-16.988 6.09,-26.284l9.616,-19.716c-1.603,7.692 -1.603,16.83 -0.641,28.049c1.603,13.785 4.809,25.003 10.258,33.661l0.32,0c-3.526,-10.258 -5.77,-22.122 -6.412,-35.263c-0.32,-11.221 0.322,-20.675 2.244,-28.69l2.563,-7.692l2.565,-2.246l3.206,3.206l3.206,6.412c2.886,6.732 4.491,14.101 5.449,21.315l3.849,18.916c1.601,5.77 4.167,9.298 7.052,10.579c2.886,1.283 5.77,0.64 9.293,-1.603c3.21,-2.246 5.292,-5.129 6.572,-8.657c-0.958,4.809 -1.603,8.657 -1.281,12.183c0.322,3.526 1.603,7.693 3.526,12.18l5.77,10.583l-5.77,-2.888l-2.888,-0.641c-2.401,-0.32 -4.325,1.283 -5.287,4.809c-1.603,4.167 -2.244,9.616 -2.244,16.348c-0.32,1.283 -0.962,2.241 -1.923,2.565c-5.129,0.96 -7.373,2.884 -6.412,5.768l11.861,-2.884c-0.32,-2.566 0.962,-5.129 3.044,-7.693c2.565,-2.886 5.451,-3.528 8.978,-2.246c4.487,1.923 8.335,8.015 11.217,18.594c2.567,8.495 4.168,18.431 4.811,29.652l0.642,16.991l0.958,-16.991c0.322,-11.221 1.925,-21.157 4.489,-29.652c2.888,-10.579 6.732,-16.67 11.223,-18.594c3.522,-1.283 6.408,-0.64 9.294,2.246c2.241,2.563 3.206,5.127 2.886,7.693l11.863,2.563c1.277,-2.244 -0.645,-4.167 -6.096,-5.447c-1.28,-0.324 -1.921,-1.283 -1.921,-2.565l-2.245,-16.348c-1.281,-3.526 -3.206,-5.129 -5.447,-4.809l-3.526,1.283l-4.167,1.923l3.847,-7.695c2.882,-6.09 4.486,-12.5 4.486,-18.591l-1.28,-8.655c1.921,4.487 3.842,7.373 5.447,8.976c1.601,1.603 3.206,2.243 5.131,2.563c1.921,0.322 3.847,-0.32 5.447,-1.923c2.565,-2.243 4.807,-6.089 6.732,-11.541l3.847,-16.99c1.604,-8.493 3.205,-15.866 5.289,-21.315l3.688,-6.412l2.724,-3.206l2.565,2.246l2.886,7.692c1.601,8.015 2.241,17.469 1.921,28.69c-0.32,13.142 -2.565,25.005 -6.408,35.263l0.316,0c5.451,-8.657 8.657,-19.876 10.263,-33.661c0.956,-11.219 0.956,-20.356 -0.645,-28.049l9.617,19.716c3.522,9.296 5.452,17.951 6.408,26.284c0.965,11.861 -0.32,22.44 -3.202,32.056l0.316,0.322c4.491,-7.693 6.736,-18.914 6.412,-33.338c-0.316,-11.861 -3.847,-24.363 -10.254,-37.347Z" style="fill:#cfc767;"/><path d="M357.751,79.178l-1.925,2.886c-0.322,0.641 0.32,0.961 1.283,1.281l3.849,0.32c1.601,0 2.241,-0.32 2.562,-0.96l-0.96,-2.565Z" style="fill:#cfc767;"/><path d="M368.01,78.218l0.639,3.206l1.924,-2.246l0.64,-2.245l-1.925,0.322l-1.278,0.963Z" style="fill:#cfc767;"/><path d="M748.517,421.858c-1.605,-1.602 -3.847,-2.566 -6.092,-2.566c-2.566,0 -4.812,0.965 -6.412,2.566c-1.605,1.767 -2.562,3.85 -2.562,6.411c0,2.246 0.956,4.487 2.562,6.088c1.925,1.605 4.166,2.57 6.412,2.57c2.245,0 4.486,-0.965 6.092,-2.57c1.601,-1.601 2.565,-3.842 2.565,-6.088c0,-2.561 -0.965,-4.644 -2.565,-6.411ZM742.425,420.573c1.921,0 3.521,0.645 5.127,2.249c1.601,1.605 2.245,3.206 2.245,5.447c0,2.246 -0.645,3.851 -2.245,5.132c-1.605,1.601 -3.206,2.241 -5.127,2.241c-2.246,0 -3.847,-0.641 -5.452,-2.241c-1.604,-1.605 -2.245,-3.206 -2.245,-5.132c0,-2.241 0.641,-3.842 2.245,-5.447c1.605,-1.604 3.206,-2.249 5.452,-2.249Z" style="fill:#000;"/><path d="M746.271,426.028l-1.601,-2.245l-2.565,-0.645l-3.526,0l0,9.942l1.921,0l0,-3.847l1.285,0l1.921,0.316l0.965,2.245l0,1.285l1.601,0l0,-2.245l-0.641,-1.602l-1.601,-0.645l1.276,-0.64ZM741.784,424.428l2.245,0.316l0.641,1.604l-0.965,1.281l-1.601,0.32l-1.605,0l0,-3.522l1.285,0Z" style="fill:#000;"/><path d="M313.03,354.383c-0.318,-18.271 -0.318,-29.652 0.322,-35.266l-0.961,-0.32l-4.168,2.728l-7.054,-0.802c-11.539,-4.487 -23.4,-6.092 -35.26,-5.128c-7.373,0.32 -14.429,1.922 -20.999,5.128c-6.73,2.886 -12.822,7.21 -18.434,12.499c-11.377,11.863 -16.826,27.249 -16.508,46.002c0.322,18.271 6.089,32.696 17.953,42.955c11.219,9.941 25.164,14.425 42.154,13.784c11.859,-0.32 22.12,-3.526 30.773,-9.294c6.732,-4.166 11.543,-9.613 14.747,-15.71l2.565,-5.127l-1.605,-0.965c-5.449,8.018 -12.181,14.425 -20.194,18.758c-7.373,3.685 -15.709,5.285 -24.683,4.645c-10.581,-0.319 -19.554,-5.131 -26.606,-13.784c-7.375,-9.293 -11.381,-21.477 -11.701,-36.063c-0.48,-16.026 2.563,-29.17 9.135,-39.749c7.052,-11.219 16.991,-16.986 29.492,-17.148c9.936,-0.482 18.271,2.403 25.644,8.495c7.375,6.408 11.861,14.425 13.464,24.363l1.924,0Z" style="fill:#000;"/><path d="M86.391,342.84c-1.281,-7.692 -5.125,-13.784 -11.859,-18.109c-6.892,-5.289 -16.668,-7.534 -28.369,-7.214l-45.84,0.324l0,2.079l2.884,0.482l3.846,1.284l5.131,3.202c1.603,1.605 2.241,3.206 2.241,5.451l0,89.597c0,3.202 -2.563,6.092 -7.373,8.974l-7.052,1.926l0,1.921l28.692,-0.32l29.972,0.645c11.701,-0.324 20.997,-3.206 28.047,-7.854c7.375,-5.609 11.543,-12.662 11.861,-21.64c0.322,-9.294 -2.884,-17.311 -10.256,-23.398c-6.732,-5.609 -14.427,-8.499 -23.24,-8.819c6.25,-0.961 11.379,-3.526 15.545,-7.688c5.129,-5.454 7.055,-12.186 5.77,-20.843ZM57.702,329.056c4.811,4.166 7.375,9.938 7.375,16.99c0,8.017 -1.925,14.108 -5.77,17.635c-4.811,4.162 -12.504,5.447 -23.723,4.486l0,-43.278c1.921,-0.961 4.167,-1.28 6.732,-1.601c6.09,0 11.221,1.921 15.386,5.768ZM75.494,401.342c0.32,4.811 -0.322,8.657 -1.925,12.184c-3.847,8.653 -11.699,13.46 -24.203,13.784c-9.295,0 -13.782,-3.526 -13.782,-10.898l0,-40.872l9.938,-0.961c11.857,0.961 20.515,5.285 25.804,13.622c2.243,3.527 3.846,8.018 4.168,13.141Z" style="fill:#000;"/><path d="M719.986,319.441l0,-1.601l-48.567,0l0,1.601l7.053,2.245c4.486,2.241 6.731,5.447 6.731,9.618l0,88.632c0,3.688 -2.245,6.412 -6.731,8.974l-7.053,2.246l0,1.601l48.567,0l0,-1.601l-6.731,-2.246l-4.491,-3.202c-1.601,-1.604 -2.562,-3.529 -2.562,-5.771l0,-88.957c0,-3.526 2.241,-6.732 7.053,-9.294c2.565,-0.963 4.807,-1.766 6.731,-2.245Z" style="fill:#000;"/><path d="M487.734,318.318l-15.069,-0.478l-38.463,0.478l0,1.123l6.731,2.245l4.487,3.202c1.601,1.605 2.565,3.206 2.565,5.451l0,89.917c0,2.246 -0.965,3.847 -2.565,5.451l-4.487,2.882l-6.731,2.566l0,1.601l46.805,0l0,-1.601l-6.092,-2.246l-4.167,-2.882c-1.284,-1.601 -2.087,-3.206 -2.087,-5.455l0,-44.072c0,-0.96 0.803,-1.601 1.604,-1.601c3.044,0 6.891,2.886 11.701,8.171l9.614,14.108l8.978,16.026l9.618,13.464c3.688,3.847 7.53,5.768 11.377,6.088c8.341,0.965 16.99,0.965 25.647,0.324l0,-1.925c-4.487,-0.641 -8.337,-2.246 -11.223,-4.487l-6.408,-7.696l-8.657,-13.78l-9.614,-15.386c-6.25,-9.942 -12.985,-15.552 -20.034,-17.152c8.653,-0.32 15.706,-2.882 20.995,-7.693c6.092,-5.131 8.978,-11.543 8.013,-19.231c-0.961,-8.017 -4.807,-14.425 -11.381,-19.397c-6.087,-4.809 -13.139,-7.536 -21.157,-8.015ZM476.195,323.288c6.092,0.32 11.223,2.245 15.386,6.25c4.171,4.008 6.416,9.455 6.732,16.508c0.324,6.412 -0.316,11.219 -2.242,14.745c-1.925,3.206 -5.447,5.451 -10.582,7.052l-8.974,0.965l-7.372,-0.641l0,-43.437Z" style="fill:#000;"/><path d="M649.941,334.827c-11.539,-10.579 -26.928,-16.03 -45.84,-16.986l-30.616,0.478l-24.68,-0.478l0,1.601l6.732,2.245l4.486,3.044c1.602,1.602 2.242,3.364 2.242,5.609l0,89.917l-2.242,5.771l-4.486,2.882l-6.732,1.926l0,1.921l54.656,0.645c20.512,0.32 36.862,-5.451 48.722,-17.951c4.811,-5.451 8.657,-11.543 11.543,-18.596c2.241,-6.412 3.526,-12.981 3.526,-20.034c0.001,-17.311 -5.772,-31.416 -17.311,-41.994ZM605.703,324.73c11.219,2.083 19.876,7.851 26.608,16.509c6.731,8.973 9.938,19.876 10.254,33.016c0.328,13.307 -1.921,24.525 -6.729,33.179c-5.131,9.934 -13.144,16.35 -24.362,18.915l-8.657,0.961l-8.496,-0.324c-3.521,-0.957 -6.087,-1.759 -7.052,-2.882c-2.241,-1.925 -3.522,-5.131 -3.843,-9.938l0,-89.276c6.089,-1.764 13.786,-1.764 22.277,-0.16Z" style="fill:#000;"/><path d="M164.769,316.235l-17.471,0.479l-35.58,101.298c-1.603,4.811 -4.488,8.017 -8.337,10.258l-8.976,2.887l0,1.601l38.47,0l0,-1.601l-7.695,-2.887c-2.245,-1.601 -3.526,-3.525 -3.526,-6.411l2.243,-9.614l9.938,-29.174l32.216,0l9.938,27.889l2.563,9.614c0.322,3.21 -0.64,5.775 -3.206,7.377l-7.37,2.886l0,1.921l50.006,0l0,-1.921l-7.692,-2.246c-3.528,-1.604 -6.252,-4.486 -8.015,-8.973ZM163.809,374.899l-27.409,0l13.785,-39.433Z" style="fill:#000;"/><path d="M378.586,316.714l-17.313,0l-35.74,101.298c-1.603,4.811 -4.168,8.017 -8.335,10.258l-8.653,2.566l0,1.921l37.983,0l0,-1.601l-7.373,-2.887c-2.563,-1.601 -3.844,-3.525 -3.528,-6.411l1.927,-9.614l9.936,-29.174l32.696,0l12.504,37.503c0.32,3.21 -0.965,5.775 -3.206,7.377c-1.601,1.284 -4.166,2.245 -7.372,2.886l0,1.921l49.523,0l0,-1.921l-7.372,-2.246c-3.364,-1.604 -6.092,-4.486 -7.851,-8.973ZM377.941,374.899l-27.565,0l13.785,-39.433Z" style="fill:#000;"/></g></g></svg>