<?xml version="1.0" standalone="no"?><!DOCTYPE svg PUBLIC "-//W3C//DTD SVG 1.1//EN" "http://www.w3.org/Graphics/SVG/1.1/DTD/svg11.dtd"><svg width="98px" height="72px" version="1.1" xmlns="http://www.w3.org/2000/svg" xmlns:xlink="http://www.w3.org/1999/xlink" xml:space="preserve" style="fill-rule:evenodd;clip-rule:evenodd;stroke-linejoin:round;stroke-miterlimit:1.41421;"><g><g transform="matrix(0.563511,0,0,0.563511,-1.11684,19.43)"><path d="M49.764,53.84c2.464,0 92.747,0 95.303,0c11.685,0 25.834,-24.1 25.925,-37.701c0.045,-6.666 -3.742,-11.137 -11.958,-11.137l-91.378,0c-13.51,0 -27.568,26.655 -27.112,38.341c0.253,6.485 4.29,10.497 9.22,10.497Z" style="fill:#000;fill-rule:nonzero;"/><path d="M155.747,6.827c0,0 -82.614,-0.037 -87.452,0c-11.776,0.092 -25.905,24.106 -25.925,36.607c-0.012,6.856 5.203,8.58 7.577,8.58c0,0 85.17,0 94.208,0c13.967,0 25.972,-28.468 25.013,-36.332c-0.004,-0.027 -0.086,-9.037 -9.951,-8.854l-3.47,0Z" style="fill:#fdb913;fill-rule:nonzero;"/><path d="M91.573,37.956c-4.534,6.796 -10.178,5.888 -12.872,5.934c-2.647,0.045 -28.025,0 -28.025,0l15.063,-29.851c0,0 23.826,0 26.017,0c2.191,0 7.663,2.064 7.303,6.025c0,0 -0.091,7.119 -10.863,8.945c0.365,0.275 7.2,3.219 3.377,8.947ZM72.494,38.983c3.834,0 6.755,-3.354 6.801,-5.865c0.046,-2.511 -1.597,-2.792 -3.012,-2.792c-1.004,0 -7.205,0 -7.205,0l-6.216,8.666ZM81.395,25.313c2.921,0 5.066,-2.237 5.431,-3.972c0.365,-1.735 -2.282,-2.441 -3.286,-2.441c-1.004,0 -6.267,0 -6.267,0l-4.607,6.424Z" style="fill:#000;fill-rule:nonzero;"/><path d="M107.092,43.89l-13.876,0l13.328,-22l8.307,0l-7.759,22Z" style="fill:#000;fill-rule:nonzero;"/><path d="M115.018,13.484c-2.025,-0.331 -4.58,0.715 -5.594,2.447c-1.012,1.732 0.173,3.907 2.199,4.238c2.025,0.33 4.717,-0.578 5.73,-2.312c1.014,-1.731 -0.309,-4.043 -2.335,-4.373Z" style="fill:#000;fill-rule:nonzero;"/><path d="M148.9,33.483c-2.099,3.013 -7.211,5.934 -11.593,5.934c-4.382,0 -6.116,-1.278 -6.572,-5.478c-0.457,-4.199 5.751,-15.154 12.963,-15.154c7.211,0 3.194,8.398 3.194,8.398l5.842,0l12.416,-12.962l-12.416,0l-1.552,2.647c0,0 -2.556,-3.561 -9.311,-3.561c-6.755,0 -22.472,3.168 -23.826,19.079c-0.365,4.29 2.556,12.323 15.153,12.323c12.597,0 18.349,-6.572 19.444,-8.033Z" style="fill:#000;fill-rule:nonzero;"/><path d="M172.038,8.837c-1.151,0 -2.079,-0.929 -2.079,-2.079c-0.006,-1.145 0.928,-2.079 2.079,-2.079c1.144,0 2.079,0.935 2.079,2.079c-0.001,1.15 -0.935,2.072 -2.079,2.079ZM172.031,4.92c-1.013,0 -1.837,0.825 -1.832,1.844c0,1.012 0.819,1.838 1.838,1.832c1.012,0 1.837,-0.82 1.837,-1.838c0.001,-1.013 -0.825,-1.838 -1.843,-1.838ZM171.26,5.553l1.024,0c0.356,0 0.699,0.066 0.729,0.585c0.013,0.295 -0.078,0.403 -0.301,0.571c0.235,0.151 0.241,0.188 0.278,0.585c0.023,0.301 -0.018,0.35 0.108,0.548l-0.35,0l-0.048,-0.288c-0.048,-0.271 0.085,-0.693 -0.391,-0.693l-0.753,0l0,0.981l-0.295,0l0,-2.289ZM171.555,5.812l0,0.789l0.735,0c0.199,0 0.391,-0.054 0.421,-0.349c0.042,-0.392 -0.241,-0.44 -0.421,-0.44Z" style="fill:#000;fill-rule:nonzero;"/><path d="M23.559,4.638c-4.681,0 -8.412,3.861 -8.412,8.624c0,4.176 3.731,8.363 8.412,8.363c4.425,0 8.284,-3.992 8.284,-8.363c0,-4.763 -3.602,-8.624 -8.284,-8.624Z" style="fill:#000;fill-rule:nonzero;"/><path d="M21.379,14.218c1.204,0 2.992,-1.428 2.992,-3.043c0,-1.681 -1.339,-3.044 -2.992,-3.044c-1.652,0 -2.992,1.363 -2.992,3.044c0,1.681 1.341,3.043 2.992,3.043Z" style="fill:#fff;fill-rule:nonzero;"/><path d="M24.881,23.525c0.319,-0.003 0.545,-0.301 0.545,-0.301l-0.336,0.863c0,0 0.013,-0.104 -0.135,-0.144c-0.142,-0.037 -0.205,0.028 -0.378,-0.003c-0.187,-0.033 -0.577,-0.256 -0.737,-0.316c-0.095,-0.036 -0.152,0.023 -0.201,0.154c-0.048,0.13 -0.088,0.302 -0.008,0.693c0.08,0.391 0.296,0.823 0.376,0.872c0.081,0.049 0.161,0.082 0.321,-0.033c0.16,-0.113 0.577,-0.488 0.577,-0.488l-1.763,2.723l-1.395,-2.446l0.216,0.099c0,0 0.187,0.136 0.401,0.065c0.296,-0.098 0.44,-0.588 0.489,-0.816c0.048,-0.228 0.093,-0.427 0.048,-0.636c0.041,0.193 -0.164,-0.434 -0.208,-0.456c-0.032,-0.017 -0.216,0.073 -0.329,0.171c-0.112,0.099 -0.304,0.163 -0.433,0.18c-0.129,0.017 -0.433,-0.114 -0.457,0.073l-0.713,-0.921c0,0 0.609,0.473 0.921,0.465c0.449,-0.012 0.673,-0.376 0.673,-0.376c0,0 0.12,-0.488 0.256,-0.488c0.136,0 1.116,-0.085 1.362,0.098c0.042,0.031 0.032,0.546 0.224,0.693c0.003,-0.001 0.303,0.28 0.684,0.275Z" style="fill:#000;fill-rule:nonzero;"/><path d="M28.031,39.464c0.223,0.122 3.237,2.527 3.237,2.527c0,0 2.003,1.108 2.26,1.19c0.256,0.081 0.497,0.065 0.497,0.065c0,0 0.016,-0.163 -0.032,-0.311c-0.048,-0.146 -1.074,-1.956 -1.234,-2.151c-0.16,-0.196 -3.27,-3.033 -3.27,-3.033c0,0 -0.24,-0.521 0.032,-0.995c0.272,-0.472 0.417,-0.831 0.433,-1.271c0.016,-0.456 0.064,-0.62 0.064,-0.62l0.064,-3.505c0,0 0.016,-2.984 -0.289,-3.57c0,0 -2.131,-3.47 -3.654,-4.859c-0.465,-0.424 -0.657,0.113 -0.657,0.113c0,0 -0.97,2.039 -1.05,2.153c-0.08,0.113 -1.258,0.93 -1.258,0.93l-1.026,-0.881c0,0 -0.561,-1.223 -0.625,-1.386c-0.068,-0.173 -0.57,-0.794 -0.657,-0.896c-0.096,-0.115 -0.336,-0.311 -0.817,-0.213c-0.48,0.098 -2.484,0.636 -2.836,0.75c-0.352,0.114 -0.609,0.522 -0.705,0.799c-0.096,0.277 -0.417,1.028 -0.417,1.028c0,0 -11.186,-10.338 -11.282,-10.435c-0.096,-0.099 -0.593,-0.506 -0.689,-0.05c-0.097,0.457 -0.426,2.167 -0.353,2.594c0.128,0.749 0.622,2.1 2.1,4.125c1.571,2.151 4.667,4.987 5.898,5.837c0.449,0.31 0.433,-0.017 0.433,-0.017l0.048,-0.619c0,0 -0.256,-0.343 -0.465,-0.375c-0.208,-0.033 -0.128,0.162 -0.385,-0.033c-0.256,-0.195 -4.619,-4.686 -4.759,-4.924c-0.192,-0.326 -0.192,-0.783 0.192,-0.473c0.385,0.31 6.411,6.571 8.302,7.924c0,0 -0.881,4.582 -0.881,4.729c0,0.147 0.192,0.506 0.561,0.733c0.369,0.229 1.859,1.109 1.923,1.175c0.064,0.065 0.289,0.113 0.289,0.994c0,0.881 -0.064,4.19 -0.064,4.19c0,0 0.096,0.521 0.625,0.587c0.529,0.065 0.785,0.049 0.785,0.75c0,0.701 0,1.223 0,1.223c0,0 0.08,0.375 0.641,0.44c0.561,0.065 0.449,0.604 0.449,0.604l-0.099,6.033c0,0 0,0.391 -0.385,0.619c-0.384,0.228 -1.378,1.076 -1.699,1.63c-0.32,0.555 -0.497,0.944 -0.48,1.109c0.032,0.326 0.641,0.587 1.122,0.424c0.481,-0.163 3.686,-2.054 3.91,-1.989c0.225,0.065 1.186,0.392 1.186,0.392l0.481,0.098c0,0 1.506,0.881 1.731,0.946c0.224,0.064 1.539,0.162 1.506,-0.62c-0.033,-0.807 -0.16,-0.945 -0.32,-1.076c-0.161,-0.13 -1.058,-0.718 -1.25,-0.946c-0.192,-0.228 -0.289,-0.521 -0.289,-0.945c0,-0.424 0.064,-2.087 0.064,-2.087l0.128,-3.506c0,0 0.048,-0.424 0.593,-0.603c0,0 0.449,0.081 0.433,-0.588c-0.006,-0.263 0,-1.206 0.032,-1.402c0.032,-0.195 0.031,-0.424 0.769,-0.424c0.785,0 0.802,-0.31 0.802,-0.651c0,-0.31 0,-1.044 0,-1.044c0,0 -0.08,-0.442 0.337,-0.213Z" style="fill:#000;fill-rule:nonzero;"/><path d="M23.175,27.978c0.32,0 0.865,-0.856 1.089,-1.28c0,0 0.802,-1.369 0.898,-1.558c0.096,-0.188 0.473,-1.19 0.528,-1.247c0.056,-0.057 0.201,-0.277 0.385,-0.098c0.184,0.179 2.532,2.813 3.004,4.133c0.171,0.479 0.336,1.175 0.377,2.585c0.04,1.41 0.144,3.848 0.056,4.386c-0.088,0.538 -0.291,1.905 -1.411,2.421c-0.253,0.117 -0.264,0 -0.353,-0.13c-0.088,-0.131 -0.28,-0.693 -0.28,-1.721c0,-1.028 0.104,-4.533 0.112,-4.679c0.008,-0.147 -0.312,-0.612 -0.521,-0.106c-0.208,0.505 -0.192,4.524 -0.192,4.524c0,0 0.136,4.436 0.12,4.541c-0.016,0.106 -0.024,0.962 -0.649,0.994c-0.499,0.026 -7.668,-0.138 -8.037,-0.122c-0.369,0.017 -0.665,-0.293 -0.665,-0.537c0,-0.108 -0.044,-2.094 0.069,-4.487c0.144,-3.051 0.371,-6.466 0.371,-6.584c0,-0.212 0,-0.954 -0.296,-0.221c-0.296,0.733 -0.97,3.017 -0.97,3.367c0,0.22 -0.088,0.351 0.072,0.457c0.081,0.053 0.505,0.448 0.513,0.814c0.012,0.531 -0.003,0.735 -0.056,0.873c-0.056,0.146 -0.136,0.546 -0.833,0.334c-0.697,-0.212 -1.563,-0.75 -1.579,-1.085c-0.016,-0.333 0.272,-1.687 0.305,-1.948c0.034,-0.276 0.745,-3.416 0.745,-3.416c0,0 0.77,-2.755 0.818,-2.918c0.048,-0.163 0.216,-1.109 1.242,-1.386c1.026,-0.277 1.522,-0.4 1.763,-0.425c0.24,-0.024 0.657,-0.228 0.961,0.335c0.304,0.563 1.108,2.418 1.579,3.179c0.178,0.287 0.514,1.005 0.835,1.005Z" style="fill:#fdb913;fill-rule:nonzero;"/><path d="M20.466,41.412c0.2,0 1.522,-0.073 1.474,0.791c-0.048,0.864 -0.513,1.174 -1.619,1.125c-1.105,-0.049 -1.388,-0.392 -1.41,-0.962c-0.039,-1.011 1.355,-0.954 1.555,-0.954Z" style="fill:#fdb913;fill-rule:nonzero;"/><path d="M24.152,41.388c0.305,0 1.42,-0.024 1.394,1.027c-0.028,1.109 -0.897,0.962 -1.475,0.962c-0.577,0 -1.651,0.114 -1.683,-1.108c-0.023,-0.938 1.46,-0.881 1.764,-0.881Z" style="fill:#fdb913;fill-rule:nonzero;"/><path d="M20.434,43.883c0.288,-0.014 0.705,0 0.881,0c0.176,0 0.497,0.049 0.529,0.604c0.032,0.554 0.032,1.011 0.032,1.011c0,0 -0.048,1.011 -0.064,1.125c-0.016,0.114 -0.016,0.685 -0.721,0.685c-0.705,0 -0.673,0 -0.737,0c-0.064,0 -0.465,-0.098 -0.465,-0.848c0,-0.75 0.032,-1.94 0.064,-2.12c0.032,-0.181 0.112,-0.442 0.481,-0.457Z" style="fill:#fff;fill-rule:nonzero;"/><path d="M23.688,43.85c0.208,0 0.352,-0.006 0.465,0.033c0.43,0.148 0.402,0.228 0.385,1.108c-0.022,1.108 -0.064,1.549 -0.08,1.729c-0.016,0.18 -0.272,0.62 -0.802,0.636c-0.529,0.017 -0.544,0 -0.544,0c0,0 -0.561,0.033 -0.593,-0.506c-0.032,-0.537 0.016,-2.233 0.032,-2.608c0.016,-0.375 0.447,-0.391 1.137,-0.392Z" style="fill:#fff;fill-rule:nonzero;"/><path d="M21.3,47.959c0.208,0 0.513,-0.033 0.513,0.473c0,0.506 0,1.142 0,1.142c0,0 0.016,0.489 -0.449,0.489c-0.465,0 -0.753,0 -0.93,0c-0.177,0 -0.433,-0.147 -0.449,-0.474c-0.016,-0.325 -0.048,-0.456 -0.032,-0.814c0.016,-0.359 0,-0.815 0.448,-0.815c0.45,-0.001 0.899,-0.001 0.899,-0.001Z" style="fill:#fdb913;fill-rule:nonzero;"/><path d="M23.591,47.959c0.128,0 0.657,0.017 0.673,0.473c0.016,0.456 0.007,0.987 0,1.142c-0.016,0.326 -0.272,0.489 -0.673,0.489c-0.401,0 -0.385,0.016 -0.545,0c-0.16,-0.017 -0.657,0.032 -0.657,-0.637c0,-0.343 0,-1.011 0,-1.011c0,0 0.064,-0.473 0.577,-0.456c0.513,0.017 0.625,0 0.625,0Z" style="fill:#fdb913;fill-rule:nonzero;"/><path d="M25.178,52.899c-0.336,-0.081 -0.769,-0.391 -0.993,-0.506c-0.225,-0.114 -1.25,-0.424 -1.427,-0.554c-0.176,-0.131 -0.529,-0.457 -0.304,-0.849c0.224,-0.391 0.433,-0.456 0.785,-0.424c0.353,0.033 0.641,0.065 0.769,0.131c0.128,0.065 0.256,0.228 0.336,0.473c0.081,0.245 0.225,0.343 0.401,0.343c0.176,0 0.321,0.146 0.385,0.229c0.064,0.081 0.289,0.163 0.48,0.195c0.193,0.032 0.641,0.342 0.609,0.619c-0.032,0.277 -0.016,0.311 -0.321,0.358c-0.303,0.051 -0.383,0.066 -0.72,-0.015Z" style="fill:#fdb913;fill-rule:nonzero;"/><path d="M20.129,50.682c0.321,0 0.882,-0.016 1.09,0.017c0.208,0.032 0.464,0.179 0.448,0.538c-0.016,0.358 -0.16,0.44 -0.464,0.571c-0.305,0.13 -0.417,0.146 -0.673,0.211c-0.256,0.065 -0.833,0.538 -0.978,0.751c-0.145,0.211 -0.994,0.668 -1.426,0.733c-0.432,0.065 -0.625,0.179 -0.722,-0.032c-0.096,-0.213 0,-0.539 0.321,-0.914c0.321,-0.375 0.673,-0.488 0.978,-0.57c0.305,-0.081 0.721,-0.408 0.866,-0.652c0.144,-0.246 0.208,-0.653 0.56,-0.653Z" style="fill:#fdb913;fill-rule:nonzero;"/><path d="M20.819,46.116c-0.128,0 -0.353,-0.081 -0.353,-0.555c0,-0.473 0.304,-0.554 0.465,-0.554c0.16,0 0.304,0.195 0.304,0.473c0,0.277 -0.096,0.636 -0.416,0.636Z" style="fill:#000;fill-rule:nonzero;"/><path d="M23.479,46.133c0,0 -0.433,-0.033 -0.433,-0.489c0,-0.456 0.24,-0.652 0.417,-0.652c0.177,0 0.433,0.098 0.433,0.506c0,0.406 -0.177,0.635 -0.417,0.635Z" style="fill:#000;fill-rule:nonzero;"/></g></g></svg>