<?xml version="1.0" standalone="no"?><!DOCTYPE svg PUBLIC "-//W3C//DTD SVG 1.1//EN" "http://www.w3.org/Graphics/SVG/1.1/DTD/svg11.dtd"><svg width="98px" height="72px" version="1.1" xmlns="http://www.w3.org/2000/svg" xmlns:xlink="http://www.w3.org/1999/xlink" xml:space="preserve" style="fill-rule:evenodd;clip-rule:evenodd;stroke-linejoin:round;stroke-miterlimit:1.41421;"><g><g transform="matrix(0.300917,0,0,0.300917,3,14.7674)"><path d="M54.165,41.123c0,-6.916 -3.458,-9.626 -6.729,-9.626l-1.496,0l0,18.131c0,1.122 0.187,1.215 1.496,1.215c3.364,0 6.729,-4.112 6.729,-9.72ZM53.791,16.075c0,-5.888 -2.804,-9.439 -6.262,-9.439c-1.402,0 -1.589,0.374 -1.589,1.402l0,16.73l1.309,0c4.019,0 6.542,-2.992 6.542,-8.693ZM65.474,41.31c0,10.187 -7.103,16.075 -19.721,16.075l-14.019,0l0,-1.589c0,-1.402 0.467,-2.149 1.963,-2.897c1.122,-0.561 1.589,-0.935 1.589,-2.15l0,-19.065c-0.935,-0.094 -4.954,-1.683 -4.954,-5.234c0,-0.841 0.561,-1.402 1.028,-1.402c0.841,0 1.589,1.028 3.084,1.028c0.654,0 0.841,-0.093 0.841,-0.841l0,-16.169c0,-1.776 -0.748,-3.365 -3.926,-3.365c-2.243,0 -4.019,1.028 -4.019,2.71c0,1.402 1.028,2.336 2.056,2.336c1.589,0 1.215,-0.654 2.243,-0.654c0.748,0 0.935,0.935 0.935,1.683c0,1.869 -2.71,4.206 -5.795,4.206c-4.299,0 -7.103,-3.084 -7.103,-6.542c0,-2.897 1.776,-5.701 5.515,-7.477c1.775,-0.748 4.86,-1.215 8.224,-1.215l13.926,0c11.215,0 17.104,5.328 17.104,14.394c0,6.916 -3.458,11.215 -8.879,12.523c5.047,1.588 9.908,5.701 9.908,13.645ZM290.434,8.038c0,3.458 -2.71,7.01 -6.822,7.01c-3.084,0 -5.795,-2.149 -5.795,-5.14c0,-0.748 0.281,-1.496 1.028,-1.496c1.028,0 0.748,0.748 2.337,0.748c1.589,0 2.616,-0.654 2.616,-1.962c0,-1.683 -1.214,-2.523 -2.804,-2.523c-1.588,0 -2.99,1.869 -4.019,3.925l-10.281,20.748l0,21.31c0,1.215 0.468,1.589 1.589,2.149c1.496,0.748 1.963,1.495 1.963,2.897l0,1.589l-17.57,0l0,-1.589c0,-1.402 0.468,-2.149 1.963,-2.897c1.027,-0.561 1.589,-0.935 1.589,-2.149l0,-17.947c-1.589,-0.374 -6.355,-2.617 -6.355,-6.355c0,-0.841 0.468,-1.402 0.935,-1.402c0.841,0 1.215,0.374 1.962,0.374c0.654,0 0.842,-0.187 0.842,-0.748c0,-0.281 -0.188,-0.654 -0.561,-1.402l-8.038,-15.702c-0.467,-0.841 -1.589,-1.869 -2.617,-2.43c-1.494,-0.748 -1.963,-1.495 -1.963,-2.897l0,-1.495l19.16,0l0,1.589c0,1.402 -0.654,2.056 -1.309,2.43c-0.654,0.28 -0.935,0.935 -0.935,1.682c0,0.654 0.187,1.682 0.748,2.804l4.859,10.842l5.234,-10.842c0.561,-1.122 0.747,-2.149 0.747,-2.804c0,-0.748 -0.28,-1.402 -0.935,-1.682c-0.654,-0.374 -1.309,-1.028 -1.309,-2.43l0,-1.589l13.552,0c3.552,0 5.048,0.561 6.449,1.215c2.245,1.215 3.74,3.458 3.74,6.169ZM194.45,41.03c0,-6.917 -3.458,-9.626 -6.729,-9.626l-1.495,0l0,18.131c0,1.122 0.187,1.215 1.495,1.215c3.364,-7.10543e-15 6.729,-4.113 6.729,-9.72ZM194.077,15.982c0,-5.888 -2.804,-9.439 -6.263,-9.439c-1.402,0 -1.589,0.374 -1.589,1.402l0,16.729l1.309,0c4.018,0 6.543,-2.991 6.543,-8.692ZM205.758,41.217c0,10.187 -7.103,16.075 -19.72,16.075l-14.02,0l0,-1.589c0,-1.402 0.467,-2.149 1.963,-2.897c1.028,-0.561 1.589,-0.935 1.589,-2.149l0,-19.067c-0.935,-0.093 -4.953,-1.682 -4.953,-5.233c0,-0.841 0.561,-1.402 1.027,-1.402c0.841,0 1.59,1.028 3.084,1.028c0.654,0 0.842,-0.094 0.842,-0.841l0,-17.572c0,-0.841 -0.093,-1.682 -1.496,-2.336c-1.214,-0.561 -1.775,-1.308 -1.775,-2.523l0,-2.057l15.328,0c11.215,0 17.104,5.327 17.104,14.393c0,6.916 -3.458,11.215 -8.879,12.617c5.047,1.496 9.906,5.608 9.906,13.553ZM229.499,37.572l-3.271,-15.702l-3.365,15.702ZM248.284,57.292l-17.664,0l0,-1.496c0,-1.496 0.654,-2.056 1.309,-2.336c0.935,-0.374 1.121,-1.122 1.121,-1.682c0,-0.561 -0.187,-1.309 -0.374,-2.15l-1.215,-5.327l-10.374,0l-1.309,5.14c-0.187,0.841 -0.374,1.776 -0.374,2.15c0,0.561 0.188,1.309 0.841,1.682c0.748,0.374 1.309,1.028 1.309,2.43l0,1.589l-14.393,0l0,-1.496c0,-1.402 0.467,-2.149 1.963,-2.897c1.121,-0.561 2.43,-1.496 2.616,-2.43l4.673,-17.758c-0.84,-0.374 -3.925,-2.617 -3.925,-5.514c0,-1.495 0.935,-1.962 1.402,-1.962c1.215,0 1.309,1.215 3.177,1.215c0.654,0 0.842,-0.28 1.028,-1.028l4.206,-16.262c0.188,-0.654 0.374,-1.495 0.374,-2.149c0,-1.589 -1.122,-2.43 -1.122,-3.365c0,-1.215 1.122,-1.682 2.149,-2.056l3.833,-1.215c0.561,-0.188 1.309,-0.375 1.776,-0.375c1.028,0 1.589,1.028 1.775,1.963l12.617,48.506c0.281,0.935 1.216,1.682 2.617,2.43c1.495,0.748 1.963,1.495 1.963,2.897l0,1.496ZM164.729,57.292l-17.383,0l0,-1.589c0,-1.402 0.467,-2.149 1.962,-2.897c1.028,-0.561 1.589,-0.935 1.589,-2.149l0,-25.236l-11.402,30.562c-0.28,0.748 -0.654,1.682 -1.122,1.682c-0.468,0 -0.935,-1.028 -1.215,-1.682l-10.935,-30.655l0,25.328c0,1.215 0.561,1.589 1.589,2.149c1.495,0.748 1.963,1.495 1.963,2.897l0,1.589l-15.141,0l0,-1.589c0,-1.402 0.467,-2.149 1.963,-2.897c1.028,-0.561 1.589,-0.935 1.589,-2.149l0,-19.066c-0.935,-0.093 -4.954,-1.682 -4.954,-5.233c0,-0.841 0.561,-1.402 1.028,-1.402c0.841,0 1.589,1.028 3.084,1.028c0.654,0 0.841,-0.094 0.841,-0.841l0,-17.572c0,-0.841 -0.093,-1.682 -1.496,-2.336c-1.215,-0.467 -1.775,-1.308 -1.775,-2.523l0,-2.057l18.505,0l0,1.682c0,1.496 -0.561,2.056 -1.309,2.337c-0.935,0.374 -1.215,1.028 -1.215,1.589c0,0.561 0.374,1.589 0.654,2.336l8.318,25.982l9.066,-25.982c0.28,-0.748 0.654,-1.776 0.654,-2.336c0,-0.561 -0.28,-1.215 -1.215,-1.589c-0.654,-0.281 -1.309,-0.841 -1.309,-2.337l0,-1.682l17.384,0l0,2.056c0,1.215 -0.561,2.056 -1.775,2.617c-1.402,0.561 -1.496,1.402 -1.496,2.243l0,43.086c0,1.215 0.562,1.589 1.589,2.149c1.496,0.748 1.963,1.495 1.963,2.897l0,1.59ZM96.502,33.74l0,-1.776c-0.374,-0.093 -1.122,-0.561 -2.243,-1.215c-1.589,-0.935 -2.804,-2.523 -2.804,-4.299c0,-1.028 0.28,-1.402 1.028,-1.402c0.841,0 1.962,1.028 2.991,1.028c0.654,0 0.935,-0.28 0.935,-2.056c0,-5.047 -1.402,-14.58 -3.832,-17.384c-0.748,-0.841 -1.402,-1.028 -2.336,-1.028c-3.925,0 -6.075,9.439 -6.075,23.458c0,14.206 2.056,23.085 6.262,23.085c5.14,7.10543e-15 6.074,-13.925 6.074,-18.411ZM108.092,29.44c0,16.917 -8.038,28.506 -18.225,28.506c-9.346,0 -16.636,-11.963 -16.636,-24.207l0,-1.496c-0.467,-0.187 -1.402,-0.841 -2.149,-1.215c-1.869,-1.122 -3.178,-2.804 -3.178,-4.58c0,-0.935 0.374,-1.496 1.028,-1.496c0.841,0 1.869,1.028 2.71,1.028c0.841,0 1.121,-0.467 1.308,-2.243c1.683,-15.232 8.599,-23.55 17.104,-23.55c10.842,0 18.038,10.841 18.038,29.253Z" style="fill:#003671;fill-rule:nonzero;"/><path d="M297.861,133.923c0,4.206 -3.458,7.196 -7.57,7.196c-2.523,0 -5.701,-1.682 -5.701,-4.767c0,-0.279 0,-0.467 0.28,-0.467c0.748,0 1.495,0.374 2.243,0.374c1.682,0 2.711,-1.309 2.711,-2.897c0,-2.804 -2.711,-3.458 -4.954,-3.458l-23.646,0l0,-1.589c0,-1.401 0.467,-2.149 1.962,-2.897c1.029,-0.561 1.59,-0.934 1.59,-2.149l0,-19.066c-0.936,-0.093 -4.953,-1.682 -4.953,-5.233c0,-0.842 0.56,-1.402 1.027,-1.402c0.841,0 1.589,1.028 3.084,1.028c0.654,0 0.842,-0.093 0.842,-0.841l0,-17.572c0,-0.841 -0.094,-1.683 -1.496,-2.336c-1.215,-0.561 -1.775,-1.309 -1.775,-2.523l0,-2.056l29.066,0l1.869,14.393c-0.841,0.28 -1.683,0.561 -2.616,0.561c-4.02,0 -2.805,-9.346 -12.805,-9.346c-1.028,0 -1.775,0.467 -1.775,1.589l0,17.475l4.767,0c1.214,0 1.962,-0.841 3.271,-3.364c0.747,-1.495 1.496,-1.963 2.897,-1.963l1.589,0l0,17.01l-1.589,0c-1.401,0 -2.15,-0.467 -2.897,-1.963c-0.561,-1.121 -1.495,-2.896 -2.711,-2.896l-5.326,0l0,19.159l2.336,0c8.132,0 9.347,-10.28 13.271,-10.28c0.935,0 1.963,0.561 2.71,1.027c-0.467,1.683 -3.271,10.468 -3.271,11.402c2.055,0.281 7.57,2.056 7.57,7.851ZM243.934,89.249c0,-5.888 -3.178,-9.533 -7.29,-9.533c-1.589,0 -1.776,0.28 -1.776,1.308l0,18.505l1.496,0c5.326,0 7.57,-4.86 7.57,-10.28ZM258.887,129.904l-18.131,0l0,-1.589c0,-1.309 0.654,-1.869 1.869,-2.243c1.027,-0.28 1.027,-0.561 1.027,-1.121c0,-0.467 -0.187,-1.121 -0.561,-2.149l-6.262,-16.917c-0.561,0 -1.309,0.094 -1.963,0l0,17.384c0,1.216 0.561,1.683 1.589,2.149c1.496,0.748 1.963,1.496 1.963,2.897l0,1.589l-17.478,0l0,-1.589c0,-1.401 0.467,-2.149 1.963,-2.897c1.028,-0.467 1.589,-0.934 1.589,-2.149l0,-19.066c-0.935,-0.093 -4.953,-1.682 -4.953,-5.233c0,-0.842 0.561,-1.402 1.028,-1.402c0.84,0 1.588,1.028 3.084,1.028c0.654,0 0.841,-0.093 0.841,-0.841l0,-17.572c0,-0.841 -0.093,-1.589 -1.495,-2.243c-1.216,-0.561 -1.775,-1.402 -1.775,-2.617l0,-2.056l15.233,0c11.309,0 18.412,5.233 18.412,15.888c0,7.01 -3.738,11.963 -8.318,14.3l8.132,19.906c0.654,1.683 1.215,1.963 2.336,2.431c1.122,0.468 1.869,0.935 1.869,2.336l0,1.776ZM214.213,129.904l-17.478,0l0,-1.589c0,-1.401 0.467,-2.149 1.963,-2.897c1.121,-0.467 1.588,-0.934 1.588,-2.149l0,-19.066c-0.934,-0.093 -4.953,-1.682 -4.953,-5.233c0,-0.842 0.561,-1.402 1.028,-1.402c0.841,0 1.589,1.028 3.084,1.028c0.654,0 0.841,-0.093 0.841,-0.841l0,-17.572c0,-0.841 -0.093,-1.589 -1.495,-2.243c-1.215,-0.561 -1.775,-1.402 -1.775,-2.617l0,-2.056l16.916,0l0,2.056c0,1.215 -0.561,2.056 -1.775,2.617c-1.402,0.654 -1.495,1.402 -1.495,2.243l0,43.085c0,1.216 0.561,1.683 1.589,2.149c1.495,0.748 1.963,1.496 1.963,2.897l0,1.59ZM190.006,128.315l-0.094,1.589l-17.57,0l0,-1.589c0,-1.401 0.467,-2.149 1.963,-2.897c1.027,-0.467 1.589,-0.934 1.589,-2.149l0,-18.412l-9.253,0l0,18.412c0,1.216 0.562,1.683 1.589,2.149c1.495,0.748 1.963,1.496 1.963,2.897l0,1.589l-17.571,0l0,-1.589c0,-1.401 0.468,-2.149 1.963,-2.897c1.028,-0.467 1.589,-0.934 1.589,-2.149l0,-19.066c-0.935,-0.093 -4.953,-1.682 -4.953,-5.233c0,-0.842 0.561,-1.402 1.028,-1.402c0.841,0 1.588,1.028 3.084,1.028c0.654,0 0.841,-0.093 0.841,-0.841l0,-17.572c0,-0.841 -0.093,-1.589 -1.495,-2.243c-1.215,-0.561 -1.775,-1.402 -1.775,-2.617l0,-2.056l17.196,0l0,2.056c0,1.215 -0.747,2.056 -1.963,2.617c-1.401,0.654 -1.495,1.402 -1.495,2.243l0,18.505l9.253,0l0,-18.505c0,-0.841 -0.094,-1.589 -1.495,-2.243c-1.215,-0.561 -1.963,-1.402 -1.963,-2.617l0,-2.056l17.29,0l0,2.056c0,1.215 -0.561,2.056 -1.776,2.617c-1.401,0.654 -1.494,1.402 -1.494,2.243l0,43.085c0,1.216 0.467,1.683 1.589,2.149c1.494,0.749 1.96,1.497 1.96,2.898ZM101.125,89.249c0,-6.729 -3.271,-9.813 -7.29,-9.813c-1.589,0 -1.776,0.28 -1.776,1.308l0,18.413l1.682,0c4.954,-0.001 7.384,-3.646 7.384,-9.908ZM112.06,89.155c0,5.794 -2.523,10.468 -5.888,13.084c-3.178,2.524 -8.038,3.646 -14.113,3.646l0,17.384c0,1.216 0.467,1.683 1.589,2.149c1.496,0.748 1.962,1.496 1.962,2.897l0,1.589l-17.477,0l0,-1.589c0,-1.401 0.467,-2.149 1.963,-2.897c1.028,-0.467 1.588,-0.934 1.588,-2.149l0,-19.066c-0.935,-0.093 -4.953,-1.682 -4.953,-5.233c0,-0.842 0.561,-1.402 1.028,-1.402c0.841,0 1.589,1.028 3.084,1.028c0.654,0 0.841,-0.093 0.841,-0.841l0,-17.572c0,-0.841 -0.093,-1.589 -1.495,-2.243c-1.215,-0.561 -1.776,-1.402 -1.776,-2.617l0,-2.056l14.02,0c11.869,-1.42109e-14 19.627,5.795 19.627,15.888ZM138.042,89.249c0,-6.729 -3.271,-9.813 -7.29,-9.813c-1.495,0 -1.776,0.28 -1.776,1.308l0,18.413l1.683,0c4.953,-0.001 7.383,-3.646 7.383,-9.908ZM148.977,89.155c0,5.794 -2.43,10.468 -5.888,13.084c-3.178,2.524 -8.038,3.646 -14.113,3.646l0,17.384c0,1.216 0.561,1.683 1.589,2.149c1.496,0.748 1.963,1.496 1.963,2.897l0,1.589l-17.478,0l0,-1.589c0,-1.401 0.468,-2.149 1.963,-2.897c1.122,-0.467 1.589,-0.934 1.589,-2.149l0,-19.066c-0.935,-0.093 -4.953,-1.682 -4.953,-5.233c0,-0.842 0.561,-1.402 1.028,-1.402c0.841,0 1.589,1.028 3.084,1.028c0.654,0 0.841,-0.093 0.841,-0.841l0,-17.572c0,-0.841 -0.093,-1.589 -1.496,-2.243c-1.215,-0.561 -1.775,-1.402 -1.775,-2.617l0,-2.056l14.019,0c11.87,-1.42109e-14 19.627,5.795 19.627,15.888ZM57.666,110.277l-3.271,-15.795l-3.364,15.795ZM76.451,129.998l-17.664,0l0,-1.496c0,-1.495 0.654,-2.056 1.308,-2.336c0.935,-0.374 1.122,-1.122 1.122,-1.682c0,-0.562 -0.187,-1.403 -0.374,-2.15l-1.215,-5.327l-10.374,0l-1.309,5.141c-0.187,0.747 -0.374,1.775 -0.374,2.149c0,0.561 0.187,1.309 0.841,1.682c0.748,0.281 1.309,1.028 1.309,2.431l0,1.589l-14.393,0l0,-1.496c0,-1.401 0.467,-2.149 1.963,-2.896c1.121,-0.562 2.43,-1.495 2.617,-2.43l4.673,-17.852c-0.841,-0.28 -3.925,-2.523 -3.925,-5.421c0,-1.496 0.935,-2.056 1.402,-2.056c1.215,0 1.309,1.309 3.178,1.309c0.654,0 0.841,-0.375 1.028,-1.029l4.206,-16.355c0.187,-0.654 0.374,-1.402 0.374,-2.056c0,-1.683 -1.122,-2.523 -1.122,-3.365c0,-1.215 1.122,-1.682 2.149,-2.056l3.832,-1.215c0.561,-0.187 1.215,-0.374 1.776,-0.374c0.935,0 1.589,1.028 1.776,1.963l12.617,48.507c0.28,0.935 1.215,1.682 2.617,2.43c1.496,0.747 1.963,1.495 1.963,2.896l0,1.495ZM34.767,115.791c0,8.599 -5.981,15.422 -14.86,15.422c-1.775,0 -3.551,-0.28 -5.327,-0.842c-1.028,-0.279 -2.43,-0.84 -3.458,-0.84c-2.149,0 -4.206,1.308 -4.206,3.645c0,2.056 1.682,3.271 3.645,3.271c0.841,0 1.495,-0.562 1.869,-0.562c0.28,0 0.28,0.28 0.28,0.467c0,2.805 -3.178,4.58 -5.701,4.58c-4.393,0 -7.009,-3.084 -7.009,-6.916c0,-4.485 3.551,-6.636 7.196,-7.664l0,-14.019l1.122,0c6.636,0 2.617,12.897 11.028,12.897c3.552,0 5.608,-2.897 5.608,-6.355c0,-2.431 -1.496,-5.607 -2.991,-7.57c-1.683,-2.149 -4.486,-5.701 -5.608,-6.916c-3.832,0 -8.505,-1.683 -8.505,-5.141c0,-0.842 0.374,-1.401 0.841,-1.401c0.281,-0.094 0.748,0.187 1.309,0.187c0.654,0 1.215,0.093 1.215,-0.28c0,-0.281 0.093,-0.654 -0.281,-1.122c-1.028,-1.401 -3.832,-4.485 -3.832,-10c0,-7.196 4.58,-13.739 12.243,-13.739c1.215,0 3.084,0.28 3.832,0.561c1.869,0.561 2.523,0.748 3.365,0.748c0.841,0 1.495,-0.187 2.523,-1.122c0.374,-0.374 1.028,-0.561 1.776,-0.561l1.87,0l0,17.383l-1.402,0c-0.841,0 -1.775,0.094 -2.43,-0.653c-2.15,-2.337 -0.561,-10.749 -7.477,-10.749c-3.084,0 -4.767,2.243 -4.767,5.141c0.001,8.038 18.132,19.533 18.132,32.15Z" style="fill:#003671;fill-rule:nonzero;"/><path d="M301.252,125.973l0,-0.408l-3.072,0l0,0.408l1.296,0l0,3.924l0.48,0l0,-3.924Z" style="fill:#003671;fill-rule:nonzero;"/><path d="M305.302,129.896l0,-3.96l-0.018,0l-1.212,3.96l-0.372,0l-1.219,-3.96l-0.018,0l0,3.96l-0.432,0l0,-4.332l0.743,0l1.104,3.504l0.012,0l1.086,-3.504l0.756,0l0,4.332Z" style="fill:#003671;fill-rule:nonzero;"/></g></g></svg>