<?xml version="1.0" standalone="no"?><!DOCTYPE svg PUBLIC "-//W3C//DTD SVG 1.1//EN" "http://www.w3.org/Graphics/SVG/1.1/DTD/svg11.dtd"><svg width="98px" height="72px" version="1.1" xmlns="http://www.w3.org/2000/svg" xmlns:xlink="http://www.w3.org/1999/xlink" xml:space="preserve" style="fill-rule:evenodd;clip-rule:evenodd;stroke-linejoin:round;stroke-miterlimit:1.41421;"><g><g transform="matrix(0.106116,-1.18229e-32,-5.91143e-33,0.106116,89.8038,31.8016)"><path d="M-755.774,173.479c-12.0486,0 -25.6101,0 -25.6101,0l0,-78.8631c0,0 13.153,0 25.6101,0c17.5497,0 25.6771,13.0848 25.6771,36.5018c0,32.1551 -9.75185,42.3613 -25.6771,42.3613M-781.384,-19.8022c0,0 12.9351,0 24.9837,0c12.897,0 23.3356,9.49052 23.3356,35.6364c0,26.423 -12.0631,35.5629 -23.3356,35.5629c-12.457,0 -24.9837,0 -24.9837,0ZM-713.04,70.0275l0,-0.216679c10.1537,-7.12676 26.3849,-19.3842 26.3849,-58.7777c0,-50.8985 -26.5569,-73.9504 -62.4323,-73.9504c-12.1524,0 -78.3484,0 -78.3484,0l0,279.488c0,0 43.6653,0 77.9386,0c44.1722,0 65.6825,-32.7447 65.6825,-81.5316c0,-45.5156 -17.8556,-58.0843 -29.2253,-65.0115Z" style="fill:#000;fill-rule:nonzero;"/><path d="M-599.121,-19.8022c0,0 12.9272,0 24.9837,0c12.897,0 23.2989,9.49052 23.2989,35.6364c0,26.423 -12.0263,35.5629 -23.2989,35.5629c-12.4584,0 -24.9837,0 -24.9837,0M-505.25,123.035c0,-34.8301 -10.8103,-44.6135 -25.5274,-53.0075l0,-0.216679c10.155,-7.12676 26.2444,-19.3842 26.2444,-58.7777c0,-50.8985 -26.4151,-73.9504 -62.2905,-73.9504c-12.1603,0 -78.3497,0 -78.3497,0l0,279.488l46.0212,0l0.0302,-121.955c0,0 12.5253,0 24.9758,0c13.0992,0 22.4623,10.8838 22.4623,35.5852l0,86.3707l46.4086,0l0.025,-93.5369Z" style="fill:#000;fill-rule:nonzero;"/><path d="M-415.472,-88.182c0,-21.0165 19.2949,-23.7309 29.9555,-23.7309c10.6619,0 29.882,2.66187 29.882,23.7309l-0.0171,139.579l-59.8519,0M-385.516,-156.05c-19.4656,0 -75.9413,4.41368 -75.9413,60.9261l0,311.732l46.0435,0l0,-121.97l59.7849,0l-0.0158,121.919l46.0816,0l0,-311.681c0.001,-56.6175 -56.5479,-60.9261 -75.9531,-60.9261Z" style="fill:#000;fill-rule:nonzero;"/><path d="M-171.645,-62.9764l0,220.017c0,11.1964 -9.25808,18.6764 -23.0126,18.6764c-13.8162,0 -22.9036,-7.49314 -22.9036,-18.6764l-0.0355,-220.017l-46.0304,0.05909l-0.0105,227.308c0,43.2793 44.494,54.8197 69.0299,54.8197c24.3127,0 68.9997,-11.5995 68.9997,-54.8709l0,-227.316" style="fill:#000;fill-rule:nonzero;"/><path d="M12.3635,216.535l-0.017072,-219.921c0,-11.1964 -9.25152,-18.6751 -22.9994,-18.6751c-13.8162,0 -22.918,7.49971 -22.918,18.6751l-0.01445,219.921l-46.0449,0.0355l0,-227.306c0,-43.2793 44.5018,-54.8197 69.0377,-54.8197c24.3127,0 68.9839,11.5995 68.9839,54.8709l0,227.218" style="fill:#000;fill-rule:nonzero;"/></g></g></svg>