<?xml version="1.0" standalone="no"?><!DOCTYPE svg PUBLIC "-//W3C//DTD SVG 1.1//EN" "http://www.w3.org/Graphics/SVG/1.1/DTD/svg11.dtd"><svg width="98px" height="72px" version="1.1" xmlns="http://www.w3.org/2000/svg" xmlns:xlink="http://www.w3.org/1999/xlink" xml:space="preserve" style="fill-rule:evenodd;clip-rule:evenodd;stroke-linejoin:round;stroke-miterlimit:1.41421;"><g><g transform="matrix(0.580644,-1.13566e-16,-1.44323e-16,0.920568,0.0975439,11.7249)"><rect x="-0.167992" y="0.29884" width="168.778" height="52.1417" style="fill:#008838;"/></g><g transform="matrix(0.511179,0,0,0.511179,0.723452,21.7148)"><g transform="matrix(1,0,0,1,-190.624,-116.661)"><path d="M375.191,163.885l0.352,0c0.411,0 0.743,-0.139 0.743,-0.47c0,-0.293 -0.214,-0.49 -0.685,-0.49c-0.196,0 -0.333,0.02 -0.41,0.04ZM375.172,165.683l-0.743,0l0,-3.207c0.291,-0.041 0.703,-0.097 1.231,-0.097c0.607,0 0.88,0.097 1.097,0.254c0.195,0.136 0.331,0.371 0.331,0.685c0,0.39 -0.293,0.645 -0.664,0.763l0,0.038c0.311,0.097 0.469,0.352 0.568,0.782c0.096,0.49 0.174,0.664 0.232,0.782l-0.781,0c-0.098,-0.118 -0.157,-0.391 -0.254,-0.782c-0.058,-0.331 -0.254,-0.489 -0.665,-0.489l-0.352,0ZM375.66,161.46c-1.388,0 -2.464,1.154 -2.464,2.563c0,1.427 1.076,2.562 2.504,2.562c1.388,0.019 2.445,-1.135 2.445,-2.543c0,-1.428 -1.057,-2.582 -2.465,-2.582ZM375.7,160.814c1.819,0 3.266,1.407 3.266,3.208c0,1.8 -1.447,3.226 -3.286,3.226c-1.839,0 -3.305,-1.426 -3.305,-3.226c0,-1.801 1.466,-3.208 3.305,-3.208Z" style="fill:#fff2a9;fill-rule:nonzero;"/></g><g transform="matrix(1,0,0,1,-190.624,-116.661)"><path d="M215.905,136.051c0.247,0.017 0.489,0.025 0.723,0.025c1.694,0 3.057,-0.442 3.943,-1.28c0.908,-0.859 1.368,-2.154 1.368,-3.849c0,-1.381 -0.42,-3.272 -1.342,-4.16c-0.873,-0.842 -2.54,-1.344 -4.459,-1.344c-0.077,0 -0.155,0.001 -0.233,0.003ZM215.905,143.485l0,20.948c2.449,-0.179 4.508,-1.134 5.992,-2.789c1.654,-1.844 2.541,-4.459 2.564,-7.563c0.026,-3.45 -0.99,-6.388 -2.859,-8.271c-1.464,-1.475 -3.379,-2.257 -5.697,-2.325M213.712,172.011c-0.877,0 -1.778,-0.031 -2.678,-0.093c-7.593,-0.525 -13.78,-2.839 -18.915,-7.076l-0.954,-0.788l0.639,-1.059l2.597,-4.303l0.806,-1.337l1.264,0.918c0.348,0.252 0.694,0.508 1.04,0.764c1.984,1.467 3.878,2.868 6.253,3.743l0,-32.649c0,-0.3 0.001,-0.592 0.002,-0.879c0.008,-2.631 0.015,-4.708 -0.737,-6.187c-0.28,-0.552 -0.519,-0.974 -0.91,-1.499l-1.29,-1.732l2.098,-0.517c3.717,-0.915 7.327,-1.082 11.506,-1.275l0.565,-0.026c0.574,-0.027 1.151,-0.041 1.714,-0.041c7.165,0 12.68,2.143 15.13,5.88c1.81,2.76 2.318,6.288 1.359,9.438c-0.755,2.483 -2.385,4.579 -4.701,6.101c3.403,1.801 6.273,5.268 7.448,9.166c0.768,2.548 0.963,5.231 0.562,7.76c-0.242,1.533 -0.72,2.938 -1.229,4.128l132.457,0l-0.832,1.987l-1.336,3.19l-0.368,0.88l-130.65,0c-0.005,0 -0.426,-0.006 -1.008,-0.006c-1.873,0 -2.631,0.063 -2.906,0.098c-0.115,0.076 -0.324,0.264 -0.467,0.394c-0.207,0.187 -0.44,0.398 -0.697,0.582c-3.999,2.862 -9.597,4.438 -15.762,4.438" style="fill:#fff2a9;"/></g><g transform="matrix(1,0,0,1,-190.624,-116.661)"><path d="M291.37,157.698c-2.986,0 -5.379,-1.163 -6.565,-3.19c-0.506,-0.865 -0.67,-2.383 -0.67,-2.982l0,-13.447l-0.001,-3.176l-1.232,0c-0.976,0 -1.545,0.14 -1.797,0.224l-1.385,0.459l-0.435,-1.393c-0.392,-1.254 -1.106,-4.341 0.736,-5.908c0.506,-0.43 1.254,-0.924 2.557,-0.924l1.556,0l0,-6.169l1.208,-0.193l6.51,-1.038l1.66,-0.265l0,7.683c0.48,0.005 0.992,0.011 1.376,0.015c0.201,0.002 0.407,0.003 0.613,0.003c0.756,0 1.725,-0.016 2.504,-0.143l1.474,-0.239l0.179,1.482c0.382,3.151 -0.93,5.413 -3.6,6.205c-0.345,0.102 -0.983,0.238 -2.546,0.238l0,3.449c0,0 -0.002,9.115 -0.002,9.629c0,0.513 -0.059,1.802 0.488,2.493c0.408,0.516 1.091,0.557 1.619,0.51c0.528,-0.048 2.501,-0.573 2.501,-0.573l-2.508,6.528l-0.683,0.199c-1.191,0.347 -2.387,0.523 -3.557,0.523" style="fill:#fff2a9;"/></g><g transform="matrix(1,0,0,1,-190.624,-116.661)"><path d="M312.334,133.684c-0.137,0 -0.202,0.01 -0.209,0.011c-0.659,0.113 -1.068,0.474 -1.214,0.624c-1.201,1.237 -1.772,3.867 -1.747,8.043c0.037,6.035 1.035,8.931 3.142,9.114c0.066,0.006 0.132,0.009 0.195,0.009c1.364,0 2.097,-1.462 2.412,-2.333c0.796,-2.195 1.113,-5.848 0.788,-9.089c-0.329,-3.277 -1.297,-5.729 -2.467,-6.247c-0.122,-0.054 -0.512,-0.132 -0.9,-0.132M312.553,158.115c-2.296,0 -4.593,-0.559 -6.47,-1.575c-4.311,-2.334 -6.856,-7.353 -6.982,-13.77c-0.107,-5.363 1.73,-9.948 5.171,-12.91c1.823,-1.569 4.026,-2.457 6.735,-2.715c0.535,-0.051 1.067,-0.077 1.58,-0.077c5.124,0 9.182,2.637 11.427,7.424c1.374,2.93 1.927,6.073 1.69,9.607c-0.466,6.966 -4.233,12.181 -9.83,13.608c-1.063,0.271 -2.18,0.408 -3.321,0.408" style="fill:#fff2a9;"/></g><g transform="matrix(1,0,0,1,-190.624,-116.661)"><path d="M263.532,156.975l-0.683,0.199c-1.189,0.347 -2.386,0.523 -3.555,0.523c-2.293,0 -4.24,-0.687 -5.557,-1.927c-1.904,1.167 -4.49,1.928 -6.735,1.928c-1.162,0 -2.228,-0.192 -3.17,-0.57c-1.314,-0.527 -2.722,-1.676 -3.424,-2.792c-0.924,-1.468 -1.392,-3.705 -1.392,-6.65c0,-1.193 0.001,-5.963 0.002,-9.822l0.001,-3.907c0.002,-1.632 -0.21,-2.26 -0.865,-3.778l-0.603,-1.397l1.43,-0.519c0.935,-0.339 2.773,-0.909 4.575,-0.909c3.117,0 4.22,1.703 4.601,2.718c0.241,0.643 0.24,1.401 0.24,2.133l0,7.643c0,0.708 0.001,1.427 0.002,2.145c0.002,1.429 0.003,2.847 -0.002,4.134c0,1.955 0,2.796 0.181,3.305c0.378,0.773 1.229,1.251 2.231,1.251c0.408,0 0.83,-0.081 1.248,-0.236l0,-16.489c0,-1.633 -0.211,-2.261 -0.866,-3.779l-0.603,-1.397l1.43,-0.519c0.935,-0.339 2.773,-0.909 4.575,-0.909c3.117,0 4.22,1.703 4.601,2.718c0.241,0.643 0.24,1.401 0.24,2.133l0,0.107l-0.01,15.705c0,0.514 -0.059,1.802 0.488,2.494c0.409,0.516 1.092,0.557 1.62,0.509c0.528,-0.047 2.501,-0.572 2.501,-0.572Z" style="fill:#fff2a9;"/></g><g transform="matrix(1,0,0,1,-190.624,-116.661)"><path d="M369.337,156.975l-0.683,0.199c-1.19,0.348 -2.387,0.524 -3.557,0.524c-2.986,0 -5.379,-1.163 -6.565,-3.191c-0.506,-0.864 -0.67,-2.382 -0.67,-2.982l0,-17.567c0,-1.632 -0.212,-2.26 -0.867,-3.779l-0.602,-1.397l1.43,-0.519c0.786,-0.285 2.21,-0.732 3.714,-0.867c0.07,-0.007 0.405,-0.032 0.736,-0.037c0.31,-0.005 0.617,0.011 0.694,0.015c2.684,0.193 3.675,1.747 4.032,2.698c0.241,0.643 0.241,1.4 0.24,2.133l-0.01,15.812c0,0.514 -0.059,1.803 0.488,2.494c0.409,0.516 1.091,0.557 1.62,0.509c0.528,-0.047 2.501,-0.572 2.501,-0.572Z" style="fill:#fff2a9;"/></g><g transform="matrix(1,0,0,1,-190.624,-116.661)"><path d="M353.865,156.975l-0.683,0.199c-1.19,0.348 -2.387,0.524 -3.557,0.524c-2.985,0 -5.378,-1.163 -6.565,-3.191c-0.506,-0.864 -0.669,-2.382 -0.669,-2.982l0,-3.962l-0.056,-8.656c-0.001,-2.576 -0.373,-3.697 -0.747,-4.097c-0.442,-0.472 -0.908,-0.489 -1.311,-0.489c-1.214,0 -2.322,0.9 -2.469,2.007c-0.054,0.403 -0.06,1.091 -0.062,1.317l0,19.883l-9.377,0l0,-23.57c0,-1.633 -0.211,-2.261 -0.866,-3.779l-0.603,-1.397l1.43,-0.519c0.935,-0.339 2.773,-0.909 4.576,-0.909c2.399,0 3.605,1.01 4.207,1.937c1.064,-0.756 2.835,-1.711 5.119,-1.853c0.296,-0.019 0.597,-0.028 0.892,-0.028c3.068,0 5.57,0.971 6.864,2.665c1.571,2.055 1.783,5.456 1.779,8.825l-0.01,9.117c0,0.514 -0.059,1.802 0.488,2.494c0.409,0.516 1.091,0.557 1.62,0.509c0.528,-0.047 2.501,-0.572 2.501,-0.572Z" style="fill:#fff2a9;"/></g><g transform="matrix(1,0,0,1,-190.624,-116.661)"><path d="M271.964,127.436c-2.821,0 -5.117,-2.296 -5.117,-5.117c0,-2.821 2.296,-5.117 5.117,-5.117c2.821,0 5.116,2.296 5.116,5.117c0,2.821 -2.295,5.117 -5.116,5.117" style="fill:#fff2a9;"/></g><g transform="matrix(1,0,0,1,-190.624,-116.661)"><path d="M279.13,156.975l-0.683,0.199c-1.19,0.348 -2.387,0.524 -3.557,0.524c-2.986,0 -5.379,-1.163 -6.565,-3.191c-0.506,-0.864 -0.67,-2.382 -0.67,-2.982l0,-17.567c0,-1.632 -0.212,-2.26 -0.867,-3.779l-0.602,-1.397l1.43,-0.519c0.786,-0.285 2.21,-0.732 3.714,-0.867c0.07,-0.007 0.405,-0.032 0.736,-0.037c0.31,-0.005 0.617,0.011 0.694,0.015c2.684,0.193 3.675,1.747 4.032,2.698c0.241,0.643 0.241,1.4 0.24,2.133l-0.01,15.812c0,0.514 -0.059,1.803 0.488,2.494c0.409,0.516 1.091,0.557 1.62,0.509c0.528,-0.047 2.501,-0.572 2.501,-0.572Z" style="fill:#fff2a9;"/></g><g transform="matrix(1,0,0,1,-190.624,-116.661)"><path d="M362.172,127.436c-2.821,0 -5.117,-2.296 -5.117,-5.117c0,-2.821 2.296,-5.117 5.117,-5.117c2.821,0 5.116,2.296 5.116,5.117c0,2.821 -2.295,5.117 -5.116,5.117" style="fill:#fff2a9;"/></g><g transform="matrix(1,0,0,1,-190.624,-116.661)"><path d="M214.471,165.886c7.042,0.284 11.371,-4.647 11.424,-11.795c0.052,-7.002 -3.868,-12.493 -11.201,-12.017c-0.154,0.008 -0.223,0.026 -0.223,0.026ZM223.373,130.947c0,-1.736 -0.518,-3.977 -1.781,-5.194c-1.56,-1.503 -4.481,-1.991 -7.121,-1.631l0,13.204c5.384,0.873 8.902,-1.386 8.902,-6.379M225.005,139.552c0,0 0.816,0.289 1.126,0.388c3.855,1.24 7.209,4.938 8.444,9.033c0.667,2.212 0.901,4.711 0.519,7.122c-0.353,2.228 -1.25,4.196 -2.101,5.786l132.59,0l-1.335,3.19l-129.673,0c0,0 -3.254,-0.051 -4.281,0.127c-0.548,0.111 -1.102,0.814 -1.654,1.208c-4.071,2.913 -10.143,4.588 -17.507,4.081c-7.563,-0.523 -13.408,-2.88 -18.101,-6.752l2.596,-4.302c2.865,2.08 5.548,4.344 9.57,5.267l0,-34.57c0,-3.241 0.11,-5.747 -0.89,-7.715c-0.315,-0.619 -0.596,-1.111 -1.039,-1.706c3.744,-0.921 7.403,-1.057 11.796,-1.261c6.641,-0.309 12.969,1.214 15.578,5.192c1.563,2.384 2.034,5.452 1.187,8.235c-0.98,3.22 -3.633,5.489 -6.825,6.677" style="fill:#e4200e;"/></g><g transform="matrix(1,0,0,1,-190.624,-116.661)"><path d="M285.568,133.469l-2.666,0c-1.033,0 -1.776,0.14 -2.249,0.297c-0.435,-1.392 -0.728,-3.517 0.297,-4.388c0.337,-0.286 0.763,-0.583 1.628,-0.583l2.99,0l0,-6.379l6.509,-1.039l0,7.418c0,0 1.815,0.023 2.798,0.033c1.129,0.01 2.353,0.005 3.36,-0.158c0.306,2.526 -0.675,4.091 -2.585,4.657c-0.968,0.287 -3.573,0.142 -3.573,0.142l0,14.095c0,1.715 -0.12,3.807 1.039,4.525c0.689,0.427 1.957,0.405 2.745,0.223l-1.336,3.486c-3.42,0.998 -7.056,0.423 -8.483,-2.015c-0.305,-0.521 -0.473,-1.721 -0.473,-2.257l0,-13.447Z" style="fill:#e4200e;"/></g><g transform="matrix(1,0,0,1,-190.624,-116.661)"><path d="M279.382,152.311l-1.336,3.487c-3.42,0.998 -7.056,0.422 -8.483,-2.015c-0.305,-0.521 -0.473,-1.721 -0.473,-2.258l0,-17.567c0,-1.846 -0.265,-2.68 -0.984,-4.347c2.373,-0.862 6.363,-1.652 7.344,0.964c0.159,0.423 0.149,1.113 0.149,1.737l0,15.251c0,1.716 -0.121,3.808 1.038,4.525c0.69,0.427 1.957,0.406 2.745,0.223" style="fill:#e4200e;"/></g><g transform="matrix(1,0,0,1,-190.624,-116.661)"><path d="M316.262,149.641c-0.614,1.695 -1.9,3.453 -4.08,3.264c-3.934,-0.342 -4.423,-5.915 -4.451,-10.534c-0.023,-3.83 0.404,-7.251 2.151,-9.051c0.386,-0.397 1.058,-0.877 2.003,-1.038c0.49,-0.083 1.424,-0.001 1.929,0.222c3.843,1.701 4.179,12.362 2.448,17.137M322.716,135.101c-1.816,-3.873 -5.336,-7.122 -11.573,-6.528c-2.622,0.249 -4.486,1.127 -5.934,2.374c-2.927,2.519 -4.778,6.577 -4.674,11.795c0.114,5.776 2.327,10.423 6.231,12.537c2.392,1.295 5.71,1.815 8.754,1.039c5.023,-1.282 8.326,-5.931 8.754,-12.315c0.243,-3.628 -0.426,-6.487 -1.558,-8.902" style="fill:#e4200e;"/></g><g transform="matrix(1,0,0,1,-190.624,-116.661)"><path d="M261.039,152.089c-1.159,-0.718 -1.038,-2.81 -1.038,-4.525l0,-15.251c0,-0.625 0.01,-1.314 -0.149,-1.737c-0.981,-2.617 -4.971,-1.826 -7.344,-0.965c0.719,1.668 0.984,2.502 0.984,4.347l0,17.389c-2.606,1.528 -5.32,0.63 -6.237,-1.357c-0.291,-0.755 -0.291,-1.602 -0.291,-3.869c0.008,-1.93 0,-4.157 0,-6.272l0,-4.526c0,-0.452 -0.001,-0.913 -0.001,-1.365l0.001,0l0,-1.645c0,-0.625 0.01,-1.314 -0.149,-1.737c-0.981,-2.617 -4.971,-1.826 -7.344,-0.965c0.719,1.668 0.984,2.502 0.984,4.347l-0.001,0c-0.001,3.382 -0.004,12.058 -0.004,13.728c0,2.019 0.239,4.403 1.173,5.887c0.545,0.866 1.732,1.819 2.744,2.225c3.131,1.257 7.583,-0.244 9.57,-1.928l0.053,-0.047c1.443,2.403 5.057,2.968 8.458,1.975l1.336,-3.486c-0.788,0.182 -2.055,0.204 -2.745,-0.223" style="fill:#e4200e;"/></g><g transform="matrix(1,0,0,1,-190.624,-116.661)"><path d="M275.647,122.319c0,2.034 -1.649,3.683 -3.683,3.683c-2.034,0 -3.682,-1.649 -3.682,-3.683c0,-2.034 1.648,-3.683 3.682,-3.683c2.034,0 3.683,1.649 3.683,3.683" style="fill:#e4200e;"/></g><g transform="matrix(1,0,0,1,-190.624,-116.661)"><path d="M369.589,152.311l-1.336,3.487c-3.42,0.998 -7.056,0.422 -8.483,-2.015c-0.305,-0.521 -0.473,-1.721 -0.473,-2.258l0,-17.567c0,-1.846 -0.265,-2.68 -0.984,-4.347c2.373,-0.862 6.363,-1.652 7.344,0.964c0.159,0.423 0.149,1.113 0.149,1.737l0,15.251c0,1.716 -0.121,3.808 1.038,4.525c0.689,0.427 1.956,0.406 2.745,0.223" style="fill:#e4200e;"/></g><g transform="matrix(1,0,0,1,-190.624,-116.661)"><path d="M351.371,152.089c-1.159,-0.718 -1.038,-2.81 -1.038,-4.525l0,-8.665c0.004,-3.238 -0.21,-6.284 -1.484,-7.952c-1.306,-1.709 -4.088,-2.229 -6.528,-2.077c-1.976,0.122 -3.674,0.994 -4.822,1.928c-0.405,0.329 -0.864,0.71 -1.187,0.965l-0.002,0.002c-0.007,-0.452 -0.034,-0.888 -0.147,-1.189c-0.981,-2.617 -4.971,-1.826 -7.344,-0.965c0.719,1.668 0.984,2.502 0.984,4.347l0,22.137l6.509,0l0,-18.462c0.005,-0.572 0.022,-1.104 0.074,-1.493c0.314,-2.355 3.106,-4.1 5.712,-2.819c1.45,0.712 1.67,3.058 1.671,5.578l0.055,8.665l0,3.962c0,0.536 0.168,1.736 0.473,2.257c1.427,2.438 5.063,3.013 8.483,2.015l1.336,-3.486c-0.788,0.182 -2.055,0.204 -2.745,-0.223" style="fill:#e4200e;"/></g><g transform="matrix(1,0,0,1,-190.624,-116.661)"><path d="M365.854,122.319c0,2.034 -1.649,3.683 -3.683,3.683c-2.034,0 -3.683,-1.649 -3.683,-3.683c0,-2.034 1.649,-3.683 3.683,-3.683c2.034,0 3.683,1.649 3.683,3.683" style="fill:#e4200e;"/></g></g></g></svg>