<?xml version="1.0" standalone="no"?><!DOCTYPE svg PUBLIC "-//W3C//DTD SVG 1.1//EN" "http://www.w3.org/Graphics/SVG/1.1/DTD/svg11.dtd"><svg width="98px" height="72px" version="1.1" xmlns="http://www.w3.org/2000/svg" xmlns:xlink="http://www.w3.org/1999/xlink" xml:space="preserve" style="fill-rule:evenodd;clip-rule:evenodd;stroke-linejoin:round;stroke-miterlimit:1.41421;"><g><g transform="matrix(1.90226,0,-3.08149e-33,1.90226,-2.45699,13.2956)"><path d="M28.757,8.863c0.783,-0.784 0.888,-0.888 1.375,-1.236c0.385,-0.296 0.609,-0.435 1.185,-0.766c-0.034,0.105 -0.052,0.191 -0.052,0.243c0,0.227 0.156,0.384 0.4,0.384c0.14,0 0.365,-0.087 0.539,-0.174c0.506,-0.296 0.836,-0.766 0.836,-1.202c0,-0.296 -0.227,-0.522 -0.522,-0.522c-0.888,0 -2.42,1.167 -4.561,3.465c-1.794,1.915 -3.379,3.394 -3.657,3.394c-0.052,0 -0.07,-0.035 -0.07,-0.087c0,-0.139 0.105,-0.313 0.383,-0.696c0.053,-0.07 0.244,-0.331 0.574,-0.801c0.349,-0.488 0.697,-0.941 1.046,-1.358l1.062,-1.271l-1.376,0l-1.898,2.037c-1.079,1.166 -2.507,2.263 -2.959,2.263c-0.053,0 -0.07,-0.017 -0.07,-0.052c0,-0.087 0.052,-0.174 0.243,-0.383l3.639,-3.865l-1.236,0l-0.331,0.331c0,-0.331 -0.226,-0.522 -0.626,-0.522c-0.662,0 -1.758,0.487 -2.681,1.201c-1.184,0.905 -2.299,2.577 -2.299,3.412c0,0.453 0.243,0.731 0.644,0.731c0.418,0 0.784,-0.14 1.463,-0.522l0,0.122c0,0.227 0.156,0.365 0.435,0.365c0.436,0 1.533,-0.609 2.751,-1.514l0.662,-0.488l-0.331,0.592l-0.261,0.505c-0.052,0.105 -0.07,0.227 -0.07,0.348c0,0.314 0.191,0.523 0.47,0.523c0.471,0 1.811,-0.958 2.908,-2.055l1.288,-1.305ZM18.832,12.728c-0.087,0 -0.122,-0.052 -0.122,-0.157c0,-0.261 0.505,-0.958 1.358,-1.933c1.08,-1.217 2.124,-2.019 2.594,-2.019c0.139,0 0.227,0.052 0.227,0.139c0,0.122 -0.088,0.279 -0.314,0.523l-0.487,0.574c-1.376,1.636 -2.786,2.873 -3.256,2.873M19.354,7.94c0,-0.801 -0.174,-1.427 -0.609,-2.107l0.156,-0.156c2.021,-2.142 3.709,-2.994 6.025,-3.012c-0.505,-0.244 -1.01,-0.348 -1.62,-0.348c-1.705,0 -2.959,0.627 -5.328,2.647c-1.496,-1.271 -3.22,-1.864 -5.536,-1.864c-5.154,0 -10.099,3.326 -10.099,6.807c0,1.584 1.427,2.629 3.552,2.629c1.358,0 2.49,-0.313 4.057,-1.097c1.759,-0.888 2.838,-2.28 2.838,-3.69c0,-1.028 -0.801,-1.637 -2.194,-1.637c-0.94,0 -1.741,0.209 -2.629,0.662c-1.358,0.714 -2.266,1.891 -2.266,2.734c0,0.522 0.381,0.838 1.077,0.838c0.906,0 1.624,-0.491 1.624,-1.135c0,-0.418 -0.313,-0.731 -0.749,-0.731c-0.608,0 -0.956,0.543 -1.045,0.755c-0.162,0.384 -0.122,0.512 -0.109,0.676c-0.19,-0.088 -0.273,-0.213 -0.273,-0.439c0,-0.331 0.244,-0.818 0.557,-1.201c0.941,-1.079 2.351,-1.706 3.848,-1.706c0.992,0 1.532,0.383 1.532,1.062c0,0.557 -0.435,1.183 -1.341,1.967c-1.514,1.271 -3.186,1.897 -5.084,1.897c-1.636,0 -2.664,-0.766 -2.664,-2.019c0,-1.131 1.028,-2.681 2.421,-3.673c1.636,-1.166 4.143,-1.932 6.354,-1.932c2.108,0 4.162,0.766 5.311,1.984l-0.435,0.435l-3.36,3.674c-2.334,2.559 -3.596,3.327 -5.816,3.324l-0.199,0c-0.261,0 -0.401,0.07 -0.401,0.191c0,0.14 0.157,0.209 0.435,0.228c0.018,0 0.305,0.035 0.931,0.104c0.401,0.052 1.167,0.086 1.793,0.086c5.242,1.77636e-15 9.246,-2.576 9.246,-5.953M10.091,13.424c0,0 -0.286,0.008 -0.365,0c0.717,-0.203 1.211,-0.406 1.34,-0.453c1.09,-0.389 2.403,-1.34 3.517,-2.56l2.821,-3.081l0.383,-0.418c0.156,0.383 0.21,0.662 0.209,1.132c-0.004,3.357 -3.758,5.38 -7.905,5.38M30.568,22.354l1.636,0l6.861,-7.36l-1.314,-0.001ZM51.461,1.569c-0.14,0 -0.313,0.07 -0.539,0.191c-0.141,0.087 -0.279,0.192 -0.418,0.296c-0.278,0.226 -0.401,0.348 -2.004,1.985l-2.21,2.245l-0.888,0.906c-0.19,0.209 -0.54,0.557 -1.045,1.062c-0.295,0.313 -0.558,0.556 -0.748,0.766l-1.271,1.305l-1.551,1.567c-0.853,-0.017 -1.062,-0.035 -1.897,-0.069l0.437,-0.454l2.035,-2.21c2.055,-0.941 4.475,-2.942 6.078,-5.031c0.73,-0.94 1.253,-1.932 1.253,-2.333c0,-0.174 -0.106,-0.278 -0.28,-0.278c-0.436,0 -1.408,0.748 -2.576,1.949l-1.724,1.776l-1.356,1.375l-1.637,1.672l-0.767,0.783c-0.627,0.174 -0.783,0.209 -1.41,0.331c0.209,-0.401 0.261,-0.593 0.261,-0.784c0,-0.33 -0.191,-0.54 -0.539,-0.54c-1.062,0 -2.56,0.958 -4.006,2.559c-0.992,1.097 -2.035,1.968 -2.369,1.968c-0.067,0 -0.103,-0.035 -0.103,-0.087c0,-0.087 0.051,-0.157 0.244,-0.349c0.104,-0.104 0.261,-0.295 0.487,-0.539c0.574,-0.627 1.148,-1.254 1.705,-1.846l2.369,-2.541l1.41,-1.533l1.514,-1.635l1.881,-2.02l-1.427,0l-1.271,1.427l-1.427,1.603l-1.324,1.462l-1.079,1.218l-0.784,0.853c0,-0.33 -0.156,-0.469 -0.574,-0.469c-1.201,0 -2.839,1.078 -4.283,2.802c-0.871,1.045 -1.532,1.619 -1.916,1.619c-0.086,0 -0.156,-0.052 -0.156,-0.122c0,-0.087 0.104,-0.209 0.557,-0.679c0.156,-0.174 0.435,-0.471 0.818,-0.888c0.313,-0.331 0.575,-0.627 0.8,-0.87l1.707,-1.794l-1.428,0l-1.148,1.254l-0.767,0.871l-0.957,1.061c-0.385,0.453 -0.645,0.958 -0.645,1.289c0,0.382 0.244,0.608 0.645,0.608c0.539,0 1.045,-0.278 1.95,-1.113c-0.087,0.261 -0.105,0.366 -0.105,0.522c0,0.453 0.244,0.714 0.645,0.714c0.383,0 0.801,-0.175 1.515,-0.609l0,0.156c0,0.312 0.122,0.453 0.401,0.453c0.469,0 0.834,-0.209 2.035,-1.149c-0.052,0.366 -0.052,0.435 -0.052,0.557c0,0.384 0.192,0.574 0.627,0.574c1.132,0 2.718,-1.218 4.318,-3.325c0.505,-0.105 0.627,-0.139 1.167,-0.278l-12.241,12.551l1.776,0l9.212,-9.974l1.915,0l-2.073,2.125l1.293,0l1.964,-2.107l6.215,0.017l0.715,-0.801l-1.603,0.07l-1.793,0.087l-2.315,0.087l-0.731,0.018l1.444,-1.55c0.801,-0.487 1.115,-0.679 1.619,-1.027c1.481,-1.027 3.432,-2.75 4.649,-4.108c1.132,-1.271 2.073,-2.751 2.073,-3.308c7.10543e-15,-0.193 -0.123,-0.314 -0.297,-0.314M43.59,6.721c0.488,-0.539 0.959,-1.044 1.412,-1.531c0.521,-0.593 0.906,-1.01 1.131,-1.254l0.957,-1.01l0.576,-0.574l0.209,-0.174c0.104,-0.088 0.174,-0.122 0.244,-0.122c0.051,0 0.069,0.018 0.069,0.07c0,0.191 -0.192,0.539 -0.628,1.184c-0.626,0.905 -1.131,1.479 -2.055,2.419c-1.098,1.097 -1.637,1.515 -3.36,2.577ZM30.219,12.763c-0.088,0 -0.122,-0.053 -0.122,-0.175c0,-0.469 0.766,-1.55 1.812,-2.559c1.01,-0.974 1.707,-1.48 2.053,-1.48c0.088,0 0.141,0.053 0.141,0.158c0,0.278 -0.486,0.956 -1.43,1.931c-1.34,1.393 -2.176,2.125 -2.454,2.125M38.577,8.81c-0.068,-0.017 -0.104,-0.017 -0.139,-0.017c-0.141,0 -0.331,0.087 -0.471,0.227c-0.191,0.173 -0.313,0.417 -0.313,0.609c0,0.209 0.069,0.331 0.313,0.504c-0.748,0.941 -1.096,1.306 -1.898,1.916c-0.574,0.435 -1.045,0.714 -1.218,0.714c-0.104,0 -0.14,-0.053 -0.14,-0.192c0,-0.279 0.436,-0.993 1.115,-1.793c0.939,-1.132 2.141,-2.124 2.576,-2.124c0.105,0 0.174,0.035 0.174,0.087l0,0.069ZM50.643,3.31c-0.645,0.922 -1.114,1.479 -2.333,2.646c-1.515,1.497 -2.021,1.915 -3.813,3.203l1.793,-1.967l1.586,-1.724l1.113,-1.201c1.48,-1.62 2.107,-2.228 2.281,-2.228c0.018,0 0.035,0.035 0.035,0.051c7.10543e-15,0.192 -0.226,0.61 -0.662,1.22" style="fill:#000;fill-rule:nonzero;"/><path d="M4.755,19.825c-0.199,0.123 -0.453,0.191 -0.707,0.191c-0.705,0 -1.201,-0.537 -1.201,-1.307c0,-0.796 0.548,-1.369 1.309,-1.369c0.229,0 0.417,0.043 0.661,0.146l-0.096,0.3c-0.055,-0.019 -0.099,-0.034 -0.127,-0.042c-0.151,-0.047 -0.288,-0.069 -0.422,-0.069c-0.568,0 -0.948,0.404 -0.948,1.009c0,0.579 0.356,0.987 0.863,0.987c0.103,0 0.209,-0.017 0.311,-0.047c0.117,-0.03 0.182,-0.062 0.334,-0.149l0.126,0.28c-0.045,0.036 -0.079,0.058 -0.103,0.07" style="fill:#000;fill-rule:nonzero;"/><rect x="5.602" y="17.394" width="0.366" height="2.565" style="fill:#000;"/><path d="M7.8,20.02c-0.718,0 -1.223,-0.537 -1.223,-1.307c0,-0.793 0.555,-1.365 1.316,-1.365c0.264,0 0.38,0.023 0.671,0.143l-0.092,0.3c-0.24,-0.092 -0.339,-0.115 -0.545,-0.115c-0.585,0 -0.974,0.407 -0.974,1.019c0,0.592 0.367,1 0.899,1c0.151,0 0.215,-0.016 0.38,-0.073l0,-0.888l0.356,0l0,1.096c-0.346,0.157 -0.485,0.19 -0.788,0.19" style="fill:#000;fill-rule:nonzero;"/><path d="M11.021,19.959l-0.3,-0.847l-0.921,0l-0.3,0.847l-0.355,0l0.941,-2.565l0.381,0l0.945,2.565ZM10.256,17.802l-0.353,1.012l0.713,0Z" style="fill:#000;fill-rule:nonzero;"/><path d="M13.261,19.959l-0.427,-0.93c-0.069,-0.147 -0.161,-0.213 -0.292,-0.213l-0.206,0l0,1.143l-0.362,0l0,-2.564l0.632,0c0.177,0 0.247,0.008 0.357,0.022c0.319,0.05 0.517,0.292 0.517,0.63c0,0.328 -0.213,0.594 -0.521,0.65c0.103,0.031 0.167,0.089 0.224,0.207l0.51,1.055ZM12.988,17.798c-0.08,-0.073 -0.176,-0.097 -0.357,-0.097l-0.295,0l0,0.82l0.278,0c0.312,0 0.493,-0.162 0.493,-0.436c-1.77636e-15,-0.114 -0.045,-0.217 -0.119,-0.287" style="fill:#000;fill-rule:nonzero;"/><path d="M14.354,19.959l0.003,-2.564l1.337,0l0,0.318l-0.977,0l0,0.75l0.925,0l0,0.311l-0.925,0l0,0.851l1.042,0l0,0.334Z" style="fill:#000;fill-rule:nonzero;"/><path d="M17.489,17.713l0,2.246l-0.364,0l0,-2.246l-0.753,0l0,-0.318l1.843,0l0,0.318Z" style="fill:#000;fill-rule:nonzero;"/><path d="M19.827,17.713l0,2.246l-0.364,0l0,-2.246l-0.733,0l0,-0.318l1.822,0l0,0.318Z" style="fill:#000;fill-rule:nonzero;"/><path d="M21.16,19.959l0.003,-2.564l1.336,0l0,0.318l-0.977,0l0,0.75l0.926,0l0,0.311l-0.926,0l0,0.851l1.041,0l0,0.334Z" style="fill:#000;fill-rule:nonzero;"/><path d="M23.793,20.013c-0.226,0 -0.322,-0.015 -0.579,-0.085l0.059,-0.318c0.25,0.049 0.329,0.058 0.497,0.058c0.373,0 0.617,-0.17 0.617,-0.427c0,-0.186 -0.104,-0.285 -0.48,-0.459c-0.25,-0.115 -0.37,-0.191 -0.48,-0.308c-0.099,-0.103 -0.161,-0.268 -0.161,-0.427c0,-0.422 0.349,-0.703 0.884,-0.703c0.209,0 0.267,0.012 0.482,0.077l-0.054,0.3c-0.189,-0.042 -0.236,-0.05 -0.394,-0.05c-0.335,0 -0.548,0.134 -0.548,0.351c0,0.153 0.11,0.254 0.418,0.392c0.244,0.108 0.4,0.227 0.52,0.342c0.096,0.097 0.164,0.285 0.164,0.458c-3.55271e-15,0.48 -0.362,0.799 -0.945,0.799" style="fill:#000;fill-rule:nonzero;"/><path d="M36.425,14.504l-0.45,0.489l9.422,0l0.435,-0.489Z" style="fill:#e42313;fill-rule:nonzero;"/><path d="M35.051,14.504l-31.573,0l-0.458,0.491l31.557,-0.002Z" style="fill:#e42313;fill-rule:nonzero;"/></g></g></svg>