<?xml version="1.0" standalone="no"?><!DOCTYPE svg PUBLIC "-//W3C//DTD SVG 1.1//EN" "http://www.w3.org/Graphics/SVG/1.1/DTD/svg11.dtd"><svg width="98px" height="72px" version="1.1" xmlns="http://www.w3.org/2000/svg" xmlns:xlink="http://www.w3.org/1999/xlink" xml:space="preserve" style="fill-rule:evenodd;clip-rule:evenodd;stroke-linejoin:round;stroke-miterlimit:1.41421;"><g><g transform="matrix(0.476652,0,0,0.476652,1,14.0976)"><path d="M27.622,8.678c-19.362,6.112 -27.622,17.26 -27.622,37.273c0,20.012 8.26,31.16 27.622,37.274c17.732,5.595 43.684,8.676 73.085,8.676c29.39,0 55.344,-3.081 73.077,-8.676c19.361,-6.114 27.621,-17.262 27.621,-37.274c0,-20.014 -8.26,-31.162 -27.621,-37.273c-17.734,-5.597 -43.688,-8.678 -73.077,-8.678c-29.398,0 -55.352,3.081 -73.085,8.678Z" style="fill:#fff;fill-rule:nonzero;"/><path d="M172.417,13.012c-18.358,-5.792 -44.441,-8.467 -71.71,-8.467c-27.273,0 -53.362,2.675 -71.716,8.467c-18.35,5.793 -24.446,15.684 -24.446,32.939c0,17.254 6.096,27.146 24.446,32.94c18.354,5.792 44.443,8.466 71.716,8.466c27.269,0 53.352,-2.674 71.71,-8.466c18.35,-5.795 24.445,-15.687 24.445,-32.94c2.84217e-14,-17.255 -6.095,-27.146 -24.445,-32.939ZM168.366,74.434c-17.316,5.009 -42.909,7.32 -67.658,7.32c-24.757,0 -50.345,-2.312 -67.667,-7.32c-17.315,-5.012 -19.611,-13.563 -19.611,-28.483c0,-14.921 2.296,-23.471 19.611,-28.482c17.322,-5.009 42.91,-7.321 67.667,-7.321c24.749,0 50.342,2.312 67.658,7.321c17.313,5.012 19.605,13.562 19.605,28.482c0.001,14.92 -2.291,23.471 -19.605,28.483Z" style="fill:#95c11f;fill-rule:nonzero;"/><path d="M33.879,20.366c-15.711,4.547 -17.432,11.624 -17.432,25.585c0,13.961 1.721,21.038 17.433,25.584c15.828,4.577 40.185,7.202 66.829,7.202c26.642,0 50.996,-2.625 66.817,-7.202c15.712,-4.545 17.43,-11.621 17.43,-25.584c0,-13.963 -1.718,-21.039 -17.43,-25.586c-15.825,-4.576 -40.179,-7.201 -66.817,-7.201c-26.642,5.32907e-15 -51,2.625 -66.83,7.202Z" style="fill:#164194;fill-rule:nonzero;"/><path d="M64.868,46.068c0,11.62 -6.292,16.398 -21.358,16.398l-12.143,0l0,-28.576c0,-1.872 1.009,-2.811 3.143,-2.811l11.579,0c11.92,0 18.779,5.433 18.779,14.989ZM39.884,53.38c0,1.405 0,3.934 0,3.934c0,0 3.625,0 5.25,0c7.203,0 11.213,-3.745 11.213,-10.306c0,-6.748 -3.598,-10.776 -11.113,-10.776c-4.017,0 -5.35,1.124 -5.35,4.683ZM68.247,56.096l0,-15.181c0,-1.684 1.35,-2.618 2.924,-2.618l1.799,0c1.681,0 3.147,0.84 3.147,2.618l0,10.588c0,4.03 1.121,6.001 4.499,6.001c3.485,0 5.284,-2.253 5.284,-6.753l0,-9.836c0,-1.778 1.126,-2.618 3.484,-2.618l1.238,0c2.138,0 3.145,0.934 3.145,2.901l0,21.176c0,0 -2.728,0 -4.044,0c-3.15,0 -3.15,-0.562 -5.4,-0.562c-3.372,0 -3.146,1.218 -7.642,1.218c-5.51,0 -8.434,-2.623 -8.434,-6.934ZM122.662,58.718c0.675,0.943 1.018,1.689 1.018,2.158c0,1.029 -1.129,1.498 -3.376,1.498c-2.471,0 -4.382,-0.748 -5.508,-2.248l-2.929,-4.03c-1.125,-1.497 -2.241,-2.247 -3.366,-2.247c-1.688,0 -3.488,1.217 -3.488,4.685c0,2.53 -0.562,3.841 -3.708,3.841c-3.038,0 -3.937,-1.03 -3.937,-3.184l0,-29.141c0,0 2.416,0 3.82,0c2.587,0 3.824,0.936 3.824,2.996c0,10.024 -0.112,11.339 2.021,11.339c0.675,0 1.575,-0.096 3.486,-1.875c0,0 0.509,-0.563 1.8,-1.684c1.238,-1.037 2.026,-1.596 2.363,-1.689c0.896,-0.468 2.245,-0.657 4.046,-0.657l0.783,0c1.688,0 2.476,0.47 2.476,1.31c0,0.471 -0.334,1.037 -1.125,1.785l-3.935,3.746c-1.065,0.981 -1.232,2.063 -1.232,2.438c0,0.843 0.226,1.497 0.559,1.965ZM150.771,62.232c0,0 -2.217,0 -3.262,0c-2.358,0 -3.483,-0.844 -4.945,-0.844c-2.588,0 -4.388,1.5 -8.209,1.5c-6.296,0 -9.667,-2.997 -9.667,-7.119c0,-4.219 4.051,-7.451 13.154,-8.436c3.712,-0.421 4.837,-1.591 4.837,-2.621c0,-1.877 -1.8,-3.092 -3.94,-3.092c-4.267,0 -4.117,4.218 -9.066,4.218c-1.65,0 -3.421,-0.386 -3.421,-2.563c0,-2.296 2.938,-5.684 11.925,-5.684c7.874,0 12.595,1.499 12.595,8.244l0,14.055c-0.001,0.853 -0.001,2.342 -0.001,2.342ZM136.946,58.111c2.921,0 5.845,-2.25 5.845,-4.685c0,-1.219 -0.787,-2.25 -2.815,-2.25c-2.358,0 -7.083,1.308 -7.083,3.935c0,1.595 1.579,3 4.053,3ZM152.292,39.931c0,-1.593 2.925,-2.527 3.374,-3.464c0.56,-1.029 0.56,-1.502 0.56,-2.531c0,-0.633 0,-3.372 0,-3.372c0,0 2.829,0 4.383,0c3.941,0 4.274,2.152 4.274,3.467c0,0.934 0.226,1.875 0.789,2.623c0.899,1.126 4.161,1.126 4.161,3.374c0,2.249 -3.483,1.967 -4.5,3.841c-0.562,1.027 -0.45,1.594 -0.45,3.184l0,5.433c0,1.6 0.226,2.067 0.672,2.817c0.899,1.593 4.612,1.593 4.612,4.399c0,0.867 0,2.999 0,2.999c0,0 -2.793,0 -4.495,0c-6.184,0 -9.334,-2.341 -9.334,-6.931l0,-8.436c0,-1.872 -0.226,-3.278 -1.121,-4.216c-0.905,-0.937 -2.925,-1.592 -2.925,-3.187Z" style="fill:#fff;fill-rule:nonzero;"/><path d="M174.367,31.414c0.441,0 0.791,0.079 1.033,0.238c0.242,0.161 0.362,0.431 0.362,0.818c0,0.163 -0.025,0.303 -0.071,0.419c-0.049,0.117 -0.116,0.212 -0.203,0.285c-0.083,0.074 -0.185,0.131 -0.297,0.171c-0.112,0.039 -0.233,0.064 -0.366,0.076l0.95,1.553l-0.737,0l-0.866,-1.521l-0.446,0l0,1.521l-0.704,0l0,-3.56ZM177.513,33.252c0,1.779 -1.442,3.222 -3.221,3.222c-1.779,0 -3.226,-1.443 -3.226,-3.222c0,-1.78 1.446,-3.224 3.226,-3.224c1.778,-3.55271e-15 3.221,1.444 3.221,3.224ZM174.292,30.667c-1.429,0 -2.585,1.157 -2.585,2.585c0,1.426 1.156,2.584 2.585,2.584c1.426,0 2.579,-1.158 2.579,-2.584c0,-1.428 -1.153,-2.585 -2.579,-2.585ZM174.354,32.902c0.209,0 0.371,-0.027 0.505,-0.083c0.129,-0.058 0.195,-0.194 0.195,-0.411c0,-0.095 -0.024,-0.173 -0.066,-0.23c-0.046,-0.057 -0.104,-0.1 -0.18,-0.132c-0.066,-0.031 -0.143,-0.053 -0.233,-0.063c-0.091,-0.012 -0.175,-0.02 -0.254,-0.02l-0.596,0l0,0.939Z" style="fill:#fff;fill-rule:nonzero;"/></g></g></svg>