<?xml version="1.0" standalone="no"?><!DOCTYPE svg PUBLIC "-//W3C//DTD SVG 1.1//EN" "http://www.w3.org/Graphics/SVG/1.1/DTD/svg11.dtd"><svg width="98px" height="72px" version="1.1" xmlns="http://www.w3.org/2000/svg" xmlns:xlink="http://www.w3.org/1999/xlink" xml:space="preserve" style="fill-rule:evenodd;clip-rule:evenodd;stroke-linejoin:round;stroke-miterlimit:1.41421;"><g><g transform="matrix(0.50245,0,0,0.50245,2,10.679)"><path d="M168.027,78.3033c-25.0067,1.32667 -57.3533,10.56 -73.64,21.03l-1.04333,0.666667l-1.23667,-0.01c-54.2333,-0.493333 -92.1067,-21.1633 -92.1067,-50.2667c0,-7.64333 4.00333,-15.3667 12.24,-23.6033c16.0133,-16.0133 47.6867,-25.33 83.0867,-25.33c36.0733,0 64.8433,8.80666 80.6233,24.5933c7.39001,7.38667 11.1333,15.5767 11.1333,24.34c0,9.16 -6.41667,19.7833 -16.75,27.73l-1.02335,0.783333l-1.28333,0.0666676Z" style="fill:#fefefe;"/><path d="M5.55,50.1467c0,12.8433 8,25.05 28.5233,33.05c42.9433,-12.7333 91.4667,-18.9467 139.667,-16.1067c3.26666,-3.99667 6.74001,-8.63 7.26666,-16.5233c0.316666,-24.84 -35.68,-45.3633 -87.4667,-44.2067c-51.6767,1.05333 -87.78,21.2633 -87.99,43.7867Z" style="fill:#ec192e;"/><path d="M41.0233,86.04c6.42,2.52667 13.68,4.41667 21.2567,5.99333c20.95,-10.8367 62.1,-21.2567 108.203,-21.9967c0.313339,0 1.15666,-1.15667 1.15666,-1.15667c-54.8367,-0.629999 -104.517,6.84333 -130.617,17.16Z" style="fill:#348f53;"/><path d="M71.86,93.3c5.79,1.05 12.7367,1.36667 19.5767,1.05c15.7867,-9.78667 41.3633,-18.3133 76.0967,-21.4667c0.106659,0 0.843323,-0.950001 0.843323,-0.950001c-41.5767,1.26333 -77.0433,11.79 -96.5167,21.3667Z" style="fill:#348f53;"/><path d="M146.8,61.7233l6.21001,-3.15667l0,-0.526669c-1.05334,-0.209999 -2.84334,0 -2.53,-2l1.58665,-12.4167c0.309998,-3.47667 1.57668,-4.74 -1.05666,-5.05333c-3.26334,-0.316669 -7.89,3.68 -10,7.15667c-0.313339,0.316666 -0.523346,1.05 -0.843338,1.36666c0,0 -0.210007,-0.209999 -0.210007,-0.103333c0.316666,-2 0.843338,-4.21 1.05334,-7.15667c-0.42334,-0.529999 -1.05334,-0.843334 -1.47334,-0.736668l-8,4.10333l0,0.736668c1.37001,0.209999 2.95,0.209999 2.73666,1.68333l-2.52333,15.8933l5.89334,0c0.419998,-4 1.89333,-9.26333 3.26334,-12.6267c0.313324,-1.05333 3.57666,-6.95 5.05333,-5.37l-1.90001,15.9933c0.210007,1.58334 1.68668,2.74 2.74001,2.21333Z" style="fill:#fefefe;"/><path d="M159.113,62.8833l6.31667,-3.16l0,-0.523331c-1.26334,-0.106667 -1.79001,0.103333 -2.52667,-1.89667l2.21001,-17.05c-0.42334,-0.523331 -1.26668,-0.419998 -1.68668,-0.213333l-7.68333,4.10667l0,0.740002c1.37334,0.103333 2.52667,0.630001 2.32001,1.78667c-0.636673,4.52666 -1.05667,8.73667 -1.47667,13.37c0.316666,1.57667 1.05333,2.41667 2.52667,2.84Z" style="fill:#fefefe;"/><path d="M163.327,31.4133c1.36333,0.419998 2.10333,2.31667 1.47333,4.10333c-0.526672,1.79 -2.21001,2.94667 -3.58,2.42c-1.37,-0.419998 -2.10666,-2.31334 -1.58,-4.10334c0.630005,-1.89666 2.21001,-2.94666 3.68668,-2.42Z" style="fill:#fefefe;"/><path d="M75.86,62.8833l6.21,-3.16l0,-0.419998c-1.05333,-0.103333 -2.52666,-0.420002 -2.52666,-2l4.73334,-30.1033c0.32,-1.37 0.213333,-1.99667 -1.15334,-1.78667l-8.21333,4.31333c-0.0999985,0 0,0.316673 -0.0999985,0.420006c1.46999,0.106667 2.20667,0.84333 2.31333,1.47666l-4.21,27.7833c-0.106667,2.21333 0,2.74 2.94666,3.47667Z" style="fill:#fefefe;"/><path d="M44.9133,60.7767c0.316666,-0.209999 2.53,-13.47 2.53,-14l-11.79,0l0,0.843334c4.10333,0.213333 4.63,1.79 4.00333,4.42c-0.32,5.05667 -1.47667,8.84333 -3.69,9.89333c-2.21,1.05667 -3.47333,0.213337 -5.47,-1.47333c-7.16,-5.78667 -0.843334,-28.94 7.15333,-30.9433c4.63333,-1.15666 6.00333,0.736671 8.53,7.47334c0.736668,0.316666 0.946667,0.316666 1.15667,-0.313332l0,-6.84334c-3.89333,-1.57999 -6.63333,-2.63333 -11.1567,-1.89666c-19.05,4.21333 -19.47,26.8433 -14.5233,33.47c5.89333,6.74 18.3133,2.63334 23.2567,-0.630001Z" style="fill:#fefefe;"/><path d="M59.5467,42.78c1.26333,-0.636665 3.05333,-0.423332 4.21,-0.316666c0.526665,1.68333 -1.26333,8.94333 -4.21,13.26c-0.420002,0.843334 -1.05333,1.47334 -1.58,2.00333c-1.26333,1.15667 -2.42,-1.26667 -2.63,-3.05333c-0.213333,-3.47334 -0.423332,-7.36667 3.68333,-11.4733c0.106667,-0.106667 0.316669,-0.316666 0.526669,-0.419998ZM59.5467,58.46c0.946667,-1.26333 1.79,-2.52333 2.52333,-3.89333c-0.209999,3.05333 -1.36666,7.79333 2.21333,8.21l5.89333,-2.63333l0,-0.84c-0.629997,0.419998 -2.42,-0.736668 -2.31667,-2.42l2.52666,-16.1033c-4.31333,0 -6.31667,-0.420002 -10.6333,0.526665c-0.103333,0.103336 -0.103333,0.103336 -0.206665,0.103336c-9.47334,3.68333 -12.3167,12.42 -8.84333,20.1033c2.21,3.68667 6,0.846668 8.84333,-3.05333Z" style="fill:#fefefe;"/><path d="M95.54,45.7267c0.843338,-0.946667 1.68667,-1.47334 2.53,-1.26667c4,1.16 1.05,11.79 -2.31667,14.9467c-0.106667,0.103333 -0.106667,0.103333 -0.213333,0.103333c-1.78667,1.37333 -2.42,0.950001 -4.42,0.846668c-0.209999,-3.47334 1.89333,-11.47 4.42,-14.63ZM95.54,61.7233c6.00333,-1.78667 8.84334,-6.94333 10.0033,-11.7867c0.943336,-6.31333 -0.633331,-10 -3.16333,-10c-1.99667,0 -5.05,2.20667 -6.84,4.21c-0.209999,0.313335 -0.523331,0.633335 -0.633331,0.843334c-0.416664,0.526669 -1.36667,2 -1.15334,1.15667l0.313332,-1.89333l1.47334,-10.3167l1.16,-6.94667c-0.206673,-0.73333 -0.526672,-1.47 -1.16,-1.47c-0.103333,0 -0.209999,0.103333 -0.316666,0.103333c-4.20667,1.89667 -5.26,2.21 -8.31333,4.10333l0.106667,0.316673c3.15666,0 2.31667,1.26333 2.21,3.89333c0.106667,0 0,0 0,0.103333l-4.52666,28.21l8.63,0c0.736664,-0.103333 1.57667,-0.209999 2.21,-0.526669Z" style="fill:#fefefe;"/><path d="M117.857,42.78c1.26,-0.636665 2.94334,-0.423332 4.21001,-0.316666c0.423332,1.68333 -1.26667,8.94333 -4.21001,13.26c-0.423332,0.843334 -1.05333,1.47334 -1.57999,2.00333c-1.26334,1.15667 -2.52667,-1.26667 -2.63,-3.05333c-0.316666,-3.47334 -0.423332,-7.36667 3.58,-11.4733c0.206665,-0.209999 0.419998,-0.316666 0.629997,-0.419998ZM117.857,58.46c0.943336,-1.26333 1.78667,-2.63 2.42001,-3.89333c-0.209999,3.05333 -1.26334,7.79333 2.21333,8.21l5.99666,-2.63333l0,-0.84c-0.736664,0.419998 -2.52666,-0.736668 -2.31666,-2.42l2.41999,-16.1033c-4.17999,0 -6.17999,-0.413334 -10.6367,0.606667l0.00666046,-0.0800018c-9.57666,3.68333 -12.5267,12.4167 -9.05,20.2067c2.31667,3.79333 6.10333,0.846668 8.94666,-3.05333Z" style="fill:#fefefe;"/></g></g></svg>