<?xml version="1.0" standalone="no"?><!DOCTYPE svg PUBLIC "-//W3C//DTD SVG 1.1//EN" "http://www.w3.org/Graphics/SVG/1.1/DTD/svg11.dtd"><svg width="96px" height="72px" version="1.1" xmlns="http://www.w3.org/2000/svg" xmlns:xlink="http://www.w3.org/1999/xlink" xml:space="preserve" style="fill-rule:evenodd;clip-rule:evenodd;stroke-linejoin:round;stroke-miterlimit:1.41421;"><g><g transform="matrix(0.124969,-9.24446e-33,-7.70372e-33,0.124969,12,0)"><rect x="0" y="0" width="576.143" height="576.188" style="fill:#113784;"/><path d="M434.563,429.179l1.629,-0.197l1.283,-0.197l0.543,-0.197l0.494,-0.148l0.395,-0.197l0.395,-0.296l0.396,-0.396l0.346,-0.493l0.296,-0.494l0.296,-0.543l0.396,-1.382l0.197,-1.728l0,-0.889l0.099,-0.84l0.099,-0.987l0,-37.317l-0.099,-0.74l-0.099,-0.691l0,-0.889l-0.099,-1.136l-0.099,-0.889l-0.297,-0.789l-0.395,-0.643l-0.395,-0.395l-0.543,-0.395l-0.593,-0.297l-0.691,-0.197l-3.061,-0.296l-3.505,-0.346l-0.592,-0.296l-0.445,-0.396l-0.296,-0.395l-0.099,-0.395l0,-0.494l0.099,-0.148l0.197,-0.197l0.444,-0.395l0.691,-0.297l5.332,0.297l5.281,0.197l5.233,0.099l5.331,0.099l5.332,-0.099l5.281,-0.099l5.233,-0.197l5.331,-0.297l0.74,-0.099l0.494,0.099l0.395,0.1l0.197,0.197l0,0.839l-0.197,0.593l-0.296,0.889l-0.296,1.233l0,2.517l0.197,1.284l0.395,2.518l0.297,2.468l0,0.494l-0.198,0.296l-0.197,0.197l-0.296,0.099l-0.297,0l-0.395,-0.197l-0.247,-0.395l-0.296,-0.494l-0.197,-0.247l-0.198,-0.79l-0.099,-0.494l0,-0.79l-0.1,-0.839l-0.296,-0.79l-0.197,-0.69l-0.395,-0.544l-0.297,-0.592l-0.444,-0.494l-0.493,-0.395l-0.494,-0.395l-0.592,-0.346l-0.543,-0.297l-1.382,-0.394l-0.74,-0.197l-1.777,-0.197l-1.826,-0.099l-11.697,0l-0.494,0.099l-0.444,0l-0.395,0.197l-0.396,0.197l-0.295,0.297l-0.197,0.297l-0.198,0.296l-0.099,0.346l-0.198,1.974l0,18.906l12.193,0l0.889,-0.099l0.74,-0.197l0.691,-0.247l0.691,-0.296l0.543,-0.395l0.592,-0.396l0.593,-0.493l0.493,-0.543l0.396,-0.691l0.346,-0.691l0.395,-0.79l0.296,-0.74l0.297,-0.889l0.197,-0.938l0.197,-0.987l0,-0.197l0.099,-0.198l0.296,-0.296l0.444,-0.197l0.396,-0.099l0.493,0.099l0.396,0.197l0.099,0.099l0.099,0.197l0.099,0.198l0,0.197l-0.296,2.616l-0.297,2.518l-0.197,2.616l-0.099,2.518l0,2.469l0.197,2.616l0.197,2.518l0.494,2.616l0,0.296l-0.099,0.198l-0.198,0.394l-0.395,0.198l-0.889,0l-0.345,-0.197l-0.198,-0.197l-0.099,-0.197l-0.099,-0.198l-0.099,-0.296l-0.493,-1.925l-0.593,-1.729l-0.296,-0.69l-0.346,-0.691l-0.297,-0.642l-0.395,-0.494l-0.493,-0.493l-0.494,-0.396l-0.543,-0.395l-0.691,-0.296l-0.789,-0.148l-0.741,-0.197l-0.987,-0.099l-12.39,0l0,22.413l0.197,0.593l0.198,0.444l0.296,0.395l0.395,0.396l0.494,0.197l0.543,0.197l0.593,0.099l1.185,0.099l1.036,0.099l9.973,0l0.938,-0.197l1.777,-0.296l1.233,-0.296l1.086,-0.297l0.741,-0.296l0.789,-0.444l0.79,-0.691l0.84,-0.889l1.185,-1.332l0.74,-0.79l0.593,-0.938l0.69,-1.086l0.593,-1.233l0.642,-1.383l0.593,-1.432l1.925,0l0,2.222l-0.099,1.136l-0.099,1.283l-0.444,2.518l-0.593,2.419l-0.395,1.135l-0.493,1.087l-0.396,0.938l-0.444,0.889l-0.592,0.79l-0.593,0.642l-0.593,0.395l-0.543,0.297l-2.518,0.592l-2.221,0.396l-2.222,0.246l-4.295,0l-2.123,-0.147l-2.023,-0.198l-2.222,-0.296l-2.123,-0.296l-2.319,-0.197l-2.42,-0.297l-2.616,-0.099l-5.677,0l-3.209,0.297l-3.455,0.395l-0.494,-0.099l-0.395,-0.197l-0.296,-0.396l-0.198,-0.493l0.1,-0.444l0.197,-0.494l0.296,-0.493ZM388.061,411.507l0.691,1.728l0.642,1.53l0.79,1.48l0.79,1.333l0.74,1.284l0.889,1.233l0.889,1.086l0.839,0.938l0.889,0.987l0.938,0.74l0.889,0.79l0.987,0.691l0.938,0.592l0.987,0.543l0.839,0.396l0.987,0.395l0.987,0.296l0.84,0.197l0.987,0.198l0.839,0.099l0.987,0.099l0.79,-0.099l0.839,-0.099l0.889,-0.099l0.79,-0.198l0.74,-0.296l0.691,-0.296l0.691,-0.297l0.642,-0.395l0.592,-0.444l0.494,-0.493l0.493,-0.494l0.741,-0.889l0.592,-0.839l0.396,-0.889l0.395,-0.839l0.197,-0.79l0.099,-0.889l0,-0.839l-0.099,-0.79l-0.099,-0.889l-0.296,-0.74l-0.396,-0.889l-0.395,-0.79l-0.494,-0.74l-0.443,-0.79l-0.593,-0.79l-0.691,-0.642l-1.432,-1.481l-1.579,-1.332l-1.629,-1.284l-1.729,-1.036l-1.728,-1.086l-1.679,-0.84l-1.629,-0.889l-1.432,-0.592l-0.79,-0.296l-0.69,-0.346l-0.543,-0.396l-0.691,-0.395l-1.185,-0.987l-1.136,-0.839l-1.283,-1.086l-1.234,-1.037l-1.086,-1.086l-0.839,-1.136l-0.889,-1.185l-0.642,-1.136l-0.593,-1.283l-0.494,-1.234l-0.296,-1.185l-0.197,-1.234l-0.099,-1.185l-0.099,-1.135l0.099,-1.284l0.099,-1.233l0.197,-1.186l0.296,-1.036l0.494,-1.383l0.493,-1.135l0.543,-1.185l0.691,-0.938l0.691,-0.987l0.74,-0.839l0.79,-0.79l0.889,-0.79l0.938,-0.543l0.987,-0.592l1.037,-0.494l1.086,-0.395l1.136,-0.297l1.283,-0.197l1.234,-0.148l1.382,-0.099l1.728,0.099l1.63,0.148l1.579,0.396l1.333,0.395l1.086,0.395l1.037,0.297l1.086,0.395l0.839,0.444l1.826,0.889l1.58,0.691l0.296,0l0.297,0.099l0.246,0l0.297,-0.099l0.296,-0.198l0.296,-0.197l0.197,-0.296l0.297,-0.395l0.197,-0.396l0.296,-0.247l0.247,-0.197l0.395,-0.099l0.297,0.099l0.296,0.099l0.296,0.247l0.099,0.494l0.099,1.925l0.198,2.073l0.197,2.024l0.197,2.023l0.247,2.024l0.296,2.122l0.197,2.024l0.297,2.122l-0.099,0.297l-0.198,0.296l-0.197,0.099l-0.741,0l-0.396,-0.197l-0.395,-0.197l-0.395,-0.297l-0.099,-0.839l-0.198,-0.79l-0.197,-0.789l-0.296,-0.84l-0.247,-0.691l-0.395,-0.789l-0.396,-0.741l-0.395,-0.69l-0.938,-1.383l-1.185,-1.333l-1.333,-1.233l-1.48,-1.185l-1.432,-0.987l-1.629,-0.84l-1.679,-0.79l-1.629,-0.493l-0.79,-0.197l-0.839,-0.148l-0.79,-0.099l-1.629,0l-1.58,0.198l-0.74,0.148l-0.691,0.296l-0.69,0.396l-0.643,0.395l-0.592,0.493l-0.79,0.643l-0.642,0.69l-0.494,0.79l-0.493,0.79l-0.395,0.74l-0.198,0.889l-0.197,0.839l0,0.889l0.197,0.889l0.198,0.839l0.986,1.778l0.741,0.84l0.889,0.889l1.086,0.839l1.233,0.79l3.308,1.925l3.456,2.123l3.604,2.221l3.555,2.419l1.629,1.284l1.579,1.333l1.53,1.382l1.333,1.53l1.284,1.53l1.036,1.679l0.494,0.74l0.395,0.889l0.395,0.938l0.297,0.889l0.197,1.185l0.099,1.136l0.05,1.185l0.099,1.234l-0.099,1.925l-0.247,1.827l-0.197,0.889l-0.198,0.889l-0.296,0.839l-0.296,0.79l-0.396,0.79l-0.395,0.642l-0.444,0.789l-0.493,0.691l-0.593,0.543l-0.593,0.691l-0.642,0.592l-0.69,0.593l-1.432,0.938l-1.481,0.888l-1.53,0.643l-1.58,0.592l-1.728,0.494l-1.728,0.296l-1.826,0.197l-3.9,0l-1.925,-0.197l-0.84,-0.099l-0.889,-0.197l-0.789,-0.297l-0.84,-0.296l-0.987,-0.296l-0.938,-0.346l-0.987,-0.494l-0.987,-0.296l-0.84,-0.395l-0.69,-0.197l-0.691,-0.198l-0.543,0l-0.493,0.198l-0.396,0.197l-0.395,0.493l-0.297,0.494l-0.197,0.346l-0.346,0.296l-0.395,0.197l-0.296,0.099l-0.297,-0.099l-0.296,-0.099l-0.197,-0.296l-0.099,-0.444l-0.099,-2.32l-0.198,-2.32l-0.099,-2.32l-0.147,-2.32l-0.197,-2.419l-0.396,-2.319l-0.395,-2.32l-0.593,-2.32l0.296,-0.593l0.396,-0.395l0.296,-0.296l0.396,-0.1l0.246,0.1l0.396,0.197l0.395,0.296ZM488.568,411.507l0.691,1.728l0.691,1.53l0.642,1.48l0.79,1.333l0.79,1.284l0.839,1.233l0.889,1.086l0.889,0.938l0.839,0.987l0.987,0.74l0.839,0.79l0.987,0.691l0.987,0.592l0.938,0.543l0.987,0.396l0.839,0.395l0.987,0.296l0.987,0.197l0.938,0.198l0.889,0.099l0.938,0.099l1.778,-0.198l0.74,-0.099l0.79,-0.198l0.79,-0.296l0.74,-0.296l0.691,-0.297l0.69,-0.395l0.543,-0.444l0.593,-0.493l0.494,-0.494l0.789,-0.889l0.543,-0.839l0.396,-0.889l0.395,-0.839l0.197,-0.79l0.099,-0.889l0,-0.839l-0.099,-0.79l-0.197,-0.889l-0.197,-0.74l-0.395,-0.889l-0.396,-0.79l-0.444,-0.74l-0.592,-0.79l-0.593,-0.79l-0.691,-0.642l-1.432,-1.481l-1.53,-1.332l-1.678,-1.284l-1.729,-1.036l-1.728,-1.086l-1.629,-0.84l-1.58,-0.889l-1.432,-0.592l-0.789,-0.296l-0.643,-0.346l-0.69,-0.396l-0.593,-0.395l-1.135,-0.987l-1.087,-0.839l-1.432,-1.086l-1.283,-1.037l-1.036,-1.086l-0.987,-1.136l-0.741,-1.185l-0.69,-1.136l-0.593,-1.283l-0.395,-1.234l-0.396,-1.185l-0.247,-1.234l0,-4.837l0.247,-1.186l0.396,-1.036l0.493,-1.383l0.494,-1.135l0.592,-1.185l0.543,-0.938l0.691,-0.987l0.79,-0.839l0.74,-0.79l0.987,-0.79l0.889,-0.543l1.036,-0.592l1.087,-0.494l1.036,-0.395l1.185,-0.297l1.234,-0.197l1.283,-0.148l1.333,-0.099l1.629,0.099l1.58,0.148l1.432,0.396l1.432,0.395l1.086,0.395l1.037,0.297l1.086,0.395l1.036,0.444l1.876,0.889l1.432,0.691l0.296,0l0.198,0.099l0.296,0l0.296,-0.099l0.197,-0.198l0.148,-0.197l0.197,-0.296l0.297,-0.395l0.296,-0.396l0.296,-0.247l0.396,-0.197l0.395,-0.099l0.346,0.099l0.296,0.099l0.197,0.247l0.099,0.494l0,1.925l0.198,2.073l0.099,2.024l0.296,2.023l0.197,2.024l0.297,2.122l0.395,2.024l0.247,2.122l0,0.297l-0.148,0.296l-0.296,0.099l-0.791,0l-0.396,-0.197l-0.296,-0.197l-0.197,-0.297l-0.346,-0.839l-0.296,-0.79l-0.099,-0.789l-0.099,-0.84l-0.297,-0.691l-0.395,-0.789l-0.395,-0.741l-0.494,-0.69l-0.938,-1.383l-1.186,-1.333l-1.332,-1.233l-1.432,-1.185l-1.58,-0.987l-1.53,-0.84l-1.629,-0.79l-1.679,-0.493l-0.839,-0.197l-0.889,-0.148l-0.79,-0.099l-1.629,0l-0.84,0.099l-0.789,0.099l-0.79,0.148l-0.691,0.296l-0.74,0.396l-0.691,0.395l-0.69,0.493l-0.543,0.643l-0.691,0.69l-0.494,0.79l-0.395,0.79l-0.346,0.74l-0.197,0.889l-0.099,0.839l0,0.889l0.099,0.889l0.247,0.839l0.395,0.889l0.593,0.889l0.69,0.84l0.84,0.889l1.086,0.839l1.233,0.79l3.209,1.925l3.555,2.123l1.777,1.086l1.826,1.135l1.728,1.186l1.729,1.233l1.678,1.284l1.629,1.333l1.432,1.382l1.383,1.53l1.233,1.53l0.988,1.679l0.493,0.74l0.346,0.889l0.395,0.938l0.297,0.889l0.395,1.185l0.296,1.136l0.099,1.185l0.099,1.234l-0.099,0.987l0,0.938l-0.197,0.987l-0.099,0.84l-0.296,0.889l-0.197,0.889l-0.396,0.839l-0.296,0.79l-0.346,0.79l-0.493,0.642l-0.494,0.789l-0.494,0.691l-1.135,1.234l-1.283,1.185l-1.333,0.938l-1.481,0.888l-1.53,0.643l-1.629,0.592l-1.629,0.494l-1.876,0.296l-1.826,0.197l-3.847,0l-1.827,-0.197l-0.889,-0.099l-0.889,-0.197l-0.74,-0.297l-0.79,-0.296l-1.086,-0.395l-1.036,-0.346l-1.086,-0.494l-1.037,-0.197l-0.79,-0.395l-0.642,-0.197l-0.691,-0.198l-0.493,0l-0.493,0.198l-0.297,0.197l-0.296,0.493l-0.148,0.494l-0.296,0.444l-0.395,0.296l-0.297,0.099l-0.395,0.099l-0.296,-0.099l-0.297,-0.197l-0.197,-0.296l-0.05,-0.346l0,-2.32l-0.394,-4.838l-0.395,-2.419l-0.297,-2.419l-0.493,-2.32l-0.396,-2.221l-0.345,-2.123l0,-0.593l0.049,-0.197l0.099,-0.197l0.396,-0.296l0.395,-0.1l0.494,0.1l0.493,0.197l0.444,0.296ZM354.246,429.179l1.036,-0.197l0.889,-0.296l0.79,-0.247l0.543,-0.493l0.493,-0.593l0.494,-0.593l0.296,-0.642l0.297,-0.789l0.099,-0.79l0.147,-0.74l0,-0.889l0.099,-0.889l0,-37.221l-0.099,-2.665l-0.099,-2.123l-0.049,-0.889l-0.198,-0.79l-0.197,-0.592l-0.197,-0.444l-0.493,-0.494l-0.593,-0.493l-0.642,-0.396l-0.889,-0.395l-0.889,-0.247l-1.037,-0.197l-1.185,-0.197l-1.135,-0.099l-0.593,-0.297l-0.395,-0.395l-0.297,-0.395l-0.099,-0.494l0.099,-0.346l0.297,-0.493l0.395,-0.396l0.593,-0.296l2.962,0.493l2.912,0.198l2.715,0.197l2.716,0l2.715,-0.099l2.665,-0.197l2.913,-0.198l2.912,-0.395l0.494,0.296l0.296,0.396l0.197,0.493l0,0.346l-0.197,0.494l-0.394,0.79l-0.396,0.297l-1.086,0.099l-0.839,0.197l-0.691,0.197l-0.493,0.247l-0.642,0.79l-0.691,0.987l-0.395,0.938l-0.297,1.679l-0.197,2.222l0,39.245l0.197,2.221l0.197,1.729l0.198,1.036l0.395,0.691l0.593,0.493l0.642,0.494l0.889,0.296l0.987,0.247l1.135,0.197l1.234,0.197l1.481,0.197l0.395,0.198l0.395,0.197l0.148,0.395l0,0.791l-0.148,0.247l-0.395,0.197l-0.395,0.099l-3.11,-0.099l-2.913,-0.099l-2.665,0l-2.715,-0.099l-5.332,0l-2.813,0.099l-3.061,0.197l-0.396,-0.099l-0.395,-0.197l-0.197,-0.247l-0.099,-0.395l0.099,-0.396l0.197,-0.395l0.296,-0.197ZM239.965,428.143l0.494,-0.099l0.592,-0.197l0.396,-0.1l0.444,-0.296l0.395,-0.296l0.296,-0.396l0.297,-0.395l0.296,-0.444l0.197,-0.592l0.296,-0.593l0.1,-0.79l0.197,-0.74l0.147,-1.926l0.099,-2.418l0.297,-3.209l0,-32.778l-0.297,-2.962l0,-0.79l-0.099,-0.79l-0.147,-0.592l-0.197,-0.543l-0.297,-0.494l-0.791,-0.791l-0.395,-0.296l-0.493,-0.247l-0.544,-0.197l-0.789,-0.197l-0.889,-0.099l-1.728,-0.198l-1.729,-0.395l-0.296,-0.099l-0.197,-0.395l-0.099,-0.396l-0.099,-0.346l0.198,-0.79l0.197,-0.198l0.296,-0.099l3.012,0.297l2.863,0.197l3.011,0.099l5.924,0l2.863,-0.099l3.012,-0.197l3.011,-0.297l0.395,0l0.049,0.099l0.197,0.099l0.1,0.396l0,0.395l-0.1,0.444l-0.197,0.396l-0.147,0.296l-0.297,0.197l-1.777,0.494l-1.431,0.296l-0.593,0.099l-0.543,0.099l-0.494,0.099l-0.395,0.247l-0.395,0.197l-0.297,0.396l-0.296,0.395l-0.296,0.593l-0.148,0.543l-0.099,0.789l-0.099,0.79l-0.099,1.037l0,43.046l0.099,1.037l0,0.987l0.099,0.395l0.099,0.296l0.148,0.148l0.197,0.099l4.937,-0.099l4.442,0.099l2.123,0.099l2.073,0l1.827,-0.099l1.826,-0.197l1.728,-0.247l1.629,-0.493l0.79,-0.396l0.79,-0.395l0.74,-0.396l0.691,-0.443l0.79,-0.593l0.69,-0.593l0.543,-0.789l0.691,-0.741l0.593,-0.889l0.642,-0.889l0.592,-1.036l0.494,-1.185l0.197,-0.247l0.296,-0.296l0.297,-0.198l0.296,-0.099l0.247,0.099l0.296,0.1l0.197,0.296l0.099,0.346l0.1,1.876l-0.1,1.728l-0.197,1.53l-0.493,1.58l-0.444,1.332l-0.691,1.234l-0.889,1.185l-0.839,1.037l-1.086,0.889l-1.136,0.79l-1.185,0.642l-1.333,0.493l-1.382,0.396l-1.432,0.197l-1.53,0.099l-1.58,-0.099l-3.555,-0.297l-3.505,-0.197l-3.455,-0.197l-3.604,-0.099l-7.405,0l-4.098,0.099l-4.64,0l-0.247,-0.197l-0.197,-0.099l-0.197,-0.247l-0.1,-0.197l-0.099,-0.296l0,-0.494l0.198,-0.593l0.296,-0.493l0.346,-0.346ZM190.205,371.965l0.198,0l0.197,0.099l0.099,0.099l0.099,0.198l0.197,0.395l0,0.346l-0.099,0.493l-0.099,0.396l-0.296,0.395l-0.296,0.099l-1.086,0.297l-0.938,0.395l-0.889,0.444l-0.691,0.593l-0.642,0.786l-0.494,0.741l-0.395,0.987l-0.198,1.185l-0.099,1.036l-0.099,1.086l0,28.484l0.099,2.122l0.296,2.123l0.197,1.679l0.395,1.629l0.395,1.432l0.543,1.382l0.691,1.234l0.691,1.185l0.889,1.037l1.037,0.888l1.086,0.889l1.135,0.642l1.284,0.593l1.432,0.494l1.432,0.395l1.678,0.247l1.728,0.197l1.728,0.099l1.333,-0.099l1.283,-0.099l1.136,-0.148l1.283,-0.197l1.037,-0.197l1.086,-0.297l1.037,-0.395l0.987,-0.296l0.987,-0.494l0.839,-0.395l0.889,-0.543l0.79,-0.494l0.642,-0.592l0.79,-0.691l0.592,-0.642l0.543,-0.691l0.691,-0.889l0.593,-0.839l0.592,-0.987l0.346,-0.938l0.395,-1.876l0.395,-1.827l0.198,-2.023l0.099,-2.024l0,-28.533l-0.099,-1.135l-0.099,-1.185l-0.296,-1.234l-0.198,-0.79l-0.395,-0.74l-0.247,-0.691l-0.494,-0.493l-0.494,-0.494l-0.494,-0.395l-0.592,-0.247l-0.741,-0.197l-0.987,-0.099l-1.234,-0.099l-1.284,0l-1.432,-0.297l-0.197,-0.197l-0.197,-0.395l-0.099,-0.396l-0.099,-0.444l0.198,-0.79l0.099,-0.198l0.296,-0.099l2.518,0.099l2.518,0.198l2.518,0l2.616,0.099l2.468,0l2.518,-0.099l2.419,-0.1l2.419,-0.197l0.296,0.099l0.197,0.198l0.198,0.395l0,0.839l-0.198,0.396l-0.197,0.395l-0.296,0.197l-0.938,0.297l-1.087,0.395l-0.888,0.444l-0.84,0.593l-0.691,0.69l-0.592,0.79l-0.198,0.444l-0.148,0.493l-0.099,0.494l-0.099,0.593l-0.099,1.431l-0.197,1.432l-0.099,1.679l0,26.163l-0.099,2.123l-0.198,2.073l-0.296,1.827l-0.395,1.728l-0.543,1.629l-0.691,1.58l-0.79,1.332l-0.839,1.333l-0.889,1.086l-1.431,1.431l-0.592,0.396l-0.592,0.395l-0.592,0.296l-0.839,0.691l-0.79,0.444l-0.79,0.494l-0.839,0.493l-1.58,0.691l-1.629,0.642l-2.617,0.592l-2.814,0.396l-2.764,0.296l-5.726,0l-2.518,-0.197l-1.135,-0.197l-1.284,-0.197l-1.135,-0.297l-1.086,-0.395l-1.234,-0.296l-1.283,-0.444l-1.136,-0.396l-1.086,-0.493l-1.037,-0.593l-0.987,-0.543l-0.839,-0.593l-0.889,-0.69l-0.79,-0.691l-0.741,-0.74l-1.382,-1.778l-0.593,-0.839l-0.444,-0.987l-0.493,-1.037l-0.395,-1.086l-0.494,-1.234l-0.395,-1.48l-0.346,-1.432l-0.296,-1.432l-0.296,-2.024l-0.099,-2.172l0,-2.122l-0.099,-2.024l0,-22.906l-0.099,-1.037l-0.099,-1.185l-0.197,-1.333l-0.198,-0.789l-0.197,-0.691l-0.296,-0.642l-0.345,-0.494l-0.395,-0.493l-0.395,-0.396l-0.592,-0.395l-0.592,-0.247l-0.938,-0.197l-1.284,-0.099l-1.53,-0.197l-1.827,-0.396l-0.395,-0.197l-0.198,-0.395l-0.099,-0.396l-0.099,-0.444l0.099,-0.395l0.197,-0.395l0.198,-0.198l0.296,-0.099l3.16,0.099l3.11,0.099l3.209,0.1l6.367,0l3.11,-0.1l3.159,-0.099ZM87.179,402.324l2.962,0.198l8.739,0.297l2.863,-0.099l2.913,-0.099l3.011,-0.099l2.962,-0.198l0.197,0.198l0.099,0.296l0.099,0.247l0.099,0.296l-0.198,0.592l-0.099,0.198l-0.197,0.296l-1.333,0.099l-1.037,0.197l-0.592,0.198l-0.494,0.197l-0.395,0.197l-0.395,0.247l-0.296,0.296l-0.346,0.296l-0.198,0.396l-0.296,0.395l-0.296,0.938l-0.197,1.087l0,13.526l-2.123,1.432l-2.222,1.283l-2.32,1.136l-2.221,1.086l-2.32,0.987l-2.221,0.74l-2.32,0.691l-2.32,0.494l-2.221,0.395l-2.222,0.247l-2.221,0.099l-2.223,0l-2.123,-0.197l-2.024,-0.247l-2.073,-0.395l-2.024,-0.593l-1.826,-0.691l-1.827,-0.74l-1.728,-0.987l-1.679,-1.136l-1.629,-1.283l-1.432,-1.333l-1.382,-1.579l-1.234,-1.63l-1.086,-1.826l-0.938,-1.925l-0.889,-2.024l-0.79,-2.222l-0.543,-2.419l-0.395,-2.518l-0.197,-2.715l-0.099,-2.813l0,-2.123l0.197,-2.023l0.197,-2.024l0.395,-1.925l0.346,-1.876l0.592,-1.827l0.592,-1.728l0.691,-1.629l0.74,-1.679l0.889,-1.432l0.987,-1.431l0.938,-1.383l1.086,-1.333l1.135,-1.185l1.284,-1.136l1.234,-0.987l1.333,-0.938l1.382,-0.889l1.53,-0.79l1.481,-0.74l1.53,-0.593l1.629,-0.493l1.629,-0.395l1.777,-0.396l1.728,-0.148l1.728,-0.099l1.826,-0.099l1.876,0.099l1.925,0.198l1.925,0.246l1.925,0.396l1.925,0.493l0.888,0.197l0.79,0.198l0.741,0.197l0.888,0.296l1.037,0.247l0.987,0.197l0.79,0.099l1.037,0l1.086,-0.543l0.543,-0.395l0.987,-0.889l0.79,-0.938l0.198,-0.296l0.247,-0.395l0.296,-0.197l0.296,-0.1l0.395,0.1l0.296,0.099l0.296,0.296l0.198,0.493l0.395,2.419l0.247,2.32l0.197,2.37l0.099,2.419l0,4.738l-0.099,2.419l0,2.518l-0.099,0.297l-0.197,0.296l-0.247,0.197l-0.296,0.099l-0.395,-0.099l-0.296,-0.099l-0.395,-0.296l-0.296,-0.396l-0.395,-0.839l-0.148,-0.79l-0.198,-0.889l-0.296,-0.74l-0.592,-1.382l-0.79,-1.234l-0.741,-1.185l-0.987,-1.037l-0.938,-1.086l-1.185,-0.938l-1.135,-0.889l-1.382,-0.889l-1.629,-0.84l-1.629,-0.789l-1.678,-0.691l-1.53,-0.346l-1.53,-0.395l-1.58,-0.198l-1.432,-0.099l-1.432,0.099l-1.382,0.198l-1.333,0.296l-1.283,0.346l-1.234,0.493l-1.185,0.691l-1.136,0.691l-1.185,0.74l-0.938,0.889l-1.086,1.036l-0.839,0.987l-0.987,1.186l-0.79,1.233l-0.741,1.234l-0.691,1.283l-0.691,1.432l-0.543,1.383l-0.988,3.06l-0.395,1.579l-0.296,1.53l-0.296,1.63l-0.197,1.678l-0.099,1.728l0,3.358l0.099,1.777l0.197,1.728l0.296,1.728l0.296,1.629l0.494,1.679l0.494,1.53l0.444,1.53l0.691,1.481l0.691,1.332l0.79,1.383l0.74,1.234l0.889,1.135l0.938,1.086l0.987,1.086l1.086,0.84l1.135,0.889l1.185,0.69l1.234,0.543l1.234,0.494l1.382,0.296l1.333,0.296l1.481,0.1l1.432,-0.1l1.53,-0.197l1.679,-0.395l1.629,-0.494l1.629,-0.642l1.728,-0.79l1.777,-1.086l1.728,-1.135l1.827,-1.383l0,-10.416l-0.099,-0.987l-0.099,-0.938l-0.296,-0.79l-0.198,-0.691l-0.345,-0.543l-0.395,-0.493l-0.494,-0.396l-0.296,-0.395l-0.494,-0.296l-0.642,-0.297l-0.691,-0.246l-1.728,-0.396l-2.32,-0.296l-0.197,-0.296l-0.198,-0.198l-0.099,-0.296l0,-0.592l0.099,-0.247l0.198,-0.296ZM130.177,400.597l17.031,0l-9.034,-19.647ZM109.098,428.784l0.691,-0.296l0.691,-0.346l0.642,-0.494l0.691,-0.592l0.592,-0.691l0.642,-0.839l0.592,-0.889l0.592,-1.037l0.889,-1.579l0.74,-1.629l0.889,-1.729l0.938,-1.776l20.684,-46.256l0.296,-0.395l0.296,-0.296l0.395,-0.197l0.296,-0.1l0.296,0.1l0.296,0.197l0.247,0.296l0.198,0.395l23.893,51.488l0.79,1.679l0.74,1.431l0.593,1.037l0.494,0.79l0.494,0.493l0.444,0.396l0.592,0.296l0.691,0.197l1.53,0.346l1.827,0.395l0.296,0.198l0.197,0.197l0.099,0.395l0.099,0.396l-0.099,0.395l-0.099,0.247l-0.197,0.197l-0.296,0.099l-3.061,-0.296l-3.011,-0.197l-3.11,-0.05l-6.072,0l-3.011,0.05l-3.061,0.197l-3.011,0.296l-0.494,0l-0.099,-0.099l-0.197,-0.099l-0.197,-0.296l0,-0.742l0.296,-0.395l0.296,-0.296l0.395,-0.198l1.431,-0.197l1.284,-0.197l1.037,-0.197l0.889,-0.247l0.592,-0.296l0.494,-0.494l0.148,-0.197l0.099,-0.296l0.099,-0.297l0,-0.395l-0.197,-2.123l-0.444,-2.418l-0.494,-2.617l-0.691,-2.566l-0.691,-2.715l-0.642,-2.617l-0.691,-2.518l-0.494,-2.221l-23.202,0l-4.542,11.403l-1.925,4.344l-0.296,1.086l-0.197,0.839l-0.099,0.79l-0.099,0.691l0,0.395l0.099,0.247l0.099,0.395l0.099,0.297l0.494,0.493l0.691,0.396l0.839,0.395l1.086,0.247l1.234,0.296l1.481,0.296l0.296,0.1l0.296,0.296l0.099,0.197l0,0.692l-0.197,0.296l-0.197,0.346l-0.296,0.197l-2.419,0l-2.32,-0.099l-9.577,0l-2.32,0.099l-2.32,0l-0.395,-0.197l-0.296,-0.296l-0.099,-0.247l-0.099,-0.296l0.099,-0.297l0.099,-0.296l0.296,-0.197l0.395,-0.297l0.494,-0.296l0.494,-0.099l1.132,0ZM283.456,400.794l0,-1.776l0.197,-1.63l0.197,-1.728l0.297,-1.579l0.395,-1.63l0.493,-1.53l0.494,-1.579l0.444,-1.53l0.987,-1.729l0.938,-1.826l1.284,-1.679l1.332,-1.629l1.58,-1.53l1.728,-1.48l1.827,-1.333l2.023,-1.234l1.827,-1.086l2.073,-0.889l2.023,-0.839l2.123,-0.691l2.222,-0.493l2.319,-0.396l2.419,-0.247l2.419,-0.099l2.419,0.099l2.32,0.247l2.222,0.396l2.222,0.493l2.122,0.691l2.123,0.839l2.024,0.889l1.925,1.086l1.926,1.234l1.776,1.432l1.629,1.48l1.432,1.53l1.383,1.729l1.135,1.776l1.087,1.926l0.839,2.023l0.593,1.432l0.592,1.58l0.395,1.432l0.346,1.53l0.297,1.58l0.197,1.629l0.198,3.258l-0.099,1.58l-0.099,1.53l-0.197,1.53l-0.297,1.48l-0.246,1.432l-0.297,1.382l-0.493,1.432l-0.494,1.333l-0.592,1.284l-0.543,1.332l-0.691,1.284l-0.79,1.135l-0.839,1.284l-0.889,1.135l-0.987,1.086l-1.037,1.136l-1.185,1.086l-1.136,0.938l-1.185,0.987l-1.233,0.789l-1.284,0.84l-1.233,0.69l-1.432,0.691l-1.383,0.543l-1.432,0.494l-1.48,0.493l-1.53,0.396l-1.53,0.296l-1.63,0.247l-1.678,0.197l-1.729,0.099l-3.456,0l-1.679,-0.099l-1.629,-0.197l-1.629,-0.247l-1.58,-0.296l-1.53,-0.396l-1.53,-0.493l-1.48,-0.494l-1.432,-0.543l-1.333,-0.691l-1.382,-0.789l-1.234,-0.84l-1.383,-0.889l-1.135,-0.987l-1.284,-0.938l-1.036,-1.086l-1.086,-1.037l-0.938,-1.185l-0.889,-1.136l-0.789,-1.185l-0.741,-1.135l-0.69,-1.284l-0.691,-1.233l-0.543,-1.383l-0.494,-1.333l-0.395,-1.333l-0.395,-1.48l-0.297,-1.432l-0.197,-1.48l-0.197,-1.531l-0.099,-1.53ZM294.021,404.645l0.296,1.728l0.296,1.53l0.444,1.679l0.494,1.53l0.493,1.432l0.593,1.481l0.543,1.333l0.69,1.382l0.79,1.333l0.84,1.333l0.888,1.185l1.087,1.135l1.036,1.086l1.283,0.889l1.234,0.84l1.432,0.79l1.58,0.789l1.53,0.642l1.53,0.494l1.579,0.296l1.63,0.197l1.629,0l1.678,-0.099l1.827,-0.197l1.728,-0.493l1.728,-0.593l1.679,-0.642l1.432,-0.79l1.432,-0.987l1.382,-0.938l1.234,-1.185l1.185,-1.234l0.938,-1.284l0.889,-1.332l0.789,-1.333l0.643,-1.481l0.592,-1.53l0.396,-1.53l0.395,-1.679l0.296,-1.629l0.148,-1.53l0,-4.54l-0.099,-1.679l-0.148,-1.53l-0.197,-1.629l-0.296,-1.679l-0.593,-2.566l-0.691,-2.518l-0.74,-2.32l-0.889,-2.222l-0.987,-2.024l-1.036,-1.875l-1.186,-1.63l-1.233,-1.53l-0.987,-0.987l-0.938,-0.789l-0.992,-0.745l-1.036,-0.69l-1.086,-0.691l-1.037,-0.444l-1.086,-0.494l-1.136,-0.493l-1.185,-0.296l-1.136,-0.297l-1.283,-0.197l-1.234,-0.099l-2.616,0l-1.382,0.099l-1.432,0.297l-1.333,0.197l-1.283,0.395l-1.234,0.395l-1.185,0.494l-1.136,0.543l-1.086,0.593l-0.938,0.789l-0.987,0.643l-0.987,0.888l-0.741,0.889l-0.889,0.938l-0.789,0.987l-0.643,1.036l-0.69,1.186l-0.593,1.233l-0.543,1.284l-0.592,1.826l-0.396,1.925l-0.395,2.123l-0.099,2.32l-0.1,2.32l0.198,2.518l0.296,2.715Z" style="fill:#fff;"/><path d="M216.517,153.723l-0.395,0.345l-0.198,0.395l0,0.494l-0.099,0.197l0.84,4.838l1.184,6.664l1.432,7.849l1.777,8.688l0.938,4.443l1.086,4.443l1.037,4.344l1.086,4.245l1.135,3.999l1.185,3.851l1.135,3.357l1.185,3.109l0.84,1.728l0.987,1.777l1.233,1.827l1.284,1.826l1.333,1.728l1.481,1.728l1.53,1.777l1.432,1.629l0.098,0.198l0.099,0.098l0.198,0.099l0.691,0l0.297,-0.197l0.394,-0.198l0.642,-0.592l1.58,-1.234l1.53,-1.284l0.691,-0.543l0.247,-0.198l0.197,-0.296l0.1,-0.296l0.098,-0.197l-0.098,-0.494l-0.1,-0.296l-0.246,-0.445l-0.494,-1.184l-0.493,-1.234l-0.297,-0.494l-0.494,-1.382l-0.395,-1.136l-0.246,-1.382l-0.297,-1.53l-0.296,-2.814l-0.296,-2.765l-0.296,-2.714l-0.79,-5.628l-0.345,-2.715l-0.396,-2.863l-0.394,-2.814l0,-0.296l-0.988,-4.147l-1.136,-4.542l-0.69,-2.32l-0.79,-2.419l-0.74,-2.418l-0.988,-2.32l-1.037,-2.419l-1.184,-2.321l-1.333,-2.221l-1.481,-2.221l-0.741,-1.086l-0.889,-0.938l-0.887,-1.086l-0.84,-0.938l-0.987,-0.889l-1.037,-0.889l-1.086,-0.839l-1.037,-0.79l-5.134,-3.455l-0.494,-0.296l-0.394,-0.099l-0.296,0l-0.148,0.198Z" style="fill:#fff;"/><path d="M333.66,243.616l-5.232,0.839l-0.395,0.198l-0.494,0.493l-0.099,0.296l0,0.395l0.099,0.297l0.197,0.246l0.593,0.79l1.135,1.284l1.185,1.333l0.592,0.592l0.84,0.839l0.889,0.889l0.887,0.789l0.84,0.741l1.728,1.284l1.777,0.937l1.728,0.889l1.53,0.691l1.58,0.445l1.333,0.394l1.432,0.198l1.382,0l1.234,-0.099l1.184,-0.197l1.728,-0.395l0.79,-0.148l0.938,-0.494l0.888,-0.592l0.84,-0.692l0.889,-0.74l0.69,-0.79l0.741,-0.888l0.691,-0.839l0.593,-0.889l1.826,-3.011l0.691,-1.432l0.395,-0.592l0.641,-1.235l0.79,-1.283l0.396,-0.543l0,-0.395l-0.099,-0.395l0,-0.296l-0.198,-0.197l-0.296,-0.395l-0.394,-0.198l-0.297,0l-0.099,-0.049l-1.925,0l-3.653,-0.198l-1.58,0.099l-2.764,0.148l-3.505,0.395l-3.85,0.395l-3.752,0.296l-3.407,0.395l-2.517,0.297l-1.136,0.098Z" style="fill:#fff;"/><path d="M253.984,283.701l-0.493,0.493l-0.641,1.284l-1.285,2.369l-1.727,3.801l-3.851,7.355l-0.79,1.136l-1.925,2.913l-2.32,3.653l-2.023,3.208l-1.383,2.222l-0.197,0.197l-1.037,1.728l-0.494,0.592l-0.394,0.691l-0.297,0.741l-0.346,0.79l-0.789,1.925l-0.494,0.79l-0.394,1.135l-0.199,0.592l-0.098,0.494l-0.099,0.494l0.099,0.345l0.297,0.297l0.394,0.197l0.494,0.099l0.691,0l1.333,-0.099l1.333,-0.296l0.197,0l0.79,-0.198l0.987,-0.246l1.037,-0.395l1.185,-0.395l1.826,-0.79l0.839,-0.395l1.679,-0.839l1.53,-0.987l1.432,-0.938l1.382,-1.086l1.135,-1.086l1.086,-1.037l0.939,-1.185l0.79,-1.135l0.098,-0.297l0.296,-0.789l0,-1.728l0.099,-0.79l0.098,-0.74l0.396,-1.58l0.543,-1.432l0.889,-1.431l0.887,-1.481l1.037,-1.432l1.086,-1.332l1.037,-1.481l0.889,-0.741l0.592,-0.691l0.543,-0.79l0.494,-0.592l0.296,-0.543l0,-0.494l-0.099,-0.296l0,-0.593l-0.197,-0.543l-0.396,-0.888l-0.641,-1.284l-0.889,-1.333l-1.135,-1.628l-0.987,-1.581l-0.889,-1.332l-0.444,-0.494l-0.395,-0.197l-0.296,-0.099l-0.099,-0.099l-2.32,0l-0.493,0.099l-0.199,0.198Z" style="fill:#fff;"/><path d="M396.009,191.98l-1.679,0.79l-3.751,1.629l-3.85,1.531l-1.679,0.789l-0.543,0.297l-1.283,0.691l-1.235,0.642l-0.593,0.296l-1.184,0.691l-2.419,1.53l-2.419,1.629l-1.136,0.691l-1.332,0.889l-3.11,1.826l-3.209,1.827l-1.333,0.888l-3.604,2.123l-3.553,2.024l-3.506,1.826l-3.357,1.728l-3.209,1.58l-2.863,1.332l-2.715,1.186l-2.419,1.036l-4.245,1.925l-2.024,1.185l-2.073,1.037l-1.827,1.086l-1.629,1.086l-8.046,5.084l-0.149,0.198l-0.098,0.296l0.098,0.889l0.05,0.197l0.099,0.198l0.197,0.148l0.297,0.197l11.6,0l5.43,-0.444l3.752,-0.494l4.245,-0.789l2.32,-0.494l2.419,-0.543l2.518,-0.692l2.517,-0.789l2.618,-0.839l2.715,-1.086l2.714,-1.037l2.666,-1.284l2.715,-1.333l2.715,-1.579l2.716,-1.629l2.616,-1.827l2.616,-1.925l2.617,-2.123l2.468,-2.32l2.32,-2.518l2.32,-2.714l2.222,-2.814l2.171,-3.11l1.926,-3.258l0.198,-0.494l0.542,-1.135l0.889,-1.975l0.987,-2.468l0,-0.79l-0.098,-0.296l0,-0.198l-0.198,-0.296l-0.198,-0.099l-0.296,-0.197l-0.494,0l-0.197,0.099l-0.493,0.296l-0.247,0.197Z" style="fill:#fff;"/><path d="M243.174,171.987l-0.197,0.198l-0.198,0.197l0,0.445l0.395,1.678l0.394,2.024l0.495,2.419l0.444,2.715l0.493,2.863l0.396,3.11l0.394,3.011l0.197,3.061l0,0.592l0.099,1.333l0.099,2.221l0.198,2.913l0.246,3.505l0.395,4.048l0.494,4.344l0.592,4.739l0.099,0.198l0.099,0.493l0.197,0.395l0.198,0.247l0.246,0.296l0.494,0.297l0.494,0.395l1.234,0.691l1.184,0.543l0.495,0.296l0.444,0.099l0.592,0.098l0.297,-0.098l0.296,-0.198l0.295,-0.197l0.297,-0.346l0.839,-1.58l2.024,-3.455l1.974,-3.505l0.939,-1.53l0.197,-0.494l0.296,-1.135l0,-1.827l-0.296,-1.283l-0.395,-1.333l-0.198,-0.79l-0.543,-1.926l-0.887,-2.912l-1.235,-3.752l-1.679,-4.344l-1.924,-4.739l-1.136,-2.419l-1.185,-2.419l-1.234,-2.517l-1.382,-2.419l-0.297,0l-1.036,-1.284l-0.691,-0.641l-1.037,-0.889l-1.086,-0.889l-0.889,-0.543l-0.246,-0.098l-0.297,-0.099l-0.296,0.099l-0.197,0.098Z" style="fill:#fff;"/><path d="M309.076,193.511l-1.53,0.394l-1.925,0.79l-2.222,1.037l-2.517,1.284l-5.529,3.011l-5.874,3.455l-5.727,3.505l-5.134,3.258l-4.048,2.617l-2.517,1.727l-0.346,0.395l-0.296,0.494l-1.284,1.234l-1.233,1.382l-1.186,1.333l-1.135,1.383l-0.987,1.431l-0.84,1.629l-0.394,0.79l-0.396,0.888l-0.296,0.84l-0.197,0.888l0,0.741l0.197,0.493l0.396,0.494l0.493,0.296l1.136,0.593l1.086,0.543l0.542,0.296l0.395,0.197l0.889,0.198l1.727,0.099l1.531,0l1.481,-0.099l1.234,-0.198l0.988,0l0.838,-0.098l0.791,-0.099l0.691,0l4.048,0.395l0.69,0.296l0.396,-0.099l0.345,-0.197l0.296,-0.296l0.198,-0.297l0.098,-1.036l0.099,-1.185l0.297,-0.839l0.69,-2.024l0.396,-1.283l0.444,-1.235l0.493,-1.184l0.494,-0.938l0.198,-0.198l0.493,-0.79l0.741,-1.086l1.086,-1.333l1.53,-1.53l0.987,-0.79l0.938,-0.889l1.186,-0.839l1.233,-0.79l1.383,-0.838l1.431,-0.79l0.889,-0.692l0.839,-0.592l0.197,0l1.086,-1.333l2.32,-2.912l2.222,-2.913l1.036,-1.234l0.593,-0.395l1.283,-0.938l1.235,-0.888l0.592,-0.395l0.494,-0.296l1.037,-0.741l0.987,-0.79l0.444,-0.296l0.296,-0.198l0.197,-0.197l0.099,-0.197l0.099,-0.297l-0.395,-0.641l-0.296,-0.198l-2.32,-1.086l-0.642,-0.197l-0.691,-0.099l-0.395,0l-0.198,0.099Z" style="fill:#fff;"/><path d="M280,279.85l-0.395,0.197l-0.295,0.297l-0.1,0.296l-0.099,0.247l-0.543,0.987l-1.283,2.419l-1.234,2.419l-0.592,1.086l-0.099,0.148l-0.395,0.691l-0.395,0.987l-0.395,1.136l-2.122,8.441l-0.297,0.148l0,0.395l-0.246,1.086l-0.494,1.234l-0.692,1.481l-1.332,2.419l-1.383,2.32l-1.431,2.419l-1.432,2.32l-0.79,1.136l-1.629,2.814l-1.579,2.715l-0.741,1.234l-1.086,1.925l-0.691,1.382l-0.542,1.333l-0.593,1.432l-0.593,1.481l-0.395,1.036l-0.493,1.086l0,0.987l0.296,0.543l0.099,0.099l0.296,0.198l0.297,0.098l1.727,0l1.185,-0.098l0.74,-0.099l0.494,0l0.395,-0.099l0.592,-0.197l0.592,-0.395l2.568,-1.333l2.616,-1.629l2.616,-1.678l2.716,-1.827l1.233,-1.037l1.383,-1.086l1.233,-1.036l1.285,-1.185l1.233,-1.234l1.284,-1.284l1.135,-1.332l1.185,-1.481l0.543,-0.642l0.494,-0.79l0.296,-0.79l0.296,-0.74l0.198,-1.58l0.098,-0.642l0,-2.517l-0.098,-0.79l-0.099,-0.691l0,-0.247l-0.099,-0.198l-0.098,-0.691l0,-0.098l0.197,-0.099l0.296,-0.889l0.395,-1.135l0.543,-1.185l0.691,-1.333l1.431,-3.406l0.297,-0.444l0.198,-0.889l-0.495,-1.234l-0.147,-0.691l-0.198,-0.592l-0.296,-0.593l-0.395,-0.444l-0.197,-0.494l-1.087,-2.32l0,-0.691l-0.246,-1.431l-0.297,-1.926l-0.296,-1.876l-0.296,-0.938l-0.395,-0.493l-1.332,-0.988l-1.482,-0.938l-0.543,-0.197l-0.691,0Z" style="fill:#fff;"/><path d="M309.274,234.434l-0.938,1.728l-0.79,1.629l-0.493,1.53l-0.396,1.383l-0.098,0.592l0,1.728l0.098,0.494l0.198,0.394l0.198,0.444l0.296,0.395l0.494,0.494l0.592,0.395l0.641,0.395l0.692,0.197l0.79,0.148l0.74,0.198l1.679,0l1.628,-0.099l1.629,-0.197l1.382,-0.247l1.136,-0.198l0.197,-0.098l0.198,-0.099l0.198,-0.395l0.098,-0.494l-0.098,-0.395l-0.099,-0.295l-0.099,-0.149l-0.198,-0.296l-0.493,-0.198l-0.74,-0.394l-0.889,-0.395l-0.889,-0.296l-0.641,-0.395l-0.593,-0.445l-0.593,-0.789l-0.69,-1.383l-0.84,-1.629l-0.69,-1.53l-0.889,-1.728l-0.148,-0.296l-0.296,-0.198l-0.198,-0.197l-0.198,0l-0.592,0.296l-0.296,0.395Z" style="fill:#fff;"/><path d="M242.581,253.539l-0.69,0.197l-0.643,0.296l-0.592,0.296l-0.494,0.494l-0.394,0.395l-0.346,0.543l-0.197,0.493l-0.198,0.692l-0.098,0.691l-0.1,0.74l-0.099,0.79l0,1.037l0.199,0.395l0.296,0.296l0.247,0.296l0.493,0.099l1.283,-0.198l1.037,-0.197l2.025,-0.296l2.073,-0.198l2.023,-0.099l2.025,-0.098l2.122,0l2.123,0.098l2.123,0.099l2.122,0.198l2.222,0.296l2.123,0.296l2.221,0.494l2.32,0.493l2.221,0.445l2.321,0.691l2.32,0.691l2.32,0.74l0.395,0.198l0.494,0.197l2.122,0.692l2.222,0.888l2.221,0.938l2.321,0.987l2.22,1.135l2.321,1.284l2.32,1.333l2.32,1.382l2.617,1.826l2.616,1.926l1.333,1.036l1.283,1.185l1.234,1.136l1.185,1.283l1.037,1.234l0.987,1.383l0.938,1.431l0.79,1.481l0.691,1.53l0.543,1.629l0.395,1.629l0.297,1.778l0,0.444l0.197,1.283l0.099,1.235l0.098,0.69l0,0.494l0.197,0.395l0.396,0.197l0.346,0l0.394,-0.098l0.395,-0.099l0.494,-0.493l0.987,-0.889l1.036,-0.642l0.494,-0.395l1.037,-0.888l1.086,-1.037l0.494,-0.691l0.444,-0.592l0.394,-0.79l0.396,-0.741l0,-0.197l0.197,-0.099l0,-0.099l0.493,-1.629l0.199,-1.678l0.098,-1.53l0,-1.629l-0.297,-1.58l-0.295,-1.53l-0.592,-1.63l-0.643,-1.53l-0.789,-1.579l-0.987,-1.531l-1.136,-1.431l-1.283,-1.58l-1.432,-1.53l-1.53,-1.481l-1.777,-1.432l-1.827,-1.432l0,-0.296l-2.32,-1.53l-2.419,-1.481l-2.32,-1.333l-2.518,-1.283l-2.419,-1.235l-2.517,-1.184l-2.568,-1.037l-2.616,-0.987l-2.616,-0.938l-2.715,-0.79l-2.716,-0.79l-2.813,-0.641l-2.765,-0.593l-2.813,-0.494l-2.913,-0.394l-2.913,-0.395l-0.247,0l-3.01,-0.099l-3.209,-0.099l-3.061,0.099l-3.11,0.099l-3.111,0.296l-3.06,0.493l-1.481,0.395l-1.53,0.297l-1.431,0.493l-1.482,0.445Z" style="fill:#fff;"/><path d="M233.301,301.126l0.197,0.099l0.197,0.395l0,0.543l-0.197,0.197l-0.197,0.297l-0.197,0.395l-0.297,0.197l-0.198,0.296l-0.147,0.296l-0.198,0.247l-0.296,0.198l-0.197,0.296l-0.296,0.296l-0.297,0.099l-0.296,0.395l-0.197,0.296l-0.198,0.197l-0.198,0.198l-0.246,0.247l-0.198,0.395l-0.198,0.197l-0.197,0.198l-0.197,0.296l-0.297,0.197l-0.197,0.395l-0.197,0.296l-0.198,0.247l-0.296,0.296l-0.247,0.198l-0.296,0.296l-0.099,0.198l-0.197,0.197l-0.198,0.197l-0.197,0.296l-0.197,0.198l-0.198,0l0,0.197l-0.395,0.099l-0.296,0.346l-1.234,0l-0.198,-0.198l-0.296,-0.049l-0.296,-0.198l-0.346,-0.197l-0.296,-0.395l-0.296,-0.296l-0.395,-0.297l-0.296,-0.394l-0.297,-0.099l-0.394,-0.296l-0.297,-0.149l-0.246,-0.197l-0.395,-0.395l-0.297,-0.296l-0.295,-0.296l-0.395,-0.197l-0.593,-0.593l-0.247,-0.345l-0.197,-0.297l-0.296,-0.296l-0.297,-0.395l-0.394,-0.098l-0.297,-0.297l-0.395,-0.197l-0.246,-0.296l-0.297,-0.297l-0.395,-0.246l-0.098,-0.395l-0.593,-0.593l-0.098,-0.395l-0.494,-0.197l-0.198,-0.198l-0.246,-0.296l-0.395,-0.345l-0.099,-0.297l-0.099,-0.296l-0.296,-0.395l-0.395,-0.296l-0.197,-0.197l-0.198,-0.296l-0.296,-0.247l-0.198,-0.297l-0.246,-0.394l-0.297,-0.296l-0.098,-0.297l-0.198,-0.394l-0.197,-0.297l-0.198,-0.296l-0.098,-0.345l-0.593,-0.593l-0.197,-0.395l-0.198,-0.296l-0.148,-0.296l-0.099,-0.395l-0.197,-0.247l-0.198,-0.296l-0.197,-0.395l-0.099,-0.296l-0.098,-0.296l-0.198,-0.395l-0.296,-0.297l-0.198,-0.148l-0.197,-0.197l-0.098,-0.494l-0.1,-0.395l-0.098,-0.395l-0.148,-0.296l-0.198,-0.296l-0.197,-0.346l0,-0.296l-0.197,-0.296l-0.099,-0.395l-0.198,-0.296l0,-0.296l-0.197,-0.395l-0.099,-0.247l-0.099,-0.296l-0.098,-0.395l-0.198,-0.592l-0.098,-0.395l-0.198,-0.494l-0.099,-0.345l-0.098,-0.297l-0.1,-0.296l-0.098,-0.395l-0.049,-0.296l0,-0.691l-0.099,-0.247l-0.099,-0.296l-0.098,-0.395l-0.198,-0.494l0,-0.691l-0.099,-0.247l-0.098,-0.395l0,-1.086l-0.198,-0.395l0,-1.333l-0.197,-0.295l0,-0.297l0.098,-0.592l0.099,-0.247l-0.099,-0.395l-0.098,-0.296l0.098,-0.297l0.099,-0.394l0,-1.432l-0.099,-0.395l-0.098,-0.296l0.098,-0.395l0.099,-0.493l0,-0.543l0.099,-0.395l0.099,-0.297l0,-1.53l0.098,-0.296l0.099,-0.296l0,-1.53l0.198,-0.297l0.098,-0.395l0.198,-0.494l0,-1.628l0.147,-0.297l0,-0.098l0.198,-0.395l0,-0.296l0.197,-0.297l0.1,-0.197l0.197,-0.247l0,-0.987l0.099,-0.099l-0.099,-0.296l0.296,-0.395l0.099,-0.296l0,-0.346l0.197,-0.395l0,-0.296l0.099,-0.395l0.198,-0.296l0.098,-0.099l0.099,-0.296l0.098,-0.296l0.099,-0.148l0.099,-0.297l0.099,-0.296l0.049,-0.395l0.197,-0.296l0,-0.494l0.297,-0.295l0.098,-0.248l0,-0.197l0.198,-0.296l0.099,-0.296l0.197,-0.297l0,-0.69l0.099,0l0.197,-0.099l0.099,-0.198l0,-0.444l0.197,-0.296l0.1,-0.198l0.098,-0.296l0.197,-0.296l0.099,-0.296l0.148,-0.395l0,-0.247l0.395,-0.395l0.099,-0.395l0.197,-0.099l0.099,-0.296l0.099,-0.395l0.197,-0.296l0,-0.296l0.198,-0.247l0,-0.197l0.296,-0.297l0.197,-0.296l0.198,-0.197l0.197,-0.296l0,-0.297l0.148,-0.395l0.297,-0.148l0.197,-0.197l0.099,-0.296l0.099,-0.395l0.197,-0.198l0.296,-0.197l0.099,-0.296l0.099,-0.395l0.197,-0.099l0.198,-0.098l0,-0.445l0.098,-0.198l0.099,-0.197l0.247,-0.098l0.197,-0.099l0,-0.494l0.198,-0.197l0.197,-0.198l0.099,-0.098l0.198,-0.099l0,-0.346l0.197,-0.099l0.099,-0.296l0.099,-0.098l0.098,-0.198l0.099,0l0.395,-0.395l0.296,-0.099l0.247,-0.197l0.395,-0.197l0.987,0l0.296,0.197l0.198,0.197l0.197,0.198l0.148,0.395l0.099,0.296l-0.247,0.296l-0.197,0.346l0,0.592l-0.198,0.395l-0.197,0.296l0,0.84l-0.395,0.295l-0.297,0.395l0,1.086l-0.098,0.297l-0.296,0.543l-0.198,0.296l-0.098,0.296l0,0.592l-0.099,0.198l-0.049,0.099l-0.099,0.543l-0.099,0.296l-0.099,0.494l-0.098,0.394l-0.198,0.494l-0.099,0.395l0,0.346l-0.197,0.493l-0.099,0.296l-0.098,0.395l-0.099,0.494l-0.099,0.296l0,0.543l-0.099,0.197l-0.098,0.1l0,0.888l-0.198,0.395l-0.099,0.444l-0.197,0.395l0,0.296l-0.099,0.494l-0.099,0.395l0.099,0.395l-0.099,0.444l0,0.889l-0.098,0.296l-0.099,0.296l0,0.839l-0.049,0.395l-0.198,0.494l0,0.296l-0.197,0.395l0.098,0.444l0.099,0.395l-0.099,0.296l-0.098,0.593l0,2.123l0.098,0.394l0.099,0.494l-0.099,0.296l-0.098,0.247l0,0.888l0.098,0.395l0.099,0.297l0,1.53l0.099,0.296l0.148,0.593l-0.049,0.296l0.049,0.247l0,0.691l0.099,0.395l0.098,0.493l0,0.593l0.099,0.345l0.099,0.296l0,0.395l0.197,0.297l0,0.888l0.099,0.247l0.198,0.296l0.098,0.395l0.099,0.296l0.099,0.297l0.099,0.394l0,0.296l0.197,0.247l0.099,0.395l0.098,0.296l0.099,0.296l0.198,0.395l0,0.692l0.197,0.345l0,0.395l0.198,0.296l0.148,0.198l0.197,0.296l0.099,0.395l0.197,0.296l0.197,0.247l0,0.691l0.198,0.296l0.296,0.395l0.099,0.296l0.296,0.297l0.099,0.197l0.099,0.246l0.197,0.297l0,0.296l0.247,0.395l0.197,0.296l0.198,0.297l0.198,0.197l0,0.741l0.395,0.197l0.295,0.296l0.099,0.197l0.099,0.494l0.197,0.099l0.297,0.296l0.098,0.197l0.247,0.247l0.198,0.296l0.296,0.297l0.098,0.197l0.297,0.296l0.098,0.296l0.099,0.297l0.198,0.296l0.296,0.197l0.296,0.247l0.296,0.296l0.247,0.297l0.198,0.394l0.394,0.198l0.198,0.296l0.296,0.198l0.099,0.098l0.099,0.297l0.197,0.246l0.198,0.198l0.296,0l0.148,0.197l0.099,0l0.098,0.099l0,0.296l0.296,0.198l0.198,0.098l0.198,0.297l0.197,0.098l0.197,0.198l0.198,0.296l0.098,0.098l0.198,0.248l0.395,0l0.346,0.295l0.296,0.1l0,0.295l0.197,0.198l0.197,0.099l0.297,0.099l0.099,0.197l0.098,0.296l0.296,0l0.297,0.197l0.197,0l0.247,0.198l0,0.099l0.198,0.049l0.295,0.198l0.198,0.296l0.197,0.098l0.198,0.099l0.099,0l0.296,0.198l0.197,0.098l0.099,0.099l0.297,0.198l0.048,0.098l0.198,0.099l0.297,0.099Z" style="fill:#fcd22a;"/><path d="M282.123,331.634l-0.494,0.098l-0.395,-0.098l-0.098,-0.05l-0.099,-0.296l0,-0.987l0.197,-0.395l0.296,-0.395l0.199,-0.198l0.197,-0.049l0.197,-0.098l0.099,0l0.197,-0.296l0.197,-0.198l0.396,-0.197l0.098,-0.297l0.099,-0.395l0.444,-0.197l0.198,-0.197l0.296,-0.198l0.395,-0.247l0.099,-0.296l0.296,-0.296l0.098,-0.395l0.099,-0.296l0.444,-0.198l0.198,-0.296l0.296,-0.296l0.395,-0.247l0.198,-0.197l0.197,-0.297l0.296,-0.197l0.197,-0.395l0.198,-0.099l0.198,-0.197l0.147,-0.296l0.297,-0.297l0.198,-0.098l0.197,-0.099l0.197,-0.346l0.296,-0.098l0.198,-0.297l0.198,-0.098l0.197,-0.297l0.197,-0.197l0.297,-0.098l0.345,0.098l0.494,0l0.296,0.099l0.297,0.098l1.924,0l0.593,0.198l0.296,0.099l1.333,0l0.296,0.098l0.296,0.099l0.593,-0.099l0.247,-0.098l1.382,0l0.395,0.098l0.395,0.099l0.641,0l0.296,0.099l0.396,0.099l0.295,-0.099l0.395,-0.099l1.432,0l0.297,-0.099l0.394,-0.098l0.396,0.098l0.443,0.099l3.406,0l0.593,-0.099l0.247,-0.098l0.395,0.098l0.296,0.099l0.987,0l0.297,-0.197l0.345,0.098l0.493,0.099l0.396,-0.197l0.296,-0.297l0.296,0.198l0.395,0.099l0.543,0l0.493,-0.099l0.395,-0.198l1.284,0l0.543,-0.197l0.987,0l0.395,-0.098l0.444,-0.099l0.296,0.099l0.396,0.098l0.296,-0.098l0.296,-0.099l0.395,0l0.296,-0.198l1.234,0l0.493,-0.099l0.396,0.099l0.394,-0.099l0.248,-0.197l0.691,0l0.592,-0.198l2.221,0l0.296,-0.147l0.297,-0.198l0.642,0l0.296,-0.099l0.395,-0.098l0.296,-0.198l0.296,-0.098l1.53,0l0.297,-0.1l0.395,-0.098l0.591,0l0.445,-0.197l0.395,0l0.395,-0.1l0.297,-0.098l0.296,-0.099l0.394,-0.197l0.84,0l0.197,-0.099l0.198,-0.099l0.197,-0.197l0.296,0.099l0.395,0.098l0.296,-0.197l0.247,0l0.593,-0.099l0.296,-0.099l0.691,0l0.296,-0.148l0.346,-0.296l0.394,0l0.495,-0.197l0.987,0l0.296,-0.198l0.148,-0.098l0.197,-0.099l0.691,0l0.297,-0.296l0.394,-0.198l0.692,0l0.247,-0.099l0.296,-0.098l0.394,-0.198l0.987,0l0.198,-0.296l0.148,-0.197l0.692,0l0.295,-0.149l0.296,-0.197l0.396,-0.099l0.296,-0.098l0.641,0l0.297,-0.198l0.296,-0.099l0.395,0l0.297,-0.197l0.295,-0.099l0.395,-0.099l0.247,-0.098l0.296,-0.099l0.395,-0.099l0.296,-0.197l0.296,-0.099l0.396,-0.099l0.098,-0.098l0.296,-0.099l0.346,-0.198l0.296,0l0.297,-0.148l0.394,-0.296l0.593,0l0.345,-0.197l0.297,-0.198l0.296,-0.099l0.395,-0.098l0.296,-0.099l0.296,-0.198l0.691,0l0.247,-0.296l0.395,-0.099l0.099,-0.098l0.295,-0.099l0.297,-0.296l0.395,-0.148l0.296,0l0.345,-0.198l0.297,-0.098l0.296,-0.297l0.691,0l0.297,-0.197l0.394,-0.099l0.297,-0.197l0.246,-0.197l0.396,0l0.295,-0.198l0.198,-0.099l0.197,-0.197l0.395,-0.296l0.296,-0.099l0.296,-0.149l0.346,0l0.296,-0.197l0.297,0l0.394,-0.296l0.297,-0.197l0.296,-0.099l0.346,-0.099l0.296,-0.197l0.296,0l0.296,-0.395l0.198,-0.296l0.296,0l0.394,-0.198l0.1,-0.099l0.296,-0.098l0.247,-0.148l0.098,-0.099l0.395,-0.099l0.296,-0.099l0.198,-0.098l0.296,-0.297l0.592,0l0.198,-0.296l0.246,-0.197l0.198,-0.099l0.198,-0.296l0.394,-0.099l0.297,-0.197l0.099,-0.099l0.295,-0.099l0.296,-0.099l0.198,-0.246l0.247,0l0.297,-0.198l0.197,-0.197l0.296,-0.099l0.098,-0.197l0.296,-0.198l0.396,0l0.296,-0.197l0.098,-0.099l0.346,-0.198l0.395,-0.395l0.099,-0.197l0.099,0l0.493,-0.099l0.395,0.099l0.938,0l0.296,0.197l0.198,0.099l0.197,0.099l0.099,0.296l0,0.79l-0.099,0.395l-0.098,0.296l-0.099,0.049l-0.198,0.099l-0.197,0.395l-0.198,0.296l-0.247,0.198l-0.098,0.197l-0.395,0.395l-0.099,0.296l-0.296,0.198l-0.395,0.247l-0.197,0.296l-0.198,0.099l-0.296,0.197l-0.346,0.198l-0.197,0.394l-0.198,0.297l-0.295,0.197l-0.396,0l-0.197,0.395l-0.198,0.247l-0.395,0.197l-0.246,0.198l-0.099,0.197l-0.297,0.297l-0.394,0.197l-0.296,0.197l0,0.198l-0.1,0.098l-0.394,0.198l-0.197,0.296l-0.198,0.099l-0.297,0.247l-0.345,0.197l-0.296,0.296l-0.296,0.099l-0.099,0.197l-0.098,0.1l-0.099,0.098l-0.198,0.099l-0.296,0.296l-0.395,0.099l-0.198,0.197l-0.345,0.296l-0.198,0.148l-0.296,0.198l-0.296,0.099l-0.296,0.296l-0.198,0.098l-0.098,0.099l-0.099,0.099l-0.099,0.197l-0.296,0.099l-0.247,0.296l-0.394,0.099l-0.297,0.198l-0.296,0.197l-0.395,0.197l-0.296,0.099l-0.296,0.05l-0.346,0.296l-0.099,0.197l-0.296,0.296l-0.395,0.099l-0.296,0.198l-0.296,0.296l-0.395,0.099l-0.296,0.098l-0.247,0.198l-0.395,0.197l-0.098,0.198l-0.297,0.246l-0.296,0.099l-0.395,0.296l-0.296,0.099l-0.297,0.099l-0.345,0.197l-0.296,0.297l-0.296,0l-0.396,0.197l-0.295,0.198l-0.395,0.296l-0.247,0l-0.296,0.197l-0.395,0.099l-0.296,0.099l-0.296,0.246l-0.396,0.099l-0.296,0.296l-0.444,0.297l-0.296,0.098l-0.297,0.197l-0.296,0.297l-0.394,0l-0.297,0.197l-0.296,0.099l-0.346,0.296l-0.296,0.099l-0.295,0.148l-0.396,0.099l-0.296,0.098l-0.296,0.099l-0.395,0.099l-0.198,0.099l-0.148,0.296l-0.493,0.099l-0.396,0.197l-0.296,0.099l-0.394,0.098l-0.297,0l-0.395,0.198l-0.247,0.099l-0.295,0.098l-0.395,0.198l-0.297,0.296l-0.296,0l-0.394,0.148l-0.297,0.099l-0.247,0.099l-0.395,0.197l-0.296,0l-0.296,0.198l-0.395,0.098l-0.197,0l-0.198,0.099l-0.098,0.197l-0.1,0.099l-0.839,0l-0.394,0.198l-0.297,0.296l-0.296,0.099l-0.395,0.098l-0.296,0.099l-0.247,0.099l-0.691,0l-0.296,0.247l-0.395,0.197l-0.592,0l-0.346,0.099l-0.296,0.099l-0.297,0.098l-0.394,0.099l-0.296,0.099l-0.297,0.098l-0.394,0.099l-0.248,0.099l-0.295,0.197l-0.396,0.099l-0.592,0l-0.395,0.198l-0.296,0l-0.247,0.296l-0.395,0.099l-0.593,0l-0.394,0.098l-0.296,0.198l-0.643,0l-0.295,0.147l-0.296,0.198l-0.395,-0.098l-0.297,-0.1l-0.296,0.1l-0.395,0.098l-0.246,0.197l-0.297,0.198l-0.395,0.099l-0.296,0.197l-0.494,-0.098l-0.394,-0.198l-0.296,0.296l-0.346,0.198l-1.284,0l-0.296,0.099l-0.394,0.098l-0.346,0.198l-0.494,0l-0.296,0.197l-0.296,0.099l-0.939,0l-0.394,0.197l-0.396,-0.099l-0.493,-0.098l-0.296,0.098l-0.297,0.099l-0.394,0.099l-0.247,0.099l-0.395,-0.099l-0.494,0.099l-0.69,0l-0.297,0.148l-0.246,0l-0.396,0.098l-0.296,0.198l-1.53,0l-0.296,0.099l-0.297,0.098l-1.381,0l-0.099,0.099l-0.247,0.099l-0.296,-0.099l-0.396,0.099l-1.283,0l-0.296,0.099l-0.345,0.098l-0.297,-0.098l-0.296,-0.099l-0.691,0l-0.296,0.099l-0.395,0.098l-1.926,0l-0.296,0.099l-0.345,0.099l-0.296,0.099l-0.296,0.197l-0.396,-0.099l-0.296,-0.197l-0.295,-0.099l-0.396,-0.099l-0.247,0.099l-0.296,0.099l-0.691,0l-0.296,-0.099l-0.395,-0.099l-0.297,0.099l-0.246,0.099l-9.281,0l-0.296,-0.099l-0.394,-0.099l-2.815,0l-0.296,-0.197l-2.715,0l-0.098,-0.099l-0.247,-0.099l-1.383,0l-0.197,-0.098l-0.198,-0.099l-0.296,0.099l-0.345,0.098l-0.296,-0.098l-0.297,-0.099l-0.197,-0.198l-0.099,-0.098Z" style="fill:#cc151c;"/><path d="M322.603,221.451l4.097,-4.245l14.661,-12.539l2.123,-1.481l2.122,-1.234l1.581,-0.987l0.542,-0.395l0.889,-0.395l5.43,-2.567l2.814,-1.382l2.666,-1.333l2.518,-1.284l2.122,-0.938l4.245,-1.925l3.999,-1.975l3.851,-1.925l3.85,-1.925l3.9,-2.123l3.752,-2.221l3.752,-2.419l1.876,-1.234l1.727,-1.283l1.728,-1.333l1.728,-1.481l1.481,-1.432l1.333,-1.432l1.283,-1.481l1.037,-1.53l2.123,-3.11l1.826,-3.06l0.79,-1.284l0,-0.197l0.691,-1.136l0.395,-0.888l0.346,-0.889l0.296,-0.938l0.197,-0.888l2.024,-7.158l0.099,-0.642l0,-0.593l-0.099,-0.295l-0.098,-0.198l-0.149,-0.197l-0.197,-0.198l-0.297,-0.099l-0.296,0l-0.592,0.198l-0.592,0.394l-0.346,0.395l-0.889,0.593l-1.924,1.431l-1.926,1.333l-0.889,0.692l-1.333,0.987l-1.974,1.234l-2.32,1.382l-2.567,1.333l-1.382,0.79l-2.913,1.728l-2.962,1.629l-1.382,0.789l-1.53,0.79l-3.604,1.629l-3.554,1.63l-1.629,0.691l-3.111,1.431l-3.01,1.383l-3.062,1.431l-3.307,1.629l-5.579,2.518l-3.208,1.481l-3.85,1.925l-2.025,1.135l-2.073,1.284l-2.123,1.234l-2.122,1.382l-2.024,1.53l-2.024,1.432l-1.926,1.678l-1.826,1.63l-1.777,1.629l-1.432,1.727l-0.691,0.889l-0.642,0.888l-0.592,0.839l-0.494,0.889l-1.036,1.925l-2.32,4.147l-2.616,4.64l-1.926,3.702l-1.382,2.519l-1.234,2.369l-1.284,2.32l-1.037,2.172l-0.888,2.024l-0.889,1.728l-0.642,1.431l-0.493,1.185l0,0.839l0.395,0.198l0.494,0.197l0.641,0.198l0.691,0.296l0.395,-0.099l0.494,-0.197l0.741,-0.79l1.776,-1.629l1.827,-1.728l0.741,-0.79Z" style="fill:#fff;"/></g></g></svg>