<?xml version="1.0" standalone="no"?><!DOCTYPE svg PUBLIC "-//W3C//DTD SVG 1.1//EN" "http://www.w3.org/Graphics/SVG/1.1/DTD/svg11.dtd"><svg width="98px" height="72px" version="1.1" xmlns="http://www.w3.org/2000/svg" xmlns:xlink="http://www.w3.org/1999/xlink" xml:space="preserve" style="fill-rule:evenodd;clip-rule:evenodd;stroke-linejoin:round;stroke-miterlimit:1.41421;"><g><g transform="matrix(0.513128,0,0,0.513128,-0.454203,-13.4537)"><path d="M97.282,53.208c23.783,0 43.218,19.436 43.218,43.17c0,23.831 -19.436,43.168 -43.218,43.168c-23.782,0 -43.17,-19.338 -43.17,-43.168c-0.001,-23.733 19.387,-43.17 43.17,-43.17Z" style="fill:#fcc800;"/><path d="M97.282,55.992c22.22,0 40.386,18.167 40.386,40.484c0,22.219 -18.166,40.387 -40.386,40.387c-22.269,0 -40.436,-18.168 -40.436,-40.387c-1.42109e-14,-22.317 18.167,-40.484 40.436,-40.484Z" style="fill:#e40f1b;"/><rect x="2.834" y="75.526" width="187.088" height="41.9" style="fill:#fcc800;"/><rect x="6.302" y="78.065" width="180.151" height="36.871" style="fill:#000;"/><path d="M88.491,96.916l0,6.348c1.514,1.025 1.856,5.129 4.249,5.129l5.127,0c-1.416,-3.029 -1.905,-6.203 -4.395,-6.887c3.711,-1.66 5.273,-4.443 5.127,-8.643c-0.098,-4.249 -4.199,-8.4 -9.425,-8.4l-0.684,0l0,5.812l1.856,0c1.318,0 2.735,1.807 2.735,3.125c0,1.27 -0.684,3.516 -2.638,3.516Z" style="fill:#fff;"/><path d="M88.491,90.274l0,-5.812l-11.085,0l0,23.93l5.86,0l0,-5.373l4.542,0c0.244,0 0.488,0.098 0.684,0.244l0,-6.348l-4.737,0l0,-6.641Z" style="fill:#fff;"/><path d="M14.409,108.393l0,-23.93l6.641,0l5.762,10.06l5.861,-10.207l7.13,0l0,24.077l-6.055,0l0,-12.308l-6.35,9.132l-6.983,-8.985l0,12.161l-6.006,0Z" style="fill:#fff;"/><path d="M58.506,100.627l0,5.273l6.105,0l1.075,2.493l6.006,0l-9.376,-23.93l-3.81,0l0,6.934l3.81,9.23l-3.81,0Z" style="fill:#fff;"/><path d="M58.506,91.397l0,-6.934l-3.32,0l-10.06,23.93l6.202,0l0.977,-2.493l6.201,0l0,-5.273l-3.809,0l3.566,-9.963l0.243,0.733Z" style="fill:#fff;"/><path d="M102.555,84.463l0,5.909l7.277,0l0,18.021l5.908,0l0,-18.021l6.936,0l0,-5.909l-20.121,0Z" style="fill:#fff;"/><path d="M158.227,84.463l-0.098,13.43l-9.375,-13.43l-5.813,0l0,23.93l5.764,0l0,-12.698l8.889,12.698l6.494,0l0,-23.93l-5.861,0Z" style="fill:#fff;"/><rect x="128.291" y="84.463" width="6.105" height="23.93" style="fill:#fff;"/><rect x="172.438" y="84.463" width="6.105" height="23.93" style="fill:#fff;"/></g></g></svg>