<?xml version="1.0" standalone="no"?><!DOCTYPE svg PUBLIC "-//W3C//DTD SVG 1.1//EN" "http://www.w3.org/Graphics/SVG/1.1/DTD/svg11.dtd"><svg width="98px" height="72px" version="1.1" xmlns="http://www.w3.org/2000/svg" xmlns:xlink="http://www.w3.org/1999/xlink" xml:space="preserve" style="fill-rule:evenodd;clip-rule:evenodd;stroke-linejoin:round;stroke-miterlimit:1.41421;"><g><g transform="matrix(0.225243,0,0,0.225243,1,26.4459)"><path d="M55.337,14.821c5.319,0.034 11.023,0.975 15.963,3.755c5.321,-2.715 11.272,-3.829 19.029,-3.829c7.335,0.108 20.029,3.448 25.488,13.498c6.437,-8 16.559,-13.638 29.186,-13.638c10.576,0 18.782,3.237 24.622,8.524l0,-6.68l42.781,0c3.619,-0.974 7.828,-1.597 12.035,-1.772c0.632,0 1.184,0 1.771,0.067c5.322,0.108 10.055,1.603 13.915,4.241c8.869,-5.104 15.445,-10.988 21.706,-18.987l20.834,0l0,16.592l7.995,0l0,5.324c6.332,-4.558 14.195,-7.309 22.614,-7.309c11.131,0 21.319,4.766 28.169,12.352c5.358,-9.148 16.767,-13.076 27.553,-13.076c1.805,-0.035 3.367,0.034 4.867,0.237c4.691,0.418 9.009,1.358 12.692,2.332l23.551,0l0,30.643l-2.198,0c3.237,3.827 5.05,8.521 4.49,15.064c-2.091,16.589 -14.54,22.781 -31.825,22.673c-7.967,0.071 -16.587,-1.806 -16.587,-1.806l-24.348,0l0,-8.799c-6.89,6.567 -16.353,10.502 -26.507,10.502c-8.344,0 -16.206,-2.541 -22.57,-7.269l0,1.354c-6.957,4.662 -12.631,5.914 -18.643,6.017l-1.223,0c-0.38,0 -0.726,-0.069 -1.142,-0.069c-6.438,-0.031 -11.793,-1.354 -15.863,-3.967l0,2.127l-84.032,0l0,-6.712c-5.842,5.423 -13.705,8.553 -25.323,8.553c-8.695,0.069 -16.691,-2.746 -22.957,-7.828l0,5.949l-121.38,0l0,-23.199l3.299,0l0,-20.034l-3.299,0l0,-23.098l42.638,0c2.265,-0.691 5.356,-1.353 8.35,-1.596c1.424,-0.102 2.853,-0.21 4.349,-0.136" style="fill:#fff;fill-rule:nonzero;"/><path d="M276.053,23.303l7.973,0l0,9.567l-7.973,0l0,28.314c0,3.787 3.481,4.311 7.898,3.334l0,10.817c-2.019,1.328 -5.423,2.888 -14.507,2.572c-14.192,0 -19.891,-7.79 -19.891,-17.041l0,-27.996l-3.197,0l0,-9.603c10.503,-6.012 18.784,-16.587 18.784,-16.587l10.911,0l0,16.623Z" style="fill:#233688;fill-rule:nonzero;"/><path d="M319.917,49.774c0,8.972 -1.494,15.44 -6.641,15.44c-5.147,0 -6.612,-6.47 -6.612,-15.44c0,-9.149 1.567,-15.377 6.612,-15.377c5.281,0 6.641,6.228 6.641,15.377M343.671,49.774c0,-15.725 -13.599,-28.348 -30.395,-28.348c-16.835,0 -30.437,12.623 -30.437,28.348c0,15.615 13.602,28.135 30.437,28.135c16.796,0 30.395,-12.517 30.395,-28.135" style="fill:#233688;fill-rule:nonzero;"/><path d="M355.427,56.974c4.277,4.414 12.939,8.032 19.896,9.148c0.8,0.136 1.669,0.205 2.713,0.277l0.8,0c1.185,-0.072 2.228,-0.312 2.753,-1.114c0.619,-0.978 -0.211,-2.504 -2.65,-3.578c-5.877,-2.474 -15.822,-4.699 -20.864,-7.343c-7.404,-3.617 -13.255,-7.756 -12.77,-17.285c1.116,-13.947 15.653,-16.138 24.216,-16.036c1.561,0 2.778,0.073 3.686,0.243c8.798,0.804 16.554,3.374 20.729,5.011l0,-3.34l9.669,0l0,18.641c0,0 -1.672,0 -3.306,0.034c-0.211,0 -0.454,0 -0.698,0.067l-2.784,0c-0.724,-0.067 -1.286,-0.067 -1.286,-0.102c-4.104,-4.065 -14.15,-8.345 -20.205,-9.315c-0.801,-0.143 -1.666,-0.252 -2.263,-0.252c-1.979,-0.067 -3.164,0.562 -3.44,1.711c-0.279,1.63 1.67,2.537 3.305,3.231c5.326,2.09 13.183,3.652 19.305,6.823c8.9,4.306 14.432,8.797 13.602,17.562c-1.463,11.58 -9.604,16.553 -25.016,16.867c-12.725,-0.418 -19.337,-3.615 -23.889,-5.457l0,3.336l-10.474,0l0,-19.129Z" style="fill:#233688;fill-rule:nonzero;"/><path d="M206.356,26.751c5.044,-3.687 11.58,-5.534 19.617,-5.289c10.506,0.035 17.598,7.722 17.598,17.357l0,27.614l3.373,0l-0.032,9.844l-33.046,-0.032l0,-9.812l3.308,0l0,-22.955c0,-3.726 -2.744,-5.843 -5.427,-5.771c-2.779,0.032 -5.491,2.364 -5.491,7.165l0,21.528l3.267,0l-0.069,9.879l-33.077,0l0,-9.846l3.306,0l0,-33.496l-3.34,0l0,-9.805l30.016,0Z" style="fill:#233688;fill-rule:nonzero;"/><path d="M145.003,21.387c17.739,0 31.826,13.498 30.365,31.828l-35.588,0c-0.101,6.577 2.435,12.243 9.115,12.243c4.768,0 7.79,-1.703 10.021,-5.494l14.607,0.208c-3.618,8.695 -12.491,18.156 -29.147,18.156c-16.665,0.065 -29.809,-13.282 -29.809,-28c0.001,-14.397 11.825,-28.941 30.436,-28.941M146.075,34.397c-5.357,0 -6.153,5.672 -6.187,10.154l12.73,0c0.105,-4.345 -1.011,-10.154 -6.543,-10.154" style="fill:#233688;fill-rule:nonzero;"/><path d="M84.932,66.433l0,-22.955c0,-3.726 -2.715,-5.875 -5.426,-5.843c-2.677,0 -5.427,2.334 -5.427,7.235l0,21.562l3.272,0l0,9.844l-33.145,0l0,-9.844l3.232,0l0,-22.954c0,-3.76 -2.71,-5.875 -5.387,-5.771c-2.785,0.032 -5.565,2.364 -5.565,7.165l0.034,21.562l3.266,0l0,9.846l-33.007,0l0,-9.846l3.233,0l0.032,-33.46l-3.265,0l0,-9.669l29.707,0l0,3.271c2.567,-1.595 7.404,-4.38 15.058,-5.044c0.729,-0.067 1.496,-0.067 2.155,-0.067c0.662,-0.034 1.359,-0.034 2.092,0c5.984,0.067 11.195,1.387 15.3,4.978c5.425,-3.551 10.541,-5.084 19.403,-5.084c8.874,0.072 21.084,5.218 21.084,17.424l-0.073,27.653l3.272,0l0,9.844l-33.113,0l0,-9.844l3.269,0l0,-0.003Z" style="fill:#233688;fill-rule:nonzero;"/><path d="M47.994,67.097l-0.068,-22.955c0,-0.143 0.068,-1.464 -0.346,-2.961c-0.316,-0.94 -0.804,-1.912 -1.67,-2.638l2.366,-2.469c3.057,2.746 3.126,6.917 3.057,8.209l0,26.011l-3.231,0l0,2.157l-3.306,3.238l0.073,-8.66Z" style="fill:#6c6faf;fill-rule:nonzero;"/><path d="M85.559,72.417l-3.197,3.271l0.034,-8.66l3.128,0l0,-22.82c-0.033,-0.277 0.104,-3.969 -2.297,-5.809l2.471,-2.365c3.238,2.642 3.238,6.956 3.238,8.248l0,26.011l-3.377,0Z" style="fill:#6c6faf;fill-rule:nonzero;"/><path d="M32.692,70.293l3.198,0l3.376,-3.265l-3.267,0Z" style="fill:#6c6faf;fill-rule:nonzero;"/><path d="M70.186,70.293l3.237,0l3.441,-3.265l-3.307,0Z" style="fill:#6c6faf;fill-rule:nonzero;"/><path d="M107.644,70.293l3.163,0l3.55,-3.265l-3.3,0Z" style="fill:#6c6faf;fill-rule:nonzero;"/><path d="M7.199,23.823l3.375,3.306l22.085,0l3.266,-3.408Z" style="fill:#6c6faf;fill-rule:nonzero;"/><path d="M54.638,25.635c0.667,0 1.32,0 1.846,0.067c1.388,0 2.402,0.106 2.539,0.175l3.438,-3.197c-2.398,-0.486 -4.691,-0.764 -6.917,-0.839c-11.55,-0.237 -19.412,5.321 -20.277,6.328c-1.185,1.225 -2.021,1.813 -2.575,2.474l0,3.029c0,0 4.802,-5.149 14.642,-7.41c2.192,-0.486 4.972,-0.627 7.304,-0.627" style="fill:#6c6faf;fill-rule:nonzero;"/><path d="M10.466,32.45l0,34.647l-3.199,0l0,8.552l3.341,-3.232l0,-2.124l3.301,0l0,-41.143Z" style="fill:#6c6faf;fill-rule:nonzero;"/><path d="M218.182,36.243l-2.4,2.433c2.33,1.777 2.088,5.323 2.154,5.606l-0.066,22.847l-3.44,0l0.068,8.697l3.506,-3.308l0,-2.119l3.205,0l0,-26.048c0.102,-1.258 0.068,-5.432 -3.027,-8.108" style="fill:#6c6faf;fill-rule:nonzero;"/><path d="M202.426,70.293l3.129,0l3.376,-3.196l-3.272,0Z" style="fill:#6c6faf;fill-rule:nonzero;"/><path d="M239.573,70.293l3.232,0l3.308,-3.196l-3.238,0Z" style="fill:#6c6faf;fill-rule:nonzero;"/><path d="M177.036,23.823l3.301,3.306l22.193,0l3.205,-3.408Z" style="fill:#6c6faf;fill-rule:nonzero;"/><path d="M224.234,25.809c2.397,0.068 4.072,0.312 4.277,0.347l3.023,-2.854c-2.291,-0.867 -4.661,-1.246 -7.095,-1.214c-7.965,0 -16.142,3.648 -18.886,5.979c-1.18,1.082 -2.753,2.298 -3.237,2.887l0,3.096c0,0 4.734,-4.941 14.612,-7.409c2.681,-0.689 5.179,-0.865 7.306,-0.832" style="fill:#6c6faf;fill-rule:nonzero;"/><path d="M180.304,32.212l0,34.885l-3.165,0l0,8.627l3.306,-3.274l0,-2.331l3.234,0l-0.034,-40.693Z" style="fill:#6c6faf;fill-rule:nonzero;"/><path d="M89.523,25.702c3.69,0 6.016,0.56 6.225,0.737l3.03,-2.963c-0.42,-0.174 -3.652,-1.702 -9.842,-1.702c-1.118,0 -2.333,0.1 -3.688,0.242c-6.748,0.663 -10.888,2.962 -13.805,4.836c-0.455,0.276 -3.032,2.397 -3.032,2.472c0.21,0.203 2.226,1.732 2.577,2.085c0.555,-0.171 4.346,-4.104 11.929,-5.254c2.502,-0.379 4.766,-0.52 6.606,-0.453" style="fill:#6c6faf;fill-rule:nonzero;"/><path d="M144.513,25.217c4.035,-0.104 8.276,0.702 12.696,2.715l2.646,-2.502c-1.226,-0.905 -7.309,-3.271 -14.751,-3.413c-7.405,-0.068 -16.312,2.09 -23.272,10.539c-9.002,10.753 -7.686,23.2 -2.331,31.86l2.366,-2.363c-4.483,-7.547 -5.178,-18.995 2.717,-27.758c4.731,-5.186 11.823,-8.865 19.929,-9.078" style="fill:#6c6faf;fill-rule:nonzero;"/><path d="M141.351,45.006c0.274,0 0.454,0 0.727,0.034l10.646,0l0.243,-0.034l0.106,0c0.206,-2.921 -0.387,-8.101 -3.271,-9.907l2.433,-2.401c5.599,4.904 4.317,15.791 4.317,15.791l-20.665,-0.042l3.515,-3.44c0,-0.001 0.73,-0.035 1.949,-0.001" style="fill:#6c6faf;fill-rule:nonzero;"/><path d="M139.402,52.593c0,0 -1.325,11.062 6.959,13.11c0.898,0.209 1.734,0.351 2.64,0.384c5.392,0.17 9.042,-3.583 10.226,-5.463l13.464,0.107l-5.743,3.302l-5.982,-0.243c0,0 -3.308,5.252 -10.92,5.604l-1.568,0c-9.492,-0.42 -13.04,-6.965 -12.382,-19.865Z" style="fill:#6c6faf;fill-rule:nonzero;"/><path d="M272.125,27.196l7.896,0l3.342,-3.265l-8.106,0Z" style="fill:#6c6faf;fill-rule:nonzero;"/><path d="M265.451,7.338c0,0 -7.654,10.155 -18.641,16.349l0.065,8.596l3.267,-3.204l0.041,-3.578c6.846,-3.626 16.729,-14.856 16.729,-14.856l5.041,0l3.303,-3.306Z" style="fill:#6c6faf;fill-rule:nonzero;"/><path d="M250.318,32.314c0,0 -0.176,16.871 0.037,28.8c0.14,11.822 9.979,14.812 9.979,14.812l2.573,-2.567c-10.121,-2.686 -9.427,-12.174 -9.427,-12.174l0,-32.107Z" style="fill:#6c6faf;fill-rule:nonzero;"/><path d="M275.329,61.492c0.415,3.793 3.858,4.835 7.925,3.897l-3.371,3.062c0,0 -4.729,0.38 -7.271,-4.245Z" style="fill:#6c6faf;fill-rule:nonzero;"/><path d="M314.039,25.43c4.138,0.07 7.688,1.075 10.402,2.219l2.432,-2.399c-4.941,-2.4 -9.912,-3.159 -14.393,-3.056c-4.459,0.134 -8.53,1.109 -11.482,2.297c-2.02,0.939 -13.287,5.734 -16.771,19.164c-2.112,8.275 0.42,15.232 3.205,19.683l2.4,-2.223c-2.508,-4.456 -4.142,-10.083 -2.229,-17.251c2.573,-9.604 9.114,-13.848 14.678,-16.139c4.248,-1.806 8.244,-2.436 11.758,-2.295" style="fill:#6c6faf;fill-rule:nonzero;"/><path d="M305.969,45.425c-0.658,10.297 0.451,20.662 7.411,20.453c5.251,-0.211 5.915,-5.361 6.438,-7.721c1.246,-5.361 0.416,-15.407 0.206,-16.696c-0.243,-1.114 -0.493,-4.312 -3.097,-6.542l2.29,-2.222c2.06,1.598 3.274,4.452 3.619,6.082c0.556,1.778 1.846,10.121 0.284,19.688c-1.224,8.144 -5.289,10.746 -9.74,10.677c-5.393,-0.065 -11.099,-2.887 -10.787,-20.48c0.25,-0.352 3.376,-3.239 3.376,-3.239" style="fill:#6c6faf;fill-rule:nonzero;"/><path d="M355.081,57.737c0,0 5.812,6.193 19.196,8.904c1.253,0.387 2.365,0.555 3.34,0.59l0.939,0c3.269,-0.137 3.481,-1.772 3.686,-2.26c0.699,-0.83 2.61,-2.777 2.61,-2.777c0,0 2.021,3.996 -1.459,7.02c-3.342,2.854 -11.726,0.352 -15.479,-0.624c-9.424,-2.886 -14.016,-7.62 -14.016,-7.62l-3.65,0l-0.033,11.447l-3.272,3.165l0,-17.845Z" style="fill:#6c6faf;fill-rule:nonzero;"/><path d="M369.553,21.841c2.149,0 3.858,0.176 5.562,0.385c5.215,0.803 11.197,1.672 19.438,5.221l-0.031,-3.76l8.485,0l-2.78,3.442l-3.446,0l-0.066,4.901c0,0 -8.695,-5.246 -22.363,-6.813c-1.945,-0.238 -4.034,-0.382 -5.771,-0.347c-6.961,0.108 -13.397,1.881 -16.56,5.464c-3.932,4.516 -5.011,13.839 3.758,18.565l-1.672,2.4c-1.566,-0.831 -5.15,-3.609 -6.61,-6.814c-1.146,-2.711 -2.888,-8.312 0.694,-14.261c3.936,-6.537 13.806,-8.45 21.362,-8.383" style="fill:#6c6faf;fill-rule:nonzero;"/><path d="M369.485,35.688l-2.298,2.299c1.426,1.734 7.964,4.238 14.887,6.116c6.851,2.021 14.605,6.93 14.605,6.93l2.332,-2.368c-0.628,-0.562 -7.829,-5.287 -14.82,-7.307c-5.002,-1.389 -13.145,-3.621 -14.706,-5.67" style="fill:#6c6faf;fill-rule:nonzero;"/><path d="M422.277,25.249c0,0.837 -1.217,0.736 -2.088,0.736l-1.043,0l0,-1.637l2.021,0c0.62,0.036 1.11,0.212 1.11,0.901M423.181,25.113c0,-1.29 -1.08,-1.669 -2.188,-1.669l-2.752,0l0,6.401l0.906,0l0,-2.921l1.184,0l1.737,2.921l1.008,0l-1.636,-2.921c0.904,-0.071 1.741,-0.519 1.741,-1.811M425.233,26.609c0,2.641 -2.158,4.73 -4.839,4.73c-2.5,0 -4.725,-2.09 -4.725,-4.73c0,-2.679 2.225,-4.769 4.725,-4.769c2.681,0.001 4.839,2.091 4.839,4.769M426.207,26.609c0,-3.165 -2.536,-5.74 -5.812,-5.74c-3.129,0 -5.596,2.575 -5.596,5.74c0,3.169 2.467,5.673 5.596,5.673c3.276,-7.10543e-15 5.812,-2.504 5.812,-5.673" style="fill:#233688;fill-rule:nonzero;"/></g></g></svg>