<?xml version="1.0" standalone="no"?><!DOCTYPE svg PUBLIC "-//W3C//DTD SVG 1.1//EN" "http://www.w3.org/Graphics/SVG/1.1/DTD/svg11.dtd"><svg width="98px" height="72px" version="1.1" xmlns="http://www.w3.org/2000/svg" xmlns:xlink="http://www.w3.org/1999/xlink" xml:space="preserve" style="fill-rule:evenodd;clip-rule:evenodd;stroke-linejoin:round;stroke-miterlimit:1.41421;"><g><path d="M17.05,20.478l63.88,0c8.35,0 15.184,6.835 15.184,15.185c0,8.35 -6.834,15.183 -15.184,15.183l-63.88,0c-8.35,0 -15.183,-6.833 -15.183,-15.183c0,-8.35 6.833,-15.185 15.183,-15.185" style="fill:#0095da;"/><path d="M17.05,19.612l63.88,0c4.416,0 8.43,1.805 11.336,4.714c2.91,2.91 4.715,6.92 4.715,11.335l0,0.003c0,4.415 -1.807,8.427 -4.716,11.335c-2.908,2.91 -6.92,4.714 -11.336,4.714l-63.879,0c-4.415,0 -8.427,-1.805 -11.336,-4.714c-2.908,-2.911 -4.714,-6.921 -4.714,-11.336l0,-0.002c0,-4.413 1.806,-8.426 4.714,-11.334c2.91,-2.91 6.92,-4.714 11.337,-4.714M80.929,21.346l-63.879,0c-3.936,0 -7.515,1.612 -10.11,4.206c-2.596,2.595 -4.206,6.175 -4.207,10.11l0,0.003c0,3.935 1.61,7.514 4.207,10.11c2.595,2.595 6.174,4.206 10.11,4.206l63.88,0c3.937,0 7.516,-1.612 10.11,-4.207c2.597,-2.595 4.208,-6.175 4.208,-10.11l0,-0.002c0,-3.935 -1.61,-7.514 -4.207,-10.11c-2.596,-2.595 -6.175,-4.205 -10.112,-4.205" style="fill:#fff;"/><path d="M21.2918,25.07c3.44543,0.177663 5.3383,0.969142 6.59422,2.40397c1.4,1.602 2.1,3.573 2.1,5.914c0,0.9 -0.128,1.935 -0.384,3.088c-0.26,1.155 -0.76,2.354 -1.505,3.594c-0.74,1.234 -1.702,2.286 -2.886,3.146c-1.183,0.865 -2.317,1.44 -3.41,1.73c-1.09,0.287 -2.246,0.434 -3.467,0.434c-2.808,0 -4.994,-0.71 -6.568,-2.13c-1.573,-1.42 -2.36,-3.412 -2.36,-5.973c0,-1.34 0.197,-2.648 0.585,-3.92c0.39,-1.27 0.97,-2.474 1.743,-3.603c0.773,-1.13 1.724,-2.078 2.855,-2.84c1.13,-0.764 2.24,-1.262 3.334,-1.497c0.82275,-0.1755 1.65844,-0.282937 3.36878,-0.34697ZM18.709,40.906c1.17,0 2.163,-0.444 2.98,-1.327c0.816,-0.888 1.416,-2 1.79,-3.342c0.375,-1.345 0.563,-2.307 0.563,-2.877c0,-1.257 -0.32,-2.207 -0.96,-2.853c-0.636,-0.64 -1.455,-0.965 -2.443,-0.965c-1.11,0 -2.06,0.406 -2.862,1.212c-0.8,0.81 -1.4,1.89 -1.802,3.233c-0.402,1.34 -0.604,2.49 -0.604,3.435c0,1.003 0.297,1.83 0.885,2.494c0.588,0.656 1.406,0.99 2.453,0.99Z" style="fill:#fff;"/><path d="M42.321,30.936c-0.667,-0.283 -1.294,-0.43 -1.874,-0.43c-0.77,0 -1.474,0.215 -2.117,0.646c-0.642,0.428 -1.388,1.27 -2.24,2.532l-0.054,-0.054l0.632,-2.8l-5.103,0l-3.03,14.214l5.467,0l1.123,-5.318c0.358,-1.652 0.866,-2.854 1.516,-3.605c0.655,-0.748 1.5,-1.124 2.548,-1.124c0.328,0 0.703,0.046 1.123,0.147Z" style="fill:#fff;"/><path d="M49.781,38.68c-2.51,0.42 -3.984,0.79 -4.423,1.116c-0.434,0.32 -0.654,0.7 -0.654,1.138c0,0.453 0.155,0.814 0.467,1.074c0.315,0.267 0.717,0.4 1.207,0.4c0.686,0 1.367,-0.28 2.044,-0.837c0.674,-0.558 1.126,-1.524 1.36,-2.89l-0.001,-0.001ZM40.941,34.726c0.328,-1.348 1.08,-2.387 2.254,-3.117c1.175,-0.736 2.996,-1.103 5.46,-1.103c2.794,0 4.683,0.35 5.662,1.052c0.98,0.703 1.467,1.723 1.467,3.063c0,0.892 -0.245,2.36 -0.735,4.41c-0.457,1.935 -0.686,3.284 -0.686,4.04c0,0.647 0.118,1.305 0.347,1.973l-5.32,0c-0.123,-0.564 -0.187,-1.102 -0.187,-1.624c-1.426,1.308 -3.022,1.958 -4.783,1.958c-1.794,0 -3.082,-0.42 -3.87,-1.26c-0.786,-0.84 -1.18,-1.813 -1.18,-2.92c0,-1.258 0.348,-2.22 1.053,-2.88c0.7,-0.66 1.564,-1.107 2.593,-1.345c1.025,-0.238 2.43,-0.444 4.208,-0.623c1.577,-0.168 2.633,-0.337 3.16,-0.498c0.104,-0.42 0.16,-0.74 0.16,-0.963c0,-0.357 -0.18,-0.64 -0.54,-0.856c-0.367,-0.213 -0.847,-0.324 -1.44,-0.324c-0.628,0 -1.135,0.102 -1.523,0.302c-0.388,0.202 -0.732,0.627 -1.024,1.267Z" style="fill:#fff;"/><path d="M64.769,25.405l-5.465,0l-4.194,19.642l5.48,0Z" style="fill:#fff;"/><path d="M71.553,33.095l-0.626,3.32l-5.428,0l0.622,-3.32Z" style="fill:#fff;"/><path d="M90.345,33.302c0.39,0 0.766,0.1 1.137,0.297c0.37,0.2 0.657,0.483 0.864,0.852c0.204,0.373 0.307,0.76 0.307,1.16c0,0.4 -0.1,0.782 -0.304,1.15c-0.205,0.368 -0.49,0.65 -0.855,0.854c-0.367,0.204 -0.75,0.305 -1.15,0.305c-0.4,0 -0.783,-0.1 -1.148,-0.304c-0.367,-0.203 -0.652,-0.486 -0.857,-0.854c-0.204,-0.368 -0.307,-0.75 -0.307,-1.15c0,-0.4 0.105,-0.787 0.312,-1.16c0.207,-0.37 0.495,-0.653 0.866,-0.853c0.367,-0.198 0.748,-0.298 1.135,-0.298l0,0.001ZM90.345,33.681c-0.324,0 -0.64,0.085 -0.948,0.25c-0.307,0.167 -0.546,0.405 -0.72,0.713c-0.174,0.31 -0.26,0.632 -0.26,0.966c0,0.334 0.084,0.653 0.256,0.96c0.17,0.303 0.408,0.542 0.714,0.714c0.306,0.17 0.625,0.255 0.958,0.255c0.333,0 0.653,-0.085 0.958,-0.256c0.307,-0.17 0.544,-0.41 0.714,-0.715c0.17,-0.306 0.254,-0.626 0.254,-0.96c0,-0.333 -0.085,-0.656 -0.258,-0.965c-0.172,-0.307 -0.413,-0.545 -0.72,-0.712c-0.31,-0.165 -0.624,-0.25 -0.947,-0.25l-0.001,7.10543e-15Z" style="fill:#fff;"/><path d="M89.333,36.885l0.4,0l0,-1.054l0.237,0c0.14,0 0.247,0.03 0.32,0.086c0.107,0.076 0.245,0.272 0.42,0.576l0.22,0.392l0.49,0l-0.303,-0.485c-0.146,-0.23 -0.267,-0.395 -0.368,-0.49c-0.052,-0.054 -0.125,-0.098 -0.212,-0.134c0.214,-0.02 0.387,-0.092 0.517,-0.227c0.13,-0.135 0.194,-0.294 0.194,-0.475c0,-0.128 -0.04,-0.25 -0.118,-0.363c-0.077,-0.117 -0.18,-0.195 -0.31,-0.24c-0.132,-0.047 -0.345,-0.07 -0.637,-0.07l-0.853,0ZM89.733,35.489l0.487,0c0.233,0 0.39,-0.035 0.475,-0.103c0.086,-0.07 0.128,-0.163 0.128,-0.278c0,-0.072 -0.022,-0.14 -0.063,-0.198c-0.04,-0.058 -0.095,-0.102 -0.168,-0.13c-0.072,-0.028 -0.207,-0.04 -0.403,-0.04l-0.457,0Z" style="fill:#fff;"/><path d="M72.629,25.405l9.05626,0c1.10385,0 2.00353,0.0504808 2.71811,0.145834c0.708976,0.102084 1.38991,0.347757 2.0484,0.745995c0.654007,0.397116 1.17116,0.92436 1.54135,1.57164c0.371315,0.655129 0.554167,1.36971 0.554167,2.146c0,0.993912 -0.292789,1.92725 -0.873879,2.80898c-0.585579,0.877245 -1.51779,1.51555 -2.7944,1.90705l0,0.0549683c2.09888,0.636059 3.14552,2.0125 3.14552,4.14055c0,1.55369 -0.643912,2.96379 -1.94295,4.22581c-1.29455,1.26875 -3.14327,1.8992 -5.54841,1.8992l-12.0986,0l4.1944,-19.646ZM75.4278,40.8297l3.24424,0c2.28622,0 3.42933,-0.760579 3.42933,-2.27837c0,-0.535097 -0.163782,-0.95577 -0.493591,-1.26651c-0.328686,-0.307372 -1.00625,-0.462181 -2.02709,-0.462181l-3.29247,0ZM77.0791,33.0849l2.06411,0c0.890707,0 1.58173,-0.0650638 2.06635,-0.188462c0.490225,-0.127884 0.882853,-0.389263 1.18013,-0.786379c0.302885,-0.397117 0.447597,-0.795354 0.447597,-1.19696c0,-0.482373 -0.159295,-0.858175 -0.487982,-1.12741c-0.325321,-0.268109 -0.964745,-0.400482 -1.92164,-0.400482l-2.58462,0Z" style="fill:#fff;"/></g></svg>