<?xml version="1.0" standalone="no"?><!DOCTYPE svg PUBLIC "-//W3C//DTD SVG 1.1//EN" "http://www.w3.org/Graphics/SVG/1.1/DTD/svg11.dtd"><svg width="98px" height="72px" version="1.1" xmlns="http://www.w3.org/2000/svg" xmlns:xlink="http://www.w3.org/1999/xlink" xml:space="preserve" style="fill-rule:evenodd;clip-rule:evenodd;stroke-linejoin:round;stroke-miterlimit:1.41421;"><g><g transform="matrix(0.638646,2.46519e-32,2.46519e-32,0.638646,1,8.94983)"><path d="M105.264,6.851l-0.104,0.52l0,0.208l-2.491,-1.557l-2.595,-1.247c-1.869,-0.83 -3.323,-1.868 -4.256,-2.802c-0.312,-0.312 -0.623,-0.519 -1.038,-0.519c-0.312,0 -0.624,0.104 -0.935,0.416c-0.209,0.208 -0.416,0.519 -0.52,1.038l-0.103,1.038l0.103,1.039l0.52,1.66c-2.938,-1.07 -5.913,-1.901 -8.929,-2.491l-1.869,-0.208l0,-1.87c-3.688,-1.021 -6.829,-1.546 -9.42,-1.577c-3.497,0.308 -6.445,0.764 -8.848,1.369l0,1.661l-6.083,1.159l-6.053,2.774c0.311,-0.935 0.612,-1.96 0.716,-2.479l0.103,-1.039l-0.103,-1.038c0,-0.415 -0.208,-0.83 -0.521,-1.038l-0.934,-0.312c-0.415,0 -0.726,0.104 -1.038,0.416c-1.039,0.934 -2.387,1.972 -4.256,2.802l-2.596,1.35l-2.49,1.454l0,-0.207c0,-0.208 -0.105,-0.623 -0.52,-1.039c-0.208,-0.311 -0.624,-0.519 -1.038,-0.519c-0.519,0 -0.831,0.208 -1.141,0.519l-1.555,1.558l-1.558,1.245l-0.414,0.311c-1.559,1.039 -3.116,2.388 -4.361,4.049l-0.519,0.623l-0.312,-0.831l-0.312,-0.415l-0.727,-0.311l-0.312,-0.104c-0.623,0 -1.038,0.312 -1.349,0.934c-0.207,0.416 -0.519,0.727 -1.039,1.246l-1.972,2.284c-1.974,2.283 -3.115,4.774 -3.634,7.578l0,0.208l-0.103,1.038l0,1.558l-17.647,0c-1.246,0 -2.181,0.311 -2.492,0.83c-0.415,0.621 -0.519,1.037 -0.519,1.452c0,0.727 0.312,1.35 0.83,2.077l0.208,8.097l0,12.975l-0.103,0.52l0,0.207c0,0.936 0.311,1.869 0.934,2.389l1.454,0.83l0.83,0.104l7.579,0l0.208,0.104l2.907,0.209c1.245,0.103 2.698,0.622 4.152,1.349l0.726,0.415c0.936,0.623 2.492,1.869 4.568,3.945l1.558,1.453l2.179,1.766l-1.039,0.414c-0.726,0.312 -1.14,0.831 -1.348,1.35l-0.104,0.622c0,0.728 0.415,1.454 1.452,1.767l3.532,1.557l1.243,0.623c1.767,0.829 3.842,1.66 6.543,2.49l1.659,0.416l-0.208,0.415l-0.415,1.038l0.519,1.038l0.415,0.415l1.037,0.52l0.727,0.104l1.35,0.207l0.936,0.209l2.491,0.829l2.698,0.728l3.634,0.311l1.868,-0.104l3.113,-0.519l-0.102,0.103c-0.104,0.209 -0.208,0.729 -0.312,1.247l0.208,1.038c0.416,0.622 1.142,1.038 2.283,1.141l1.558,0.105l2.389,0.311l1.66,0.208l0.934,0.103l1.558,-0.311c0.518,-0.311 0.934,-0.83 1.453,-1.557l1.452,-2.18l1.35,-1.453l0.728,-0.832l0.416,0.416l0.415,0.416l1.453,1.557l1.349,2.076c0.416,0.727 0.936,1.246 1.454,1.557l1.557,0.311l0.936,-0.103l1.66,-0.208l2.491,-0.311l1.454,-0.105l1.452,-0.414l0.727,-0.727l0.312,-1.038l-0.312,-1.247l-0.103,-0.103l3.01,0.519l1.973,0.104l3.528,-0.311l2.803,-0.728l2.492,-0.829l2.181,-0.416c0.727,-0.104 1.244,-0.312 1.867,-0.623l0.623,-0.727l0.209,-0.727c-0.105,-0.623 -0.312,-1.038 -0.623,-1.453l1.764,-0.416c2.699,-0.83 4.775,-1.661 6.541,-2.49l1.246,-0.623l3.529,-1.557c0.934,-0.312 1.452,-1.039 1.452,-1.767l-0.104,-0.622c-0.208,-0.416 -0.623,-0.83 -1.038,-1.038l-1.453,-0.726l2.283,-1.766l2.076,-2.076l0.312,-0.104l1.35,-1.452l0.416,-0.312c0.622,-0.624 1.455,-1.247 2.282,-1.661c0.624,-0.416 1.247,-0.623 1.871,-0.935c1.66,-0.52 3.528,-0.831 5.709,-0.935l7.369,0c0.831,0.104 1.558,-0.104 2.284,-0.414c0.623,-0.416 1.039,-1.351 1.039,-2.596l-0.104,-1.559l-0.105,-3.943l-0.101,-4.879l0,-1.038l0.101,-2.492l0,-4.568l0.105,0.104l1.245,0.831l0.727,0.624l1.038,0.312c0.312,0 0.623,0 1.038,-0.312c0.519,-0.416 0.83,-1.247 0.83,-2.388l-0.312,-3.01l-0.103,-0.831l-0.416,-1.35l-0.934,-1.142c-0.624,-0.519 -1.661,-0.83 -3.22,-0.83l-19.308,0l0.104,-1.143l-0.104,-0.415l-0.104,-1.038l0,-0.312c-0.519,-2.7 -1.662,-5.191 -3.633,-7.474l-1.974,-2.284l-1.038,-1.35c-0.415,-0.518 -0.727,-0.83 -1.351,-0.83l-0.31,0c-0.519,0.104 -0.831,0.416 -1.143,0.83l-0.208,0.831l-0.521,-0.623c-1.348,-1.661 -2.801,-3.01 -4.255,-4.049l-2.076,-1.661l-1.557,-1.558c-0.415,-0.311 -0.728,-0.518 -1.143,-0.518c-0.415,0 -0.83,0.207 -1.142,0.518Z" style="fill:#fff;fill-rule:nonzero;"/><path d="M63.843,4.566l-4.254,1.039l-4.36,1.661l-1.869,1.038l-0.208,0.312l0.52,1.558l0.829,3.426l1.038,3.425l0.417,1.558c0.311,1.038 0.83,1.869 1.66,2.389c0.728,0.415 1.453,0.83 2.283,0.933l1.869,0.52l1.869,0.726l0.727,0.312l0.416,-0.623l1.141,-1.453l1.557,-1.453c0.728,-0.52 1.246,-1.143 1.559,-1.87c0.415,-0.726 0.415,-1.66 0.206,-2.595l-0.727,-2.387l-0.83,-3.323l-0.83,-3.217l-0.519,-1.869l-0.208,-0.208l-0.209,0Z" style="fill:#fee038;fill-rule:nonzero;"/><path d="M73.29,76.611l0.831,0.934l1.868,1.869l1.869,2.803l1.036,1.143l1.039,0.207l0.831,-0.104l1.66,-0.207l2.491,-0.312l1.454,-0.104c0.728,-0.104 1.143,-0.416 1.246,-0.727c0.103,-0.312 0.103,-0.728 -0.104,-1.039l-0.415,-0.52l-0.312,-0.311l-1.661,-1.037l-3.01,-1.351l0.623,0l2.076,-0.208c0.414,0.311 1.038,0.624 1.765,0.936l2.697,0.83l2.39,0.415l1.764,0l4.672,-0.519l3.425,-1.038c0.935,-0.416 1.973,-0.624 3.012,-0.624l1.037,-0.414c0.312,-0.105 0.519,-0.52 0.312,-0.831l-0.727,-0.831c-0.519,-0.518 -1.349,-0.83 -2.491,-1.142l0.727,0.104l4.569,-0.83c2.489,-0.727 4.67,-1.559 6.331,-2.389c1.766,-0.934 3.426,-1.66 4.982,-2.283c0.519,-0.207 0.727,-0.52 0.623,-0.727l-0.727,-0.727l-1.351,-0.52l-3.425,-0.312l-0.311,0c1.245,-0.312 2.387,-0.726 3.217,-1.35l3.428,-2.698l3.112,-3.012c0.934,-0.934 1.972,-1.66 2.907,-2.076c0.312,-0.207 0.312,-0.415 -0.104,-0.727c-0.205,-0.207 -0.726,-0.415 -1.556,-0.518l-1.455,-0.105l-4.151,0.52c-1.662,0.415 -3.529,1.143 -5.605,2.388c-2.18,1.143 -4.359,2.906 -6.644,5.294c0.622,-1.037 1.037,-1.868 1.037,-2.49l-0.104,-1.35l-0.312,-0.208l-0.415,-0.208c-0.207,0 -0.312,0 -0.52,0.208l-0.934,0.935l-1.246,0.83l-5.087,2.283c-1.867,0.728 -3.633,1.766 -5.293,3.115c-1.142,0.934 -1.974,2.076 -2.699,3.424l-2.596,0.105l-2.389,0l-2.076,-0.105l-2.802,0.312c-1.66,0.312 -2.908,0.727 -3.841,1.246l-2.285,1.66l-1.971,1.973ZM38.722,60.417l-0.312,0.208l-0.102,1.245c0.102,0.727 0.413,1.558 1.036,2.595c-2.283,-2.388 -4.464,-4.151 -6.645,-5.294c-2.076,-1.245 -3.944,-1.973 -5.71,-2.388l-4.151,-0.52l-1.453,0.105c-0.623,0.103 -1.143,0.311 -1.453,0.518c-0.312,0.312 -0.312,0.52 -0.103,0.727c0.933,0.416 1.971,1.143 3.009,2.076l3.012,3.012c1.038,1.037 2.179,1.973 3.425,2.698c0.831,0.624 1.973,1.038 3.219,1.35l-0.312,0l-3.32,0.312l-1.454,0.52l-0.623,0.727c-0.208,0.207 0,0.52 0.623,0.727c1.454,0.623 3.115,1.35 4.774,2.283c1.868,0.83 3.945,1.662 6.437,2.389l4.464,0.83l1.246,-0.104c-1.35,0.312 -2.285,0.624 -2.698,1.142l-0.937,0.831c-0.207,0.312 -0.103,0.624 0.312,0.831l1.037,0.414c1.039,0 2.076,0.208 3.116,0.624l3.321,1.038l4.566,0.519l1.973,0l2.285,-0.415l2.699,-0.83c0.726,-0.312 1.451,-0.625 1.866,-0.936l1.973,0.208l0.624,0l-2.906,1.351l-1.767,1.037l-0.31,0.311l-0.416,0.52c-0.104,0.312 -0.207,0.728 -0.104,1.039c0.104,0.311 0.52,0.622 1.245,0.727l1.455,0.104l2.594,0.312l1.661,0.207l0.83,0.104l1.039,-0.207l0.934,-1.143l1.972,-2.906l1.868,-1.869l0.728,-0.83l-0.416,-0.416l-1.972,-1.973l-2.283,-1.66c-0.935,-0.52 -2.18,-0.935 -3.736,-1.246l-2.907,-0.312l-2.077,0.105l-2.388,0l-2.595,-0.105c-0.727,-1.348 -1.557,-2.49 -2.698,-3.424c-1.558,-1.35 -3.427,-2.388 -5.294,-3.115l-5.088,-2.283l-1.35,-0.83l-0.83,-0.935l-0.415,-0.208ZM29.38,16.09c0,-1.142 -0.104,-1.868 -0.312,-2.18l-0.312,-0.208l-0.311,0.208c-0.416,0.519 -0.935,1.35 -1.869,2.18l-2.698,3.426c-0.83,1.455 -1.559,3.114 -1.974,5.191l-0.104,1.141l0.104,1.765c0.208,0.727 0.624,1.141 1.35,1.141c0.521,0 1.039,-0.207 1.559,-0.414c0.621,-0.416 1.141,-0.831 1.66,-1.35l0.208,0c2.284,-0.104 4.256,-0.415 6.02,-1.038c1.661,-0.726 3.22,-1.557 4.569,-2.491l3.528,-2.699l2.804,-1.972c0.311,-0.104 0.414,-0.312 0.414,-0.519l-0.208,-0.52l-0.518,-0.311l-1.66,-0.416l-1.87,0.208c3.219,-1.35 5.813,-2.907 7.474,-4.567c1.869,-1.765 3.115,-3.323 3.738,-4.774c0.727,-1.35 1.142,-2.493 1.246,-3.219l0,-1.246c0,-0.416 -0.104,-0.623 -0.312,-0.727l-0.207,0.208c-0.831,0.727 -1.765,1.454 -2.907,2.077c-1.039,0.622 -2.283,1.141 -3.426,1.765l-3.217,1.868c-0.832,0.519 -1.662,1.246 -2.077,2.077c0.208,-0.831 0.311,-1.453 0.311,-1.973l0,-1.04l-0.207,-0.519l-0.207,-0.104l-0.209,0c-1.038,1.245 -2.387,2.283 -3.84,3.321c-1.455,1.038 -2.804,2.388 -4.154,3.945l-1.659,2.596l-0.831,2.18l-0.311,1.038c0.31,-1.556 0.519,-2.906 0.415,-4.048ZM106.404,7.163l-0.104,0.416c-0.104,0.207 -0.104,0.623 -0.104,1.142c0,0.52 0.104,1.142 0.312,1.869c-0.416,-0.831 -1.142,-1.454 -2.075,-2.076l-3.219,-1.869c-1.142,-0.519 -2.283,-1.142 -3.425,-1.66c-1.144,-0.728 -2.077,-1.454 -2.906,-2.18l-0.21,-0.104c-0.207,0 -0.207,0.208 -0.31,0.727c0,0.311 0,0.726 0.103,1.245c0,0.623 0.52,1.765 1.143,3.219c0.727,1.452 1.973,3.01 3.736,4.671c1.766,1.764 4.257,3.321 7.578,4.671l-1.972,-0.311l-1.661,0.415l-0.52,0.415l-0.207,0.416c0,0.312 0.207,0.416 0.415,0.623c0.831,0.415 1.869,1.038 2.906,1.868l3.529,2.803c1.247,0.935 2.804,1.765 4.568,2.387c1.661,0.727 3.737,1.038 5.917,1.038l0.207,0l1.662,1.35c0.623,0.208 1.141,0.416 1.557,0.416c0.727,0 1.245,-0.311 1.35,-1.142l0.207,-1.662l-0.207,-1.141c-0.31,-2.077 -1.039,-3.841 -1.972,-5.191l-2.7,-3.426c-0.83,-0.935 -1.453,-1.661 -1.869,-2.284l-0.312,-0.207l-0.311,0.311c-0.208,0.207 -0.312,0.934 -0.312,2.076c0,1.142 0.104,2.491 0.52,4.049l-0.416,-0.935l-0.83,-2.18l-1.661,-2.699c-1.245,-1.453 -2.7,-2.803 -4.151,-3.841c-1.454,-1.039 -2.698,-2.18 -3.842,-3.321l-0.104,-0.104Z" style="fill:#fff1c0;fill-rule:nonzero;"/><path d="M54.5,50.243l1.246,1.038l-0.83,-1.142l-0.206,-0.208ZM66.646,31.558c-0.207,-0.416 -0.311,-0.623 -0.727,-0.623l-0.52,-0.208l0,2.803l0.83,0.831l0.312,0.311l0.104,-0.311l0,-2.803ZM63.637,39.966l-0.312,-0.207c0.728,0.726 1.454,1.557 2.075,2.388c0.83,1.246 1.246,2.801 1.246,4.463c0,1.765 -0.416,3.218 -1.246,4.256c-0.727,1.142 -1.659,1.868 -2.803,2.388c-1.143,0.52 -2.388,0.83 -3.529,0.83l-4.256,-0.623l0.104,0.623l1.039,0.52l4.255,0.52c1.245,0 2.388,-0.312 3.633,-0.727c1.04,-0.52 2.077,-1.35 2.804,-2.389c0.83,-1.142 1.143,-2.596 1.246,-4.256c-0.104,-1.764 -0.519,-3.322 -1.351,-4.567c-0.829,-1.143 -1.763,-2.285 -2.905,-3.219ZM61.976,32.18c0.83,0 1.661,0.312 2.388,0.623l0.52,0.312c-0.52,-0.622 -1.04,-1.039 -1.766,-1.453c-0.727,-0.312 -1.452,-0.52 -2.388,-0.52l-1.765,0.52c-0.52,0.312 -0.728,0.831 -0.728,1.557c0.105,1.038 0.416,2.076 1.352,2.907l1.141,1.141c-0.831,-0.935 -1.245,-1.869 -1.245,-3.011c0,-0.623 0.206,-1.245 0.623,-1.557c0.518,-0.415 1.14,-0.519 1.868,-0.519ZM45.885,53.565l-5.918,0l0,0.519l0.104,0.52l0.415,0.104l6.541,0l2.387,0.104l1.869,0c0.52,0 0.727,-0.208 0.83,-0.728l0.311,-1.35l0.105,-1.557c0,-0.312 -0.105,-0.415 -0.105,-0.415l-0.206,0.312l-1.038,0.934l-0.208,0.934c-0.104,0.52 -0.312,0.832 -0.728,0.728l-1.972,0ZM45.365,41.626l-0.623,0c-0.623,0 -0.83,0.209 -0.83,0.52l-0.104,2.906l0.104,3.219l0.104,2.491l0.416,0.935l0.728,0.104l-0.105,-2.389l-0.103,-3.32l0.103,-2.804c0,-0.415 0.312,-0.622 0.831,-0.622l3.114,0c0.622,0 1.038,-0.312 1.142,-0.728l0.415,-1.246l-0.208,-0.208l-0.207,0l-1.039,0.104l-0.103,0.209c-0.209,0.519 -0.52,0.726 -1.248,0.83l-2.387,0ZM49.828,32.907l0.625,0.208c-0.415,-0.622 -0.936,-1.039 -1.662,-1.35l-2.388,-0.311l-1.244,0.104l-1.04,0.207l-0.104,1.247l-0.104,1.764l0,5.19c0.207,-0.207 0.624,-0.312 1.142,-0.415l0,-3.634l0.105,-1.765l0.104,-1.35l1.141,-0.208l1.142,0ZM51.905,32.7l0,-1.35l-0.311,-0.519l-0.52,-0.104l-0.312,0l0.104,0.935l0,1.765l0.728,0.83l0.311,0.312c0,0 0.104,-0.208 0.104,-0.519ZM48.896,28.028c1.143,-0.207 1.765,-0.726 1.868,-1.142c0.208,-0.519 0.104,-1.35 -0.415,-2.491l-0.521,0.312c0.313,0.622 0.313,1.141 0.21,1.557c-0.21,0.415 -0.832,0.831 -1.869,1.039l-5.71,0.726l-0.829,0l-0.417,0.104l-0.311,0.311l0.311,0.208l1.869,0.103c2.181,-0.001 4.151,-0.312 5.814,-0.727ZM43.602,60.001l-1.143,-0.727l-0.311,0.207l-0.728,0c-1.556,0 -3.01,-0.312 -4.67,-0.935c-0.934,-0.312 -1.869,-0.83 -2.7,-1.452c1.143,1.141 2.389,2.075 3.842,2.594c1.558,0.52 3.114,0.831 4.672,0.831l0.727,0c0.207,0 0.312,-0.104 0.312,-0.312c0.101,-0.102 0.101,-0.206 -0.001,-0.206ZM36.854,51.8l-2.076,-4.049c-0.622,-1.142 -1.35,-2.076 -2.077,-2.906l-0.83,-0.727c0.729,0.829 1.246,1.557 1.869,2.596l1.973,3.943c0.83,1.661 1.661,3.219 2.906,4.775l2.075,2.388l0.209,0.104l-1.143,-1.35c-1.142,-1.556 -2.077,-3.217 -2.906,-4.774ZM32.079,41.419c-0.936,0.519 -1.973,0.832 -3.012,0.935c0.727,0.104 1.351,0.415 1.973,1.038c0.83,-0.208 1.559,-0.52 2.181,-0.935c0.935,-0.52 1.764,-1.35 2.387,-2.284c0.52,-0.934 0.831,-2.18 0.935,-3.529c-0.104,-2.076 -0.726,-3.633 -1.867,-4.568l-0.313,-0.103c0.623,0.83 0.937,2.076 0.937,3.529c0,1.35 -0.313,2.595 -0.833,3.529c-0.728,1.039 -1.453,1.766 -2.388,2.388ZM28.445,32.18c0.52,-0.104 1.039,0.104 1.557,0.415l-0.518,-0.622c-0.729,-0.623 -1.455,-0.936 -2.181,-0.831l-1.351,0.312c-0.206,0.104 -0.311,0.519 -0.311,1.141l0,15.468l0.104,3.218l0,1.66l-0.104,0.52l-0.312,0.104l-3.839,0l-0.104,0.519l0.104,0.52l0.519,0.104l4.464,0l0.312,-0.104l0.104,-0.52l0,-1.66l-0.104,-3.322l0,-5.917l-0.52,-0.727l-0.312,-0.207l-0.206,-0.312c0,-0.103 0.206,-0.103 0.621,-0.103l0.416,-0.104l0,-8.099c0,-0.519 0.104,-0.934 0.416,-1.141ZM18.063,32.18l-0.415,-0.207c0.728,0.83 1.037,2.076 1.037,3.632c0,1.558 -0.413,2.803 -1.037,3.842c-0.726,1.038 -1.557,1.869 -2.595,2.388c-1.038,0.519 -1.868,0.83 -2.699,0.83l-1.143,0.519l-0.519,0.208l0.623,0.311l2.181,0c0.829,0 1.764,-0.207 2.7,-0.83c0.932,-0.519 1.866,-1.246 2.488,-2.388c0.729,-1.038 1.039,-2.283 1.145,-3.841c-0.104,-2.076 -0.623,-3.633 -1.766,-4.464ZM10.383,32.493l1.245,-0.312c0.622,0 1.142,0.104 1.661,0.52l-0.52,-0.624c-0.83,-0.622 -1.453,-1.039 -2.283,-0.934l-1.246,0.311c-0.207,0.104 -0.312,0.519 -0.312,1.141l0,1.973l-0.103,3.01l0,11.003c0.207,2.596 0.311,4.152 0.519,4.567c0.207,0.312 0,0.416 -0.312,0.416l-4.153,0l0,0.519l0.104,0.52l0.416,0.104l4.776,0c0.415,-0.104 0.519,-0.207 0.415,-0.414c-0.312,-0.52 -0.415,-2.078 -0.518,-4.568l-0.105,-3.945l0,-3.218l-0.415,-0.207l0.415,-0.208l0,-0.831l0.105,-2.595l0,-4.984c0,-0.622 0.103,-1.037 0.311,-1.244ZM146.58,33.53c-0.416,-0.727 -1.248,-1.246 -2.286,-1.454l-2.801,-0.312l0,7.578l0.104,3.011l0,3.634l0.104,3.32l0,3.219l0.207,0.622c0.104,0.416 0,0.624 -0.311,0.624l-4.05,0l0,0.83c0.104,0.208 0.208,0.208 0.414,0.208l3.531,0l1.141,0.103c0.416,0 0.521,-0.207 0.416,-0.621l-0.104,-0.624l-0.103,-1.35l-0.105,-1.868l0,-6.955l-0.104,-3.011l0,-7.578l2.908,0.208ZM146.683,30.935l0.104,1.039l0.104,1.557l0,0.207l0.832,0.935l0.205,0.208l0.104,-0.312l-0.104,-1.453l-0.205,-1.557l-0.209,-0.52l-0.623,-0.103l-0.208,0ZM136.405,31.765l-2.803,0.312c-0.416,0.104 -0.829,0.208 -1.245,0.519l0,0.416l-0.104,1.557c0,0.208 0.104,0.312 0.104,0.312l0.209,-0.208c0.518,-0.83 1.245,-1.35 2.179,-1.453l1.765,-0.207ZM130.592,31.142l-0.104,-0.104l-1.558,0l0,22.319c0.105,0.208 -0.104,0.416 -0.414,0.416l-2.285,0l-1.661,-0.416l0.727,0.83c0.519,0.416 1.246,0.624 2.076,0.624l2.285,0l0.416,-0.312l0,-22.215c0,-0.519 0.206,-0.83 0.414,-0.934ZM122.185,34.568l-0.831,-2.075c-0.415,-0.831 -0.831,-1.351 -1.453,-1.558l0.312,0.52l0.83,2.076l1.766,4.152l1.868,4.672l1.557,3.737l0.727,1.556l0,-1.556l-1.143,-2.699l-1.866,-4.671ZM116.682,36.333l0,15.26l0.104,1.037c0,0.416 0.208,0.623 0.312,0.727l0.206,0.208l-0.206,0.208l-1.353,0l0,0.623c0,0.415 0.106,0.415 0.314,0.415l2.182,0l0.205,-0.208l-0.205,-0.207c-0.106,-0.104 -0.209,-0.312 -0.314,-0.623l-0.104,-1.039l0,-13.702l-0.519,-1.35ZM111.595,52.007l-0.207,0.934c-0.103,0.52 -0.415,0.832 -0.831,0.728l-1.867,0l-2.492,-0.104l-5.814,0l0,0.519l0.104,0.52l0.311,0.104l6.542,0l2.49,0.104l1.87,0c0.413,0 0.727,-0.208 0.83,-0.728l0.208,-1.35l0.207,-1.557l-0.104,-0.415l-0.312,0.312ZM112.219,31.35l-0.312,-0.519l-0.519,-0.104l-0.312,0l0.104,0.935l0.104,1.35l-0.104,0.415l0.831,0.83l0.207,0.312l0.208,-0.519l-0.104,-1.349ZM105.781,41.626l-0.622,0c-0.622,0 -0.934,0.209 -0.934,0.52l0,6.125l0.104,2.491c0.104,0.415 0.208,0.727 0.415,0.935l0.83,0.104l-0.207,-2.389l0,-6.124c0,-0.415 0.312,-0.622 0.934,-0.622l3.012,0c0.725,0 1.038,-0.312 1.244,-0.728l0.312,-1.246l-0.105,-0.208l-0.311,0l-1.038,0.104l0,0.208c-0.207,0.519 -0.519,0.726 -1.245,0.83ZM105.367,35.917l0.104,-1.765c-0.104,-0.623 0,-1.142 0.208,-1.35l1.037,-0.208l1.248,0l2.282,0.312l0.623,0.208c-0.416,-0.622 -1.039,-1.039 -1.765,-1.35l-2.284,-0.311l-1.246,0.104l-1.037,0.207c-0.208,0.208 -0.208,0.623 -0.208,1.247l0,4.463l-0.104,2.491c0.312,-0.207 0.623,-0.312 1.142,-0.415ZM75.574,33.53l0,-1.972c0.103,-0.52 -0.104,-0.727 -0.519,-0.623l-0.622,0l0,1.453l-0.104,3.322l-0.104,3.217l0,6.644l0.104,3.321l0.104,1.973l0.103,1.349l0.209,0.935l0.104,0.416l-0.104,0.208l-1.559,-0.104l-2.595,0l-0.103,0.728l0.31,0.415l4.985,0l0.207,-0.104l-0.207,-0.414l-0.105,-0.936l-0.103,-1.35l-0.104,-1.868l0,-3.53l-0.104,-3.737l0.104,-2.802l0,-3.323ZM96.024,35.087c-0.52,-1.038 -1.245,-1.765 -2.076,-2.387l1.038,1.349c1.038,1.557 1.558,3.841 1.558,6.851c0,3.012 -0.622,5.295 -1.66,7.268c-1.039,1.972 -2.285,3.321 -3.843,4.256c-1.452,0.83 -3.01,1.35 -4.463,1.35l-6.645,0l0,0.52c0,0.414 0.209,0.621 0.623,0.621l0.312,0l2.697,-0.103l3.946,0.103l0.206,0c1.454,0 3.012,-0.518 4.466,-1.453c1.558,-0.934 2.802,-2.283 3.84,-4.256c1.037,-1.869 1.558,-4.257 1.661,-7.267c-0.102,-2.907 -0.622,-5.295 -1.66,-6.852ZM85.124,35.294c0,-1.349 0,-2.18 0.312,-2.595c0.104,-0.312 0.519,-0.52 1.038,-0.416c0.726,-0.104 1.557,0.209 2.491,0.831l-1.039,-1.039c-0.934,-0.622 -1.764,-0.934 -2.594,-0.934c-0.52,0 -0.936,0.104 -1.039,0.52c-0.208,0.312 -0.312,1.141 -0.312,2.491l-0.103,2.491l0,8.512l0.103,3.115l0.104,2.595c0,0.623 0.104,1.142 0.312,1.349c0.104,0.104 0.207,0.209 0.519,0.104l0.417,0l-0.105,-0.415l-0.104,-2.492l-0.104,-3.217l0,-8.513Z" style="fill:#e6ca2a;fill-rule:nonzero;"/><path d="M75.159,77.128c-0.208,0 -0.208,0.105 0,0.416c0.83,0.623 1.557,1.246 2.18,2.18l1.349,1.973c0.416,0.623 0.832,0.935 1.246,0.935l0.728,-0.104l0.934,-0.104l0.726,-0.104l0.312,-0.311l-0.414,-0.52l-0.313,-0.207l-1.972,-1.35l-1.557,-0.936l-0.312,-0.311l0.312,0l2.492,1.246l1.66,1.141l1.037,0.728l0.936,0.208l1.038,-0.105l0.83,-0.103l0.415,-0.208c-0.104,-0.208 -0.207,-0.311 -0.52,-0.52c-0.311,-0.311 -1.038,-0.727 -1.972,-1.245c-0.934,-0.518 -2.284,-1.038 -3.737,-1.557c-1.453,-0.518 -3.322,-0.934 -5.398,-1.142ZM88.446,77.234l-0.208,0l-1.038,0.102c-0.31,0 -0.52,0.104 -0.52,0.208c0.21,0.208 0.623,0.414 1.351,0.623l2.076,0.416l1.867,0.207l1.454,0.104l4.049,-0.52l3.218,-0.934l3.945,-0.519l0.415,-0.104l-0.415,-0.415c-0.726,-0.415 -1.765,-0.831 -3.115,-1.349c-1.452,-0.52 -3.009,-0.729 -4.879,-0.832l-2.075,0.208c-1.038,0.104 -2.076,0.415 -3.011,0.935c-1.038,0.52 -1.765,0.934 -1.972,1.246l2.698,0l2.699,-0.104l2.596,-0.209l1.35,-0.104l0.311,0c0.521,0 0.415,0.104 -0.415,0.312l-2.283,0.311l-4.257,0.311l-3.634,0.105l-0.207,0ZM91.352,74.222l1.974,-1.244l0.83,-0.936l0.105,-0.311l-0.312,-0.104l-4.152,0.415l-2.077,0l-2.076,-0.104l-3.424,0.312c-2.285,0.519 -3.842,1.038 -4.672,1.765l-1.454,1.039c-0.311,0.207 -0.311,0.414 -0.207,0.518l0.414,0.104l4.881,-0.622l4.774,-0.936l2.802,-0.622l0.312,-0.104l0.206,0.104l-0.519,0.312l-5.293,1.453l-4.05,0.623l-1.867,0.207l-0.52,0.104c0,0.104 0.208,0.208 0.52,0.208l4.048,0.52l1.038,-0.104c2.181,-0.104 3.945,-0.52 5.398,-1.038c1.35,-0.416 2.491,-0.936 3.321,-1.559ZM116.682,67.787l-4.048,-0.311c-1.558,-0.105 -3.321,0.207 -5.086,0.83l-1.869,0.621l-1.868,0.936l-2.285,1.557l-0.311,0.312l0.52,0.207l0.415,0l4.151,-0.727l3.529,-0.83l1.351,-0.52l0.311,-0.104l0.209,-0.104c0.312,0 0.312,0.207 -0.105,0.416l-0.519,0.311c-1.246,0.52 -3.112,1.037 -5.709,1.66l-2.076,0.416l-2.697,0.207c-0.625,0 -0.937,0.208 -1.039,0.415c-0.209,0.208 0.103,0.416 0.726,0.416l0.726,0l3.531,-0.208c1.556,-0.104 3.218,-0.415 4.775,-0.934l3.84,-1.559l3.322,-1.557l2.18,-0.934ZM100.695,64.984l-3.529,1.973c-1.453,1.037 -2.802,2.389 -4.152,3.945l0.729,-0.105l1.037,-0.104l0.934,0.311l1.142,-0.726l6.956,-4.982l0.311,-0.104l0.104,0c0.104,-0.104 0.104,0.104 -0.208,0.519l-3.114,2.596l-5.398,3.528l-0.519,0.831l-0.415,0.415l0.415,-0.103l2.18,-0.52l3.322,-1.557c1.453,-1.039 2.7,-2.285 3.737,-3.531c0.934,-1.141 1.66,-2.179 2.179,-3.217l0.727,-1.453c0.209,-0.416 0.105,-0.624 -0.207,-0.624l-1.557,1.038c-0.623,0.312 -1.246,0.623 -2.076,0.83ZM124.987,57.198l-0.935,-0.103c-1.038,0 -2.597,0.311 -4.672,0.83c-1.973,0.622 -4.257,1.764 -6.747,3.321c-2.597,1.661 -5.19,3.945 -7.785,7.06l1.037,-0.52l2.804,-0.83l1.867,-2.077l2.389,-1.765c1.662,-1.141 3.115,-1.973 4.359,-2.49c1.35,-0.623 2.076,-0.936 2.389,-1.039l0.207,0c0.207,0.104 0.104,0.208 -0.207,0.416c-0.104,0 -0.831,0.312 -2.181,1.037l-4.774,2.906l-2.182,1.766c-0.52,0.623 -0.727,1.038 -0.727,1.038l0.623,-0.208l0.935,-0.104c2.181,-0.414 4.049,-1.245 5.711,-2.388l4.357,-3.529c1.352,-1.35 2.494,-2.181 3.427,-2.803l0.415,-0.312ZM65.816,79.933l2.388,-1.246l0.311,0l-0.311,0.311l-1.454,0.936l-1.971,1.35l-0.416,0.207l-0.416,0.52l0.416,0.311l0.622,0.104l0.935,0.104l0.727,0.104c0.415,0 0.83,-0.312 1.246,-0.935l1.453,-1.973c0.623,-0.934 1.245,-1.557 2.18,-2.18c0.104,-0.311 0.104,-0.416 0,-0.416c-2.18,0.208 -4.049,0.624 -5.502,1.144c-1.454,0.519 -2.698,1.038 -3.736,1.557l-2.077,1.245l-0.416,0.52l0.416,0.208l0.935,0.103l1.038,0.105l0.83,-0.208l1.04,-0.728ZM47.13,73.081c-0.103,-0.207 -0.519,-0.415 -1.038,-0.415l-2.699,-0.207l-2.18,-0.416l-3.321,-0.934l-2.284,-0.727l-0.623,-0.311c-0.31,-0.209 -0.31,-0.416 -0.104,-0.416l0.312,0.104l0.209,0.104l1.452,0.52l3.528,0.83l4.154,0.727l0.312,0l0.518,-0.207c0.104,0 0,-0.104 -0.206,-0.312l-2.389,-1.557l-1.868,-0.936l-1.869,-0.621c-1.66,-0.623 -3.426,-0.936 -5.087,-0.83l-3.944,0.311l-1.973,0.52l2.077,0.934l3.321,1.557l3.842,1.559l4.773,0.934l3.53,0.208l0.728,0c0.726,-0.003 0.932,-0.211 0.829,-0.419ZM52.01,74.43l-2.076,-0.208c-1.765,0.104 -3.426,0.312 -4.88,0.832c-1.452,0.518 -2.49,0.934 -3.113,1.349l-0.415,0.415l0.415,0.104l4.048,0.519l3.114,0.934l4.049,0.52l1.453,-0.104l1.869,-0.207l2.076,-0.416l1.244,-0.623c0.104,-0.104 -0.104,-0.208 -0.413,-0.208l-1.038,-0.103l-0.416,0l-3.633,-0.105l-4.256,-0.311l-2.286,-0.311l-0.725,-0.209l0.206,-0.104l0.519,0l1.351,0.104l2.492,0.209l2.699,0.104l2.699,0l-1.973,-1.246c-1.038,-0.52 -2.077,-0.83 -3.01,-0.935ZM52.424,72.042l1.038,0.936l1.767,1.244l3.425,1.662l5.399,0.934l1.037,0.104l3.945,-0.52l0.518,-0.208l-0.312,-0.104l-1.973,-0.207l-4.048,-0.623l-5.294,-1.453l-0.519,-0.312l0.207,-0.104l0.312,0.104l2.803,0.622l4.671,0.936l4.982,0.622l0.415,-0.104c0.104,-0.104 0,-0.311 -0.207,-0.518l-1.452,-1.039c-0.831,-0.727 -2.389,-1.246 -4.672,-1.765l-3.53,-0.312l-1.972,0.104l-2.076,0l-4.153,-0.415l-0.312,0.104l0,0.312ZM43.29,63.945l-2.077,-0.83l-1.349,-1.038l-0.208,0c-0.207,0 -0.312,0.208 -0.207,0.624l0.83,1.453l2.18,3.217c0.934,1.246 2.181,2.492 3.737,3.531c1.349,0.726 2.388,1.244 3.218,1.557l2.181,0.52l0.519,0.103l-0.415,-0.415l-0.623,-0.831l-5.294,-3.528l-3.218,-2.596l-0.209,-0.519l0.209,0l0.207,0.104l7.058,4.982l1.144,0.726c0.104,-0.102 0.415,-0.311 0.934,-0.311l0.934,0.104l0.832,0.105c-1.351,-1.557 -2.804,-2.908 -4.257,-3.945c-1.35,-0.83 -2.49,-1.558 -3.426,-1.973ZM35.92,64.879l1.972,2.077l2.699,0.83l1.141,0.52c-2.698,-3.114 -5.189,-5.398 -7.785,-7.06c-2.49,-1.558 -4.774,-2.699 -6.746,-3.321c-2.076,-0.52 -3.633,-0.83 -4.672,-0.83l-0.935,0.103c-0.312,0 -0.312,0.208 -0.312,0.208l0.416,0.312c0.935,0.622 2.077,1.453 3.427,2.803l4.36,3.529c1.659,1.143 3.529,1.974 5.708,2.388l0.935,0.104l0.623,0.208l-0.83,-1.038c-0.622,-0.519 -1.245,-1.142 -2.181,-1.766c-1.869,-1.349 -3.427,-2.387 -4.672,-2.906c-1.35,-0.726 -2.077,-1.037 -2.179,-1.037c-0.416,-0.208 -0.416,-0.312 -0.208,-0.416l0.208,0l2.387,1.039c1.247,0.518 2.699,1.35 4.36,2.49c0.829,0.518 1.556,1.038 2.284,1.763ZM39.449,12.769l-0.312,0.726l-0.31,0.52c0.104,0.103 0.622,-0.104 1.244,-0.415c0.727,-0.312 1.454,-0.727 2.181,-1.143l4.151,-3.217l1.559,-1.558l0.311,-0.207c0.208,0 0.208,0.104 0,0.311l-1.559,1.869c-0.933,0.831 -2.178,1.869 -3.632,2.907c-0.728,0.519 -1.557,1.038 -2.389,1.453c-0.829,0.415 -1.763,0.83 -2.49,1.038c-0.728,0.934 -1.35,1.661 -1.765,2.18l-0.622,0.727c4.048,-1.557 7.162,-3.114 9.343,-4.878c2.282,-1.766 3.841,-3.426 4.879,-4.983c0.829,-1.557 1.349,-2.803 1.452,-3.531l-0.104,-0.415l-0.52,0.312c-0.828,0.725 -1.866,1.452 -3.321,2.075c-1.349,0.519 -2.803,1.35 -4.255,2.283c-1.454,0.934 -2.804,2.284 -3.841,3.946ZM32.389,20.243c-1.765,1.038 -2.904,1.869 -3.527,2.595l-0.936,1.349l0,0.312l0.415,-0.208l6.437,-3.529l3.633,-1.349l0.417,-0.104c0.104,0 0.104,0.104 0,0.208l-0.209,0.104c-2.906,1.351 -5.19,2.492 -7.162,3.53l-4.049,2.596l-0.417,0.519l1.143,0c2.491,-0.416 4.567,-1.038 6.332,-2.077l3.115,-1.972l1.869,-1.661l1.764,-1.247l1.351,-0.726c0.104,-0.104 0.207,-0.104 0.104,-0.311l-0.519,-0.208l-0.73,0l-3.84,0.416c-1.66,0.206 -3.321,0.828 -5.191,1.763ZM31.662,19.412l-0.206,0.415l0,0.208l0.206,0c1.247,-0.831 2.077,-1.35 2.597,-1.869c0.519,-0.416 1.039,-0.934 1.558,-1.557c1.037,-1.038 1.764,-2.077 2.282,-3.219c0.623,-1.141 0.935,-2.179 1.143,-3.114c0.208,-0.935 0.312,-1.453 0.208,-1.661l-1.246,1.246l-2.387,1.87l-2.389,2.283c-0.728,0.83 -1.349,1.66 -1.868,2.491l-1.247,2.284l-0.623,1.349c-0.103,0.519 -0.103,0.727 0.104,0.727c0.208,0 0.416,-0.208 0.729,-0.623l1.037,-1.869l0.935,-1.453l1.765,-2.077l1.349,-1.454l0.415,-0.311l0.209,-0.104c0.103,0 0.103,0.208 0,0.311l-0.209,0.208l-0.83,0.831l-1.765,2.284c-0.935,1.142 -1.454,2.078 -1.767,2.804ZM28.549,15.363l-0.208,0.104l-0.934,1.143l-1.765,2.076l-1.246,1.869l-1.143,2.699c-0.415,0.934 -0.518,1.973 -0.622,3.218l0.207,0.935c0,0.208 0.313,0.416 0.519,0.416l0.521,-1.661l0.622,-1.661l2.389,-4.672l0.312,-0.519c0.104,0.104 0,0.208 -0.21,0.519l-0.726,1.869l-1.349,3.011l-0.416,1.347l-0.52,1.454l0.209,0.312c0.207,0 0.519,-0.208 0.935,-0.519l0.829,-1.039c1.247,-2.181 2.076,-4.152 2.284,-5.709c0.312,-1.661 0.414,-3.218 0.414,-4.672c0,-0.416 -0.102,-0.52 -0.102,-0.52ZM118.135,15.363c-0.103,-0.104 -0.103,0.104 -0.103,0.519c0,1.35 0.103,2.907 0.312,4.568c0.311,1.661 1.037,3.529 2.283,5.813l0.934,1.039c0.416,0.311 0.729,0.519 0.935,0.519l0.209,-0.416l-0.52,-1.454l-0.519,-1.349l-1.247,-3.01l-0.829,-1.766c-0.209,-0.311 -0.209,-0.519 -0.209,-0.519l0.415,0.416l0.937,1.661l1.452,3.01l0.623,1.661l0.519,1.661c0.207,0 0.415,-0.104 0.519,-0.415l0.208,-0.832c-0.103,-1.245 -0.312,-2.284 -0.623,-3.218l-1.141,-2.699l-1.351,-1.973l-1.661,-2.077l-0.934,-1.038ZM108.273,19.308l3.633,1.454l6.335,3.425l0.517,0.208l0,-0.208l-0.935,-1.349l-3.633,-2.699c-1.764,-0.934 -3.427,-1.557 -5.189,-1.764l-3.737,-0.416l-0.727,0l-0.52,0.208l0.104,0.416l1.35,0.726l1.66,1.247l1.87,1.557l3.112,2.075c1.87,0.935 3.947,1.558 6.438,1.973l0.727,0.104l0.416,-0.104l-0.416,-0.415l-4.153,-2.596c-1.867,-1.038 -4.151,-2.284 -7.058,-3.53l-0.208,-0.104c-0.207,-0.208 -0.104,-0.208 0,-0.208ZM107.131,8.616c-0.104,0.208 0,0.726 0.209,1.661c0.208,0.935 0.624,1.973 1.142,3.114c0.52,1.142 1.245,2.181 2.282,3.219l1.663,1.557c0.519,0.52 1.245,1.038 2.491,1.869l0.206,0l0.104,-0.208l-0.206,-0.415l-1.765,-2.803l-1.869,-2.284l-0.831,-0.831l-0.104,-0.208c-0.207,-0.103 -0.207,-0.207 -0.103,-0.311l0.206,0.104l0.52,0.311l1.351,1.454l1.764,2.077l0.934,1.453l1.04,1.869l0.622,0.623c0.312,0 0.312,-0.208 0.104,-0.727l-0.623,-1.349l-1.143,-2.284l-1.972,-2.491l-2.389,-2.283l-2.282,-1.87ZM98.309,7.371l0.312,0.311l1.556,1.454c1.039,1.039 2.389,2.077 4.153,3.218c0.83,0.519 1.557,0.934 2.18,1.142c0.728,0.416 1.143,0.52 1.35,0.52l-0.415,-0.52l-0.312,-0.726c-1.038,-1.765 -2.282,-3.115 -3.84,-4.049l-4.256,-2.284c-1.453,-0.623 -2.491,-1.246 -3.322,-1.973l-0.416,-0.312l-0.208,0.312c0.105,0.831 0.521,2.077 1.455,3.634c1.038,1.557 2.595,3.114 4.877,4.878c2.284,1.869 5.399,3.426 9.343,4.879l0.105,0l-0.832,-0.727l-1.556,-2.18c-0.83,-0.208 -1.661,-0.623 -2.596,-1.038c-0.83,-0.416 -1.557,-0.935 -2.283,-1.349l-3.635,-3.011l-1.66,-1.765c-0.208,-0.207 -0.208,-0.414 0,-0.414Z" style="fill:#e6ca2a;fill-rule:nonzero;"/><path d="M83.047,4.983l0,8.927c0,1.764 -0.518,3.114 -1.452,3.945l-2.181,1.349l0.935,0.831l1.143,1.557l1.246,1.868l0.31,0.519l0.833,-0.312l2.179,-0.831l2.076,-0.519c0.622,-0.207 1.351,-0.623 1.868,-1.038c0.623,-0.519 0.935,-1.245 1.246,-2.284l0.622,-2.387l0.831,-3.323l0.727,-3.113l0.52,-1.765l-0.104,-0.208l-1.767,-0.83l-4.462,-1.558ZM85.021,7.681l0.104,0l0.623,0.312c0.312,0.208 0.416,0.519 0.416,0.934c-0.208,0.415 -0.521,0.624 -0.83,0.727l-0.313,-0.104c-0.207,-0.104 -0.416,-0.208 -0.416,-0.311c-0.414,-0.104 -0.519,-0.52 -0.519,-0.935c0.208,-0.414 0.416,-0.623 0.935,-0.623ZM84.604,12.665l0.832,-1.453l1.142,-2.492l0.103,0.207l-0.103,0.935l-0.104,1.662c-0.104,0.519 0,0.934 0,1.349l0.104,0.727l-1.245,0.312l-0.209,-0.208l0,0.104l-0.52,-0.623l-0.103,-0.208ZM84.604,16.609c-0.311,-0.208 -0.519,-0.52 -0.414,-0.935c0.207,-0.311 0.414,-0.622 0.934,-0.622l0.209,0l0.519,0.311c0.312,0.208 0.414,0.519 0.312,0.935l-0.208,0.415l0.311,0l0.52,0.311c0.415,0.104 0.519,0.416 0.415,0.935c-0.103,0.416 -0.415,0.623 -0.83,0.623l-0.207,0l-0.521,-0.311l-0.31,-0.312c-0.209,-0.104 -0.209,-0.312 -0.209,-0.519l0.416,-0.519l-0.416,0ZM83.464,16.194l0.103,0l0.52,0.311c0.416,0.208 0.519,0.519 0.519,0.935c-0.207,0.519 -0.519,0.623 -0.933,0.727l-0.208,-0.104c-0.208,0 -0.417,-0.104 -0.519,-0.312c-0.416,-0.104 -0.416,-0.415 -0.416,-0.83c0.207,-0.416 0.415,-0.623 0.934,-0.727ZM86.891,6.54l-0.21,0c-0.518,0 -0.726,0.208 -0.934,0.623c-0.104,0.416 0.104,0.623 0.416,0.831l0.518,0.311l0.312,0.104l0.207,0l0.312,-0.208l0.206,-0.52c0.208,-0.415 0,-0.727 -0.31,-0.934l0.104,0.831c-0.104,0.312 -0.415,0.519 -0.832,0.623l-0.206,-0.104c-0.104,0 -0.312,0 -0.312,-0.104c-0.312,-0.208 -0.521,-0.415 -0.416,-0.831c0.208,-0.415 0.416,-0.623 0.934,-0.623l0.211,0l0.519,0.208c0.31,0.207 0.518,0.519 0.31,0.934l-0.206,0.52l0.414,0l0.52,0.312c0.311,0.208 0.415,0.519 0.311,0.934c-0.104,0.416 -0.311,0.624 -0.83,0.728l-0.208,-0.104c-0.206,-0.104 -0.415,-0.208 -0.519,-0.312c-0.31,-0.207 -0.52,-0.518 -0.415,-0.934l0.413,-0.417l-0.207,0l-0.312,-0.104l-0.518,-0.311c0,0.104 0.207,0.104 0.312,0.104l0.206,0.104c0.417,-0.104 0.729,-0.311 0.832,-0.623l-0.104,-0.831ZM90.314,10.9l0.52,0.312c0.312,0.207 0.415,0.52 0.415,0.934c-0.103,0.208 -0.208,0.416 -0.415,0.623l0.312,-0.208l0.205,0l0.52,0.311c0.313,0.208 0.52,0.519 0.416,0.934c-0.209,0.519 -0.416,0.623 -0.936,0.727l-0.205,-0.104l-0.416,-0.208c-0.416,-0.208 -0.519,-0.416 -0.519,-0.935l0.414,-0.518l-0.519,0l-0.519,-0.312c-0.313,-0.207 -0.416,-0.52 -0.416,-0.934c0.103,-0.312 0.416,-0.623 0.935,-0.623l0.208,0ZM88.653,12.042l0.52,0.311c0.312,0.208 0.416,0.519 0.416,0.934c-0.208,0.52 -0.416,0.624 -0.936,0.728l-0.103,-0.104c-0.312,0 -0.416,-0.104 -0.624,-0.311c-0.311,-0.208 -0.414,-0.519 -0.414,-0.831c0.206,-0.416 0.414,-0.623 0.934,-0.727ZM89.899,13.08l-0.104,0.311l0.207,-0.207l0.209,0.207l-0.209,0.935l-0.207,1.661l0,1.35l0.207,0.726l-0.414,0l-0.832,0.312l-0.104,-0.312l-0.207,0.104l-0.312,-0.623l-0.312,-0.104l0.208,-0.416l0.726,-1.453ZM84.916,17.232l0.208,0.208l-0.104,1.038l-0.104,1.558c-0.103,0.519 0,1.038 0,1.453l0.104,0.623l-0.416,0.104l-0.829,0.208l-0.104,-0.208l-0.208,0.104l-0.417,-0.623l-0.206,-0.103l0.206,-0.416l0.729,-1.453Z" style="fill:#e7e6e6;fill-rule:nonzero;"/><path d="M85.124,7.681l-0.104,0c-0.519,0 -0.727,0.209 -0.935,0.623c0,0.416 0.104,0.831 0.519,0.935l0.209,0.103l0.207,0c0.416,0 0.622,-0.207 0.831,-0.622l-0.104,-0.727Z" style="fill:#000;fill-rule:nonzero;"/><path d="M85.124,7.681l-0.104,0c-0.519,0 -0.727,0.209 -0.935,0.623c0,0.416 0.104,0.831 0.519,0.935l0.209,0.103l0.207,0c0.416,0 0.622,-0.207 0.831,-0.622l-0.104,-0.727Z" style="fill:#000;fill-rule:nonzero;"/><path d="M85.437,11.211l-0.832,1.453l-0.103,0.311l0.103,0.208l0.52,0.623l0,-0.104l0.831,-0.312l0.311,0l-0.103,-0.622c0,-0.519 0,-1.038 0,-1.454l0.207,-1.661l0.208,-0.831l0,-0.102Z" style="fill:#000;fill-rule:nonzero;"/><path d="M85.437,11.211l-0.832,1.453l-0.103,0.311l0.103,0.208l0.52,0.623l0,-0.104l0.831,-0.312l0.311,0l-0.103,-0.622c0,-0.519 0,-1.038 0,-1.454l0.207,-1.661l0.208,-0.831l0,-0.102Z" style="fill:#000;fill-rule:nonzero;"/><path d="M84.19,15.674c-0.104,0.416 0.104,0.728 0.414,0.935l0.312,0.104l0.208,0c0.416,0 0.728,-0.208 0.831,-0.623l-0.104,-0.727l-0.519,-0.311l-0.209,0c-0.519,3.55271e-15 -0.726,0.311 -0.933,0.622Z" style="fill:#000;fill-rule:nonzero;"/><path d="M84.19,15.674c-0.104,0.416 0.104,0.728 0.414,0.935l0.312,0.104l0.208,0c0.416,0 0.728,-0.208 0.831,-0.623l-0.104,-0.727l-0.519,-0.311l-0.209,0c-0.519,3.55271e-15 -0.726,0.311 -0.933,0.622Z" style="fill:#000;fill-rule:nonzero;"/><path d="M86.059,16.713l-0.104,0l-0.415,0.208l-0.416,0.519c0,0.208 0,0.416 0.209,0.519l0.31,0.312l0.209,0.104l0.207,0.104c0.52,-0.104 0.832,-0.312 0.935,-0.727l-0.208,-0.727l-0.52,-0.311l-0.207,0Z" style="fill:#000;fill-rule:nonzero;"/><path d="M86.059,16.713l-0.104,0l-0.415,0.208l-0.416,0.519c0,0.208 0,0.416 0.209,0.519l0.31,0.312l0.209,0.104l0.207,0.104c0.52,-0.104 0.832,-0.312 0.935,-0.727l-0.208,-0.727l-0.52,-0.311l-0.207,0Z" style="fill:#000;fill-rule:nonzero;"/><path d="M83.566,16.194l-0.103,0c-0.519,0.104 -0.727,0.311 -0.935,0.727c0,0.415 0,0.726 0.416,0.83l0.311,0.208l0.208,0c0.416,0 0.622,-0.312 0.83,-0.727l-0.104,-0.623l-0.104,-0.104Z" style="fill:#000;fill-rule:nonzero;"/><path d="M83.566,16.194l-0.103,0c-0.519,0.104 -0.727,0.311 -0.935,0.727c0,0.415 0,0.726 0.416,0.83l0.311,0.208l0.208,0c0.416,0 0.622,-0.312 0.83,-0.727l-0.104,-0.623l-0.104,-0.104Z" style="fill:#000;fill-rule:nonzero;"/><path d="M87.513,8.201l-0.313,0.207l-0.415,0.415c-0.104,0.416 0.106,0.727 0.415,0.934l0.312,0.104l0.206,0c0.416,0 0.728,-0.208 0.832,-0.622l-0.104,-0.727l-0.52,-0.312l-0.413,0Z" style="fill:#000;fill-rule:nonzero;"/><path d="M87.513,8.201l-0.313,0.207l-0.415,0.415c-0.104,0.416 0.106,0.727 0.415,0.934l0.312,0.104l0.206,0c0.416,0 0.728,-0.208 0.832,-0.622l-0.104,-0.727l-0.52,-0.312l-0.413,0Z" style="fill:#000;fill-rule:nonzero;"/><path d="M90.834,11.211l-0.52,-0.312l-0.207,0c-0.519,0 -0.832,0.312 -0.935,0.623c0,0.414 0.103,0.727 0.416,0.934l0.207,0.104l0.312,0c0.415,0 0.727,-0.208 0.83,-0.624Z" style="fill:#000;fill-rule:nonzero;"/><path d="M90.834,11.211l-0.52,-0.312l-0.207,0c-0.519,0 -0.832,0.312 -0.935,0.623c0,0.414 0.103,0.727 0.416,0.934l0.207,0.104l0.312,0c0.415,0 0.727,-0.208 0.83,-0.624Z" style="fill:#000;fill-rule:nonzero;"/><path d="M87.413,6.796l-0.518,-0.312l-0.209,0c-0.519,0 -0.83,0.312 -0.935,0.623c0,0.416 0.104,0.727 0.416,0.935l0.208,0.104l0.311,0c0.415,0 0.727,-0.208 0.831,-0.623Z" style="fill:#000;fill-rule:nonzero;"/><path d="M90.834,12.769l-0.208,0l-0.414,0.518c0,0.52 0.103,0.728 0.519,0.935l0.104,0.104l0.312,0c0.414,0 0.725,-0.311 0.828,-0.726l-0.104,-0.727l-0.52,-0.311l-0.205,0Z" style="fill:#000;fill-rule:nonzero;"/><path d="M90.834,12.769l-0.208,0l-0.414,0.518c0,0.52 0.103,0.728 0.519,0.935l0.104,0.104l0.312,0c0.414,0 0.725,-0.311 0.828,-0.726l-0.104,-0.727l-0.52,-0.311l-0.205,0Z" style="fill:#000;fill-rule:nonzero;"/><path d="M89.173,12.353l-0.52,-0.311l-0.207,0c-0.52,0.104 -0.728,0.311 -0.934,0.727c0,0.312 0.104,0.622 0.414,0.831l0.312,0.207l0.208,0c0.415,0 0.727,-0.312 0.829,-0.726Z" style="fill:#000;fill-rule:nonzero;"/><path d="M89.173,12.353l-0.52,-0.311l-0.207,0c-0.52,0.104 -0.728,0.311 -0.934,0.727c0,0.312 0.104,0.622 0.414,0.831l0.312,0.207l0.208,0c0.415,0 0.727,-0.312 0.829,-0.726Z" style="fill:#000;fill-rule:nonzero;"/><path d="M89.796,13.391l0.104,-0.311l-1.143,2.491l-0.726,1.453l-0.208,0.416l0.312,0.104l0.312,0.623l0.207,-0.104l0.622,-0.207l0.417,-0.104l-0.104,-0.623c0,-0.519 -0.104,-0.934 0,-1.454l0.207,-1.66Z" style="fill:#000;fill-rule:nonzero;"/><path d="M89.796,13.391l0.104,-0.311l-1.143,2.491l-0.726,1.453l-0.208,0.416l0.312,0.104l0.312,0.623l0.207,-0.104l0.622,-0.207l0.417,-0.104l-0.104,-0.623c0,-0.519 -0.104,-0.934 0,-1.454l0.207,-1.66Z" style="fill:#000;fill-rule:nonzero;"/><path d="M84.813,18.166l0.103,-0.934l-1.141,2.492l-0.729,1.453l-0.206,0.416l0.206,0.103l0.417,0.623l0.208,-0.104l0.933,-0.312l0,-0.623c0,-0.519 -0.103,-0.934 0,-1.454Z" style="fill:#000;fill-rule:nonzero;"/><path d="M84.813,18.166l0.103,-0.934l-1.141,2.492l-0.729,1.453l-0.206,0.416l0.206,0.103l0.417,0.623l0.208,-0.104l0.933,-0.312l0,-0.623c0,-0.519 -0.103,-0.934 0,-1.454Z" style="fill:#000;fill-rule:nonzero;"/><path d="M62.703,29.481l-1.974,-0.104l-3.218,0.623c-1.037,0.416 -1.973,1.038 -2.595,1.973c-0.727,1.038 -1.037,2.18 -1.037,3.737c0,1.454 0.415,2.699 1.244,3.737l2.908,3.114c1.037,0.935 2.076,1.973 2.905,3.011c0.831,1.038 1.246,2.18 1.246,3.529c0,1.038 -0.312,1.765 -0.935,2.283c-0.727,0.416 -1.659,0.729 -2.803,0.729c-1.037,0.102 -1.972,-0.209 -2.699,-0.832l-1.245,-1.038l-0.829,-1.142l-0.209,-0.312l-0.103,0.415l0,1.038l0.103,1.558l0.312,1.141l0.936,0.52l4.358,0.623c1.142,0 2.387,-0.311 3.529,-0.83c1.144,-0.52 2.076,-1.246 2.803,-2.388c0.83,-1.038 1.246,-2.491 1.246,-4.256c0,-1.662 -0.416,-3.218 -1.246,-4.463c-0.621,-0.831 -1.348,-1.662 -2.075,-2.388l-0.832,-0.832l-0.311,-0.207l-0.207,-0.208l-2.387,-2.387c-0.936,-0.831 -1.246,-1.869 -1.352,-2.907c0,-0.726 0.208,-1.245 0.728,-1.557l1.765,-0.52c0.936,0 1.661,0.208 2.388,0.52c0.726,0.415 1.246,0.831 1.766,1.453l0.207,0.207l0.311,0.312l0,-3.113c-0.103,-0.52 -0.311,-0.623 -0.621,-0.726ZM38.722,31.973l0.105,3.944l0.104,5.086l0,5.294l-0.104,4.464l0,2.179l0.104,0.52l0.414,0.104l6.541,0l2.388,0.104l1.869,0c0.519,0.104 0.726,-0.208 0.83,-0.728l0.208,-0.934l0.104,-0.414l0.104,-1.454l-0.104,-0.519l-0.208,0.311c-0.415,0.52 -0.831,0.935 -1.558,1.246l-2.076,0.52l-1.765,0.104l-0.518,0l-0.728,-0.104l-0.416,-0.935l-0.104,-2.491l-0.104,-3.219l0.104,-2.906c0,-0.311 0.207,-0.52 0.83,-0.52l3.01,0c0.729,-0.104 1.039,-0.311 1.248,-0.83l0.103,-0.208l0.207,-1.038c0.104,-0.104 0,-0.208 -0.104,-0.208l-0.206,0.106l-1.248,0.104l-2.698,0c-0.518,0.103 -0.935,0.208 -1.142,0.415l0,-5.19l0.104,-1.764l0.104,-1.247l1.04,-0.207l1.244,-0.104l2.388,0.311c0.727,0.312 1.247,0.728 1.662,1.35l0.311,0.312l0.104,-0.415l0,-1.35l-0.104,-0.935l0,-0.519c-0.104,-0.415 -0.415,-0.623 -0.83,-0.623l-2.804,0.208l-4.359,0.103l-4.049,-0.208l-0.413,0.105l0.102,0.31c0.103,0.105 0.206,0.832 0.31,1.87ZM46.403,25.432l-2.802,1.143l-3.22,0.935l-0.207,0.312l0.312,0.104l1.144,0.104l0.829,0l5.71,-0.726c1.037,-0.208 1.659,-0.624 1.869,-1.039c0.104,-0.416 0.104,-0.935 -0.21,-1.557l-0.311,-0.935c-1.245,0.622 -2.284,1.141 -3.114,1.659ZM20.452,31.973l0.208,3.944l0,10.38l-0.105,4.359l-0.312,2.283c0,0.312 0,0.52 0.105,0.52l0.414,0.104l4.569,0l0.312,-0.104l0.104,-0.52l0,-1.66l-0.104,-3.218l0,-15.468c0,-0.622 0.104,-1.038 0.311,-1.141l1.351,-0.312c0.726,-0.104 1.452,0.208 2.181,0.831l0.518,0.622c0.416,0.727 0.622,1.973 0.622,3.53c0,1.349 -0.312,2.595 -0.83,3.322c-0.519,0.831 -1.143,1.35 -1.765,1.765l-1.245,0.519l-0.416,0.104c-0.415,0 -0.621,0 -0.621,0.103l0.206,0.312l0.312,0.207l0.52,0.727l0.206,0.415l1.351,2.906l1.661,4.463c0.521,1.559 1.454,3.115 2.597,4.674l1.451,1.453c0.831,0.622 1.767,1.141 2.7,1.452c1.66,0.623 3.114,0.935 4.67,0.935l0.729,0l0.311,-0.207c0.104,-0.209 0.104,-0.312 0,-0.312l-1.557,-1.038l-0.209,-0.104l-2.075,-2.388c-1.245,-1.557 -2.076,-3.114 -2.906,-4.775l-1.973,-3.943c-0.623,-1.039 -1.141,-1.767 -1.869,-2.596l-0.311,-0.416c-0.209,-0.104 -0.416,-0.311 -0.52,-0.311c-0.622,-0.623 -1.246,-0.935 -1.973,-1.038c1.039,-0.104 2.076,-0.416 3.012,-0.935c0.935,-0.622 1.66,-1.349 2.386,-2.387c0.52,-0.935 0.833,-2.18 0.833,-3.529c0,-1.454 -0.313,-2.7 -0.937,-3.529l-0.829,-0.936c-1.144,-0.934 -2.596,-1.349 -4.36,-1.349l-0.416,0l-2.595,0.208l-1.245,0l-4.464,-0.208c-0.416,0 -0.52,0.208 -0.312,0.415c0.1,0.106 0.206,0.833 0.309,1.871ZM9.24,31.454l1.246,-0.312c0.83,-0.104 1.453,0.312 2.283,0.934l0.52,0.624c0.416,0.727 0.727,1.868 0.727,3.426c0,1.453 -0.311,2.595 -0.83,3.426c-0.52,0.83 -1.038,1.453 -1.765,1.868c-0.52,0.417 -1.038,0.624 -1.349,0.624l-0.521,0.312l0.415,0.207l0.208,0l2.18,0.104c0.831,0 1.661,-0.312 2.699,-0.83c1.038,-0.52 1.869,-1.351 2.595,-2.388c0.624,-1.039 1.037,-2.284 1.037,-3.842c0,-1.557 -0.31,-2.803 -1.037,-3.632l-0.726,-0.936c-1.246,-0.83 -2.699,-1.349 -4.464,-1.244l-0.415,0l-2.388,0.103l-1.868,0l-4.154,-0.208c-0.415,0 -0.519,0.208 -0.311,0.415c0.208,0.104 0.311,0.831 0.311,1.87l0.209,4.049l0.104,4.981l-0.104,5.294l-0.105,4.464l0,2.179l0.105,0.52l0.311,0.104l4.882,0c0.312,0 0.519,-0.104 0.312,-0.416c-0.208,-0.415 -0.312,-1.972 -0.519,-4.567l0,-11.003l0.103,-3.01l0,-1.973c-0.002,-0.624 0.102,-1.039 0.309,-1.143ZM136.302,29.688l-2.699,0l-1.349,-0.104l-0.623,0.104c-0.104,0.105 -0.207,0.208 -0.312,0.52l-0.208,3.322c0,0.104 0.104,0.207 0.104,0.207l0.208,-0.207l0.934,-0.935c0.416,-0.312 0.829,-0.415 1.245,-0.519l2.803,-0.312l0.104,1.247l0,20.448c0,0.208 0.104,0.312 0.414,0.312l4.674,0c0.311,0 0.414,-0.208 0.311,-0.624l-0.207,-0.622l0,-3.219l-0.104,-3.32l0,-3.634l-0.104,-3.011l0,-7.578l2.801,0.312c1.038,0.208 1.87,0.727 2.286,1.454l0.207,0.207l0.104,-0.207l-0.104,-1.557l-0.104,-1.039l-0.103,-0.519l-0.21,-0.727l-0.518,-0.104l-1.453,0.104l-8.097,0ZM113.672,30l-0.208,0.208l0.208,0.208c0.312,0.104 0.727,0.622 1.142,1.558l0,2.076l-0.104,5.191l0,6.332l-0.103,5.294l0,2.388c0,0.415 0.103,0.52 0.206,0.52l2.286,0l0.206,-0.208l-0.206,-0.208c-0.104,-0.104 -0.312,-0.311 -0.312,-0.727l-0.104,-1.037l0,-15.26l0.623,1.35l0.519,1.35l0.935,2.18l1.765,4.256l1.558,3.736l0.935,2.18c0.207,0.729 0.622,1.35 1.141,1.662l0.416,0.311l1.661,0.416l2.285,0c0.311,0 0.52,-0.208 0.414,-0.416l0,-22.215c0.105,-0.519 0.21,-0.727 0.416,-0.83c0.207,-0.208 0.207,-0.312 0,-0.416l-1.868,0c-0.415,0.104 -0.624,0.207 -0.727,0.519l-0.104,0.935l0,1.868l0.104,4.153l0.103,4.775l0.104,3.945l0,1.556l-0.727,-1.556l-1.557,-3.737l-1.868,-4.672l-1.766,-4.152l-0.83,-2.076l-0.312,-0.52c-0.415,-0.727 -1.038,-1.141 -1.659,-1.141l-2.285,0.103ZM104.537,31.765l1.037,-0.207l1.246,-0.104l2.284,0.311c0.726,0.312 1.349,0.728 1.765,1.35l0.207,0.312l0.104,0l0.104,-0.415l-0.104,-1.35l-0.104,-0.935l0,-0.519c-0.104,-0.415 -0.312,-0.623 -0.726,-0.623l-2.907,0.208l-4.359,0.103l-3.945,-0.208l-0.519,0.105c0,0.103 0,0.103 0.103,0.31l0.312,1.87l0.104,3.944l0.104,5.086l0,5.294l-0.104,4.464l0,2.179l0.207,0.52l0.312,0.104l6.541,0l2.492,0.104l1.764,0c0.52,0.104 0.832,-0.208 0.935,-0.728l0.207,-0.934l0,-0.414l0.208,-1.454l-0.208,-0.519l-0.207,0.311c-0.312,0.52 -0.831,0.935 -1.453,1.246l-2.076,0.52l-1.871,0.104l-0.416,0l-0.83,-0.104c-0.207,-0.208 -0.311,-0.52 -0.415,-0.935l-0.104,-2.491l0,-6.125c0,-0.311 0.312,-0.52 0.934,-0.52l3.011,0c0.727,-0.104 1.038,-0.311 1.245,-0.83l0,-0.208l0.312,-1.038l-0.206,-0.208l-0.208,0.104l-1.246,0.104l-2.7,0c-0.519,0.103 -0.83,0.208 -1.142,0.415l0.104,-2.491l0,-4.463c0,-0.622 0,-1.037 0.208,-1.245ZM74.433,32.388l0,-1.868c0.103,-0.52 -0.208,-0.831 -0.52,-0.726l-0.415,0.103l-0.312,0l-2.178,-0.103l-1.662,-0.105c-0.415,0 -0.521,0.208 -0.415,0.415l0.208,0.312l0.103,0.622l0.209,3.219l0,3.945l0.103,2.595l0,2.699l-0.103,4.151l0,3.842l-0.104,1.765l0.312,0.415l3.529,0l1.454,0.104l0.208,-0.208l-0.104,-0.416l-0.209,-0.935l-0.103,-1.349l-0.104,-1.973l-0.104,-3.321l0,-6.644l0.104,-3.217ZM84.294,31.662c0.104,-0.416 0.52,-0.52 1.039,-0.52c0.83,0 1.66,0.312 2.594,0.934l1.039,1.039l1.142,2.18c0.623,1.558 0.934,3.633 1.039,6.437c-0.105,2.803 -0.416,5.086 -1.039,6.644c-0.622,1.557 -1.351,2.594 -2.389,3.114c-0.726,0.624 -1.556,0.83 -2.386,0.83l-0.417,0c-0.312,0.104 -0.414,0 -0.519,-0.104c-0.207,-0.207 -0.312,-0.726 -0.312,-1.349l-0.104,-2.595l-0.103,-3.115l0,-8.512l0.103,-2.491c0.001,-1.351 0.105,-2.181 0.313,-2.492ZM85.54,29.793l-3.321,0.103l-3.426,-0.208l-0.209,0c-0.312,0 -0.312,0.208 0,0.727l0.104,1.661l0.207,3.322l0,17.648c-0.102,0.519 0.105,0.83 0.52,0.727l7.165,0c1.453,0 3.011,-0.52 4.463,-1.35c1.558,-0.935 2.804,-2.284 3.843,-4.256c1.038,-1.973 1.66,-4.256 1.66,-7.268c0,-3.01 -0.52,-5.294 -1.558,-6.851l-1.04,-1.348c-0.726,-0.935 -1.764,-1.662 -2.802,-2.076c-1.558,-0.624 -3.012,-0.935 -4.466,-0.935Z" style="fill:#d03839;fill-rule:nonzero;"/><path d="M95.194,8.408c-0.311,-0.104 -0.623,0.208 -0.728,0.727l-0.416,1.454l-0.726,3.218l-0.935,3.426l-0.52,2.076c-0.311,1.35 -1.037,2.388 -2.179,2.907c-1.142,0.519 -2.389,0.934 -3.634,1.246c-1.35,0.208 -2.492,0.726 -3.218,1.35l4.463,-1.142c1.453,-0.208 2.596,-0.519 3.53,-1.245c1.037,-0.623 1.765,-1.766 2.283,-3.634l2.492,-10.381l-0.412,0Z" style="fill:#e6ca2a;fill-rule:nonzero;"/><path d="M79,19.827l-0.623,0.311l2.076,2.077l2.388,2.595l-1.557,-2.595Z" style="fill:#e6ca2a;fill-rule:nonzero;"/><path d="M76.3,3.737l0.52,0.104c0.52,0 1.039,-0.208 1.453,-0.416l0.209,-0.416l0,-0.103l-0.104,0l-0.83,0.104l-0.415,-0.104l-1.039,-0.208l-1.142,-0.104l-0.935,0.208c-0.311,0.104 -0.311,0.311 -0.311,0.623c0,0.416 0.207,0.623 0.519,0.83l0.311,0.104l1.764,0.207l0.936,0l1.868,0.104c0.622,0.104 0.936,0.312 1.039,0.52l-0.52,0.519l-1.661,0.312c-0.727,0 -1.557,-0.312 -2.18,-0.727c-0.727,-0.311 -1.558,-0.52 -2.284,-0.623l-1.038,0.312c-0.622,0.104 -1.35,0.519 -1.869,1.141l-0.103,0.104l-1.453,-0.934l-0.831,-0.415l-0.208,-0.935l-0.104,-0.103l-0.416,0.103c-0.312,0.104 -0.415,0.416 -0.312,0.935l0.416,1.453l0.935,3.322l0.936,3.633l0.519,1.973c0.311,1.142 0.104,1.972 -0.208,2.802c-0.311,0.727 -0.936,1.454 -1.661,2.076l-2.076,1.973c-0.623,0.519 -1.141,1.245 -1.454,2.075c1.144,-1.453 2.285,-2.491 3.427,-3.321c1.039,-0.727 1.867,-1.453 2.387,-2.284l0.105,-0.208c0.31,-0.416 0.414,-0.831 0.52,-1.453l0,-0.208l0.726,0.208l0.104,-0.104c0,-0.519 0.103,-0.935 0.312,-1.246l0.934,-0.624c0.311,-0.311 0.519,-0.519 0.623,-0.934l0,0.832l-0.208,0.208l-0.104,0.103l-0.107,0l-0.416,0.416l0.312,0.103l0.208,0l1.351,-0.622c0.415,-0.312 0.933,-0.52 1.556,-0.623l1.039,0.208l0,0.311l0.312,0.416l0.104,0l1.038,0.311l0.311,0.104l0,0.311c-0.209,0.208 -0.311,0.312 -0.727,0.312l-0.519,0l-0.415,0.208c-0.104,0.312 -0.104,0.415 0.104,0.727l0.104,0l0.727,-0.104l1.037,0.208c0,-0.727 0.417,-1.038 0.935,-1.246l-0.206,-0.623l0,-0.208c-0.312,0 -0.623,-0.208 -0.729,-0.311l-0.311,-0.416c-0.209,-0.312 -0.209,-0.623 0,-0.727l0.622,-0.311c0.208,-0.104 0.417,-0.312 0.52,-0.727l0,-0.104c-0.206,-0.519 -1.036,-0.832 -2.698,-0.832l-0.312,0l-0.624,0.105c-1.141,0 -1.867,-0.105 -2.282,-0.311l-0.208,-0.52c0.104,-0.312 0.312,-0.416 0.623,-0.416l0.933,0.104l0.105,0.312l0.207,0.207c0.104,0.104 0.311,0.312 0.727,0.312c0.416,-0.105 0.831,-0.312 1.143,-0.52l0.309,-0.309l0,-0.208l-0.831,0.103l-0.52,0l-0.934,-0.103l-0.935,-0.208l-0.104,0l-0.727,0.208l-0.415,0.622l0.311,0.519l0.519,0.312l1.66,0.208l0.624,0c1.765,0 2.595,0.208 2.804,0.519l0,0.104l-0.414,0.415l-1.559,0.312c-0.623,-0.104 -1.351,-0.312 -1.974,-0.623l-2.075,-0.624c-0.623,0.104 -1.245,0.312 -1.868,0.624l-0.936,0.83l-0.207,-0.104l-0.103,-0.52l0.206,0.104c0.208,-0.104 0.416,-0.104 0.519,-0.311l0.521,-0.519c0.416,-0.104 0.623,-0.312 0.623,-0.624l0,-0.311l-0.312,-0.312l0.312,-0.415l0.104,-0.208l-0.104,-0.208l-0.104,-0.104l-0.103,0c-0.209,0.312 -0.416,0.415 -0.624,0.415l-0.728,-0.207l-0.726,0.207l-0.415,-0.207l-0.205,-1.14l-0.104,-0.311l0.312,-0.104l1.868,0.415l0.104,-0.207c-0.104,-0.52 0,-0.935 0.311,-1.142l1.038,-0.831c0.415,-0.207 0.52,-0.519 0.623,-0.934l0.104,-0.104l0,0.104c0,0.623 0,0.934 -0.312,1.142l-0.726,0.623l0.831,0c0.415,-0.104 0.727,-0.312 1.246,-0.623c0.519,-0.415 1.038,-0.623 1.765,-0.623l1.038,0.208l0.104,0.207l0.415,0.519c0.207,0.105 0.622,0.312 1.144,0.312l0.205,0.104l0,0.208c0,0.312 -0.205,0.415 -0.727,0.519l-0.415,-0.104l-0.104,0c-0.208,0 -0.312,0.104 -0.415,0.312c-0.104,0.207 -0.104,0.519 0.104,0.727l0.207,-0.104l0.622,0l1.144,0.104l0.312,-0.727c0.206,-0.312 0.414,-0.415 0.727,-0.519l-0.208,-0.519l0,-0.313l-0.622,-0.207c-0.313,-0.208 -0.52,-0.416 -0.625,-0.519c-0.104,-0.416 -0.104,-0.727 0,-0.832l0.312,0l0.52,-0.311l0.208,-0.104l0.312,-0.727l-0.104,-0.104c-0.208,-0.52 -1.142,-0.831 -2.803,-0.831l-0.415,0.104l-0.624,0l-2.075,-0.207l-0.209,-0.104l-0.414,-0.519l0.104,-0.208l0.208,-0.208l0.312,-0.104l1.038,0.208l0.207,0.312Z" style="fill:#e6ca2a;fill-rule:nonzero;"/><path d="M82.529,1.869l-1.038,-0.416l-3.114,-0.934l-4.671,-0.519l-4.671,0.519l-3.115,0.831l-0.727,0.311l-0.414,0.208l1.244,-0.208l3.323,-0.52l4.36,-0.207l4.464,0.311l3.217,0.416l1.35,0.311Z" style="fill:#e6ca2a;fill-rule:nonzero;"/><path d="M82.529,2.18c-0.209,0.104 -0.311,0.311 -0.415,0.726l0,11.626c-0.104,1.454 -0.623,2.595 -1.661,3.426c-1.039,0.623 -2.181,1.246 -3.53,1.868c-1.246,0.52 -2.388,1.247 -3.217,2.285c1.453,-1.038 2.905,-1.765 4.359,-2.285l1.349,-0.623l2.181,-1.349c0.935,-0.831 1.452,-2.181 1.452,-3.945l0,-11.833Z" style="fill:#e6ca2a;fill-rule:nonzero;"/><path d="M85.54,4.048l-0.624,0.104l-0.83,0l-0.52,0.104l1.038,0.208l2.181,0.311l2.284,0.52c1.972,0.727 3.529,1.246 4.566,1.765l1.559,1.038l-1.144,-1.246l-0.206,-0.208c-0.831,-0.622 -2.076,-1.142 -3.945,-1.869Z" style="fill:#e6ca2a;fill-rule:nonzero;"/><path d="M65.816,3.529l-1.453,0l-2.596,0.104l-3.114,0.622c-1.558,0.519 -2.907,1.039 -3.943,1.766l-1.767,1.038l-0.623,0.519l-0.726,0.623l2.076,-1.038l5.5,-2.18l3.842,-0.935l2.907,-0.312l1.244,0l-0.31,-0.104l-0.415,0Z" style="fill:#e6ca2a;fill-rule:nonzero;"/><path d="M68.825,3.01l0.21,0.416c-0.21,0.104 -0.416,0.416 -0.312,0.726l0.103,0.415l0.521,0.208l0.312,0.416l0.104,0.104l0.103,0.104c0.105,0.104 0.312,0.208 0.52,0.208c0.208,0 0.415,-0.104 0.52,-0.208l0.623,-0.623c0.415,-0.104 0.624,-0.311 0.624,-0.623l-0.312,-0.623l0.312,-0.416l0,-0.104c0.103,-0.104 0,-0.311 0,-0.415l0,-0.104l-0.213,0.104c-0.311,0.312 -0.415,0.312 -0.623,0.312l-0.829,-0.208l-0.831,0.208c-0.207,0 -0.416,-0.208 -0.622,-0.415l-0.104,0Z" style="fill:#e6ca2a;fill-rule:nonzero;"/><path d="M52.634,9.135c-0.313,-0.519 -0.624,-0.727 -0.936,-0.727l-0.415,0.104l3.011,10.069c0.416,1.35 0.935,2.284 1.557,3.011c0.727,0.519 1.454,0.934 2.282,1.141l2.908,0.52l3.528,0.934c-0.828,-0.726 -1.972,-1.038 -3.218,-1.245c-1.244,-0.208 -2.387,-0.519 -3.528,-1.039c-1.143,-0.415 -1.973,-1.349 -2.491,-2.907l-0.52,-1.869l-0.934,-3.322l-0.936,-3.218Z" style="fill:#e6ca2a;fill-rule:nonzero;"/><path d="M71.838,20.657l1.868,1.454l-1.557,-1.661l-1.973,-1.349l-0.313,0.415Z" style="fill:#e6ca2a;fill-rule:nonzero;"/><path d="M57.719,8.72l-0.104,0.415c-0.207,-0.312 -0.311,-0.519 -0.207,-0.831l-0.209,-0.207l0.52,-0.312l0.624,-0.104l-0.312,0.312l0.206,0.104l0.208,-0.207l0.311,-0.312l-0.206,-0.104l-0.417,-0.208l0.521,-0.623c0.103,0.104 0.208,0.208 0.103,0.416l0.209,0c0.206,-0.519 0.52,-0.832 0.829,-0.727c0.416,0 0.728,-0.104 0.936,-0.311l0.202,-0.008l0.109,0.527l0.207,0.103c0.417,0 0.833,0.208 1.143,0.52l0.415,0.416l0.415,1.142l0.311,1.142l0.625,0.831c-0.52,0 -0.936,-0.208 -1.247,-0.416l-0.416,-0.311l0.832,1.349l0.416,0.417l-1.038,-0.312l-0.416,-0.207l0.206,0.52l0.416,0.415l0.832,0.519l0.828,0.208l0.831,0.623c0.52,-0.104 0.83,-0.415 0.83,-1.142l-0.518,-0.83l-0.314,-0.316l-1.038,-1.038c-0.416,-0.416 -0.622,-0.832 -0.727,-1.247c-0.105,-0.519 -0.105,-0.83 0.104,-1.142l0.622,-0.415l0.311,0l0.831,0.415l0.104,0.416l0.312,0.934l0.311,0.311l0.312,0.104l0.208,0.104l-0.311,0.104l-0.623,0.104l-0.416,-0.104l-0.415,-0.312l-0.206,-1.245c0,-0.104 -0.105,-0.311 -0.21,-0.311l-0.311,-0.105l-0.312,0.623l0,0.313l0.832,1.246l1.349,1.038l0.312,0.311c0,0 0.519,0.581 0.519,1.039c0,0.416 -0.104,0.831 -0.312,1.142c-0.311,0.312 -0.727,0.52 -1.038,0.623l-0.104,0.831l-0.207,0.416c0.103,0.311 0.207,0.519 0.519,0.727l0.414,0.104l1.144,0.208l0.103,0.311l0,0.208l-0.208,1.868c0,0.208 -0.104,0.312 -0.207,0.415l-1.142,0.312l-0.83,0.311l-0.207,-0.103l0.207,-0.727l0,-0.311l0.83,-0.104l0.416,0l0.104,-0.623l0,-0.727l-0.52,-0.104l-2.283,0.312l-1.35,0l-0.312,-0.208l-0.311,-0.311l-0.104,-0.416l-0.105,-0.311l0.105,-0.623l-0.312,0.415l-0.207,0.623c0.104,0.727 0.207,1.141 0.727,1.349l0.83,0.208c0.105,0 0.208,0.104 0.208,0.312l-0.519,1.869l-2.283,0.727l-0.313,0.103c-0.206,-0.103 -0.206,-0.415 0,-0.519l0.208,-0.415l1.143,-0.208l0.207,0c0.104,-0.104 0.207,-0.416 0.312,-0.831l-0.105,-0.415l0,-0.312l-1.245,-0.104c-0.312,-0.104 -0.621,-0.208 -1.039,-0.416l-0.518,-0.727c-0.208,-0.311 -0.208,-0.727 -0.104,-1.142l0.415,-0.519l0.934,-0.727l0.831,-0.312l0.831,-0.208l-1.143,-0.104c-0.52,-0.104 -0.934,-0.312 -1.35,-0.831l-0.831,0.208l-0.206,0l-0.727,-0.312l-0.52,-0.207l-0.208,-0.208l-0.416,-0.104l-0.206,0l-0.209,0.104l-0.208,-0.416l-0.206,-0.311l-0.312,-0.208l0.312,-0.311l0.31,-0.312l0.313,0.104l0.622,0.624c0.312,0.208 0.728,0.415 1.038,0.519l0.208,0l0.622,-0.104l-0.103,-0.207c-0.21,0 -0.312,-0.104 -0.728,-0.312l-0.207,-0.206l-0.623,-0.728l-0.312,-0.519l-0.623,-0.519l-0.312,-0.104l-0.31,0.104l-0.312,0.104l-0.204,-0.727l-0.21,-0.207l-0.206,0l0.622,-0.415l0.312,-0.104c0.518,0.104 0.933,0.311 1.349,0.624l0,0.207l0.312,0.312l0.416,0.623l0.206,0.415l0.312,0.208l0.622,0.208l0.208,-0.312l0.415,-0.624l-0.207,-0.311c-0.225,0.162 -0.398,0.231 -0.519,0.208l-0.312,-0.312l0,-0.416l0.102,0.208l0.21,0c0.311,-0.104 0.519,-0.312 0.413,-0.727c-0.103,-0.311 -0.311,-0.311 -0.725,-0.311Z" style="fill:#e6ca2a;fill-rule:nonzero;"/><path d="M70.279,8.097l-0.207,0l-0.209,-0.519l-0.311,-0.416l-0.102,-0.414l-0.104,-0.208l-0.831,-0.416l0.521,2.077l0.518,0.104Z" style="fill:#d03839;fill-rule:nonzero;"/><path d="M70.279,8.097l-0.207,0l-0.209,-0.519l-0.31,-0.415l-0.103,-0.415l-0.104,-0.208l-0.831,-0.416l0.52,2.077l0.518,0.103Z" style="fill:#d03839;fill-rule:nonzero;"/><path d="M71.525,11.418l-0.104,0l-0.312,0.104l-0.103,0.623l0.205,-0.312c0.211,1.77636e-15 0.314,-0.102 0.314,-0.415Z" style="fill:#d03839;fill-rule:nonzero;"/><path d="M70.383,11.523l-0.414,-0.208l-0.105,0c0,0.417 0.105,0.519 0.209,0.519l0.311,0.208c0.104,-0.209 0.104,-0.311 -0.001,-0.519Z" style="fill:#d03839;fill-rule:nonzero;"/><path d="M71.008,12.561l0.103,-0.104l-0.208,-0.104l-0.104,-0.104l-0.207,0l-0.312,0.207l0,0.104l0.728,0Z" style="fill:#d03839;fill-rule:nonzero;"/><path d="M77.132,2.906l-1.039,-0.208l-1.142,-0.104l-0.935,0.208c-0.311,0.104 -0.311,0.311 -0.311,0.623c0,0.416 0.207,0.623 0.519,0.83l0.623,0.416l1.764,0.312l2.802,0l0.729,0.208l-0.52,0.519l-1.661,0.312c-0.727,0 -1.557,-0.312 -2.18,-0.727c-0.727,-0.311 -1.558,-0.52 -2.284,-0.623l-1.037,0.311l0.103,-0.52c-0.103,-0.312 -0.206,-0.519 -0.413,-0.519l0.413,-0.519l0,-0.52l-0.207,0l-0.207,0.105c0.103,-0.104 0,-0.311 0,-0.415l0,-0.104l-0.209,0.104c-0.311,0.312 -0.415,0.312 -0.623,0.312l-0.829,-0.208l-0.831,0.208c-0.207,0 -0.416,-0.208 -0.622,-0.415l-0.104,0l-0.106,0.518l0.21,0.416c-0.21,0.104 -0.416,0.416 -0.312,0.726l0.103,0.415l0.21,0.417l0.622,0.208l0.104,0.104l0.312,0.519c0.207,0.208 0.311,0.311 0.519,0.311l-0.103,0.104l-1.453,-0.934l-0.831,-0.415l-0.208,-0.935l-0.104,-0.208l-1.038,-0.104l-0.415,0l-0.623,-0.104l0,-0.935l0.104,-0.104l2.492,-0.519l5.294,-0.312l5.397,0.312l2.283,0.519l0.104,0.104l0,11.73c0,1.038 -0.311,1.973 -0.83,2.596c-0.416,0.519 -1.038,1.038 -1.868,1.453l-2.388,1.142c-0.935,0.52 -1.661,0.831 -1.973,1.246l-0.622,0.519l-0.728,-0.726l-2.285,-1.765l-0.415,-0.208l0.105,-0.208c0.31,-0.416 0.414,-0.831 0.52,-1.453l0.933,0.311l0.104,-0.104c0,-0.519 0.104,-0.934 0.312,-1.246l0.934,-0.727l-0.416,0.416l0.312,0.103l0.208,0l-0.311,0.208l0.311,0.104c0.52,-0.104 1.039,-0.312 1.558,-0.623c0.416,-0.311 0.935,-0.519 1.66,-0.519l0.728,0.104l0.624,0.832c0.208,0.104 0.622,0.208 1.038,0.311l0.104,0c-0.209,0.208 -0.311,0.312 -0.727,0.312l-0.519,0l-0.415,0.208c-0.104,0.312 -0.104,0.415 0.104,0.727l0.104,0l0.104,0.311l0.622,-0.104l1.246,0.207c0.103,-0.311 0.208,-0.623 0.311,-0.83l0.728,-0.416c-0.208,-0.207 -0.208,-0.519 -0.208,-0.831l-0.311,-0.103l0,-0.208c-0.312,0 -0.623,-0.208 -0.729,-0.311l-0.104,-0.104c-0.102,-0.415 -0.102,-0.623 0,-0.623l0.623,-0.415c0.312,-0.104 0.415,-0.416 0.52,-0.727l-0.208,-0.415c-0.206,-0.519 -1.036,-0.832 -2.698,-0.832l-0.312,0l-0.624,0.105c-1.141,0 -1.867,-0.105 -2.282,-0.311l0,-0.208c0.104,-0.312 0.311,-0.416 0.727,-0.416l0.727,0.104l0.207,0.207c0.104,0.312 0.416,0.519 0.83,0.519c0.624,0 1.143,-0.206 1.558,-0.726l0,-0.208l-0.519,0.208l0.308,-0.311l0,-0.208l-0.831,0.103l-0.52,0l-0.934,-0.103l-0.935,-0.208l-0.104,0l-0.727,0.208l-0.415,0.622l0.311,0.519l0.728,0.623l1.556,0.208l0.416,0l2.907,0.311l-0.414,0.415l-1.559,0.312c-0.623,-0.104 -1.351,-0.312 -1.974,-0.623l-2.075,-0.624c-0.623,0.104 -1.245,0.312 -1.868,0.624l0.207,-0.104c0.416,-0.207 0.622,-0.415 0.622,-0.726c0,-0.312 -0.103,-0.519 -0.206,-0.624l0.312,-0.415l-0.105,-0.416l-0.103,-0.103l-0.104,-0.208l-0.104,-0.104l-0.103,0c-0.209,0.312 -0.416,0.415 -0.624,0.415l-0.728,-0.207l-0.726,0.207l-0.415,-0.207l-0.205,-1.141l0.413,0l1.975,0.416l0.103,-0.104c0,-0.623 0.104,-1.038 0.416,-1.349l0.415,-0.311l0.727,0l-0.415,0.311l0.311,0c0.623,0 1.142,-0.208 1.662,-0.623c0.519,-0.311 1.14,-0.519 1.764,-0.623l0.831,0.104l0.415,0.519l0.312,0.312l1.037,0.311c0,0.312 -0.205,0.415 -0.727,0.519l-0.415,-0.104l-0.104,0c-0.208,0 -0.312,0.104 -0.415,0.312c-0.104,0.207 -0.104,0.519 0.104,0.727l0.207,-0.104l0.104,0.416l0.623,0l1.452,0.207l0.312,-0.935l0.728,-0.415c-0.104,-0.311 -0.104,-0.519 -0.104,-0.83l-0.52,-0.104l0,-0.313l-0.622,-0.207l-0.105,-0.208c-0.208,-0.312 -0.208,-0.623 -0.103,-0.728c0.103,-0.103 0.414,-0.207 0.726,-0.416c0.312,-0.104 0.414,-0.415 0.52,-0.726l-0.415,-0.519c-0.208,-0.52 -1.142,-0.831 -2.803,-0.831l-0.415,0.104l-0.624,0l-2.075,-0.207l-0.209,-0.104l0,-0.206c0,-0.311 0.209,-0.415 0.624,-0.415l0.83,0.104l0.31,0.311c0.209,0.312 0.52,0.519 0.936,0.415l0.935,-0.208l0.725,-0.519l0,-0.208l-0.102,0l-0.521,0.208l0.209,-0.416l0,-0.103l-0.104,0l-0.83,0.104Z" style="fill:#d03839;fill-rule:nonzero;"/><path d="M80.245,5.917l-0.52,0.311l0.208,-0.207l0.52,-0.208Z" style="fill:#d03839;fill-rule:nonzero;"/><path d="M80.245,5.917l-0.519,0.311l0.208,-0.207l0.519,-0.208Z" style="fill:#d03839;fill-rule:nonzero;"/><path d="M69.553,3.529c-0.103,0.415 0,0.519 0.311,0.519l0.209,0.207c0,-0.207 0,-0.311 0,-0.519c-0.104,-0.207 -0.312,-0.207 -0.52,-0.207Z" style="fill:#d03839;fill-rule:nonzero;"/><path d="M71.317,3.529l-0.104,0l-0.415,0.208l0,0.623l0.21,-0.312c0.205,0 0.309,-0.104 0.309,-0.519Z" style="fill:#d03839;fill-rule:nonzero;"/><path d="M70.488,4.463l-0.209,0l-0.311,0.311l0.934,0l-0.312,-0.311Z" style="fill:#d03839;fill-rule:nonzero;"/><path d="M71.525,11.418l-0.104,0l-0.312,0.104l-0.103,0.623l0.205,-0.312c0.211,1.77636e-15 0.314,-0.102 0.314,-0.415Z" style="fill:#d03839;fill-rule:nonzero;"/><path d="M70.383,11.523l-0.414,-0.208l-0.105,0c0,0.417 0.105,0.519 0.209,0.519l0.311,0.208c0.104,-0.209 0.104,-0.311 -0.001,-0.519Z" style="fill:#d03839;fill-rule:nonzero;"/><path d="M71.008,12.561l0.102,-0.104l-0.208,-0.104l-0.104,-0.103l-0.207,0l-0.312,0.207l0,0.104Z" style="fill:#d03839;fill-rule:nonzero;"/><path d="M69.553,3.529c-0.103,0.415 0,0.519 0.311,0.519l0.209,0.207c0,-0.207 0,-0.311 0,-0.519c-0.104,-0.207 -0.312,-0.207 -0.52,-0.207Z" style="fill:#d03839;fill-rule:nonzero;"/><path d="M71.317,3.529l-0.104,0l-0.415,0.208l0,0.623l0.21,-0.312c0.205,0 0.309,-0.104 0.309,-0.519Z" style="fill:#d03839;fill-rule:nonzero;"/><path d="M70.488,4.463l-0.209,0l-0.31,0.311l0.933,0l-0.311,-0.311Z" style="fill:#d03839;fill-rule:nonzero;"/><path d="M70.591,7.993l-0.728,-0.312l0,-0.103l0.209,0.519l0.207,0Z" style="fill:#fff;fill-rule:nonzero;"/><path d="M70.591,7.993l-0.728,-0.312l0,-0.103l0.209,0.519l0.207,0Z" style="fill:#fff;fill-rule:nonzero;"/><path d="M68.412,5.709l0.103,0.415l0.831,0.416l-0.415,-0.519Z" style="fill:#fff;fill-rule:nonzero;"/><path d="M68.412,5.709l0.103,0.415l0.831,0.416l-0.415,-0.519Z" style="fill:#fff;fill-rule:nonzero;"/><path d="M71.11,12.457l-0.103,0.104l0.103,0Z" style="fill:#fff;fill-rule:nonzero;"/><path d="M71.11,12.457l-0.102,0.104l0.102,0l0,-0.104Z" style="fill:#fff;fill-rule:nonzero;"/><path d="M76.819,3.841l-0.519,-0.104c0.209,0.312 0.52,0.519 0.936,0.415l0.935,-0.208l0.725,-0.519l0,-0.208l-0.102,0l-0.521,0.208c-0.415,0.208 -0.934,0.416 -1.454,0.416Z" style="fill:#fff;fill-rule:nonzero;"/><path d="M76.819,3.841l-0.519,-0.104c0.209,0.312 0.52,0.519 0.936,0.415l0.935,-0.208l0.725,-0.519l0,-0.208l-0.102,0l-0.521,0.208c-0.415,0.208 -0.934,0.416 -1.454,0.416Z" style="fill:#fff;fill-rule:nonzero;"/><path d="M75.159,3.322l0.83,0.104l-0.207,-0.312l-1.038,-0.208l-0.311,0.104l-0.208,0.208l-0.104,0.208l0.414,0.519l0,-0.208c-1.42109e-14,-0.311 0.209,-0.415 0.624,-0.415Z" style="fill:#fff;fill-rule:nonzero;"/><path d="M75.159,3.322l0.83,0.104l-0.207,-0.312l-1.038,-0.208l-0.311,0.104l-0.208,0.208l-0.104,0.208l0.414,0.519l0,-0.208c-1.42109e-14,-0.311 0.209,-0.415 0.624,-0.415Z" style="fill:#fff;fill-rule:nonzero;"/><path d="M80.661,4.983l0.104,0.104l-0.312,0.727l-0.52,0.208l-0.208,0.207l-0.312,0c-0.104,0.104 -0.104,0.416 0,0.832c0.105,0.104 0.312,0.312 0.625,0.519l-0.105,-0.208c-0.208,-0.312 -0.208,-0.623 -0.103,-0.728c0.103,-0.103 0.414,-0.207 0.726,-0.416c0.312,-0.104 0.414,-0.415 0.52,-0.726Z" style="fill:#fff;fill-rule:nonzero;"/><path d="M80.661,4.983l0.104,0.104l-0.312,0.727l-0.52,0.208l-0.208,0.207l-0.312,0c-0.104,0.104 -0.104,0.416 0,0.832c0.105,0.104 0.312,0.312 0.625,0.519l-0.105,-0.208c-0.208,-0.312 -0.208,-0.623 -0.103,-0.728c0.103,-0.103 0.414,-0.207 0.726,-0.416c0.312,-0.104 0.414,-0.415 0.52,-0.726Z" style="fill:#fff;fill-rule:nonzero;"/><path d="M80.661,8.097l0.208,0.519c-0.312,0.104 -0.521,0.208 -0.727,0.519l-0.312,0.727l-1.144,-0.104l-0.622,0l0.104,0.416l0.623,0l1.452,0.207l0.312,-0.935l0.728,-0.415c-0.104,-0.311 -0.104,-0.519 -0.104,-0.83Z" style="fill:#fff;fill-rule:nonzero;"/><path d="M80.661,8.097l0.208,0.519c-0.312,0.104 -0.521,0.208 -0.727,0.519l-0.312,0.727l-1.144,-0.104l-0.622,0l0.104,0.416l0.623,0l1.452,0.207l0.312,-0.935l0.728,-0.415c-0.104,-0.311 -0.104,-0.519 -0.104,-0.83Z" style="fill:#fff;fill-rule:nonzero;"/><path d="M80.143,5.19c-0.104,-0.208 -0.417,-0.416 -1.039,-0.52l-1.868,-0.104l-0.936,0l-1.765,-0.206l-0.311,-0.104l0.623,0.416l1.764,0.312l2.802,0Z" style="fill:#fff;fill-rule:nonzero;"/><path d="M80.143,5.19c-0.104,-0.208 -0.417,-0.416 -1.039,-0.52l-1.868,-0.104l-0.936,0l-1.765,-0.206l-0.311,-0.104l0.623,0.416l1.764,0.312l2.802,0Z" style="fill:#fff;fill-rule:nonzero;"/><path d="M77.547,7.059l-1.038,-0.208c-0.727,0 -1.246,0.208 -1.765,0.623c-0.52,0.311 -0.831,0.519 -1.246,0.623l-0.415,0.311l0.311,0c0.623,0 1.142,-0.208 1.662,-0.623c0.519,-0.311 1.14,-0.519 1.764,-0.623l0.831,0.104Z" style="fill:#fff;fill-rule:nonzero;"/><path d="M77.547,7.059l-1.038,-0.208c-0.727,0 -1.246,0.208 -1.765,0.623c-0.52,0.311 -0.831,0.519 -1.246,0.623l-0.415,0.311l0.311,0c0.623,0 1.142,-0.208 1.662,-0.623c0.519,-0.311 1.14,-0.519 1.764,-0.623l0.831,0.104Z" style="fill:#fff;fill-rule:nonzero;"/><path d="M60.626,18.686l0.829,0.104l0,-0.312l-1.245,-0.104c-0.312,-0.104 -0.621,-0.208 -1.039,-0.416l0.313,0.312c0.414,0.208 0.726,0.416 1.142,0.416ZM63.013,18.478l-0.207,0l-0.519,1.869l-2.283,0.727c-0.105,0.207 -0.105,0.312 0.104,0.519l2.596,-0.831l0.414,-1.972ZM66.439,17.439l0,-0.208l-0.52,-0.104l-2.283,0.312l-1.35,0l-0.312,-0.208c0.207,0.312 0.312,0.415 0.622,0.519l0.728,0.104l0.728,-0.104l2.178,-0.311ZM67.685,16.713l-0.208,0l0,0.208l-0.208,1.868c0,0.208 -0.104,0.312 -0.207,0.415l-1.142,0.312l-0.727,0.208l0.104,0.312l0.103,0.208l0.936,-0.416l1.141,-0.311l0.104,-0.312c-0.104,-0.415 0,-1.142 0.312,-1.972c-1.42109e-14,-0.312 -1.42109e-14,-0.52 -0.208,-0.52ZM66.439,11.418l0.519,0.935c0,0.416 -0.104,0.831 -0.312,1.142c-0.311,0.312 -0.727,0.52 -1.038,0.52l-0.104,0.934l-0.207,0.416c0.103,0.311 0.207,0.519 0.519,0.727l-0.208,-0.416l0.312,-0.311l0,-0.831c0.416,-0.208 0.83,-0.416 1.038,-0.727c0.311,-0.312 0.416,-0.623 0.311,-1.038c-0.105,-0.519 -0.415,-1.038 -0.83,-1.351ZM65.4,9.757c0.104,0.312 0.416,0.416 0.83,0.416l0.624,0l0.207,-0.208l-0.622,-0.208l-0.623,0.104ZM65.505,7.785l0.104,0.416l0.312,0.934l0.311,0.311l-0.311,-0.83c-0.001,-0.415 -0.105,-0.623 -0.416,-0.831ZM61.561,16.505l-0.105,-0.311l0.105,-0.52l-0.312,0.312l-0.207,0.623c0.104,0.727 0.207,1.141 0.624,1.349l-0.21,-0.935ZM62.598,11.626l0.415,0.208l1.246,0.208l-0.518,-0.311l-1.038,-0.312l-0.416,-0.207l0.206,0.52l0.312,0.311ZM58.477,12.589l-0.031,-0.339c-0.312,0 -0.414,-0.104 -0.83,-0.312l-0.207,-0.206l0.623,0.519ZM56.889,13.287l0.207,0.104l0.52,0.312l0.83,0.208l0.208,0l0.728,-0.104c0.31,0.416 0.829,0.623 1.245,0.727l0.935,-0.208l-1.143,-0.104c-0.52,-0.104 -0.934,-0.312 -1.35,-0.831l-0.831,0.208l-0.206,0l-0.727,-0.312l-0.52,-0.207l-0.208,-0.208l-0.416,-0.104l-0.206,0l0.103,0.518l0.312,-0.207l0.207,0ZM58.343,10.173l0.614,0.388l0.111,-0.285l-0.207,-0.311l-0.416,0.208ZM58.653,8.927l-0.311,0c-0.21,0.104 -0.312,0.208 -0.312,0.519l-0.419,-0.333l0.069,-0.503c0.311,-0.104 1.225,-0.376 1.076,0.317ZM57.305,10.173l-0.416,-0.52l-0.312,-0.208l0.312,0.312l0.416,0.623l0.206,0.415l0.208,0.208l-0.104,-0.208ZM58.325,7.843l-0.088,0.254l0.208,-0.207l0.208,-0.209ZM55.851,9.965l-0.312,-0.104l-0.31,0.104l0.104,0.415l0.623,-0.104l0.206,0l0.312,0.208ZM63.843,10.276l-0.206,-1.142c-0.105,-0.727 -0.416,-1.245 -0.831,-1.557l0.415,1.142l0.311,1.142l0.625,0.831c-0.52,0 -0.936,-0.208 -1.247,-0.416l-0.416,-0.311l0.728,1.246l-0.415,-0.831l0.52,0.312c0.206,0.208 0.622,0.311 1.244,0.311ZM61.248,6.54l0,-0.208l-0.311,0.208l0.312,0.103l0,-0.103Z" style="fill:#fff;fill-rule:nonzero;"/><path d="M60.626,18.686l0.829,0.104l0,-0.312l-1.245,-0.104c-0.312,-0.104 -0.621,-0.208 -1.039,-0.416l0.313,0.312c0.414,0.208 0.726,0.416 1.142,0.416Z" style="fill:#fff;fill-rule:nonzero;"/><path d="M63.013,18.478l-0.207,0l-0.519,1.869l-2.283,0.727c-0.105,0.207 -0.105,0.312 0.104,0.519l2.596,-0.831l0.414,-1.972Z" style="fill:#fff;fill-rule:nonzero;"/><path d="M66.439,17.439l0,-0.208l-0.52,-0.104l-2.283,0.312l-1.35,0l-0.312,-0.208c0.207,0.312 0.312,0.415 0.622,0.519l0.728,0.104l0.728,-0.104l2.178,-0.311Z" style="fill:#fff;fill-rule:nonzero;"/><path d="M67.685,16.713l-0.208,0l0,0.208l-0.208,1.868c0,0.208 -0.104,0.312 -0.207,0.415l-1.142,0.312l-0.727,0.208l0.104,0.312l0.103,0.208l0.936,-0.416l1.141,-0.311l0.104,-0.312c-0.104,-0.415 0,-1.142 0.312,-1.972c-1.42109e-14,-0.312 -1.42109e-14,-0.52 -0.208,-0.52Z" style="fill:#fff;fill-rule:nonzero;"/><path d="M66.439,11.418l0.519,0.935c0,0.416 -0.104,0.831 -0.312,1.142c-0.311,0.312 -0.727,0.52 -1.038,0.52l-0.104,0.934l-0.207,0.416c0.103,0.311 0.207,0.519 0.519,0.727l-0.208,-0.416l0.312,-0.311l0,-0.831c0.416,-0.208 0.83,-0.416 1.038,-0.727c0.311,-0.312 0.416,-0.623 0.311,-1.038c-0.105,-0.519 -0.415,-1.038 -0.83,-1.351Z" style="fill:#fff;fill-rule:nonzero;"/><path d="M65.4,9.757c0.104,0.312 0.416,0.416 0.83,0.416l0.624,0l0.207,-0.208l-0.622,-0.208l-0.623,0.104Z" style="fill:#fff;fill-rule:nonzero;"/><path d="M65.505,7.785l0.104,0.416l0.312,0.934l0.311,0.311l-0.311,-0.83c-0.001,-0.415 -0.105,-0.623 -0.416,-0.831Z" style="fill:#fff;fill-rule:nonzero;"/><path d="M61.561,16.505l-0.105,-0.311l0.105,-0.52l-0.312,0.312l-0.207,0.623c0.104,0.727 0.207,1.141 0.624,1.349l-0.21,-0.935Z" style="fill:#fff;fill-rule:nonzero;"/><path d="M62.598,11.626l0.415,0.207l1.246,0.209l-0.518,-0.311l-1.038,-0.313l-0.416,-0.207l0.206,0.52l0.313,0.311Z" style="fill:#fff;fill-rule:nonzero;"/><path d="M58.477,12.589l-0.031,-0.339c-0.312,0 -0.414,-0.104 -0.83,-0.312l-0.207,-0.206l0.623,0.519Z" style="fill:#fff;fill-rule:nonzero;"/><path d="M56.889,13.287l0.207,0.104l0.52,0.312l0.83,0.208l0.208,0l0.728,-0.104c0.31,0.416 0.829,0.623 1.245,0.727l0.935,-0.208l-1.143,-0.104c-0.52,-0.104 -0.934,-0.312 -1.35,-0.831l-0.831,0.208l-0.206,0l-0.727,-0.312l-0.52,-0.207l-0.208,-0.208l-0.416,-0.104l-0.206,0l0.103,0.518l0.312,-0.207l0.207,0Z" style="fill:#fff;fill-rule:nonzero;"/><path d="M58.343,10.173l0.614,0.389l0.111,-0.286l-0.207,-0.311l-0.416,0.208Z" style="fill:#fff;fill-rule:nonzero;"/><path d="M58.653,8.927l-0.311,0c-0.21,0.104 -0.312,0.208 -0.312,0.519l-0.419,-0.333l0.069,-0.503c0.311,-0.104 1.225,-0.376 1.076,0.317Z" style="fill:#fff;fill-rule:nonzero;"/><path d="M57.305,10.173l-0.416,-0.519l-0.312,-0.208l0.312,0.311l0.416,0.623l0.206,0.415l0.208,0.208l-0.104,-0.208Z" style="fill:#fff;fill-rule:nonzero;"/><path d="M58.325,7.843l-0.088,0.254l0.208,-0.207l0.208,-0.209Z" style="fill:#fff;fill-rule:nonzero;"/><path d="M55.851,9.965l-0.313,-0.104l-0.309,0.104l0.103,0.415l0.623,-0.104l0.206,0l0.313,0.208Z" style="fill:#fff;fill-rule:nonzero;"/><path d="M63.843,10.276l-0.206,-1.142c-0.105,-0.727 -0.416,-1.245 -0.831,-1.557l0.415,1.142l0.311,1.142l0.625,0.831c-0.52,0 -0.936,-0.208 -1.247,-0.416l-0.416,-0.311l0.728,1.246l-0.415,-0.831l0.52,0.312c0.206,0.208 0.622,0.311 1.244,0.311Z" style="fill:#fff;fill-rule:nonzero;"/><path d="M61.248,6.54l0,-0.208l-0.311,0.208l0.311,0.103Z" style="fill:#fff;fill-rule:nonzero;"/><path d="M79.414,8.408l0,-0.207l-0.205,-0.104c-0.521,0 -0.937,-0.207 -1.144,-0.312l0.312,0.312Z" style="fill:#fff;fill-rule:nonzero;"/><path d="M79.414,8.408l0,-0.207l-0.205,-0.104c-0.521,0 -0.937,-0.207 -1.144,-0.312l0.312,0.312Z" style="fill:#fff;fill-rule:nonzero;"/><path d="M78.377,11.003l-0.519,0.208c-0.312,0.207 -0.727,0.415 -1.143,0.52c-0.416,0 -0.623,-0.208 -0.727,-0.312c0.104,0.312 0.416,0.519 0.83,0.519c0.624,0 1.143,-0.206 1.558,-0.726l0,-0.209Z" style="fill:#fff;fill-rule:nonzero;"/><path d="M78.377,11.003l-0.519,0.208c-0.312,0.207 -0.727,0.415 -1.143,0.52c-0.416,0 -0.623,-0.208 -0.727,-0.312c0.104,0.312 0.416,0.519 0.83,0.519c0.624,0 1.143,-0.206 1.558,-0.726l0,-0.209Z" style="fill:#fff;fill-rule:nonzero;"/><path d="M79.623,12.976l0,-0.104c-0.209,-0.311 -1.039,-0.519 -2.804,-0.519l-0.624,0l-1.66,-0.208l-0.519,-0.312l0.728,0.623l1.556,0.208l0.416,0Z" style="fill:#fff;fill-rule:nonzero;"/><path d="M79.623,12.976l0,-0.104c-0.209,-0.311 -1.039,-0.519 -2.804,-0.519l-0.624,0l-1.66,-0.208l-0.519,-0.312l0.728,0.623l1.556,0.208l0.416,0Z" style="fill:#fff;fill-rule:nonzero;"/><path d="M80.245,12.769l0,0.104c-0.103,0.415 -0.312,0.623 -0.52,0.727l-0.622,0.311c-0.209,0.104 -0.209,0.415 0,0.727l0.311,0.416l-0.104,-0.104c-0.102,-0.415 -0.102,-0.623 0,-0.623l0.623,-0.415c0.312,-0.104 0.415,-0.416 0.52,-0.727Z" style="fill:#fff;fill-rule:nonzero;"/><path d="M80.245,12.769l0,0.104c-0.103,0.415 -0.312,0.623 -0.52,0.727l-0.622,0.311c-0.209,0.104 -0.209,0.415 0,0.727l0.311,0.416l-0.104,-0.104c-0.102,-0.415 -0.102,-0.623 0,-0.623l0.623,-0.415c0.312,-0.104 0.415,-0.416 0.52,-0.727Z" style="fill:#fff;fill-rule:nonzero;"/><path d="M75.782,11.211l-0.105,-0.311l-0.933,-0.104c-0.312,0 -0.52,0.104 -0.623,0.416l0.208,0.52l0,-0.208c0.104,-0.312 0.311,-0.416 0.727,-0.416Z" style="fill:#fff;fill-rule:nonzero;"/><path d="M75.782,11.211l-0.105,-0.311l-0.933,-0.104c-0.312,0 -0.52,0.104 -0.623,0.416l0.208,0.52l0,-0.208c0.104,-0.312 0.311,-0.416 0.727,-0.416Z" style="fill:#fff;fill-rule:nonzero;"/><path d="M77.339,14.948l0,-0.311l-1.039,-0.208c-0.623,0.104 -1.141,0.311 -1.556,0.623l-1.351,0.622l-0.311,0.208l0.311,0.104c0.52,-0.104 1.039,-0.312 1.558,-0.623c0.416,-0.311 0.935,-0.519 1.66,-0.519Z" style="fill:#fff;fill-rule:nonzero;"/><path d="M77.339,14.948l0,-0.311l-1.039,-0.208c-0.623,0.104 -1.141,0.311 -1.556,0.623l-1.351,0.622l-0.311,0.208l0.311,0.104c0.52,-0.104 1.039,-0.312 1.558,-0.623c0.416,-0.311 0.935,-0.519 1.66,-0.519Z" style="fill:#fff;fill-rule:nonzero;"/><path d="M78.793,15.674l-1.038,-0.311l-0.105,0l0.312,0.416c0.208,0.104 0.622,0.208 1.038,0.311l0.104,0l0,-0.311Z" style="fill:#fff;fill-rule:nonzero;"/><path d="M78.793,15.674l-1.038,-0.311l-0.105,0l0.312,0.416c0.208,0.104 0.622,0.208 1.038,0.311l0.104,0l0,-0.311Z" style="fill:#fff;fill-rule:nonzero;"/><path d="M80.143,15.571l0.206,0.623c-0.518,0.208 -0.935,0.519 -0.935,1.246l-1.037,-0.208l-0.727,0.104l0.104,0.311l0.622,-0.104l1.246,0.207c0.103,-0.311 0.208,-0.623 0.311,-0.83l0.728,-0.416c-0.208,-0.207 -0.208,-0.519 -0.208,-0.831Z" style="fill:#fff;fill-rule:nonzero;"/><path d="M80.143,15.571l0.206,0.623c-0.518,0.208 -0.935,0.519 -0.935,1.246l-1.037,-0.208l-0.727,0.104l0.104,0.311l0.622,-0.104l1.246,0.207c0.103,-0.311 0.208,-0.623 0.311,-0.83l0.728,-0.416c-0.208,-0.207 -0.208,-0.519 -0.208,-0.831Z" style="fill:#fff;fill-rule:nonzero;"/><path d="M84.813,9.342l-0.209,-0.103c0,0.103 0.209,0.207 0.416,0.311l0.312,0.104c0.31,-0.104 0.622,-0.312 0.83,-0.727c0,-0.415 -0.104,-0.726 -0.416,-0.934l0.104,0.727c-0.209,0.415 -0.415,0.622 -0.831,0.622Z" style="fill:#fff;fill-rule:nonzero;"/><path d="M84.813,9.342l-0.209,-0.103c0,0.103 0.209,0.207 0.416,0.311l0.312,0.104c0.31,-0.104 0.622,-0.312 0.83,-0.727c0,-0.415 -0.104,-0.726 -0.416,-0.934l0.104,0.727c-0.209,0.415 -0.415,0.622 -0.831,0.622Z" style="fill:#fff;fill-rule:nonzero;"/><path d="M85.124,13.703l0.209,0.208l1.245,-0.312l-0.104,-0.727c0,-0.416 -0.104,-0.83 0,-1.349l0.104,-1.662l0.103,-0.935l-0.103,-0.206l0,0.104l-0.208,0.83l-0.207,1.661c0,0.417 0,0.935 0,1.454l0.103,0.622l-0.311,0Z" style="fill:#fff;fill-rule:nonzero;"/><path d="M85.124,13.703l0.209,0.208l1.245,-0.312l-0.104,-0.727c0,-0.416 -0.104,-0.83 0,-1.349l0.104,-1.662l0.103,-0.935l-0.103,-0.206l0,0.104l-0.208,0.83l-0.207,1.661c0,0.417 0,0.935 0,1.454l0.103,0.622l-0.311,0Z" style="fill:#fff;fill-rule:nonzero;"/><path d="M85.852,15.363l0.104,0.727c-0.104,0.415 -0.415,0.623 -0.831,0.623l-0.208,0l-0.312,-0.104l0.52,0.312l0.416,0l0.415,-0.208l0.208,-0.415c0.102,-0.416 -0.001,-0.727 -0.312,-0.935Z" style="fill:#fff;fill-rule:nonzero;"/><path d="M85.852,15.363l0.104,0.727c-0.104,0.415 -0.415,0.623 -0.831,0.623l-0.208,0l-0.312,-0.104l0.52,0.312l0.416,0l0.415,-0.208l0.208,-0.415c0.102,-0.416 -0.001,-0.727 -0.312,-0.935Z" style="fill:#fff;fill-rule:nonzero;"/><path d="M86.059,18.478l-0.207,-0.104l-0.209,-0.104l0.521,0.311l0.207,0c0.415,0 0.728,-0.208 0.83,-0.623c0.104,-0.519 0,-0.831 -0.415,-0.935l0.208,0.727c-0.103,0.416 -0.416,0.624 -0.935,0.728Z" style="fill:#fff;fill-rule:nonzero;"/><path d="M86.059,18.478l-0.207,-0.104l-0.209,-0.104l0.521,0.311l0.207,0c0.415,0 0.728,-0.208 0.83,-0.623c0.104,-0.519 0,-0.831 -0.415,-0.935l0.208,0.727c-0.103,0.416 -0.416,0.624 -0.935,0.728Z" style="fill:#fff;fill-rule:nonzero;"/><path d="M84.086,16.505l0.104,0.104l0.104,0.623c-0.208,0.415 -0.414,0.727 -0.83,0.727l-0.208,0l-0.311,-0.208c0.102,0.208 0.311,0.312 0.519,0.312l0.208,0.104c0.414,-0.104 0.726,-0.208 0.933,-0.727c-0.001,-0.416 -0.103,-0.727 -0.519,-0.935Z" style="fill:#fff;fill-rule:nonzero;"/><path d="M84.086,16.505l0.104,0.104l0.104,0.623c-0.208,0.415 -0.414,0.727 -0.83,0.727l-0.208,0l-0.311,-0.208c0.102,0.208 0.311,0.312 0.519,0.312l0.208,0.104c0.414,-0.104 0.726,-0.208 0.933,-0.727c-0.001,-0.416 -0.103,-0.727 -0.519,-0.935Z" style="fill:#fff;fill-rule:nonzero;"/><path d="M87.719,9.861l-0.206,0l-0.313,-0.104c0.104,0.104 0.312,0.208 0.519,0.312l0.208,0.104c0.52,-0.104 0.727,-0.312 0.83,-0.728c0.104,-0.415 0,-0.726 -0.311,-0.934l0.104,0.727c-0.104,0.416 -0.415,0.623 -0.831,0.623Z" style="fill:#fff;fill-rule:nonzero;"/><path d="M87.719,9.861l-0.206,0l-0.313,-0.104c0.104,0.104 0.312,0.208 0.519,0.312l0.208,0.104c0.52,-0.104 0.727,-0.312 0.83,-0.728c0.104,-0.415 0,-0.726 -0.311,-0.934l0.104,0.727c-0.104,0.416 -0.415,0.623 -0.831,0.623Z" style="fill:#fff;fill-rule:nonzero;"/><path d="M90.107,12.561l-0.312,0l-0.207,-0.104l0.519,0.312l0.727,0c0.207,-0.208 0.312,-0.416 0.415,-0.623c0,-0.415 -0.103,-0.727 -0.415,-0.934l0.104,0.726c-0.104,0.415 -0.416,0.623 -0.831,0.623Z" style="fill:#fff;fill-rule:nonzero;"/><path d="M90.107,12.561l-0.312,0l-0.207,-0.104l0.519,0.312l0.727,0c0.207,-0.208 0.312,-0.416 0.415,-0.623c0,-0.415 -0.103,-0.727 -0.415,-0.934l0.104,0.726c-0.104,0.415 -0.416,0.623 -0.831,0.623Z" style="fill:#fff;fill-rule:nonzero;"/><path d="M86.687,8.145l-0.311,0l-0.208,-0.104l0.519,0.312l0.727,0c0.208,-0.208 0.312,-0.417 0.415,-0.624c0,-0.414 -0.103,-0.727 -0.415,-0.933l0.104,0.726c-0.105,0.415 -0.416,0.623 -0.831,0.623Z" style="fill:#fff;fill-rule:nonzero;"/><path d="M91.352,14.533c0.52,-0.104 0.727,-0.208 0.936,-0.727c0.104,-0.416 -0.103,-0.726 -0.416,-0.934l0.104,0.727c-0.104,0.415 -0.414,0.726 -0.828,0.726l-0.312,0l-0.104,-0.104l0.416,0.208Z" style="fill:#fff;fill-rule:nonzero;"/><path d="M91.352,14.533c0.52,-0.104 0.727,-0.208 0.936,-0.727c0.104,-0.416 -0.103,-0.726 -0.416,-0.934l0.104,0.727c-0.104,0.415 -0.414,0.726 -0.828,0.726l-0.312,0l-0.104,-0.104l0.416,0.208Z" style="fill:#fff;fill-rule:nonzero;"/><path d="M89.173,12.353l0.103,0.727c-0.103,0.415 -0.414,0.726 -0.829,0.726l-0.208,0l-0.312,-0.207c0.208,0.207 0.312,0.311 0.624,0.311l0.103,0.104c0.52,-0.104 0.728,-0.208 0.936,-0.728c-0.001,-0.414 -0.105,-0.725 -0.417,-0.933Z" style="fill:#fff;fill-rule:nonzero;"/><path d="M89.173,12.353l0.103,0.727c-0.103,0.415 -0.414,0.726 -0.829,0.726l-0.208,0l-0.312,-0.207c0.208,0.207 0.312,0.311 0.624,0.311l0.103,0.104c0.52,-0.104 0.728,-0.208 0.936,-0.728c-0.001,-0.414 -0.105,-0.725 -0.417,-0.933Z" style="fill:#fff;fill-rule:nonzero;"/><path d="M90.003,13.184l-0.207,0.207l0,0.624l-0.207,1.66c-0.104,0.52 0,0.935 0,1.454l0.104,0.623l-0.417,0.104l-0.622,0.207l0.104,0.312l0.832,-0.312l0.414,0l-0.207,-0.726l0,-1.35l0.207,-1.661l0.209,-0.935Z" style="fill:#fff;fill-rule:nonzero;"/><path d="M90.003,13.184l-0.207,0.207l0,0.624l-0.207,1.66c-0.104,0.52 0,0.935 0,1.454l0.104,0.623l-0.417,0.104l-0.622,0.207l0.104,0.312l0.832,-0.312l0.414,0l-0.207,-0.726l0,-1.35l0.207,-1.661l0.209,-0.935Z" style="fill:#fff;fill-rule:nonzero;"/><path d="M84.916,17.232l-0.103,0.934l-0.209,1.661c-0.103,0.52 0,0.935 0,1.454l0,0.623l-0.933,0.312l0.104,0.208l0.829,-0.208l0.416,-0.104l-0.104,-0.623c0,-0.415 -0.103,-0.934 0,-1.453l0.104,-1.558l0.104,-1.038Z" style="fill:#fff;fill-rule:nonzero;"/><path d="M84.916,17.232l-0.103,0.934l-0.209,1.661c-0.103,0.52 0,0.935 0,1.454l0,0.623l-0.933,0.312l0.104,0.208l0.829,-0.208l0.416,-0.104l-0.104,-0.623c0,-0.415 -0.103,-0.934 0,-1.453l0.104,-1.558l0.104,-1.038Z" style="fill:#fff;fill-rule:nonzero;"/><path d="M69.969,4.671l0,0.104l0.311,-0.311Z" style="fill:#fff;fill-rule:nonzero;"/><path d="M69.969,4.671l0,0.103l0.31,-0.311Z" style="fill:#fff;fill-rule:nonzero;"/><path d="M70.902,4.774l0,-0.103l-0.312,-0.208Z" style="fill:#fff;fill-rule:nonzero;"/><path d="M70.902,4.774l0,-0.103l-0.311,-0.208Z" style="fill:#fff;fill-rule:nonzero;"/><path d="M72.46,2.906l-0.104,0l-0.207,0.104l0,0.104l-0.312,0.416l0.312,0.623c0,0.312 -0.209,0.519 -0.624,0.623l-0.623,0.623c-0.104,0.104 -0.312,0.208 -0.52,0.208c-0.207,0 -0.414,-0.104 -0.52,-0.208l-0.103,-0.104l0.312,0.519c0.207,0.208 0.311,0.311 0.519,0.311c0.52,-0.623 1.247,-1.038 1.869,-1.141l0.103,-0.52c-0.103,-0.312 -0.206,-0.519 -0.413,-0.519l0.413,-0.519l0,-0.52Z" style="fill:#fff;fill-rule:nonzero;"/><path d="M72.46,2.906l-0.104,0l-0.207,0.104l0,0.104l-0.312,0.416l0.312,0.623c0,0.312 -0.209,0.519 -0.624,0.623l-0.623,0.623c-0.104,0.104 -0.312,0.208 -0.52,0.208c-0.207,0 -0.414,-0.104 -0.52,-0.208l-0.103,-0.104l0.312,0.519c0.207,0.208 0.311,0.311 0.519,0.311c0.52,-0.623 1.247,-1.038 1.869,-1.141l0.103,-0.52c-0.103,-0.312 -0.206,-0.519 -0.413,-0.519l0.413,-0.519l0,-0.52Z" style="fill:#fff;fill-rule:nonzero;"/><path d="M73.706,6.332l0,-0.104l-0.104,0.104c-0.104,0.416 -0.208,0.727 -0.623,0.934l-1.039,0.831c-0.31,0.207 -0.415,0.623 -0.31,1.142l-0.104,0.207l-1.868,-0.415l-0.312,0.104l0.104,0.311l0.413,0l1.975,0.416l0.103,-0.104c0,-0.623 0.104,-1.038 0.416,-1.349l0.415,-0.311l-0.104,0l0.726,-0.623c0.312,-0.209 0.312,-0.52 0.312,-1.143Z" style="fill:#fff;fill-rule:nonzero;"/><path d="M73.706,6.332l0,-0.104l-0.104,0.104c-0.104,0.416 -0.208,0.727 -0.623,0.934l-1.039,0.831c-0.31,0.207 -0.415,0.623 -0.31,1.142l-0.104,0.207l-1.868,-0.415l-0.312,0.104l0.104,0.311l0.413,0l1.975,0.416l0.103,-0.104c0,-0.623 0.104,-1.038 0.416,-1.349l0.415,-0.311l-0.104,0l0.726,-0.623c0.312,-0.209 0.312,-0.52 0.312,-1.143Z" style="fill:#fff;fill-rule:nonzero;"/><path d="M69.035,4.983l0.622,0.208l-0.312,-0.416l-0.521,-0.208Z" style="fill:#fff;fill-rule:nonzero;"/><path d="M69.035,4.983l0.622,0.207l-0.311,-0.416l-0.521,-0.208Z" style="fill:#fff;fill-rule:nonzero;"/><path d="M72.668,11.211l-0.105,-0.416l-0.103,-0.103l-0.104,0.208l-0.312,0.415l0.312,0.312Z" style="fill:#fff;fill-rule:nonzero;"/><path d="M72.668,11.211l-0.106,-0.416l-0.102,-0.103l-0.104,0.208l-0.311,0.414l0.311,0.312Z" style="fill:#fff;fill-rule:nonzero;"/><path d="M70.694,13.391l-0.206,-0.104l0.103,0.52l0.207,0.104l0.936,-0.83l0.207,-0.104c0.416,-0.207 0.622,-0.415 0.622,-0.726c0,-0.312 -0.103,-0.519 -0.206,-0.624l0,0.311c0,0.312 -0.207,0.52 -0.623,0.624l-0.521,0.519c-0.103,0.206 -0.311,0.206 -0.519,0.31Z" style="fill:#fff;fill-rule:nonzero;"/><path d="M70.694,13.391l-0.206,-0.104l0.103,0.52l0.207,0.104l0.936,-0.83l0.207,-0.104c0.416,-0.207 0.622,-0.415 0.622,-0.726c0,-0.312 -0.103,-0.519 -0.206,-0.624l0,0.311c0,0.312 -0.207,0.52 -0.623,0.624l-0.521,0.519c-0.103,0.206 -0.311,0.206 -0.519,0.31Z" style="fill:#fff;fill-rule:nonzero;"/><path d="M73.498,15.052l0.208,-0.208l0,-0.83c-0.104,0.415 -0.312,0.623 -0.623,0.934l-0.934,0.624c-0.209,0.311 -0.312,0.727 -0.312,1.246l-0.104,0.104l-0.726,-0.208l0,0.208l0.933,0.311l0.104,-0.104c0,-0.519 0.104,-0.934 0.312,-1.246l0.934,-0.727l0.104,0Z" style="fill:#fff;fill-rule:nonzero;"/><path d="M73.498,15.052l0.208,-0.208l0,-0.83c-0.104,0.415 -0.312,0.623 -0.623,0.934l-0.934,0.624c-0.209,0.311 -0.312,0.727 -0.312,1.246l-0.104,0.104l-0.726,-0.208l0,0.208l0.933,0.311l0.104,-0.104c0,-0.519 0.104,-0.934 0.312,-1.246l0.934,-0.727l0.104,0Z" style="fill:#fff;fill-rule:nonzero;"/></g></g></svg>