<?xml version="1.0" standalone="no"?><!DOCTYPE svg PUBLIC "-//W3C//DTD SVG 1.1//EN" "http://www.w3.org/Graphics/SVG/1.1/DTD/svg11.dtd"><svg width="98px" height="72px" version="1.1" xmlns="http://www.w3.org/2000/svg" xmlns:xlink="http://www.w3.org/1999/xlink" xml:space="preserve" style="fill-rule:evenodd;clip-rule:evenodd;stroke-linejoin:round;stroke-miterlimit:1.41421;"><g><g transform="matrix(0.534857,0,0,0.534857,-2.54842,-15.5486)"><path d="M145.727,63.675l6.209,0l1.195,1.646c0,0 1.494,-1.796 5.01,-1.796c3.514,0 4.412,3.816 4.412,5.384c0,1.571 0,6.433 0,6.433l-5.686,0l0,-4.862c0,0 -0.074,-2.316 -2.092,-2.316c-2.02,0 -1.945,2.167 -1.945,2.167l0,18.623c0,0 0.076,0.746 0.375,1.119c0.299,0.374 0.672,0.968 0.672,0.968l-7.701,0c0,0 0.299,-0.295 0.598,-0.741c0.299,-0.449 0.225,-1.272 0.225,-1.272l0,-23.183c0,0 -0.074,-0.974 -0.449,-1.347c-0.374,-0.375 -0.823,-0.823 -0.823,-0.823Z" style="fill:#264534;"/><path d="M182.445,77.507c0,0 0.598,-14.281 -8.451,-14.281c-9.049,0 -8.826,14.358 -8.826,14.358c0,0 0.076,13.455 8.602,13.455c8.526,0 8.676,-10.611 8.676,-10.611l-5.537,0c0,0 0.523,6.204 -3.064,6.204c-3.59,0 -2.842,-9.125 -2.842,-9.125ZM173.621,67.786c2.693,0 2.393,5.312 2.393,5.312l-4.861,0c-0.001,0 -0.225,-5.312 2.468,-5.312Z" style="fill:#264534;"/><path d="M134.211,63.524c-6.654,0 -8.824,7.478 -8.824,14.21c0,6.729 2.17,13.305 8.748,13.305c6.582,0 8.451,-6.576 8.451,-13.232c0,-6.656 -1.719,-14.283 -8.375,-14.283ZM133.688,86.109c-2.096,0 -2.543,-4.712 -2.543,-8.975c0,-4.262 0.674,-8.75 2.691,-8.75c2.02,0 2.768,1.646 2.768,8.75c2.84217e-14,7.106 -0.823,8.975 -2.916,8.975Z" style="fill:#264534;"/><path d="M94.726,63.75l6.208,0l0.896,1.496c0,0 1.271,-0.972 2.768,-1.421c1.496,-0.447 2.842,-0.374 3.889,0.224c1.047,0.598 1.646,1.344 1.646,1.344c0,0 1.195,-0.895 3.064,-1.419c1.869,-0.523 5.094,-0.655 6.508,0.897c1.494,1.646 1.344,4.785 1.344,4.785l0,19.442c0,0 0.115,0.72 0.299,1.05c0.262,0.458 0.674,0.891 0.674,0.891l-7.627,0c0,0 0.375,-0.517 0.598,-0.968c0.223,-0.45 0.301,-1.119 0.301,-1.119l0,-18.323c0,0 -0.152,-1.497 -1.871,-1.497c-1.721,0 -2.168,1.946 -2.168,1.946l0,18.098c0,0 0.074,0.746 0.447,1.045c0.375,0.301 0.748,0.818 0.748,0.818l-8.002,0c0,0 0.451,-0.517 0.748,-0.968c0.299,-0.45 0.375,-1.196 0.375,-1.196l0,-18.021c0,0 0,-1.722 -1.945,-1.722c-1.943,0 -2.168,1.722 -2.168,1.722l0,18.245c0,0 0,0.673 0.373,1.123c0.373,0.451 0.674,0.818 0.674,0.818l-7.705,0c0,0 0.375,-0.368 0.673,-0.741c0.299,-0.376 0.226,-1.05 0.226,-1.05l0,-23.705c0,0 -0.226,-0.821 -0.45,-1.046c-0.283,-0.286 -0.523,-0.748 -0.523,-0.748Z" style="fill:#264534;"/><path d="M90.24,89.771c-0.3,-0.595 -0.3,-1.343 -0.3,-1.343l0,-18.098c0,0 0.3,-4.562 -2.468,-5.906c-2.766,-1.346 -6.056,-1.271 -7.926,-0.524c-1.87,0.748 -2.169,0.972 -2.917,0.897c-0.748,-0.073 -1.421,-0.224 -1.421,-0.224l0,8.599l4.488,0l0,-2.47c0,0 0.122,-1.011 1.047,-1.794c0.557,-0.471 1.564,-0.74 2.393,-0.449c1.271,0.449 1.121,1.796 1.121,1.796l0,2.993c0,0 0.226,0.971 -1.944,1.345c-2.168,0.375 -4.636,0.973 -6.28,3.215c-1.646,2.246 -2.842,5.983 -1.721,9.349c1.123,3.366 2.692,3.883 5.011,3.883c2.318,0 4.56,-1.492 4.56,-1.492c0,0 0.3,0.523 0.524,0.897c0.225,0.375 0.674,0.595 0.674,0.595l6.057,0c-0.001,0 -0.598,-0.668 -0.898,-1.269ZM84.256,84.463c0,0 -0.148,2.393 -2.467,2.393c-2.317,0 -2.094,-3.59 -2.094,-3.59c0,0 -0.077,-3.066 1.42,-4.038c1.496,-0.97 3.141,-0.97 3.141,-0.97Z" style="fill:#264534;"/><path d="M61.823,54.826l7.702,0l0,33.752c0,0 0.15,1.193 0.525,1.57c0.486,0.48 0.748,0.891 0.748,0.891l-8.824,0c0,0 0.751,-0.42 0.973,-1.19c0.148,-0.524 0.148,-1.125 0.148,-1.125l0,-31.63c0,0 -0.075,-1.047 -0.375,-1.346c-0.467,-0.467 -0.897,-0.922 -0.897,-0.922Z" style="fill:#264534;"/><path d="M50.382,54.826l7.701,0l0,33.752c0,0 0.151,1.193 0.524,1.57c0.486,0.48 0.75,0.891 0.75,0.891l-8.825,0c0,0 0.752,-0.42 0.972,-1.19c0.149,-0.524 0.149,-1.125 0.149,-1.125l0,-31.63c0,0 -0.075,-1.047 -0.375,-1.346c-0.466,-0.467 -0.896,-0.922 -0.896,-0.922Z" style="fill:#264534;"/><path d="M28.844,63.825l7.104,0l0,20.938c0,0 -0.298,2.094 1.719,2.094c2.469,0 2.32,-2.169 2.32,-2.169l0,-18.245c0,0 0.074,-0.974 -0.374,-1.496c-0.572,-0.666 -0.9,-1.048 -0.9,-1.048l7.18,0l0,24.454c0,0 0.077,0.823 0.525,1.497c0.509,0.761 0.747,1.19 0.747,1.19l-5.982,0c0,0 -0.672,-0.072 -1.046,-0.741c-0.375,-0.677 -0.375,-0.751 -0.375,-0.751c0,0 -2.168,1.492 -4.861,1.492c-2.692,0 -3.065,-1.117 -3.889,-2.314c-0.887,-1.294 -0.822,-4.262 -0.822,-4.262l0,-18.02c0,0 0,-1.05 -0.448,-1.496c-0.584,-0.587 -0.898,-1.123 -0.898,-1.123Z" style="fill:#264534;"/><path d="M8.504,54.826l20.938,0l0,6.755c0,0 -0.522,-1.197 -1.794,-1.647c-1.271,-0.448 -2.094,-0.484 -2.094,-0.484l-3.514,0l0,28.528c0,0 0.075,1.497 0.448,2.02c0.557,0.776 0.973,1.041 0.973,1.041l-9.199,0c0,0 0.584,-0.331 1.048,-1.341c0.374,-0.823 0.374,-1.796 0.374,-1.796l0,-28.451l-4.038,0c0,0 -1.047,0.26 -1.795,0.71c-0.747,0.447 -1.347,1.421 -1.347,1.421Z" style="fill:#264534;"/><path d="M162.529,66.264c0.691,1.219 0.908,2.626 0.908,3.354l0,6.608l-4.77,0l0,0.913l5.682,0c0,0 0,-4.859 0,-6.43c0.001,-1.079 -0.421,-3.214 -1.82,-4.445Z" style="fill:#264534;"/><path d="M155.377,69.027c-0.52,0 -0.826,0.175 -1.123,0.482c-0.561,0.579 -0.539,1.516 -0.539,1.523c0,0.005 0,18.361 0,18.614c0.021,0.197 0.121,0.753 0.336,1.025c0.303,0.379 0.668,0.958 0.686,0.981l0.17,0.27l-6.246,0c-0.023,0.061 -0.053,0.119 -0.086,0.171c-0.301,0.449 0.221,0.744 0.221,0.744l6.076,0c0,0 0.434,-0.592 0.133,-0.968c-0.299,-0.374 -0.373,-1.121 -0.373,-1.121l0,-18.618c0,0 -0.301,-2.169 1.135,-2.169c0.191,0 -0.156,-0.037 0,0c0.467,0.081 0.485,-0.934 -0.39,-0.934Z" style="fill:#264534;"/><path d="M153.904,65.709l-0.172,-0.234l-0.078,0l0.203,0.277c0.016,-0.012 0.03,-0.025 0.047,-0.043Z" style="fill:#264534;"/><path d="M174.479,91.923c-1.475,0 -2.695,-0.401 -3.717,-1.06c1.191,1.188 2.75,1.975 4.807,1.975c8.525,0 8.676,-10.614 8.676,-10.614l-1.002,0c-0.323,2.738 -1.819,9.699 -8.764,9.699Z" style="fill:#264534;"/><path d="M183.33,78.224l-0.008,0.171l-11.447,0c-0.062,0.997 -0.314,6.342 1.371,8.17c0.119,0.133 0.25,0.234 0.383,0.321c-1.234,-2.603 -0.826,-7.58 -0.826,-7.58l11.441,0c0,0 0.34,-8.198 -3.432,-12.168c2.768,4.195 2.53,10.779 2.518,11.086Z" style="fill:#264534;"/><path d="M174.467,69.587c0.142,0 -0.129,-0.027 0,0c0.307,-0.051 0.385,-0.084 0.344,-0.363c-0.037,-0.271 -0.152,-0.506 -0.621,-0.545c-0.461,-0.038 -0.705,0.159 -1.035,0.502c-1.078,1.126 -1.129,3.758 -1.121,4.449l0.951,0c0.126,-1.676 0.156,-4.043 1.482,-4.043Z" style="fill:#264534;"/><path d="M134.539,70.08c0.219,0 0.391,-0.077 0.428,-0.349c0.039,-0.429 -0.277,-0.467 -0.584,-0.459c-1.854,0.05 -2.354,4.428 -2.354,8.571c0,5.104 0.467,6.975 1.691,7.584c-0.752,-1.712 -0.777,-3.652 -0.777,-6.49c2.84217e-14,-4.268 0.428,-8.857 1.596,-8.857Z" style="fill:#264534;"/><path d="M143.471,78.515c0,8.647 -3.062,13.408 -8.627,13.408c-1.688,0 -3.057,-0.417 -4.172,-1.109c1.305,1.267 3.027,2.024 5.264,2.024c6.58,0 8.449,-6.578 8.449,-13.232c0,-4.476 -0.781,-9.393 -3.318,-12.131c1.99,3.131 2.404,7.76 2.404,11.04Z" style="fill:#264534;"/><path d="M97.377,91.923c-0.029,0.061 -0.061,0.119 -0.104,0.171c-0.299,0.375 0.188,0.744 0.188,0.744l5.881,0c0,0 0.662,-0.368 0.289,-0.818c-0.025,-0.031 -0.047,-0.064 -0.068,-0.097Z" style="fill:#264534;"/><path d="M104.334,70.017c-1.723,0 -1.973,1.435 -1.99,1.558l0,18.232c0,0.008 0.004,0.619 0.246,0.955l0.361,0.428c0.623,0.079 0.305,-0.777 0.305,-0.777l0,-17.76c0,0 0.225,-1.72 2.168,-1.72c0.209,0 0.389,0.021 0.553,0.057c-0.174,-0.44 -0.6,-0.973 -1.643,-0.973Z" style="fill:#264534;"/><path d="M123.148,91.946c-0.293,-0.234 -0.299,-1.046 -0.299,-1.046l0,-19.444c0,0 0.148,-3.142 -1.346,-4.785c-0.111,-0.119 -0.232,-0.226 -0.361,-0.324c0.885,1.699 0.799,3.916 0.791,4.027c0,-0.009 0,19.434 0,19.434c0,0.307 0.125,0.74 0.23,0.907c0.301,0.476 0.68,0.875 0.721,0.946l0.146,0.264l-6.268,0c-0.879,0.436 0.016,0.915 0.016,0.915l6.389,0c0.001,-0.002 0.702,-0.326 -0.019,-0.894Z" style="fill:#264534;"/><path d="M106.957,91.923c-0.695,0.553 0.047,0.915 0.047,0.915l6.465,0c0,0 0.404,-0.519 0.031,-0.818c-0.033,-0.026 -0.062,-0.062 -0.092,-0.097Z" style="fill:#264534;"/><path d="M114.131,70.017c-1.502,0 -1.949,1.611 -1.994,1.792l0,18.062c0.021,0.19 0.127,0.718 0.385,0.921c0.248,0.201 0.246,0.205 0.441,0.205c0.311,-0.117 0.09,-0.86 0.09,-0.86l0,-17.26c0,0 0.447,-1.944 2.168,-1.944c0.184,0 0.346,0.02 0.496,0.051c-0.158,-0.399 -0.563,-0.967 -1.586,-0.967Z" style="fill:#264534;"/><path d="M102.754,65.586l-0.021,-0.037l-0.23,0l0.09,0.15c0.044,-0.033 0.096,-0.07 0.161,-0.113Z" style="fill:#264534;"/><path d="M91.739,90.227l0,-18.097c0,0 0.238,-3.724 -1.763,-5.433c0.991,1.836 0.859,4.215 0.85,4.354c0,-0.013 0,18.083 0,18.083c0,0.008 0.004,0.717 0.28,1.268c0.285,0.571 0.867,1.222 0.871,1.228l0.264,0.294l-6.225,0c0.063,0.111 0.131,0.224 0.19,0.323c0.223,0.373 0.672,0.592 0.672,0.592l4.935,0c0,0 1.09,-0.169 0.226,-1.266c-0.415,-0.526 -0.3,-1.346 -0.3,-1.346Z" style="fill:#264534;"/><path d="M81.494,73.058l0,-0.554c0,0 0.224,-1.654 0.854,-2.033c0.391,-0.234 0.74,-0.391 1.17,-0.274c-0.123,-0.326 -0.509,-0.84 -0.741,-0.86c-0.388,-0.034 -0.857,0.044 -1.253,0.443c-0.46,0.341 -0.943,1.312 -0.943,2.249l0,1.051Z" style="fill:#264534;"/><path d="M81.454,74.057l-4.446,0l0,0.914l4.486,0l-0.04,-0.914Z" style="fill:#264534;"/><path d="M81.494,85.067c0,0 -0.29,-3.187 1.206,-4.157c0.645,-0.422 0.843,-0.391 0.843,-0.391l0,-0.935c0,0 -0.466,-0.251 -1.622,0.501c-1.395,0.907 -1.339,3.856 -1.339,3.886c-0.001,0.034 0.093,1.222 0.366,1.921c0.069,0.179 0.195,0.314 0.391,0.236c0.386,-0.158 0.155,-1.061 0.155,-1.061Z" style="fill:#264534;"/><path d="M84.375,91.58c-0.148,-0.245 -0.328,-0.555 -0.435,-0.74c-0.555,0.338 -1.889,1.083 -3.909,1.083c-1.027,0 -1.894,-0.111 -2.638,-0.475c0.97,1.153 2.182,1.39 3.727,1.39c1.718,0 2.799,-0.48 3.555,-0.907c-0.109,-0.096 -0.217,-0.213 -0.3,-0.351Z" style="fill:#264534;"/><path d="M71.799,91.879l0.028,0.044l-7.19,0c-0.293,0.597 0.068,0.915 0.068,0.915l6.814,0c0,0 0.813,-0.413 0.327,-0.893c-0.016,-0.018 -0.03,-0.044 -0.047,-0.066Z" style="fill:#264534;"/><path d="M70.883,90.73c0.209,0.226 0.433,0.248 0.442,0.268c0.195,-0.196 -0.002,-0.621 -0.002,-0.621l0,-33.752l-0.913,0l0,32.648c0.043,0.322 0.215,1.177 0.473,1.457Z" style="fill:#264534;"/><path d="M60.358,91.879l0.028,0.044l-7.191,0c-0.292,0.597 0.241,0.915 0.241,0.915l6.646,0c0,0 0.81,-0.413 0.324,-0.893c-0.017,-0.018 -0.031,-0.044 -0.048,-0.066Z" style="fill:#264534;"/><path d="M59.441,90.73c0.316,0.343 0.423,0.105 0.433,0.124c0.158,-0.17 0.008,-0.476 0.008,-0.476l0,-33.753l-0.912,0l0,32.648c0.04,0.322 0.214,1.177 0.471,1.457Z" style="fill:#264534;"/><path d="M40.691,91.091c-0.153,-0.272 -0.246,-0.45 -0.302,-0.573c-0.578,0.357 -2.473,1.405 -4.778,1.405c-0.918,0 -1.577,-0.127 -2.081,-0.338c0.56,0.721 1.314,1.253 3.17,1.253c1.984,0 3.679,-0.809 4.439,-1.235c-0.16,-0.121 -0.32,-0.282 -0.448,-0.512Z" style="fill:#264534;"/><path d="M47.694,90.15l0,-24.45l-0.913,0l0,23.361c0,-0.008 0.077,0.771 0.494,1.396c0.505,0.759 0.745,1.188 0.755,1.207l0.145,0.26l-6.3,0c-0.003,0 -0.019,-0.003 -0.036,-0.005c0.03,0.055 0.062,0.112 0.097,0.177c0.374,0.673 1.047,0.744 1.047,0.744l4.949,0c0,0 0.794,-0.431 0.285,-1.192c-0.448,-0.675 -0.523,-1.498 -0.523,-1.498Z" style="fill:#264534;"/><path d="M36.834,85.483l-0.002,0.012c-0.001,0.01 -0.118,0.891 0.36,1.441c0.149,0.169 0.347,0.288 0.583,0.361c-0.073,-0.401 -0.026,-0.736 -0.026,-0.736l0,-20.936l-0.914,0l0,19.858Z" style="fill:#264534;"/><path d="M16.88,91.923c-0.406,0.673 0.204,0.915 0.204,0.915l7.166,0c0,0 0.641,-0.242 0.134,-0.915Z" style="fill:#264534;"/><path d="M27.354,61.247c0,0 0.822,0.039 2.093,0.487c0.074,0.026 0.136,0.063 0.204,0.092c-0.27,-0.352 -0.708,-0.787 -1.354,-1.016c-1.226,-0.435 -2.034,-0.475 -2.043,-0.475c0.009,0 -2.623,0 -3.329,0l0,28.353c0.019,0.391 0.133,1.519 0.417,1.915c0.351,0.494 0.65,0.224 0.804,0.353c-0.247,-0.644 -0.308,-1.179 -0.308,-1.179l0,-28.53Z" style="fill:#264534;"/><path d="M12.377,60.335c-0.106,0.026 -1.048,0.278 -1.728,0.684c-0.121,0.075 -0.236,0.166 -0.347,0.26l0,0.804c0,0 0.516,-0.252 1.346,-0.52c0.968,-0.311 1.794,-0.316 1.794,-0.316l2.771,0c0,-0.419 0,-0.734 0,-0.912Z" style="fill:#264534;"/><path d="M31.242,61.669l0,-5.044l-0.915,0l0,5.611c0.636,0.517 0.915,-0.567 0.915,-0.567Z" style="fill:#264534;"/><path d="M103.643,108.534l7.182,0c0,0 -0.375,0.376 -0.525,0.974c-0.111,0.44 0.076,1.272 0.076,1.272l2.99,12.862l3.066,-13.164c0,0 0.076,-0.821 -0.15,-1.117c-0.223,-0.302 -0.523,-0.751 -0.523,-0.751l6.867,0c0,0 -0.51,0.374 -0.584,0.897c-0.076,0.522 0.074,0.971 0.074,0.971l3.066,13.609l3.289,-13.907c0,0 0.074,-0.523 -0.074,-0.897c-0.15,-0.373 -0.523,-0.673 -0.523,-0.673l6.281,0c0,0 -0.373,0.3 -0.598,0.751c-0.227,0.445 -0.299,1.045 -0.299,1.045l-5.311,23.629c0,0 -0.074,0.524 0.15,0.974c0.225,0.447 0.674,1.116 0.674,1.116l-7.555,0c0,0 0.455,-0.686 0.602,-1.134c0.15,-0.448 -0.002,-1.031 -0.002,-1.031l-2.844,-12.188l-2.988,12.338c0,0 -0.109,0.638 0.031,0.921c0.195,0.391 0.715,1.095 0.715,1.095l-7.328,0c0,0 0.512,-0.777 0.732,-1.174c0.195,-0.349 0.014,-1.065 0.014,-1.065l-5.533,-24.005c0,0 -0.148,-0.598 -0.447,-0.821c-0.299,-0.224 -0.525,-0.527 -0.525,-0.527Z" style="fill:#264534;"/><path d="M80.163,110.254c0,0 0.673,-3.886 -2.095,-7.625c-2.765,-3.739 -7.626,-3.289 -7.626,-3.289l-10.247,0c0,0 0.451,0.521 0.824,1.12c0.374,0.599 0.45,1.72 0.45,1.72l0,31.93c0,0 0.073,0.673 -0.3,1.272c-0.373,0.598 -0.974,0.743 -0.974,0.743l11.518,0c0,0 2.991,0.229 5.609,-2.239c2.616,-2.467 2.915,-9.122 2.915,-9.122ZM73.507,107.563l0,17.649c0,0 0,2.018 -0.597,4.261c-0.599,2.243 -1.647,2.094 -1.647,2.094l-2.916,0l0,-27.892l2.617,0c0,0 0.599,-0.077 1.645,0.749c1.047,0.821 0.898,3.139 0.898,3.139Z" style="fill:#264534;"/><path d="M101.717,122.595c0,0 0.598,-14.283 -8.451,-14.283c-9.047,0 -8.824,14.359 -8.824,14.359c0,0 0.074,13.454 8.601,13.454c8.523,0 8.674,-10.614 8.674,-10.614l-5.534,0c0,0 0.522,6.206 -3.066,6.206c-3.59,0 -2.842,-9.122 -2.842,-9.122ZM92.893,112.873c2.692,0 2.393,5.309 2.393,5.309l-4.859,0c-0.001,0 -0.226,-5.309 2.466,-5.309Z" style="fill:#264534;"/><path d="M116.863,134.861c-0.035,0.212 -0.064,0.631 0.02,0.798c0.186,0.371 0.693,1.062 0.699,1.068l0.207,0.282l-6.006,0c-0.82,0.551 0.037,0.915 0.037,0.915l5.607,0c0,0 1.092,-0.247 0.389,-1.094c-0.203,-0.246 -0.035,-0.922 -0.035,-0.922l2.475,-10.199c-0.236,-1.018 -0.441,-1.891 -0.576,-2.465Z" style="fill:#264534;"/><path d="M134.314,110.409c-0.125,0.36 -0.172,0.723 -0.172,0.726c-0.006,0.019 -5.314,23.647 -5.314,23.647c0.002,-0.009 -0.061,0.464 0.137,0.856c0.215,0.43 0.656,1.089 0.66,1.095l0.186,0.276l-6.279,0c-0.807,0.551 0.051,0.915 0.051,0.915l6.154,0c0,0 0.818,-0.169 0.16,-1.118c-0.285,-0.413 -0.15,-0.971 -0.15,-0.971l5.311,-23.631c0,0 0.076,-0.6 0.299,-1.047c0.223,-0.449 -0.09,-0.749 -0.09,-0.749l-0.953,0Z" style="fill:#264534;"/><path d="M122.99,111.132c0.004,0.018 2.264,10.046 2.902,12.881l0.342,-1.437l-2.318,-10.297c0,0 -0.152,-0.449 -0.076,-0.971c0.076,-0.524 -0.219,-0.899 -0.219,-0.899l-0.713,0c-0.021,0.4 0.08,0.722 0.082,0.723Z" style="fill:#264534;"/><path d="M111.256,111.451c0,-0.003 2.186,9.394 2.816,12.12l0.33,-1.408l-2.229,-9.585c0,0 -0.188,-0.832 -0.074,-1.27c0.15,-0.6 -0.123,-0.974 -0.123,-0.974l-0.811,0c-0.052,0.344 0.044,0.91 0.091,1.117Z" style="fill:#264534;"/><path d="M72.765,105.473c0,0 0.284,-0.028 0.798,0.215c-0.097,-0.162 -0.213,-0.308 -0.354,-0.416c-0.958,-0.754 -1.511,-0.714 -1.518,-0.712l-2.459,0l0,27.54l0.915,0l0,-26.627Z" style="fill:#264534;"/><path d="M79.867,104.427c-0.204,-0.276 -0.424,-0.521 -0.648,-0.756c2.368,3.54 1.86,7.113 1.828,7.305c0.002,0.282 0.077,14.495 0.077,14.505c-0.013,0.274 -0.334,6.754 -2.973,9.242c-2.645,2.493 -5.617,2.296 -5.742,2.287c0.009,0 -6.017,0 -9.349,0c-0.028,0.057 -0.057,0.115 -0.093,0.172c-0.373,0.599 0.478,0.743 0.478,0.743l10.066,0c0,0 2.994,0.229 5.61,-2.24c2.616,-2.467 2.917,-9.122 2.917,-9.122l-0.075,-14.508c-0.001,2.84217e-14 0.672,-3.889 -2.096,-7.628Z" style="fill:#264534;"/><path d="M93.751,137.01c-1.474,0 -2.698,-0.403 -3.715,-1.062c1.189,1.188 2.75,1.977 4.805,1.977c8.524,0 8.675,-10.616 8.675,-10.616l-1.002,0c-0.321,2.739 -1.819,9.701 -8.763,9.701Z" style="fill:#264534;"/><path d="M102.602,123.312l-0.006,0.168l-11.448,0c-0.063,0.997 -0.316,6.345 1.369,8.173c0.121,0.131 0.252,0.231 0.385,0.318c-1.233,-2.601 -0.827,-7.576 -0.827,-7.576l11.441,0c0,0 0.34,-8.198 -3.43,-12.173c2.766,4.195 2.529,10.781 2.516,11.09Z" style="fill:#264534;"/><path d="M93.714,114.672c0.19,-0.051 -0.128,-0.029 0,0c0.175,0.015 0.317,-0.131 0.345,-0.362c0.041,-0.311 -0.163,-0.544 -0.623,-0.544c-0.462,0 -0.681,0.159 -1.007,0.502c-1.082,1.127 -1.129,3.759 -1.123,4.446l0.95,0c0.127,-1.656 0.268,-3.722 1.458,-4.042Z" style="fill:#264534;"/></g></g></svg>