<?xml version="1.0" standalone="no"?><!DOCTYPE svg PUBLIC "-//W3C//DTD SVG 1.1//EN" "http://www.w3.org/Graphics/SVG/1.1/DTD/svg11.dtd"><svg width="98px" height="72px" version="1.1" xmlns="http://www.w3.org/2000/svg" xmlns:xlink="http://www.w3.org/1999/xlink" xml:space="preserve" style="fill-rule:evenodd;clip-rule:evenodd;stroke-linejoin:round;stroke-miterlimit:1.41421;"><g><g transform="matrix(0.212311,0,5.40902e-33,0.212311,25.2934,3.00927e-36)"><path d="M222.635,0c-2.262,0.57 -4.502,1.148 -6.723,1.735c-282.719,74.851 -226.521,297.813 -169.461,337.39c-34.916,-71.628 18.223,-174.719 170.237,-172.53c2.192,0.032 4.398,0.08 6.632,0.155Z" style="fill:#0092d4;fill-rule:nonzero;"/><path d="M124.683,141.553c-1.537,1.017 -8.571,4.581 -9.943,5.182l-1.131,18.689c-1.394,1.847 -3.447,4.057 -6.205,5.58c-2.604,1.437 -4.817,1.882 -6.607,1.4c-2.385,-2.375 -3.44,-7.459 -2.986,-14.947c0.814,-13.415 6.067,-27.969 15.282,-33.05c4.357,-2.401 11.851,-1.404 11.851,-1.404l3.096,-9.205c-0.848,-0.246 -2.297,-1.35 -2.297,-1.35c-4.346,-1.274 -9.134,-0.17 -14.379,2.723c-14.103,7.774 -25.89,25.119 -27.224,47.117c-0.689,11.353 2.265,17.395 7.184,19.389c4.2,3.375 10.625,2.528 17.636,-1.344c5.373,-2.963 10.912,-7.723 16.539,-12.96l1.483,-24.47c-0.449,0.296 -2.299,-1.35 -2.299,-1.35Z" style="fill:#004996;fill-rule:nonzero;"/><path d="M65.689,145.534l1.714,1.032l9.003,-9.181c6.905,-31.649 15.276,-74.857 23.218,-108.915c0,0 0,0 -1.719,-1.031l-10.887,7.084l-11.022,61.069c-1.781,-14.21 -5.989,-47.649 -5.944,-45.598c0,0 0,0 -1.719,-1.032l-11.773,10.162l-10.771,68.554l-4.977,-49.638l-1.717,-1.033l-14.134,17.901l9.677,90.799l1.719,1.032l10.168,-16.536c0.025,-0.431 9.848,-57.943 12.959,-76.15Z" style="fill:#004996;fill-rule:nonzero;"/><path d="M109.636,85.335l-2.988,-17.615l-5.453,25.02ZM124.72,99.594l-11.076,7.712l-2.299,-1.352l-2.587,-13.725l-9.766,8.38l-5.067,20.462l-7.574,7.315l-2.297,-1.351l19.144,-83.938l8.704,-5.497l2.297,1.35Z" style="fill:#004996;fill-rule:nonzero;"/><path d="M192.383,4.129l-10.925,2.922l-1.566,25.865l-9.734,4.107l1.505,-24.962l-2.302,-1.351l-10.84,4.094l-4.029,68.013l2.297,1.35l10.989,-6.075l1.759,-30.764l9.739,-4.284l-1.717,28.33l2.299,1.351l10.999,-4.207l3.825,-63.038Z" style="fill:#004996;fill-rule:nonzero;"/><path d="M136.682,42.853c0.395,-5.254 2.951,-8.443 6.119,-10.235c1.967,-1.115 4.499,-0.611 6.459,0.253c0.148,0.117 0.409,0.188 0.409,0.188c1.003,0.488 1.828,1.053 2.285,1.502l0.63,-8.306c-0.632,-0.315 -2.298,-1.348 -2.298,-1.348c-1.927,-0.964 -4.898,-2.914 -11.308,0.343c-6.688,4.382 -12.252,12.217 -12.823,19.785c-1.215,16.149 17.614,18.009 16.767,29.256c-0.459,6.137 -3.319,11.036 -7.183,12.699c-2.245,0.964 -4.206,1.584 -5.801,0.841c-0.373,-0.249 -0.701,-0.474 -0.973,-0.617l-0.006,0.104c-0.96,-0.559 -1.739,-1.156 -2.291,-1.455l-0.629,8.24c0.542,0.172 2.298,1.348 2.298,1.348c1.727,0.553 6.185,2.11 10.458,-0.475c11.867,-7.188 14.375,-17.182 15.003,-25.542c1.13,-15.073 -17.652,-19.434 -17.116,-26.581Z" style="fill:#004996;fill-rule:nonzero;"/><path d="M170.116,90.609c-3.672,-2.688 -8.305,-3.811 -16.068,0.472c-15.199,8.379 -24.91,27.485 -25.977,45.065c-0.718,11.875 1.93,18.986 7.015,21.267c3.624,3.59 9.252,3.486 16.253,-0.374c14.952,-8.247 24.997,-27.958 25.981,-45.153c0.506,-9.003 -1.221,-17.52 -7.204,-21.277ZM145.057,148.067c-2.449,-2.598 -3.227,-8.314 -2.853,-14.449c1.062,-17.53 6.046,-28.221 13.562,-32.366c1.847,-1.017 3.399,-1.292 4.698,-0.994c3.215,2.267 3.421,8.828 3.042,15.062c-0.788,12.991 -5.249,27.099 -13.575,31.688c-1.931,1.066 -3.542,1.356 -4.874,1.059Z" style="fill:#004996;fill-rule:nonzero;"/><path d="M84.82,196.978l-15.613,-20.318l-0.537,-0.767c3.533,-4.865 7.403,-10.821 7.784,-17.074c0.232,-3.874 -1.083,-4.676 -3.224,-5.828c-2.104,-1.753 -4.745,-1.585 -7.566,-0.052c-4.895,2.654 -10.275,9.886 -10.729,17.39c-0.327,5.393 1.494,8.922 2.912,10.771c-16.071,23.12 -11.072,31.355 -5.605,33.479c2.771,2.32 6.652,2.269 7.906,1.443c3.809,-2.51 7.634,-5.113 10.457,-10.814l-1.469,-2.779c-2.385,-1.071 -2.298,-1.348 -2.298,-1.348c-2.758,3.416 -5.214,4.677 -7.073,4.456c-2.161,-2.82 -1.796,-9.537 2.952,-16.172l10.059,13.355c0.217,-0.14 2.299,1.347 2.299,1.347c1.766,-1.114 7.997,-6.291 9.745,-7.089Z" style="fill:#004996;fill-rule:nonzero;"/><path d="M119.971,164.788c-5.628,5.24 -11.167,10.001 -16.537,12.962c-12.878,7.1 -23.782,4.064 -22.526,-16.699c1.335,-21.997 13.124,-39.34 27.224,-47.117c5.248,-2.894 10.034,-3.995 14.38,-2.72l-3.097,9.204c0,0 -7.495,-0.998 -11.852,1.405c-9.212,5.08 -14.466,19.633 -15.28,33.048c-0.843,13.893 3.509,19.52 11.894,14.898c2.758,-1.52 4.812,-3.734 6.204,-5.584l1.133,-18.685c1.368,-0.6 8.407,-4.165 9.942,-5.183Z" style="fill:#fff;fill-rule:nonzero;"/><path d="M21.329,89.719l14.063,-16.69l6.18,59.682l11.551,-75.76l11.775,-10.161c0.151,-1.665 6.93,52.766 6.93,52.766l11.96,-66.269l10.891,-7.084c-7.942,34.052 -16.313,77.264 -23.218,108.916l-9.003,9.178l-6.988,-57.979c0,0 -13.861,81.105 -13.892,81.621l-10.172,16.531Z" style="fill:#fff;fill-rule:nonzero;"/><path d="M93.466,98.023l-5.066,20.463l-7.576,7.315l19.146,-83.938l8.701,-5.497l10.521,60.646l-11.073,7.708l-3.128,-16.584ZM104.4,84.069l-3.279,-18.936l-6.007,27.312Z" style="fill:#fff;fill-rule:nonzero;"/><path d="M155.244,14.375l10.838,-3.993l-1.593,26.434l12.175,-5.136l1.529,-25.258l10.933,-3.022l-3.795,62.531l-11.001,4.209l1.863,-30.756l-12.185,5.359l-1.758,30.765l-10.988,6.075Z" style="fill:#fff;fill-rule:nonzero;"/><path d="M135.749,24.014c-6.686,4.38 -12.257,12.217 -12.825,19.789c-1.213,16.146 17.615,18.006 16.77,29.252c-0.459,6.14 -3.319,11.037 -7.187,12.699c-4.243,1.823 -7.536,-1.337 -9.082,-2.179l-0.613,9.292c1.725,0.552 6.18,2.109 10.455,-0.479c11.869,-7.186 14.375,-17.178 15.004,-25.542c1.132,-15.072 -17.653,-19.431 -17.116,-26.578c0.396,-5.257 2.951,-8.444 6.119,-10.237c3.168,-1.795 7.782,0.597 9.154,1.943l0.632,-8.305c-1.93,-0.962 -4.904,-2.915 -11.311,0.345Z" style="fill:#fff;fill-rule:nonzero;"/><path d="M145.811,154.453c-13.486,7.438 -21.883,0.968 -20.665,-19.086c1.065,-17.579 10.777,-36.686 25.973,-45.063c17.394,-9.592 21.444,5.338 20.674,18.998c-0.983,17.191 -11.028,36.906 -25.982,45.151ZM136.677,131.031c-0.618,10.174 1.916,19.213 10.025,14.742c8.326,-4.59 12.788,-18.698 13.576,-31.69c0.612,-10.092 -1.927,-19.888 -10.039,-15.417c-7.515,4.147 -12.501,14.836 -13.562,32.365Z" style="fill:#fff;fill-rule:nonzero;"/><path d="M64.681,159.77c0.144,-2.392 -0.835,-4.114 -2.648,-3.132c-1.941,1.059 -3.208,3.406 -3.376,6.166c-0.165,2.76 1.275,5.121 2.177,6.765c1.654,-2.56 3.671,-6.917 3.847,-9.799ZM57.82,185.918c-9.56,12.338 -3.604,25.559 5.788,13.921l1.466,2.784c-2.823,5.7 -6.646,8.303 -10.452,10.811c-3.148,2.079 -22.831,-0.733 -0.004,-33.568c-1.418,-1.85 -3.238,-5.383 -2.913,-10.776c0.457,-7.501 5.837,-14.732 10.727,-17.388c4.066,-2.209 8.91,-2.346 8.494,4.53c-0.381,6.254 -4.247,12.207 -7.782,17.078l0.538,0.767l15.614,20.315c-1.75,0.799 -7.981,5.978 -9.751,7.087Z" style="fill:#fff;fill-rule:nonzero;"/></g></g></svg>